<?xml version="1.0" encoding="UTF-8" standalone="no"?>
<!-- Created with Inkscape (http://www.inkscape.org/) -->
<svg
   xmlns:svg="http://www.w3.org/2000/svg"
   xmlns="http://www.w3.org/2000/svg"
   xmlns:xlink="http://www.w3.org/1999/xlink"
   version="1.0"
   width="43.5"
   height="56.5"
   id="svg2">
  <defs
     id="defs5">
    <linearGradient
       x1="0"
       y1="22"
       x2="74"
       y2="22"
       id="linearGradient2431"
       xlink:href="#linearGradient3166"
       gradientUnits="userSpaceOnUse"
       gradientTransform="matrix(0.3333,0,0,0.3333,27.031478,32.193732)" />
    <linearGradient
       x1="0"
       y1="22"
       x2="74"
       y2="22"
       id="linearGradient2428"
       xlink:href="#linearGradient3166"
       gradientUnits="userSpaceOnUse"
       gradientTransform="matrix(0.3333,0,0,0.3333,27.031478,45.064925)" />
    <linearGradient
       x1="0"
       y1="22"
       x2="74"
       y2="22"
       id="linearGradient3172"
       xlink:href="#linearGradient3166"
       gradientUnits="userSpaceOnUse" />
    <linearGradient
       id="linearGradient3166">
      <stop
         id="stop3168"
         style="stop-color:#ffffff;stop-opacity:1"
         offset="0" />
      <stop
         id="stop3170"
         style="stop-color:#ffff00;stop-opacity:1"
         offset="1" />
    </linearGradient>
    <linearGradient
       x1="0"
       y1="22"
       x2="74"
       y2="22"
       id="linearGradient2557"
       xlink:href="#linearGradient3166"
       gradientUnits="userSpaceOnUse"
       gradientTransform="matrix(0.3333,0,0,0.3333,9.2560985,9.9123239)" />
    <linearGradient
       x1="0"
       y1="22"
       x2="74"
       y2="22"
       id="linearGradient2561"
       xlink:href="#linearGradient3166"
       gradientUnits="userSpaceOnUse"
       gradientTransform="matrix(0.3333,0,0,0.3333,8.962951,22.783517)" />
    <linearGradient
       x1="0"
       y1="22"
       x2="74"
       y2="22"
       id="linearGradient2461"
       xlink:href="#linearGradient3166"
       gradientUnits="userSpaceOnUse"
       gradientTransform="matrix(0.3333,0,0,0.3333,27.031478,32.193732)" />
    <linearGradient
       x1="0"
       y1="22"
       x2="74"
       y2="22"
       id="linearGradient2463"
       xlink:href="#linearGradient3166"
       gradientUnits="userSpaceOnUse"
       gradientTransform="matrix(0.3333,0,0,0.3333,27.031478,45.064925)" />
  </defs>
  <path
     d="M 0.75,0.75 L 34.618627,0.75 C 34.618627,0.75 38.364227,1.9821101 39.669608,2.995098 C 40.856507,3.9161424 42.75,6.9480392 42.75,6.9480392 L 42.75,49.222549 C 42.75,49.222549 40.914623,52.48677 40.108824,53.285295 C 38.685367,54.6959 34.838235,55.75 34.838235,55.75 L 0.75,55.75 L 0.75,0.75 z"
     id="path2384"
     style="fill:#e0e0e0;fill-opacity:1;stroke:#a0a0a0;stroke-width:1.5;stroke-dasharray:none;stroke-opacity:1" />
  <g
     transform="translate(-17.113578,-17.711929)"
     id="g2457">
    <path
       d="M 43.029878,32.527032 C 48.362678,32.527032 48.362678,32.527032 48.362678,32.527032 C 48.362678,32.527032 49.739806,33.3558 50.195828,33.860232 C 50.661605,34.375455 51.362378,35.860032 51.362378,35.860032 L 51.362378,42.192733 C 51.362378,42.192733 50.623435,43.423827 50.195828,43.859233 C 49.719356,44.344394 48.362678,45.192433 48.362678,45.192433 L 42.696578,45.192433 L 42.696578,45.192433 L 42.696578,46.525632 L 36.030578,46.525632 L 36.030578,45.192433 L 30.364478,45.192433 C 30.364478,45.192433 29.007801,44.344394 28.531328,43.859233 C 28.103721,43.423827 27.364778,42.192733 27.364778,42.192733 L 27.364778,35.860032 C 27.364778,35.860032 28.065551,34.375455 28.531328,33.860232 C 28.98735,33.3558 30.364478,32.527032 30.364478,32.527032 L 35.697278,32.527032 L 35.697278,34.193532 L 43.029878,34.193532 L 43.029878,32.527032 z"
       id="path9"
       style="fill:url(#linearGradient2461);fill-opacity:1;stroke:#c0a000;stroke-width:0.66659999;stroke-opacity:1" />
    <path
       d="M 43.029878,45.398226 C 48.362678,45.398226 48.362678,45.398226 48.362678,45.398226 C 48.362678,45.398226 49.739806,46.226993 50.195828,46.731425 C 50.661605,47.246648 51.362378,48.731225 51.362378,48.731225 L 51.362378,55.063926 C 51.362378,55.063926 50.623435,56.295021 50.195828,56.730425 C 49.719356,57.215587 48.362678,58.063626 48.362678,58.063626 L 42.696578,58.063626 L 42.696578,58.063626 L 42.696578,59.396826 L 36.030578,59.396826 L 36.030578,58.063626 L 30.364478,58.063626 C 30.364478,58.063626 29.007801,57.215587 28.531328,56.730425 C 28.103721,56.295021 27.364778,55.063926 27.364778,55.063926 L 27.364778,48.731225 C 27.364778,48.731225 28.065551,47.246648 28.531328,46.731425 C 28.98735,46.226993 30.364478,45.398226 30.364478,45.398226 L 35.697278,45.398226 L 35.697278,47.064725 L 43.029878,47.064725 L 43.029878,45.398226 z"
       id="path2559"
       style="fill:url(#linearGradient2463);fill-opacity:1;stroke:#c0a000;stroke-width:0.66659999;stroke-opacity:1" />
  </g>
</svg>
