<?xml version="1.0" encoding="UTF-8" standalone="no"?>
<!-- Created with Inkscape (http://www.inkscape.org/) -->
<svg
   xmlns:svg="http://www.w3.org/2000/svg"
   xmlns="http://www.w3.org/2000/svg"
   version="1.0"
   width="43.5"
   height="56.5"
   id="svg2">
  <defs
     id="defs19" />
  <path
     d="M 0.75,0.75 L 34.618627,0.75 C 34.618627,0.75 38.364227,1.9821101 39.669608,2.995098 C 40.856507,3.9161424 42.75,6.9480392 42.75,6.9480392 L 42.75,49.222549 C 42.75,49.222549 40.914623,52.48677 40.108824,53.285295 C 38.685367,54.6959 34.838235,55.75 34.838235,55.75 L 0.75,55.75 L 0.75,0.75 z"
     id="path4"
     style="fill:#ffe000;fill-opacity:1;stroke:#a06400;stroke-width:1.5;stroke-dasharray:none;stroke-opacity:1" />
  <g
     transform="translate(-7.944119,2.10283)"
     id="g6">
    <path
       d="M 20.5,42 C 21.875591,41.187419 23.324128,40.131694 24,40 C 24.675872,39.868306 24.579078,40.660641 26,41.5 C 28.871423,43.196191 31.128577,43.196191 34,41.5 C 35.420922,40.660641 35.324128,39.868306 36,40 C 36.675872,40.131695 38.12441,41.187419 39.5,42 C 41.097361,42.943585 45.505636,43 46.5,43 C 47.862975,43 46.110123,41.182602 43.5,39 L 39.5,36 L 41.5,34 C 43.552001,30.398605 44.059678,28.270677 42.5,25 L 40.5,22.5 L 46,18.5 C 48.053201,16.852866 47.33499,14.042026 47,13.5 C 46.830328,13.225464 45.426642,13.185188 44.5,13.5 C 43.573358,13.814813 43.12376,14.484714 42.324973,15.25 C 39.61284,17.848388 40.886787,18.640024 37.081726,17.5 C 32.686548,16.183173 31.958771,15.10832 34.713812,12.064035 C 36.256507,10.359375 36.010696,8.923122 34.323529,7.0588235 C 32.022396,4.5161006 28.330545,4.3984536 26.029412,6.9411765 C 24.342245,8.805475 23.743493,10.477022 25.286188,12.181682 C 28.041229,15.225967 27.078158,16.183173 22.68298,17.5 C 18.891138,18.636063 19.911225,17.775269 17.275412,15.25 C 16.506393,14.513234 16.326683,13.803223 15.5,13.5 C 14.673317,13.196776 13.199661,13.300339 13,13.5 C 12.60068,13.89932 11.918971,16.752871 14,18.5 L 19.5,22.5 L 17.5,25 C 15.934588,28.282703 16.446238,30.395513 18.5,34 L 20.5,36 L 16.5,39 C 13.889877,41.182602 12.137025,43 13.5,43 C 14.494364,43 18.902639,42.943585 20.5,42 z"
       id="path8"
       style="fill:#008000;fill-opacity:1;stroke:#008000;stroke-opacity:1" />
    <path
       d="M 35.933332,10.6 C 35.933332,12.220035 34.545415,13.533333 32.833332,13.533333 C 31.121249,13.533333 29.733332,12.220035 29.733332,10.6 C 29.733332,8.9799646 31.121249,7.6666665 32.833332,7.6666665 C 34.545415,7.6666665 35.933332,8.9799646 35.933332,10.6 L 35.933332,10.6 z"
       transform="matrix(0.9687388,0,0,1.0237808,-1.8069228,-0.602077)"
       id="path10"
       style="opacity:1;fill:#00a000;fill-opacity:1;stroke:#00a000;stroke-width:1.5;stroke-opacity:1" />
    <path
       d="M 28.6,8.333333 C 28.6,9.1433508 28.047818,9.7999999 27.366667,9.7999999 C 26.685515,9.7999999 26.133333,9.1433508 26.133333,8.333333 C 26.133333,7.5233152 26.685515,6.8666661 27.366667,6.8666661 C 28.047818,6.8666661 28.6,7.5233152 28.6,8.333333 z"
       transform="matrix(1.0410748,0,0,0.8754493,4.5092528,0.7045893)"
       id="path12"
       style="opacity:1;fill:#000000;fill-opacity:1;stroke:#000000;stroke-width:1.5;stroke-opacity:1" />
    <path
       d="M 28.6,8.333333 C 28.6,9.1433508 28.047818,9.7999999 27.366667,9.7999999 C 26.685515,9.7999999 26.133333,9.1433508 26.133333,8.333333 C 26.133333,7.5233152 26.685515,6.8666661 27.366667,6.8666661 C 28.047818,6.8666661 28.6,7.5233152 28.6,8.333333 z"
       transform="matrix(1.0410748,0,0,0.8754493,-1.4907471,0.7045893)"
       id="path14"
       style="opacity:1;fill:#000000;fill-opacity:1;stroke:#000000;stroke-width:1.5;stroke-opacity:1" />
    <path
       d="M 30.000018,17.434772 C 32.533265,17.466135 36.375857,19.030117 38.250018,20.734772 C 40.267187,22.569502 40.227344,25.717122 40.450018,28.434772 C 40.659101,30.986552 40.208339,33.446565 38.800018,35.584772 C 37.70354,37.249516 36.755682,38.040252 34.950018,38.884772 C 33.924157,39.364573 31.127256,40.974015 30.000018,40.864772 C 28.241122,40.694312 26.528528,39.852644 25.050018,38.884772 C 23.577823,37.921034 22.04357,37.128976 21.200018,35.584772 C 20.087184,33.547623 19.291665,30.741637 19.550018,28.434772 C 19.851198,25.745495 19.738642,22.5451 21.750018,20.734772 C 23.35027,19.294472 27.847215,17.408119 30.000018,17.434772 z"
       id="path16"
       style="fill:none;stroke:#008000;stroke-width:3;stroke-opacity:1" />
  </g>
</svg>
