<?xml version="1.0" encoding="UTF-8" standalone="no"?>
<svg
   xmlns="http://www.w3.org/2000/svg"
   xmlns:xlink="http://www.w3.org/1999/xlink"
   width="74"
   height="44"
   version="1.0">
  <defs>
    <linearGradient
       id="linearGradient3166">
      <stop
         style="stop-color:#ffffff;stop-opacity:1;"
         offset="0"
         id="stop3168" />
      <stop
         style="stop-color:#00ffff;stop-opacity:1;"
         offset="1"
         id="stop3170" />
    </linearGradient>
    <linearGradient
       xlink:href="#linearGradient3166"
       id="linearGradient3172"
       x1="0"
       y1="22"
       x2="74"
       y2="22"
       gradientUnits="userSpaceOnUse" />
  </defs>
  <path
     style="fill:url(#linearGradient3172);fill-opacity:1;stroke:#00a0a0;stroke-width:2;stroke-opacity:1"
     d="M 48,1 C 64,1 64,1 64,1 L 69.5,5 L 73,11 L 73,30 L 69.5,35 L 64,39 L 47,39 L 47,39 L 47,43 L 27,43 L 27,39 L 10,39 L 4.5,35 L 1,30 L 1,11 L 4.5,5 L 10,1 L 26,1 L 26,6 L 48,6 L 48,1 z" />
  <path
     style="fill:none;stroke:#ffffff;stroke-width:1;stroke-opacity:1"
     d="M 49,2.5 L 63,2.5" />
  <path
     style="fill:none;stroke:#ffffff;stroke-width:1;stroke-opacity:1"
     d="M 11,2.5 L 25,2.5" />
  <path
     style="fill:none;stroke:#006060;stroke-width:1;stroke-opacity:1"
     d="M 10.5,39.5 L 26.5,39.5" />
  <path
     style="fill:none;stroke:#006060;stroke-width:1;stroke-opacity:1"
     d="M 47.5,39.5 L 63.5,39.5" />
  <path
     style="fill:none;stroke:#006060;stroke-width:1;stroke-opacity:1"
     d="M 26.5,43.5 L 47.5,43.5" />
  <path
     style="fill:none;stroke:#ffffff;stroke-width:1;stroke-opacity:1"
     d="M 25,7.5 L 49,7.5" />
  <text
       style="font-size:18px;text-anchor:middle;text-align:center;font-family:Bitstream Vera Sans">
    <tspan
       x="37"
       y="26"
       style="font-size:16px;">kynä alas</tspan>
  </text>
</svg>
