<?xml version="1.0" encoding="UTF-8" standalone="no"?>
<!-- Created with Inkscape (http://www.inkscape.org/) -->

<svg
   xmlns:svg="http://www.w3.org/2000/svg"
   xmlns="http://www.w3.org/2000/svg"
   xmlns:xlink="http://www.w3.org/1999/xlink"
   version="1.0"
   width="145"
   height="500"
   id="svg2">
  <defs
     id="defs4">
    <linearGradient
       id="linearGradient3789">
      <stop
         id="stop3791"
         style="stop-color:#ffffff;stop-opacity:1"
         offset="0" />
      <stop
         id="stop3793"
         style="stop-color:#feb00a;stop-opacity:1"
         offset="1" />
    </linearGradient>
    <linearGradient
       x1="80"
       y1="436"
       x2="129"
       y2="436"
       id="linearGradient4683"
       xlink:href="#linearGradient3789"
       gradientUnits="userSpaceOnUse" />
    <linearGradient
       x1="17"
       y1="382"
       x2="128"
       y2="382"
       id="linearGradient4691"
       xlink:href="#linearGradient3789"
       gradientUnits="userSpaceOnUse" />
    <linearGradient
       x1="16"
       y1="325"
       x2="129"
       y2="325"
       id="linearGradient4699"
       xlink:href="#linearGradient3789"
       gradientUnits="userSpaceOnUse" />
    <linearGradient
       x1="80"
       y1="287"
       x2="130"
       y2="287"
       id="linearGradient4708"
       xlink:href="#linearGradient3789"
       gradientUnits="userSpaceOnUse" />
    <linearGradient
       x1="15"
       y1="233"
       x2="130"
       y2="233"
       id="linearGradient4716"
       xlink:href="#linearGradient3789"
       gradientUnits="userSpaceOnUse" />
    <linearGradient
       x1="15"
       y1="150"
       x2="130"
       y2="150"
       id="linearGradient4724"
       xlink:href="#linearGradient3789"
       gradientUnits="userSpaceOnUse" />
    <linearGradient
       x1="20"
       y1="92"
       x2="125"
       y2="92"
       id="linearGradient4732"
       xlink:href="#linearGradient3789"
       gradientUnits="userSpaceOnUse" />
    <linearGradient
       x1="43"
       y1="51"
       x2="93"
       y2="51"
       id="linearGradient4740"
       xlink:href="#linearGradient3789"
       gradientUnits="userSpaceOnUse" />
    <linearGradient
       x1="80"
       y1="436"
       x2="129"
       y2="436"
       id="linearGradient2502"
       xlink:href="#linearGradient3789"
       gradientUnits="userSpaceOnUse" />
    <linearGradient
       x1="0"
       y1="22"
       x2="74"
       y2="22"
       id="linearGradient3172"
       xlink:href="#linearGradient3166"
       gradientUnits="userSpaceOnUse" />
    <linearGradient
       id="linearGradient3166">
      <stop
         id="stop3168"
         style="stop-color:#ffffff;stop-opacity:1"
         offset="0" />
      <stop
         id="stop3170"
         style="stop-color:#feb00a;stop-opacity:1"
         offset="1" />
    </linearGradient>
    <linearGradient
       x1="0"
       y1="22"
       x2="74"
       y2="22"
       id="linearGradient2711"
       xlink:href="#linearGradient3166"
       gradientUnits="userSpaceOnUse"
       gradientTransform="matrix(0.67,0,0,0.67,80.04495,411.22166)" />
    <linearGradient
       x1="80"
       y1="436"
       x2="129"
       y2="436"
       id="linearGradient3490"
       xlink:href="#linearGradient3789"
       gradientUnits="userSpaceOnUse"
       gradientTransform="translate(-62.75315,0)" />
  </defs>
  <path
     d="m 0.5,0.5 0,486 3,6.5 5,4 6.5,2.5 114,0 7,-2.5 6,-5 2.5,-8 0,-483.5 -144,0 z"
     id="path17"
     style="fill:#ffd000;fill-opacity:1;stroke:#e0a000;stroke-width:1px;stroke-linejoin:miter;stroke-opacity:1" />
  <rect
     width="137.5"
     height="0.14"
     x="4"
     y="-29"
     transform="scale(1,-1)"
     id="rect19"
     style="fill:#ffd000;fill-opacity:1;stroke:#e0a000;stroke-width:1px;stroke-opacity:1" />
  <rect
     width="137.5"
     height="0.14"
     x="4"
     y="-28"
     transform="scale(1,-1)"
     id="rect21"
     style="fill:#ffd000;fill-opacity:1;stroke:#fff080;stroke-width:1px;stroke-opacity:1" />
  <rect
     width="137.5"
     height="0.14"
     x="4"
     y="-473"
     transform="scale(1,-1)"
     id="rect23"
     style="fill:#ffd000;fill-opacity:1;stroke:#e0a000;stroke-width:1px;stroke-opacity:1" />
  <rect
     width="137.5"
     height="0.14"
     x="4"
     y="-471.5"
     transform="scale(1,-1)"
     id="rect25"
     style="fill:#ffd000;fill-opacity:1;stroke:#fff080;stroke-width:1px;stroke-opacity:1" />
  <path
     d="m 79.5,438.375 c 0,4.48731 -3.749615,8.125 -8.375,8.125 -4.625385,0 -8.375,-3.63769 -8.375,-8.125 0,-4.48731 3.749615,-8.125 8.375,-8.125 4.625385,0 8.375,3.63769 8.375,8.125 l 0,0 z"
     transform="translate(1.375,47.250977)"
     id="path27"
     style="fill:#ff4040;fill-opacity:1;stroke:#ff4040;stroke-width:1px;stroke-opacity:1" />
  <text
     id="text29"
     style="font-size:12px;font-weight:bold;font-family:Bitstream Vera Sans">
    <tspan
       x="68"
       y="490"
       id="tspan31"
       style="font-size:12px;font-weight:bold;fill:#ffffff">X</tspan>
  </text>
  <text
     id="text33"
     style="font-size:12px;text-align:center;text-anchor:middle;font-family:Bitstream Vera Sans">
    <tspan
       x="72.5"
       y="21.5"
       id="tspan35"
       style="font-size:20px">Vuo</tspan>
  </text>
  <rect
     width="137.5"
     height="0.14"
     x="4"
     y="358"
     id="rect37"
     style="fill:#ffd000;fill-opacity:1;stroke:#e0a000;stroke-width:1px;stroke-opacity:1" />
  <rect
     width="137.5"
     height="0.14"
     x="4"
     y="359"
     id="rect39"
     style="fill:#ffd000;fill-opacity:1;stroke:#fff080;stroke-width:1px;stroke-opacity:1" />
  <rect
     width="137.5"
     height="0.14"
     x="4"
     y="360"
     id="rect41"
     style="fill:#ffd000;fill-opacity:1;stroke:#ffffc4;stroke-width:1px;stroke-opacity:1" />
  <path
     d="m 90,40.3 11,0 0,4 -2.6,0 0,-2 -7,0"
     id="path43"
     style="fill:#c18516;fill-opacity:1;stroke:#966711;stroke-width:1px;stroke-opacity:1" />
  <path
     d="m 90,58.7 11,0 0,-4 -2.6,0 0,2 -7,0"
     id="path45"
     style="fill:#c18516;fill-opacity:1;stroke:#966711;stroke-width:1px;stroke-opacity:1" />
  <path
     d="m 75.416813,36.999284 c 10.6672,0 10.6672,0 10.6672,0 0,0 2.75467,1.657785 3.66685,2.6668 0.931695,1.030601 2.33345,4.0002 2.33345,4.0002 l 0,12.6673 c 0,0 -1.478107,2.462559 -2.33345,3.3335 -0.953088,0.970468 -3.66685,2.6668 -3.66685,2.6668 l -11.3339,0 0,0 0,2.6668 -13.334,0 0,-2.6668 -11.3339,0 c 0,0 -2.713762,-1.696332 -3.66685,-2.6668 -0.855343,-0.870941 -2.33345,-3.3335 -2.33345,-3.3335 l 0,-12.6673 c 0,0 1.401756,-2.969599 2.33345,-4.0002 0.91218,-1.009015 3.66685,-2.6668 3.66685,-2.6668 l 10.6672,0 0,3.3335 14.6674,0 0,-3.3335 z"
     id="path47"
     style="fill:url(#linearGradient4740);fill-opacity:1;stroke:#a97513;stroke-width:1px;stroke-opacity:1" />
  <text
     id="text49"
     style="font-size:12px;text-align:center;text-anchor:middle;font-family:Bitstream Vera Sans">
    <tspan
       x="67"
       y="54"
       id="tspan51"
       style="font-size:10.5px">odota</tspan>
  </text>
  <path
     d="m 52.50651,77.818218 c 10.6672,0 10.729809,0 10.729809,0 0,0 1.93691,0.677239 2.602499,1.226796 0.608872,0.502727 1.552531,2.125317 1.552531,2.125317 l 56.452061,0.314737 0.0476,7.755728 -2.34001,-0.0027 c 0,0 -1.25342,-1.448448 -1.90174,-1.943572 -0.70695,-0.539897 -2.59045,-1.442702 -2.59045,-1.442702 l -11.17568,0.177039 -0.0313,3.182266 -12.803523,0.05182 -0.09391,-3.516885 -13.304388,0.239648 c 0,0 -2.621221,1.573562 -3.537401,2.493568 -0.983476,0.987584 -2.660878,3.808355 -2.660878,3.808355 l -0.08461,13.609821 -45.844282,0.0576 c 0,0 -3.131122,-1.35584 -4.212564,-2.38465 -0.857758,-0.81602 -2.201265,-3.33147 -2.201265,-3.33147 l 0.06261,-15.753752 c 0,0 1.401756,-2.969599 2.33345,-4.0002 0.91218,-1.009015 3.66685,-2.6668 3.66685,-2.6668 l 10.6672,0 0,3.3335 14.6674,0 0,-3.3335 z"
     id="path53"
     style="fill:url(#linearGradient4732);fill-opacity:1;stroke:#a97513;stroke-width:1px;stroke-opacity:1" />
  <text
     id="text55"
     style="font-size:11px;text-align:center;text-anchor:middle;font-family:Bitstream Vera Sans">
    <tspan
       x="47"
       y="96"
       id="tspan57"
       style="font-size:11px">ikusesti</tspan>
  </text>
  <path
     d="m 47.49875,118.77264 c 10.6672,0 10.792418,0 10.792418,0 0,0 1.936909,0.54177 2.602498,1.09132 0.608872,0.50273 1.654059,1.83607 1.654059,1.83607 l 18.286025,0.20305 0,3.53656 -2.987876,0 -0.169843,-2.0001 -5.509381,0 0,15.3341 5.540714,0 0.03322,-2.0001 3.09317,0 0,8.6671 48.0024,0 0,8.0004 -3.60045,-0.0575 c 0,0 -0.84731,-1.59947 -1.49562,-2.09459 -0.70695,-0.5399 -2.23763,-1.18138 -2.23763,-1.18138 l -11.3339,0 0,3.3335 -13.334,0 0,-3.3335 -12.6673,0 c 0,0 -2.437821,1.57014 -3.253125,2.36613 -0.988368,0.96497 -2.747175,3.19919 -2.747175,3.19919 l 0,16.43578 -12.531215,-0.064 c 0,0 -1.30805,2.99647 -2.278585,3.96679 -0.954816,0.95461 -3.903033,2.09748 -3.903033,2.09748 l -12.622067,0 0,2.6668 -12.6673,0 0,-2.6668 -11.384015,0 c 0,0 -3.131122,-1.278 -4.212564,-2.30682 -0.857758,-0.81601 -2.404321,-3.33147 -2.404321,-3.33147 l 0,-47.16648 c 0,0 1.464365,-2.9696 2.396059,-4.0002 0.91218,-1.00902 3.66685,-2.53133 3.66685,-2.53133 l 10.604591,0 0,3.3335 14.6674,0 0,-3.3335 z"
     id="path59"
     style="fill:url(#linearGradient4724);fill-opacity:1;stroke:#a97513;stroke-width:1px;stroke-opacity:1" />
  <text
     id="text61"
     style="font-size:8px;text-align:center;text-anchor:middle;font-family:Bitstream Vera Sans">
    <tspan
       x="44"
       y="136"
       id="tspan63"
       style="font-size:11px">toista</tspan>
  </text>
  <path
     d="m 47.49875,193.59327 c 10.6672,0 10.792418,0 10.792418,0 0,0 1.936909,0.54177 2.602498,1.09132 0.608872,0.50273 1.552531,2.24218 1.552531,2.24218 l 25.721253,0 0,2.90864 c 0,0 -8.709743,1.07046 -11.844495,2.81229 -2.699167,1.4998 -6.360455,3.89786 -7.58138,6.67036 -0.831202,1.8875 -0.738662,5.00505 0.134742,6.87341 1.11641,2.38818 4.305828,4.52368 6.630649,5.76666 3.349457,1.7908 12.660484,3.32999 12.660484,3.32999 l 0,4.30695 36.06538,0 2.77259,2.23107 1.83073,2.92388 0,10.17915 -3.19433,0 c 0,0 -0.84731,-1.59947 -1.49563,-2.09459 -0.70695,-0.5399 -2.64374,-1.23891 -2.64374,-1.23891 l -11.3339,0 0,3.3335 -13.334,0 0,-3.3335 -12.6673,0 c 0,0 -2.843932,1.52614 -3.659236,2.32214 -0.988369,0.96496 -2.341064,3.90988 -2.341064,3.90988 l 0,15.10238 -12.531215,-0.064 c 0,0 -1.30805,2.99647 -2.278585,3.96679 -0.954816,0.95461 -3.903033,2.24082 -3.903033,2.24082 l -12.622067,-0.14334 0,3.3335 -12.6673,0 0,-3.3335 -11.384015,0 c 0,0 -3.131122,-1.278 -4.212564,-2.30682 -0.857758,-0.81601 -2.404321,-3.33147 -2.404321,-3.33147 l 0,-63.16728 c 0,0 1.464365,-2.9696 2.396059,-4.0002 0.91218,-1.00902 3.66685,-2.53133 3.66685,-2.53133 l 10.604591,0 0,3.3335 14.6674,0 0,-3.3335 z"
     id="path65"
     style="fill:url(#linearGradient4716);fill-opacity:1;stroke:#a97513;stroke-width:1px;stroke-opacity:1" />
  <text
     id="text67"
     style="font-size:12px;text-align:center;text-anchor:middle;font-family:Bitstream Vera Sans">
    <tspan
       x="39"
       y="212"
       id="tspan69"
       style="font-size:11px">jos</tspan>
  </text>
  <text
     id="text71"
     style="font-size:8px;text-align:center;text-anchor:middle;font-family:Bitstream Vera Sans">
    <tspan
       x="103"
       y="238.5"
       id="tspan73"
       style="font-size:9px">niin</tspan>
  </text>
  <path
     d="m 112.16865,271.51111 c 10.6672,0 10.6672,0 10.6672,0 0,0 2.75467,1.65778 3.66685,2.6668 0.93169,1.0306 2.33345,4.0002 2.33345,4.0002 l 0,12.0006 -23.66785,12.6673 c 0,0 -24.33455,-12.6673 -24.33455,-12.6673 l 0,-12.0006 c 0,0 1.401756,-2.9696 2.33345,-4.0002 0.91218,-1.00902 3.66685,-2.6668 3.66685,-2.6668 l 10.6672,0 0,3.3335 14.6674,0 0,-3.3335 z"
     id="path75"
     style="fill:url(#linearGradient4708);fill-opacity:1;stroke:#a97513;stroke-width:1px;stroke-opacity:1" />
  <text
     id="text77"
     style="font-size:8px;text-align:center;text-anchor:middle;font-family:Bitstream Vera Sans">
    <tspan
       x="105"
       y="283"
       id="tspan79"
       style="font-size:10px">lopeta</tspan>
  </text>
  <text
     y="-2"
     id="text81"
     style="font-size:8px;text-align:center;text-anchor:middle;font-family:Bitstream Vera Sans">
    <tspan
       x="105"
       y="292"
       id="tspan83"
       style="font-size:10px">toiminto</tspan>
  </text>
  <path
     d="m 36.940888,299.20373 c 7.111823,0 7.195305,0 7.195305,0 0,0 1.291338,0.36119 1.735086,0.72758 0.405935,0.33517 1.035073,1.49486 1.035073,1.49486 l 17.148359,0 0,1.93919 c 0,0 -5.806786,0.71368 -7.896725,1.87496 -1.799534,0.99991 -4.240515,2.5987 -5.054506,4.44712 -0.554162,1.2584 -0.492466,3.33688 0.08983,4.58251 0.744311,1.5922 2.870696,3.01593 4.420654,3.84463 2.233083,1.19393 8.440745,2.2201 8.440745,2.2201 l 0,2.87145 61.882749,0 1.84849,1.41976 1.16414,1.94935 0,6.85413 -2.07326,0 c 0,0 -0.5649,-1.13405 -0.99713,-1.46415 -0.47132,-0.35995 -1.76258,-0.75829 -1.76258,-0.75829 l -7.61272,0 0,2.22244 -8.44529,0 0,-2.22244 -8.455159,0 c 0,0 -2.098383,0.7111 -2.755422,1.34743 -0.780047,0.75545 -0.838849,0.71977 -1.605139,2.06891 l -0.231912,10.98699 -4.731922,-0.17602 0,-11.12491 c 0,0 -0.982569,-1.20687 -1.426538,-1.63017 -0.502597,-0.47921 -1.883722,-1.47223 -1.883722,-1.47223 l -8.246451,0 0,2.22244 -8.445289,0 0,-2.22244 -8.889778,0 c 0,0 -1.89605,1.01748 -2.439613,1.54817 -0.658946,0.64334 -1.560787,2.60672 -1.560787,2.60672 l 0,10.06875 -8.354561,-0.0426 c 0,0 -0.872078,1.99774 -1.519134,2.64466 -0.636575,0.63643 -2.602151,1.49395 -2.602151,1.49395 l -8.415133,-0.0956 0,2.22245 -8.445289,0 0,-2.22245 -7.589723,0 c 0,0 -2.087519,-0.85204 -2.808516,-1.53795 -0.571868,-0.54404 -1.602961,-2.22109 -1.602961,-2.22109 l 0,-42.11363 c 0,0 0.976292,-1.97983 1.597452,-2.66694 0.608151,-0.67271 2.44469,-1.68763 2.44469,-1.68763 l 7.07008,0 0,2.22244 9.778756,0 0,-2.22244 z"
     id="path85"
     style="fill:url(#linearGradient4699);fill-opacity:1;stroke:#a97513;stroke-width:1px;stroke-opacity:1" />
  <text
     id="text87"
     style="font-size:8px;text-align:center;text-anchor:middle;font-family:Bitstream Vera Sans">
    <tspan
       x="32"
       y="314"
       id="tspan89"
       style="font-size:11px">jos</tspan>
  </text>
  <text
     id="text91"
     style="font-size:8px;text-align:center;text-anchor:middle;font-family:Bitstream Vera Sans">
    <tspan
       x="74"
       y="329"
       id="tspan93"
       style="font-size:6px">niin</tspan>
  </text>
  <text
     id="text95"
     style="font-size:8px;text-align:center;text-anchor:middle;font-family:Bitstream Vera Sans">
    <tspan
       x="111"
       y="329"
       id="tspan97"
       style="font-size:6px">muuten</tspan>
  </text>
  <path
     d="m 49.8322,372.80906 c 10.6672,0 9.66715,0 9.66715,0 0,0 2.067731,0.60754 2.733321,1.15709 0.608872,0.50273 1.600229,2.17641 1.600229,2.17641 l 4.0002,0 0,-9.3338 59.3363,0 0,7.3337 -2.33345,0 c 0,0 -1.33072,-1.44056 -2.01585,-1.988 -0.80763,-0.64533 -2.9844,-1.3455 -2.9844,-1.3455 l -10.6672,0 0,3.3335 -12.6673,0 0,-3.3335 -12.6673,0 c 0,0 -3.19821,1.66363 -4.020099,2.49692 -0.98682,1.0005 -2.646901,4.17008 -2.646901,4.17008 l 0,20.001 -52.6693,0 c 0,0 -3.476241,-1.0159 -4.523874,-1.93729 -1.140219,-1.00283 -2.143126,-4.06301 -2.143126,-4.06301 l 0,-12.97614 c 0,0 1.360894,-2.75176 2.137992,-3.51244 0.972029,-0.9515 3.862308,-2.17902 3.862308,-2.17902 l 10.6672,0 0,3.3335 15.3341,0 0,-3.3335 z"
     id="path99"
     style="fill:url(#linearGradient4691);fill-opacity:1;stroke:#a97513;stroke-width:1px;stroke-opacity:1" />
  <path
     d="m 49.4155,411.64166 c 10.6672,0 10.6672,0 10.6672,0 0,0 2.75467,1.65778 3.66685,2.6668 0.93169,1.0306 2.33345,4.0002 2.33345,4.0002 l 0,32.6683 c 0,0 -1.47811,2.46256 -2.33345,3.3335 -0.95309,0.97047 -3.66685,2.6668 -3.66685,2.6668 l -11.3339,0 0,0 0,2.6668 -13.334,0 0,-2.6668 -11.3339,0 c 0,0 -2.713762,-1.69633 -3.66685,-2.6668 -0.855343,-0.87094 -2.33345,-3.3335 -2.33345,-3.3335 l 0,-32.6683 c 0,0 1.401756,-2.9696 2.33345,-4.0002 0.91218,-1.00902 3.66685,-2.6668 3.66685,-2.6668 l 10.6672,0 0,3.3335 14.6674,0 0,-3.3335 z"
     id="path109"
     style="fill:url(#linearGradient3490);fill-opacity:1;stroke:#a97513;stroke-width:1;stroke-miterlimit:4;stroke-opacity:1;stroke-dasharray:none" />
  <path
     d="m 112.20495,411.89166 c 10.72,0 10.72,0 10.72,0 0,0 2.7683,1.66599 3.685,2.68 0.93631,1.0357 2.345,4.02 2.345,4.02 l 0,12.73 c 0,0 -1.48542,2.47475 -2.345,3.35 -0.95781,0.97527 -3.685,2.68 -3.685,2.68 l -11.39,0 0,0 0,2.68 -13.4,0 0,-2.68 -11.39,0 c 0,0 -2.727194,-1.70473 -3.685,-2.68 -0.859577,-0.87525 -2.345,-3.35 -2.345,-3.35 l 0,-12.73 c 0,0 1.408694,-2.9843 2.345,-4.02 0.916695,-1.01401 3.685,-2.68 3.685,-2.68 l 10.72,0 0,3.35 14.74,0 0,-3.35 z"
     id="path14"
     style="fill:url(#linearGradient2711);fill-opacity:1;stroke:#a97513;stroke-width:1;stroke-miterlimit:4;stroke-opacity:1;stroke-dasharray:none" />
  <rect
     width="11.94208"
     height="9.4202003"
     x="98.863907"
     y="424.68732"
     id="rect2483"
     style="fill:#666666;stroke-width:2;stroke-miterlimit:4;stroke-dasharray:none" />
  <path
     d="m 101.49433,424.68732 0,-2.43679 c 0,-1.80364 1.4606,-3.26223 3.26156,-3.26223 1.80096,0 3.26089,1.46127 3.26089,3.26223 l 0,2.43679"
     id="path2485"
     style="fill:none;stroke:#666666;stroke-width:2;stroke-miterlimit:4;stroke-dasharray:none" />
</svg>
