<?xml version="1.0" encoding="UTF-8" standalone="no"?>
<svg
   xmlns="http://www.w3.org/2000/svg"
   xmlns:xlink="http://www.w3.org/1999/xlink"
   width="145"
   height="500"
   version="1.0">
  <rect
     style="opacity:1;fill:#ffffff;fill-opacity:1;stroke:none;stroke-width:4;stroke-opacity:1"
     width="143"
     height="440"
     x="1"
     y="30" />
  <rect
     style="opacity:1;fill:#080808;fill-opacity:1;stroke:none;stroke-width:1;stroke-opacity:1"
     width="145"
     height="29"
     x="0"
     y="0" />
  <path
     style="fill:#080808;fill-opacity:1;stroke:none;stroke-width:1px;stroke-opacity:1"
     d="M 0,470 L 0,486 L 3,493 L 8,497 L 15,499 L 129,499 L 136,497 L 142,492 L 145,484 L 145,470 L 0,470 z" />
  <svg:path
     d="M 69.731407,56.40254 L 69.731407,56.40254 L 43.730107,71.73664 L 43.730107,71.73664 L 43.730107,74.40344 L 30.396107,74.40344 L 30.396107,71.73664 C 30.396107,71.73664 4.3948068,56.40254 4.3948068,56.40254 C 4.3948068,56.40254 37.063107,38.40164 37.063107,38.40164 C 37.063107,38.40164 69.731407,56.40254 69.731407,56.40254 z"
     id="path43"
     style="fill:#101010;fill-opacity:1;stroke:#101010;stroke-width:1;stroke-opacity:1" />
  <svg:path
     d="M 113.81428,42.40184 C 124.48148,42.40184 124.48148,42.40184 124.48148,42.40184 C 124.48148,42.40184 127.23615,44.059625 128.14833,45.06864 C 129.08003,46.099241 130.48178,49.06884 130.48178,49.06884 L 130.48178,61.73614 C 130.48178,61.73614 129.00368,64.198699 128.14833,65.06964 C 127.19525,66.040108 124.48148,67.73644 124.48148,67.73644 L 113.14758,67.73644 L 113.14758,67.73644 L 113.14758,70.40324 L 99.813583,70.40324 L 99.813583,67.73644 L 88.479683,67.73644 C 88.479683,67.73644 85.765921,66.040108 84.812833,65.06964 C 83.95749,64.198699 82.479383,61.73614 82.479383,61.73614 L 82.479383,49.06884 C 82.479383,49.06884 83.881139,46.099241 84.812833,45.06864 C 85.725013,44.059625 88.479683,42.40184 88.479683,42.40184 L 99.146883,42.40184 L 99.146883,45.73534 L 113.81428,45.73534 L 113.81428,42.40184 z"
     id="path59"
     style="fill:#181818;fill-opacity:1;stroke:#181818;stroke-width:1;stroke-opacity:1" />
  <svg:path
     d="M 69.731407,99.66337 L 69.731407,99.66337 L 43.730107,114.99747 L 43.730107,114.99747 L 43.730107,117.66427 L 30.396107,117.66427 L 30.396107,114.99747 C 30.396107,114.99747 4.3948068,99.66337 4.3948068,99.66337 C 4.3948068,99.66337 37.063107,81.662473 37.063107,81.662473 C 37.063107,81.662473 69.731407,99.66337 69.731407,99.66337 z"
     id="path51"
     style="fill:#202020;fill-opacity:1;stroke:#202020;stroke-width:1;stroke-opacity:1" />
  <svg:path
     d="M 113.81428,85.662673 C 124.48148,85.662673 124.48148,85.662673 124.48148,85.662673 C 124.48148,85.662673 127.23615,87.320458 128.14833,88.329473 C 129.08003,89.360074 130.48178,92.32967 130.48178,92.32967 L 130.48178,104.99697 C 130.48178,104.99697 129.00368,107.45953 128.14833,108.33047 C 127.19525,109.30094 124.48148,110.99727 124.48148,110.99727 L 113.14758,110.99727 L 113.14758,110.99727 L 113.14758,113.66407 L 99.813583,113.66407 L 99.813583,110.99727 L 88.479683,110.99727 C 88.479683,110.99727 85.765921,109.30094 84.812833,108.33047 C 83.95749,107.45953 82.479383,104.99697 82.479383,104.99697 L 82.479383,92.32967 C 82.479383,92.32967 83.881139,89.360074 84.812833,88.329473 C 85.725013,87.320458 88.479683,85.662673 88.479683,85.662673 L 99.146883,85.662673 L 99.146883,88.996173 L 113.81428,88.996173 L 113.81428,85.662673 z"
     id="path65"
     style="fill:#282828;fill-opacity:1;stroke:#282828;stroke-width:1;stroke-opacity:1" />
  <svg:path
     d="M 36.388307,126.04559 L 4.2283068,143.46559 L 29.688307,158.20559 L 29.688307,160.88559 L 43.088307,160.88559 L 43.088307,158.20559 L 52.489244,154.18559 L 63.523307,154.18559 L 63.523307,150.63573 L 57.158307,150.68712 L 57.158307,145.81059 L 54.813307,145.81059 L 54.813307,141.12059 L 57.158307,141.12059 L 57.158307,136.09559 L 63.523307,136.09559 L 63.523307,133.08059 L 50.616924,133.08059 L 36.388307,126.04559 z"
     id="path6722"
     style="fill:#303030;fill-opacity:1;stroke:#303030;stroke-width:0.667;stroke-miterlimit:4;stroke-dasharray:none;stroke-opacity:1" />
  <svg:path
     d="M 85.63895,131.51705 C 85.63895,131.51705 82.870645,133.18304 81.95395,134.19705 C 81.017644,135.23275 79.60895,138.21705 79.60895,138.21705 L 79.60895,150.94705 C 79.60895,150.94705 81.094373,153.4218 81.95395,154.29705 C 82.911756,155.27232 85.63895,156.97705 85.63895,156.97705 L 97.02895,156.97705 L 97.02895,159.65705 L 110.42895,159.65705 L 110.42895,156.97705 L 121.81895,156.97705 C 121.81895,156.97705 123.27441,156.09039 123.82895,155.63705 C 124.38742,155.1805 125.50395,153.96205 125.50395,153.96205 L 134.54895,153.96205 L 134.54895,151.28205 L 128.18395,151.28205 L 128.18395,146.59205 L 125.50395,146.59205 L 125.50395,141.56705 L 128.18395,141.56705 L 128.18395,136.54205 L 134.54895,136.54205 L 134.54895,134.17611 L 125.50395,134.17611 C 124.56974,133.16039 121.81895,131.51705 121.81895,131.51705 C 121.81895,131.51705 121.81895,131.51705 111.09895,131.51705 L 111.09895,134.86705 L 96.35895,134.86705 L 96.35895,131.51705 L 85.63895,131.51705 z"
     id="path4299"
     style="fill:#383838;fill-opacity:1;stroke:#383838;stroke-width:0.667;stroke-miterlimit:4;stroke-dasharray:none;stroke-opacity:1" />
  <svg:g
     transform="matrix(0.6667,0,0,0.6667,7.4928819,186.05911)"
     id="g2498">
    <svg:path
       d="M 70,6 L 86.5,6 L 86.5,12 L 82.5,12 L 82.5,9 L 72,9"
       id="path3415"
       style="fill:#404040;fill-opacity:1;stroke:#404040;stroke-width:1.5;stroke-opacity:1" />
    <svg:path
       d="M 70,33.5 L 86.5,33.5 L 86.5,27.5 L 82.5,27.5 L 82.5,30.5 L 72,30.5"
       id="path3417"
       style="fill:#404040;fill-opacity:1;stroke:#404040;stroke-width:1.5;stroke-opacity:1" />
  </svg:g>
  <svg:path
     d="M 39.494482,180.89218 C 50.161682,180.89218 50.161682,180.89218 50.161682,180.89218 L 53.828532,183.55898 L 56.161982,187.55918 L 56.161982,210.22698 L 53.828532,214.22718 L 50.161682,216.89398 L 38.827782,216.89398 L 38.827782,216.89398 L 38.827782,219.56078 L 25.493782,219.56078 L 25.493782,216.89398 L 14.159882,216.89398 L 10.493032,214.22718 L 8.1595819,210.22698 L 8.1595819,187.55918 L 10.493032,183.55898 L 14.159882,180.89218 L 24.827082,180.89218 L 24.827082,184.22568 L 39.494482,184.22568 L 39.494482,180.89218 z"
     id="path74"
     style="fill:#404040;fill-opacity:1;stroke:#404040;stroke-width:1;stroke-opacity:1" />
  <svg:path
     d="M 70.522547,193.55948 L 73.856047,193.55948 L 73.856047,196.22628 L 78.522947,196.22628 L 78.522947,193.55948 L 139.526,193.55948 L 139.526,206.89348 L 78.522947,206.89348 L 78.522947,204.22668 L 73.856047,204.22668 L 73.856047,206.89348 L 70.522547,206.89348 L 70.522547,193.55948 z"
     id="path100"
     style="fill:#484848;fill-opacity:1;stroke:#484848;stroke-width:1;stroke-opacity:1" />
  <svg:g
     transform="matrix(0.6667,0,0,0.6667,7.4928819,232.48628)"
     id="g84">
    <svg:path
       d="M 70,6 L 86.5,6 L 86.5,12 L 82.5,12 L 82.5,9 L 72,9"
       id="path86"
       style="fill:#505050;fill-opacity:1;stroke:#505050;stroke-width:1.5;stroke-opacity:1" />
    <svg:path
       d="M 70,33.5 L 86.5,33.5 L 86.5,27.5 L 82.5,27.5 L 82.5,30.5 L 72,30.5"
       id="path88"
       style="fill:#505050;fill-opacity:1;stroke:#505050;stroke-width:1.5;stroke-opacity:1" />
  </svg:g>
  <svg:path
     d="M 39.494482,227.31936 C 50.161682,227.31936 50.161682,227.31936 50.161682,227.31936 L 53.828532,229.98616 L 56.161982,233.98636 L 56.161982,256.65416 L 53.828532,260.65436 L 50.161682,263.32116 L 38.827782,263.32116 L 38.827782,263.32116 L 38.827782,265.98796 L 25.493782,265.98796 L 25.493782,263.32116 L 14.159882,263.32116 L 10.493032,260.65436 L 8.1595819,256.65416 L 8.1595819,233.98636 L 10.493032,229.98616 L 14.159882,227.31936 L 24.827082,227.31936 L 24.827082,230.65286 L 39.494482,230.65286 L 39.494482,227.31936 z"
     id="path90"
     style="fill:#505050;fill-opacity:1;stroke:#505050;stroke-width:1;stroke-opacity:1" />
  <svg:path
     d="M 70.522547,239.98666 L 73.856047,239.98666 L 73.856047,242.65346 L 78.522947,242.65346 L 78.522947,239.98666 L 139.526,239.98666 L 139.526,253.32066 L 78.522947,253.32066 L 78.522947,250.65386 L 73.856047,250.65386 L 73.856047,253.32066 L 70.522547,253.32066 L 70.522547,239.98666 z"
     id="path106"
     style="fill:#585858;fill-opacity:1;stroke:#585858;stroke-width:1;stroke-opacity:1" />
  <svg:path
     d="M 14.77211,274.07291 C 13.543777,274.96624 12.315443,275.85958 11.08711,276.75291 C 10.305443,278.09291 9.5237767,279.43291 8.74211,280.77291 L 8.74211,333.03291 C 9.5237767,334.37291 10.305443,335.71291 11.08711,337.05291 C 12.315443,337.94624 13.543777,338.83958 14.77211,339.73291 L 26.16211,339.73291 L 26.16211,342.41291 L 39.56211,342.41291 L 39.56211,339.73291 L 50.95211,339.73291 C 52.180443,338.83958 53.408777,337.94624 54.63711,337.05291 C 55.418777,335.71291 56.200443,334.37291 56.98211,333.03291 L 56.98211,330.68791 L 61.316173,330.68791 L 65.880548,330.68791 L 65.880548,328.17541 L 59.66211,328.17541 L 59.66211,323.31791 L 56.98211,323.31791 L 56.98211,318.29291 L 59.66211,318.29291 L 59.66211,313.26791 L 65.880548,313.26791 L 65.880548,310.92291 L 56.98211,310.92291 L 56.98211,301.71041 L 66.02711,301.71041 L 66.02711,297.69041 L 63.34711,297.69041 L 63.34711,299.70041 L 56.98211,299.70041 L 56.98211,285.29541 L 63.34711,285.29541 L 63.34711,287.30541 L 66.02711,287.30541 L 66.02711,283.28541 L 56.98211,283.28541 L 56.98211,280.77291 C 56.200443,279.43291 55.418777,278.09291 54.63711,276.75291 C 53.408777,275.85958 52.180443,274.96624 50.95211,274.07291 C 50.95211,274.07291 50.95211,274.07291 40.23211,274.07291 L 40.23211,277.42291 L 25.49211,277.42291 L 25.49211,274.07291 L 14.77211,274.07291 z"
     id="path2487"
     style="fill:#606060;fill-opacity:1;stroke:#606060;stroke-width:1;stroke-miterlimit:4;stroke-dasharray:none;stroke-opacity:1" />
  <svg:path
     d="M 91.46386,282.94444 L 91.46386,289.30944 L 86.77386,289.30944 L 86.77386,286.62944 L 83.42386,286.62944 L 83.42386,299.35944 L 86.77386,299.35944 L 86.77386,296.67944 L 91.46386,296.67944 L 91.46386,303.37944 L 125.23605,303.37944 L 125.23605,300.36444 L 118.93386,300.36444 L 118.93386,295.67444 L 116.25386,295.67444 L 116.25386,290.64944 L 118.93386,290.64944 L 118.93386,285.62444 L 125.23605,285.62444 L 125.23605,282.94444 L 91.46386,282.94444 z"
     id="path3436"
     style="fill:#686868;fill-opacity:1;stroke:#686868;stroke-width:1;stroke-miterlimit:4;stroke-dasharray:none;stroke-opacity:1" />
  <svg:g
     id="g2570">
    <svg:path
       d="M 40.693845,353.55201 L 40.693845,358.24201 L 38.013845,358.24201 L 38.013845,361.59201 L 40.693845,361.59201 L 40.693845,366.28201 L 104.34384,366.28201 L 107.02384,359.91701 L 104.34384,353.55201 L 40.693845,353.55201 z"
       id="path3902"
       style="fill:#707070;fill-opacity:1;fill-rule:nonzero;stroke:#707070;stroke-width:1;stroke-linejoin:round;stroke-miterlimit:4;stroke-dasharray:none;stroke-opacity:1" />
  </svg:g>
  <g
     transform="translate(-1.571244,0.74717)"
     id="g2578">
    <g
       transform="matrix(0.6667,0,0,0.6667,9.706356,385.54113)">
      <path
         d="M 70,6 L 86.5,6 L 86.5,12 L 82.5,12 L 82.5,9 L 72,9"
         style="fill:#787878;fill-opacity:1;stroke:#787878;stroke-width:1.5;stroke-opacity:1" />
      <path
         d="M 70,33.5 L 86.5,33.5 L 86.5,27.5 L 82.5,27.5 L 82.5,30.5 L 72,30.5"
         style="fill:#787878;fill-opacity:1;stroke:#a787878;stroke-width:1.5;stroke-opacity:1" />
    </g>
    <path
       d="M 41.648251,385.42217 C 52.315451,385.42217 52.315451,385.42217 52.315451,385.42217 C 52.315451,385.42217 55.070121,387.07995 55.982301,388.08897 C 56.914001,389.11957 58.315751,392.08917 58.315751,392.08917 L 58.315751,404.75647 C 58.315751,404.75647 56.837651,407.21903 55.982301,408.08997 C 55.029221,409.06044 52.315451,410.75677 52.315451,410.75677 L 40.981551,410.75677 L 40.981551,410.75677 L 40.981551,413.42357 L 27.647554,413.42357 L 27.647554,410.75677 L 16.313654,410.75677 C 16.313654,410.75677 13.599892,409.06044 12.646804,408.08997 C 11.791461,407.21903 10.313354,404.75647 10.313354,404.75647 L 10.313354,392.08917 C 10.313354,392.08917 11.71511,389.11957 12.646804,388.08897 C 13.558984,387.07995 16.313654,385.42217 16.313654,385.42217 L 26.980854,385.42217 L 26.980854,388.75567 L 41.648251,388.75567 L 41.648251,385.42217 z"
       style="fill:#787878;fill-opacity:1;stroke:#787878;stroke-width:1;stroke-opacity:1" />
  </g>
  <g
     transform="translate(5.210508,4)">
    <path
       d="M 65.312039,389.50304 L 68.645539,389.50304 L 68.645539,392.16984 L 73.312439,392.16984 L 73.312439,389.50304 L 134.31549,389.50304 L 134.31549,402.83704 L 73.312439,402.83704 L 73.312439,400.17024 L 68.645539,400.17024 L 68.645539,402.83704 L 65.312039,402.83704 L 65.312039,389.50304 z"
       style="fill:#808080;fill-opacity:1;stroke:#808080;stroke-width:1;stroke-opacity:1" />
  </g>
  <path
     d="M 40.07701,424.99768 C 50.74421,424.99768 50.74421,424.99768 50.74421,424.99768 L 54.41106,427.66448 L 56.74451,431.66468 L 56.74451,454.33248 L 54.41106,458.33268 L 50.74421,460.99948 L 39.41031,460.99948 L 39.41031,460.99948 L 39.41031,463.66628 L 26.07631,463.66628 L 26.07631,460.99948 L 14.74241,460.99948 L 11.07556,458.33268 L 8.74211,454.33248 L 8.74211,431.66468 L 11.07556,427.66448 L 14.74241,424.99768 L 25.40961,424.99768 L 25.40961,428.33118 L 40.07701,428.33118 L 40.07701,424.99768 z"
     style="fill:#888888;fill-opacity:1;stroke:#888888;stroke-width:1;stroke-opacity:1" />
  <path
     d="M 113.81429,424.99768 C 124.48149,424.99768 124.48149,424.99768 124.48149,424.99768 L 128.14834,427.66448 L 130.48179,431.66468 L 130.48179,454.33248 L 128.14834,458.33268 L 124.48149,460.99948 L 113.14759,460.99948 L 113.14759,460.99948 L 113.14759,463.66628 L 99.813592,463.66628 L 99.813592,460.99948 L 88.479683,460.99948 L 84.812833,458.33268 L 82.479383,454.33248 L 82.479383,431.66468 L 84.812833,427.66448 L 88.479683,424.99768 L 99.146892,424.99768 L 99.146892,428.33118 L 113.81429,428.33118 L 113.81429,424.99768 z"
     style="fill:#909090;fill-opacity:1;stroke:#909090;stroke-width:1;stroke-opacity:1" />
</svg>
