<?xml version="1.0" encoding="UTF-8" standalone="no"?>
<svg
   xmlns="http://www.w3.org/2000/svg"
   xmlns:xlink="http://www.w3.org/1999/xlink"
   width="145"
   height="500"
   version="1.0">
  <rect
     style="opacity:1;fill:#ffffff;fill-opacity:1;stroke:none;stroke-width:4;stroke-opacity:1"
     width="143"
     height="440"
     x="1"
     y="30" />
  <rect
     style="opacity:1;fill:#080808;fill-opacity:1;stroke:none;stroke-width:1;stroke-opacity:1"
     width="145"
     height="29"
     x="0"
     y="0" />
  <path
     style="fill:#080808;fill-opacity:1;stroke:none;stroke-width:1px;stroke-opacity:1"
     d="M 0,470 L 0,486 L 3,493 L 8,497 L 15,499 L 129,499 L 136,497 L 142,492 L 145,484 L 145,470 L 0,470 z" />
  <path
     d="M 69.731407,52.40254 L 69.731407,52.40254 L 43.730107,67.73664 L 43.730107,67.73664 L 43.730107,70.40344 L 30.396107,70.40344 L 30.396107,67.73664 C 30.396107,67.73664 4.3948068,52.40254 4.3948068,52.40254 C 4.3948068,52.40254 37.063107,34.40164 37.063107,34.40164 C 37.063107,34.40164 69.731407,52.40254 69.731407,52.40254 z"
     id="path49"
     style="fill:#101010;fill-opacity:1;stroke:#101010;stroke-width:1;stroke-opacity:1" />
  <path
     d="M 113.81428,38.40184 C 124.48148,38.40184 124.48148,38.40184 124.48148,38.40184 C 124.48148,38.40184 127.23615,40.059625 128.14833,41.06864 C 129.08003,42.099241 130.48178,45.06884 130.48178,45.06884 L 130.48178,57.73614 C 130.48178,57.73614 129.00368,60.198699 128.14833,61.06964 C 127.19525,62.040108 124.48148,63.73644 124.48148,63.73644 L 113.14758,63.73644 L 113.14758,63.73644 L 113.14758,66.40324 L 99.813583,66.40324 L 99.813583,63.73644 L 88.479683,63.73644 C 88.479683,63.73644 85.765921,62.040108 84.812833,61.06964 C 83.95749,60.198699 82.479383,57.73614 82.479383,57.73614 L 82.479383,45.06884 C 82.479383,45.06884 83.881139,42.099241 84.812833,41.06864 C 85.725013,40.059625 88.479683,38.40184 88.479683,38.40184 L 99.146883,38.40184 L 99.146883,41.73534 L 113.81428,41.73534 L 113.81428,38.40184 z"
     id="path55"
     style="fill:#181818;fill-opacity:1;stroke:#181818;stroke-width:1;stroke-opacity:1" />
  <path
     d="M 69.731407,93.66337 L 69.731407,93.66337 L 43.730107,108.99747 L 43.730107,108.99747 L 43.730107,111.66427 L 30.396107,111.66427 L 30.396107,108.99747 C 30.396107,108.99747 4.3948068,93.66337 4.3948068,93.66337 C 4.3948068,93.66337 37.063107,75.662473 37.063107,75.662473 C 37.063107,75.662473 69.731407,93.66337 69.731407,93.66337 z"
     id="path61"
     style="fill:#202020;fill-opacity:1;stroke:#202020;stroke-width:1;stroke-opacity:1" />
  <path
     d="M 113.81428,79.662673 C 124.48148,79.662673 124.48148,79.662673 124.48148,79.662673 C 124.48148,79.662673 127.23615,81.320458 128.14833,82.329473 C 129.08003,83.360074 130.48178,86.32967 130.48178,86.32967 L 130.48178,98.99697 C 130.48178,98.99697 129.00368,101.45953 128.14833,102.33047 C 127.19525,103.30094 124.48148,104.99727 124.48148,104.99727 L 113.14758,104.99727 L 113.14758,104.99727 L 113.14758,107.66407 L 99.813583,107.66407 L 99.813583,104.99727 L 88.479683,104.99727 C 88.479683,104.99727 85.765921,103.30094 84.812833,102.33047 C 83.95749,101.45953 82.479383,98.99697 82.479383,98.99697 L 82.479383,86.32967 C 82.479383,86.32967 83.881139,83.360074 84.812833,82.329473 C 85.725013,81.320458 88.479683,79.662673 88.479683,79.662673 L 99.146883,79.662673 L 99.146883,82.996173 L 113.81428,82.996173 L 113.81428,79.662673 z"
     id="path67"
     style="fill:#282828;fill-opacity:1;stroke:#282828;stroke-width:1;stroke-opacity:1" />
  <g
     transform="matrix(0.5,0,0,0.5,35,110.92612)"
     id="g2737">
    <path
       d="M 74.5,1 L 1.5,37.5 L 64.5,70 L 64.5,74 L 84.5,74 L 84.5,70 L 148.5,37.5 L 74.5,1 z"
       id="path6722"
       style="fill:#303030;fill-opacity:1;stroke:#303030;stroke-width:4;stroke-opacity:1" />
  </g>
  <g
     transform="matrix(0.5,0,0,0.5,40,153.0162)"
     id="g2873">
    <path
       d="M 76,1 C 92,1 120,1 120,1 C 120,1 124.1318,3.4865526 125.5,5 C 126.89747,6.5458243 129,11 129,11 L 129,30 C 129,30 126.78295,33.693654 125.5,35 C 124.07044,36.455629 120,39 120,39 L 75,39 L 75,39 L 75,43 L 55,43 L 55,39 L 10,39 C 10,39 5.9295605,36.455629 4.5,35 C 3.2170498,33.693654 1,30 1,30 L 1,11 C 1,11 3.1025283,6.5458243 4.5,5 C 5.8682021,3.4865526 10,1 10,1 L 54,1 L 54,6 L 76,6 L 76,1 z"
       id="path10"
       style="fill:#383838;fill-opacity:1;stroke:#383838;stroke-width:4;stroke-opacity:1" />
  </g>
  <g
     transform="matrix(0.6667,0,0,0.6667,7.4928819,196.05911)"
     id="g85">
    <path
       d="M 70,6 L 86.5,6 L 86.5,12 L 82.5,12 L 82.5,9 L 72,9"
       id="path87"
       style="fill:#404040;fill-opacity:1;stroke:#404040;stroke-width:1.5;stroke-opacity:1" />
    <path
       d="M 70,33.5 L 86.5,33.5 L 86.5,27.5 L 82.5,27.5 L 82.5,30.5 L 72,30.5"
       id="path89"
       style="fill:#404040;fill-opacity:1;stroke:#404040;stroke-width:1.5;stroke-opacity:1" />
  </g>
  <path
     d="M 39.494482,190.89218 C 50.161682,190.89218 50.161682,190.89218 50.161682,190.89218 L 53.828532,193.55898 L 56.161982,197.55918 L 56.161982,220.22698 L 53.828532,224.22718 L 50.161682,226.89398 L 38.827782,226.89398 L 38.827782,226.89398 L 38.827782,229.56078 L 25.493782,229.56078 L 25.493782,226.89398 L 14.159882,226.89398 L 10.493032,224.22718 L 8.1595819,220.22698 L 8.1595819,197.55918 L 10.493032,193.55898 L 14.159882,190.89218 L 24.827082,190.89218 L 24.827082,194.22568 L 39.494482,194.22568 L 39.494482,190.89218 z"
     id="path91"
     style="fill:#404040;fill-opacity:1;stroke:#404040;stroke-width:1;stroke-opacity:1" />
  <path
     d="M 70.522547,203.55948 L 73.856047,203.55948 L 73.856047,206.22628 L 78.522947,206.22628 L 78.522947,203.55948 L 139.526,203.55948 L 139.526,216.89348 L 78.522947,216.89348 L 78.522947,214.22668 L 73.856047,214.22668 L 73.856047,216.89348 L 70.522547,216.89348 L 70.522547,203.55948 z"
     id="path101"
     style="fill:#484848;fill-opacity:1;stroke:#484848;stroke-width:1;stroke-opacity:1" />
  <g
     transform="matrix(0.6667,0,0,0.6667,7.4928819,242.48628)"
     id="g107">
    <path
       d="M 70,6 L 86.5,6 L 86.5,12 L 82.5,12 L 82.5,9 L 72,9"
       id="path109"
       style="fill:#505050;fill-opacity:1;stroke:#505050;stroke-width:1.5;stroke-opacity:1" />
    <path
       d="M 70,33.5 L 86.5,33.5 L 86.5,27.5 L 82.5,27.5 L 82.5,30.5 L 72,30.5"
       id="path111"
       style="fill:#505050;fill-opacity:1;stroke:#505050;stroke-width:1.5;stroke-opacity:1" />
  </g>
  <path
     d="M 39.494482,237.31936 C 50.161682,237.31936 50.161682,237.31936 50.161682,237.31936 L 53.828532,239.98616 L 56.161982,243.98636 L 56.161982,266.65416 L 53.828532,270.65436 L 50.161682,273.32116 L 38.827782,273.32116 L 38.827782,273.32116 L 38.827782,275.98796 L 25.493782,275.98796 L 25.493782,273.32116 L 14.159882,273.32116 L 10.493032,270.65436 L 8.1595819,266.65416 L 8.1595819,243.98636 L 10.493032,239.98616 L 14.159882,237.31936 L 24.827082,237.31936 L 24.827082,240.65286 L 39.494482,240.65286 L 39.494482,237.31936 z"
     id="path113"
     style="fill:#505050;fill-opacity:1;stroke:#505050;stroke-width:1;stroke-opacity:1" />
  <path
     d="M 70.522547,249.98666 L 73.856047,249.98666 L 73.856047,252.65346 L 78.522947,252.65346 L 78.522947,249.98666 L 139.526,249.98666 L 139.526,263.32066 L 78.522947,263.32066 L 78.522947,260.65386 L 73.856047,260.65386 L 73.856047,263.32066 L 70.522547,263.32066 L 70.522547,249.98666 z"
     id="path123"
     style="fill:#585858;fill-opacity:1;stroke:#585858;stroke-width:1;stroke-opacity:1" />
  <g
     transform="matrix(0.5,0,0,0.5,37.0625,288.59514)"
     id="g3062">
    <g
       transform="translate(59.878677,45.17647)"
       id="g2533">
      <path
         d="M 64.871323,-38.92647 L 81.371323,-38.92647 L 81.371323,-32.92647 L 77.371323,-32.92647 L 77.371323,-35.92647 L 66.871323,-35.92647"
         id="path2493"
         style="fill:#585858;fill-opacity:1;stroke:#585858;stroke-width:3;stroke-opacity:1" />
      <path
         d="M 64.871323,-11.42647 L 81.371323,-11.42647 L 81.371323,-17.42647 L 77.371323,-17.42647 L 77.371323,-14.42647 L 66.871323,-14.42647"
         id="path2495"
         style="fill:#585858;fill-opacity:1;stroke:#585858;stroke-width:3;stroke-opacity:1" />
    </g>
    <path
       d="M 76,1 C 92,1 120,1 120,1 C 120,1 124.1318,3.4865526 125.5,5 C 126.89747,6.5458243 129,11 129,11 L 129,30 C 129,30 126.78295,33.693654 125.5,35 C 124.07044,36.455629 120,39 120,39 L 75,39 L 75,39 L 75,43 L 55,43 L 55,39 L 10,39 C 10,39 5.9295605,36.455629 4.5,35 C 3.2170498,33.693654 1,30 1,30 L 1,11 C 1,11 3.1025283,6.5458243 4.5,5 C 5.8682021,3.4865526 10,1 10,1 L 54,1 L 54,6 L 76,6 L 76,1 z"
       id="path3067"
       style="fill:#606060;fill-opacity:1;stroke:#606060;stroke-width:4;stroke-opacity:1" />
  </g>
  <g
     transform="matrix(0.5,0,0,0.5,40,321.95951)"
     id="g3156">
    <path
       d="M 13,1 L 13,10 L 6,10 L 6,6 L 1,6 L 1,25 L 6,25 L 6,21 L 13,21 L 13,31 L 129,31 L 129,1 L 13,1 z"
       id="path11"
       style="fill:#686868;fill-opacity:1;stroke:#686868;stroke-width:4;stroke-opacity:1" />
  </g>
  <g
     transform="translate(-1.88425e-2,0)"
     id="g149">
    <path
       d="M 40.693845,353.55201 L 40.693845,358.24201 L 38.013845,358.24201 L 38.013845,361.59201 L 40.693845,361.59201 L 40.693845,366.28201 L 104.34384,366.28201 L 107.02384,359.91701 L 104.34384,353.55201 L 40.693845,353.55201 z"
       id="path151"
       style="fill:#707070;fill-opacity:1;fill-rule:nonzero;stroke:#707070;stroke-width:1;stroke-linejoin:round;stroke-miterlimit:4;stroke-dasharray:none;stroke-opacity:1" />
  </g>
  <g
     transform="translate(-1.571244,0.74717)"
     id="g157">
    <g
       transform="matrix(0.6667,0,0,0.6667,9.706356,385.54113)"
       id="g159">
      <path
         d="M 70,6 L 86.5,6 L 86.5,12 L 82.5,12 L 82.5,9 L 72,9"
         id="path161"
         style="fill:#787878;fill-opacity:1;stroke:#787878;stroke-width:1.5;stroke-opacity:1" />
      <path
         d="M 70,33.5 L 86.5,33.5 L 86.5,27.5 L 82.5,27.5 L 82.5,30.5 L 72,30.5"
         id="path163"
         style="fill:#787878;fill-opacity:1;stroke:#787878;stroke-width:1.5;stroke-opacity:1" />
    </g>
   </g>
    <path
       d="M 41.648251,385.42217 C 52.315451,385.42217 52.315451,385.42217 52.315451,385.42217 C 52.315451,385.42217 55.070121,387.07995 55.982301,388.08897 C 56.914001,389.11957 58.315751,392.08917 58.315751,392.08917 L 58.315751,404.75647 C 58.315751,404.75647 56.837651,407.21903 55.982301,408.08997 C 55.029221,409.06044 52.315451,410.75677 52.315451,410.75677 L 40.981551,410.75677 L 40.981551,410.75677 L 40.981551,413.42357 L 27.647554,413.42357 L 27.647554,410.75677 L 16.313654,410.75677 C 16.313654,410.75677 13.599892,409.06044 12.646804,408.08997 C 11.791461,407.21903 10.313354,404.75647 10.313354,404.75647 L 10.313354,392.08917 C 10.313354,392.08917 11.71511,389.11957 12.646804,388.08897 C 13.558984,387.07995 16.313654,385.42217 16.313654,385.42217 L 26.980854,385.42217 L 26.980854,388.75567 L 41.648251,388.75567 L 41.648251,385.42217 z"
       id="path165"
       style="fill:#787878;fill-opacity:1;stroke:#787878;stroke-width:1;stroke-opacity:1" />
  <g
     transform="translate(5.210508,4)"
     id="g171">
    <path
       d="M 65.312039,389.50304 L 68.645539,389.50304 L 68.645539,392.16984 L 73.312439,392.16984 L 73.312439,389.50304 L 134.31549,389.50304 L 134.31549,402.83704 L 73.312439,402.83704 L 73.312439,400.17024 L 68.645539,400.17024 L 68.645539,402.83704 L 65.312039,402.83704 L 65.312039,389.50304 z"
       id="path173"
       style="fill:#808080;fill-opacity:1;stroke:#808080;stroke-width:1;stroke-opacity:1" />
   </g>
  <path
     d="M 40.07701,424.99768 C 50.74421,424.99768 50.74421,424.99768 50.74421,424.99768 L 54.41106,427.66448 L 56.74451,431.66468 L 56.74451,454.33248 L 54.41106,458.33268 L 50.74421,460.99948 L 39.41031,460.99948 L 39.41031,460.99948 L 39.41031,463.66628 L 26.07631,463.66628 L 26.07631,460.99948 L 14.74241,460.99948 L 11.07556,458.33268 L 8.74211,454.33248 L 8.74211,431.66468 L 11.07556,427.66448 L 14.74241,424.99768 L 25.40961,424.99768 L 25.40961,428.33118 L 40.07701,428.33118 L 40.07701,424.99768 z"
     id="path179"
     style="fill:#888888;fill-opacity:1;stroke:#888888;stroke-width:1;stroke-opacity:1" />
  <path
     d="M 113.81429,424.99768 C 124.48149,424.99768 124.48149,424.99768 124.48149,424.99768 L 128.14834,427.66448 L 130.48179,431.66468 L 130.48179,454.33248 L 128.14834,458.33268 L 124.48149,460.99948 L 113.14759,460.99948 L 113.14759,460.99948 L 113.14759,463.66628 L 99.813592,463.66628 L 99.813592,460.99948 L 88.479683,460.99948 L 84.812833,458.33268 L 82.479383,454.33248 L 82.479383,431.66468 L 84.812833,427.66448 L 88.479683,424.99768 L 99.146892,424.99768 L 99.146892,428.33118 L 113.81429,428.33118 L 113.81429,424.99768 z"
     id="path191"
     style="fill:#909090;fill-opacity:1;stroke:#909090;stroke-width:1;stroke-opacity:1" />
</svg>
