<?xml version="1.0" encoding="UTF-8" standalone="no"?> 
 <svg 
    xmlns="http://www.w3.org/2000/svg" 
    xmlns:xlink="http://www.w3.org/1999/xlink" 
    width="87" 
    height="44"> 
   <defs> 
     <linearGradient 
        id="linearGradient3166"> 
       <stop 
          style="stop-color:#ffffff;stop-opacity:1;" 
          offset="0" 
          id="stop3168" /> 
       <stop 
          style="stop-color:#ff00ff;stop-opacity:1;" 
          offset="1" 
          id="stop3170" /> 
     </linearGradient> 
     <linearGradient 
        xlink:href="#linearGradient3166" 
        id="linearGradient3172" 
        x1="0" 
        y1="22" 
        x2="74" 
        y2="22" 
        gradientUnits="userSpaceOnUse" /> 
   </defs> 
   <path 
      style="fill:#e000e0;fill-opacity:1;stroke:#800080;stroke-width:1.50000000000000000;stroke-opacity:1" 
      d="M 70,6 L 86.5,6 L 86.5,12 L 82.5,12 L 82.5,9 L 72,9" /> 
   <path 
      style="fill:#e000e0;fill-opacity:1;stroke:#800080;stroke-width:1.50000000000000000;stroke-opacity:1" 
      d="M 70,33.5 L 86.5,33.5 L 86.5,27.5 L 82.5,27.5 L 82.5,30.5 L 72,30.5" /> 
   <path 
      style="fill:url(#linearGradient3172);fill-opacity:1;stroke:#a000a0;stroke-width:2;stroke-opacity:1" 
      d="M 48,1 C 64,1 64,1 64,1 C 64,1 68.131798,3.4865526 69.5,5 C 70.897472,6.5458243 73,11 73,11 L 73,30 C 73,30 70.78295,33.693654 69.5,35 C 68.07044,36.455629 64,39 64,39 L 47,39 L 47,39 L 47,43 L 27,43 L 27,39 L 10,39 C 10,39 5.9295605,36.455629 4.5,35 C 3.2170498,33.693654 1,30 1,30 L 1,11 C 1,11 3.1025283,6.5458243 4.5,5 C 5.8682021,3.4865526 10,1 10,1 L 26,1 L 26,6 L 48,6 L 48,1 z" /> 
   <text 
     style="font-size:18px;text-anchor:middle;text-align:center;font-family:Bitstream Vera Sans"> 
     <tspan 
        x="37" 
        y="26" 
        style="font-size:18px;;font-family:Bitstream Vera Sans">print</tspan> 
   </text> 
 </svg> 
