<?xml version="1.0" encoding="UTF-8" standalone="no"?>
<!-- Created with Inkscape (http://www.inkscape.org/) -->
<svg
   xmlns:svg="http://www.w3.org/2000/svg"
   xmlns="http://www.w3.org/2000/svg"
   xmlns:xlink="http://www.w3.org/1999/xlink"
   version="1.0"
   width="87"
   height="81"
   id="svg2">
  <defs
     id="defs4">
    <linearGradient
       id="linearGradient3166">
      <stop
         id="stop3168"
         style="stop-color:#ffffff;stop-opacity:1"
         offset="0" />
      <stop
         id="stop3170"
         style="stop-color:#00ff00;stop-opacity:1"
         offset="1" />
    </linearGradient>
    <linearGradient
       x1="0"
       y1="22"
       x2="74"
       y2="22"
       id="linearGradient3172"
       xlink:href="#linearGradient3166"
       gradientUnits="userSpaceOnUse" />
  </defs>
  <path
     d="M 69.75,42.75 L 86.25,42.75 L 86.25,49 L 82.25,49 L 82.25,45.75 L 71.75,45.75"
     id="path10"
     style="fill:#00e000;fill-opacity:1;stroke:#008000;stroke-width:1.5;stroke-opacity:1" />
  <path
     d="M 69.75,70.25 L 86.25,70.25 L 86.25,64.249999 L 82.25,64.249999 L 82.25,67.249999 L 71.75,67.249999"
     id="path12"
     style="fill:#00e000;fill-opacity:1;stroke:#008000;stroke-width:1.5;stroke-opacity:1" />
  <path
     d="M 70,6 L 86.5,6 L 86.5,12 L 82.5,12 L 82.5,9 L 72,9"
     id="path14"
     style="fill:#00e000;fill-opacity:1;stroke:#008000;stroke-width:1.5;stroke-opacity:1" />
  <path
     d="M 70,33.5 L 86.5,33.5 L 86.5,27.5 L 82.5,27.5 L 82.5,30.5 L 72,30.5"
     id="path16"
     style="fill:#00e000;fill-opacity:1;stroke:#008000;stroke-width:1.5;stroke-opacity:1" />
  <path
     d="M 48,1 C 64,1 64,1 64,1 C 64,1 68.131798,3.4865526 69.5,5 C 70.897472,6.5458243 73,11 73,11 L 73,67 C 73,67 70.78295,70.693654 69.5,72 C 68.07044,73.455629 64,76 64,76 L 47,76 L 47,76 L 47,80 L 27,80 L 27,76 L 10,76 C 10,76 5.9295605,73.455629 4.5,72 C 3.2170498,70.693654 1,67 1,67 L 1,11 C 1,11 3.1025283,6.5458243 4.5,5 C 5.8682021,3.4865526 10,1 10,1 L 26,1 L 26,6 L 48,6 L 48,1 z"
     id="path18"
     style="fill:url(#linearGradient3172);fill-opacity:1;stroke:#00a000;stroke-width:2;stroke-opacity:1" />
  <text
     id="text20"
     style="font-size:12px;text-align:center;text-anchor:middle;font-family:Bitstream Vera Sans">
    <tspan
       x="37"
       y="43"
       id="tspan22"
       style="font-size:18px">setxy</tspan>
  </text>
  <text
     id="text24"
     style="font-size:12px;text-align:end;text-anchor:end;font-family:Bitstream Vera Sans">
    <tspan
       x="68"
       y="22"
       id="tspan26"
       style="font-size:14px">x</tspan>
  </text>
  <text
     id="text28"
     style="font-size:12px;text-align:end;text-anchor:end;font-family:Bitstream Vera Sans">
    <tspan
       x="68"
       y="64"
       id="tspan30"
       style="font-size:14px">y</tspan>
  </text>
</svg>
