<?xml version="1.0" encoding="UTF-8" standalone="no"?>
<!-- Created with Inkscape (http://www.inkscape.org/) -->
<svg
   xmlns:svg="http://www.w3.org/2000/svg"
   xmlns="http://www.w3.org/2000/svg"
   version="1.0"
   width="145"
   height="500"
   id="svg2670">
  <defs
     id="defs2732" />
  <rect
     width="145"
     height="500"
     x="0"
     y="0"
     id="rect3192"
     style="opacity:1;fill:#ffffff;fill-opacity:1;stroke:none" />
  <rect
     width="145"
     height="27"
     x="0"
     y="0"
     id="rect2673"
     style="opacity:1;fill:#080808;fill-opacity:1;stroke:none" />
  <path
     d="M 0.5,470 L 0.5,486 L 3.5,493 L 8.5,497 L 15,499.5 L 129,499.5 L 136,497 L 142,492 L 145,484 L 145,470 L 0.5,470 z"
     id="path2675"
     style="fill:#080808;fill-opacity:1;stroke:none" />
  <g
     transform="matrix(0.66667,0,0,0.66667,47.83321,31.999927)"
     id="g2677"
     style="fill:#101010;fill-opacity:1;stroke:none">
    <path
       d="M 48,1 C 64,1 64,1 64,1 L 69.5,5 L 73,11 L 73,30 L 69.5,35 L 64,39 L 47,39 L 47,39 L 47,43 L 27,43 L 27,39 L 10,39 L 4.5,35 L 1,30 L 1,11 L 4.5,5 L 10,1 L 26,1 L 26,6 L 48,6 L 48,1 z"
       id="path2679"
       style="fill:#101010;fill-opacity:1;stroke:none" />
  </g>
  <g
     transform="matrix(0.66667,0,0,0.66667,7.9165167,73.99984)"
     id="g3198"
     style="fill:#181818;fill-opacity:1;stroke:none">
    <path
       d="M 48,1 C 64,1 64,1 64,1 L 69.5,5 L 73,11 L 73,30 L 69.5,35 L 64,39 L 47,39 L 47,39 L 47,43 L 27,43 L 27,39 L 10,39 L 4.5,35 L 1,30 L 1,11 L 4.5,5 L 10,1 L 26,1 L 26,6 L 48,6 L 48,1 z"
       id="path2682"
       style="fill:#181818;fill-opacity:1;stroke:none" />
  </g>
  <g
     transform="matrix(0.66667,0,0,0.66667,77.916518,73.99984)"
     id="g2684"
     style="fill:#202020;fill-opacity:1;stroke:none">
    <path
       d="M 48,1 C 64,1 64,1 64,1 L 69.5,5 L 73,11 L 73,30 L 69.5,35 L 64,39 L 47,39 L 47,39 L 47,43 L 27,43 L 27,39 L 10,39 L 4.5,35 L 1,30 L 1,11 L 4.5,5 L 10,1 L 26,1 L 26,6 L 48,6 L 48,1 z"
       id="path2686"
       style="fill:#202020;fill-opacity:1;stroke:none" />
  </g>
  <g
     transform="matrix(0.66667,0,0,0.66667,7.9165167,114.66652)"
     id="g2688"
     style="fill:#282828;fill-opacity:1;stroke:none">
    <path
       d="M 48,1 C 64,1 64,1 64,1 L 69.5,5 L 73,11 L 73,30 L 69.5,35 L 64,39 L 47,39 L 47,39 L 47,43 L 27,43 L 27,39 L 10,39 L 4.5,35 L 1,30 L 1,11 L 4.5,5 L 10,1 L 26,1 L 26,6 L 48,6 L 48,1 z"
       id="path2690"
       style="fill:#282828;fill-opacity:1;stroke:none" />
  </g>
  <g
     transform="matrix(0.66667,0,0,0.66667,77.916518,114.66652)"
     id="g2692"
     style="fill:#303030;fill-opacity:1;stroke:none">
    <path
       d="M 48,1 C 64,1 64,1 64,1 L 69.5,5 L 73,11 L 73,30 L 69.5,35 L 64,39 L 47,39 L 47,39 L 47,43 L 27,43 L 27,39 L 10,39 L 4.5,35 L 1,30 L 1,11 L 4.5,5 L 10,1 L 26,1 L 26,6 L 48,6 L 48,1 z"
       id="path2694"
       style="fill:#303030;fill-opacity:1;stroke:none" />
  </g>
  <g
     transform="matrix(0.66667,0,0,0.66667,43.416521,152.33273)"
     id="g2696"
     style="fill:#383838;fill-opacity:1;stroke:none">
    <path
       d="M 48,1 C 64,1 64,1 64,1 L 69.5,5 L 73,11 L 73,67 L 69.5,72 L 64,76 L 47,76 L 47,76 L 47,80 L 27,80 L 27,76 L 10,76 L 4.5,72 L 1,67 L 1,11 L 4.5,5 L 10,1 L 26,1 L 26,6 L 48,6 L 48,1 z"
       id="path3214"
       style="fill:#383838;fill-opacity:1;stroke:none" />
  </g>
  <g
     transform="matrix(0.66667,0,0,0.66667,7.9165167,221.66673)"
     id="g3216"
     style="fill:#404040;fill-opacity:1;stroke:none">
    <path
       d="M 48,1 C 64,1 64,1 64,1 L 69.5,5 L 73,11 L 73,67 L 69.5,72 L 64,76 L 47,76 L 47,76 L 47,80 L 27,80 L 27,76 L 10,76 L 4.5,72 L 1,67 L 1,11 L 4.5,5 L 10,1 L 26,1 L 26,6 L 48,6 L 48,1 z"
       id="path3218"
       style="fill:#404040;fill-opacity:1;stroke:none" />
  </g>
  <g
     transform="matrix(0.66667,0,0,0.66667,77.916518,221.66673)"
     id="g2701"
     style="fill:#484848;fill-opacity:1;stroke:none">
    <path
       d="M 48,1 C 64,1 64,1 64,1 L 69.5,5 L 73,11 L 73,30 L 69.5,35 L 64,39 L 47,39 L 47,39 L 47,43 L 27,43 L 27,39 L 10,39 L 4.5,35 L 1,30 L 1,11 L 4.5,5 L 10,1 L 26,1 L 26,6 L 48,6 L 48,1 z"
       id="path2703"
       style="fill:#484848;fill-opacity:1;stroke:none" />
  </g>
  <g
     transform="matrix(0.66667,0,0,0.66667,7.9165167,289.33319)"
     id="g2705"
     style="fill:#505050;fill-opacity:1;stroke:none">
    <path
       d="M 48,1 C 64,1 64,1 64,1 L 69.5,5 L 73,11 L 73,30 L 69.5,35 L 64,39 L 47,39 L 47,39 L 47,43 L 27,43 L 27,39 L 10,39 L 4.5,35 L 1,30 L 1,11 L 4.5,5 L 10,1 L 26,1 L 26,6 L 48,6 L 48,1 z"
       id="path2707"
       style="fill:#505050;fill-opacity:1;stroke:none" />
  </g>
  <g
     transform="matrix(0.66667,0,0,0.66667,77.916518,289.33319)"
     id="g2709"
     style="fill:#585858;fill-opacity:1;stroke:none">
    <path
       d="M 48,1 C 64,1 64,1 64,1 L 69.5,5 L 73,11 L 73,30 L 69.5,35 L 64,39 L 47,39 L 47,39 L 47,43 L 27,43 L 27,39 L 10,39 L 4.5,35 L 1,30 L 1,11 L 4.5,5 L 10,1 L 26,1 L 26,6 L 48,6 L 48,1 z"
       id="path2711"
       style="fill:#585858;fill-opacity:1;stroke:none" />
  </g>
  <path
     d="M 53,340 L 57,340 L 57,343 L 61,343 L 61,325 L 119,325 L 119,368 L 61,368 L 61,349 L 57,349 L 57,352 L 53,352 L 53,340 z"
     id="path2713"
     style="fill:#606060;fill-opacity:1;stroke:none" />
  <g
     transform="matrix(0.66667,0,0,0.66667,37.333158,380.33326)"
     id="g2715"
     style="fill:#686868;fill-opacity:1;stroke:none">
    <path
       d="M 1,0.5 L 6,0.5 L 6,4.5 L 13,4.5 L 13,0.5 L 104.5,0.5 L 104.5,20.5 L 13,20.5 L 13,16.5 L 6,16.5 L 6,20.5 L 1,20.5 L 1,0.5 z"
       id="path2717"
       style="fill:#686868;fill-opacity:1;stroke:none" />
  </g>
  <g
     transform="matrix(0.66667,0,0,0.66667,37.333157,402.33326)"
     id="g2719"
     style="fill:#707070;fill-opacity:1;stroke:none">
    <path
       d="M 1,0.5 L 6,0.5 L 6,4.5 L 13,4.5 L 13,0.5 L 104.5,0.5 L 104.5,20.5 L 13,20.5 L 13,16.5 L 6,16.5 L 6,20.5 L 1,20.5 L 1,0.5 z"
       id="path2721"
       style="fill:#707070;fill-opacity:1;stroke:none" />
  </g>
  <g
     transform="matrix(0.66667,0,0,0.66667,37.333157,424.33326)"
     id="g2723"
     style="fill:#787878;fill-opacity:1;stroke:none">
    <path
       d="M 1,0.5 L 6,0.5 L 6,4.5 L 13,4.5 L 13,0.5 L 104.5,0.5 L 104.5,20.5 L 13,20.5 L 13,16.5 L 6,16.5 L 6,20.5 L 1,20.5 L 1,0.5 z"
       id="path2725"
       style="fill:#787878;fill-opacity:1;stroke:none" />
  </g>
  <g
     transform="matrix(0.66667,0,0,0.66667,37.116558,446.33326)"
     id="g2727"
     style="fill:#808080;fill-opacity:1;stroke:none">
    <path
       d="M 1,0.5 L 6,0.5 L 6,4.5 L 13,4.5 L 13,0.5 L 104.5,0.5 L 104.5,20.5 L 13,20.5 L 13,16.5 L 6,16.5 L 6,20.5 L 1,20.5 L 1,0.5 z"
       id="path2729"
       style="fill:#808080;fill-opacity:1;stroke:none" />
  </g>
  <g
     transform="matrix(0.66667,0,0,0.66667,13.33333,333.5114)"
     id="g2738"
     style="fill:#505050;fill-opacity:1;stroke:none">
    <path
       d="M 48,1 C 64,1 64,1 64,1 L 69.5,5 L 73,11 L 73,30 L 69.5,35 L 64,39 L 47,39 L 47,39 L 47,43 L 27,43 L 27,39 L 10,39 L 4.5,35 L 1,30 L 1,11 L 4.5,5 L 10,1 L 26,1 L 26,6 L 48,6 L 48,1 z"
       id="path2740"
       style="fill:#606060;fill-opacity:1;stroke:none" />
  </g>
</svg>
