<?xml version="1.0" encoding="UTF-8" standalone="no"?>
<!-- Created with Inkscape (http://www.inkscape.org/) -->
<svg
   xmlns:svg="http://www.w3.org/2000/svg"
   xmlns="http://www.w3.org/2000/svg"
   xmlns:xlink="http://www.w3.org/1999/xlink"
   version="1.0"
   width="142"
   height="60"
   id="svg2">
  <defs
     id="defs4">
    <linearGradient
       id="linearGradient3166">
      <stop
         id="stop3168"
         style="stop-color:#ffffff;stop-opacity:1"
         offset="0" />
      <stop
         id="stop3170"
         style="stop-color:#ffff00;stop-opacity:1"
         offset="1" />
    </linearGradient>
    <linearGradient
       x1="0"
       y1="22"
       x2="128.68382"
       y2="22"
       id="linearGradient3172"
       xlink:href="#linearGradient3166"
       gradientUnits="userSpaceOnUse" />
    <linearGradient
       x1="0"
       y1="0"
       x2="64"
       y2="0"
       id="linearGradient2501"
       xlink:href="#linearGradient3166"
       gradientUnits="userSpaceOnUse"
       gradientTransform="translate(0,4.96875)" />
    <linearGradient
       x1="210"
       y1="10.5"
       x2="0"
       y2="10.5"
       id="linearGradient2496"
       xlink:href="#linearGradient3886"
       gradientUnits="userSpaceOnUse" />
    <linearGradient
       id="linearGradient3886">
      <stop
         id="stop3888"
         style="stop-color:#0000ff;stop-opacity:1"
         offset="0" />
      <stop
         id="stop3890"
         style="stop-color:#ffffff;stop-opacity:1"
         offset="1" />
    </linearGradient>
    <linearGradient
       x1="210"
       y1="10.5"
       x2="0"
       y2="10.5"
       id="linearGradient4211"
       xlink:href="#linearGradient3886"
       gradientUnits="userSpaceOnUse" />
    <linearGradient
       x1="0"
       y1="0"
       x2="64"
       y2="0"
       id="linearGradient4238"
       xlink:href="#linearGradient3166"
       gradientUnits="userSpaceOnUse"
       gradientTransform="translate(0,4.96875)" />
    <linearGradient
       id="linearGradient2473">
      <stop
         id="stop2475"
         style="stop-color:#ffffff;stop-opacity:1"
         offset="0" />
      <stop
         id="stop2477"
         style="stop-color:#ffff00;stop-opacity:1"
         offset="1" />
    </linearGradient>
    <linearGradient
       x1="0"
       y1="22"
       x2="74"
       y2="22"
       id="linearGradient2601"
       xlink:href="#linearGradient3166"
       gradientUnits="userSpaceOnUse" />
    <linearGradient
       id="linearGradient2595">
      <stop
         id="stop2597"
         style="stop-color:#ffffff;stop-opacity:1"
         offset="0" />
      <stop
         id="stop2599"
         style="stop-color:#ffff00;stop-opacity:1"
         offset="1" />
    </linearGradient>
    <linearGradient
       x1="0"
       y1="22"
       x2="128.68382"
       y2="22"
       id="linearGradient2608"
       xlink:href="#linearGradient3166"
       gradientUnits="userSpaceOnUse" />
    <linearGradient
       x1="0"
       y1="22"
       x2="74"
       y2="22"
       id="linearGradient2515"
       xlink:href="#linearGradient3166"
       gradientUnits="userSpaceOnUse" />
    <linearGradient
       id="linearGradient2509">
      <stop
         id="stop2511"
         style="stop-color:#ffffff;stop-opacity:1"
         offset="0" />
      <stop
         id="stop2513"
         style="stop-color:#ffff00;stop-opacity:1"
         offset="1" />
    </linearGradient>
    <linearGradient
       id="linearGradient2486">
      <stop
         id="stop2488"
         style="stop-color:#ffffff;stop-opacity:1"
         offset="0" />
      <stop
         id="stop2490"
         style="stop-color:#0000ff;stop-opacity:1"
         offset="1" />
    </linearGradient>
    <linearGradient
       x1="0"
       y1="0"
       x2="104"
       y2="21"
       id="linearGradient2493"
       xlink:href="#linearGradient3166"
       gradientUnits="userSpaceOnUse" />
    <linearGradient
       id="linearGradient2492">
      <stop
         id="stop2494"
         style="stop-color:#ffffff;stop-opacity:1"
         offset="0" />
      <stop
         id="stop2496"
         style="stop-color:#ffff00;stop-opacity:1"
         offset="1" />
    </linearGradient>
    <linearGradient
       x1="0"
       y1="0"
       x2="104"
       y2="21"
       id="linearGradient2524"
       xlink:href="#linearGradient3166"
       gradientUnits="userSpaceOnUse"
       gradientTransform="translate(0,5.4999997)" />
    <linearGradient
       x1="0"
       y1="0"
       x2="64"
       y2="0"
       id="linearGradient2522"
       xlink:href="#linearGradient3166"
       gradientUnits="userSpaceOnUse"
       gradientTransform="translate(0,4.96875)" />
    <linearGradient
       x1="210"
       y1="10.5"
       x2="0"
       y2="10.5"
       id="linearGradient2520"
       xlink:href="#linearGradient3886"
       gradientUnits="userSpaceOnUse" />
    <linearGradient
       id="linearGradient2514">
      <stop
         id="stop2516"
         style="stop-color:#0000ff;stop-opacity:1"
         offset="0" />
      <stop
         id="stop2518"
         style="stop-color:#ffffff;stop-opacity:1"
         offset="1" />
    </linearGradient>
    <linearGradient
       x1="210"
       y1="10.5"
       x2="0"
       y2="10.5"
       id="linearGradient2512"
       xlink:href="#linearGradient3886"
       gradientUnits="userSpaceOnUse" />
    <linearGradient
       x1="0"
       y1="0"
       x2="64"
       y2="0"
       id="linearGradient2510"
       xlink:href="#linearGradient3166"
       gradientUnits="userSpaceOnUse"
       gradientTransform="translate(0,4.96875)" />
    <linearGradient
       id="linearGradient2504">
      <stop
         id="stop2506"
         style="stop-color:#ffffff;stop-opacity:1"
         offset="0" />
      <stop
         id="stop2508"
         style="stop-color:#ffff00;stop-opacity:1"
         offset="1" />
    </linearGradient>
    <linearGradient
       x1="0"
       y1="0"
       x2="64"
       y2="0"
       id="linearGradient2540"
       xlink:href="#linearGradient3166"
       gradientUnits="userSpaceOnUse"
       gradientTransform="translate(34.404412,58.027574)" />
  </defs>
  <g
     transform="translate(59.878677,53.67647)"
     id="g2533">
    <path
       d="M 64.871323,-38.92647 L 81.371323,-38.92647 L 81.371323,-32.92647 L 77.371323,-32.92647 L 77.371323,-35.92647 L 66.871323,-35.92647"
       id="path2493"
       style="fill:#e0e000;fill-opacity:1;stroke:#a08000;stroke-width:1.5;stroke-opacity:1" />
    <path
       d="M 64.871323,-11.42647 L 81.371323,-11.42647 L 81.371323,-17.42647 L 77.371323,-17.42647 L 77.371323,-14.42647 L 66.871323,-14.42647"
       id="path2495"
       style="fill:#e0e000;fill-opacity:1;stroke:#908000;stroke-width:1.5;stroke-opacity:1" />
  </g>
  <path
     d="M 47,1 C 63,1 120,1 120,1 C 120,1 124.1318,3.4865526 125.5,5 C 126.89747,6.5458243 129,11 129,11 L 129,46 C 129,46 126.78295,49.693654 125.5,51 C 124.07044,52.455629 120,55 120,55 L 47,55 L 47,55 L 47,59 L 27,59 L 27,55 L 10,55 C 10,55 5.9295605,52.455629 4.5,51 C 3.2170498,49.693654 1,46 1,46 L 1,11 C 1,11 3.1025283,6.5458243 4.5,5 C 5.8682021,3.4865526 10,1 10,1 L 27,1 L 27,6 L 47,6 L 47,1 z"
     id="path10"
     style="fill:url(#linearGradient3172);fill-opacity:1;stroke:#c0a000;stroke-width:2;stroke-opacity:1" />
  <path
     d="M 13,28 L 18,28 L 18,32 L 24.999999,32 L 24.999999,28 L 116.50001,28 L 116.50001,48 L 24.999999,48 L 24.999999,44 L 18,44 L 18,48 L 13,48 L 13,28 z"
     id="path9"
     style="fill:#ffffff;fill-opacity:1;stroke:none;stroke-width:2;stroke-opacity:1" />
  <text
     x="28.035656"
     y="-3.3128912"
     id="text2593"
     style="font-size:18px;text-align:center;text-anchor:middle;font-family:Bitstream Vera Sans">
    <tspan
       x="65.035652"
       y="23.687109"
       id="tspan2595"
       style="font-size:18px">хадгал</tspan>
  </text>
</svg>
