<?xml version="1.0" encoding="UTF-8" standalone="no"?>
<svg
   xmlns="http://www.w3.org/2000/svg"
   xmlns:xlink="http://www.w3.org/1999/xlink"
   width="55"
   height="37"
   version="1.0">
  <defs>
    <linearGradient
       id="linearGradient3166">
      <stop
         style="stop-color:#ffffff;stop-opacity:1;"
         offset="0"
         id="stop3168" />
      <stop
         style="stop-color:#ff00ff;stop-opacity:1;"
         offset="1"
         id="stop3170" />
    </linearGradient>
    <linearGradient
       xlink:href="#linearGradient3166"
       id="linearGradient3172"
       x1="0"
       y1="22"
       x2="74"
       y2="22"
       gradientUnits="userSpaceOnUse" />
  </defs>
  <path
     style="fill:url(#linearGradient3172);stroke:#a000a0;stroke-width:1.5;stroke-opacity:1;fill-opacity:1;stroke-dasharray:none"
     d="M 55,0.5 L 22.5,0.5 C 22.5,0.5 18.230829,2.065261 16.882586,3.3555954 C 15.619576,4.5643565 14,7.5125673 14,7.5125673 L 14,11.425494 L 6.5,11.524237 L 6.5,8.5 L 0.5,8.5 L 0.5,28.5 L 6.5,28.5 L 6.5,25 L 14,25 L 14,32.16158 C 14,32.16158 15.109546,34.301134 15.897666,34.926391 C 16.919026,35.736689 19.94614,36.5 19.94614,36.5 L 55,36.5 L 55,26.5 L 50,26.5 L 50,29.594255 L 41,29.594255 L 41,7 L 50,7 L 50,10 L 55,10 L 55,0.5 z" />
  <text
     style="font-size:12px;font-family:Bitstream Vera Sans">
     <tspan
       x="18"
       y="28"
       style="font-size:24px">√</tspan></text>
  <path
     style="fill:none;stroke:#000000;stroke-width:1;stroke-opacity:1"
     d="M 32.980251,9.1782124 C 37.127469,9.1782124 37.127469,9.1782124 37.127469,9.1782124" />
</svg>
