<?xml version="1.0" encoding="UTF-8" standalone="no"?>
<!-- Created with Inkscape (http://www.inkscape.org/) -->
<svg
   xmlns:svg="http://www.w3.org/2000/svg"
   xmlns="http://www.w3.org/2000/svg"
   version="1.0"
   width="43.5"
   height="56.5"
   id="svg2">
  <defs
     id="defs5" />
  <path
     d="M 0.75,0.75 L 34.618627,0.75 C 34.618627,0.75 38.364227,1.9821101 39.669608,2.995098 C 40.856507,3.9161424 42.75,6.9480392 42.75,6.9480392 L 42.75,49.222549 C 42.75,49.222549 40.914623,52.48677 40.108824,53.285295 C 38.685367,54.6959 34.838235,55.75 34.838235,55.75 L 0.75,55.75 L 0.75,0.75 z"
     id="path2384"
     style="fill:#ffe000;fill-opacity:1;stroke:#a06400;stroke-width:1.5;stroke-dasharray:none;stroke-opacity:1" />
  <path
     d="M 5.6992386,40.619289 C 7.1332487,41.407995 10.939009,42.021717 13.227792,41.909898 C 14.853959,41.830451 17.142721,41.430049 18.461929,40.475888 C 20.700052,38.85709 21.494624,34.646261 23.552665,32.803934 C 24.778366,31.706705 26.784509,30.359299 28.428299,30.294416 C 30.43215,30.215321 32.896467,31.808765 34.594543,32.875635 C 35.884759,33.686254 38.39467,36.245558 38.39467,36.245558"
     id="path2471"
     style="fill:none;stroke:#0080ff;stroke-width:3;stroke-linecap:round;stroke-dasharray:none;stroke-opacity:1" />
  <path
     d="M 7.4917513,39.185279 L 8.6389594,34.524746 L 10.574873,34.883249 L 11.793782,35.958756 L 12.080584,38.038071 L 7.4917513,39.185279 z"
     id="path3245"
     style="fill:#e0e0e0;fill-opacity:1;stroke:#e0e0e0;stroke-width:1px;stroke-opacity:1" />
  <path
     d="M 6.0577411,40.404188 C 7.7785533,38.539975 7.9219543,38.683376 7.9219543,38.683376"
     id="path3243"
     style="fill:none;stroke:#0060ff;stroke-width:2;stroke-linecap:round;stroke-dasharray:none;stroke-opacity:1" />
  <path
     d="M 9.1408629,33.807742 L 27.496192,15.739214 L 28.930203,17.101523 L 10.933375,34.668148 L 9.1408629,33.807742 z"
     id="path3247"
     style="fill:#a0a0ff;fill-opacity:1;stroke:#a0a0ff;stroke-width:1px;stroke-opacity:1" />
  <path
     d="M 12.367386,35.671955 L 30.220812,18.463833 L 31.654823,19.826142 L 12.725887,37.894671 L 12.367386,35.671955 z"
     id="path3249"
     style="fill:#8080ff;fill-opacity:1;stroke:#8080ff;stroke-width:1px;stroke-opacity:1" />
  <path
     d="M 10.503173,34.596447 L 12.152284,36.245558 L 30.435914,18.463832 L 28.930203,16.67132 L 10.503173,34.596447 z"
     id="path3251"
     style="fill:#c4c4ff;fill-opacity:1;stroke:#c4c4ff;stroke-width:1px;stroke-opacity:1" />
  <path
     d="M 30.113261,12.261739 L 32.551079,9.8956219 L 33.752063,10.738102 L 35.168148,11.939086 L 36.15403,13.21177 L 37.068211,14.699556 L 34.702094,17.209075 L 33.805837,15.703364 L 31.618971,13.337247 L 30.113261,12.261739 z"
     id="path3255"
     style="fill:#e0a040;fill-opacity:1;stroke:#e0a040;stroke-width:1px;stroke-opacity:1" />
  <path
     d="M 27.424492,15.022208 L 29.718909,12.942893 L 30.919893,13.785373 L 32.335978,14.986357 L 33.32186,16.259041 L 34.236041,17.746827 L 32.156726,19.611041 L 31.188769,18.463833 L 28.858502,16.241117 L 27.424492,15.022208 z"
     id="path3253"
     style="fill:#e0e0e0;fill-opacity:1;stroke:#c4c4c4;stroke-width:1px;stroke-opacity:1" />
</svg>
