<?xml version="1.0" encoding="UTF-8" standalone="no"?>
<!-- Created with Inkscape (http://www.inkscape.org/) -->
<svg
   xmlns:dc="http://purl.org/dc/elements/1.1/"
   xmlns:cc="http://creativecommons.org/ns#"
   xmlns:rdf="http://www.w3.org/1999/02/22-rdf-syntax-ns#"
   xmlns:svg="http://www.w3.org/2000/svg"
   xmlns="http://www.w3.org/2000/svg"
   xmlns:sodipodi="http://sodipodi.sourceforge.net/DTD/sodipodi-0.dtd"
   xmlns:inkscape="http://www.inkscape.org/namespaces/inkscape"
   version="1.0"
   width="43.5"
   height="56.5"
   id="svg2"
   sodipodi:version="0.32"
   inkscape:version="0.46"
   sodipodi:docname="sensor.svg"
   inkscape:output_extension="org.inkscape.output.svg.inkscape">
  <metadata
     id="metadata8">
    <rdf:RDF>
      <cc:Work
         rdf:about="">
        <dc:format>image/svg+xml</dc:format>
        <dc:type
           rdf:resource="http://purl.org/dc/dcmitype/StillImage" />
      </cc:Work>
    </rdf:RDF>
  </metadata>
  <sodipodi:namedview
     inkscape:window-height="723"
     inkscape:window-width="645"
     inkscape:pageshadow="2"
     inkscape:pageopacity="0.0"
     guidetolerance="10.0"
     gridtolerance="10.0"
     objecttolerance="10.0"
     borderopacity="1.0"
     bordercolor="#666666"
     pagecolor="#ffffff"
     id="base"
     showgrid="false"
     inkscape:zoom="0.46942014"
     inkscape:cx="372.04724"
     inkscape:cy="526.18109"
     inkscape:window-x="0"
     inkscape:window-y="25"
     inkscape:current-layer="svg2" />
  <defs
     id="defs4">
    <inkscape:perspective
       sodipodi:type="inkscape:persp3d"
       inkscape:vp_x="0 : 526.18109 : 1"
       inkscape:vp_y="0 : 1000 : 0"
       inkscape:vp_z="744.09448 : 526.18109 : 1"
       inkscape:persp3d-origin="372.04724 : 350.78739 : 1"
       id="perspective10" />
  </defs>
  <g
     id="layer1"
     transform="translate(-353.25,-504.11218)">
    <path
       d="M 354,504.86218 L 387.86863,504.86218 C 387.86863,504.86218 391.61423,506.09429 392.91961,507.10728 C 394.10651,508.02832 396,511.06022 396,511.06022 L 396,553.33473 C 396,553.33473 394.16462,556.59895 393.35882,557.39747 C 391.93537,558.80808 388.08823,559.86218 388.08823,559.86218 L 354,559.86218 L 354,504.86218 z"
       id="path2384"
       style="fill:#ffe000;fill-opacity:1;stroke:#a06400;stroke-width:1.5;stroke-dasharray:none;stroke-opacity:1" />
    <path
       d="M 378.70163,550.58979 C 378.08134,550.10187 377.24212,549.1467 376.8367,548.46719 C 376.33056,547.61884 374.99729,546.66412 372.58182,545.42036 C 368.33744,543.23488 367.03433,541.57169 365.64431,536.56593 C 363.40254,528.49279 364.56768,521.88008 369.08236,517.05352 C 371.32264,514.65848 373.69934,513.43093 376.09035,513.43394 C 378.73315,513.43726 380.52801,514.06732 382.35874,515.63435 C 384.5079,517.47395 385.46406,519.95913 385.46406,523.70544 C 385.46406,526.33979 385.3662,526.68132 384.28922,527.80544 C 382.9083,529.24681 382.07156,529.3452 381.02606,528.18914 C 380.0139,527.06996 377.53712,525.83171 376.31068,525.83171 C 375.7688,525.83171 374.79352,526.27929 374.14338,526.82634 C 372.66964,528.06641 371.07652,531.83001 371.42969,533.23717 C 371.80122,534.71747 373.0939,535.83171 374.43973,535.83171 C 375.23657,535.83171 376.21109,536.34727 377.46406,537.43171 C 378.48082,538.31171 379.5836,539.03171 379.91468,539.03171 C 380.91034,539.03171 382.08719,538.234 382.46127,537.30556 C 382.80502,536.45239 382.81395,536.45136 382.8387,537.26198 C 382.87157,538.33829 381.27226,539.83171 380.08676,539.83171 C 379.5776,539.83171 378.47494,539.21188 377.63641,538.45431 C 376.74174,537.64603 375.48216,536.96318 374.58793,536.80166 C 372.45171,536.4158 371.76526,535.98767 371.04283,534.59065 C 370.30328,533.16053 370.52482,531.70063 371.89368,528.98381 C 373.69943,525.39986 376.00891,524.32941 379.12576,525.63171 C 379.91556,525.96171 380.65141,526.23171 380.76099,526.23171 C 380.87056,526.23171 380.88258,525.15845 380.7877,523.84669 C 380.60265,521.28847 379.94619,520.20499 377.95846,519.1771 C 375.43301,517.87114 370.99919,520.81313 368.87667,525.20319 C 366.95644,529.17483 367.43958,535.60947 369.93566,539.30723 C 370.80606,540.59667 370.83336,540.714 370.11275,540.06823 C 369.64417,539.64832 368.76652,538.29832 368.16242,537.06823 C 367.21164,535.1322 367.06406,534.34802 367.06406,531.23171 C 367.06406,528.16021 367.22191,527.2949 368.13927,525.33752 C 368.73063,524.07572 369.72063,522.37873 370.33927,521.56644 C 371.68113,519.80452 374.6493,517.83171 375.95831,517.83171 C 377.10356,517.83171 379.62594,519.07877 380.5243,520.08914 C 381.39546,521.06891 382.05906,523.58039 382.06183,525.9081 C 382.06669,529.99724 384.15259,527.7417 384.399,523.38085 C 384.52136,521.21542 384.38098,520.31267 383.70467,518.9156 C 382.20842,515.82475 381.27699,515.25169 377.49179,515.09311 C 373.49593,514.92571 371.82652,515.61553 369.31074,518.47361 C 367.07918,521.0088 366.02816,524.39631 365.76686,529.8957 C 365.39051,537.81674 367.46096,541.83837 373.40934,544.74032 C 375.68898,545.85246 376.65341,546.59238 377.53573,547.90612 C 378.93474,549.98919 380.26506,550.56149 381.8974,549.78249 C 382.87618,549.31539 383.08387,548.95245 383.18706,547.52872 C 383.32566,545.6165 383.86534,545.28006 384.17721,546.91146 C 384.57254,548.97949 383.30326,550.62428 380.84675,551.22723 C 380.12783,551.40369 379.49864,551.21672 378.70163,550.58979 z M 375.37239,523.19004 C 375.50531,523.05712 375.85031,523.04291 376.13906,523.15846 C 376.45815,523.28615 376.36337,523.38093 375.89739,523.40013 C 375.47573,523.41749 375.23948,523.32296 375.37239,523.19004 z"
       id="path2508"
       style="fill:#a06400;fill-opacity:1;stroke:#a06400;stroke-width:1;stroke-opacity:1" />
  </g>
</svg>
