<?xml version="1.0" encoding="UTF-8" standalone="no"?>
<!-- Created with Inkscape (http://www.inkscape.org/) -->

<svg
   xmlns:svg="http://www.w3.org/2000/svg"
   xmlns="http://www.w3.org/2000/svg"
   xmlns:xlink="http://www.w3.org/1999/xlink"
   version="1.0"
   width="38.924679"
   height="41.561081"
   id="svg2">
  <defs
     id="defs5">
    <linearGradient
       id="linearGradient3166">
      <stop
         id="stop3168"
         style="stop-color:#ffffff;stop-opacity:1"
         offset="0" />
      <stop
         id="stop3170"
         style="stop-color:#ffff00;stop-opacity:1"
         offset="1" />
    </linearGradient>
    <linearGradient
       x1="0.94254935"
       y1="-31.669659"
       x2="104.37702"
       y2="20.434471"
       id="linearGradient3172"
       xlink:href="#linearGradient3166"
       gradientUnits="userSpaceOnUse"
       gradientTransform="matrix(0.7083638,0,0,1.0012565,0.1338084,32.632067)" />
    <linearGradient
       x1="0.94254935"
       y1="-31.669659"
       x2="104.37702"
       y2="20.434471"
       id="linearGradient3172-9"
       xlink:href="#linearGradient3166-6"
       gradientUnits="userSpaceOnUse"
       gradientTransform="matrix(0.7083638,0,0,1.0012565,0.1338084,32.632067)" />
    <linearGradient
       id="linearGradient3166-6">
      <stop
         id="stop3168-5"
         style="stop-color:#ffffff;stop-opacity:1"
         offset="0" />
      <stop
         id="stop3170-6"
         style="stop-color:#ffff00;stop-opacity:1"
         offset="1" />
    </linearGradient>
  </defs>
  <g
     transform="scale(0.67,0.67)"
     id="g2846">
    <g
       transform="matrix(0.67030561,0,0,0.64489065,-3.7989548,-2.7187603)"
       id="activity-journal"
       style="stroke:#000000;stroke-opacity:1;display:block">
      <path
         d="M 45.866,44.669 C 45.866,47.18 44.338,49 41.534,49 l -29.457,0 0,-43 29.458,0 c 2.15,0 4.332,2.154 4.332,4.33 l -10e-4,34.339 0,0 z"
         id="path2458"
         style="fill:#ffffff;stroke:#000000;stroke-width:3.5;stroke-linecap:round;stroke-linejoin:round;stroke-opacity:1" />
      <line
         style="fill:none;stroke:#000000;stroke-width:3.5;stroke-linecap:round;stroke-linejoin:round;stroke-opacity:1"
         x1="21.341"
         x2="21.341"
         y1="6.1209998"
         y2="48.881001"
         id="line2460" />
      <path
         d="m 7.384,14.464 c 0,0 2.084,0.695 4.17,0.695 2.086,0 4.173,-0.695 4.173,-0.695"
         id="path2462"
         style="fill:none;stroke:#000000;stroke-width:3.5;stroke-linecap:round;stroke-linejoin:round;stroke-opacity:1" />
      <path
         d="m 7.384,28.021 c 0,0 1.912,0.695 4.345,0.695 2.433,0 3.999,-0.695 3.999,-0.695"
         id="path2464"
         style="fill:none;stroke:#000000;stroke-width:3.5;stroke-linecap:round;stroke-linejoin:round;stroke-opacity:1" />
      <path
         d="m 7.384,41.232 c 0,0 1.736,0.695 4.518,0.695 2.781,0 3.825,-0.695 3.825,-0.695"
         id="path2466"
         style="fill:none;stroke:#000000;stroke-width:3.5;stroke-linecap:round;stroke-linejoin:round;stroke-opacity:1" />
    </g>
    <g
       transform="matrix(0.67030561,0,0,0.64489065,26.201045,-2.7187621)"
       id="activity-journal-7"
       style="stroke:#000000;stroke-opacity:1;display:block">
      <path
         d="M 45.866,44.669 C 45.866,47.18 44.338,49 41.534,49 l -29.457,0 0,-43 29.458,0 c 2.15,0 4.332,2.154 4.332,4.33 l -10e-4,34.339 0,0 z"
         id="path2458-4"
         style="fill:#ffffff;stroke:#000000;stroke-width:3.5;stroke-linecap:round;stroke-linejoin:round;stroke-opacity:1" />
      <line
         style="fill:none;stroke:#000000;stroke-width:3.5;stroke-linecap:round;stroke-linejoin:round;stroke-opacity:1"
         x1="21.341"
         x2="21.341"
         y1="6.1209998"
         y2="48.881001"
         id="line2460-5" />
      <path
         d="m 7.384,14.464 c 0,0 2.084,0.695 4.17,0.695 2.086,0 4.173,-0.695 4.173,-0.695"
         id="path2462-2"
         style="fill:none;stroke:#000000;stroke-width:3.5;stroke-linecap:round;stroke-linejoin:round;stroke-opacity:1" />
      <path
         d="m 7.384,28.021 c 0,0 1.912,0.695 4.345,0.695 2.433,0 3.999,-0.695 3.999,-0.695"
         id="path2464-5"
         style="fill:none;stroke:#000000;stroke-width:3.5;stroke-linecap:round;stroke-linejoin:round;stroke-opacity:1" />
      <path
         d="m 7.384,41.232 c 0,0 1.736,0.695 4.518,0.695 2.781,0 3.825,-0.695 3.825,-0.695"
         id="path2466-4"
         style="fill:none;stroke:#000000;stroke-width:3.5;stroke-linecap:round;stroke-linejoin:round;stroke-opacity:1" />
    </g>
    <g
       transform="matrix(0.67030561,0,0,0.64489065,-3.7989548,29.28124)"
       id="activity-journal-8"
       style="stroke:#000000;stroke-opacity:1;display:block">
      <path
         d="M 45.866,44.669 C 45.866,47.18 44.338,49 41.534,49 l -29.457,0 0,-43 29.458,0 c 2.15,0 4.332,2.154 4.332,4.33 l -10e-4,34.339 0,0 z"
         id="path2458-6"
         style="fill:#ffffff;stroke:#000000;stroke-width:3.5;stroke-linecap:round;stroke-linejoin:round;stroke-opacity:1" />
      <line
         style="fill:none;stroke:#000000;stroke-width:3.5;stroke-linecap:round;stroke-linejoin:round;stroke-opacity:1"
         x1="21.341"
         x2="21.341"
         y1="6.1209998"
         y2="48.881001"
         id="line2460-8" />
      <path
         d="m 7.384,14.464 c 0,0 2.084,0.695 4.17,0.695 2.086,0 4.173,-0.695 4.173,-0.695"
         id="path2462-8"
         style="fill:none;stroke:#000000;stroke-width:3.5;stroke-linecap:round;stroke-linejoin:round;stroke-opacity:1" />
      <path
         d="m 7.384,28.021 c 0,0 1.912,0.695 4.345,0.695 2.433,0 3.999,-0.695 3.999,-0.695"
         id="path2464-4"
         style="fill:none;stroke:#000000;stroke-width:3.5;stroke-linecap:round;stroke-linejoin:round;stroke-opacity:1" />
      <path
         d="m 7.384,41.232 c 0,0 1.736,0.695 4.518,0.695 2.781,0 3.825,-0.695 3.825,-0.695"
         id="path2466-3"
         style="fill:none;stroke:#000000;stroke-width:3.5;stroke-linecap:round;stroke-linejoin:round;stroke-opacity:1" />
    </g>
    <g
       transform="matrix(0.67030561,0,0,0.64489065,26.201045,29.281238)"
       id="activity-journal-7-1"
       style="stroke:#000000;stroke-opacity:1;display:block">
      <path
         d="M 45.866,44.669 C 45.866,47.18 44.338,49 41.534,49 l -29.457,0 0,-43 29.458,0 c 2.15,0 4.332,2.154 4.332,4.33 l -10e-4,34.339 0,0 z"
         id="path2458-4-4"
         style="fill:#ffffff;stroke:#000000;stroke-width:3.5;stroke-linecap:round;stroke-linejoin:round;stroke-opacity:1" />
      <line
         style="fill:none;stroke:#000000;stroke-width:3.5;stroke-linecap:round;stroke-linejoin:round;stroke-opacity:1"
         x1="21.341"
         x2="21.341"
         y1="6.1209998"
         y2="48.881001"
         id="line2460-5-9" />
      <path
         d="m 7.384,14.464 c 0,0 2.084,0.695 4.17,0.695 2.086,0 4.173,-0.695 4.173,-0.695"
         id="path2462-2-2"
         style="fill:none;stroke:#000000;stroke-width:3.5;stroke-linecap:round;stroke-linejoin:round;stroke-opacity:1" />
      <path
         d="m 7.384,28.021 c 0,0 1.912,0.695 4.345,0.695 2.433,0 3.999,-0.695 3.999,-0.695"
         id="path2464-5-0"
         style="fill:none;stroke:#000000;stroke-width:3.5;stroke-linecap:round;stroke-linejoin:round;stroke-opacity:1" />
      <path
         d="m 7.384,41.232 c 0,0 1.736,0.695 4.518,0.695 2.781,0 3.825,-0.695 3.825,-0.695"
         id="path2466-4-6"
         style="fill:none;stroke:#000000;stroke-width:3.5;stroke-linecap:round;stroke-linejoin:round;stroke-opacity:1" />
    </g>
  </g>
</svg>
