<?xml version="1.0" encoding="UTF-8" standalone="no"?>
<!-- Created with Inkscape (http://www.inkscape.org/) -->

<svg
   xmlns:dc="http://purl.org/dc/elements/1.1/"
   xmlns:cc="http://creativecommons.org/ns#"
   xmlns:rdf="http://www.w3.org/1999/02/22-rdf-syntax-ns#"
   xmlns:svg="http://www.w3.org/2000/svg"
   xmlns="http://www.w3.org/2000/svg"
   version="1.1"
   width="55"
   height="55"
   viewBox="0 0 55 55"
   id="svg2"
   xml:space="preserve"><metadata
     id="metadata29"><rdf:RDF><cc:Work
         rdf:about=""><dc:format>image/svg+xml</dc:format><dc:type
           rdf:resource="http://purl.org/dc/dcmitype/StillImage" /><dc:title></dc:title></cc:Work></rdf:RDF></metadata><defs
     id="defs27">
	
	
	
	
	
	
	
</defs><g
     id="g5"
     style="display:inline">
		<g
   id="g7">
			<polygon
   points="5.962,11.058 5.962,43.944 48.788,43.944 48.788,23.002 36.849,11.058 "
   id="polygon9"
   style="fill:#ffffff;stroke:#010101;stroke-width:3.5" />
			<polyline
   style="fill:none;stroke:#010101;stroke-width:3.5"
   id="polyline11"
   points="36.849,11.058 36.849,23.002 48.788,23.002    " />
		</g>
	</g><path
     d="m 27.504,24.842 c -4.757,0 -8.72,4.744 -8.72,4.744 0,0 3.963,4.767 8.72,4.764 4.757,-0.004 8.722,-4.77 8.722,-4.77 0,0 -3.964,-4.741 -8.722,-4.738 z m 0,8.09 c -1.842,0 -3.335,-1.494 -3.335,-3.336 0,-1.839 1.493,-3.336 3.335,-3.336 1.839,0 3.333,1.497 3.333,3.336 0.001,1.842 -1.493,3.336 -3.333,3.336 z"
     id="path13"
     style="fill:#ff0101;fill-opacity:1;display:inline" /><circle
     cx="27.504999"
     cy="29.597"
     r="1.5140001"
     id="circle15"
     style="fill:#ff0101;fill-opacity:1;display:inline" /><circle
     cx="14.875"
     cy="29.597"
     r="1.5140001"
     id="circle17"
     style="fill:#ff0101;fill-opacity:1;display:inline" /><circle
     cx="10.375"
     cy="29.597"
     r="1.5140001"
     id="circle19"
     style="fill:#ff0101;fill-opacity:1;display:inline" /><circle
     cx="43.875"
     cy="29.597"
     r="1.5140001"
     id="circle21"
     style="fill:#ff0101;fill-opacity:1;display:inline" /><circle
     cx="39.375"
     cy="29.597"
     r="1.5140001"
     id="circle23"
     style="fill:#ff0101;fill-opacity:1;display:inline" /></svg>