<?xml version="1.0" encoding="UTF-8" standalone="no"?>
<!-- Created with Inkscape (http://www.inkscape.org/) -->

<svg
   xmlns:dc="http://purl.org/dc/elements/1.1/"
   xmlns:cc="http://creativecommons.org/ns#"
   xmlns:rdf="http://www.w3.org/1999/02/22-rdf-syntax-ns#"
   xmlns:svg="http://www.w3.org/2000/svg"
   xmlns="http://www.w3.org/2000/svg"
   xmlns:xlink="http://www.w3.org/1999/xlink"
   version="1.0"
   width="55"
   height="55"
   id="svg2">
  <metadata
     id="metadata20">
    <rdf:RDF>
      <cc:Work
         rdf:about="">
        <dc:format>image/svg+xml</dc:format>
        <dc:type
           rdf:resource="http://purl.org/dc/dcmitype/StillImage" />
        <dc:title></dc:title>
      </cc:Work>
    </rdf:RDF>
  </metadata>
  <defs
     id="defs5">
    <linearGradient
       x1="0"
       y1="22"
       x2="74"
       y2="22"
       id="linearGradient2431"
       xlink:href="#linearGradient3166"
       gradientUnits="userSpaceOnUse"
       gradientTransform="matrix(0.3333,0,0,0.3333,27.031478,32.193732)" />
    <linearGradient
       x1="0"
       y1="22"
       x2="74"
       y2="22"
       id="linearGradient2428"
       xlink:href="#linearGradient3166"
       gradientUnits="userSpaceOnUse"
       gradientTransform="matrix(0.3333,0,0,0.3333,27.031478,45.064925)" />
    <linearGradient
       x1="0"
       y1="22"
       x2="74"
       y2="22"
       id="linearGradient3172"
       xlink:href="#linearGradient3166"
       gradientUnits="userSpaceOnUse" />
    <linearGradient
       id="linearGradient3166">
      <stop
         id="stop3168"
         style="stop-color:#ffffff;stop-opacity:1"
         offset="0" />
      <stop
         id="stop3170"
         style="stop-color:#ffff00;stop-opacity:1"
         offset="1" />
    </linearGradient>
    <linearGradient
       x1="0"
       y1="22"
       x2="74"
       y2="22"
       id="linearGradient2557"
       xlink:href="#linearGradient3166"
       gradientUnits="userSpaceOnUse"
       gradientTransform="matrix(0.3333,0,0,0.3333,9.2560985,9.9123239)" />
    <linearGradient
       x1="0"
       y1="22"
       x2="74"
       y2="22"
       id="linearGradient2561"
       xlink:href="#linearGradient3166"
       gradientUnits="userSpaceOnUse"
       gradientTransform="matrix(0.3333,0,0,0.3333,8.962951,22.783517)" />
    <linearGradient
       x1="0"
       y1="22"
       x2="74"
       y2="22"
       id="linearGradient2461"
       xlink:href="#linearGradient3166"
       gradientUnits="userSpaceOnUse"
       gradientTransform="matrix(0.3333,0,0,0.3333,27.031478,32.193732)" />
    <linearGradient
       x1="0"
       y1="22"
       x2="74"
       y2="22"
       id="linearGradient2463"
       xlink:href="#linearGradient3166"
       gradientUnits="userSpaceOnUse"
       gradientTransform="matrix(0.3333,0,0,0.3333,27.031478,45.064925)" />
  </defs>
  <rect
     width="55"
     height="55"
     rx="0"
     x="0"
     y="0"
     id="rect2839"
     style="fill:#ffd200;fill-opacity:1;fill-rule:evenodd;stroke:none" />
  <g
     id="g3799">
    <polygon
       points="20.555,2.531 26.891,12.363 17.238,16.369 14.659,4.975 "
       transform="matrix(0.64,0,0,0.63959066,9.90448,9.9400384)"
       id="polygon5"
       style="fill:#ff0000;fill-opacity:1" />
    <polygon
       points="52.477,20.55 42.646,26.88 38.649,17.228 50.04,14.654 "
       transform="matrix(0.64,0,0,0.63959066,9.90448,9.9400384)"
       id="polygon7"
       style="fill:#ff0000;fill-opacity:1" />
    <polygon
       points="34.453,52.471 28.117,42.645 37.775,38.645 40.349,50.029 "
       transform="matrix(0.64,0,0,0.63959066,9.90448,9.9400384)"
       id="polygon9"
       style="fill:#ff0000;fill-opacity:1" />
    <polygon
       points="40.295,4.882 37.824,16.315 28.171,12.309 34.394,2.439 "
       transform="matrix(0.64,0,0,0.63959066,9.90448,9.9400384)"
       id="polygon11"
       style="fill:#ff0000;fill-opacity:1" />
    <polygon
       points="50.055,40.258 38.628,37.791 42.623,28.139 52.493,34.365 "
       transform="matrix(0.64,0,0,0.63959066,9.90448,9.9400384)"
       id="polygon13"
       style="fill:#ff0000;fill-opacity:1" />
    <polygon
       points="4.953,40.234 16.385,37.76 12.391,28.105 2.515,34.34 "
       transform="matrix(0.64,0,0,0.63959066,9.90448,9.9400384)"
       id="polygon15"
       style="fill:#ff0000;fill-opacity:1" />
    <polygon
       points="2.493,20.539 12.319,26.875 16.32,17.216 4.936,14.643 "
       transform="matrix(0.64,0,0,0.63959066,9.90448,9.9400384)"
       id="polygon17"
       style="fill:#ff0000;fill-opacity:1" />
    <polygon
       points="20.609,52.461 26.939,42.623 17.287,38.629 14.719,50.018 "
       transform="matrix(0.64,0,0,0.63959066,9.90448,9.9400384)"
       id="polygon19"
       style="fill:#ff0000;fill-opacity:1" />
    <path
       d="m 35.45648,24.236169 c 1.8208,4.389511 -0.26368,9.419891 -4.65536,11.240166 -4.39488,1.822833 -9.42976,-0.267349 -11.24992,-4.65686 -1.8176,-4.388871 0.26752,-9.423089 4.65856,-11.238887 4.39168,-1.819635 9.42976,0.26671 11.24672,4.655581 z"
       id="path21"
       style="fill:none;stroke:#ff0000;stroke-width:7.48202181;stroke-opacity:1" />
  </g>
</svg>
