<?xml version="1.0" encoding="UTF-8" standalone="no"?> 
 <svg 
    xmlns="http://www.w3.org/2000/svg" 
    xmlns:xlink="http://www.w3.org/1999/xlink" 
    width="87" 
    height="81" 
    version="1.0"> 
   <defs> 
     <linearGradient 
        id="linearGradient3166"> 
       <stop 
          style="stop-color:#ffffff;stop-opacity:1;" 
          offset="0" 
          id="stop3168" /> 
       <stop 
          style="stop-color:#00ffff;stop-opacity:1;" 
          offset="1" 
          id="stop3170" /> 
     </linearGradient> 
     <linearGradient 
        xlink:href="#linearGradient3166" 
        id="linearGradient3172" 
        x1="0" 
        y1="22" 
        x2="74" 
        y2="22" 
        gradientUnits="userSpaceOnUse" /> 
   </defs> 
   <path 
      style="fill:#00e0e0;fill-opacity:1;stroke:#008080;stroke-width:1.5;stroke-opacity:1" 
      d="M 69.75,42.75 L 86.25,42.75 L 86.25,49 L 82.25,49 L 82.25,45.75 L 71.75,45.75" /> 
   <path 
      style="fill:#00e0e0;fill-opacity:1;stroke:#008080;stroke-width:1.5;stroke-opacity:1" 
      d="M 69.75,70.25 L 86.25,70.25 L 86.25,64.249999 L 82.25,64.249999 L 82.25,67.249999 L 71.75,67.249999" /> 
   <path 
      style="fill:#00e0e0;fill-opacity:1;stroke:#008080;stroke-width:1.5;stroke-opacity:1" 
      d="M 70,6 L 86.5,6 L 86.5,12 L 82.5,12 L 82.5,9 L 72,9" /> 
   <path 
      style="fill:#00e0e0;fill-opacity:1;stroke:#008080;stroke-width:1.5;stroke-opacity:1" 
      d="M 70,33.5 L 86.5,33.5 L 86.5,27.5 L 82.5,27.5 L 82.5,30.5 L 72,30.5" /> 
   <path 
      style="fill:url(#linearGradient3172);fill-opacity:1;stroke:#00a0a0;stroke-width:2;stroke-opacity:1" 
      d="M 48,1 C 64,1 64,1 64,1 L 69.5,5 L 73,11 L 73,67 L 69.5,72 L 64,76 L 47,76 L 47,76 L 47,80 L 27,80 L 27,76 L 10,76 L 4.5,72 L 1,67 L 1,11 L 4.5,5 L 10,1 L 26,1 L 26,6 L 48,6 L 48,1 z" /> 
   <text 
      style="font-size:18px;text-anchor:middle;text-align:center;font-family:Bitstream Vera Sans"> 
      <tspan 
        x="37" 
        y="38" 
        style="font-size:16px;">encher</tspan><tspan 
        x="37" 
        y="54" 
        style="font-size:16px;">o ecrã</tspan></text> 
   <text 
      style="font-size:12px;text-anchor:end;text-align:end;font-family:Bitstream Vera Sans"> 
      <tspan 
        x="68" 
        y="22" 
        style="font-size:14px">cor</tspan></text> 
   <text 
      style="font-size:12px;text-anchor:end;text-align:end;font-family:Bitstream Vera Sans"> 
      <tspan 
        x="68" 
        y="66" 
        style="font-size:14px">tom</tspan></text> 
 </svg> 
 
