<?xml version="1.0" encoding="UTF-8" standalone="no"?>
<!-- Created with Inkscape (http://www.inkscape.org/) -->
<svg
   xmlns:svg="http://www.w3.org/2000/svg"
   xmlns="http://www.w3.org/2000/svg"
   xmlns:xlink="http://www.w3.org/1999/xlink"
   version="1.0"
   width="95"
   height="89"
   id="svg2">
  <defs
     id="defs5">
    <linearGradient
       id="linearGradient3166">
      <stop
         id="stop3168"
         style="stop-color:#ffffff;stop-opacity:1"
         offset="0" />
      <stop
         id="stop3170"
         style="stop-color:#00ff00;stop-opacity:1"
         offset="1" />
    </linearGradient>
    <linearGradient
       x1="66"
       y1="23"
       x2="203"
       y2="23"
       id="linearGradient4362"
       xlink:href="#linearGradient3166"
       gradientUnits="userSpaceOnUse"
       gradientTransform="matrix(0.9988658,0,0,1.0058014,-66.475849,-24.253309)" />
 </defs>
  <path
     d="M 64.5,0.75 L 47.75,0.75 L 47.75,4.75 L 25.75,4.75 L 25.75,0.75 L 10,0.720588 C 10,0.720588 6.1158487,3.358664 4.75,4.75 C 3.665741,5.85449 1,10.75 1,10.75 L 1,77.99 C 1,77.99 1.6401315,81.31861 2.4999613,81.995 C 3.3305948,82.64842 6.999845,84.25 6.999845,84.25 L 27,84.25 L 27,88 L 47,88 L 47,84.25 L 94,84.25 L 94,8.75 L 70,8.75 L 67.5,3.75 L 64.5,0.75 z"
     id="path2480"
     style="opacity:1;fill:url(#linearGradient4362);fill-opacity:1;fill-rule:evenodd;stroke:#00a000;stroke-width:2;stroke-linecap:butt;stroke-linejoin:miter;stroke-miterlimit:4;stroke-dasharray:none;stroke-opacity:1" />
  <path
     d="M 10.75,20.802425 L 83.804575,20.802425 L 83.804575,73.25 L 10.75,73.25 L 10.75,20.802425 z"
     id="path3264"
     style="fill:#ffffff;fill-opacity:1;fill-rule:nonzero;stroke:#00a000;stroke-width:1.5;stroke-linecap:butt;stroke-linejoin:miter;stroke-miterlimit:4;stroke-dasharray:none;stroke-opacity:1" />
</svg>
