<?xml version="1.0" encoding="UTF-8" standalone="no"?>
<!-- Created with Inkscape (http://www.inkscape.org/) -->

<svg
   xmlns:dc="http://purl.org/dc/elements/1.1/"
   xmlns:cc="http://creativecommons.org/ns#"
   xmlns:rdf="http://www.w3.org/1999/02/22-rdf-syntax-ns#"
   xmlns:svg="http://www.w3.org/2000/svg"
   xmlns="http://www.w3.org/2000/svg"
   xmlns:xlink="http://www.w3.org/1999/xlink"
   version="1.1"
   width="40"
   height="40"
   id="svg2">
  <metadata
     id="metadata8">
    <rdf:RDF>
      <cc:Work
         rdf:about="">
        <dc:format>image/svg+xml</dc:format>
        <dc:type
           rdf:resource="http://purl.org/dc/dcmitype/StillImage" />
        <dc:title></dc:title>
      </cc:Work>
    </rdf:RDF>
  </metadata>
  <defs
     id="defs6">
    <linearGradient
       id="linearGradient4859">
      <stop
         id="stop4861"
         style="stop-color:#f3c82f;stop-opacity:1"
         offset="0" />
      <stop
         id="stop4863"
         style="stop-color:#c7cc0d;stop-opacity:0.71005917"
         offset="1" />
    </linearGradient>
    <radialGradient
       cx="20"
       cy="22.0054"
       r="17.905176"
       fx="20"
       fy="22.0054"
       id="radialGradient4865"
       xlink:href="#linearGradient4859"
       gradientUnits="userSpaceOnUse"
       gradientTransform="matrix(1,0,0,1.0128544,0,-0.28286592)" />
  </defs>
  <path
     d="M 2.8423602,20.93147 C 2.1547652,16.572675 3.9141738,11.42694 7.2101034,8.4928762 10.010828,5.999648 14.835534,6.3334219 18.535756,5.4449178 c 2.063224,-0.4954252 5.89215,-1.2944166 7.964778,-0.8399407 3.700431,0.8114119 5.734284,2.5351576 8.309235,5.8848849 1.420067,1.84735 2.150096,5.019317 2.436913,7.331681 0.748324,6.033077 -5.905827,17.327084 -7.25296,18.473656 -1.736249,1.477754 -5.900889,1.893235 -8.440436,3.043768 -1.376908,0.623805 -6.433479,-0.350352 -7.851868,-0.873018 C 11.014807,37.475951 4.0628066,28.668111 2.8423602,20.93147 z"
     id="path2987"
     style="fill:url(#radialGradient4865);fill-opacity:1;stroke:#000000;stroke-width:1.20000005;stroke-linecap:butt;stroke-linejoin:miter;stroke-miterlimit:4;stroke-opacity:1;stroke-dasharray:none" />
  <path
     d="m 13.165075,9.064776 c 0,0 3.185205,1.238426 4.853741,1.266193 2.405805,0.04004 6.89372,-1.6882574 6.89372,-1.6882574"
     id="path3757"
     style="fill:none;stroke:#000000;stroke-width:1.19999993;stroke-linecap:butt;stroke-linejoin:miter;stroke-miterlimit:4;stroke-opacity:1;stroke-dasharray:none" />
  <path
     d="m 18.229848,10.190281 c 0,0 1.427526,-8.0318199 4.079958,-9.63713776 0.592367,-0.3585161 1.485837,0.3833923 1.828945,0.98481706 0.290708,0.5095775 0.403723,1.4129992 -0.07034,1.7586019 -0.35397,0.2580493 -0.982736,-0.6856895 -1.266194,-0.3517205 -0.882134,1.039326 -2.602731,6.753031 -2.602731,6.753031"
     id="path3759"
     style="fill:#453100;fill-opacity:1;stroke:#000000;stroke-width:1.19999993;stroke-linecap:butt;stroke-linejoin:miter;stroke-miterlimit:4;stroke-opacity:1;stroke-dasharray:none" />
</svg>
