<?xml version="1.0" encoding="UTF-8" standalone="no"?>
<!-- Created with Inkscape (http://www.inkscape.org/) -->

<svg
   xmlns:dc="http://purl.org/dc/elements/1.1/"
   xmlns:cc="http://creativecommons.org/ns#"
   xmlns:rdf="http://www.w3.org/1999/02/22-rdf-syntax-ns#"
   xmlns:svg="http://www.w3.org/2000/svg"
   xmlns="http://www.w3.org/2000/svg"
   version="1.1"
   width="55.275047"
   height="14.444887"
   id="svg2">
  <metadata
     id="metadata8">
    <rdf:RDF>
      <cc:Work
         rdf:about="">
        <dc:format>image/svg+xml</dc:format>
        <dc:type
           rdf:resource="http://purl.org/dc/dcmitype/StillImage" />
        <dc:title></dc:title>
      </cc:Work>
    </rdf:RDF>
  </metadata>
  <defs
     id="defs6" />
  <g
     transform="translate(20.824543,-16.810615)"
     id="g4572">
    <path
       d="m -20.006705,24.084801 c -0.298654,-1.893224 -0.470424,-2.724307 0.961147,-3.998705 1.216484,-1.082923 5.2425,-1.873914 6.849676,-2.259832 0.896153,-0.215186 10.9522441,-0.365637 13.6380767,-0.423322 1.6450735,-0.03533 13.1810673,0.611148 15.0161423,0.625649 13.561667,0.107166 10.059534,5.222002 10.067117,7.513318 0.0087,2.640508 0.301217,3.899086 -1.453858,4.806579 C 24.191932,30.803334 9.5805664,30.761322 5.7281309,30.091096 5.081279,29.97856 -8.6487784,28.944461 -9.2648502,28.717443 -10.431768,28.287442 -19.476607,27.445178 -20.006705,24.084801 z"
       id="path2987-0"
       style="fill:#ffb208;fill-opacity:1;stroke:#000000;stroke-width:1.20000005;stroke-linecap:round;stroke-linejoin:miter;stroke-miterlimit:4;stroke-opacity:1;stroke-dasharray:none" />
    <path
       d="m 26.586361,27.595154 c 0,0 0.677917,1.587192 0.827829,1.333724 0.126315,-0.213573 0.88813,-0.268324 2.161553,-0.505895 0.338658,-0.06318 0.216445,-0.952317 0.551884,-0.873819 1.313747,0.307434 3.12735,0.505895 3.357302,0.137971 0.229953,-0.367923 0.67616,-1.29339 0.597876,-1.97759 -0.09446,-0.825558 -0.545801,-1.70753 -1.241743,-2.161551 -0.723123,-0.471755 -1.705348,0.110165 -2.3915,-0.413914 -0.300897,-0.229825 -0.274904,-0.722207 -0.597876,-0.91981 -0.394259,-0.241219 -1.195754,0.183962 -1.379715,0.137972 -0.183962,-0.04599 -1.683636,-0.932579 -1.655655,-0.367924 0.105264,2.124179 -0.183964,5.886779 -0.183964,5.886779 l 0,0"
       id="path3833"
       style="fill:#a0823f;fill-opacity:1;stroke:#000000;stroke-width:0.69677502;stroke-linecap:butt;stroke-linejoin:miter;stroke-miterlimit:4;stroke-opacity:1;stroke-dasharray:none" />
    <path
       d="m -15.038908,22.790653 c 0.292489,-0.52648 0.52648,-1.111457 1.228453,-1.637937 0.292489,0.0975 0.584977,0.194993 0.877466,0.292489 0.233991,0.175493 0.467982,0.350986 0.701973,0.52648 0.370486,-0.0585 0.740972,-0.116996 1.111457,-0.175494 0.389985,0.078 0.77997,0.155994 1.1699553,0.233991 0.3119881,-0.0195 0.623976,-0.039 0.9359641,-0.0585 0.2534902,0.039 0.5069806,0.078 0.7604707,0.116995 0.2729896,0.136495 0.5459789,0.27299 0.8189685,0.409484 0.2729895,-0.0975 0.5459791,-0.194992 0.8189687,-0.292488 0.3293617,-0.429376 1.0199357,0.165237 1.2869504,0.175493 0.3509864,0 1.2284528,-0.233991 1.2284528,-0.233991 0.6044768,-0.0195 0.7409716,0.0195 1.3454482,0 0,0 0.4094843,0.350986 0.9359641,0.350986 0.5264797,0 1.63793698,0.0585 1.63793698,0.0585 0,0 0.93596402,0.233991 1.46244382,0.350987 0.5264798,0.116995 1.5794393,-0.233991 1.5794393,-0.233991 0,0 1.2869504,0.0585 1.5794391,0.0585 0.2924888,0 0.8774664,-0.350986 0.8774664,-0.350986 0.3509864,0.136495 0.7019731,0.272989 1.0529595,0.409484 0.2534901,-0.0195 0.5069806,-0.039 0.7604707,-0.0585 0,0 0.8774664,0.292489 1.1114574,0.233991 0.2339908,-0.0585 1.871928,-0.116995 1.871928,-0.116995 0.604477,0.078 1.208953,0.155994 1.81343,0.233991 0.662975,-0.039 1.325949,-0.078 1.988924,-0.116996 0.701973,0 1.403946,0 2.105919,0 0,0 1.052959,-0.526479 1.28695,-0.350986 0.233991,0.175493 1.403946,0.467982 1.81343,0.52648 0.409485,0.0585 1.345449,-0.116996 1.345449,-0.116996 0,0 1.637937,0.350987 1.988923,0.350987 0.350987,0 1.111458,-0.292489 1.403946,-0.233991 0.292489,0.0585 2.281413,-0.116996 2.281413,-0.116996 0.136494,0.078 0.27299,0.155994 0.409484,0.233991"
       id="path3819"
       style="fill:none;stroke:#dd9800;stroke-width:0.69677502;stroke-linecap:butt;stroke-linejoin:miter;stroke-miterlimit:4;stroke-opacity:1;stroke-dasharray:none" />
    <path
       d="m -13.927451,21.094218 c 0,-0.448482 -0.190962,-0.939652 0,-1.345448 0.16121,-0.342571 0.56176,-0.585905 0.935964,-0.643475 0.235251,-0.03619 0.363442,0.322452 0.584978,0.409484 0.33465,0.13147 0.709778,0.126747 1.052959,0.233991 0.283485,0.08859 0.522142,0.340751 0.818969,0.350987 0.308127,0.01063 0.570422,-0.320402 0.877466,-0.292489 0.19224,0.01748 0.2164517,0.409484 0.4094844,0.409484 0.287903,0 0.4781586,-0.465947 0.7604707,-0.409484 0.3244871,0.0649 0.3784053,0.632637 0.7019731,0.701973 0.325807,0.06982 0.6104576,-0.279782 0.9359641,-0.350987 0.3053756,-0.0668 0.6313725,-0.128788 0.9359638,-0.0585 0.2319233,0.05352 0.3471835,0.419823 0.5849776,0.409484 0.2973621,-0.01293 0.4628278,-0.467982 0.7604708,-0.467982 0.1744065,0 0.059782,0.459686 0.233991,0.467982 0.3580836,0.01705 0.6371141,-0.380897 0.9944618,-0.409484 0.1833697,-0.01467 0.2882249,0.331566 0.467982,0.292488 0.3435045,-0.07467 0.5273822,-0.553151 0.8774662,-0.584977 0.2064286,-0.01877 0.2101797,0.235545 0.4094843,0.292489 0.2651508,0.07576 0.5453369,0.02429 0.81896847,0.0585 0.08653,0.01082 0.0297921,0.233991 0.1169955,0.233991 0.28391341,0 0.54641161,-0.313486 0.81896851,-0.233991 0.27828206,0.08117 0.29753526,0.605983 0.58497752,0.643476 0.295143,0.0385 0.4641684,-0.496202 0.7604707,-0.467982 0.2485875,0.02368 0.2235188,0.534047 0.467982,0.584977 0.3199964,0.06667 0.60999,-0.316635 0.9359641,-0.292489 0.2535445,0.01878 0.3895237,0.397392 0.6434753,0.409485 0.227141,0.01082 0.357579,-0.350987 0.5849774,-0.350987 0.4071563,0 0.7634258,0.328402 1.1699551,0.350987 0.321095,0.01784 0.6197504,-0.292549 0.9359641,-0.233991 0.2725031,0.05046 0.3666003,0.514441 0.6434751,0.526479 0.2809567,0.01222 0.4207508,-0.467982 0.7019731,-0.467982 0.2206087,0 0.2481353,0.486303 0.467982,0.467982 0.3666402,-0.03055 0.5682571,-0.57272 0.9359641,-0.584977 0.324352,-0.01081 0.5025063,0.454556 0.8189684,0.52648 0.1700695,0.03865 0.2980418,-0.273208 0.4679818,-0.233991 0.163444,0.03772 0.12475,0.409484 0.292489,0.409484 0.32277,0 0.554864,-0.399078 0.877466,-0.409484 0.33303,-0.01074 0.602761,0.350986 0.935964,0.350986 0.152294,0 0.140951,-0.36614 0.292489,-0.350986 0.329842,0.03298 0.54834,0.428486 0.877466,0.467982 0.216456,0.02597 0.367452,-0.277987 0.584978,-0.292489 0.124579,-0.0083 0.167788,0.240226 0.292489,0.233991 0.307925,-0.0154 0.569886,-0.313701 0.877466,-0.292489 0.304488,0.021 0.514283,0.391562 0.818968,0.409484 0.401294,0.02361 0.771494,-0.345617 1.169955,-0.292488 0.260035,0.03467 0.323628,0.549205 0.584978,0.526479 0.330811,-0.02877 0.434859,-0.578352 0.76047,-0.643475 0.338818,-0.06776 0.648935,0.292489 0.994462,0.292489 0.345528,0 0.65339,-0.23718 0.994462,-0.292489 0.385437,-0.0625 0.782056,-0.103255 1.169955,-0.0585 0.139684,0.01612 0.212515,0.258427 0.350987,0.233991 0.25037,-0.04418 0.390418,-0.384994 0.643475,-0.409484 0.395859,-0.03831 0.781229,0.149942 1.169955,0.233991 0.332848,0.07197 0.705683,0.05351 0.994461,0.233991 0.215594,0.134747 0.182087,0.529776 0.409486,0.643475 0.26161,0.130805 0.584977,0 0.877465,0"
       id="path3821"
       style="fill:none;stroke:#dd9800;stroke-width:0.69677502;stroke-linecap:butt;stroke-linejoin:miter;stroke-miterlimit:4;stroke-opacity:1;stroke-dasharray:none" />
    <path
       d="m -15.126988,22.766156 c 0,0 0.670122,0.914686 1.149761,0.873819 0.313413,-0.0267 0.329371,-0.69565 0.643867,-0.689857 0.304243,0.0056 0.317846,0.570782 0.597876,0.689857 0.268416,0.114138 0.607699,-0.165387 0.873818,-0.04599 0.17912,0.08036 0.186546,0.384775 0.367924,0.459904 0.256507,0.106249 0.558644,-0.159982 0.827828,-0.09198 0.235009,0.05937 0.356704,0.389637 0.597876,0.413914 0.2323282,0.02339 0.4121985,-0.305147 0.6438669,-0.275942 0.249459,0.03145 0.3473377,0.438709 0.597876,0.459904 0.2938317,0.02486 0.4880736,-0.439557 0.7818378,-0.413914 0.1741285,0.0152 0.24329,0.283996 0.4139142,0.321933 0.3376195,0.07507 0.6770813,-0.317084 1.0117902,-0.229952 0.199594,0.05196 0.2555236,0.386241 0.4599047,0.413914 0.2717543,0.0368 0.4666566,-0.420276 0.7358473,-0.367924 0.3411665,0.06635 0.3422982,0.781838 0.689857,0.781838 0.3475588,0 0.3428729,-0.761864 0.6898571,-0.781838 0.4118104,-0.0237 0.5091217,0.789284 0.9198092,0.827829 0.4999677,0.04692 0.7881454,-0.832651 1.2877329,-0.781838 0.2913789,0.02964 0.3514737,0.580953 0.6438665,0.597876 0.2846809,0.01648 0.40552981,-0.527638 0.68985696,-0.505895 0.21616995,0.01653 0.24722516,0.417831 0.45990464,0.459905 0.19550324,0.03868 0.35404727,-0.25398 0.55188555,-0.229953 0.43525483,0.05286 0.62128115,0.823182 1.05778065,0.781838 0.2700096,-0.02557 0.2830767,-0.561806 0.5518857,-0.597876 0.1433395,-0.01923 0.2237623,0.218389 0.3679236,0.229952 0.3150275,0.02527 0.5774104,-0.477572 0.8738189,-0.367923 0.09645,0.03568 0.043839,0.234533 0.1379713,0.275942 0.3064729,0.134818 0.6593267,-0.41076 0.9657996,-0.275942 0.1568875,0.06902 0.074738,0.387205 0.2299524,0.459904 0.2424531,0.113559 0.5159162,-0.215023 0.7818378,-0.183962 0.170239,0.01989 0.2887077,0.221688 0.4599047,0.229953 0.4265519,0.02059 0.8043625,-0.630741 1.195752,-0.459905 0.1513239,0.06605 0.037378,0.383913 0.1839618,0.459905 0.293799,0.15231 0.6417886,-0.29728 0.9657999,-0.229953 0.1500953,0.03119 0.2202548,0.23477 0.3679237,0.275943 0.2968108,0.08276 0.6229983,-0.174738 0.9198091,-0.09198 0.1476692,0.04117 0.2168014,0.250187 0.3679239,0.275943 0.301109,0.05132 0.573171,-0.329901 0.873819,-0.275943 0.172042,0.03088 0.240959,0.296665 0.413914,0.321934 0.292964,0.0428 0.536722,-0.375948 0.827828,-0.321934 0.224075,0.04158 0.283985,0.408003 0.505895,0.459905 0.326018,0.07625 0.636546,-0.215171 0.9658,-0.275943 0.348045,-0.06424 0.730127,-0.22579 1.057781,-0.09198 0.130846,0.05344 0.138968,0.28709 0.275943,0.321933 0.333869,0.08493 0.621298,-0.367026 0.965799,-0.367923 0.261961,-6.7e-4 0.474658,0.296044 0.735848,0.275943 0.280594,-0.0216 0.454506,-0.407057 0.735847,-0.413915 0.137076,-0.0033 0.231873,0.166895 0.367924,0.183962 0.358023,0.04491 0.719654,-0.35592 1.05778,-0.229952 0.215485,0.08028 0.193917,0.484961 0.413915,0.551885 0.310778,0.09454 0.601549,-0.256881 0.919809,-0.321933 0.451588,-0.0923 0.920518,-0.05209 1.379714,-0.09198 0.430081,-0.03736 1.057781,-0.229952 1.287733,-0.137971 0.229952,0.09198 0.342409,0.283498 0.551885,0.321933 0.275156,0.05049 0.557829,-0.211185 0.827827,-0.137971 0.346678,0.09401 0.46888,0.676482 0.827829,0.689857 0.263566,0.0098 0.384746,-0.410706 0.643867,-0.459905 0.186294,-0.03537 0.551887,0.137971 0.551887,0.137971"
       id="path3823"
       style="fill:none;stroke:#dd9800;stroke-width:0.69677502;stroke-linecap:butt;stroke-linejoin:miter;stroke-miterlimit:4;stroke-opacity:1;stroke-dasharray:none" />
    <path
       d="m -15.494912,23.823937 0.505895,1.287733 0.873819,-0.229952 1.195752,0.643866 1.425704,0 1.6556567,0.459905 1.1497615,0.275942 1.2417425,0 1.2417426,0.367924 1.195752,-0.04599 1.379714,0.183961 1.4257043,-0.04599 0.8278284,0.229953 1.42570431,0.09198 1.05778069,0.04599 1.1497616,0.04599 1.195752,0.09198 1.3797138,-0.137971 1.1497617,0.229952 1.3797139,-0.09198 1.2417425,0.229952 1.2417425,-0.04599 1.379714,0.04599 1.241742,0.137972 0.597876,0.09198 0.91981,-0.229953 1.01179,0.04599 1.425704,0.183962 c 0,0 0.09198,-0.321934 0.367924,-0.275943 0.275943,0.04599 1.149762,0.137972 1.149762,0.137972 l 1.05778,0 1.011791,0.229952 c 0,0 0.735847,-0.137972 0.919809,-0.09198 0.183961,0.04599 1.01179,-0.04599 1.01179,-0.04599 l 1.149762,-0.09198 1.793628,0.09198 0.781838,0"
       id="path3825"
       style="fill:none;stroke:#dd9800;stroke-width:0.69677502;stroke-linecap:butt;stroke-linejoin:miter;stroke-miterlimit:4;stroke-opacity:1;stroke-dasharray:none" />
    <path
       d="m -14.943027,25.11167 c 0,0 -0.01334,1.472398 0.505895,1.839619 0.35135,0.248484 0.857869,-0.112166 1.287733,-0.09198 0.279442,0.01312 0.551886,0.09198 0.827829,0.137972 0.459904,0.07665 0.957258,0.03267 1.379714,0.229952 0.256123,0.119606 0.413914,0.505895 0.643866,0.551886 0.229952,0.04599 0.3359963,-0.114588 0.5058953,-0.09198 0.3534549,0.04703 0.61595,0.391002 0.9657996,0.459905 0.2711594,0.0534 0.5518855,-0.09198 0.8278284,-0.04599 0.2759428,0.04599 0.9823869,0.08012 1.4716948,0.137971 0.430603,0.05091 0.8579673,0.126409 1.2877328,0.183962 0.4900084,0.06562 0.9793098,0.139564 1.4716949,0.183962 0.5505032,0.04964 1.1031329,0.07664 1.6556568,0.09198 0.2758365,0.0077 0.6438664,0 0.8278283,0 0.1839618,0 0.8544126,0.205625 1.28773297,0.275943 0.41108377,0.06671 0.82552907,0.123603 1.24174253,0.137971 0.3680237,0.01271 0.7355289,-0.04669 1.1037712,-0.04599 0.337611,6.45e-4 0.6763802,0.0075 1.0117902,0.04599 0.4182065,0.048 0.8209488,0.218423 1.2417425,0.229953 0.4789948,0.01312 0.9475157,-0.153239 1.4257043,-0.183962 0.351868,-0.02261 0.7245549,-0.115251 1.0577807,0 0.257953,0.08922 0.3714583,0.488772 0.6438663,0.505895 0.3568533,0.02243 0.5627732,-0.532585 0.9198094,-0.551886 0.2191744,-0.01185 0.3808438,0.243158 0.597876,0.275943 0.229385,0.03465 0.458379,-0.07662 0.689857,-0.09198 0.290633,-0.01929 0.582574,0.004 0.873819,0 0.552045,-0.0077 1.112122,-0.142859 1.655656,-0.04599 0.243825,0.04346 0.447474,0.225063 0.689857,0.275943 0.450345,0.09454 0.91981,0.03066 1.379714,0.04599 0.459905,0.01533 0.919554,0.04599 1.379714,0.04599 0.46016,0 0.936251,0.07684 1.379714,-0.04599 0.152107,-0.04213 0.257331,-0.210124 0.413914,-0.229952 0.361507,-0.04578 0.6987,0.213949 1.057781,0.275942 0.348765,0.06021 0.707975,0.03815 1.057781,0.09198 0.419077,0.0645 1.241742,0.275943 1.241742,0.275943 0,0 0.229952,-0.459905 0.413914,-0.413914 0.183962,0.04599 0.790548,0.206414 1.195752,0.229952 0.41435,0.02407 0.830797,-0.03377 1.241743,-0.09198 0.294716,-0.04175 0.587366,-0.103059 0.873818,-0.183962 0.21932,-0.06194 0.643867,-0.229952 0.643867,-0.229952"
       id="path3827"
       style="fill:none;stroke:#dd9800;stroke-width:0.69677502;stroke-linecap:butt;stroke-linejoin:miter;stroke-miterlimit:4;stroke-opacity:1;stroke-dasharray:none" />
    <path
       d="m -12.27558,19.040929 c 0,0 0.753666,-0.01587 1.103771,-0.137972 0.389753,-0.135931 0.645085,-0.635675 1.057781,-0.643866 0.4734075,-0.0094 0.7691757,0.719585 1.2417424,0.689857 0.2845948,-0.0179 0.4098065,-0.45217 0.689857,-0.505895 0.4199409,-0.08056 0.8235854,0.411293 1.2417426,0.321933 0.1919868,-0.04103 0.2699213,-0.318441 0.4599046,-0.367924 0.5414347,-0.14102 1.0966021,0.253669 1.6556565,0.275943 0.5380959,0.02144 1.0848789,-0.01712 1.6096663,-0.137972 0.2080783,-0.04792 0.3879399,-0.190971 0.597876,-0.229952 0.5727564,-0.106348 1.1662175,-0.0362 1.74763766,0 0.49342727,0.03072 0.98416458,0.101935 1.47169483,0.183962 0.50998341,0.08581 1.00335571,0.267983 1.51768541,0.321933 0.3964092,0.04158 0.7985261,-0.03288 1.195752,0 0.3717277,0.03076 0.7345417,0.131068 1.1037709,0.183962 0.3821025,0.05474 0.7660721,0.09577 1.1497618,0.137972 0.3062852,0.03369 0.6118465,0.08176 0.9198091,0.09198 0.4599069,0.01526 0.9202981,-0.07215 1.3797141,-0.04599 0.417755,0.02379 0.9657996,0.183962 1.2417425,0.183962 0.2759426,0 0.7345847,0.08892 1.1037713,0.09198 0.460909,0.0038 0.918814,-0.08711 1.379714,-0.09198 0.337592,-0.0036 0.674404,0.03364 1.01179,0.04599 0.551729,0.0202 1.104463,0.0144 1.655657,0.04599 0.353344,0.02025 0.703863,0.09427 1.05778,0.09198 0.462189,-0.003 0.917523,-0.140511 1.379714,-0.137972 0.277637,0.0015 0.597876,0.04599 0.827828,0.09198 0.229953,0.04599 0.796877,0.04437 1.195752,0.04599 0.506124,0.0021 1.011967,-0.06632 1.517686,-0.04599 0.693542,0.02788 1.376531,0.191569 2.06957,0.229953 0.443895,0.02458 0.891804,-0.04851 1.333724,0 0.42148,0.04627 0.915344,0.0053 1.241743,0.275942 0.179747,0.149045 0.15154,0.446262 0.275941,0.643867 0.08682,0.137909 0.219318,0.241328 0.321935,0.367924 0.04827,0.05954 0.137971,0.183961 0.137971,0.183961"
       id="path3831"
       style="fill:none;stroke:#dd9800;stroke-width:0.69677502;stroke-linecap:butt;stroke-linejoin:miter;stroke-miterlimit:4;stroke-opacity:1;stroke-dasharray:none" />
    <path
       d="m -15.402931,24.053889 c 0,0 -1.160926,0.584138 -1.609667,0.275943 -0.451047,-0.309779 0.186195,-1.406657 -0.321933,-1.609666 -0.470004,-0.187779 -0.740668,0.945159 -1.241742,0.873819 -0.291543,-0.04151 -0.439726,-0.417571 -0.551886,-0.689857 -0.164422,-0.399163 -0.408973,-0.951692 -0.137971,-1.287733 0.271001,-0.336042 0.97152,0.155925 1.287733,-0.137972 0.376632,-0.350054 -0.140047,-1.215455 0.275942,-1.517685 0.463061,-0.336428 1.537587,-0.318403 1.701648,0.229952 0.133931,0.44765 -0.997701,0.456433 -1.057781,0.91981 -0.05959,0.45962 0.505895,1.195752 0.781838,1.149761 0.275943,-0.04599 0.597485,-0.485537 0.735847,-0.827828 0.138005,-0.341406 -0.1074,-0.768996 0.04599,-1.103771 0.14005,-0.30566 0.431859,-0.546215 0.735847,-0.689857 0.321495,-0.151915 0.790582,-0.372582 1.057781,-0.137972 0.02304,0.02023 0,0.09198 0,0.09198"
       id="path3835"
       style="fill:none;stroke:#dd9800;stroke-width:0.69677502;stroke-linecap:butt;stroke-linejoin:miter;stroke-miterlimit:4;stroke-opacity:1;stroke-dasharray:none" />
    <path
       d="m -14.989017,25.15766 c 0,0 -1.097572,0.652712 -1.655657,0.505895 -0.408985,-0.107592 -0.45895,-1.001842 -0.873819,-0.919809 -0.499918,0.09885 -0.978879,1.147556 -0.551885,1.425704 0.01817,0.01183 0.04599,-0.04599 0.04599,-0.04599"
       id="path3837"
       style="fill:none;stroke:#dd9800;stroke-width:0.69677502;stroke-linecap:butt;stroke-linejoin:miter;stroke-miterlimit:4;stroke-opacity:1;stroke-dasharray:none" />
  </g>
</svg>
