<?xml version="1.0" encoding="UTF-8" standalone="no"?>
<!-- Created with Inkscape (http://www.inkscape.org/) -->

<svg
   xmlns:dc="http://purl.org/dc/elements/1.1/"
   xmlns:cc="http://creativecommons.org/ns#"
   xmlns:rdf="http://www.w3.org/1999/02/22-rdf-syntax-ns#"
   xmlns:svg="http://www.w3.org/2000/svg"
   xmlns="http://www.w3.org/2000/svg"
   xmlns:xlink="http://www.w3.org/1999/xlink"
   version="1.1"
   width="40"
   height="40"
   id="svg2">
  <metadata
     id="metadata8">
    <rdf:RDF>
      <cc:Work
         rdf:about="">
        <dc:format>image/svg+xml</dc:format>
        <dc:type
           rdf:resource="http://purl.org/dc/dcmitype/StillImage" />
        <dc:title></dc:title>
      </cc:Work>
    </rdf:RDF>
  </metadata>
  <defs
     id="defs6">
    <radialGradient
       cx="32.004715"
       cy="38.321983"
       r="25.510496"
       fx="32.004715"
       fy="38.321983"
       id="radialGradient3844"
       xlink:href="#linearGradient3838"
       gradientUnits="userSpaceOnUse"
       gradientTransform="matrix(1,0,0,1.090071,0,-3.4517012)" />
    <linearGradient
       id="linearGradient3838">
      <stop
         id="stop3840"
         style="stop-color:#d1d29c;stop-opacity:1"
         offset="0" />
      <stop
         id="stop3842"
         style="stop-color:#a09049;stop-opacity:1"
         offset="1" />
    </linearGradient>
    <radialGradient
       cx="32.004715"
       cy="38.321983"
       r="25.510496"
       fx="32.004715"
       fy="38.321983"
       id="radialGradient4484"
       xlink:href="#linearGradient3838"
       gradientUnits="userSpaceOnUse"
       gradientTransform="matrix(0.73719119,0,0,0.7478366,-3.7659915,-8.63052)" />
  </defs>
  <g
     id="g4486"
     style="stroke-width:1.20000005;stroke-miterlimit:4;stroke-dasharray:none">
    <path
       d="M 1.5713211,26.109109 C 0.68426548,20.876041 6.2552779,12.434476 10.507306,8.911907 14.120478,5.9185944 16.174785,4.0556023 20.948384,2.9888842 c 2.661735,-0.5947959 5.516387,-2.03912767 8.190254,-1.493495 4.773868,0.9741625 5.660223,1.7501009 7.592137,6.5801747 1.048623,2.6217131 2.13971,4.6431691 0.88509,7.1853091 -6.03975,12.237883 -9.077029,15.417403 -11.268168,17.00484 -2.320972,1.6815 -6.426451,6.26429 -10.020132,6.403073 C 13.682492,38.770937 10.112818,38.248163 8.2829746,37.620661 4.8170194,36.432093 3.1458002,35.397541 1.5713211,26.109109 z"
       id="path2987-0"
       style="fill:url(#radialGradient4484);fill-opacity:1;stroke:#000000;stroke-width:1.20000005;stroke-linecap:round;stroke-linejoin:miter;stroke-miterlimit:4;stroke-opacity:1;stroke-dasharray:none" />
    <path
       d="m 33.472487,4.0859055 c 0.853935,1.4552447 1.024722,7.4379175 1.024722,7.4379175 -0.512361,1.131857 0,4.365734 -0.512361,5.497591 -0.853935,2.048123 -2.22023,1.670837 -3.074165,3.718959 -1.252438,1.56304 -1.992515,5.551489 -3.244953,7.11453 -1.935585,0.916265 -3.871171,1.83253 -5.806757,2.748795 0,0 -1.195508,3.718959 -1.366295,4.204041 -0.170786,0.485081 -4.782035,2.10202 -4.782035,2.10202 -2.732591,-0.323388 -5.465183,-0.646776 -8.197774,-0.970163 -0.2846449,0.107796 -0.5692898,0.215591 -0.8539347,0.323387 0.797006,0.53898 1.5940113,1.077959 2.3910172,1.616939 2.8464495,0.215592 5.4766135,0.908978 8.5393485,0.646775 3.131095,-2.263714 6.045903,-4.527428 9.176997,-6.791142 3.495305,-3.916656 5.476614,-8.44762 8.323064,-12.705558 0.49346,-1.764274 1.779965,-3.733317 2.6339,-5.565847 C 36.869326,10.715354 36.15958,8.1713281 35.305646,5.4225325 34.622498,5.0452468 34.155636,4.4631913 33.472487,4.0859055 z"
       id="path3846"
       style="fill:#7a6d37;fill-opacity:1;stroke:none" />
    <path
       d="M 24.033811,5.7028439 C 24.904367,5.1122726 26.928478,6.5155185 26.640042,7.4814766 26.468768,8.0550649 25.264179,7.9690192 24.728806,7.6431703 24.115699,7.270009 23.441816,6.1044444 24.033811,5.7028439 z"
       id="path3848"
       style="fill:#7a6d37;fill-opacity:1;stroke:none" />
    <path
       d="m 16.388865,24.944413 c 0.156002,0.666124 1.457372,0.998432 2.084985,0.646775 0.905428,-0.507318 1.45251,-2.445432 0.521247,-2.910489 -1.047107,-0.522907 -2.859285,1.183185 -2.606232,2.263714 z"
       id="path3850"
       style="fill:#7a6d37;fill-opacity:1;stroke:none" />
    <path
       d="m 7.527678,29.148454 c -0.4471684,0.474139 0.065256,1.545109 0.6949951,1.778632 0.8421377,0.312286 2.5432459,-0.294541 2.4324829,-1.131857 -0.130482,-0.986383 -2.4230269,-1.393714 -3.127478,-0.646775 z"
       id="path3852"
       style="fill:#7a6d37;fill-opacity:1;stroke:none" />
  </g>
</svg>
