<?xml version="1.0" encoding="UTF-8" standalone="no"?>
<svg
   xmlns:svg="http://www.w3.org/2000/svg"
   xmlns="http://www.w3.org/2000/svg"
   width="87"
   height="59"
   version="1.0">
  <defs>
    <linearGradient
       id="linearGradient3166">
      <stop
         style="stop-color:#ffffff;stop-opacity:1;"
         offset="0"
         id="stop3168" />
      <stop
         style="stop-color:#00ffff;stop-opacity:1;"
         offset="1"
         id="stop3170" />
    </linearGradient>
    <linearGradient
       xlink:href="#linearGradient3166"
       id="linearGradient3172"
       x1="0"
       y1="22"
       x2="74"
       y2="22"
       gradientUnits="userSpaceOnUse" />
  </defs>
  <g
     transform="translate(0,8.75)">
    <path
       d="M 70,6 L 86.5,6 L 86.5,12 L 82.5,12 L 82.5,9 L 72,9"
       style="fill:#00e0e0;fill-opacity:1;stroke:#008080;stroke-width:1.5;stroke-opacity:1" />
    <path
       d="M 70,33.5 L 86.5,33.5 L 86.5,27.5 L 82.5,27.5 L 82.5,30.5 L 72,30.5"
       style="fill:#00e0e0;fill-opacity:1;stroke:#008080;stroke-width:1.5;stroke-opacity:1" />
  </g>
  <path
     style="fill:url(#linearGradient3172);fill-opacity:1;stroke:#00a0a0;stroke-width:2;stroke-opacity:1"
     d="M 48,1 C 64,1 64,1 64,1 L 69.5,5 L 73,11 L 73,45 L 69.5,51 L 64,55 L 47,55 L 47,55 L 47,59 L 27,59 L 27,55 L 10,55 L 4.5,51 L 1,45 L 1,11 L 4.5,5 L 10,1 L 26,1 L 26,6 L 48,6 L 48,1 z" />
  <path
     style="fill:none;stroke:#ffffff;stroke-width:1;stroke-opacity:1"
     d="M 49,2.5 L 63,2.5" />
  <path
     style="fill:none;stroke:#ffffff;stroke-width:1;stroke-opacity:1"
     d="M 11,2.5 L 25,2.5" />
  <path
     style="fill:none;stroke:#006060;stroke-width:1;stroke-opacity:1"
     d="M 10.5,55.5 L 26.5,55.5" />
  <path
     style="fill:none;stroke:#006060;stroke-width:1;stroke-opacity:1"
     d="M 47.5,55.5 L 63.5,55.5" />
  <path
     style="fill:none;stroke:#006060;stroke-width:1;stroke-opacity:1"
     d="M 26.5,59.5 L 47.5,59.5" />
  <path
     style="fill:none;stroke:#ffffff;stroke-width:1;stroke-opacity:1"
     d="M 25,7.5 L 49,7.5" />
  <text
     style="font-size:18px;text-anchor:middle;text-align:center;font-family:Bitstream Vera Sans">
    <tspan
       x="37"
       y="27"
       style="font-size:16px;">fixe</tspan>
  </text>
  <text
     style="font-size:18px;text-anchor:middle;text-align:center;font-family:Bitstream Vera Sans">
    <tspan
       x="37"
       y="46"
       style="font-size:16px;">grosseur</tspan>
  </text>
</svg>
