<?xml version="1.0" encoding="UTF-8" standalone="no"?>
<svg
   xmlns="http://www.w3.org/2000/svg"
   width="60"
   height="60"
   version="1.0">
  <g
     transform="matrix(0.8660254,-0.5,0.5,0.8660254,-7.7944441,18.017348)">
  <rect
     style="fill:#d0d000;stroke:none;"
     width="21"
     height="21"
     x="19.5"
     y="18" />
  <rect
     style="fill:#808000;stroke:none;"
     width="3"
     height="3"
     x="30"
     y="24" />
  <rect
     style="fill:#808000;stroke:none;"
     width="3"
     height="3"
     x="24"
     y="24" />
  <rect
     style="fill:#808000;stroke:none;"
     width="3"
     height="3"
     x="30"
     y="30" />
  <rect
     style="fill:#808000;stroke:none;"
     width="3"
     height="3"
     x="24"
     y="30" />
  <rect
     style="fill:#808000;stroke:none;"
     width="3"
     height="3"
     x="27"
     y="27" />
  <rect
     style="fill:#808000;stroke:none;"
     width="3"
     height="3"
     x="21"
     y="27" />
  <rect
     style="fill:#808000;stroke:none;"
     width="3"
     height="3"
     x="33"
     y="27" />
  <rect
     style="fill:#808000;stroke:none;"
     width="3"
     height="3"
     x="27"
     y="21" />
  <rect
     style="fill:#808000;stroke:none;"
     width="3"
     height="3"
     x="21"
     y="21" />
  <rect
     style="fill:#808000;stroke:none;"
     width="3"
     height="3"
     x="33"
     y="21" />
  <rect
     style="fill:#808000;stroke:none;"
     width="3"
     height="3"
     x="27"
     y="33" />
  <rect
     style="fill:#808000;stroke:none;"
     width="3"
     height="3"
     x="21"
     y="33" />
  <rect
     style="fill:#808000;stroke:none;"
     width="3"
     height="3"
     x="33"
     y="33" />
  <rect
     style="fill:#808000;stroke:none;"
     width="3"
     height="3"
     x="30"
     y="36" />
  <rect
     style="fill:#808000;stroke:none;"
     width="3"
     height="3"
     x="24"
     y="36" />
  <rect
     style="fill:#808000;stroke:none;"
     width="3"
     height="3"
     x="30"
     y="18" />
  <rect
     style="fill:#808000;stroke:none;"
     width="3"
     height="3"
     x="24"
     y="18" />
  <rect
     style="fill:#808000;stroke:none;"
     width="3"
     height="3"
     x="36"
     y="24" />
  <rect
     style="fill:#808000;stroke:none;"
     width="3"
     height="3"
     x="36"
     y="30" />
  <rect
     style="fill:#808000;stroke:none;"
     width="3"
     height="3"
     x="36"
     y="18" />
  <rect
     style="fill:#808000;stroke:none;"
     width="3"
     height="3"
     x="36"
     y="36" />
  <path
     style="fill:#008000;stroke:#008000;stroke-opacity:1"
     d="M 20,42 C 21,41 23,40 24,40 C 24,39 24,40 26,41 C 28,43 31,43 34,41 C 35,40 35,39 36,40 C 36,40 38,41 39,42 C 41,42 45,43 46,43 C 47,43 46,41 43,39 L 39,36 L 42,34 C 44,30 45,28 43,25 L 41,22 L 46,18 C 48,16 47.5,13.5 47,13 C 46.5,12.5 46,13 45,13 C 44,13 43.5,14 42.5,15 C 39.5,17 40,18 37,17 C 32,16 31.5,15 34.5,12 C 36.5,10 36,7 34,6 C 32,3 28,4 26,6 C 24,8 23,10 25,12 C 28,15 27,16 22,17 C 18,18 19,17 17,15 C 16,14 16,13 15,13 C 14,13 13,13 13,13 C 12,13 11,16 14,18 L 19,22 L 17,25 C 15,28 16,30 18,34 L 20,36 L 16,39 C 13,41 12,43 13,43 C 14,43 18,42 20,42 z M 30,18 C 32,18 36,19 38,20 C 40,22 39.5,25 39.5,28 C 39.5,30 40,32.5 38.5,35 C 37,36.5 36.5,37.5 35,38 C 33.5,38.5 31,39 30,39 C 28,39 26,39 25,38 C 23,37 22.5,37 21.5,35 C 20.5,33 20.5,30 20.5,28 C 20.5,25 20,22 22,20 C 24,19 27,18 30,18 z" />
  <path
     style="fill:#00a000;stroke:#00a000;"
     d="M 33,10 C 33,11 31.5,12 30,12 C 28,12 27,11 27,10 C 27,9 28,8 30,8 C 31.5,8 33,9 33,10 z" />
  <circle
     style="fill:#000000;stroke:#000000;"
     r="1.25"
     cx="27.5"
     cy="8" />
  <circle
     style="fill:#000000;stroke:#000000;"
     r="1.25"
     cx="32.5"
     cy="8" />
  </g>
</svg>
