<?xml version="1.0" encoding="UTF-8" standalone="no"?>
<!-- Created with Inkscape (http://www.inkscape.org/) -->

<svg
   xmlns:svg="http://www.w3.org/2000/svg"
   xmlns="http://www.w3.org/2000/svg"
   xmlns:xlink="http://www.w3.org/1999/xlink"
   version="1.0"
   width="55"
   height="55"
   id="svg2">
  <rect
     width="55"
     height="55"
     x="0"
     y="0"
     id="rect3269"
     style="fill:#000000;fill-opacity:1;fill-rule:nonzero;stroke:none" />
  <path
     d="m 31.1663,14.065103 c 5.3328,0 5.3328,0 5.3328,0 0,0 1.377128,0.828768 1.83315,1.3332 0.465777,0.515223 1.16655,1.9998 1.16655,1.9998 l 0,6.332701 c 0,0 -0.738943,1.231094 -1.16655,1.6665 -0.476472,0.485161 -1.83315,1.3332 -1.83315,1.3332 l -5.6661,0 0,0 0,1.333199 -6.666,0 0,-1.333199 -5.6661,0 c 0,0 -1.356677,-0.848039 -1.83315,-1.3332 -0.427607,-0.435406 -1.16655,-1.6665 -1.16655,-1.6665 l 0,-6.332701 c 0,0 0.700773,-1.484577 1.16655,-1.9998 0.456022,-0.504432 1.83315,-1.3332 1.83315,-1.3332 l 5.3328,0 0,1.6665 7.3326,0 0,-1.6665 z"
     id="path9"
     style="fill:none;stroke:#ffffff;stroke-width:2.29999995;stroke-miterlimit:4;stroke-opacity:1;stroke-dasharray:none" />
  <path
     d="m 31.1663,26.936297 c 5.3328,0 5.3328,0 5.3328,0 0,0 1.377128,0.828767 1.83315,1.333199 0.465777,0.515223 1.16655,1.9998 1.16655,1.9998 l 0,6.332701 c 0,0 -0.738943,1.231095 -1.16655,1.666499 -0.476472,0.485162 -1.83315,1.333201 -1.83315,1.333201 l -5.6661,0 0,0 0,1.3332 -6.666,0 0,-1.3332 -5.6661,0 c 0,0 -1.356677,-0.848039 -1.83315,-1.333201 -0.427607,-0.435404 -1.16655,-1.666499 -1.16655,-1.666499 l 0,-6.332701 c 0,0 0.700773,-1.484577 1.16655,-1.9998 0.456022,-0.504432 1.83315,-1.333199 1.83315,-1.333199 l 5.3328,0 0,1.666499 7.3326,0 0,-1.666499 z"
     id="path2559"
     style="fill:none;stroke:#ffffff;stroke-width:2.29999995;stroke-miterlimit:4;stroke-opacity:1;stroke-dasharray:none" />
</svg>
