<?xml version="1.0" encoding="UTF-8" standalone="no"?>
<!-- Created with Inkscape (http://www.inkscape.org/) -->
<svg
   xmlns:svg="http://www.w3.org/2000/svg"
   xmlns="http://www.w3.org/2000/svg"
   version="1.0"
   width="45.000004"
   height="45"
   id="svg2">
  <defs
     id="defs19" />
  <path
     d="M 0.5,44.502878 L 0.5,30.353117 C 0.81811663,28.149435 1.1818834,25.945754 1.5,23.742073 C 1.9963269,22.444548 2.5036731,21.147023 3,19.849497 C 3.6783755,19.065372 4.3216245,18.281246 5,17.49712 L 39.7494,17.49712 L 42,20.014991 C 42.605837,21.615977 42.894162,23.216963 43.5,24.817948 C 43.777382,27.520068 44.222619,30.222187 44.5,32.924307 L 44.5,44.502878 L 0.5,44.502878 z"
     id="path4"
     style="fill:#ffd000;fill-opacity:1;stroke:#e0a000;stroke-width:0.99423993px;stroke-opacity:1" />
  <g
     transform="matrix(1,0,0,1.0306686,-108,16.956129)"
     id="g6">
    <path
       d="M 79.5,438.375 C 79.5,442.86231 75.750385,446.5 71.125,446.5 C 66.499615,446.5 62.75,442.86231 62.75,438.375 C 62.75,433.88769 66.499615,430.25 71.125,430.25 C 75.750385,430.25 79.5,433.88769 79.5,438.375 L 79.5,438.375 z"
       transform="translate(59.375,-424.74902)"
       id="path8"
       style="fill:#00e000;fill-opacity:1;stroke:#00e000;stroke-width:0.98500961;stroke-opacity:1" />
    <text
       id="text10"
       style="font-size:12px;font-weight:bold;font-family:Bitstream Vera Sans">
      <tspan
         x="125.5"
         y="17.5"
         id="tspan12"
         style="font-size:12px;font-weight:bold;fill:#ffffff;font-family:Bitstream Vera Sans">+</tspan>
    </text>
  </g>
</svg>
