<?xml version="1.0" encoding="UTF-8" standalone="no"?>
<!-- Created with Inkscape (http://www.inkscape.org/) -->

<svg
   xmlns:svg="http://www.w3.org/2000/svg"
   xmlns="http://www.w3.org/2000/svg"
   xmlns:xlink="http://www.w3.org/1999/xlink"
   version="1.0"
   width="55"
   height="55"
   id="svg2">
  <defs
     id="defs5">
    <linearGradient
       x1="0"
       y1="22"
       x2="74"
       y2="22"
       id="linearGradient2431"
       xlink:href="#linearGradient3166"
       gradientUnits="userSpaceOnUse"
       gradientTransform="matrix(0.3333,0,0,0.3333,27.031478,32.193732)" />
    <linearGradient
       x1="0"
       y1="22"
       x2="74"
       y2="22"
       id="linearGradient2428"
       xlink:href="#linearGradient3166"
       gradientUnits="userSpaceOnUse"
       gradientTransform="matrix(0.3333,0,0,0.3333,27.031478,45.064925)" />
    <linearGradient
       x1="0"
       y1="22"
       x2="74"
       y2="22"
       id="linearGradient3172"
       xlink:href="#linearGradient3166"
       gradientUnits="userSpaceOnUse" />
    <linearGradient
       id="linearGradient3166">
      <stop
         id="stop3168"
         style="stop-color:#ffffff;stop-opacity:1"
         offset="0" />
      <stop
         id="stop3170"
         style="stop-color:#ffff00;stop-opacity:1"
         offset="1" />
    </linearGradient>
    <linearGradient
       x1="0"
       y1="22"
       x2="74"
       y2="22"
       id="linearGradient2557"
       xlink:href="#linearGradient3166"
       gradientUnits="userSpaceOnUse"
       gradientTransform="matrix(0.3333,0,0,0.3333,9.2560985,9.9123239)" />
    <linearGradient
       x1="0"
       y1="22"
       x2="74"
       y2="22"
       id="linearGradient2561"
       xlink:href="#linearGradient3166"
       gradientUnits="userSpaceOnUse"
       gradientTransform="matrix(0.3333,0,0,0.3333,8.962951,22.783517)" />
    <linearGradient
       x1="0"
       y1="22"
       x2="74"
       y2="22"
       id="linearGradient2461"
       xlink:href="#linearGradient3166"
       gradientUnits="userSpaceOnUse"
       gradientTransform="matrix(0.3333,0,0,0.3333,27.031478,32.193732)" />
    <linearGradient
       x1="0"
       y1="22"
       x2="74"
       y2="22"
       id="linearGradient2463"
       xlink:href="#linearGradient3166"
       gradientUnits="userSpaceOnUse"
       gradientTransform="matrix(0.3333,0,0,0.3333,27.031478,45.064925)" />
  </defs>
  <rect
     width="55"
     height="55"
     rx="0"
     x="0"
     y="0"
     id="rect2839"
     style="fill:#ffd200;fill-opacity:1;fill-rule:evenodd;stroke:none" />
  <g
     transform="translate(-11.863578,-18.461929)"
     id="g2457">
    <path
       d="m 43.029878,32.527032 c 5.3328,0 5.3328,0 5.3328,0 0,0 1.377128,0.828768 1.83315,1.3332 0.465777,0.515223 1.16655,1.9998 1.16655,1.9998 l 0,6.332701 c 0,0 -0.738943,1.231094 -1.16655,1.6665 -0.476472,0.485161 -1.83315,1.3332 -1.83315,1.3332 l -5.6661,0 0,0 0,1.333199 -6.666,0 0,-1.333199 -5.6661,0 c 0,0 -1.356677,-0.848039 -1.83315,-1.3332 -0.427607,-0.435406 -1.16655,-1.6665 -1.16655,-1.6665 l 0,-6.332701 c 0,0 0.700773,-1.484577 1.16655,-1.9998 0.456022,-0.504432 1.83315,-1.3332 1.83315,-1.3332 l 5.3328,0 0,1.6665 7.3326,0 0,-1.6665 z"
       id="path9"
       style="fill:url(#linearGradient2461);fill-opacity:1;stroke:#c0a000;stroke-width:0.66659999;stroke-opacity:1" />
    <path
       d="m 43.029878,45.398226 c 5.3328,0 5.3328,0 5.3328,0 0,0 1.377128,0.828767 1.83315,1.333199 0.465777,0.515223 1.16655,1.9998 1.16655,1.9998 l 0,6.332701 c 0,0 -0.738943,1.231095 -1.16655,1.666499 -0.476472,0.485162 -1.83315,1.333201 -1.83315,1.333201 l -5.6661,0 0,0 0,1.3332 -6.666,0 0,-1.3332 -5.6661,0 c 0,0 -1.356677,-0.848039 -1.83315,-1.333201 -0.427607,-0.435404 -1.16655,-1.666499 -1.16655,-1.666499 l 0,-6.332701 c 0,0 0.700773,-1.484577 1.16655,-1.9998 0.456022,-0.504432 1.83315,-1.333199 1.83315,-1.333199 l 5.3328,0 0,1.666499 7.3326,0 0,-1.666499 z"
       id="path2559"
       style="fill:url(#linearGradient2463);fill-opacity:1;stroke:#c0a000;stroke-width:0.66659999;stroke-opacity:1" />
  </g>
</svg>
