<?xml version="1.0" encoding="UTF-8" standalone="no"?>
<!-- Created with Inkscape (http://www.inkscape.org/) -->

<svg
   xmlns:dc="http://purl.org/dc/elements/1.1/"
   xmlns:cc="http://creativecommons.org/ns#"
   xmlns:rdf="http://www.w3.org/1999/02/22-rdf-syntax-ns#"
   xmlns:svg="http://www.w3.org/2000/svg"
   xmlns="http://www.w3.org/2000/svg"
   version="1.1"
   width="55"
   height="55"
   viewBox="0 0 55 55"
   id="svg2"
   style="fill:#eeeeee;stroke:#000000;stroke-width:3.5;stroke-linecap:round;stroke-linejoin:round">
  <metadata
     id="metadata29">
    <rdf:RDF>
      <cc:Work
         rdf:about="">
        <dc:format>image/svg+xml</dc:format>
        <dc:type
           rdf:resource="http://purl.org/dc/dcmitype/StillImage" />
        <dc:title></dc:title>
      </cc:Work>
    </rdf:RDF>
  </metadata>
  <defs
     id="defs27" />
  <path
     d="M 3.5639446,6.9142808 C 22.390056,15.255438 31.534168,14.699361 51.436058,7.4703581 c -5.647834,11.6776199 -5.647834,20.5748529 0,32.2524729 -19.364,6.950966 -27.163391,6.950966 -47.8721134,0 l 0,-32.8085502 z"
     id="path2440"
     style="fill:#ffffff;fill-opacity:1;stroke-width:3.5;stroke-miterlimit:4;stroke-dasharray:none" />
  <path
     d="M 19.727545,35.012372 C 19.535826,34.771128 19.361802,34.520805 19.203639,34.26357 l -0.543534,1.419882 1.483306,-0.20511 c -0.141709,-0.151447 -0.284817,-0.30107 -0.415866,-0.46597 z"
     id="path3159"
     style="stroke-width:1.95029902" />
  <g
     transform="matrix(0.34668984,0.43624481,-0.43624481,0.34668984,31.256078,6.2791095)"
     id="g3161">
    <path
       d="m 40.16,11.726 c -2.164,0 -3.958,1.555 -4.343,3.607 1.859,1.345 3.457,3.115 4.675,5.208 2.285,-0.172 4.094,-2.061 4.094,-4.39 0,-2.444 -1.982,-4.425 -4.426,-4.425 z"
       id="path3163" />
    <path
       d="m 40.713,39.887 c -1.224,2.232 -2.86,4.131 -4.797,5.556 0.521,1.864 2.213,3.239 4.244,3.239 2.443,0 4.426,-1.98 4.426,-4.424 0,-2.255 -1.693,-4.096 -3.873,-4.371 z"
       id="path3165" />
    <path
       d="m 14.273,39.871 c -2.253,0.206 -4.024,2.079 -4.024,4.387 0,2.443 1.98,4.424 4.424,4.424 2.064,0 3.784,-1.42 4.272,-3.332 -1.883,-1.416 -3.475,-3.289 -4.672,-5.479 z"
       id="path3167" />
    <path
       d="m 19.026,15.437 c -0.343,-2.103 -2.154,-3.711 -4.353,-3.711 -2.444,0 -4.424,1.981 -4.424,4.424 0,2.382 1.886,4.31 4.245,4.406 1.186,-2.043 2.732,-3.784 4.532,-5.119 z"
       id="path3169" />
  </g>
  <path
     d="m 35.308465,22.629998 c 0.661484,0.832355 1.113163,1.76881 1.386281,2.75464 0.726297,-0.04978 1.445355,-0.310185 2.058715,-0.797631 1.608435,-1.278246 1.876551,-3.618784 0.597959,-5.227655 -1.278246,-1.608435 -3.618874,-1.875768 -5.227308,-0.597522 -0.622958,0.495073 -1.042533,1.150233 -1.250988,1.859682 0.924441,0.492416 1.757909,1.156063 2.435341,2.008486 z"
     id="path3171"
     style="stroke-width:1.95029902" />
  <g
     transform="matrix(0.34668984,0.43624481,-0.43624481,0.34668984,31.256078,6.2791095)"
     id="g3173">
    <path
       d="m 43.102,30.421 c 0,4.7344 -1.6452,9.2798 -4.5706,12.6275 -2.9254,3.3478 -6.8973,5.2305 -11.0344,5.2305 -4.1371,0 -8.109,-1.8827 -11.0344,-5.2305 -2.9254,-3.3477 -4.5706,-7.8931 -4.5706,-12.6275 0,-9.7966 7.0444,-17.858 15.605,-17.858 8.5606,0 15.605,8.0614 15.605,17.858 z"
       id="path3175" />
  </g>
  <g
     transform="matrix(0.34668984,0.43624481,-0.43624481,0.34668984,31.256078,6.2791095)"
     id="g3177"
     style="fill:#000000;fill-opacity:1;stroke:none">
    <path
       d="m 25.875,33.75 -1.542,-4.625 3.164,-2.587 3.615,2.626 -1.487,4.669 z"
       id="path3179"
       style="fill:#000000;fill-opacity:1;stroke:none" />
    <path
       d="m 27.501,41.551 c -3.968,-0.16 -5.543,-2.009 -5.543,-2.009 l 3.57,-4.163 4.465,0.168 3.132,4.12 c 0,0 -2.89,1.994 -5.624,1.884 z"
       id="path3181"
       style="fill:#000000;fill-opacity:1;stroke:none" />
    <path
       d="m 18.453,33.843 c -0.849,-2.968 0.172,-6.884 0.172,-6.884 l 4,2.167 1.493,4.629 -3.582,4.233 c 0,-10e-4 -1.465,-1.99 -2.083,-4.145 z"
       id="path3183"
       style="fill:#000000;fill-opacity:1;stroke:none" />
    <path
       d="m 19.458,25.125 c 0,0 0.5,-1.958 3.039,-3.822 2.237,-1.643 4.465,-1.72 4.465,-1.72 l -0.037,4.981 -3.521,2.75 -3.946,-2.189 z"
       id="path3185"
       style="fill:#000000;fill-opacity:1;stroke:none" />
    <path
       d="M 32.084,27.834 28.625,24.959 29,19.75 c 0,0 1.834,-0.042 3.959,1.667 2.228,1.791 3.362,4.983 3.362,4.983 l -4.237,1.434 z"
       id="path3187"
       style="fill:#000000;fill-opacity:1;stroke:none" />
    <path
       d="m 31.292,34.042 1.313,-4.464 4.187,-1.536 c 0,0 0.677,2.663 -0.042,5.667 -0.54,2.256 -2.084,4.361 -2.084,4.361 l -3.374,-4.028 z"
       id="path3189"
       style="fill:#000000;fill-opacity:1;stroke:none" />
  </g>
</svg>
