<?xml version="1.0" encoding="UTF-8" standalone="no"?>
<!-- Created with Inkscape (http://www.inkscape.org/) -->
<svg
   xmlns:svg="http://www.w3.org/2000/svg"
   xmlns="http://www.w3.org/2000/svg"
   version="1.0"
   width="55"
   height="55"
   id="svg2">
  <defs
     id="defs4" />
  <g
     id="layer1">
    <g
       id="g3167">
      <path
         d="M 42.375,27.0625 A 14.8125,13.9375 0 1 1 12.75,27.0625 A 14.8125,13.9375 0 1 1 42.375,27.0625 z"
         transform="matrix(1.4436325,0,0,1.5342641,-12.290121,-14.021022)"
         id="path2383"
         style="opacity:1;fill:none;fill-opacity:1;stroke:#000000;stroke-width:1.34385252;stroke-linecap:square;stroke-linejoin:miter;stroke-miterlimit:4;stroke-dasharray:none;stroke-opacity:1" />
      <path
         d="M 42.867741,42.867742 C 49.132259,49.132259 49.132259,49.132259 49.132259,49.132259 L 49.132259,49.132259"
         id="path3155"
         style="fill:none;fill-rule:evenodd;stroke:#000000;stroke-width:3.73548245;stroke-linecap:butt;stroke-linejoin:miter;stroke-miterlimit:4;stroke-dasharray:none;stroke-opacity:1" />
      <path
         d="M 5.6161934,27.468178 C 10.756494,27.531822 10.679772,27.531822 10.679772,27.531822"
         id="path3159"
         style="fill:none;fill-rule:evenodd;stroke:#000000;stroke-width:1;stroke-linecap:square;stroke-linejoin:miter;stroke-miterlimit:4;stroke-dasharray:none;stroke-opacity:1" />
      <path
         d="M 44.320163,27.468178 C 49.460464,27.531822 49.383742,27.531822 49.383742,27.531822"
         id="path3161"
         style="fill:none;fill-rule:evenodd;stroke:#000000;stroke-width:1;stroke-linecap:square;stroke-linejoin:miter;stroke-miterlimit:4;stroke-dasharray:none;stroke-opacity:1" />
      <path
         d="M 27.468178,49.383806 C 27.531822,44.243505 27.531822,44.320227 27.531822,44.320227"
         id="path3163"
         style="fill:none;fill-rule:evenodd;stroke:#000000;stroke-width:1;stroke-linecap:square;stroke-linejoin:miter;stroke-miterlimit:4;stroke-dasharray:none;stroke-opacity:1" />
      <path
         d="M 27.468178,10.679838 C 27.531822,5.5395368 27.531822,5.6162588 27.531822,5.6162588"
         id="path3165"
         style="fill:none;fill-rule:evenodd;stroke:#000000;stroke-width:1;stroke-linecap:square;stroke-linejoin:miter;stroke-miterlimit:4;stroke-dasharray:none;stroke-opacity:1" />
    </g>
    <path
       d="M 27.377856,20.343519 C 28.321,19.020469 30.286922,18.112089 30.821749,18.291101 C 31.638084,18.564336 33.456136,19.576235 33.650054,20.161715 C 34.013498,21.259028 33.209093,22.374586 32.988611,23.481022"
       id="path3252"
       style="fill:#808080;fill-opacity:1;fill-rule:evenodd;stroke:#000000;stroke-width:1.51091182px;stroke-linecap:butt;stroke-linejoin:miter;stroke-opacity:1" />
    <path
       d="M 33.955224,29.738806 A 4.2910447,7.5746269 0 1 1 25.373134,29.738806 A 4.2910447,7.5746269 0 1 1 33.955224,29.738806 z"
       transform="matrix(1.3446002,0.7763053,-0.7351665,1.2733457,7.5189991,-30.520961)"
       id="path3197"
       style="fill:#808080;fill-opacity:1;stroke:#000000;stroke-width:1;stroke-linecap:square;stroke-linejoin:miter;stroke-miterlimit:4;stroke-dasharray:none;stroke-opacity:1" />
    <path
       d="M 30.640788,20.96543 C 27.28475,27.009989 27.339614,26.914963 27.339614,26.914963"
       id="path3199"
       style="fill:none;fill-rule:evenodd;stroke:#000000;stroke-width:1.51091182px;stroke-linecap:butt;stroke-linejoin:miter;stroke-opacity:1" />
    <path
       d="M 23.640267,22.485322 C 24.595846,24.37818 25.974761,25.728012 27.471512,26.982445 C 27.498847,27.005355 31.460104,28.392057 33.385523,28.013934"
       id="path3201"
       style="fill:none;fill-rule:evenodd;stroke:#000000;stroke-width:1.51091182px;stroke-linecap:butt;stroke-linejoin:round;stroke-opacity:1" />
    <path
       d="M 22.8141,25.484531 C 25.194146,27.945239 25.221038,27.960765 25.221038,27.960765"
       id="path3203"
       style="fill:none;fill-rule:evenodd;stroke:#000000;stroke-width:0.75545591;stroke-linecap:round;stroke-linejoin:miter;stroke-miterlimit:4;stroke-dasharray:none;stroke-opacity:1" />
    <path
       d="M 21.785315,26.831706 C 24.165361,29.292415 24.336387,29.493024 24.336387,29.493024"
       id="path3207"
       style="fill:none;fill-rule:evenodd;stroke:#000000;stroke-width:0.75545591;stroke-linecap:round;stroke-linejoin:miter;stroke-miterlimit:4;stroke-dasharray:none;stroke-opacity:1" />
    <path
       d="M 20.834693,28.29192 C 23.214739,30.752628 23.451737,31.025283 23.451737,31.025283"
       id="path3209"
       style="fill:none;fill-rule:evenodd;stroke:#000000;stroke-width:0.75545591;stroke-linecap:round;stroke-linejoin:miter;stroke-miterlimit:4;stroke-dasharray:none;stroke-opacity:1" />
    <path
       d="M 20.016015,29.896225 C 22.39606,32.356934 22.567086,32.557543 22.567086,32.557543"
       id="path3211"
       style="fill:none;fill-rule:evenodd;stroke:#000000;stroke-width:0.75545591;stroke-linecap:round;stroke-linejoin:miter;stroke-miterlimit:4;stroke-dasharray:none;stroke-opacity:1" />
    <path
       d="M 19.370877,31.63468 C 21.750923,34.095389 21.682436,34.089803 21.682436,34.089803"
       id="path3213"
       style="fill:none;fill-rule:evenodd;stroke:#000000;stroke-width:0.75545591;stroke-linecap:round;stroke-linejoin:miter;stroke-miterlimit:4;stroke-dasharray:none;stroke-opacity:1" />
    <path
       d="M 19.111902,33.697954 C 21.364647,36.254945 20.797785,35.622064 20.797785,35.622064"
       id="path3215"
       style="fill:none;fill-rule:evenodd;stroke:#000000;stroke-width:0.75545591;stroke-linecap:round;stroke-linejoin:miter;stroke-miterlimit:4;stroke-dasharray:none;stroke-opacity:1" />
    <path
       d="M 19.133652,36.330772 C 19.703029,36.897193 19.913135,37.154321 19.913135,37.154321"
       id="path3217"
       style="fill:none;fill-rule:evenodd;stroke:#000000;stroke-width:0.75545591;stroke-linecap:round;stroke-linejoin:miter;stroke-miterlimit:4;stroke-dasharray:none;stroke-opacity:1" />
    <path
       d="M 30.786085,30.087159 C 27.465026,29.256333 27.438134,29.240807 27.438134,29.240807"
       id="path3230"
       style="fill:none;fill-rule:evenodd;stroke:#000000;stroke-width:0.75545591;stroke-linecap:round;stroke-linejoin:miter;stroke-miterlimit:4;stroke-dasharray:none;stroke-opacity:1" />
    <path
       d="M 30.133789,31.6517 C 26.81273,30.820874 26.553484,30.773066 26.553484,30.773066"
       id="path3232"
       style="fill:none;fill-rule:evenodd;stroke:#000000;stroke-width:0.75545591;stroke-linecap:round;stroke-linejoin:miter;stroke-miterlimit:4;stroke-dasharray:none;stroke-opacity:1" />
    <path
       d="M 29.344518,33.20507 C 26.023459,32.374244 25.668834,32.305325 25.668834,32.305325"
       id="path3234"
       style="fill:none;fill-rule:evenodd;stroke:#000000;stroke-width:0.75545591;stroke-linecap:round;stroke-linejoin:miter;stroke-miterlimit:4;stroke-dasharray:none;stroke-opacity:1" />
    <path
       d="M 28.364488,34.716219 C 25.043429,33.885393 24.784183,33.837585 24.784183,33.837585"
       id="path3236"
       style="fill:none;fill-rule:evenodd;stroke:#000000;stroke-width:0.75545591;stroke-linecap:round;stroke-linejoin:miter;stroke-miterlimit:4;stroke-dasharray:none;stroke-opacity:1" />
    <path
       d="M 27.18151,36.144152 C 23.860451,35.313326 23.899532,35.369845 23.899532,35.369845"
       id="path3238"
       style="fill:none;fill-rule:evenodd;stroke:#000000;stroke-width:0.75545591;stroke-linecap:round;stroke-linejoin:miter;stroke-miterlimit:4;stroke-dasharray:none;stroke-opacity:1" />
    <path
       d="M 25.524151,37.400068 C 22.183359,36.727629 23.014881,36.902105 23.014881,36.902105"
       id="path3240"
       style="fill:none;fill-rule:evenodd;stroke:#000000;stroke-width:0.75545591;stroke-linecap:round;stroke-linejoin:miter;stroke-miterlimit:4;stroke-dasharray:none;stroke-opacity:1" />
    <path
       d="M 23.233189,38.697641 C 22.457965,38.487756 22.130232,38.434363 22.130232,38.434363"
       id="path3242"
       style="fill:none;fill-rule:evenodd;stroke:#000000;stroke-width:0.75545591;stroke-linecap:round;stroke-linejoin:miter;stroke-miterlimit:4;stroke-dasharray:none;stroke-opacity:1" />
    <path
       d="M 31.82,22.690001 A 1.48,1.59 0 1 1 28.86,22.690001 A 1.48,1.59 0 1 1 31.82,22.690001 z"
       transform="matrix(1.5624011,0.9020527,-0.7951511,1.3772421,6.8254189,-39.589284)"
       id="path3244"
       style="fill:#808080;fill-opacity:1;stroke:#000000;stroke-width:0.5;stroke-linecap:round;stroke-linejoin:round;stroke-miterlimit:4;stroke-dasharray:none;stroke-opacity:1" />
    <path
       d="M 30.62,21.610001 A 0.47,0.44999999 0 1 1 29.68,21.610001 A 0.47,0.44999999 0 1 1 30.62,21.610001 z"
       transform="matrix(1.3900164,0.8025263,-0.7937757,1.3748599,10.988818,-36.44098)"
       id="path3246"
       style="fill:#000000;fill-opacity:1;stroke:#000000;stroke-width:0.5;stroke-linecap:round;stroke-linejoin:round;stroke-miterlimit:4;stroke-dasharray:none;stroke-opacity:1" />
    <path
       d="M 31.82,22.690001 A 1.48,1.59 0 1 1 28.86,22.690001 A 1.48,1.59 0 1 1 31.82,22.690001 z"
       transform="matrix(1.5624011,0.9020527,-0.7951511,1.3772421,1.0744936,-43.198208)"
       id="path3248"
       style="fill:#808080;fill-opacity:1;stroke:#000000;stroke-width:0.5;stroke-linecap:round;stroke-linejoin:round;stroke-miterlimit:4;stroke-dasharray:none;stroke-opacity:1" />
    <path
       d="M 30.62,21.610001 A 0.47,0.44999999 0 1 1 29.68,21.610001 A 0.47,0.44999999 0 1 1 30.62,21.610001 z"
       transform="matrix(1.3900164,0.8025263,-0.7937757,1.3748599,5.3723528,-39.972274)"
       id="path3250"
       style="fill:#000000;fill-opacity:1;stroke:#000000;stroke-width:0.5;stroke-linecap:round;stroke-linejoin:round;stroke-miterlimit:4;stroke-dasharray:none;stroke-opacity:1" />
    <path
       d="M 32.6771,18.762402 C 34.592724,15.340936 37.749452,14.220631 37.749452,14.220631 L 37.749452,14.220631"
       id="path3254"
       style="fill:none;fill-rule:evenodd;stroke:#000000;stroke-width:0.75545591;stroke-linecap:butt;stroke-linejoin:miter;stroke-miterlimit:4;stroke-dasharray:none;stroke-opacity:1" />
    <path
       d="M 32.234792,18.337256 C 34.240057,14.967544 33.631905,11.673585 33.631905,11.673585 L 33.631905,11.673585"
       id="path3258"
       style="fill:none;fill-rule:evenodd;stroke:#000000;stroke-width:0.75545591;stroke-linecap:butt;stroke-linejoin:miter;stroke-miterlimit:4;stroke-dasharray:none;stroke-opacity:1" />
    <path
       d="M 26.988213,20.231746 L 25.8722,15.229742 L 22.062204,17.274526"
       id="path3260"
       style="fill:none;fill-rule:evenodd;stroke:#000000;stroke-width:1.51091182px;stroke-linecap:butt;stroke-linejoin:miter;stroke-opacity:1" />
    <path
       d="M 33.361036,23.684723 L 36.94565,22.754865 L 39.828331,26.456535"
       id="path3262"
       style="fill:none;fill-rule:evenodd;stroke:#000000;stroke-width:1.51091182px;stroke-linecap:butt;stroke-linejoin:miter;stroke-opacity:1" />
    <path
       d="M 23.851158,22.042526 L 22.753536,18.975309 L 14.588602,21.731577"
       id="path3264"
       style="fill:none;fill-rule:evenodd;stroke:#000000;stroke-width:1.51091182px;stroke-linecap:butt;stroke-linejoin:miter;stroke-opacity:1" />
    <path
       d="M 33.777334,27.207476 L 37.251354,26.779696 L 37.749256,34.197896"
       id="path3266"
       style="fill:none;fill-rule:evenodd;stroke:#000000;stroke-width:1.51091182px;stroke-linecap:butt;stroke-linejoin:miter;stroke-opacity:1" />
    <path
       d="M 20.388485,25.668558 L 19.349188,23.00868 L 12.485021,29.515384"
       id="path3268"
       style="fill:none;fill-rule:evenodd;stroke:#000000;stroke-width:1.51091182px;stroke-linecap:butt;stroke-linejoin:miter;stroke-opacity:1" />
    <path
       d="M 32.410841,31.851473 L 35.330898,30.934083 L 33.3031,40.346252"
       id="path3270"
       style="fill:none;fill-rule:evenodd;stroke:#000000;stroke-width:1.51091182px;stroke-linecap:butt;stroke-linejoin:miter;stroke-opacity:1" />
  </g>
</svg>
