<?xml version="1.0" encoding="UTF-8" standalone="no"?>
<!-- Created with Inkscape (http://www.inkscape.org/) -->

<svg
   xmlns:dc="http://purl.org/dc/elements/1.1/"
   xmlns:cc="http://creativecommons.org/ns#"
   xmlns:rdf="http://www.w3.org/1999/02/22-rdf-syntax-ns#"
   xmlns:svg="http://www.w3.org/2000/svg"
   xmlns="http://www.w3.org/2000/svg"
   version="1.1"
   width="55"
   height="55"
   viewBox="0 0 55 55"
   id="svg2"
   xml:space="preserve"><metadata
     id="metadata25"><rdf:RDF><cc:Work
         rdf:about=""><dc:format>image/svg+xml</dc:format><dc:type
           rdf:resource="http://purl.org/dc/dcmitype/StillImage" /><dc:title></dc:title></cc:Work></rdf:RDF></metadata><defs
     id="defs33" /><g
     transform="matrix(1,0,0,-1,-30.386573,49.171266)"
     id="g4770"><g
       transform="translate(34.0803,-1006.42)"
       id="g4772"><polyline
         transform="matrix(-0.469241,0.469241,-0.469241,-0.469241,66.2906,1019.03)"
         style="fill:none;stroke:#ffffff;stroke-width:3.5;stroke-linecap:round;stroke-linejoin:round"
         points="51.562,15.306 41.17,16.188 42.053,5.794"
         id="polyline4774" /><path
         d="m 39.363241,1033.1291 -0.05636,9.9115 -8.750608,0.067"
         id="path4776"
         style="fill:none;stroke:#ffffff;stroke-width:2.5;stroke-linecap:round;stroke-linejoin:round;stroke-miterlimit:4;stroke-opacity:1;stroke-dasharray:none" /></g></g><g
     transform="matrix(0.80095119,0,0,0.80095119,-4.6564792,-5.9184549)"
     id="g3789"><path
       d="m 15.719636,31.331478 0.114372,5.261133 11.437247,6.290486 L 27.5,29.387146"
       id="path2463"
       style="fill:none;stroke:#ffffff;stroke-width:2;stroke-linecap:butt;stroke-linejoin:round;stroke-miterlimit:4;stroke-opacity:1;stroke-dasharray:none" /><path
       d="m 27.728744,29.501519 0.05719,13.381578 11.723178,-7.548583 0,-4.689272 -5.947368,3.545548"
       id="path2465"
       style="fill:none;stroke:#ffffff;stroke-width:2;stroke-linecap:butt;stroke-linejoin:round;stroke-miterlimit:4;stroke-opacity:1;stroke-dasharray:none" /><path
       d="m 10.001012,27.328441 5.604251,-5.146761 -5.832996,-2.973684 12.123482,-7.091093 5.718623,3.316801 5.489879,-3.088056 12.123482,7.319838 -5.832996,2.401822 5.489878,5.032388 -11.322874,7.205466 -5.947369,-5.261134 -6.290485,5.261134 -11.322875,-6.976721 z"
       id="path2459"
       style="fill:none;stroke:#ffffff;stroke-width:2;stroke-linecap:butt;stroke-linejoin:miter;stroke-miterlimit:4;stroke-opacity:1;stroke-dasharray:none" /><path
       d="M 16.40587,21.952935 27.156883,15.204959 38.937247,22.067308 27.614372,28.815283 16.40587,21.952935 z"
       id="path2461"
       style="fill:none;stroke:#ffffff;stroke-width:2;stroke-linecap:butt;stroke-linejoin:miter;stroke-miterlimit:4;stroke-opacity:1;stroke-dasharray:none" /></g><g
     transform="matrix(0.72581188,0,0,0.72581188,41.648526,6.5008956)"
     id="g3151"><path
       d="m 12.414428,59.423099 a 11.011069,3.4902595 0 1 1 -22.0221357,0 11.011069,3.4902595 0 1 1 22.0221357,0 z"
       id="path2822"
       style="fill:none;stroke:#ffffff;stroke-width:2.29999995;stroke-linecap:round;stroke-miterlimit:4;stroke-opacity:1;stroke-dasharray:none" /><path
       d="m 14.696708,33.884776 a 13.76451,3.1119547 0 0 1 -27.529014,0 13.76451,3.1119547 0 1 1 27.529014,0 z"
       id="path2818"
       style="fill:none;stroke:#ffffff;stroke-width:2.29999995;stroke-linecap:square;stroke-miterlimit:4;stroke-opacity:1;stroke-dasharray:none" /><path
       d="m -7.4074987,57.643633 c 0,0 5.109981,-1.82439 8.518339,-1.867761 3.408358,-0.04337 9.1771277,1.744692 9.1771277,1.744692"
       id="path4192"
       style="fill:none;stroke:#282828;stroke-width:3;stroke-linecap:round;stroke-linejoin:miter;stroke-miterlimit:4;stroke-opacity:1;stroke-dasharray:none" /><g
       transform="translate(-26.584624,19.407629)"
       id="g4702"><path
         d="m 13.75483,14.61245 c 3.56733,24.489728 3.430201,24.354426 3.430201,24.354426 l 0,0"
         id="path2820"
         style="fill:none;stroke:#ffffff;stroke-width:1.5;stroke-linecap:round;stroke-linejoin:miter;stroke-miterlimit:4;stroke-opacity:1;stroke-dasharray:none" /><path
         d="m 15.951887,16.457318 c 3.836562,25.030939 3.656235,25.621512 3.656235,25.621512"
         id="path3620"
         style="fill:none;stroke:#ffffff;stroke-width:1.5;stroke-linecap:round;stroke-linejoin:miter;stroke-miterlimit:4;stroke-opacity:1;stroke-dasharray:none" /><path
         d="m 20.66094,17.470259 c 2.288476,25.03094 2.24528,25.62334 2.24528,25.62334"
         id="path3624"
         style="fill:none;stroke:#ffffff;stroke-width:1.5;stroke-linecap:round;stroke-linejoin:miter;stroke-miterlimit:4;stroke-opacity:1;stroke-dasharray:none" /><path
         d="m 26.831688,18.009641 c 0.06731,24.963289 0.180327,25.396617 0.180327,25.396617"
         id="path3628"
         style="fill:none;stroke:#ffffff;stroke-width:1.5;stroke-linecap:round;stroke-linejoin:miter;stroke-miterlimit:4;stroke-opacity:1;stroke-dasharray:none" /><path
         d="M 34.281292,17.792054 C 31.790893,43.567158 32.084236,43.133828 32.084236,43.133828"
         id="path3626"
         style="fill:none;stroke:#ffffff;stroke-width:1.5;stroke-linecap:round;stroke-linejoin:miter;stroke-miterlimit:4;stroke-opacity:1;stroke-dasharray:none" /><path
         d="m 39.328864,16.340019 c -2.902587,25.706467 -2.96102,25.806464 -2.96102,25.806464"
         id="path3622"
         style="fill:none;stroke:#ffffff;stroke-width:1.5;stroke-linecap:round;stroke-linejoin:miter;stroke-miterlimit:4;stroke-opacity:1;stroke-dasharray:none" /><path
         d="m 41.24517,14.793462 c -2.625017,24.01617 -2.55771,24.314197 -2.55771,24.314197"
         id="path2820-4"
         style="fill:none;stroke:#ffffff;stroke-width:1.5;stroke-linecap:round;stroke-linejoin:miter;stroke-miterlimit:4;stroke-opacity:1;stroke-dasharray:none" /></g></g></svg>