<?xml version="1.0" encoding="UTF-8" standalone="no"?>
<!-- Created with Inkscape (http://www.inkscape.org/) -->

<svg
   xmlns:dc="http://purl.org/dc/elements/1.1/"
   xmlns:cc="http://creativecommons.org/ns#"
   xmlns:rdf="http://www.w3.org/1999/02/22-rdf-syntax-ns#"
   xmlns:svg="http://www.w3.org/2000/svg"
   xmlns="http://www.w3.org/2000/svg"
   version="1.1"
   width="55"
   height="55"
   viewBox="0 0 55 55"
   id="Layer_1"
   xml:space="preserve"><metadata
   id="metadata36"><rdf:RDF><cc:Work
       rdf:about=""><dc:format>image/svg+xml</dc:format><dc:type
         rdf:resource="http://purl.org/dc/dcmitype/StillImage" /><dc:title></dc:title></cc:Work></rdf:RDF></metadata><defs
   id="defs34">
	

		
		
		
		
		
		
		
		
		
	</defs>
<g
   transform="translate(-1.75,0.2095)"
   id="g3080"><polygon
     points="8.433,32.715 1.75,34.542 29.252,52.581 56.75,34.543 50.056,32.715 50.056,2 8.433,2 "
     id="polygon3082"
     style="fill:#666666;stroke:#010101;stroke-width:3.5;stroke-linejoin:round" /></g><g
   transform="matrix(0.75,0,0,0.75,12.66975,2.8112999)"
   id="g3209"><g
     id="g6">
			<g
   id="g8">
				<path
   d="m 6.736,49.002 h 24.52 c 2.225,0 3.439,-1.447 3.439,-3.441 v -27.28 c 0,-1.73 -1.732,-3.441 -3.439,-3.441 h -4.389"
   id="path10"
   style="fill:#ffffff;stroke:#010101;stroke-width:4.66666651;stroke-linecap:round;stroke-linejoin:round" />
			</g>
		</g><g
     id="g12">
			<g
   id="g14">
				<path
   d="m 26.867,38.592 c 0,1.836 -1.345,3.201 -3.441,4.047 L 6.736,49.002 V 14.84 l 16.69,-8.599 c 2.228,-0.394 3.441,0.84 3.441,2.834 v 29.517 z"
   id="path16"
   style="fill:#ffffff;stroke:#010101;stroke-width:4.66666651;stroke-linecap:round;stroke-linejoin:round" />
			</g>
		</g><path
     d="m 9.424,42.607 c 0,0 -1.351,-0.543 -2.702,-0.543 -1.351,0 -2.703,0.543 -2.703,0.543"
     id="path18"
     style="fill:none;stroke:#010101;stroke-width:3;stroke-linecap:round;stroke-linejoin:round" /><path
     d="m 9.424,32.006 c 0,0 -1.239,-0.543 -2.815,-0.543 -1.577,0 -2.59,0.543 -2.59,0.543"
     id="path20"
     style="fill:none;stroke:#010101;stroke-width:3;stroke-linecap:round;stroke-linejoin:round" /><path
     d="m 9.424,21.678 c 0,0 -1.125,-0.544 -2.927,-0.544 -1.802,0 -2.478,0.544 -2.478,0.544"
     id="path22"
     style="fill:none;stroke:#010101;stroke-width:3;stroke-linecap:round;stroke-linejoin:round" /><line
     style="fill:none;stroke:#010101;stroke-width:3;stroke-linecap:round;stroke-linejoin:round"
     id="line24"
     y2="11.505"
     y1="46.533001"
     x2="13.209"
     x1="13.209" /></g>
</svg>