<?xml version="1.0" ?><!DOCTYPE svg  PUBLIC '-//W3C//DTD SVG 1.1//EN'  'http://www.w3.org/Graphics/SVG/1.1/DTD/svg11.dtd' [
	<!ENTITY stroke_color "#010101">
	<!ENTITY fill_color "#666666">
]><svg enable-background="new 0 0 58.5 55" height="55px" version="1.1" viewBox="0 0 58.5 55" width="58.5px" x="0px" xml:space="preserve" xmlns="http://www.w3.org/2000/svg" xmlns:xlink="http://www.w3.org/1999/xlink" y="0px"><g display="block" id="transfer-from-url">
	<g>
		<polygon fill="&fill_color;" points="50.056,32.715 50.056,2 8.433,2     8.433,32.715 1.75,34.542 29.252,52.581 56.75,34.543   " stroke="&stroke_color;" stroke-linejoin="round" stroke-width="3.5"/>
	</g>
	<g>
		<g>
			<polygon fill="#ffffff" points="18.435,10.583 32.046,10.583 39.811,18.343 39.811,38.42      18.435,38.42    " stroke="&fill_color;" stroke-width="2.275"/>
			<polyline fill="none" points="39.811,18.343 32.046,18.343 32.046,10.583    " stroke="&fill_color;" stroke-width="2.275"/>
		</g>
	</g>
	<g>
		<circle cx="29.123" cy="28.4" fill="&fill_color;" r="6.469"/>
		<g>
			<path d="M29.124,21.932c0,0,3.596,2.971,3.596,6.492     c0,3.523-3.596,6.445-3.596,6.445" fill="none" stroke="#ffffff" stroke-width="0.975"/>
			<path d="M29.124,21.932c0,0-3.642,2.728-3.642,6.492     c0,3.765,3.642,6.445,3.642,6.445" fill="none" stroke="#ffffff" stroke-width="0.975"/>
			<line fill="none" stroke="#ffffff" stroke-width="0.975" x1="29.124" x2="29.124" y1="21.932" y2="34.869"/>
			<line fill="none" stroke="#ffffff" stroke-width="0.975" x1="22.654" x2="35.591" y1="28.4" y2="28.4"/>
		</g>
	</g>
</g></svg>
