<?xml version="1.0" encoding="UTF-8" standalone="no"?>
<!-- Created with Inkscape (http://www.inkscape.org/) -->

<svg
   xmlns:dc="http://purl.org/dc/elements/1.1/"
   xmlns:cc="http://creativecommons.org/ns#"
   xmlns:rdf="http://www.w3.org/1999/02/22-rdf-syntax-ns#"
   xmlns:svg="http://www.w3.org/2000/svg"
   xmlns="http://www.w3.org/2000/svg"
   version="1.1"
   width="55"
   height="55"
   viewBox="0 0 55 55"
   id="svg2"
   xml:space="preserve"><metadata
     id="metadata25"><rdf:RDF><cc:Work
         rdf:about=""><dc:format>image/svg+xml</dc:format><dc:type
           rdf:resource="http://purl.org/dc/dcmitype/StillImage" /><dc:title></dc:title></cc:Work></rdf:RDF></metadata><defs
     id="defs33">
	
	
	

  
  

  
   
   
   
   

	

		
		
		
		
		
		
		
		
		
	</defs><g
     transform="matrix(0,1,1,0,0.82863255,5.5624374)"
     id="g3868"
     style="stroke:#ffffff;stroke-width:2.5;stroke-miterlimit:4;stroke-opacity:1;stroke-dasharray:none"><path
       d="m 10.891798,22.615055 c 0.412822,-4.213333 3.118985,-8.878057 7.551676,-9.730009"
       id="path3847"
       style="fill:none;stroke:#ffffff;stroke-width:2.5;stroke-linecap:round;stroke-linejoin:miter;stroke-miterlimit:4;stroke-opacity:1;stroke-dasharray:none" /><path
       d="M 18.443444,12.15893 11.472693,11.723258"
       id="path3864"
       style="fill:none;stroke:#ffffff;stroke-width:2.5;stroke-linecap:round;stroke-linejoin:miter;stroke-miterlimit:4;stroke-opacity:1;stroke-dasharray:none" /><path
       d="m 18.443444,13.030274 -0.72612,5.082838"
       id="path3866"
       style="fill:none;stroke:#ffffff;stroke-width:2.5;stroke-linecap:round;stroke-linejoin:miter;stroke-miterlimit:4;stroke-opacity:1;stroke-dasharray:none" /></g><g
     transform="matrix(0.55205508,0,0,0.55205508,44.618464,18.235971)"
     id="g4382"><g
       transform="translate(-80.093659,12.220029)"
       id="g4308"
       style="fill:none;stroke:#ffffff;stroke-opacity:1">
			<g
   id="g4310"
   style="fill:none;stroke:#ffffff;stroke-opacity:1">
				<path
   d="m 6.736,49.002 h 24.52 c 2.225,0 3.439,-1.447 3.439,-3.441 v -27.28 c 0,-1.73 -1.732,-3.441 -3.439,-3.441 h -4.389"
   id="path4312"
   style="fill:none;stroke:#ffffff;stroke-width:3.5;stroke-linecap:round;stroke-linejoin:round;stroke-opacity:1" />
			</g>
		</g><g
       transform="translate(-80.093659,12.220029)"
       id="g4314"
       style="fill:none;stroke:#ffffff;stroke-opacity:1">
			<g
   id="g4316"
   style="fill:none;stroke:#ffffff;stroke-opacity:1">
				<path
   d="m 26.867,38.592 c 0,1.836 -1.345,3.201 -3.441,4.047 L 6.736,49.002 V 14.84 l 16.69,-8.599 c 2.228,-0.394 3.441,0.84 3.441,2.834 v 29.517 z"
   id="path4318"
   style="fill:none;stroke:#ffffff;stroke-width:3.5;stroke-linecap:round;stroke-linejoin:round;stroke-opacity:1" />
			</g>
		</g><path
       d="m -70.669659,54.827029 c 0,0 -1.351,-0.543 -2.702,-0.543 -1.351,0 -2.703,0.543 -2.703,0.543"
       id="path4320"
       style="fill:none;stroke:#ffffff;stroke-width:2.25;stroke-linecap:round;stroke-linejoin:round;stroke-opacity:1" /><path
       d="m -70.669659,44.226029 c 0,0 -1.239,-0.543 -2.815,-0.543 -1.577,0 -2.59,0.543 -2.59,0.543"
       id="path4322"
       style="fill:none;stroke:#ffffff;stroke-width:2.25;stroke-linecap:round;stroke-linejoin:round;stroke-opacity:1" /><path
       d="m -70.669659,33.898029 c 0,0 -1.125,-0.544 -2.927,-0.544 -1.802,0 -2.478,0.544 -2.478,0.544"
       id="path4324"
       style="fill:none;stroke:#ffffff;stroke-width:2.25;stroke-linecap:round;stroke-linejoin:round;stroke-opacity:1" /><line
       style="fill:none;stroke:#ffffff;stroke-width:2.25;stroke-linecap:round;stroke-linejoin:round;stroke-opacity:1"
       x1="-66.884659"
       x2="-66.884659"
       y1="58.753029"
       y2="23.725029"
       id="line4326" /></g><g
     transform="matrix(1.1623273,0,0,1.1623273,5.8946433,-8.9787622)"
     id="g3116"
     style="fill:none;stroke:#ffffff;stroke-width:2.15085721;stroke-miterlimit:4;stroke-opacity:1;stroke-dasharray:none"><polygon
       points="18.435,38.42 18.435,10.583 32.046,10.583 39.811,18.343 39.811,38.42 "
       id="polygon3118"
       style="fill:none;stroke:#ffffff;stroke-width:2.15085721;stroke-miterlimit:4;stroke-opacity:1;stroke-dasharray:none" /><polyline
       style="fill:none;stroke:#ffffff;stroke-width:2.15085721;stroke-miterlimit:4;stroke-opacity:1;stroke-dasharray:none"
       points="39.811,18.343 32.046,18.343 32.046,10.583    "
       id="polyline3120" /></g><g
     transform="matrix(1.1623273,0,0,1.1623273,5.8946433,-8.9787622)"
     id="g3122"
     style="fill:none;stroke:#ffffff;stroke-opacity:1"><circle
       cx="29.122999"
       cy="28.4"
       r="6.4689999"
       id="circle3124"
       style="fill:none;stroke:#ffffff;stroke-opacity:1" /><g
       id="g3126"
       style="fill:none;stroke:#ffffff;stroke-opacity:1"><path
         d="m 29.124,21.932 c 0,0 3.596,2.971 3.596,6.492 0,3.523 -3.596,6.445 -3.596,6.445"
         id="path3128"
         style="fill:none;stroke:#ffffff;stroke-width:0.97500002;stroke-opacity:1" /><path
         d="m 29.124,21.932 c 0,0 -3.642,2.728 -3.642,6.492 0,3.765 3.642,6.445 3.642,6.445"
         id="path3130"
         style="fill:none;stroke:#ffffff;stroke-width:0.97500002;stroke-opacity:1" /><line
         id="line3132"
         y2="34.868999"
         y1="21.931999"
         x2="29.124001"
         x1="29.124001"
         style="fill:none;stroke:#ffffff;stroke-width:0.97500002;stroke-opacity:1" /><line
         id="line3134"
         y2="28.4"
         y1="28.4"
         x2="35.591"
         x1="22.653999"
         style="fill:none;stroke:#ffffff;stroke-width:0.97500002;stroke-opacity:1" /></g></g></svg>