<?xml version="1.0" encoding="UTF-8" standalone="no"?>
<!-- Created with Inkscape (http://www.inkscape.org/) -->

<svg
   xmlns:svg="http://www.w3.org/2000/svg"
   xmlns="http://www.w3.org/2000/svg"
   version="1.1"
   width="58.5"
   height="55"
   viewBox="0 0 58.5 55"
   id="svg2"
   xml:space="preserve"><defs
     id="defs33">
	
	
	
</defs><g
     id="g5"
     style="fill:#00ff00;fill-opacity:1">
		<polygon
   points="8.433,32.715 1.75,34.542 29.252,52.581 56.75,34.543 50.056,32.715 50.056,2 8.433,2 "
   id="polygon7"
   style="fill:#00ff00;fill-opacity:1;stroke:#010101;stroke-width:3.5;stroke-linejoin:round" />
	</g><g
     id="g9">
		<g
   id="g11">
			<polygon
   points="39.811,38.42 18.435,38.42 18.435,10.583 32.046,10.583 39.811,18.343 "
   id="polygon13"
   style="fill:#ffffff;stroke:#666666;stroke-width:2.2750001" />
			<polyline
   style="fill:none;stroke:#666666;stroke-width:2.2750001"
   id="polyline15"
   points="39.811,18.343 32.046,18.343 32.046,10.583    " />
		</g>
	</g><g
     id="g17">
		<circle
   cx="29.122999"
   cy="28.4"
   r="6.4689999"
   id="circle19"
   style="fill:#666666" />
		<g
   id="g21">
			<path
   d="m 29.124,21.932 c 0,0 3.596,2.971 3.596,6.492 0,3.523 -3.596,6.445 -3.596,6.445"
   id="path23"
   style="fill:none;stroke:#ffffff;stroke-width:0.97500002" />
			<path
   d="m 29.124,21.932 c 0,0 -3.642,2.728 -3.642,6.492 0,3.765 3.642,6.445 3.642,6.445"
   id="path25"
   style="fill:none;stroke:#ffffff;stroke-width:0.97500002" />
			<line
   style="fill:none;stroke:#ffffff;stroke-width:0.97500002"
   id="line27"
   y2="34.868999"
   y1="21.931999"
   x2="29.124001"
   x1="29.124001" />
			<line
   style="fill:none;stroke:#ffffff;stroke-width:0.97500002"
   id="line29"
   y2="28.4"
   y1="28.4"
   x2="35.591"
   x1="22.653999" />
		</g>
	</g></svg>