<?xml version="1.0" encoding="UTF-8" standalone="no"?>
<!-- Created with Inkscape (http://www.inkscape.org/) -->

<svg
   xmlns:svg="http://www.w3.org/2000/svg"
   xmlns="http://www.w3.org/2000/svg"
   version="1.1"
   width="58.5"
   height="55"
   viewBox="0 0 58.5 55"
   id="svg2"
   xml:space="preserve"><defs
     id="defs23">
	
	
	
	
</defs><g
     id="g5"
     style="fill:#00ff00;fill-opacity:1;display:inline">
		<polygon
   points="8.433,32.715 1.75,34.542 29.252,52.581 56.75,34.543 50.056,32.715 50.056,2 8.433,2 "
   id="polygon7"
   style="fill:#00ff00;fill-opacity:1;stroke:#010101;stroke-width:3.5;stroke-linejoin:round" />
	</g><g
     id="g9"
     style="display:inline">
		<g
   id="g11">
			<polygon
   points="15.204,13.812 15.204,35.189 43.041,35.189 43.041,21.577 35.281,13.812 "
   id="polygon13"
   style="fill:#ffffff;stroke:#666666;stroke-width:2.2750001" />
			<polyline
   style="fill:none;stroke:#666666;stroke-width:2.2750001"
   id="polyline15"
   points="35.281,13.812 35.281,21.577 43.041,21.577    " />
		</g>
	</g><path
     d="m 29.206,21.798 c -4.067,0 -7.456,4.056 -7.456,4.056 0,0 3.389,4.076 7.456,4.074 4.069,-0.004 7.458,-4.078 7.458,-4.078 0,0 -3.389,-4.055 -7.458,-4.052 z m 0,6.917 c -1.575,0 -2.852,-1.277 -2.852,-2.853 0,-1.572 1.277,-2.852 2.852,-2.852 1.573,0 2.85,1.28 2.85,2.852 0,1.576 -1.277,2.853 -2.85,2.853 z"
     id="path17"
     style="fill:#666666;display:inline" /><circle
     cx="29.207001"
     cy="25.863001"
     r="1.294"
     id="circle19"
     style="fill:#666666;display:inline" /></svg>