<?xml version="1.0" encoding="UTF-8" standalone="no"?>
<!-- Created with Inkscape (http://www.inkscape.org/) -->

<svg
   xmlns:svg="http://www.w3.org/2000/svg"
   xmlns="http://www.w3.org/2000/svg"
   xmlns:xlink="http://www.w3.org/1999/xlink"
   version="1.1"
   width="58.5"
   height="55"
   viewBox="0 0 58.5 55"
   id="svg2"
   xml:space="preserve"><defs
     id="defs25">
	
	
	
	
	
<linearGradient
   x1="0.94254935"
   y1="-31.669659"
   x2="104.37702"
   y2="20.434471"
   id="linearGradient3172"
   xlink:href="#linearGradient3166"
   gradientUnits="userSpaceOnUse"
   gradientTransform="matrix(0.7083638,0,0,1.0012565,0.1338084,32.632067)" /><linearGradient
   id="linearGradient3166"><stop
     id="stop3168"
     style="stop-color:#ffffff;stop-opacity:1"
     offset="0" /><stop
     id="stop3170"
     style="stop-color:#ffff00;stop-opacity:1"
     offset="1" /></linearGradient></defs><g
     id="g5"
     style="display:inline">
		<polygon
   points="50.067,21.866 56.75,20.039 29.248,2 1.75,20.038 8.443,21.866 8.443,52.581 50.067,52.58 "
   id="polygon7"
   style="fill:#666666;stroke:#010101;stroke-width:3.5;stroke-linejoin:round" />
	</g><line
     style="fill:none;stroke:#666666;stroke-width:2.2750001;display:inline"
     id="line17"
     y2="29.688"
     y1="29.688"
     x2="35.298"
     x1="22.948"
     display="inline" /><line
     style="fill:none;stroke:#666666;stroke-width:2.2750001;display:inline"
     id="line19"
     y2="34.237999"
     y1="34.237999"
     x2="35.298"
     x1="22.948"
     display="inline" /><line
     style="fill:none;stroke:#666666;stroke-width:2.2750001;display:inline"
     id="line21"
     y2="38.786999"
     y1="38.786999"
     x2="35.298"
     x1="22.948"
     display="inline" /><g
     transform="matrix(0.67,0,0,0.67,11.410915,13.075)"
     id="activity-journal"
     style="stroke:#000000;stroke-opacity:1;display:block"><path
       d="M 45.866,44.669 C 45.866,47.18 44.338,49 41.534,49 l -29.457,0 0,-43 29.458,0 c 2.15,0 4.332,2.154 4.332,4.33 l -10e-4,34.339 0,0 z"
       id="path2458"
       style="fill:#ffffff;stroke:#000000;stroke-width:3.5;stroke-linecap:round;stroke-linejoin:round;stroke-opacity:1" /><line
       style="fill:none;stroke:#000000;stroke-width:3.5;stroke-linecap:round;stroke-linejoin:round;stroke-opacity:1"
       x1="21.341"
       x2="21.341"
       y1="6.1209998"
       y2="48.881001"
       id="line2460" /><path
       d="m 7.384,14.464 c 0,0 2.084,0.695 4.17,0.695 2.086,0 4.173,-0.695 4.173,-0.695"
       id="path2462"
       style="fill:none;stroke:#000000;stroke-width:3.5;stroke-linecap:round;stroke-linejoin:round;stroke-opacity:1" /><path
       d="m 7.384,28.021 c 0,0 1.912,0.695 4.345,0.695 2.433,0 3.999,-0.695 3.999,-0.695"
       id="path2464"
       style="fill:none;stroke:#000000;stroke-width:3.5;stroke-linecap:round;stroke-linejoin:round;stroke-opacity:1" /><path
       d="m 7.384,41.232 c 0,0 1.736,0.695 4.518,0.695 2.781,0 3.825,-0.695 3.825,-0.695"
       id="path2466"
       style="fill:none;stroke:#000000;stroke-width:3.5;stroke-linecap:round;stroke-linejoin:round;stroke-opacity:1" /></g></svg>