<?xml version="1.0" encoding="UTF-8" standalone="no"?>
<!-- Created with Inkscape (http://www.inkscape.org/) -->

<svg
   xmlns:dc="http://purl.org/dc/elements/1.1/"
   xmlns:cc="http://creativecommons.org/ns#"
   xmlns:rdf="http://www.w3.org/1999/02/22-rdf-syntax-ns#"
   xmlns:svg="http://www.w3.org/2000/svg"
   xmlns="http://www.w3.org/2000/svg"
   xmlns:xlink="http://www.w3.org/1999/xlink"
   version="1.0"
   width="55"
   height="55"
   id="svg2">
  <rect
     width="55"
     height="55"
     rx="0"
     x="0"
     y="0"
     id="rect2839"
     style="fill:#ffd200;fill-opacity:1;fill-rule:evenodd;stroke:none" />
  <path
     d="m 40.391135,39.00323 c 0,1.68237 -1.02376,2.90177 -2.90244,2.90177 l -19.73619,0 0,-28.81 19.73686,0 c 1.4405,0 2.90244,1.44318 2.90244,2.9011 l -6.7e-4,23.00713 0,0 z"
     id="path2458"
     style="fill:#80ff00;fill-opacity:1;stroke:#000000;stroke-width:2.34500003;stroke-linecap:round;stroke-linejoin:round;stroke-opacity:1" />
  <line
     id="line2460"
     y2="41.825272"
     y1="13.17607"
     x2="23.959385"
     x1="23.959385"
     style="fill:none;stroke:#000000;stroke-width:2.34500003;stroke-linecap:round;stroke-linejoin:round;stroke-opacity:1" />
  <path
     d="m 14.608195,18.76588 c 0,0 1.39628,0.46565 2.7939,0.46565 1.39762,0 2.79591,-0.46565 2.79591,-0.46565"
     id="path2462"
     style="fill:none;stroke:#000000;stroke-width:2.34500003;stroke-linecap:round;stroke-linejoin:round;stroke-opacity:1" />
  <path
     d="m 14.608195,27.84907 c 0,0 1.28104,0.46565 2.91115,0.46565 1.63011,0 2.67933,-0.46565 2.67933,-0.46565"
     id="path2464"
     style="fill:none;stroke:#000000;stroke-width:2.34500003;stroke-linecap:round;stroke-linejoin:round;stroke-opacity:1" />
  <path
     d="m 14.608195,36.70044 c 0,0 1.16312,0.46565 3.02706,0.46565 1.86327,0 2.56275,-0.46565 2.56275,-0.46565"
     id="path2466"
     style="fill:none;stroke:#000000;stroke-width:2.34500003;stroke-linecap:round;stroke-linejoin:round;stroke-opacity:1" />
</svg>
