<?xml version="1.0" encoding="UTF-8" standalone="no"?>
<!-- Created with Inkscape (http://www.inkscape.org/) -->

<svg
   xmlns:dc="http://purl.org/dc/elements/1.1/"
   xmlns:cc="http://creativecommons.org/ns#"
   xmlns:rdf="http://www.w3.org/1999/02/22-rdf-syntax-ns#"
   xmlns:svg="http://www.w3.org/2000/svg"
   xmlns="http://www.w3.org/2000/svg"
   version="1.0"
   width="55"
   height="55"
   id="svg2">
  <metadata
     id="metadata7">
    <rdf:RDF>
      <cc:Work
         rdf:about="">
        <dc:format>image/svg+xml</dc:format>
        <dc:type
           rdf:resource="http://purl.org/dc/dcmitype/StillImage" />
        <dc:title></dc:title>
      </cc:Work>
    </rdf:RDF>
  </metadata>
  <defs
     id="defs6" />
  <g
     id="g4725">
    <path
       d="m 1.5000002,25.5 0,-8 a 8,8 0 0 1 7.9999997,-8 L 17.5,9.5 l 0,4 20,0 0,-4 8,0 a 8,8 0 0 1 8,8 l 0,8 0,8 a 8,8 0 0 1 -8,8 l -8,0 -2,0 0,4 -16,0 0,-4 -2,0 -8.0000001,0 a 8,8 0 0 1 -7.9999998,-8 l 0,-8 z"
       id="path2882"
       style="fill:#ffffff;fill-opacity:1;stroke:#ffffff;stroke-width:2.5;stroke-linecap:square;stroke-miterlimit:4;stroke-opacity:1;stroke-dasharray:none" />
    <path
       d="m 27.5,41.250001 c 7.594278,0 13.75,-6.155723 13.75,-13.75 C 41.25,19.905111 35.094278,13.75 27.5,13.75 c -7.594278,0 -13.75,6.155111 -13.75,13.750001 0,7.594277 6.155722,13.75 13.75,13.75 z M 21.140166,24.581945 c 0.382556,-0.381333 0.884278,-0.573833 1.387834,-0.573833 0.502333,0 1.005278,0.1925 1.387833,0.573833 l 3.568889,3.564611 3.457056,-3.545667 c 0.385,-0.394166 0.894666,-0.590944 1.405555,-0.590944 0.493778,0 0.99,0.186389 1.372556,0.558556 0.773667,0.756555 0.791389,1.998944 0.03422,2.778111 l -4.8455,4.965889 c -0.0012,0 -0.0012,0 -0.0018,0 -0.0061,0.0067 -0.0092,0.01283 -0.01344,0.01711 -0.07089,0.07028 -0.149722,0.127111 -0.226722,0.184555 -0.02383,0.01711 -0.04339,0.03911 -0.06783,0.05683 -0.06967,0.04583 -0.146667,0.08128 -0.22,0.118555 -0.04156,0.02139 -0.08006,0.04767 -0.122223,0.06539 -0.06111,0.02383 -0.124055,0.03911 -0.187,0.05683 -0.0605,0.01956 -0.116722,0.04156 -0.178444,0.055 -0.05072,0.011 -0.103278,0.011 -0.153389,0.01711 -0.07456,0.0092 -0.149111,0.02017 -0.223667,0.022 -0.04339,0 -0.08983,-0.0086 -0.133833,-0.01283 -0.08128,-0.0043 -0.162555,-0.0067 -0.241389,-0.022 -0.04583,-0.0086 -0.08983,-0.02628 -0.136278,-0.03911 -0.07578,-0.02139 -0.153388,-0.03728 -0.227944,-0.06783 -0.05072,-0.01956 -0.09839,-0.05011 -0.149111,-0.07395 -0.06478,-0.03361 -0.131389,-0.06356 -0.193111,-0.100833 -0.05133,-0.03544 -0.09778,-0.07944 -0.146056,-0.118555 -0.05255,-0.03911 -0.107555,-0.07456 -0.155222,-0.122834 -0.0031,-0.0018 -0.0055,-0.0067 -0.0079,-0.0086 -0.0043,-0.0024 -0.0067,-0.0049 -0.0086,-0.0067 l -4.975706,-4.968306 c -0.766333,-0.769388 -0.768167,-2.011778 0.0012,-2.782389 z"
       id="path3941"
       style="fill:#282828;fill-opacity:1" />
  </g>
</svg>
