<?xml version="1.0" encoding="UTF-8" standalone="no"?>
<!-- Created with Inkscape (http://www.inkscape.org/) -->

<svg
   xmlns:dc="http://purl.org/dc/elements/1.1/"
   xmlns:cc="http://creativecommons.org/ns#"
   xmlns:rdf="http://www.w3.org/1999/02/22-rdf-syntax-ns#"
   xmlns:svg="http://www.w3.org/2000/svg"
   xmlns="http://www.w3.org/2000/svg"
   version="1.0"
   width="55"
   height="55"
   id="svg2">
  <metadata
     id="metadata7">
    <rdf:RDF>
      <cc:Work
         rdf:about="">
        <dc:format>image/svg+xml</dc:format>
        <dc:type
           rdf:resource="http://purl.org/dc/dcmitype/StillImage" />
        <dc:title></dc:title>
      </cc:Work>
    </rdf:RDF>
  </metadata>
  <defs
     id="defs6" />
  <path
     d="m 6.2993119,27.5 0,-10.600345 c 0,-5.550327 3.1077026,-10.600343 6.5232881,-10.6003433 l 29.354799,0 c 3.415587,0 6.523289,5.0500163 6.523289,10.6003433 l 0,10.600345 0,10.600345 c 0,5.550327 -3.107702,10.600343 -6.523289,10.600343 l -29.354799,0 c -3.4155855,0 -6.5232881,-5.050016 -6.5232881,-10.600343 z"
     id="path2882"
     style="fill:#ffffff;fill-opacity:1;stroke:#ffffff;stroke-width:2.59862328;stroke-linecap:square;stroke-miterlimit:4;stroke-opacity:1;stroke-dasharray:none" />
  <path
     d="m 27.5,42.5 c 8.284667,0 15,-6.715334 15,-15 0,-8.285334 -6.715333,-15 -15,-15 -8.284667,0 -15,6.714666 -15,15 0,8.284666 6.715333,15 15,15 z M 20.561999,24.316666 c 0.417334,-0.415999 0.964667,-0.625999 1.514001,-0.625999 0.548,0 1.096667,0.21 1.514,0.625999 l 3.893333,3.888668 3.771334,-3.868001 c 0.42,-0.429999 0.975999,-0.644666 1.533333,-0.644666 0.538667,0 1.08,0.203334 1.497333,0.609334 0.844001,0.825333 0.863334,2.180665 0.03733,3.030667 l -5.286,5.417332 c -0.0013,0 -0.0013,0 -0.002,0 -0.0067,0.0073 -0.01004,0.014 -0.01466,0.01866 -0.07734,0.07667 -0.163333,0.138667 -0.247333,0.201332 -0.026,0.01867 -0.04734,0.04267 -0.074,0.062 -0.076,0.05 -0.16,0.08867 -0.24,0.129332 -0.04534,0.02333 -0.08734,0.052 -0.133334,0.07133 -0.06667,0.026 -0.135332,0.04267 -0.204,0.062 -0.066,0.02134 -0.127333,0.04534 -0.194666,0.06 -0.05533,0.012 -0.112667,0.012 -0.167333,0.01867 -0.08134,0.01004 -0.162667,0.022 -0.244001,0.024 -0.04733,0 -0.098,-0.0094 -0.145999,-0.014 -0.08867,-0.0047 -0.177333,-0.0073 -0.263334,-0.024 -0.05,-0.0094 -0.098,-0.02867 -0.148667,-0.04266 -0.08267,-0.02333 -0.167332,-0.04067 -0.248666,-0.074 -0.05533,-0.02134 -0.107334,-0.05466 -0.162666,-0.08067 -0.07067,-0.03667 -0.143334,-0.06934 -0.210667,-0.11 -0.056,-0.03866 -0.106669,-0.08666 -0.159334,-0.129333 -0.05733,-0.04267 -0.117333,-0.08134 -0.169333,-0.134001 -0.0034,-0.002 -0.006,-0.0073 -0.0086,-0.0094 -0.0047,-0.0026 -0.0073,-0.0053 -0.0094,-0.0073 L 20.560666,27.352 c -0.835999,-0.839333 -0.838,-2.194667 0.0013,-3.035334 z"
     id="path3941"
     style="fill:#282828;fill-opacity:1" />
</svg>
