<?xml version="1.0" encoding="UTF-8" standalone="no"?>
<!-- Created with Inkscape (http://www.inkscape.org/) -->

<svg
   xmlns:dc="http://purl.org/dc/elements/1.1/"
   xmlns:cc="http://creativecommons.org/ns#"
   xmlns:rdf="http://www.w3.org/1999/02/22-rdf-syntax-ns#"
   xmlns:svg="http://www.w3.org/2000/svg"
   xmlns="http://www.w3.org/2000/svg"
   xmlns:xlink="http://www.w3.org/1999/xlink"
   version="1.1"
   width="45"
   height="45"
   viewBox="0 0 45 45"
   id="svg2"
   xml:space="preserve"><metadata
     id="metadata18"><rdf:RDF><cc:Work
         rdf:about=""><dc:format>image/svg+xml</dc:format><dc:type
           rdf:resource="http://purl.org/dc/dcmitype/StillImage" /><dc:title></dc:title></cc:Work></rdf:RDF></metadata><defs
     id="defs25">
	
	
	
	
	
<linearGradient
   x1="0.94254935"
   y1="-31.669659"
   x2="104.37702"
   y2="20.434471"
   id="linearGradient3172"
   xlink:href="#linearGradient3166"
   gradientUnits="userSpaceOnUse"
   gradientTransform="matrix(0.7083638,0,0,1.0012565,0.1338084,32.632067)" /><linearGradient
   id="linearGradient3166"><stop
     id="stop3168"
     style="stop-color:#ffffff;stop-opacity:1"
     offset="0" /><stop
     id="stop3170"
     style="stop-color:#ffff00;stop-opacity:1"
     offset="1" /></linearGradient><linearGradient
   x1="0"
   y1="22"
   x2="74"
   y2="22"
   id="linearGradient3172-9"
   xlink:href="#linearGradient3166-6"
   gradientUnits="userSpaceOnUse" /><linearGradient
   id="linearGradient3166-6"><stop
     id="stop3168-5"
     style="stop-color:#ffffff;stop-opacity:1"
     offset="0" /><stop
     id="stop3170-6"
     style="stop-color:#ff0000;stop-opacity:1"
     offset="1" /></linearGradient>
		
	</defs><g
     transform="translate(-9.4073373,-4.5285014)"
     id="g3015"><path
       d="m 29.778093,43.02051 c 3.555069,0 8.83424,-1.56838 8.83424,-6.181226 0,-5.131219 -4.597011,-5.60538 -6.503378,-6.124857 -2.107038,-0.441556 -3.510542,-1.057744 -3.594847,-1.909356 -0.144269,-1.460061 0.687503,-2.028723 2.342736,-2.028723 0,0 3.937412,2.024856 7.282311,0.40895 0.942794,-0.454819 2.631273,-2.579702 2.631273,-4.04529 0,-1.466142 -5.450749,-3.160522 -7.104794,-3.160522 -1.655233,0 -3.062894,2.125988 -3.062894,2.125988 -3.309277,0 -6.619149,2.932283 -6.619149,5.864566 0,2.93173 3.166197,5.225166 6.950433,5.864565 1.759131,0.259187 3.230316,1.226851 2.896064,3.005231 -0.27132,1.444036 -1.778128,2.932283 -4.963917,2.932283 -2.524407,0 -7.896195,-0.121026 -8.75409,-2.254199 -0.551547,-1.373851 0.09974,-2.876467 0.927358,-2.876467 l -0.01603,-0.08842 c -0.843052,-0.08732 -3.293841,0.08842 -3.293841,3.020151 -5.94e-4,3.759026 5.428782,5.447327 12.048526,5.447327 z"
       id="path2474"
       style="fill:#00ff00;fill-opacity:1;stroke:#000000;stroke-width:1.95917296;stroke-linecap:round;stroke-linejoin:round;stroke-miterlimit:4;stroke-opacity:1;stroke-dasharray:none" /><path
       d="m 38.138561,27.185851 c -1.557272,-0.158607 -3.924943,-1.105272 -4.43315,-2.775335"
       id="path2476"
       style="fill:none;stroke:#000000;stroke-width:1.95917296;stroke-linecap:round;stroke-miterlimit:4;stroke-opacity:1;stroke-dasharray:none" /><circle
       cx="35.805"
       cy="10.96"
       r="1.676"
       transform="matrix(0.59369893,0,0,0.5526353,12.859454,16.213829)"
       id="circle2478"
       style="fill:#000000;fill-opacity:1;stroke-width:3.42034841;stroke-miterlimit:4;stroke-dasharray:none" /><g
       transform="matrix(0.58918829,0,0,0.62673569,20.893007,10.023544)"
       id="g17"><line
         style="fill:none;stroke:#ffffff;stroke-width:3.5;stroke-linecap:round;stroke-linejoin:round"
         id="line19"
         y2="11.828"
         x2="32.536999"
         y1="1.75"
         x1="42.615002" /><polyline
         style="fill:none;stroke:#ffffff;stroke-width:3.5;stroke-linecap:round;stroke-linejoin:round"
         id="polyline21"
         points="33.322,2.539   42.615,1.75 41.826,11.043  " /></g></g></svg>