<?xml version="1.0" encoding="UTF-8" standalone="no"?>
<!-- Created with Inkscape (http://www.inkscape.org/) -->

<svg
   xmlns:dc="http://purl.org/dc/elements/1.1/"
   xmlns:cc="http://creativecommons.org/ns#"
   xmlns:rdf="http://www.w3.org/1999/02/22-rdf-syntax-ns#"
   xmlns:svg="http://www.w3.org/2000/svg"
   xmlns="http://www.w3.org/2000/svg"
   version="1.0"
   width="45"
   height="45"
   viewBox="0 0 55 55"
   id="svg2"
   xml:space="preserve"><metadata
   id="metadata23"><rdf:RDF><cc:Work
       rdf:about=""><dc:format>image/svg+xml</dc:format><dc:type
         rdf:resource="http://purl.org/dc/dcmitype/StillImage" /><dc:title></dc:title></cc:Work></rdf:RDF></metadata>
<defs
   id="defs12" />
`<path
   d="m 7.5969346,27.582491 c 0,-0.573808 0.035481,-1.140352 0.1013955,-1.698596 l -2.3816637,1.440227 2.345162,1.419476 c -0.030421,-0.384961 -0.064888,-0.768883 -0.064888,-1.161107 z"
   id="path3003"
   style="fill:none;stroke:#ffffff;stroke-width:1.4666667;stroke-miterlimit:4;stroke-opacity:1;stroke-dasharray:none" /><path
   d="m 44.658216,40.721977 c 0,-2.245428 -1.576623,-4.106932 -3.657157,-4.506419 -1.363703,1.92895 -3.158315,3.58708 -5.280419,4.850912 0.174392,2.37098 2.089659,4.248049 4.451045,4.248049 2.477985,0 4.486531,-2.056579 4.486531,-4.592542 z"
   id="path3007"
   style="fill:#686868;fill-opacity:1;stroke:#ffffff;stroke-width:2.81111097;stroke-miterlimit:4;stroke-opacity:1;stroke-dasharray:none" /><path
   d="m 16.105628,41.295785 c -2.263037,-1.270057 -4.188444,-2.967616 -5.633258,-4.977502 -1.8899198,0.540604 -3.2840402,2.296271 -3.2840402,4.403694 0,2.534925 2.007533,4.592542 4.4855172,4.592542 2.286358,0 4.152957,-1.756705 4.431781,-4.018734 z"
   id="path3009"
   style="fill:#686868;fill-opacity:1;stroke:#ffffff;stroke-width:2.81111097;stroke-miterlimit:4;stroke-opacity:1;stroke-dasharray:none" /><path
   d="M 16.12185,13.860897 C 15.912986,11.52312 14.013941,9.6854808 11.673847,9.6854808 c -2.4769698,0 -4.4855172,2.0545042 -4.4855172,4.5904672 0,2.141665 1.439746,3.926385 3.3783332,4.432747 1.43569,-1.953853 3.334734,-3.605757 5.555187,-4.847798 z"
   id="path3011"
   style="fill:#686868;fill-opacity:1;stroke:#ffffff;stroke-width:2.81111097;stroke-miterlimit:4;stroke-opacity:1;stroke-dasharray:none" /><path
   d="m 40.895613,18.792744 c 2.132244,-0.355907 3.762603,-2.235051 3.762603,-4.516796 0,-2.535963 -2.008546,-4.5904672 -4.485517,-4.5904672 -2.415123,0 -4.369932,1.9569672 -4.467267,4.4047322 2.071409,1.230626 3.836618,2.834799 5.190181,4.702531 z"
   id="path3013"
   style="fill:#686868;fill-opacity:1;stroke:#ffffff;stroke-width:2.81111097;stroke-miterlimit:4;stroke-opacity:1;stroke-dasharray:none" /><path
   d="m 43.809577,27.582491 c 0,1.979795 -0.416714,3.868279 -1.143685,5.621869 1.090962,0.768883 2.410054,1.222326 3.835604,1.222326 3.738269,0 6.769846,-3.10147 6.769846,-6.928243 0,-3.825734 -3.031577,-6.927205 -6.769846,-6.927205 -1.447857,0 -2.787226,0.469008 -3.887314,1.261755 0.759416,1.788872 1.195395,3.721972 1.195395,5.749498 z"
   id="path3015"
   style="fill:#686868;fill-opacity:1;stroke:#ffffff;stroke-width:2.81111097;stroke-miterlimit:4;stroke-opacity:1;stroke-dasharray:none" /><g
   transform="matrix(0,1.0376281,-1.0139053,0,56.54727,-0.9491698)"
   id="g3017"
   style="fill:#686868;fill-opacity:1;stroke:#ffffff;stroke-width:1.42992032;stroke-miterlimit:4;stroke-opacity:1;stroke-dasharray:none"><path
     d="m 43.102,30.421 c 0,4.7344 -1.6452,9.2798 -4.5706,12.6275 -2.9254,3.3478 -6.8973,5.2305 -11.0344,5.2305 -4.1371,0 -8.109,-1.8827 -11.0344,-5.2305 -2.9254,-3.3477 -4.5706,-7.8931 -4.5706,-12.6275 0,-9.7966 7.0444,-17.858 15.605,-17.858 8.5606,0 15.605,8.0614 15.605,17.858 z"
     id="path3019"
     style="fill:#686868;fill-opacity:1;stroke:#ffffff;stroke-width:1.42992032;stroke-miterlimit:4;stroke-opacity:1;stroke-dasharray:none" /></g><g
   transform="matrix(0,1.0376281,-1.0139053,0,56.54727,-0.9491698)"
   id="g3021"
   style="fill:#ffffff;fill-opacity:1;stroke:none"><path
     d="m 25.875,33.75 -1.542,-4.625 3.164,-2.587 3.615,2.626 -1.487,4.669 z"
     id="path3023"
     style="fill:#ffffff;fill-opacity:1;stroke:none" /><path
     d="m 27.501,41.551 c -3.968,-0.16 -5.543,-2.009 -5.543,-2.009 l 3.57,-4.163 4.465,0.168 3.132,4.12 c 0,0 -2.89,1.994 -5.624,1.884 z"
     id="path3025"
     style="fill:#ffffff;fill-opacity:1;stroke:none" /><path
     d="m 18.453,33.843 c -0.849,-2.968 0.172,-6.884 0.172,-6.884 l 4,2.167 1.493,4.629 -3.582,4.233 c 0,-10e-4 -1.465,-1.99 -2.083,-4.145 z"
     id="path3027"
     style="fill:#ffffff;fill-opacity:1;stroke:none" /><path
     d="m 19.458,25.125 c 0,0 0.5,-1.958 3.039,-3.822 2.237,-1.643 4.465,-1.72 4.465,-1.72 l -0.037,4.981 -3.521,2.75 -3.946,-2.189 z"
     id="path3029"
     style="fill:#ffffff;fill-opacity:1;stroke:none" /><path
     d="M 32.084,27.834 28.625,24.959 29,19.75 c 0,0 1.834,-0.042 3.959,1.667 2.228,1.791 3.362,4.983 3.362,4.983 l -4.237,1.434 z"
     id="path3031"
     style="fill:#ffffff;fill-opacity:1;stroke:none" /><path
     d="m 31.292,34.042 1.313,-4.464 4.187,-1.536 c 0,0 0.677,2.663 -0.042,5.667 -0.54,2.256 -2.084,4.361 -2.084,4.361 l -3.374,-4.028 z"
     id="path3033"
     style="fill:#ffffff;fill-opacity:1;stroke:none" /></g><path
   d=""
   id="path2385"
   style="fill:#a0ffa0;fill-opacity:1;stroke:#00c000;stroke-width:1.5;stroke-linecap:round;stroke-miterlimit:4;stroke-opacity:1;stroke-dasharray:none" /></svg>