<?xml version="1.0" encoding="UTF-8" standalone="no"?>
<!-- Created with Inkscape (http://www.inkscape.org/) -->
<svg
   xmlns:svg="http://www.w3.org/2000/svg"
   xmlns="http://www.w3.org/2000/svg"
   version="1.0"
   width="45"
   height="45"
   viewBox="0 0 55 55"
   id="svg2"
   xml:space="preserve"><defs
     id="defs12">
	
</defs><path
     d="M 36.852226,15.69838 A 11.523279,10.799595 0 1 1 13.805668,15.69838 A 11.523279,10.799595 0 1 1 36.852226,15.69838 z"
     transform="matrix(2.1478261,0,0,2.2917526,-26.902174,-8.4768043)"
     id="path2387"
     style="opacity:1;fill:#00d000;fill-opacity:1;stroke:#00d000;stroke-width:1.92812335;stroke-linecap:round;stroke-miterlimit:4;stroke-dasharray:none;stroke-opacity:0.94117647" /><path
     d="M 11.990413,18.017646 C 12.802994,19.393237 13.858719,20.841774 13.990413,21.517646 C 14.122107,22.193518 13.329772,22.096724 12.490413,23.517646 C 10.794222,26.389069 10.794222,28.646223 12.490413,31.517646 C 13.329772,32.938568 14.122107,32.841774 13.990413,33.517646 C 13.858718,34.193518 12.802994,35.642056 11.990413,37.017646 C 11.046828,38.615007 10.990413,43.023282 10.990413,44.017646 C 10.990413,45.380621 12.807811,43.627769 14.990413,41.017646 L 17.990413,37.017646 L 19.990413,39.017646 C 23.591808,41.069647 25.719736,41.577324 28.990413,40.017646 L 31.490413,38.017646 L 35.490413,43.517646 C 37.137547,45.570847 39.948387,44.852636 40.490413,44.517646 C 40.764949,44.347974 40.805225,42.944288 40.490413,42.017646 C 40.1756,41.091004 39.505699,40.641406 38.740413,39.842619 C 36.142025,37.130486 35.350389,38.404433 36.490413,34.599372 C 37.80724,30.204194 38.882093,29.476417 41.926378,32.231458 C 43.631038,33.774153 45.067291,33.528342 46.931589,31.841175 C 49.474312,29.540042 49.591959,25.848191 47.049236,23.547058 C 45.184938,21.859891 43.513391,21.261139 41.808731,22.803834 C 38.764446,25.558875 37.80724,24.595804 36.490413,20.200626 C 35.35435,16.408784 36.215144,17.428871 38.740413,14.793058 C 39.477179,14.024039 40.18719,13.844329 40.490413,13.017646 C 40.793637,12.190963 40.690074,10.717307 40.490413,10.517646 C 40.091093,10.118326 37.237542,9.4366173 35.490413,11.517646 L 31.490413,17.017646 L 28.990413,15.017646 C 25.70771,13.452234 23.5949,13.963884 19.990413,16.017646 L 17.990413,18.017646 L 14.990413,14.017646 C 12.807811,11.407523 10.990413,9.6546713 10.990413,11.017646 C 10.990413,12.01201 11.046828,16.420285 11.990413,18.017646 z"
     id="path2582"
     style="fill:#ffffff;fill-opacity:1;stroke:#000000;stroke-width:1.83333337;stroke-miterlimit:4;stroke-dasharray:none;stroke-opacity:1" /><path
     d="M 33.952541,27.5 L 21.047459,34.959514 C 21.047459,20.040486 21.047459,20.040486 21.047459,20.040486 L 33.952541,27.5 z"
     id="path2496"
     style="fill:#00d000;fill-opacity:1;fill-rule:evenodd;stroke:#00d000;stroke-width:1px;stroke-linecap:butt;stroke-linejoin:miter;stroke-opacity:1" /><path
     d="M 41.082996,20.207489 A 17.424089,16.199392 0 1 1 41.082996,20.207489 A 17.424089,16.199392 0 1 1 41.082996,20.207489 z"
     id="path2385"
     style="opacity:1;fill:#00d000;fill-opacity:1;stroke:#00d000;stroke-width:1.5;stroke-linecap:round;stroke-miterlimit:4;stroke-dasharray:none;stroke-opacity:1" /></svg>
