<?xml version="1.0" encoding="UTF-8" standalone="no"?>
<!-- Created with Inkscape (http://www.inkscape.org/) -->

<svg
   xmlns:dc="http://purl.org/dc/elements/1.1/"
   xmlns:cc="http://creativecommons.org/ns#"
   xmlns:rdf="http://www.w3.org/1999/02/22-rdf-syntax-ns#"
   xmlns:svg="http://www.w3.org/2000/svg"
   xmlns="http://www.w3.org/2000/svg"
   version="1.0"
   width="55"
   height="55"
   id="svg2">
  <path
     d="m 1.5,25.5 0,-8 a 8,8 0 0 1 8,-8 l 8,0 0,4 20,0 0,-4 8,0 a 8,8 0 0 1 8,8 l 0,8 0,8 a 8,8 0 0 1 -8,8 l -8,0 -2,0 0,4 -16,0 0,-4 -2,0 -8,0 a 8,8 0 0 1 -8,-8 l 0,-8 z"
     id="path2882"
     style="fill:#404040;fill-opacity:1;stroke:none" />
</svg>
