<?xml version="1.0" encoding="UTF-8" standalone="no"?>
<!-- Created with Inkscape (http://www.inkscape.org/) -->

<svg
   xmlns:dc="http://purl.org/dc/elements/1.1/"
   xmlns:cc="http://creativecommons.org/ns#"
   xmlns:rdf="http://www.w3.org/1999/02/22-rdf-syntax-ns#"
   xmlns:svg="http://www.w3.org/2000/svg"
   xmlns="http://www.w3.org/2000/svg"
   version="1.0"
   width="55"
   height="55"
   id="svg2">
  <metadata
     id="metadata4183">
    <rdf:RDF>
      <cc:Work
         rdf:about="">
        <dc:format>image/svg+xml</dc:format>
        <dc:type
           rdf:resource="http://purl.org/dc/dcmitype/StillImage" />
        <dc:title></dc:title>
      </cc:Work>
    </rdf:RDF>
  </metadata>
  <defs
     id="defs5" />
  <rect
     width="45"
     height="45"
     x="5"
     y="5"
     id="rect2990"
     style="fill:#282828;fill-opacity:1;stroke:none" />
  <path
     d="m 38.999052,40.01547 a 11.011069,3.4902595 0 1 1 -22.022137,0 11.011069,3.4902595 0 1 1 22.022137,0 z"
     id="path2822"
     style="fill:none;stroke:#ffffff;stroke-width:2.29999995;stroke-linecap:round;stroke-miterlimit:4;stroke-opacity:1;stroke-dasharray:none" />
  <path
     d="m 41.281336,14.477147 a 13.76451,3.1119547 0 0 1 -27.529019,0 13.76451,3.1119547 0 1 1 27.529019,0 z"
     id="path2818"
     style="fill:none;stroke:#ffffff;stroke-width:2.29999995;stroke-linecap:square;stroke-miterlimit:4;stroke-opacity:1;stroke-dasharray:none" />
  <path
     d="m 19.177124,38.236004 c 0,0 5.109982,-1.82439 8.51834,-1.867761 3.408358,-0.04337 9.177123,1.744692 9.177123,1.744692"
     id="path4192"
     style="fill:none;stroke:#282828;stroke-width:3;stroke-linecap:round;stroke-linejoin:miter;stroke-miterlimit:4;stroke-opacity:1;stroke-dasharray:none" />
  <g
     id="g4702">
    <path
       d="m 13.75483,14.61245 c 3.56733,24.489728 3.430201,24.354426 3.430201,24.354426 l 0,0"
       id="path2820"
       style="fill:none;stroke:#ffffff;stroke-width:1.5;stroke-linecap:round;stroke-linejoin:miter;stroke-miterlimit:4;stroke-opacity:1;stroke-dasharray:none" />
    <path
       d="m 15.951887,16.457318 c 3.836562,25.030939 3.656235,25.621512 3.656235,25.621512"
       id="path3620"
       style="fill:none;stroke:#ffffff;stroke-width:1.5;stroke-linecap:round;stroke-linejoin:miter;stroke-miterlimit:4;stroke-opacity:1;stroke-dasharray:none" />
    <path
       d="m 20.66094,17.470259 c 2.288476,25.03094 2.24528,25.62334 2.24528,25.62334"
       id="path3624"
       style="fill:none;stroke:#ffffff;stroke-width:1.5;stroke-linecap:round;stroke-linejoin:miter;stroke-miterlimit:4;stroke-opacity:1;stroke-dasharray:none" />
    <path
       d="m 26.831688,18.009641 c 0.06731,24.963289 0.180327,25.396617 0.180327,25.396617"
       id="path3628"
       style="fill:none;stroke:#ffffff;stroke-width:1.5;stroke-linecap:round;stroke-linejoin:miter;stroke-miterlimit:4;stroke-opacity:1;stroke-dasharray:none" />
    <path
       d="M 34.281292,17.792054 C 31.790893,43.567158 32.084236,43.133828 32.084236,43.133828"
       id="path3626"
       style="fill:none;stroke:#ffffff;stroke-width:1.5;stroke-linecap:round;stroke-linejoin:miter;stroke-miterlimit:4;stroke-opacity:1;stroke-dasharray:none" />
    <path
       d="m 39.328864,16.340019 c -2.902587,25.706467 -2.96102,25.806464 -2.96102,25.806464"
       id="path3622"
       style="fill:none;stroke:#ffffff;stroke-width:1.5;stroke-linecap:round;stroke-linejoin:miter;stroke-miterlimit:4;stroke-opacity:1;stroke-dasharray:none" />
    <path
       d="m 41.24517,14.793462 c -2.625017,24.01617 -2.55771,24.314197 -2.55771,24.314197"
       id="path2820-4"
       style="fill:none;stroke:#ffffff;stroke-width:1.5;stroke-linecap:round;stroke-linejoin:miter;stroke-miterlimit:4;stroke-opacity:1;stroke-dasharray:none" />
  </g>
</svg>
