<?xml version="1.0" encoding="UTF-8" standalone="no"?>
<!-- Created with Inkscape (http://www.inkscape.org/) -->

<svg
   xmlns:svg="http://www.w3.org/2000/svg"
   xmlns="http://www.w3.org/2000/svg"
   version="1.0"
   width="55"
   height="55"
   id="svg2">
  <defs
     id="defs5" />
  <rect
     width="55"
     height="55"
     rx="0"
     x="0"
     y="0"
     id="rect2839"
     style="fill:#ffd200;fill-opacity:1;fill-rule:evenodd;stroke:none" />
  <path
     d="m 38.982225,40.079903 a 11.011069,3.4902595 0 1 1 -22.022137,0 11.011069,3.4902595 0 1 1 22.022137,0 z"
     id="path2822-6"
     style="fill:#808080;fill-opacity:1;stroke:#000000;stroke-width:2.29999995;stroke-linecap:round;stroke-miterlimit:4;stroke-opacity:1;stroke-dasharray:none" />
  <path
     d="m 13.738004,14.676883 c 3.567329,24.489728 3.4302,24.354426 3.4302,24.354426 l 0,0"
     id="path2820-5"
     style="fill:none;stroke:#000000;stroke-width:1.5;stroke-linecap:round;stroke-linejoin:miter;stroke-miterlimit:4;stroke-opacity:1;stroke-dasharray:none" />
  <path
     d="m 41.228343,14.857895 c -2.625016,24.01617 -2.55771,24.314197 -2.55771,24.314197"
     id="path2820-4-6"
     style="fill:none;stroke:#000000;stroke-width:1.5;stroke-linecap:round;stroke-linejoin:miter;stroke-miterlimit:4;stroke-opacity:1;stroke-dasharray:none" />
  <path
     d="m 15.93506,16.521751 c 3.836562,25.030939 3.656235,25.621512 3.656235,25.621512"
     id="path3620-9"
     style="fill:none;stroke:#000000;stroke-width:1.5;stroke-linecap:round;stroke-linejoin:miter;stroke-miterlimit:4;stroke-opacity:1;stroke-dasharray:none" />
  <path
     d="m 39.312038,16.404452 c -2.902587,25.706467 -2.96102,25.806464 -2.96102,25.806464"
     id="path3622-3"
     style="fill:none;stroke:#000000;stroke-width:1.5;stroke-linecap:round;stroke-linejoin:miter;stroke-miterlimit:4;stroke-opacity:1;stroke-dasharray:none" />
  <path
     d="m 20.644113,17.534692 c 2.288476,25.03094 2.24528,25.62334 2.24528,25.62334"
     id="path3624-7"
     style="fill:none;stroke:#000000;stroke-width:1.5;stroke-linecap:round;stroke-linejoin:miter;stroke-miterlimit:4;stroke-opacity:1;stroke-dasharray:none" />
  <path
     d="M 34.264465,17.856487 C 31.774066,43.631591 32.067409,43.198261 32.067409,43.198261"
     id="path3626-4"
     style="fill:none;stroke:#000000;stroke-width:1.5;stroke-linecap:round;stroke-linejoin:miter;stroke-miterlimit:4;stroke-opacity:1;stroke-dasharray:none" />
  <path
     d="m 26.814861,18.074074 c 0.06731,24.963289 0.180327,25.396617 0.180327,25.396617"
     id="path3628-5"
     style="fill:none;stroke:#000000;stroke-width:1.5;stroke-linecap:round;stroke-linejoin:miter;stroke-miterlimit:4;stroke-opacity:1;stroke-dasharray:none" />
  <path
     d="m 41.26451,14.54158 a 13.76451,3.1119547 0 0 1 -27.529019,0 13.76451,3.1119547 0 1 1 27.529019,0 z"
     id="path2818-2"
     style="fill:none;stroke:#000000;stroke-width:2.29999995;stroke-linecap:square;stroke-miterlimit:4;stroke-opacity:1;stroke-dasharray:none" />
</svg>
