<?xml version="1.0" encoding="utf-8"?>
<!-- Generator: Adobe Illustrator 12.0.1, SVG Export Plug-In . SVG Version: 6.00 Build 51448)  -->
<!DOCTYPE svg PUBLIC "-//W3C//DTD SVG 1.1//EN" "http://www.w3.org/Graphics/SVG/1.1/DTD/svg11.dtd" [
	<!ENTITY ns_svg "http://www.w3.org/2000/svg">
	<!ENTITY ns_xlink "http://www.w3.org/1999/xlink">
	<!ENTITY stroke_color "#ffffff">
]>
<svg
   xmlns:svg="http://www.w3.org/2000/svg"
   xmlns="http://www.w3.org/2000/svg"
   version="1.0"
   width="55"
   height="55"
   viewBox="0 0 55 55"
   id="svg2"
   xml:space="preserve">
<g
   transform="translate(-0.5507515,-1.7569535)">
  <line
   fill="none"
   stroke="&stroke_color;" 
   style="stroke-width:3.5;stroke-linecap:round;stroke-linejoin:round;stroke-opacity:1"
   id="line3290"
   y2="4.9169998"
   y1="16.188"
   x2="52.441002"
   x1="41.169998" />
  <polyline
   fill="none"
   stroke="&stroke_color;"
   style="stroke-width:3.5;stroke-linecap:round;stroke-linejoin:round;stroke-opacity:1"
   id="polyline3292"
   points="51.562,15.306 41.17,16.188 42.053,5.794" />
</g>
<g
   transform="translate(-6,2)">
  <polygon
   points="10.932,6.088 31.874,6.088 43.818,18.027 43.818,48.914 10.932,48.914 10.932,6.088 "
   id="polygon9"
   fill="none"
   stroke="&stroke_color;" 
   style="stroke-width:3.5" />
  <polyline
   fill="none"
   stroke="&stroke_color;" 
   style="stroke-width:3.5"
   id="polyline11"
   points="43.818,18.027 31.874,18.027 31.874,6.088" />

  <path
     d="M 27.379465,42.19975 C 27.102965,42.19975 26.829965,42.18225 26.560965,42.14975 L 27.254965,43.32425 L 27.938965,42.16775 C 27.753465,42.18275 27.568465,42.19975 27.379465,42.19975 z"
     fill="none"
     stroke="&stroke_color;" 
     style="stroke-width:1.5;stroke-miterlimit:4;stroke-dasharray:none;stroke-opacity:1" />
   <g
     transform="matrix(0.5,0,0,0.5,13.630965,18.06025)"
     fill="none"
     stroke="&stroke_color;" 
     style="stroke-width:3;stroke-miterlimit:4;stroke-dasharray:none;stroke-opacity:1">
    <path
       d="M 40.16,11.726 C 37.996,11.726 36.202,13.281 35.817,15.333 C 37.676,16.678 39.274,18.448 40.492,20.541 C 42.777,20.369 44.586,18.48 44.586,16.151 C 44.586,13.707 42.604,11.726 40.16,11.726 z"
       fill="none"
       stroke="&stroke_color;" 
       style="stroke-width:3;stroke-miterlimit:4;stroke-dasharray:none;stroke-opacity:1" />
    <path
       d="M 40.713,39.887 C 39.489,42.119 37.853,44.018 35.916,45.443 C 36.437,47.307 38.129,48.682 40.16,48.682 C 42.603,48.682 44.586,46.702 44.586,44.258 C 44.586,42.003 42.893,40.162 40.713,39.887 z"
       fill="none"
       stroke="&stroke_color;" 
       style="stroke-width:3;stroke-miterlimit:4;stroke-dasharray:none;stroke-opacity:1" />
    <path
       d="M 14.273,39.871 C 12.02,40.077 10.249,41.95 10.249,44.258 C 10.249,46.701 12.229,48.682 14.673,48.682 C 16.737,48.682 18.457,47.262 18.945,45.35 C 17.062,43.934 15.47,42.061 14.273,39.871 z"
       fill="none"
       stroke="&stroke_color;" 
       style="stroke-width:3;stroke-miterlimit:4;stroke-dasharray:none;stroke-opacity:1" />
    <path
       d="M 19.026,15.437 C 18.683,13.334 16.872,11.726 14.673,11.726 C 12.229,11.726 10.249,13.707 10.249,16.15 C 10.249,18.532 12.135,20.46 14.494,20.556 C 15.68,18.513 17.226,16.772 19.026,15.437 z"
       fill="none"
       stroke="&stroke_color;" 
       style="stroke-width:3;stroke-miterlimit:4;stroke-dasharray:none;stroke-opacity:1" />
   </g>
   <path
     d="M 27.379465,24.34175 C 28.333465,24.34175 29.243465,24.54725 30.088465,24.90575 C 30.458965,24.36775 30.677465,23.71725 30.677465,23.01425 C 30.677465,21.17075 29.182965,19.67575 27.338965,19.67575 C 25.495465,19.67575 24.000965,21.17075 24.000965,23.01425 C 24.000965,23.72825 24.226965,24.38875 24.608965,24.93125 C 25.470965,24.55675 26.402465,24.34175 27.379465,24.34175 z"
     fill="none"
     stroke="&stroke_color;" 
     style="stroke-width:1.5;stroke-miterlimit:4;stroke-dasharray:none;stroke-opacity:1" />
   <g
     transform="matrix(0.5,0,0,0.5,13.630965,18.06025)"
     fill="none"
     stroke="&stroke_color;" 
     style="stroke-width:3;stroke-miterlimit:4;stroke-dasharray:none;stroke-opacity:1">
    <path
       d="M 43.102,30.421 C 43.102,35.1554 41.4568,39.7008 38.5314,43.0485 C 35.606,46.3963 31.6341,48.279 27.497,48.279 C 23.3599,48.279 19.388,46.3963 16.4626,43.0485 C 13.5372,39.7008 11.892,35.1554 11.892,30.421 C 11.892,20.6244 18.9364,12.563 27.497,12.563 C 36.0576,12.563 43.102,20.6244 43.102,30.421 z"
       id="path2988"
       fill="none"
       stroke="&stroke_color;" 
       style="stroke-width:3;stroke-miterlimit:4;stroke-dasharray:none;stroke-opacity:1" />
   </g>
   <g
     transform="matrix(0.5,0,0,0.5,13.630965,18.06025)"
     fill="none"
     stroke="&stroke_color;" 
     style="stroke-width:1.5;stroke-miterlimit:4;stroke-dasharray:none;stroke-opacity:1">
    <path
       d="M 25.875,33.75 L 24.333,29.125 L 27.497,26.538 L 31.112,29.164 L 29.625,33.833 L 25.875,33.75 z"
       fill="none"
       stroke="&stroke_color;" 
       style="stroke-width:1.5;stroke-miterlimit:4;stroke-dasharray:none;stroke-opacity:1" />
    <path
       d="M 27.501,41.551 C 23.533,41.391 21.958,39.542 21.958,39.542 L 25.528,35.379 L 29.993,35.547 L 33.125,39.667 C 33.125,39.667 30.235,41.661 27.501,41.551 z"
       fill="none"
       stroke="&stroke_color;" 
       style="stroke-width:1.5;stroke-miterlimit:4;stroke-dasharray:none;stroke-opacity:1" />
    <path
       d="M 18.453,33.843 C 17.604,30.875 18.625,26.959 18.625,26.959 L 22.625,29.126 L 24.118,33.755 L 20.536,37.988 C 20.536,37.987 19.071,35.998 18.453,33.843 z"
       fill="none"
       stroke="&stroke_color;" 
       style="stroke-width:1.5;stroke-miterlimit:4;stroke-dasharray:none;stroke-opacity:1" />
    <path
       d="M 19.458,25.125 C 19.458,25.125 19.958,23.167 22.497,21.303 C 24.734,19.66 26.962,19.583 26.962,19.583 L 26.925,24.564 L 23.404,27.314 L 19.458,25.125 z"
       id="path2998"
       fill="none"
       stroke="&stroke_color;" 
       style="stroke-width:1.5;stroke-miterlimit:4;stroke-dasharray:none;stroke-opacity:1" />
    <path
       d="M 32.084,27.834 L 28.625,24.959 L 29,19.75 C 29,19.75 30.834,19.708 32.959,21.417 C 35.187,23.208 36.321,26.4 36.321,26.4 L 32.084,27.834 z"
       fill="none"
       stroke="&stroke_color;" 
       style="stroke-width:1.5;stroke-miterlimit:4;stroke-dasharray:none;stroke-opacity:1" />
    <path
       d="M 31.292,34.042 L 32.605,29.578 L 36.792,28.042 C 36.792,28.042 37.469,30.705 36.75,33.709 C 36.21,35.965 34.666,38.07 34.666,38.07 L 31.292,34.042 z"
       id="path3002"
       style="stroke-width:1.5;stroke-miterlimit:4;stroke-dasharray:none;stroke-opacity:1" />
   </g>
</g>
</svg>
