<?xml version="1.0" encoding="UTF-8" standalone="no"?>
<svg
   xmlns="http://www.w3.org/2000/svg"
   width="145"
   height="404"
   version="1.0">
  <rect
     style="opacity:1;fill:#ffffff;fill-opacity:1;stroke:none;stroke-width:4;stroke-opacity:1"
     width="143"
     height="404"
     x="1"
     y="0" />
  <rect
     style="opacity:1;fill:#080808;fill-opacity:1;stroke:none;stroke-width:1;stroke-opacity:1"
     width="145"
     height="29"
     x="0"
     y="0" />
  <path
     style="fill:#080808;fill-opacity:1;stroke:none;stroke-width:1px;stroke-opacity:1"
     d="M 0.5,374.5 L 0.5,390.5 L 3.5,397.5 L 8.5,401.5 L 15,404 L 129,404 L 136,401.5 L 142,396.5 L 145,388.5 L 145,374.5 L 0.5,374.5 z" />
  <path
     style="fill:#101010;fill-opacity:1;stroke:#101010;stroke-width:1;stroke-opacity:1"
     d="M 69,56 L 69,56 L 43,72 L 43,72 L 43,74 L 30,74 L 30,72 C 30,72 4,56 4,56 C 4,56 37,38 37,38 C 37,38 69,56 69,56 z" />
  <path
     style="fill:#202020;fill-opacity:1;stroke:#202020;stroke-width:1;stroke-opacity:1"
     d="M 69,110 L 69,110 L 43,125 L 43,125 L 43,128 L 30,128 L 30,125 C 30,125 4,110 4,110 C 4,110 37,92 37,92 C 37,92 69,110 69,110 z" />
  <path
     style="fill:#181818;fill-opacity:1;stroke:#181818;stroke-width:1;stroke-opacity:1"
     d="M 113,42 C 124,42 124,42 124,42 C 124,42 127,44 128,45 C 129,46 130,49 130,49 L 130,62 C 130,62 129,64 128,65 C 127,66 124,68 124,68 L 113,68 L 113,68 L 113,70 L 99,70 L 99,68 L 88,68 C 88,68 85,66 84,65 C 83,64 82,62 82,62 L 82,49 C 82,49 83,46 84,45 C 85,44 88,42 88,42 L 99,42 L 99,46 L 113,46 L 113,42 z" />
  <path
     style="fill:#282828;fill-opacity:1;stroke:#282828;stroke-width:1;stroke-opacity:1"
     d="M 113,96 C 124,96 124,96 124,96 C 124,96 127,97 128,98 C 129,99 130,102 130,102 L 130,115 C 130,115 129,117 128,118 C 127,119 124,121 124,121 L 113,121 L 113,121 L 113,124 L 99,124 L 99,121 L 88,121 C 88,121 85,119 84,118 C 83,117 82,115 82,115 L 82,102 C 82,102 83,99 84,98 C 85,97 88,96 88,96 L 99,96 L 99,99 L 113,99 L 113,96 z" />
  <g
     transform="matrix(0.6667,0,0,0.6667,7.51477,160)"
     style="fill:#303030;fill-opacity:1;stroke:#303030;stroke-opacity:1">
    <path
       d="M 70,6 L 86,6 L 86,12 L 82,12 L 82,9 L 72,9"
       style="fill:#303030;fill-opacity:1;stroke:#303030;stroke-width:1;stroke-opacity:1" />
    <path
       d="M 70,33 L 86,33 L 86,27 L 82,27 L 82,30 L 72,30"
       style="fill:#303030;fill-opacity:1;stroke:#303030;stroke-width:1;stroke-opacity:1" />
  </g>
  <path
     style="fill:#303030;fill-opacity:1;stroke:#303030;stroke-width:1;stroke-opacity:1"
     d="M 39,155 C 50,155 50,155 50,155 L 53,157 L 56,161 L 56,184 L 53,188 L 50,191 L 38,191 L 38,191 L 38,193 L 25,193 L 25,191 L 14,191 L 10,188 L 8,184 L 8,161 L 10,157 L 14,155 L 24,155 L 24,158 L 39,158 L 39,155 z" />
  <g
     transform="matrix(0.6667,0,0,0.6667,7.51477,212.83162)"
     style="fill:#404040;fill-opacity:1;stroke:#404040;stroke-opacity:1">
    <path
       d="M 70,6 L 86,6 L 86,12 L 82,12 L 82,9 L 72,9"
       style="fill:#404040;fill-opacity:1;stroke:#404040;stroke-width:1;stroke-opacity:1" />
    <path
       d="M 70,33 L 86,33 L 86,27 L 82,27 L 82,30 L 72,30"
       style="fill:#404040;fill-opacity:1;stroke:#404040;stroke-width:1;stroke-opacity:1" />
  </g>
  <path
     style="fill:#404040;fill-opacity:1;stroke:#404040;stroke-width:1;stroke-opacity:1"
     d="M 39,207 C 50,207 50,207 50,207 L 53,210 L 56,214 L 56,236 L 53,240 L 50,243 L 38,243 L 38,243 L 38,246 L 25,246 L 25,243 L 14,243 L 10,240 L 8,236 L 8,214 L 10,210 L 14,207 L 24,207 L 24,210 L 39,210 L 39,207 z" />
  <path
     style="fill:#383838;fill-opacity:1;stroke:#383838;stroke-width:1;stroke-opacity:1"
     d="M 70,167 L 73,167 L 73,170 L 78,170 L 78,167 L 139,167 L 139,181 L 78,181 L 78,178 L 73,178 L 73,181 L 70,181 L 70,167 z" />
  <path
     style="fill:#484848;fill-opacity:1;stroke:#484848;stroke-width:1;stroke-opacity:1"
     d="M 70,220 L 73,220 L 73,222 L 78,222 L 78,220 L 139,220 L 139,233 L 78,233 L 78,230 L 73,230 L 73,233 L 70,233 L 70,220 z" />
</svg>
