<?xml version="1.0" encoding="UTF-8" standalone="no"?> 
 <svg 
    xmlns:svg="http://www.w3.org/2000/svg" 
    xmlns="http://www.w3.org/2000/svg" 
    width="87" 
    height="60" 
    version="1.0"> 
   <defs> 
     <linearGradient 
        id="linearGradient3166"> 
       <stop 
          style="stop-color:#ffffff;stop-opacity:1;" 
          offset="0" 
          id="stop3168" /> 
       <stop 
          style="stop-color:#00ffff;stop-opacity:1;" 
          offset="1" 
          id="stop3170" /> 
     </linearGradient> 
     <linearGradient 
        xlink:href="#linearGradient3166" 
        id="linearGradient3172" 
        x1="0" 
        y1="22" 
        x2="74" 
        y2="22" 
        gradientUnits="userSpaceOnUse" /> 
   </defs> 
   <g 
      transform="translate(0,8.75)"> 
     <path 
        d="M 70,6 L 86.5,6 L 86.5,12 L 82.5,12 L 82.5,9 L 72,9" 
        style="fill:#00e0e0;fill-opacity:1;stroke:#008080;stroke-width:1.5;stroke-opacity:1" /> 
     <path 
        d="M 70,33.5 L 86.5,33.5 L 86.5,27.5 L 82.5,27.5 L 82.5,30.5 L 72,30.5" 
        style="fill:#00e0e0;fill-opacity:1;stroke:#008080;stroke-width:1.5;stroke-opacity:1" /> 
   </g> 
   <path 
      style="fill:url(#linearGradient3172);fill-opacity:1;stroke:#00a0a0;stroke-width:2;stroke-opacity:1" 
      d="M 48,1 C 64,1 64,1 64,1 L 69.5,5 L 73,11 L 73,45 L 69.5,51 L 64,55 L 47,55 L 47,55 L 47,59 L 27,59 L 27,55 L 10,55 L 4.5,51 L 1,45 L 1,11 L 4.5,5 L 10,1 L 26,1 L 26,6 L 48,6 L 48,1 z" /> 
  <text
     x="3.0991488"
     transform="scale(0.9650292,1.036238)"
     id="text18"
     style="font-size:17.37052536px;text-align:center;text-anchor:middle;font-family:Bitstream Vera Sans">
    <tspan
       x="38.805229"
       y="19.300585"
       id="tspan20"
       style="font-size:15.44046688px">seleziona</tspan>
  </text>
  <text
     x="10.713117"
     transform="scale(0.8657056,1.1551271)"
     id="text22"
     style="font-size:15.58270073px;text-align:center;text-anchor:middle;font-family:Bitstream Vera Sans">
    <tspan
       x="42.744221"
       y="30.299696"
       id="tspan24"
       style="font-size:13.85128975px">dimensione</tspan>
  </text>
  <text
     id="text26"
     style="font-size:18px;text-align:center;text-anchor:middle;font-family:Bitstream Vera Sans">
    <tspan
       x="37"
       y="50"
       id="tspan28"
       style="font-size:16px">testo</tspan>
  </text>
 </svg> 
