<?xml version="1.0" encoding="UTF-8" standalone="no"?>
<!-- Created with Inkscape (http://www.inkscape.org/) -->
<svg
   xmlns:svg="http://www.w3.org/2000/svg"
   xmlns="http://www.w3.org/2000/svg"
   xmlns:xlink="http://www.w3.org/1999/xlink"
   version="1.0"
   width="145"
   height="500"
   id="svg2">
  <defs
     id="defs4">
    <linearGradient
       id="linearGradient3876">
      <stop
         id="stop3878"
         style="stop-color:#ffffff;stop-opacity:1"
         offset="0" />
      <stop
         id="stop3880"
         style="stop-color:#00ffff;stop-opacity:1"
         offset="1" />
    </linearGradient>
    <linearGradient
       x1="18"
       y1="48"
       x2="67"
       y2="48"
       id="linearGradient4830"
       xlink:href="#linearGradient3876"
       gradientUnits="userSpaceOnUse" />
    <linearGradient
       x1="77"
       y1="48"
       x2="126"
       y2="48"
       id="linearGradient4838"
       xlink:href="#linearGradient3876"
       gradientUnits="userSpaceOnUse" />
    <linearGradient
       x1="43"
       y1="95"
       x2="92"
       y2="95"
       id="linearGradient4846"
       xlink:href="#linearGradient3876"
       gradientUnits="userSpaceOnUse" />
    <linearGradient
       x1="43"
       y1="147"
       x2="92"
       y2="147"
       id="linearGradient4854"
       xlink:href="#linearGradient3876"
       gradientUnits="userSpaceOnUse" />
    <linearGradient
       x1="43"
       y1="199"
       x2="92"
       y2="199"
       id="linearGradient4862"
       xlink:href="#linearGradient3876"
       gradientUnits="userSpaceOnUse" />
    <linearGradient
       x1="43"
       y1="258"
       x2="92"
       y2="258"
       id="linearGradient4870"
       xlink:href="#linearGradient3876"
       gradientUnits="userSpaceOnUse" />
    <linearGradient
       x1="37"
       y1="312"
       x2="107"
       y2="312"
       id="linearGradient4878"
       xlink:href="#linearGradient3876"
       gradientUnits="userSpaceOnUse"
       gradientTransform="translate(0,65)" />
    <linearGradient
       x1="37"
       y1="337"
       x2="107"
       y2="337"
       id="linearGradient4886"
       xlink:href="#linearGradient3876"
       gradientUnits="userSpaceOnUse"
       gradientTransform="translate(0,61)" />
    <linearGradient
       x1="37"
       y1="362"
       x2="107"
       y2="362"
       id="linearGradient4894"
       xlink:href="#linearGradient3876"
       gradientUnits="userSpaceOnUse"
       gradientTransform="translate(0,57)" />
    <linearGradient
       x1="37"
       y1="337"
       x2="107"
       y2="337"
       id="linearGradient2501"
       xlink:href="#linearGradient3876"
       gradientUnits="userSpaceOnUse"
       gradientTransform="translate(0,95)" />
    <linearGradient
       x1="43"
       y1="95"
       x2="92"
       y2="95"
       id="linearGradient2560"
       xlink:href="#linearGradient3876"
       gradientUnits="userSpaceOnUse" />
    <linearGradient
       x1="43"
       y1="147"
       x2="92"
       y2="147"
       id="linearGradient2562"
       xlink:href="#linearGradient3876"
       gradientUnits="userSpaceOnUse" />
    <linearGradient
       x1="43"
       y1="199"
       x2="92"
       y2="199"
       id="linearGradient2580"
       xlink:href="#linearGradient3876"
       gradientUnits="userSpaceOnUse" />
    <linearGradient
       x1="43"
       y1="199"
       x2="92"
       y2="199"
       id="linearGradient2582"
       xlink:href="#linearGradient3876"
       gradientUnits="userSpaceOnUse" />
    <linearGradient
       x1="37"
       y1="337"
       x2="107"
       y2="337"
       id="linearGradient2584"
       xlink:href="#linearGradient3876"
       gradientUnits="userSpaceOnUse"
       gradientTransform="translate(0,95)" />
    <linearGradient
       x1="37"
       y1="337"
       x2="107"
       y2="337"
       id="linearGradient2598"
       xlink:href="#linearGradient3876"
       gradientUnits="userSpaceOnUse" />
    <linearGradient
       x1="37"
       y1="362"
       x2="107"
       y2="362"
       id="linearGradient2600"
       xlink:href="#linearGradient3876"
       gradientUnits="userSpaceOnUse" />
    <linearGradient
       x1="37"
       y1="362"
       x2="107"
       y2="362"
       id="linearGradient2627"
       xlink:href="#linearGradient3876"
       gradientUnits="userSpaceOnUse" />
    <linearGradient
       x1="37"
       y1="337"
       x2="107"
       y2="337"
       id="linearGradient2629"
       xlink:href="#linearGradient3876"
       gradientUnits="userSpaceOnUse" />
    <linearGradient
       x1="37"
       y1="362"
       x2="107"
       y2="362"
       id="linearGradient2631"
       xlink:href="#linearGradient3876"
       gradientUnits="userSpaceOnUse" />
    <linearGradient
       x1="37"
       y1="337"
       x2="107"
       y2="337"
       id="linearGradient2633"
       xlink:href="#linearGradient3876"
       gradientUnits="userSpaceOnUse" />
    <linearGradient
       x1="43"
       y1="199"
       x2="92"
       y2="199"
       id="linearGradient2521"
       xlink:href="#linearGradient3876"
       gradientUnits="userSpaceOnUse" />
    <linearGradient
       x1="43"
       y1="199"
       x2="92"
       y2="199"
       id="linearGradient2523"
       xlink:href="#linearGradient3876"
       gradientUnits="userSpaceOnUse" />
    <linearGradient
       x1="43"
       y1="199"
       x2="92"
       y2="199"
       id="linearGradient2530"
       xlink:href="#linearGradient3876"
       gradientUnits="userSpaceOnUse" />
    <linearGradient
       x1="43"
       y1="199"
       x2="92"
       y2="199"
       id="linearGradient2539"
       xlink:href="#linearGradient3876"
       gradientUnits="userSpaceOnUse" />
    <linearGradient
       x1="43"
       y1="95"
       x2="92"
       y2="95"
       id="linearGradient2608"
       xlink:href="#linearGradient3876"
       gradientUnits="userSpaceOnUse"
       gradientTransform="translate(0,-6)" />
    <linearGradient
       x1="43"
       y1="147"
       x2="92"
       y2="147"
       id="linearGradient2617"
       xlink:href="#linearGradient3876"
       gradientUnits="userSpaceOnUse"
       gradientTransform="translate(0,-12)" />
  </defs>
  <path
     d="M 0.5,0.5 L 0.5,486 L 3.6,492 L 8.5,496 L 15.2,499 L 129,499 L 135.8,496 L 141.8,492 L 144.5,486 L 144.5,0.5 L 0.5,0.5 z"
     id="path32"
     style="fill:#ffd000;fill-opacity:1;stroke:#e0a000;stroke-width:1;stroke-opacity:1" />
  <rect
     width="123.6"
     height="0.14"
     x="10.7"
     y="363"
     id="rect34"
     style="opacity:1;fill:#ffd000;fill-opacity:1;stroke:#e0a000;stroke-width:1;stroke-opacity:1" />
  <rect
     width="123.6"
     height="0.14"
     x="10.7"
     y="364"
     id="rect36"
     style="opacity:1;fill:#ffd000;fill-opacity:1;stroke:#fff080;stroke-width:1;stroke-opacity:1" />
  <rect
     width="123.6"
     height="0.14"
     x="10.7"
     y="365"
     id="rect38"
     style="opacity:1;fill:#ffd000;fill-opacity:1;stroke:#ffffc4;stroke-width:1;stroke-opacity:1" />
  <rect
     width="137.5"
     height="0.14"
     x="3.7"
     y="-29"
     transform="scale(1,-1)"
     id="rect40"
     style="opacity:1;fill:#ffd000;fill-opacity:1;stroke:#e0a000;stroke-width:1;stroke-opacity:1" />
  <rect
     width="137.5"
     height="0.14"
     x="3.7"
     y="-27.799999"
     transform="scale(1,-1)"
     id="rect42"
     style="opacity:1;fill:#ffd000;fill-opacity:1;stroke:#fff080;stroke-width:1;stroke-opacity:1" />
  <rect
     width="137.5"
     height="0.14"
     x="3.7"
     y="-474.79999"
     transform="scale(1,-1)"
     id="rect44"
     style="opacity:1;fill:#ffd000;fill-opacity:1;stroke:#e0a000;stroke-width:1;stroke-opacity:1" />
  <rect
     width="137.5"
     height="0.14"
     x="3.7"
     y="-473.5"
     transform="scale(1,-1)"
     id="rect46"
     style="opacity:1;fill:#ffd000;fill-opacity:1;stroke:#fff080;stroke-width:1;stroke-opacity:1" />
  <path
     d="M 80.9,486.4 C 80.9,490.9 77.1,494.5 72.5,494.5 C 67.9,494.5 64.1,490.09 64.1,486.4 C 64.1,481.9 67.9,478.3 72.5,478.3 C 77.1,478.3 80.9,481.9 80.9,486.4 L 80.9,486.4 z"
     id="path48"
     style="fill:#ff4040;fill-opacity:1;stroke:#ff4040;stroke-width:1;stroke-opacity:1" />
  <text
     id="text50"
     style="font-size:12px;font-weight:bold;fill:#ffffff;font-family:Bitstream Vera Sans">
    <tspan
       x="68"
       y="491"
       id="tspan52"
       style="font-size:12px;font-weight:bold;fill:#ffffff">X</tspan>
  </text>
  <text
     id="text54"
     style="font-size:12px;text-align:center;text-anchor:middle;font-family:Bitstream Vera Sans">
    <tspan
       x="72.5"
       y="21"
       id="tspan56"
       style="font-size:20px">Stift</tspan>
  </text>
  <g
     id="g58">
    <path
       d="M 50,34 C 60,34 60,34 60,34 L 64,37 L 66,41 L 66,53 L 64,57 L 60,59 L 49,59 L 49,59 L 49,62 L 36,62 L 36,59 L 24,59 L 21,57 L 18,53 L 18,41 L 21,37 L 24,34 L 35,34 L 35,37 L 50,37 L 50,34 z"
       id="path60"
       style="fill:url(#linearGradient4830);fill-opacity:1;stroke:#00a0a0;stroke-width:1;stroke-opacity:1" />
    <text
       id="text49"
       style="font-size:12px;text-align:center;text-anchor:middle;font-family:Bitstream Vera Sans">
      <tspan
         x="43"
         y="45"
         id="tspan63"
         style="font-size:10px">hebe</tspan>
    </text>
    <text
       id="text65"
       style="font-size:12px;text-align:center;text-anchor:middle;font-family:Bitstream Vera Sans">
      <tspan
         x="43"
         y="55"
         id="tspan67"
         style="font-size:10px">Stift an</tspan>
    </text>
  </g>
  <g
     id="g69">
    <path
       d="M 109,34 C 120,34 120,34 120,34 L 123,37 L 126,41 L 126,53 L 123,57 L 120,59 L 108,59 L 108,59 L 108,62 L 95,62 L 95,59 L 84,59 L 80,57 L 78,53 L 78,41 L 80,37 L 84,34 L 94,34 L 94,37 L 109,37 L 109,34 z"
       id="path71"
       style="fill:url(#linearGradient4838);fill-opacity:1;stroke:#00a0a0;stroke-width:1.33340001;stroke-opacity:1" />
    <text
       id="text55"
       style="font-size:12px;text-align:center;text-anchor:middle;font-family:Bitstream Vera Sans">
      <tspan
         x="101"
         y="45"
         id="tspan74"
         style="font-size:10px">senke</tspan>
    </text>
    <text
       id="text76"
       style="font-size:12px;text-align:center;text-anchor:middle;font-family:Bitstream Vera Sans">
      <tspan
         x="101"
         y="55"
         id="tspan78"
         style="font-size:10px">Stift ab</tspan>
    </text>
  </g>
  <path
     d="M 90,79 L 101,79 L 101,83 L 98,83 L 98,81 L 91,81"
     id="path82"
     style="fill:#00e0e0;fill-opacity:1;stroke:#008080;stroke-width:1.00004995;stroke-opacity:1" />
  <path
     d="M 90,97 L 101,97 L 101,93 L 98,93 L 98,95 L 91,95"
     id="path84"
     style="fill:#00e0e0;fill-opacity:1;stroke:#008080;stroke-width:1.00004995;stroke-opacity:1" />
  <path
     d="M 75,70 C 86,70 86,70 86,70 L 89,72 L 92,76 L 92,99 L 89,103 L 86,106 L 74,106 L 74,106 L 74,108 L 61,108 L 61,106 L 50,106 L 46,103 L 44,99 L 44,76 L 46,72 L 50,70 L 60,70 L 60,73 L 75,73 L 75,70 z"
     id="path86"
     style="fill:url(#linearGradient2608);fill-opacity:1;stroke:#00a0a0;stroke-width:1.33340001;stroke-opacity:1" />
  <text
     y="-2"
     id="text88"
     style="font-size:12px;text-align:center;text-anchor:middle;font-family:Bitstream Vera Sans">
    <tspan
       x="68"
       y="83"
       id="tspan90"
       style="font-size:10.5px">setze</tspan>
  </text>
  <text
     y="0"
     id="text69"
     style="font-size:12px;text-align:center;text-anchor:middle;font-family:Bitstream Vera Sans">
    <tspan
       x="68"
       y="93"
       id="tspan93"
       style="font-size:10.5px">Stift-</tspan>
  </text>
  <text
     y="0"
     id="text69"
     style="font-size:12px;text-align:center;text-anchor:middle;font-family:Bitstream Vera Sans">
    <tspan
       x="68"
       y="103"
       id="tspan93"
       style="font-size:10.5px">dicke</tspan>
  </text>
  <path
     d="M 90,125 L 101,125 L 101,129 L 98,129 L 98,127 L 91,127"
     id="path101"
     style="fill:#00e0e0;fill-opacity:1;stroke:#008080;stroke-width:1;stroke-opacity:1" />
  <path
     d="M 90,143 L 101,143 L 101,139 L 98,139 L 98,141 L 91,141"
     id="path103"
     style="fill:#00e0e0;fill-opacity:1;stroke:#008080;stroke-width:1;stroke-opacity:1" />
  <path
     d="M 75,116 C 86,116 86,116 86,116 L 89,118 L 92,122 L 92,145 L 89,149 L 86,152 L 74,152 L 74,152 L 74,154 L 61,154 L 61,152 L 50,152 L 46,149 L 44,145 L 44,122 L 46,118 L 50,116 L 60,116 L 60,119 L 75,119 L 75,116 z"
     id="path105"
     style="fill:url(#linearGradient2617);fill-opacity:1;stroke:#00a0a0;stroke-width:1;stroke-opacity:1" />
  <text
     y="-14"
     id="text79"
     style="font-size:12px;text-align:center;text-anchor:middle;font-family:Bitstream Vera Sans">
    <tspan
       x="68"
       y="131"
       id="tspan108"
       style="font-size:11px">setze</tspan>
  </text>
  <text
     y="-14"
     id="text83"
     style="font-size:12px;text-align:center;text-anchor:middle;font-family:Bitstream Vera Sans">
    <tspan
       x="68"
       y="144"
       id="tspan111"
       style="font-size:11px">Farbe</tspan>
  </text>
  <g
     id="g113">
    <path
       d="M 90,171 L 101,171 L 101,175 L 98,175 L 98,173 L 91,173"
       id="path115"
       style="fill:#00e0e0;fill-opacity:1;stroke:#008080;stroke-width:1;stroke-opacity:1" />
    <path
       d="M 90,189 L 101,189 L 101,185 L 98,185 L 98,187 L 91,187"
       id="path117"
       style="fill:#00e0e0;fill-opacity:1;stroke:#008080;stroke-width:1;stroke-opacity:1" />
    <path
       d="M 75,162 C 86,162 86,162 86,162 L 89,164 L 92,168 L 92,191 L 89,195 L 86,198 L 74,198 L 74,198 L 74,200 L 61,200 L 61,198 L 50,198 L 46,195 L 44,191 L 44,168 L 46,164 L 50,162 L 60,162 L 60,165 L 75,165 L 75,162 z"
       id="path119"
       style="fill:url(#linearGradient2539);fill-opacity:1;stroke:#00a0a0;stroke-width:1;stroke-opacity:1" />
    <text
       id="text93"
       style="font-size:12px;text-align:center;text-anchor:middle;font-family:Bitstream Vera Sans">
      <tspan
         x="68"
         y="177"
         id="tspan95"
         style="font-size:11px">setze</tspan>
    </text>
    <text
       id="text97"
       style="font-size:12px;text-align:center;text-anchor:middle;font-family:Bitstream Vera Sans">
      <tspan
         x="68"
         y="190"
         id="tspan99"
         style="font-size:11px">Farbton</tspan>
    </text>
  </g>
  <g
     transform="translate(0,-24)"
     id="g125">
    <path
       d="M 89,260 L 100,260 L 100,264 L 98,264 L 98,262 L 91,262"
       id="path127"
       style="fill:#00e0e0;fill-opacity:1;stroke:#008080;stroke-width:1;stroke-opacity:1" />
    <path
       d="M 89,278 L 100,278 L 100,274 L 98,274 L 98,276 L 91,276"
       id="path129"
       style="fill:#00e0e0;fill-opacity:1;stroke:#008080;stroke-width:1;stroke-opacity:1" />
    <path
       d="M 90,235 L 101,235 L 101,239 L 98,239 L 98,237 L 91,237"
       id="path131"
       style="fill:#00e0e0;fill-opacity:1;stroke:#008080;stroke-width:1;stroke-opacity:1" />
    <path
       d="M 90,253 L 101,253 L 101,249 L 98,249 L 98,251 L 91,251"
       id="path133"
       style="fill:#00e0e0;fill-opacity:1;stroke:#008080;stroke-width:1;stroke-opacity:1" />
    <path
       d="M 75,232 C 86,232 86,232 86,232 L 89,234 L 92,238 L 92,276 L 89,279 L 86,282 L 74,282 L 74,282 L 74,284 L 61,284 L 61,282 L 50,282 L 46,279 L 44,276 L 44,238 L 46,234 L 50,232 L 60,232 L 60,235 L 75,235 L 75,232 z"
       id="path135"
       style="fill:url(#linearGradient4870);fill-opacity:1;stroke:#00a0a0;stroke-width:1;stroke-opacity:1" />
    <text
       id="text111"
       style="font-size:12px;text-align:center;text-anchor:middle;font-family:Bitstream Vera Sans">
      <tspan
         x="68"
         y="255"
         id="tspan113"
         style="font-size:10.5px">fülle Bild-</tspan>
    </text>
    <text
       id="text115"
       style="font-size:12px;text-align:center;text-anchor:middle;font-family:Bitstream Vera Sans">
      <tspan
         x="68"
         y="267"
         id="tspan117"
         style="font-size:10.5px">schirm</tspan>
    </text>
    <text
       id="text119"
       style="font-size:12px;text-align:end;text-anchor:end;font-family:Bitstream Vera Sans">
      <tspan
         x="91"
         y="243"
         id="tspan121"
         style="font-size:8px">Farbe</tspan>
    </text>
    <text
       id="text123"
       style="font-size:12px;text-align:end;text-anchor:end;font-family:Bitstream Vera Sans">
      <tspan
         x="91"
         y="277"
         id="tspan125"
         style="font-size:8px">Farbton</tspan>
    </text>
  </g>
  <g
     transform="translate(0,-2)"
     id="g145">
    <path
       d="M 37,372 L 41,372 L 41,374 L 45,374 L 45,372 L 107,372 L 107,385 L 45,385 L 45,382 L 41,382 L 41,385 L 37,385 L 37,372 z"
       id="path147"
       style="fill:url(#linearGradient4878);fill-opacity:1;stroke:#00a0a0;stroke-width:1;stroke-opacity:1" />
    <text
       x="4"
       y="65"
       id="text149"
       style="font-size:12px;text-align:center;text-anchor:middle;font-family:Bitstream Vera Sans">
      <tspan
         x="76"
         y="381"
         id="tspan151"
         style="font-size:10.5px">Stiftdicke</tspan>
    </text>
  </g>
  <g
     transform="translate(0,-2)"
     id="g153">
    <path
       d="M 37,393 L 41,393 L 41,395 L 45,395 L 45,393 L 107,393 L 107,406 L 45,406 L 45,403 L 41,403 L 41,406 L 37,406 L 37,393 z"
       id="path155"
       style="fill:url(#linearGradient2633);fill-opacity:1;stroke:#00a0a0;stroke-width:1;stroke-opacity:1" />
    <text
       x="4"
       y="61"
       id="text157"
       style="font-size:12px;text-align:center;text-anchor:middle;font-family:Bitstream Vera Sans">
      <tspan
         x="76"
         y="402"
         id="tspan159"
         style="font-size:10.5px">Farbe</tspan>
    </text>
  </g>
  <g
     transform="translate(0,-1)"
     id="g161">
    <path
       d="M 37,413 L 41,413 L 41,416 L 45,416 L 45,413 L 107,413 L 107,427 L 45,427 L 45,424 L 41,424 L 41,427 L 37,427 L 37,413 z"
       id="path163"
       style="fill:url(#linearGradient2631);fill-opacity:1;stroke:#00a0a0;stroke-width:1;stroke-opacity:1" />
    <text
       x="4"
       y="57"
       id="text165"
       style="font-size:10px;text-align:center;text-anchor:middle;font-family:Bitstream Vera Sans">
      <tspan
         x="76"
         y="423"
         id="tspan167"
         style="font-size:10.5px">Farbton</tspan>
    </text>
  </g>
  <g
     transform="translate(0,-30)"
     id="g169">
    <path
       d="M 90,309 L 101,309 L 101,313 L 99,313 L 99,311 L 91,311"
       id="path171"
       style="fill:#00e0e0;fill-opacity:1;stroke:#008080;stroke-width:1;stroke-miterlimit:4;stroke-dasharray:none;stroke-opacity:1" />
    <path
       d="M 90,327 L 101,327 L 101,323 L 99,323 L 99,325 L 91,325"
       id="path173"
       style="fill:#00e0e0;fill-opacity:1;stroke:#008080;stroke-width:1;stroke-miterlimit:4;stroke-dasharray:none;stroke-opacity:1" />
    <path
       d="M 75,300 C 86,300 86,300 86,300 L 90,302 L 92,306 L 92,329 L 90,333 L 86,336 L 75,336 L 75,336 L 75,339 L 61,339 L 61,336 L 50,336 L 46,333 L 44,329 L 44,306 L 46,302 L 50,300 L 61,300 L 61,303 L 75,303 L 75,300 z"
       id="path175"
       style="fill:url(#linearGradient2584);fill-opacity:1;stroke:#00a0a0;stroke-width:1;stroke-miterlimit:4;stroke-dasharray:none;stroke-opacity:1" />
    <text
       id="text177"
       style="font-size:10px;text-align:center;text-anchor:middle;font-family:Bitstream Vera Sans">
      <tspan
         x="68"
         y="314"
         id="tspan179"
         style="font-size:10.5px">setze</tspan>
    </text>
    <text
       id="text181"
       style="font-size:10.5px;text-align:center;text-anchor:middle;font-family:Bitstream Vera Sans">
      <tspan
         x="68"
         y="323"
         id="tspan183"
         style="font-size:10.5px">Schrift-</tspan>
    </text>
    <text
       id="text185"
       style="font-size:10.5px;text-align:center;text-anchor:middle;font-family:Bitstream Vera Sans">
      <tspan
         x="68"
         y="332"
         id="tspan187"
         style="font-size:10.5px">dicke</tspan>
    </text>
  </g>
  <g
     transform="translate(0,18)"
     id="g189">
    <path
       d="M 90,309 L 101,309 L 101,313 L 99,313 L 99,311 L 91,311"
       id="path191"
       style="fill:#00e0e0;fill-opacity:1;stroke:#008080;stroke-width:1;stroke-miterlimit:4;stroke-dasharray:none;stroke-opacity:1" />
    <path
       d="M 90,327 L 101,327 L 101,323 L 99,323 L 99,325 L 91,325"
       id="path193"
       style="fill:#00e0e0;fill-opacity:1;stroke:#008080;stroke-width:1;stroke-miterlimit:4;stroke-dasharray:none;stroke-opacity:1" />
    <path
       d="M 75,300 C 86,300 86,300 86,300 L 90,302 L 92,306 L 92,329 L 90,333 L 86,336 L 75,336 L 75,336 L 75,339 L 61,339 L 61,336 L 50,336 L 46,333 L 44,329 L 44,306 L 46,302 L 50,300 L 61,300 L 61,303 L 75,303 L 75,300 z"
       id="path195"
       style="fill:url(#linearGradient2501);fill-opacity:1;stroke:#00a0a0;stroke-width:1;stroke-miterlimit:4;stroke-dasharray:none;stroke-opacity:1" />
    <text
       id="text197"
       style="font-size:10.5px;text-align:center;text-anchor:middle;font-family:Bitstream Vera Sans">
      <tspan
         x="68"
         y="314"
         id="tspan199"
         style="font-size:10.5px">setze</tspan>
    </text>
    <text
       id="text201"
       style="font-size:10.5px;text-align:center;text-anchor:middle;font-family:Bitstream Vera Sans">
      <tspan
         x="68"
         y="323"
         id="tspan203"
         style="font-size:10.5px">Schrift-</tspan>
    </text>
    <text
       id="text205"
       style="font-size:10.5px;text-align:center;text-anchor:middle;font-family:Bitstream Vera Sans">
      <tspan
         x="68"
         y="332"
         id="tspan207"
         style="font-size:10.5px">farbe</tspan>
    </text>
  </g>
  <g
     transform="translate(0,-2)"
     id="g209">
    <path
       d="M 37,435 L 41,435 L 41,438 L 45,438 L 45,435 L 107,435 L 107,449 L 45,449 L 45,446 L 41,446 L 41,449 L 37,449 L 37,435 z"
       id="path211"
       style="fill:url(#linearGradient2629);fill-opacity:1;stroke:#00a0a0;stroke-width:1;stroke-opacity:1" />
    <text
       id="text213"
       style="font-size:12px;text-align:center;text-anchor:middle;font-family:Bitstream Vera Sans">
      <tspan
         x="76"
         y="445"
         id="tspan215"
         style="font-size:10.5px">Schriftfarbe</tspan>
    </text>
  </g>
  <g
     transform="translate(0,-2)"
     id="g217">
    <path
       d="M 37,456 L 41,456 L 41,459 L 45,459 L 45,456 L 107,456 L 107,470 L 45,470 L 45,467 L 41,467 L 41,470 L 37,470 L 37,456 z"
       id="path219"
       style="fill:url(#linearGradient2627);fill-opacity:1;stroke:#00a0a0;stroke-width:1;stroke-opacity:1" />
    <text
       id="text221"
       style="font-size:10.5px;text-align:center;text-anchor:middle;font-family:Bitstream Vera Sans">
      <tspan
         x="76"
         y="466"
         id="tspan223"
         style="font-size:10.5px">Schriftdicke</tspan>
    </text>
  </g>
</svg>
