<?xml version="1.0" encoding="UTF-8" standalone="no"?>
<!-- Created with Inkscape (http://www.inkscape.org/) -->
<svg
   xmlns:svg="http://www.w3.org/2000/svg"
   xmlns="http://www.w3.org/2000/svg"
   version="1.0"
   width="115"
   height="31"
   id="svg2">
  <defs
     id="defs15" />
  <g
     id="g4"
     style="stroke:#a08000;stroke-opacity:1">
    <path
       d="M 15,6.1 C 15,1.2 15,1.2 15,1.2 L 15,1.2 L 15,1.4"
       id="path6"
       style="fill:none;stroke:#0000ff;stroke-width:3;stroke-linecap:butt;stroke-linejoin:miter;stroke-miterlimit:4;stroke-opacity:1" />
    <path
       d="M 15,24.9 C 14.9,29.3 15,29.3 15,29.3 L 15,29.3"
       id="path8"
       style="fill:none;stroke:#0000ff;stroke-width:3;stroke-linecap:butt;stroke-linejoin:miter;stroke-miterlimit:4;stroke-opacity:1" />
    <path
       d="M 4,1 L 111,1 L 114,4 L 114,27 L 111,30 L 4,30 L 1,27 L 1,4 L 4,1 z"
       id="path10"
       style="fill:none;stroke:#0000ff;stroke-width:3;stroke-linecap:butt;stroke-linejoin:miter;stroke-miterlimit:4;stroke-opacity:1" />
  </g>
  <path
     d="M 3.5,26.25 L 3.5,5.25 L 5.75,3.25 L 12.5,3.25 L 12.5,6.75 L 17.5,6.75 L 17.5,3.25 L 111.5,3.25 L 111.5,27.75 L 17.5,27.75 L 17.5,24.75 L 12.5,24.75 L 12.5,27.75 L 5.75,27.75 L 3.5,26.25 z"
     id="path12"
     style="fill:none;stroke:#ffff00;stroke-width:3;stroke-linecap:butt;stroke-linejoin:miter;stroke-miterlimit:4;stroke-opacity:1" />
</svg>
