<?xml version="1.0" encoding="UTF-8" standalone="no"?>
<!-- Created with Inkscape (http://www.inkscape.org/) -->
<svg
   xmlns:svg="http://www.w3.org/2000/svg"
   xmlns="http://www.w3.org/2000/svg"
   width="145"
   height="500"
   version="1.0">
  <rect
     style="opacity:1;fill:#ffffff;fill-opacity:1;stroke:none;stroke-width:4;stroke-linecap:square;stroke-linejoin:round;stroke-opacity:1"
     width="143"
     height="440"
     x="1"
     y="30" />
  <rect
     style="opacity:1;fill:#080808;fill-opacity:1;stroke:none;stroke-width:1;stroke-linecap:square;stroke-linejoin:round;stroke-opacity:1"
     width="145"
     height="29"
     x="0"
     y="0" />
  <path
     style="fill:#080808;fill-opacity:1;stroke:none;stroke-width:1px;stroke-opacity:1"
     d="M 0.5,470 L 0.5,486 L 3.5,493 L 8.5,497 L 15,499.5 L 129,499.5 L 136,497 L 142,492 L 145,484 L 145,470 L 0.5,470 z" />
  <path
     style="fill:#101010;fill-opacity:1;stroke:#101010;stroke-width:1;stroke-opacity:1"
     d="M 75,37 C 85,37 85,37 85,37 C 85,37 88,39 89,40 C 90,41 91,44 91,44 L 91,57 C 91,57 90,59 89,60 C 88,61 85,63 85,63 L 74,63 L 74,63 L 74,65 L 61,65 L 61,63 L 49,63 C 49,63 47,61 46,60 C 45,59 43,57 43,57 L 43,44 C 43,44 45,41 46,40 C 47,39 49,37 49,37 L 60,37 L 60,41 L 75,41 L 75,37 z" />
  <path
     style="fill:#181818;fill-opacity:1;stroke:#181818;stroke-width:1;stroke-opacity:1"
     d="M 52,78 C 63,78 63,78 63,78 C 63,78 65,79 65,79 C 66,80 67,81 67,81 L 123,82 L 123,89 L 121,89 C 121,89 120,88 119,87 C 118,87 116,86 116,86 L 105,86 L 105,89 L 92,89 L 92,86 L 79,86 C 79,86 76,88 75,89 C 74,90 73,92 73,92 L 73,106 L 27,106 C 27,106 24,105 23,104 C 22,103 20,100 20,100 L 21,85 C 21,85 22,82 23,81 C 24,80 27,78 27,78 L 37,78 L 37,81 L 52,81 L 52,78 z" />
  <path
     style="fill:#202020;fill-opacity:1;stroke:#202020;stroke-width:1;stroke-opacity:1"
     d="M 47,119 C 58,119 58,119 58,119 C 58,119 60,120 60,120 C 61,121 62,122 62,122 L 80,122 L 80,126 L 77,126 L 77,124 L 72,124 L 72,139 L 77,139 L 77,137 L 80,137 L 80,146 L 128,146 L 128,154 L 125,154 C 125,154 124,152 123,151 C 122,151 121,150 121,150 L 110,150 L 110,154 L 96,154 L 96,150 L 84,150 C 84,150 81,152 80,153 C 79,154 78,156 78,156 L 78,172 L 65,172 C 65,172 64,175 63,176 C 62,177 59,178 59,178 L 46,178 L 46,181 L 34,181 L 34,178 L 22,178 C 22,178 19,177 18,176 C 17,175 16,173 16,173 L 16,125 C 16,125 17,123 18,121 C 19,120 22,119 22,119 L 32,119 L 32,122 L 47,122 L 47,119 z" />
  <path
     style="fill:#282828;fill-opacity:1;stroke:#282828;stroke-width:1;stroke-opacity:1"
     d="M 47,194 C 58,194 58,194 58,194 C 58,194 60,194 60,195 C 61,195 62,197 62,197 L 88,197 L 88,200 C 88,200 79,201 76,203 C 73,204 69,207 68,210 C 67,211 67,215 68,216 C 69,219 73,221 75,222 C 78,224 88,225 88,225 L 88,230 L 124,230 L 126,232 L 128,235 L 128,245 L 125,245 C 125,245 124,244 123,243 C 123,242 121,242 121,242 L 110,242 L 110,245 L 96,245 L 96,242 L 84,242 C 84,242 81,243 80,244 C 79,245 78,248 78,248 L 78,263 L 65,263 C 65,263 64,266 63,267 C 62,268 59,269 59,269 L 46,269 L 46,272 L 34,272 L 34,269 L 22,269 C 22,269 19,268 18,267 C 17,266 16,263 16,263 L 16,200 C 16,200 17,197 18,196 C 19,195 22,194 22,194 L 32,194 L 32,197 L 47,197 L 47,194 z" />
  <path
     style="fill:#303030;fill-opacity:1;stroke:#303030;stroke-width:1;stroke-opacity:1"
     d="M 112,272 C 122,272 122,272 122,272 C 122,272 125,273 126,274 C 127,275 128,278 128,278 L 128,290 L 105,303 C 105,303 80,290 80,290 L 80,278 C 80,278 82,275 83,274 C 83,273 86,272 86,272 L 97,272 L 97,275 L 112,275 L 112,272 z" />
  <path
     style="fill:#383838;fill-opacity:1;stroke:#383838;stroke-width:1;stroke-opacity:1"
     d="M 36,299 C 43,299 43,299 43,299 C 43,299 45,300 45,300 C 46,300 46,302 46,302 L 63,302 L 63,304 C 63,304 58,304 56,305 C 54,306 51,308 50,310 C 50,311 50,313 51,314 C 51,316 53,317 55,318 C 57,319 63,321 63,321 L 63,323 L 125,323 L 127,325 L 128,327 L 128,334 L 126,334 C 126,334 126,332 125,332 C 125,332 123,331 123,331 L 116,331 L 116,334 L 107,334 L 107,331 L 99,331 C 99,331 97,332 96,333 C 95,333 95,333 95,335 L 94,346 L 90,346 L 90,334 C 90,334 89,333 88,333 C 88,332 86,331 86,331 L 78,331 L 78,334 L 70,334 L 70,331 L 61,331 C 61,331 59,332 58,333 C 58,334 57,336 57,336 L 57,346 L 48,346 C 48,346 48,348 47,348 C 46,349 44,350 44,350 L 36,350 L 36,352 L 27,352 L 27,350 L 20,350 C 20,350 18,349 17,348 C 16,348 15,346 15,346 L 15,304 C 15,304 16,302 17,301 C 18,300 19,299 19,299 L 27,299 L 27,302 L 36,302 L 36,299 z" />
  <path
     style="fill:#404040;fill-opacity:1;stroke:#404040;stroke-width:1;stroke-opacity:1"
     d="M 49,373 C 60,373 59,373 59,373 C 59,373 61,374 62,374 C 62,375 63,376 63,376 L 67,376 L 67,367 L 127,367 L 127,374 L 124,374 C 124,374 123,373 122,372 C 121,372 119,371 119,371 L 109,371 L 109,374 L 96,374 L 96,371 L 83,371 C 83,371 80,373 79,373 C 78,374 77,378 77,378 L 77,398 L 24,398 C 24,398 20,397 19,396 C 18,395 17,392 17,392 L 17,379 C 17,379 19,376 19,375 C 20,374 23,373 23,373 L 34,373 L 34,376 L 49,376 L 49,373 z" />
  <path
     style="fill:#484848;fill-opacity:1;stroke:#484848;stroke-width:1;stroke-opacity:1"
     d="M 112,412 C 122,412 122,412 122,412 C 122,412 125,413 126,414 C 127,416 128,418 128,418 L 128,451 C 128,451 127,454 126,454 C 125,455 122,457 122,457 L 111,457 L 111,457 L 111,460 L 98,460 L 98,457 L 86,457 C 86,457 83,455 83,454 C 82,454 80,451 80,451 L 80,418 C 80,418 82,416 83,414 C 83,413 86,412 86,412 L 97,412 L 97,415 L 112,415 L 112,412 z" />
</svg>
