<?xml version="1.0" encoding="UTF-8" standalone="no"?>
<svg
   xmlns:dc="http://purl.org/dc/elements/1.1/"
   xmlns:cc="http://creativecommons.org/ns#"
   xmlns:rdf="http://www.w3.org/1999/02/22-rdf-syntax-ns#"
   xmlns:svg="http://www.w3.org/2000/svg"
   xmlns="http://www.w3.org/2000/svg"
   xmlns:xlink="http://www.w3.org/1999/xlink"
   xmlns:sodipodi="http://sodipodi.sourceforge.net/DTD/sodipodi-0.dtd"
   xmlns:inkscape="http://www.inkscape.org/namespaces/inkscape"
   width="87"
   height="81"
   version="1.0"
   id="svg6793"
   sodipodi:version="0.32"
   inkscape:version="0.46"
   sodipodi:docname="setxy.svg"
   inkscape:output_extension="org.inkscape.output.svg.inkscape">
  <metadata
     id="metadata6836">
    <rdf:RDF>
      <cc:Work
         rdf:about="">
        <dc:format>image/svg+xml</dc:format>
        <dc:type
           rdf:resource="http://purl.org/dc/dcmitype/StillImage" />
      </cc:Work>
    </rdf:RDF>
  </metadata>
  <sodipodi:namedview
     inkscape:window-height="607"
     inkscape:window-width="1278"
     inkscape:pageshadow="2"
     inkscape:pageopacity="0.0"
     guidetolerance="10.0"
     gridtolerance="10.0"
     objecttolerance="10.0"
     borderopacity="1.0"
     bordercolor="#666666"
     pagecolor="#ffffff"
     id="base"
     showgrid="false"
     inkscape:zoom="5.7037037"
     inkscape:cx="43.5"
     inkscape:cy="46.198052"
     inkscape:window-x="0"
     inkscape:window-y="160"
     inkscape:current-layer="svg6793" />
  <defs
     id="defs6795">
    <inkscape:perspective
       sodipodi:type="inkscape:persp3d"
       inkscape:vp_x="0 : 40.5 : 1"
       inkscape:vp_y="0 : 1000 : 0"
       inkscape:vp_z="87 : 40.5 : 1"
       inkscape:persp3d-origin="43.5 : 27 : 1"
       id="perspective6838" />
    <linearGradient
       id="linearGradient3166">
      <stop
         style="stop-color:#ffffff;stop-opacity:1;"
         offset="0"
         id="stop3168" />
      <stop
         style="stop-color:#00ff00;stop-opacity:1;"
         offset="1"
         id="stop3170" />
    </linearGradient>
    <linearGradient
       xlink:href="#linearGradient3166"
       id="linearGradient3172"
       x1="0"
       y1="22"
       x2="74"
       y2="22"
       gradientUnits="userSpaceOnUse" />
  </defs>
  <path
     style="fill:#00e000;fill-opacity:1;stroke:#008000;stroke-width:1.5;stroke-opacity:1"
     d="M 69.75,42.75 L 86.25,42.75 L 86.25,49 L 82.25,49 L 82.25,45.75 L 71.75,45.75"
     id="path6801" />
  <path
     style="fill:#00e000;fill-opacity:1;stroke:#008000;stroke-width:1.5;stroke-opacity:1"
     d="M 69.75,70.25 L 86.25,70.25 L 86.25,64.249999 L 82.25,64.249999 L 82.25,67.249999 L 71.75,67.249999"
     id="path6803" />
  <path
     style="fill:#00e000;fill-opacity:1;stroke:#008000;stroke-width:1.5;stroke-opacity:1"
     d="M 70,6 L 86.5,6 L 86.5,12 L 82.5,12 L 82.5,9 L 72,9"
     id="path6805" />
  <path
     style="fill:#00e000;fill-opacity:1;stroke:#008000;stroke-width:1.5;stroke-opacity:1"
     d="M 70,33.5 L 86.5,33.5 L 86.5,27.5 L 82.5,27.5 L 82.5,30.5 L 72,30.5"
     id="path6807" />
  <path
     style="fill:url(#linearGradient3172);fill-opacity:1;stroke:#00a000;stroke-width:2;stroke-opacity:1"
     d="M 48,1 C 64,1 64,1 64,1 C 64,1 68.131798,3.4865526 69.5,5 C 70.897472,6.5458243 73,11 73,11 L 73,67 C 73,67 70.78295,70.693654 69.5,72 C 68.07044,73.455629 64,76 64,76 L 47,76 L 47,76 L 47,80 L 27,80 L 27,76 L 10,76 C 10,76 5.9295605,73.455629 4.5,72 C 3.2170498,70.693654 1,67 1,67 L 1,11 C 1,11 3.1025283,6.5458243 4.5,5 C 5.8682021,3.4865526 10,1 10,1 L 26,1 L 26,6 L 48,6 L 48,1 z"
     id="path6809" />
  <path
     style="fill:none;stroke:#ffffff;stroke-width:1;stroke-opacity:1"
     d="M 49,2.5 L 63,2.5"
     id="path6811" />
  <path
     style="fill:none;stroke:#ffffff;stroke-width:1;stroke-opacity:1"
     d="M 11,2.5 L 25,2.5"
     id="path6813" />
  <path
     style="fill:none;stroke:#006000;stroke-width:1;stroke-opacity:1"
     d="M 10.5,76.5 L 26.5,76.5"
     id="path6815" />
  <path
     style="fill:none;stroke:#006000;stroke-width:1;stroke-opacity:1"
     d="M 47.5,76.5 L 63.5,76.5"
     id="path6817" />
  <path
     style="fill:none;stroke:#ffffff;stroke-width:1;stroke-opacity:1"
     d="M 25,7.5 L 49,7.5"
     id="path6819" />
  <path
     style="fill:none;stroke:#006000;stroke-width:1;stroke-opacity:1"
     d="M 26.5,80 L 47,80"
     id="path6821" />
  <text
     style="font-size:12px;text-align:center;text-anchor:middle;font-family:Bitstream Vera Sans"
     id="text6823"
     y="-7.7142854"
     x="-3.0963463e-09">
    <tspan
       x="37"
       y="35.285713"
       style="font-size:18px"
       id="tspan6825">распо-</tspan>
  </text>
  <text
     style="font-size:12px;text-align:center;text-anchor:middle;font-family:Bitstream Vera Sans"
     id="text6844"
     y="8.7662334"
     x="-0.52597404">
    <tspan
       x="36.474026"
       y="51.766235"
       style="font-size:18px"
       id="tspan6846">ложить</tspan>
  </text>
  <text
     style="font-size:12px;text-anchor:end;text-align:end;font-family:Bitstream Vera Sans"
     id="text6827">
    <tspan
       x="68"
       y="22"
       style="font-size:14px"
       id="tspan6829">x</tspan>
  </text>
  <text
     style="font-size:12px;text-anchor:end;text-align:end;font-family:Bitstream Vera Sans"
     id="text6831">
    <tspan
       x="68"
       y="64"
       style="font-size:14px"
       id="tspan6833">y</tspan>
  </text>
</svg>
