<?xml version="1.0" encoding="UTF-8" standalone="no"?>
<svg
   xmlns:dc="http://purl.org/dc/elements/1.1/"
   xmlns:cc="http://creativecommons.org/ns#"
   xmlns:rdf="http://www.w3.org/1999/02/22-rdf-syntax-ns#"
   xmlns:svg="http://www.w3.org/2000/svg"
   xmlns="http://www.w3.org/2000/svg"
   xmlns:xlink="http://www.w3.org/1999/xlink"
   xmlns:sodipodi="http://sodipodi.sourceforge.net/DTD/sodipodi-0.dtd"
   xmlns:inkscape="http://www.inkscape.org/namespaces/inkscape"
   width="145"
   height="452"
   id="svg7656"
   sodipodi:version="0.32"
   inkscape:version="0.46"
   sodipodi:docname="turtlegroup.svg"
   inkscape:output_extension="org.inkscape.output.svg.inkscape">
  <metadata
     id="metadata7861">
    <rdf:RDF>
      <cc:Work
         rdf:about="">
        <dc:format>image/svg+xml</dc:format>
        <dc:type
           rdf:resource="http://purl.org/dc/dcmitype/StillImage" />
      </cc:Work>
    </rdf:RDF>
  </metadata>
  <sodipodi:namedview
     inkscape:window-height="559"
     inkscape:window-width="1278"
     inkscape:pageshadow="2"
     inkscape:pageopacity="0.0"
     guidetolerance="10.0"
     gridtolerance="10.0"
     objecttolerance="10.0"
     borderopacity="1.0"
     bordercolor="#666666"
     pagecolor="#ffffff"
     id="base"
     showgrid="false"
     inkscape:zoom="2.0442478"
     inkscape:cx="72.5"
     inkscape:cy="435.33036"
     inkscape:window-x="0"
     inkscape:window-y="208"
     inkscape:current-layer="svg7656" />
  <defs
     id="defs7658">
    <inkscape:perspective
       sodipodi:type="inkscape:persp3d"
       inkscape:vp_x="0 : 226 : 1"
       inkscape:vp_y="0 : 1000 : 0"
       inkscape:vp_z="145 : 226 : 1"
       inkscape:persp3d-origin="72.5 : 150.66667 : 1"
       id="perspective7863" />
    <linearGradient
       id="linearGradient3166">
      <stop
         id="stop3168"
         offset="0"
         style="stop-color:#ffffff;stop-opacity:1;" />
      <stop
         id="stop3170"
         offset="1"
         style="stop-color:#00ff00;stop-opacity:1;" />
    </linearGradient>
    <linearGradient
       gradientUnits="userSpaceOnUse"
       y2="22"
       x2="74"
       y1="22"
       x1="0"
       id="linearGradient3172"
       xlink:href="#linearGradient3166" />
    <linearGradient
       gradientUnits="userSpaceOnUse"
       y2="22"
       x2="74"
       y1="22"
       x1="0"
       id="linearGradient2653"
       xlink:href="#linearGradient3166" />
    <linearGradient
       collect="always"
       xlink:href="#linearGradient3166"
       id="linearGradient2668"
       gradientUnits="userSpaceOnUse"
       x1="0"
       y1="22"
       x2="74"
       y2="22" />
    <linearGradient
       gradientUnits="userSpaceOnUse"
       y2="22"
       x2="74"
       y1="22"
       x1="0"
       id="linearGradient2782"
       xlink:href="#linearGradient3166" />
    <linearGradient
       collect="always"
       xlink:href="#linearGradient3166"
       id="linearGradient2797"
       gradientUnits="userSpaceOnUse"
       x1="0"
       y1="22"
       x2="74"
       y2="22" />
    <linearGradient
       gradientUnits="userSpaceOnUse"
       y2="22"
       x2="74"
       y1="22"
       x1="0"
       id="linearGradient2911"
       xlink:href="#linearGradient3166" />
    <linearGradient
       collect="always"
       xlink:href="#linearGradient3166"
       id="linearGradient2926"
       gradientUnits="userSpaceOnUse"
       x1="0"
       y1="22"
       x2="74"
       y2="22" />
    <linearGradient
       gradientUnits="userSpaceOnUse"
       y2="22"
       x2="74"
       y1="22"
       x1="0"
       id="linearGradient3040"
       xlink:href="#linearGradient3166" />
    <linearGradient
       collect="always"
       xlink:href="#linearGradient3166"
       id="linearGradient3055"
       gradientUnits="userSpaceOnUse"
       x1="0"
       y1="22"
       x2="74"
       y2="22" />
    <linearGradient
       gradientUnits="userSpaceOnUse"
       y2="22"
       x2="74"
       y1="22"
       x1="0"
       id="linearGradient3165"
       xlink:href="#linearGradient3166" />
    <linearGradient
       collect="always"
       xlink:href="#linearGradient3166"
       id="linearGradient3184"
       gradientUnits="userSpaceOnUse"
       x1="0"
       y1="22"
       x2="74"
       y2="22" />
    <linearGradient
       gradientUnits="userSpaceOnUse"
       y2="22"
       x2="74"
       y1="22"
       x1="0"
       id="linearGradient3294"
       xlink:href="#linearGradient3166" />
    <linearGradient
       collect="always"
       xlink:href="#linearGradient3166"
       id="linearGradient3323"
       gradientUnits="userSpaceOnUse"
       x1="0"
       y1="22"
       x2="74"
       y2="22" />
    <linearGradient
       gradientUnits="userSpaceOnUse"
       y2="22"
       x2="74"
       y1="22"
       x1="0"
       id="linearGradient3437"
       xlink:href="#linearGradient3166" />
    <linearGradient
       collect="always"
       xlink:href="#linearGradient3166"
       id="linearGradient3452"
       gradientUnits="userSpaceOnUse"
       x1="0"
       y1="22"
       x2="74"
       y2="22" />
    <linearGradient
       gradientUnits="userSpaceOnUse"
       y2="21"
       x2="104"
       y1="0"
       x1="0"
       id="linearGradient3601"
       xlink:href="#linearGradient3166" />
    <linearGradient
       collect="always"
       xlink:href="#linearGradient3166"
       id="linearGradient3608"
       gradientUnits="userSpaceOnUse"
       x1="0"
       y1="22"
       x2="74"
       y2="22" />
    <linearGradient
       gradientUnits="userSpaceOnUse"
       y2="21"
       x2="104"
       y1="0"
       x1="0"
       id="linearGradient3690"
       xlink:href="#linearGradient3166" />
    <linearGradient
       collect="always"
       xlink:href="#linearGradient3166"
       id="linearGradient3697"
       gradientUnits="userSpaceOnUse"
       x1="0"
       y1="22"
       x2="74"
       y2="22" />
    <linearGradient
       gradientUnits="userSpaceOnUse"
       y2="21"
       x2="104"
       y1="0"
       x1="0"
       id="linearGradient3779"
       xlink:href="#linearGradient3166" />
    <linearGradient
       collect="always"
       xlink:href="#linearGradient3166"
       id="linearGradient3786"
       gradientUnits="userSpaceOnUse"
       x1="0"
       y1="22"
       x2="74"
       y2="22" />
  </defs>
  <path
     style="fill:#ffd000;fill-opacity:1;stroke:#e0a000;stroke-width:1;stroke-opacity:1"
     d="M 0.5594301,0.5199639 L 0.49711997,438.41023 L 3.6209793,445.14297 L 8.494839,449.1072 L 15.156388,451.50288 L 128.9813,451.50288 L 135.82978,448.93866 L 141.77903,444.04729 L 144.50288,435.79171 L 144.54057,0.4971203 L 0.5594301,0.5199639 z"
     id="path7684" />
  <rect
     style="opacity:1;fill:#ffd000;fill-opacity:1;stroke:#e0a000;stroke-width:1.13613331;stroke-opacity:1"
     width="137.56932"
     height="0.13955142"
     x="3.7153397"
     y="227.19794"
     id="rect7686" />
  <rect
     style="opacity:1;fill:#ffd000;fill-opacity:1;stroke:#fff080;stroke-width:1.13613331;stroke-opacity:1"
     width="137.56932"
     height="0.13955142"
     x="3.7153397"
     y="228.31435"
     id="rect7688" />
  <rect
     style="opacity:1;fill:#ffd000;fill-opacity:1;stroke:#ffffc4;stroke-width:1.13613331;stroke-opacity:1"
     width="137.56932"
     height="0.13955142"
     x="3.7153397"
     y="229.29239"
     id="rect7690" />
  <rect
     style="opacity:1;fill:#ffd000;fill-opacity:1;stroke:#e0a000;stroke-width:1.13613331;stroke-opacity:1"
     width="137.56932"
     height="0.13955142"
     x="3.7153397"
     y="67.382996"
     id="rect7692" />
  <rect
     style="opacity:1;fill:#ffd000;fill-opacity:1;stroke:#fff080;stroke-width:1.13613331;stroke-opacity:1"
     width="137.56932"
     height="0.13955142"
     x="3.7153397"
     y="68.499405"
     id="rect7694" />
  <rect
     style="opacity:1;fill:#ffd000;fill-opacity:1;stroke:#ffffc4;stroke-width:1.13613331;stroke-opacity:1"
     width="137.56932"
     height="0.13955142"
     x="3.7153397"
     y="69.477448"
     id="rect7696" />
  <rect
     style="opacity:1;fill:#ffd000;fill-opacity:1;stroke:#e0a000;stroke-width:1.08842015;stroke-opacity:1"
     width="123.61703"
     height="0.14253192"
     x="10.691486"
     y="341.35913"
     id="rect7698" />
  <rect
     style="opacity:1;fill:#ffd000;fill-opacity:1;stroke:#fff080;stroke-width:1.08842015;stroke-opacity:1"
     width="123.61703"
     height="0.14253192"
     x="10.691486"
     y="342.49942"
     id="rect7700" />
  <rect
     style="opacity:1;fill:#ffd000;fill-opacity:1;stroke:#ffffc4;stroke-width:1.08842015;stroke-opacity:1"
     width="123.61703"
     height="0.14253192"
     x="10.691486"
     y="343.49832"
     id="rect7702" />
  <rect
     style="opacity:1;fill:#ffd000;fill-opacity:1;stroke:#e0a000;stroke-width:1.13613331;stroke-opacity:1"
     width="137.56932"
     height="0.13955142"
     x="3.7153397"
     y="-28.931932"
     transform="scale(1,-1)"
     id="rect7704" />
  <rect
     style="opacity:1;fill:#ffd000;fill-opacity:1;stroke:#fff080;stroke-width:1.13613331;stroke-opacity:1"
     width="137.56932"
     height="0.13955142"
     x="3.7153397"
     y="-27.815523"
     transform="scale(1,-1)"
     id="rect7706" />
  <rect
     style="opacity:1;fill:#ffd000;fill-opacity:1;stroke:#e0a000;stroke-width:1.13613331;stroke-opacity:1"
     width="137.56932"
     height="0.13955142"
     x="3.7153397"
     y="-424.77127"
     transform="scale(1,-1)"
     id="rect7708" />
  <rect
     style="opacity:1;fill:#ffd000;fill-opacity:1;stroke:#fff080;stroke-width:1.13613331;stroke-opacity:1"
     width="137.56932"
     height="0.13955142"
     x="3.7153397"
     y="-423.43195"
     transform="scale(1,-1)"
     id="rect7710" />
  <path
     style="fill:#fff080;fill-opacity:1;stroke:none;stroke-width:1;stroke-opacity:1"
     d="M 12,428.5 A 1.5,1.5 0 1 1 9,428.5 A 1.5,1.5 0 1 1 12,428.5 z"
     transform="translate(122.16407,15.40625)"
     id="path7712" />
  <path
     style="fill:#ff4040;fill-opacity:1;stroke:#ff4040;stroke-width:1;stroke-opacity:1"
     d="M 79.5,438.375 A 8.375,8.125 0 1 1 62.75,438.375 A 8.375,8.125 0 1 1 79.5,438.375 z"
     transform="translate(1.375,-0.749023)"
     id="path7714" />
  <text
     style="font-size:12px;font-weight:bold;font-family:Bitstream Vera Sans;"
     id="text7716">
    <tspan
       x="68"
       y="442"
       style="font-size:12px;font-weight:bold;fill:#ffffff;font-family:Bitstream Vera Sans;"
       id="tspan7718">X</tspan>
  </text>
  <g
     transform="matrix(0.66667,0,0,0.66667,47.83321,34.333281)"
     id="g7720">
    <path
       d="M 48,1 C 64,1 64,1 64,1 L 69.5,5 L 73,11 L 73,30 L 69.5,35 L 64,39 L 47,39 L 47,39 L 47,43 L 27,43 L 27,39 L 10,39 L 4.5,35 L 1,30 L 1,11 L 4.5,5 L 10,1 L 26,1 L 26,6 L 48,6 L 48,1 z"
       style="fill:url(#linearGradient3172);fill-opacity:1;stroke:#00a000;stroke-width:2;stroke-opacity:1"
       id="path7722" />
    <text
       style="font-size:12px;text-align:center;text-anchor:middle;font-family:Bitstream Vera Sans"
       id="text7724">
      <tspan
         style="font-size:18px"
         y="26"
         x="37"
         id="tspan7726">сброс</tspan>
    </text>
  </g>
  <g
     transform="matrix(0.66667,0,0,0.66667,7.416521,79.33328)"
     id="g7728">
    <path
       d="M 70,6 L 86.5,6 L 86.5,12 L 82.5,12 L 82.5,9 L 72,9"
       style="fill:#00e000;fill-opacity:1;stroke:#008000;stroke-width:1.5;stroke-opacity:1"
       id="path7730" />
    <path
       d="M 70,33.5 L 86.5,33.5 L 86.5,27.5 L 82.5,27.5 L 82.5,30.5 L 72,30.5"
       style="fill:#00e000;fill-opacity:1;stroke:#008000;stroke-width:1.5;stroke-opacity:1"
       id="path7732" />
    <path
       d="M 48,1 C 64,1 64,1 64,1 L 69.5,5 L 73,11 L 73,30 L 69.5,35 L 64,39 L 47,39 L 47,39 L 47,43 L 27,43 L 27,39 L 10,39 L 4.5,35 L 1,30 L 1,11 L 4.5,5 L 10,1 L 26,1 L 26,6 L 48,6 L 48,1 z"
       style="fill:url(#linearGradient2668);fill-opacity:1;stroke:#00a000;stroke-width:2;stroke-opacity:1"
       id="path7734" />
    <text
       style="font-size:12px;text-align:center;text-anchor:middle;font-family:Bitstream Vera Sans"
       id="text7736">
      <tspan
         style="font-size:18px"
         y="26"
         x="37"
         id="tspan7738">вперёд</tspan>
    </text>
  </g>
  <g
     transform="matrix(0.66667,0,0,0.66667,79.416521,79.33328)"
     id="g7740">
    <path
       d="M 70,6 L 86.5,6 L 86.5,12 L 82.5,12 L 82.5,9 L 72,9"
       style="fill:#00e000;fill-opacity:1;stroke:#008000;stroke-width:1.5;stroke-opacity:1"
       id="path7742" />
    <path
       d="M 70,33.5 L 86.5,33.5 L 86.5,27.5 L 82.5,27.5 L 82.5,30.5 L 72,30.5"
       style="fill:#00e000;fill-opacity:1;stroke:#008000;stroke-width:1.5;stroke-opacity:1"
       id="path7744" />
    <path
       d="M 48,1 C 64,1 64,1 64,1 L 69.5,5 L 73,11 L 73,30 L 69.5,35 L 64,39 L 47,39 L 47,39 L 47,43 L 27,43 L 27,39 L 10,39 L 4.5,35 L 1,30 L 1,11 L 4.5,5 L 10,1 L 26,1 L 26,6 L 48,6 L 48,1 z"
       style="fill:url(#linearGradient2797);fill-opacity:1;stroke:#00a000;stroke-width:2;stroke-opacity:1"
       id="path7746" />
    <text
       style="font-size:12px;text-align:center;text-anchor:middle;font-family:Bitstream Vera Sans"
       id="text7748">
      <tspan
         style="font-size:18px"
         y="26"
         x="37"
         id="tspan7750">назад</tspan>
    </text>
  </g>
  <g
     transform="matrix(0.66667,0,0,0.66667,7.416521,119.99995)"
     id="g7752">
    <path
       d="M 70,6 L 86.5,6 L 86.5,12 L 82.5,12 L 82.5,9 L 72,9"
       style="fill:#00e000;fill-opacity:1;stroke:#008000;stroke-width:1.5;stroke-opacity:1"
       id="path7754" />
    <path
       d="M 70,33.5 L 86.5,33.5 L 86.5,27.5 L 82.5,27.5 L 82.5,30.5 L 72,30.5"
       style="fill:#00e000;fill-opacity:1;stroke:#008000;stroke-width:1.5;stroke-opacity:1"
       id="path7756" />
    <path
       d="M 48,1 C 64,1 64,1 64,1 L 69.5,5 L 73,11 L 73,30 L 69.5,35 L 64,39 L 47,39 L 47,39 L 47,43 L 27,43 L 27,39 L 10,39 L 4.5,35 L 1,30 L 1,11 L 4.5,5 L 10,1 L 26,1 L 26,6 L 48,6 L 48,1 z"
       style="fill:url(#linearGradient2926);fill-opacity:1;stroke:#00a000;stroke-width:2;stroke-opacity:1"
       id="path7758" />
    <text
       style="font-size:12px;text-align:center;text-anchor:middle;font-family:Bitstream Vera Sans"
       id="text7760">
      <tspan
         style="font-size:18px"
         y="26"
         x="37"
         id="tspan7762">влево</tspan>
    </text>
  </g>
  <g
     transform="matrix(0.66667,0,0,0.66667,79.416521,119.99995)"
     id="g7764">
    <path
       d="M 70,6 L 86.5,6 L 86.5,12 L 82.5,12 L 82.5,9 L 72,9"
       style="fill:#00e000;fill-opacity:1;stroke:#008000;stroke-width:1.5;stroke-opacity:1"
       id="path7766" />
    <path
       d="M 70,33.5 L 86.5,33.5 L 86.5,27.5 L 82.5,27.5 L 82.5,30.5 L 72,30.5"
       style="fill:#00e000;fill-opacity:1;stroke:#008000;stroke-width:1.5;stroke-opacity:1"
       id="path7768" />
    <path
       d="M 48,1 C 64,1 64,1 64,1 L 69.5,5 L 73,11 L 73,30 L 69.5,35 L 64,39 L 47,39 L 47,39 L 47,43 L 27,43 L 27,39 L 10,39 L 4.5,35 L 1,30 L 1,11 L 4.5,5 L 10,1 L 26,1 L 26,6 L 48,6 L 48,1 z"
       style="fill:url(#linearGradient3055);fill-opacity:1;stroke:#00a000;stroke-width:2;stroke-opacity:1"
       id="path7770" />
    <text
       style="font-size:12px;text-align:center;text-anchor:middle;font-family:Bitstream Vera Sans"
       id="text7772">
      <tspan
         style="font-size:18px"
         y="26"
         x="37"
         id="tspan7774">вправо</tspan>
    </text>
  </g>
  <g
     transform="matrix(0.66667,0,0,0.66667,43.416521,162.66655)"
     id="g7776">
    <path
       d="M 69.75,42.75 L 86.25,42.75 L 86.25,49 L 82.25,49 L 82.25,45.75 L 71.75,45.75"
       style="fill:#00e000;fill-opacity:1;stroke:#008000;stroke-width:1.5;stroke-opacity:1"
       id="path7778" />
    <path
       d="M 69.75,70.25 L 86.25,70.25 L 86.25,64.249999 L 82.25,64.249999 L 82.25,67.249999 L 71.75,67.249999"
       style="fill:#00e000;fill-opacity:1;stroke:#008000;stroke-width:1.5;stroke-opacity:1"
       id="path7780" />
    <path
       d="M 70,6 L 86.5,6 L 86.5,12 L 82.5,12 L 82.5,9 L 72,9"
       style="fill:#00e000;fill-opacity:1;stroke:#008000;stroke-width:1.5;stroke-opacity:1"
       id="path7782" />
    <path
       d="M 70,33.5 L 86.5,33.5 L 86.5,27.5 L 82.5,27.5 L 82.5,30.5 L 72,30.5"
       style="fill:#00e000;fill-opacity:1;stroke:#008000;stroke-width:1.5;stroke-opacity:1"
       id="path7784" />
    <path
       d="M 48,1 C 64,1 64,1 64,1 L 69.5,5 L 73,11 L 73,67 L 69.5,72 L 64,76 L 47,76 L 47,76 L 47,80 L 27,80 L 27,76 L 10,76 L 4.5,72 L 1,67 L 1,11 L 4.5,5 L 10,1 L 26,1 L 26,6 L 48,6 L 48,1 z"
       style="fill:url(#linearGradient3184);fill-opacity:1;stroke:#00a000;stroke-width:2;stroke-opacity:1"
       id="path7786" />
    <text
       style="font-size:12px;text-align:center;text-anchor:middle;font-family:Bitstream Vera Sans"
       id="text7788">
      <tspan
         style="font-size:18px"
         y="43"
         x="37"
         id="tspan7790">круг</tspan>
    </text>
    <text
       style="font-size:12px;text-align:end;text-anchor:end;font-family:Bitstream Vera Sans"
       id="text7792">
      <tspan
         style="font-size:14px"
         y="22"
         x="70"
         id="tspan7794">угол</tspan>
    </text>
  </g>
  <g
     transform="matrix(0.66667,0,0,0.66667,43.416521,237.99988)"
     id="g7798">
    <path
       d="M 69.75,42.75 L 86.25,42.75 L 86.25,49 L 82.25,49 L 82.25,45.75 L 71.75,45.75"
       style="fill:#00e000;fill-opacity:1;stroke:#008000;stroke-width:1.5;stroke-opacity:1"
       id="path7800" />
    <path
       d="M 69.75,70.25 L 86.25,70.25 L 86.25,64.249999 L 82.25,64.249999 L 82.25,67.249999 L 71.75,67.249999"
       style="fill:#00e000;fill-opacity:1;stroke:#008000;stroke-width:1.5;stroke-opacity:1"
       id="path7802" />
    <path
       d="M 70,6 L 86.5,6 L 86.5,12 L 82.5,12 L 82.5,9 L 72,9"
       style="fill:#00e000;fill-opacity:1;stroke:#008000;stroke-width:1.5;stroke-opacity:1"
       id="path7804" />
    <path
       d="M 70,33.5 L 86.5,33.5 L 86.5,27.5 L 82.5,27.5 L 82.5,30.5 L 72,30.5"
       style="fill:#00e000;fill-opacity:1;stroke:#008000;stroke-width:1.5;stroke-opacity:1"
       id="path7806" />
    <path
       d="M 48,1 C 64,1 64,1 64,1 L 69.5,5 L 73,11 L 73,67 L 69.5,72 L 64,76 L 47,76 L 47,76 L 47,80 L 27,80 L 27,76 L 10,76 L 4.5,72 L 1,67 L 1,11 L 4.5,5 L 10,1 L 26,1 L 26,6 L 48,6 L 48,1 z"
       style="fill:url(#linearGradient3323);fill-opacity:1;stroke:#00a000;stroke-width:2;stroke-opacity:1"
       id="path7808" />
    <text
       style="font-size:12px;text-align:center;text-anchor:middle;font-family:Bitstream Vera Sans"
       id="text7810"
       x="0.73376256"
       y="-5.1363378">
      <tspan
         style="font-size:18px"
         y="37.863663"
         x="37.733761"
         id="tspan7812">распо-</tspan>
    </text>
    <text
       style="font-size:12px;text-align:center;text-anchor:middle;font-family:Bitstream Vera Sans"
       id="text7873"
       y="12.473964">
      <tspan
         style="font-size:18px"
         y="55.473965"
         x="37"
         id="tspan7875">ложить</tspan>
    </text>
    <text
       style="font-size:12px;text-anchor:end;text-align:end;font-family:Bitstream Vera Sans;"
       id="text7814">
      <tspan
         style="font-size:14px;"
         y="22"
         x="70"
         id="tspan7816">x</tspan>
      <tspan
         style="font-size:14px;"
         y="66"
         x="70"
         id="tspan7818">y</tspan>
    </text>
  </g>
  <g
     transform="matrix(0.66667,0,0,0.66667,43.416521,300.99995)"
     id="g7820">
    <path
       d="M 70,6 L 86.5,6 L 86.5,12 L 82.5,12 L 82.5,9 L 72,9"
       style="fill:#00e000;fill-opacity:1;stroke:#008000;stroke-width:1.5;stroke-opacity:1"
       id="path7822" />
    <path
       d="M 70,33.5 L 86.5,33.5 L 86.5,27.5 L 82.5,27.5 L 82.5,30.5 L 72,30.5"
       style="fill:#00e000;fill-opacity:1;stroke:#008000;stroke-width:1.5;stroke-opacity:1"
       id="path7824" />
    <path
       d="M 48,1 C 64,1 64,1 64,1 L 69.5,5 L 73,11 L 73,30 L 69.5,35 L 64,39 L 47,39 L 47,39 L 47,43 L 27,43 L 27,39 L 10,39 L 4.5,35 L 1,30 L 1,11 L 4.5,5 L 10,1 L 26,1 L 26,6 L 48,6 L 48,1 z"
       style="fill:url(#linearGradient3452);fill-opacity:1;stroke:#00a000;stroke-width:2;stroke-opacity:1"
       id="path7826" />
    <text
       style="font-size:12px;text-align:center;text-anchor:middle;font-family:Bitstream Vera Sans"
       id="text7828">
      <tspan
         style="font-size:18px"
         y="26"
         x="37"
         id="tspan7830">курс</tspan>
    </text>
  </g>
  <g
     transform="matrix(0.66667,0,0,0.66667,37.333158,351.99999)"
     id="g7832">
    <path
       d="M 1,0.5 L 6,0.5 L 6,4.5 L 13,4.5 L 13,0.5 L 104.5,0.5 L 104.5,20.5 L 13,20.5 L 13,16.5 L 6,16.5 L 6,20.5 L 1,20.5 L 1,0.5 z"
       style="fill:url(#linearGradient3608);fill-opacity:1;stroke:#00a000;stroke-width:2;stroke-opacity:1"
       id="path7834" />
    <text
       style="font-size:12px;text-anchor:middle;text-align:center;font-family:Bitstream Vera Sans;"
       id="text7836">
      <tspan
         style="font-size:16px;"
         y="15.5"
         x="52"
         id="tspan7838">x</tspan>
    </text>
  </g>
  <g
     transform="matrix(0.66667,0,0,0.66667,37.333157,375.66665)"
     id="g7840">
    <path
       d="M 1,0.5 L 6,0.5 L 6,4.5 L 13,4.5 L 13,0.5 L 104.5,0.5 L 104.5,20.5 L 13,20.5 L 13,16.5 L 6,16.5 L 6,20.5 L 1,20.5 L 1,0.5 z"
       style="fill:url(#linearGradient3697);fill-opacity:1;stroke:#00a000;stroke-width:2;stroke-opacity:1"
       id="path7842" />
    <text
       style="font-size:12px;text-anchor:middle;text-align:center;font-family:Bitstream Vera Sans;"
       id="text7844">
      <tspan
         style="font-size:16px;"
         y="15.5"
         x="52"
         id="tspan7846">y</tspan>
    </text>
  </g>
  <g
     transform="matrix(0.66667,0,0,0.66667,37.333157,399.33331)"
     id="g7848">
    <path
       d="M 1,0.5 L 6,0.5 L 6,4.5 L 13,4.5 L 13,0.5 L 104.5,0.5 L 104.5,20.5 L 13,20.5 L 13,16.5 L 6,16.5 L 6,20.5 L 1,20.5 L 1,0.5 z"
       style="fill:url(#linearGradient3786);fill-opacity:1;stroke:#00a000;stroke-width:2;stroke-opacity:1"
       id="path7850" />
    <text
       style="font-size:12px;text-align:center;text-anchor:middle;font-family:Bitstream Vera Sans"
       id="text7852">
      <tspan
         style="font-size:16px"
         y="15.5"
         x="52"
         id="tspan7854">курс</tspan>
    </text>
  </g>
  <text
     style="font-size:12px;text-align:center;text-anchor:middle;font-family:Bitstream Vera Sans"
     id="text7856">
    <tspan
       x="72.5"
       y="21.5"
       style="font-size:20px"
       id="tspan7858">Черепашка</tspan>
  </text>
  <text
     style="font-size:8.00004005px;text-align:end;text-anchor:end;font-family:Bitstream Vera Sans"
     id="text7865"
     x="43.626076"
     y="188.31721">
    <tspan
       style="font-size:9.33337975px"
       y="202.98396"
       x="90.292976"
       id="tspan7867">радиус</tspan>
  </text>
</svg>
