<?xml version="1.0" encoding="UTF-8" standalone="no"?>
<svg
   xmlns="http://www.w3.org/2000/svg"
   xmlns:xlink="http://www.w3.org/1999/xlink"
   width="92"
   height="46"
   version="1.0">
  <defs>
    <linearGradient
       id="linearGradient3166">
      <stop
         style="stop-color:#ffffff;stop-opacity:1;"
         offset="0"
         id="stop3168" />
      <stop
         style="stop-color:#ff00ff;stop-opacity:1;"
         offset="1"
         id="stop3170" />
    </linearGradient>
    <linearGradient
       xlink:href="#linearGradient3166"
       id="linearGradient3172"
       x1="0"
       y1="22"
       x2="74"
       y2="22"
       gradientUnits="userSpaceOnUse"
       gradientTransform="matrix(1.0000896,0,0,0.9890701,0.2458786,0.2513884)" />
  </defs>
  <path
     style="fill:url(#linearGradient3172);fill-opacity:1;stroke:#a000a0;stroke-width:1.49184680000000003px;stroke-opacity:1;opacity:1"
     d="M 0.74592343,0.74592343 L 91.754077,0.74592343 L 91.754077,4.2076687 C 91.754077,4.2076687 79.069042,5.9236467 74,9 C 71.203841,10.696962 66.759508,15.097466 65.251702,18 C 64.484155,19.477532 64.087075,21.336249 64.151604,23 C 64.189862,23.986414 64.551215,26.149113 65.051684,27 C 67.351348,30.909843 70.1144,33.659607 74,36 C 78.30402,38.592418 91.754077,41.792331 91.754077,41.792331 L 91.754077,45.254077 L 0.74592343,45.254077 L 0.74592343,41.792331 C 0.74592343,41.792331 14.227222,39.463583 19.247581,36 C 22.495791,33.759036 26.081665,30.711113 27.348298,27 C 27.684138,26.016021 27.779735,23.994457 27.748342,23 C 27.71695,22.005542 27.616888,18.878752 27.248298,18 C 25.790481,14.524428 22.470929,10.998997 19.247581,9 C 14.258161,5.9057523 0.74592343,4.2076687 0.74592343,4.2076687 L 0.74592343,0.74592343 z" />
  <text
     style="font-size:12px;text-anchor:middle;text-align:center;font-family:Bitstream Vera Sans">
     <tspan
       x="46"
       y="29"
       style="font-size:18px">e</tspan></text>
</svg>
