<?xml version="1.0" encoding="UTF-8" standalone="no"?>
<!-- Created with Inkscape (http://www.inkscape.org/) -->
<svg
   xmlns:svg="http://www.w3.org/2000/svg"
   xmlns="http://www.w3.org/2000/svg"
   xmlns:xlink="http://www.w3.org/1999/xlink"
   version="1.0"
   width="87"
   height="44"
   id="svg2">
  <defs
     id="defs4">
    <linearGradient
       id="linearGradient3166">
      <stop
         id="stop3168"
         style="stop-color:#ffffff;stop-opacity:1"
         offset="0" />
      <stop
         id="stop3170"
         style="stop-color:#feb00a;stop-opacity:1"
         offset="1" />
    </linearGradient>
    <linearGradient
       x1="0"
       y1="22"
       x2="74"
       y2="22"
       id="linearGradient3172"
       xlink:href="#linearGradient3166"
       gradientUnits="userSpaceOnUse" />
  </defs>
  <path
     d="M 70,6 L 86.5,6 L 86.5,12 L 82.5,12 L 82.5,9 L 72,9"
     id="path10"
     style="fill:#c18516;fill-opacity:1;stroke:#966711;stroke-width:1.5;stroke-opacity:1" />
  <path
     d="M 70,33.5 L 86.5,33.5 L 86.5,27.5 L 82.5,27.5 L 82.5,30.5 L 72,30.5"
     id="path12"
     style="fill:#c18516;fill-opacity:1;stroke:#966711;stroke-width:1.5;stroke-opacity:1" />
  <path
     d="M 48,1 C 64,1 64,1 64,1 C 64,1 68.131798,3.4865526 69.5,5 C 70.897472,6.5458243 73,11 73,11 L 73,30 C 73,30 70.78295,33.693654 69.5,35 C 68.07044,36.455629 64,39 64,39 L 47,39 L 47,39 L 47,43 L 27,43 L 27,39 L 10,39 C 10,39 5.9295605,36.455629 4.5,35 C 3.2170498,33.693654 1,30 1,30 L 1,11 C 1,11 3.1025283,6.5458243 4.5,5 C 5.8682021,3.4865526 10,1 10,1 L 26,1 L 26,6 L 48,6 L 48,1 z"
     id="path14"
     style="fill:url(#linearGradient3172);fill-opacity:1;stroke:#a97513;stroke-width:2;stroke-opacity:1" />
  <text
     id="text16"
     style="font-size:18px;text-align:center;text-anchor:middle;font-family:Bitstream Vera Sans">
    <tspan
       x="37"
       y="26"
       id="tspan18"
       style="font-size:16px">aspetta</tspan>
  </text>
</svg>
