<?xml version="1.0" encoding="UTF-8" standalone="no"?>
<!-- Created with Inkscape (http://www.inkscape.org/) -->

<svg
   xmlns:svg="http://www.w3.org/2000/svg"
   xmlns="http://www.w3.org/2000/svg"
   xmlns:xlink="http://www.w3.org/1999/xlink"
   version="1.0"
   width="145"
   height="500"
   id="svg2">
  <defs
     id="defs94">
    <linearGradient
       id="linearGradient3405">
      <stop
         id="stop3407"
         style="stop-color:#ffffff;stop-opacity:1"
         offset="0" />
      <stop
         id="stop3409"
         style="stop-color:#ffff00;stop-opacity:1"
         offset="1" />
    </linearGradient>
    <linearGradient
       id="linearGradient3241">
      <stop
         id="stop3243"
         style="stop-color:#ffffff;stop-opacity:1"
         offset="0" />
      <stop
         id="stop3245"
         style="stop-color:#ff00ff;stop-opacity:1"
         offset="1" />
    </linearGradient>
    <linearGradient
       x1="37.499828"
       y1="41.5"
       x2="107.50017"
       y2="41.5"
       id="linearGradient3247"
       xlink:href="#linearGradient3241"
       gradientUnits="userSpaceOnUse" />
    <linearGradient
       x1="20.764166"
       y1="80.032402"
       x2="47.264164"
       y2="80.032402"
       id="linearGradient3255"
       xlink:href="#linearGradient3241"
       gradientUnits="userSpaceOnUse" />
    <linearGradient
       x1="86.115639"
       y1="80.032402"
       x2="122.24064"
       y2="80.032402"
       id="linearGradient3263"
       xlink:href="#linearGradient3241"
       gradientUnits="userSpaceOnUse" />
    <linearGradient
       x1="20.764162"
       y1="121.53331"
       x2="47.264164"
       y2="121.53331"
       id="linearGradient3271"
       xlink:href="#linearGradient3241"
       gradientUnits="userSpaceOnUse" />
    <linearGradient
       x1="86.115639"
       y1="121.53331"
       x2="122.24064"
       y2="121.53331"
       id="linearGradient3279"
       xlink:href="#linearGradient3241"
       gradientUnits="userSpaceOnUse" />
    <linearGradient
       x1="15.95166"
       y1="163.03423"
       x2="52.07666"
       y2="163.03423"
       id="linearGradient3287"
       xlink:href="#linearGradient3241"
       gradientUnits="userSpaceOnUse" />
    <linearGradient
       x1="79.511383"
       y1="168.49895"
       x2="116.8449"
       y2="168.49895"
       id="linearGradient3295"
       xlink:href="#linearGradient3241"
       gradientUnits="userSpaceOnUse" />
    <linearGradient
       x1="79.511383"
       y1="168.49895"
       x2="116.8449"
       y2="168.49895"
       id="linearGradient3297"
       xlink:href="#linearGradient3241"
       gradientUnits="userSpaceOnUse" />
    <linearGradient
       x1="79.511383"
       y1="168.49895"
       x2="116.8449"
       y2="168.49895"
       id="linearGradient3299"
       xlink:href="#linearGradient3241"
       gradientUnits="userSpaceOnUse" />
    <linearGradient
       x1="79.511383"
       y1="168.49895"
       x2="116.8449"
       y2="168.49895"
       id="linearGradient3301"
       xlink:href="#linearGradient3241"
       gradientUnits="userSpaceOnUse" />
    <linearGradient
       x1="79.511383"
       y1="168.49895"
       x2="116.8449"
       y2="168.49895"
       id="linearGradient3307"
       xlink:href="#linearGradient3241"
       gradientUnits="userSpaceOnUse"
       gradientTransform="translate(6,-5.464714)" />
    <linearGradient
       x1="10.111029"
       y1="240.50002"
       x2="134.88898"
       y2="240.50002"
       id="linearGradient3315"
       xlink:href="#linearGradient3241"
       gradientUnits="userSpaceOnUse" />
    <linearGradient
       x1="1.0548444"
       y1="277"
       x2="143.94516"
       y2="277"
       id="linearGradient3323"
       xlink:href="#linearGradient3241"
       gradientUnits="userSpaceOnUse" />
    <linearGradient
       x1="1.0548444"
       y1="304.5"
       x2="143.94516"
       y2="304.5"
       id="linearGradient3331"
       xlink:href="#linearGradient3241"
       gradientUnits="userSpaceOnUse" />
    <linearGradient
       x1="1.0548444"
       y1="332"
       x2="143.94516"
       y2="332"
       id="linearGradient3339"
       xlink:href="#linearGradient3241"
       gradientUnits="userSpaceOnUse" />
    <linearGradient
       x1="8.1665154"
       y1="372"
       x2="69.833488"
       y2="372"
       id="linearGradient3347"
       xlink:href="#linearGradient3241"
       gradientUnits="userSpaceOnUse" />
    <linearGradient
       x1="77.666512"
       y1="371.5"
       x2="139.33348"
       y2="371.5"
       id="linearGradient3355"
       xlink:href="#linearGradient3241"
       gradientUnits="userSpaceOnUse" />
    <linearGradient
       x1="12.999865"
       y1="402.5"
       x2="68.000137"
       y2="402.5"
       id="linearGradient3363"
       xlink:href="#linearGradient3241"
       gradientUnits="userSpaceOnUse" />
    <linearGradient
       x1="12.999865"
       y1="402.5"
       x2="68.000137"
       y2="402.5"
       id="linearGradient3365"
       xlink:href="#linearGradient3241"
       gradientUnits="userSpaceOnUse" />
    <linearGradient
       x1="12.999865"
       y1="402.5"
       x2="68.000137"
       y2="402.5"
       id="linearGradient3367"
       xlink:href="#linearGradient3241"
       gradientUnits="userSpaceOnUse" />
    <linearGradient
       x1="12.999865"
       y1="402.5"
       x2="68.000137"
       y2="402.5"
       id="linearGradient3371"
       xlink:href="#linearGradient3241"
       gradientUnits="userSpaceOnUse"
       gradientTransform="translate(32,8)" />
    <linearGradient
       x1="12.999865"
       y1="402.5"
       x2="68.000137"
       y2="402.5"
       id="linearGradient3374"
       xlink:href="#linearGradient3241"
       gradientUnits="userSpaceOnUse"
       gradientTransform="translate(32,8)" />
    <linearGradient
       x1="80.020439"
       y1="401.94131"
       x2="138.02074"
       y2="401.94131"
       id="linearGradient3382"
       xlink:href="#linearGradient3241"
       gradientUnits="userSpaceOnUse" />
    <linearGradient
       x1="80.020439"
       y1="401.94131"
       x2="138.02074"
       y2="401.94131"
       id="linearGradient3384"
       xlink:href="#linearGradient3241"
       gradientUnits="userSpaceOnUse" />
    <linearGradient
       x1="80.020439"
       y1="401.94131"
       x2="138.02074"
       y2="401.94131"
       id="linearGradient3386"
       xlink:href="#linearGradient3241"
       gradientUnits="userSpaceOnUse" />
    <linearGradient
       x1="80.020439"
       y1="401.94131"
       x2="138.02074"
       y2="401.94131"
       id="linearGradient3388"
       xlink:href="#linearGradient3241"
       gradientUnits="userSpaceOnUse" />
    <linearGradient
       x1="80.020439"
       y1="401.94131"
       x2="138.02074"
       y2="401.94131"
       id="linearGradient3390"
       xlink:href="#linearGradient3241"
       gradientUnits="userSpaceOnUse" />
    <linearGradient
       x1="80.020439"
       y1="401.94131"
       x2="138.02074"
       y2="401.94131"
       id="linearGradient3394"
       xlink:href="#linearGradient3241"
       gradientUnits="userSpaceOnUse"
       gradientTransform="translate(-36.520584,50.43926)" />
    <linearGradient
       x1="80.020439"
       y1="401.94131"
       x2="138.02074"
       y2="401.94131"
       id="linearGradient3397"
       xlink:href="#linearGradient3241"
       gradientUnits="userSpaceOnUse"
       gradientTransform="translate(-36.520584,50.43926)" />
    <linearGradient
       x1="80.020439"
       y1="401.94131"
       x2="138.02074"
       y2="401.94131"
       id="linearGradient3400"
       xlink:href="#linearGradient3241"
       gradientUnits="userSpaceOnUse"
       gradientTransform="translate(-36.520584,50.43926)" />
    <linearGradient
       x1="80.020439"
       y1="401.94131"
       x2="138.02074"
       y2="401.94131"
       id="linearGradient3403"
       xlink:href="#linearGradient3241"
       gradientUnits="userSpaceOnUse"
       gradientTransform="translate(-36.520584,50.43926)" />
    <linearGradient
       x1="20.764162"
       y1="201.22266"
       x2="47.264164"
       y2="201.22266"
       id="linearGradient3411"
       xlink:href="#linearGradient3405"
       gradientUnits="userSpaceOnUse" />
    <linearGradient
       x1="90.928139"
       y1="201.22266"
       x2="117.42814"
       y2="201.22266"
       id="linearGradient3419"
       xlink:href="#linearGradient3405"
       gradientUnits="userSpaceOnUse" />
  </defs>
  <path
     d="m 0.5594301,0.5 -0.0623101,485.91023 3.12385933,6.73274 4.8738597,3.96423 6.661549,2.39568 113.824912,0 6.84848,-2.56422 5.94925,-4.89137 2.72385,-8.25558 L 144.54057,0.5 0.5594301,0.5 z"
     id="path25"
     style="fill:#ffd000;fill-opacity:1;stroke:#e0a000;stroke-width:1px;stroke-opacity:1" />
  <rect
     width="137.56932"
     height="0.13955142"
     x="3.7153397"
     y="221.19794"
     id="rect27"
     style="fill:#ffd000;fill-opacity:1;stroke:#e0a000;stroke-width:1.13613331;stroke-opacity:1" />
  <rect
     width="137.56932"
     height="0.13955142"
     x="3.7153397"
     y="222.31435"
     id="rect29"
     style="fill:#ffd000;fill-opacity:1;stroke:#fff080;stroke-width:1;stroke-opacity:1" />
  <rect
     width="137.56932"
     height="0.13955142"
     x="3.7153397"
     y="223.29239"
     id="rect31"
     style="fill:#ffd000;fill-opacity:1;stroke:#ffffc4;stroke-width:1;stroke-opacity:1" />
  <rect
     width="137.56932"
     height="0.13955142"
     x="3.7153397"
     y="55.382996"
     id="rect33"
     style="fill:#ffd000;fill-opacity:1;stroke:#e0a000;stroke-width:1;stroke-opacity:1" />
  <rect
     width="137.56932"
     height="0.13955142"
     x="3.7153397"
     y="56.499405"
     id="rect35"
     style="fill:#ffd000;fill-opacity:1;stroke:#fff080;stroke-width:1;stroke-opacity:1" />
  <rect
     width="137.56932"
     height="0.13955142"
     x="3.7153397"
     y="57.477448"
     id="rect37"
     style="fill:#ffd000;fill-opacity:1;stroke:#ffffc4;stroke-width:1;stroke-opacity:1" />
  <rect
     width="137.56932"
     height="0.13955142"
     x="3.7153397"
     y="-28.931932"
     transform="scale(1,-1)"
     id="rect39"
     style="fill:#ffd000;fill-opacity:1;stroke:#e0a000;stroke-width:1;stroke-opacity:1" />
  <rect
     width="137.56932"
     height="0.13955142"
     x="3.7153397"
     y="-27.815523"
     transform="scale(1,-1)"
     id="rect41"
     style="fill:#ffd000;fill-opacity:1;stroke:#fff080;stroke-width:1;stroke-opacity:1" />
  <rect
     width="137.56932"
     height="0.13955142"
     x="3.7153397"
     y="-472.77127"
     transform="scale(1,-1)"
     id="rect43"
     style="fill:#ffd000;fill-opacity:1;stroke:#e0a000;stroke-width:1;stroke-opacity:1" />
  <rect
     width="137.56932"
     height="0.13955142"
     x="3.7153397"
     y="-471.43195"
     transform="scale(1,-1)"
     id="rect45"
     style="fill:#ffd000;fill-opacity:1;stroke:#fff080;stroke-width:1;stroke-opacity:1" />
  <path
     d="m 79.5,438.375 c 0,4.48731 -3.749615,8.125 -8.375,8.125 -4.625385,0 -8.375,-3.63769 -8.375,-8.125 0,-4.48731 3.749615,-8.125 8.375,-8.125 4.625385,0 8.375,3.63769 8.375,8.125 l 0,0 z"
     transform="translate(1.375,47.250977)"
     id="path47"
     style="fill:#ff4040;fill-opacity:1;stroke:#ff4040;stroke-width:1;stroke-opacity:1" />
  <text
     id="text49"
     style="font-size:12px;font-variant:normal;font-weight:bold;font-stretch:normal;text-align:start;line-height:125%;writing-mode:lr-tb;text-anchor:start;fill:#ffffff;fill-opacity:1;stroke:none;font-family:Bitstream Vera Sans;-inkscape-font-specification:Bitstream Vera Sans Bold">
    <tspan
       x="67.879883"
       y="490"
       id="tspan51"
       style="font-size:12px">X</tspan>
  </text>
  <text
     id="text53"
     style="font-size:12px;text-align:center;text-anchor:middle;font-family:Bitstream Vera Sans">
    <tspan
       x="72.5"
       y="21.5"
       id="tspan2796"
       style="font-size:20px">Números</tspan>
  </text>
  <rect
     width="137.56932"
     height="0.13955142"
     x="3.7153397"
     y="258.883"
     id="rect56"
     style="fill:#ffd000;fill-opacity:1;stroke:#e0a000;stroke-width:1.13613331;stroke-opacity:1" />
  <rect
     width="137.56932"
     height="0.13955142"
     x="3.7153397"
     y="259.99942"
     id="rect58"
     style="fill:#ffd000;fill-opacity:1;stroke:#fff080;stroke-width:1.13613331;stroke-opacity:1" />
  <rect
     width="137.56932"
     height="0.13955142"
     x="3.7153397"
     y="260.97745"
     id="rect60"
     style="fill:#ffd000;fill-opacity:1;stroke:#ffffc4;stroke-width:1.13613331;stroke-opacity:1" />
  <rect
     width="137.56932"
     height="0.13955142"
     x="3.7153397"
     y="347.883"
     id="rect62"
     style="fill:#ffd000;fill-opacity:1;stroke:#e0a000;stroke-width:1.13613331;stroke-opacity:1" />
  <rect
     width="137.56932"
     height="0.13955142"
     x="3.7153397"
     y="348.99939"
     id="rect64"
     style="fill:#ffd000;fill-opacity:1;stroke:#fff080;stroke-width:1.13613331;stroke-opacity:1" />
  <rect
     width="137.56932"
     height="0.13955142"
     x="3.7153397"
     y="349.97745"
     id="rect66"
     style="fill:#ffd000;fill-opacity:1;stroke:#ffffc4;stroke-width:1.13613331;stroke-opacity:1" />
  <rect
     width="137.56932"
     height="0.13955142"
     x="3.7153397"
     y="429.883"
     id="rect68"
     style="fill:#ffd000;fill-opacity:1;stroke:#e0a000;stroke-width:1.13613331;stroke-opacity:1" />
  <rect
     width="137.56932"
     height="0.13955142"
     x="3.7153397"
     y="430.99939"
     id="rect70"
     style="fill:#ffd000;fill-opacity:1;stroke:#fff080;stroke-width:1.13613331;stroke-opacity:1" />
  <rect
     width="137"
     height="0.2"
     x="4"
     y="431"
     id="rect72"
     style="fill:#ffd000;fill-opacity:1;stroke:#ffffc4;stroke-width:1;stroke-opacity:1" />
  <path
     d="m 37.99983,34.8333 3.33335,0 0,2.66668 4.66669,0 0,-2.66668 61.0003,0 0,13.3334 -61.0003,0 0,-2.66668 -4.66669,0 0,2.66668 -3.33335,0 0,-13.3334 z"
     id="path74"
     style="fill:url(#linearGradient3247);fill-opacity:1;stroke:#a000a0;stroke-width:1;stroke-opacity:1" />
  <path
     d="m 122.3449,151.03208 -21.66678,0 -2.691694,1.44294 -1.645729,1.64573 -1.329271,2.24469 0,1.95034 -5.054484,0.0658 0,-2.01617 -3.945561,0 0,13.3334 4.00002,0 0,-2.33334 5.000025,0 0,4.77441 1.265117,1.84322 2.698996,1.05326 23.369361,-0.0658 0,-6.60506 -3.55478,0 0,2.06285 -5.59548,0 -0.18312,-15.06291 6.00003,0 0,2.00001 3.33335,0 0,-6.33337 z"
     id="path106"
     style="fill:url(#linearGradient3307);fill-opacity:1;stroke:#a000a0;stroke-width:1;stroke-opacity:1" />
  <g
     transform="translate(1.9359525,12.535286)"
     id="g108"
     style="fill:#000000;fill-opacity:1">
    <text
       id="text110"
       style="font-size:8px;text-align:center;text-anchor:middle;fill:#000000;fill-opacity:1;font-family:Bitstream Vera Sans">
      <tspan
         x="102"
         y="157"
         id="tspan112"
         style="font-size:16px;fill:#000000;fill-opacity:1">√</tspan>
    </text>
  </g>
  <path
     d="m 125.54364,230.16802 -105.340962,0.27463 -1.552933,0.82663 -1.096189,0.73479 -1.004839,1.65326 0,5.87827 -3.288566,0.0919 -0.09135,-1.56142 -2.557773,-0.0919 0.182698,9.3685 2.283726,0 0.09135,-1.92881 3.379915,0.0918 -0.09135,3.49022 0.91349,0.82663 1.552934,0.73479 110.166938,0.27554 -0.27405,-3.76577 5.57229,-0.18369 -0.0914,-8.35817 -5.20689,0 -0.0914,-5.14349 -1.18754,-1.65326 -1.82698,-1.56141 -0.44122,9.1e-4 0,0"
     id="path114"
     style="fill:url(#linearGradient3315);fill-opacity:1;stroke:#a000a0;stroke-width:1;stroke-opacity:1" />
  <path
     d="m 23.057444,238.07932 2.253187,0 0,1.94606 3.154461,0 0,-1.94606 41.23332,0 0,9.73031 -41.23332,0 0,-1.94607 -3.154461,0 0,1.94607 -2.253187,0 0,-9.73031 z"
     id="path116"
     style="fill:#ffffff;fill-opacity:1;stroke:#a000a0;stroke-width:1;stroke-opacity:1" />
  <path
     d="m 77.813595,238.07932 2.253188,0 0,1.94606 3.154462,0 0,-1.94606 41.233325,0 0,9.73031 -41.233325,0 0,-1.94607 -3.154462,0 0,1.94607 -2.253188,0 0,-9.73031 z"
     id="path118"
     style="fill:#ffffff;fill-opacity:1;stroke:#a000a0;stroke-width:1;stroke-opacity:1" />
  <text
     y="48"
     id="text120"
     style="font-size:8px;text-align:center;line-height:125%;text-anchor:middle;font-family:Bitstream Vera Sans">
    <tspan
       x="72.5"
       y="237"
       id="tspan122"
       style="font-size:10px;font-style:normal;font-variant:normal;font-weight:normal;font-stretch:normal;text-align:center;line-height:125%;writing-mode:lr-tb;text-anchor:middle;font-family:DejaVu Sans;-inkscape-font-specification:DejaVu Sans">aleatorio</tspan>
  </text>
  <path
     d="m 131.00059,323.49992 -117.890074,0.11111 -3.1111425,0.8889 -4.5556012,2.11113 -2.444469,2.11113 -1.2222345,2.33336 -0.2222244,0.8889 0,1.44446 0.8888978,1.55557 2.4444689,1.88891 2.8889179,1.55557 2.777806,1.11112 2.666693,0.8889 118.223412,0.11111 4.22226,-1.55557 3.88893,-1.55557 2.44447,-2.00002 1.33334,-2.00002 0.11112,-1.33335 -0.66668,-2.44447 -2.44447,-2.66669 -3.33336,-1.33335 -3.00003,-1.22223 -3.00003,-0.8889 z"
     id="path124"
     style="fill:url(#linearGradient3339);fill-opacity:1;stroke:#a000a0;stroke-width:1;stroke-opacity:1" />
  <path
     d="m 15.779593,327.30152 2.253187,0 0,1.94606 3.154462,0 0,-1.94606 41.233319,0 0,9.73031 -41.233319,0 0,-1.94606 -3.154462,0 0,1.94606 -2.253187,0 0,-9.73031 z"
     id="path126"
     style="fill:#ffffff;fill-opacity:1;stroke:#a000a0;stroke-width:1;stroke-opacity:1" />
  <path
     d="m 82.091416,327.30152 2.253187,0 0,1.94606 3.154463,0 0,-1.94606 41.233324,0 0,9.73031 -41.233324,0 0,-1.94606 -3.154463,0 0,1.94606 -2.253187,0 0,-9.73031 z"
     id="path128"
     style="fill:#ffffff;fill-opacity:1;stroke:#a000a0;stroke-width:1;stroke-opacity:1" />
  <text
     y="14"
     id="text130"
     style="font-size:5px;text-align:center;text-anchor:middle;font-family:Bitstream Vera Sans">
    <tspan
       x="72.5"
       y="337"
       id="tspan132"
       style="font-size:14px">=</tspan>
  </text>
  <path
     d="m 131.00059,295.99992 -117.890074,0.11111 -3.1111425,0.8889 -4.5556012,2.11113 -2.444469,2.11113 -1.2222345,2.33336 -0.2222244,0.8889 0,1.44446 0.8888978,1.55557 2.4444689,1.88891 2.8889179,1.55557 2.777806,1.11112 2.666693,0.8889 118.223412,0.11111 4.22226,-1.55557 3.88893,-1.55557 2.44447,-2.00002 1.33334,-2.00002 0.11112,-1.33335 -0.66668,-2.44447 -2.44447,-2.66669 -3.33336,-1.33335 -3.00003,-1.22223 -3.00003,-0.8889 z"
     id="path134"
     style="fill:url(#linearGradient3331);fill-opacity:1;stroke:#a000a0;stroke-width:1;stroke-opacity:1" />
  <path
     d="m 15.779593,299.80152 2.253187,0 0,1.94606 3.154462,0 0,-1.94606 41.233319,0 0,9.73031 -41.233319,0 0,-1.94606 -3.154462,0 0,1.94606 -2.253187,0 0,-9.73031 z"
     id="path136"
     style="fill:#ffffff;fill-opacity:1;stroke:#a000a0;stroke-width:1;stroke-opacity:1" />
  <path
     d="m 82.091416,299.80152 2.253187,0 0,1.94606 3.154463,0 0,-1.94606 41.233324,0 0,9.73031 -41.233324,0 0,-1.94606 -3.154463,0 0,1.94606 -2.253187,0 0,-9.73031 z"
     id="path138"
     style="fill:#ffffff;fill-opacity:1;stroke:#a000a0;stroke-width:1;stroke-opacity:1" />
  <text
     y="26"
     id="text140"
     style="font-size:5px;text-align:center;text-anchor:middle;font-family:Bitstream Vera Sans">
    <tspan
       x="72.5"
       y="309"
       id="tspan142"
       style="font-size:14px">&lt;</tspan>
  </text>
  <path
     d="m 131.00059,268.49992 -117.890074,0.11111 -3.1111425,0.8889 -4.5556012,2.11113 -2.444469,2.11113 -1.2222345,2.33336 -0.2222244,0.8889 0,1.44446 0.8888978,1.55557 2.4444689,1.88891 2.8889179,1.55557 2.777806,1.11112 2.666693,0.8889 118.223412,0.11111 4.22226,-1.55557 3.88893,-1.55557 2.44447,-2.00002 1.33334,-2.00002 0.11112,-1.33335 -0.66668,-2.44447 -2.44447,-2.66669 -3.33336,-1.33335 -3.00003,-1.22223 -3.00003,-0.8889 z"
     id="path144"
     style="fill:url(#linearGradient3323);fill-opacity:1;stroke:#a000a0;stroke-width:1;stroke-opacity:1" />
  <path
     d="m 15.779593,272.30152 2.253187,0 0,1.94606 3.154462,0 0,-1.94606 41.233319,0 0,9.73031 -41.233319,0 0,-1.94606 -3.154462,0 0,1.94606 -2.253187,0 0,-9.73031 z"
     id="path146"
     style="fill:#ffffff;fill-opacity:1;stroke:#a000a0;stroke-width:1;stroke-opacity:1" />
  <path
     d="m 82.091416,272.30152 2.253187,0 0,1.94606 3.154463,0 0,-1.94606 41.233324,0 0,9.73031 -41.233324,0 0,-1.94606 -3.154463,0 0,1.94606 -2.253187,0 0,-9.73031 z"
     id="path148"
     style="fill:#ffffff;fill-opacity:1;stroke:#a000a0;stroke-width:1;stroke-opacity:1" />
  <text
     y="42"
     id="text150"
     style="font-size:5px;text-align:center;text-anchor:middle;font-family:Bitstream Vera Sans">
    <tspan
       x="72.5"
       y="281"
       id="tspan152"
       style="font-size:14px">&gt;</tspan>
  </text>
  <path
     d="m 8.666515,356.99992 60.66697,0 0,2.33335 -5.666695,0.66667 -4.00002,1.33334 -3.000015,1.66667 -3.33335,2.66668 -1.666675,2.66668 -0.733337,3.00002 0.600003,2.80001 1.466674,3.20002 2.333345,2.00001 3.33335,2.00001 3.33335,1.33334 3.666685,1 3.666685,1.00001 0,2.33334 -60.66697,0 0,-2.33334 4.66669,-1.00001 4.533356,-1.13333 3.800019,-1.86668 2.66668,-2.00001 1.666675,-2.26668 1.000005,-2.73335 0,-2.33334 -0.133334,-2.13334 -0.866671,-1.86668 -2.00001,-2.66668 -2.733347,-1.80001 -3.466684,-1.73334 -4.133354,-1.13334 -5.000025,-0.66667 0,-2.33335 z"
     id="path154"
     style="fill:url(#linearGradient3347);fill-opacity:1;stroke:#a000a0;stroke-width:1px;stroke-opacity:1" />
  <text
     y="12"
     id="text156"
     style="font-size:8px;text-align:center;text-anchor:middle;font-family:Bitstream Vera Sans">
    <tspan
       x="39"
       y="376"
       id="tspan158"
       style="font-size:11px">y</tspan>
  </text>
  <path
     d="m 78.166515,356.49992 60.666965,0 0,2.33335 -5.66669,0.66667 -4.00002,1.33334 -3.00002,1.66667 -3.33335,2.66668 -1.66667,2.66668 -0.73334,3.00002 0.60001,2.80001 1.46667,3.20002 2.33335,2.00001 3.33334,2.00001 3.33335,1.33334 3.66669,1 3.66668,1.00001 0,2.33334 -60.666965,0 0,-2.33334 4.66669,-1.00001 4.533356,-1.13333 3.800019,-1.86668 2.66668,-2.00001 1.666675,-2.26668 1.000005,-2.73335 0,-2.33334 -0.133334,-2.13334 -0.866671,-1.86668 -2.00001,-2.66668 -2.733347,-1.80001 -3.466684,-1.73334 -4.133354,-1.13334 -5.000025,-0.66667 0,-2.33335 z"
     id="path160"
     style="fill:url(#linearGradient3355);fill-opacity:1;stroke:#a000a0;stroke-width:1px;stroke-opacity:1" />
  <text
     y="12"
     id="text162"
     style="font-size:8px;text-align:center;text-anchor:middle;font-family:Bitstream Vera Sans">
    <tspan
       x="108"
       y="375"
       id="tspan164"
       style="font-size:11px">o</tspan>
  </text>
  <path
     d="m 99.500135,395.83326 -20.66677,0 -9.130506,0.61581 -7.559116,1.27396 -6.930465,2.06298 -4.807194,2.68199 -3.080357,3.01044 -1.374034,2.35548 -0.451828,2.33275 0.419754,2.18386 1.113598,2.35549 2.487633,2.61593 3.988032,2.28941 5.558357,1.92698 5.403772,1.24767 6.564982,1.34196 7.797372,1.03877 20.66677,0 0,-2 -3.886913,-0.71109 -4.212543,-1.33811 c -1.145029,-0.52344 -0.651256,-0.30673 -3.104725,-1.70247 l -3.53901,-2.51393 -2.227196,-3.17464 -0.985306,-3.47487 1.183523,-3.96366 3.304868,-3.46138 4.869414,-2.648 4.480685,-1.37981 4.117203,-0.9655 0,-2.00002"
     id="path166"
     style="fill:url(#linearGradient3374);fill-opacity:1;stroke:#a000a0;stroke-width:1;stroke-opacity:1" />
  <text
     x="0"
     y="8"
     id="text168"
     style="font-size:8px;text-align:center;text-anchor:middle;fill:#000000;fill-opacity:1;font-family:Bitstream Vera Sans">
    <tspan
       x="68"
       y="414"
       id="tspan170"
       style="font-size:11px;fill:#000000;fill-opacity:1">no</tspan>
  </text>
  <path
     d="m 90.000086,441.71384 11.000064,0 0,4.00002 -2.666694,0 0,-2.00001 -7.00003,0"
     id="path172"
     style="fill:url(#linearGradient3403);fill-opacity:1;stroke:#800080;stroke-width:1;stroke-opacity:1" />
  <path
     d="m 90.000086,460.04726 11.000064,0 0,-4.00002 -2.666694,0 0,2.00002 -7.00003,0"
     id="path174"
     style="fill:url(#linearGradient3400);fill-opacity:1;stroke:#800080;stroke-width:1;stroke-opacity:1" />
  <path
     d="m 75.333346,438.38049 c 10.66672,0 10.66672,0 10.66672,0 l 3.66668,2.66668 2.33335,4.00002 0,12.66673 -2.33335,3.33335 -3.66668,2.66668 -11.33339,0 0,0 0,2.66668 -13.333402,0 0,-2.66668 -11.33339,0 -3.666685,-2.66668 -2.333345,-3.33335 0,-12.66673 2.333345,-4.00002 3.666685,-2.66668 10.66672,0 0,3.33335 14.666742,0 0,-3.33335 z"
     id="path176"
     style="fill:url(#linearGradient3397);fill-opacity:1;stroke:#a000a0;stroke-width:1;stroke-opacity:1" />
  <text
     x="-2.0833359"
     y="3.8805556"
     id="text178"
     style="font-size:12px;text-align:center;text-anchor:middle;fill:#000000;fill-opacity:1;font-family:Bitstream Vera Sans">
    <tspan
       x="67.916664"
       y="454.88055"
       id="tspan180"
       style="font-size:11px;fill:#000000;fill-opacity:1">mostrar</tspan>
  </text>
  <text
     id="text182"
     style="font-size:12px;text-align:center;text-anchor:middle;font-family:Bitstream Vera Sans">
    <tspan
       x="72.5"
       y="46"
       id="tspan184"
       style="font-size:11px">número</tspan>
  </text>
  <text
     y="48"
     id="text186"
     style="font-size:10.5px;text-align:center;text-anchor:middle;font-family:Bitstream Vera Sans">
    <tspan
       x="46"
       y="247"
       id="tspan188"
       style="font-size:9px">min</tspan>
  </text>
  <text
     y="48"
     id="text190"
     style="font-size:10px;text-align:center;line-height:125%;text-anchor:middle;font-family:Bitstream Vera Sans">
    <tspan
       x="100"
       y="247"
       id="tspan192"
       style="font-size:9px;font-style:normal;font-variant:normal;font-weight:normal;font-stretch:normal;text-align:center;line-height:125%;writing-mode:lr-tb;text-anchor:middle;font-family:DejaVu Sans;-inkscape-font-specification:DejaVu Sans">max</tspan>
  </text>
  <path
     d="m 35.889163,215.16016 10.875,0 0,-4.5 -2,0 0,1.5 -4.5,0 0,-11.5 4.5,0 0,1.5 2,0 0,-4.375 -6.5,0 -14,-8.5 -2.25,0 0,-2 -2.75,0 0,10.25 2.75,0 0,-2 2.25,0 9.625,6 0,13.625 z"
     id="path10"
     style="fill:url(#linearGradient3411);fill-opacity:1;stroke:#a97513;stroke-width:1;stroke-miterlimit:4;stroke-opacity:1;stroke-dasharray:none" />
  <path
     d="m 106.05314,187.28516 10.875,0 0,4.5 -2,0 0,-1.5 -4.5,0 0,11.5 4.5,0 0,-1.5 2,0 0,4.375 -6.5,0 -13.999999,8.5 -2.25,0 0,2 -2.75,0 0,-10.25 2.75,0 0,2 2.25,0 9.624999,-6 0,-13.625 z"
     id="path2796"
     style="fill:url(#linearGradient3419);fill-opacity:1;stroke:#a97513;stroke-width:1;stroke-miterlimit:4;stroke-opacity:1;stroke-dasharray:none" />
  <path
     d="m 26.264165,62.7824 20.5,0 0,4.5 -2,0 0,-1.5 -4.5,0 0,11.5 4.5,0 0,-1.5 2,0 0,8 -2,0 0,-1.5 -4.5,0 0,11.6045 4.5,0 0,-1.6045 2,0 0,5 -20.5,0 0,-14.25 -2.25,0 0,2 -2.75,0 0,-10.25 2.75,0 0,2 2.25,0 0,-14 z"
     id="path3132"
     style="fill:url(#linearGradient3255);fill-opacity:1;stroke:#a000a0;stroke-width:1;stroke-miterlimit:4;stroke-opacity:1;stroke-dasharray:none" />
  <text
     x="21.014164"
     y="70.794121"
     id="text3134"
     style="font-size:6px;text-align:center;text-anchor:middle;font-family:Bitstream Vera Sans">
    <tspan
       x="34.014164"
       y="83.794121"
       id="tspan3136"
       style="font-size:11px">+</tspan>
  </text>
  <path
     d="m 26.264163,104.28331 20.5,0 0,4.5 -2,0 0,-1.5 -4.5,0 0,11.5 4.5,0 0,-1.5 2,0 0,8 -2,0 0,-1.5 -4.5,0 0,11.6045 4.5,0 0,-1.6045 2,0 0,5 -20.5,0 0,-14.25 -2.25,0 0,2 -2.75,0 0,-10.25 2.75,0 0,2 2.25,0 0,-14 z"
     id="path3441"
     style="fill:url(#linearGradient3271);fill-opacity:1;stroke:#a000a0;stroke-width:1;stroke-miterlimit:4;stroke-opacity:1;stroke-dasharray:none" />
  <text
     x="21.014164"
     y="112.29504"
     id="text3443"
     style="font-size:6px;text-align:center;text-anchor:middle;font-family:Bitstream Vera Sans">
    <tspan
       x="34.014164"
       y="125.29504"
       id="tspan3445"
       style="font-size:11px">x</tspan>
  </text>
  <path
     d="m 91.61564,62.7824 20.625,0 0,4.5 -2.125,0 0,-1.5 -4.5,0 0,11.5 4.5,0 0,-1.5 2.125,0 0,4 9.5,0 0,4 -2,0 0,-1.5 -4.5,0 0,11.6045 4.5,0 0,-1.6045 2,0 0,5 -30.125,0 0,-14.25 -2.25,0 0,2 -2.75,0 0,-10.25 2.75,0 0,2 2.25,0 0,-14 z"
     id="path4413"
     style="fill:url(#linearGradient3263);fill-opacity:1;stroke:#a000a0;stroke-width:1;stroke-miterlimit:4;stroke-opacity:1;stroke-dasharray:none" />
  <text
     x="90.365639"
     y="70.794121"
     id="text4415"
     style="font-size:6px;text-align:center;text-anchor:middle;stroke-width:1;stroke-miterlimit:4;stroke-dasharray:none;font-family:Bitstream Vera Sans">
    <tspan
       x="103.36564"
       y="91.407402"
       id="tspan4417"
       style="font-size:11px;stroke-width:1;stroke-miterlimit:4;stroke-dasharray:none">–</tspan>
  </text>
  <path
     d="m 91.61564,104.28331 20.625,0 0,4.5 -2.125,0 0,-1.5 -4.5,0 0,11.5 4.5,0 0,-1.5 2.125,0 0,4 9.5,0 0,4 -2,0 0,-1.5 -4.5,0 0,11.6045 4.5,0 0,-1.6045 2,0 0,5 -30.125,0 0,-14.24999 -2.25,0 0,2 -2.75,0 0,-10.25001 2.75,0 0,2 2.25,0 0,-14 z"
     id="path4435"
     style="fill:url(#linearGradient3279);fill-opacity:1;stroke:#a000a0;stroke-width:1;stroke-miterlimit:4;stroke-opacity:1;stroke-dasharray:none" />
  <text
     x="90.365639"
     y="112.29504"
     id="text4437"
     style="font-size:6px;text-align:center;text-anchor:middle;font-family:Bitstream Vera Sans">
    <tspan
       x="103.36564"
       y="132.90833"
       id="tspan4439"
       style="font-size:11px">/</tspan>
  </text>
  <path
     d="m 21.45166,145.78423 20.625,0 0,4.5 -2.125,0 0,-1.5 -4.5,0 0,11.5 4.5,0 0,-1.5 2.125,0 0,4 9.5,0 0,4 -2,0 0,-1.5 -4.5,0 0,11.6045 4.5,0 0,-1.6045 2,0 0,5 -30.125,0 0,-14.25 -2.25,0 0,2 -2.75,0 0,-10.25 2.75,0 0,2 2.25,0 0,-14 z"
     id="path4445"
     style="fill:url(#linearGradient3287);fill-opacity:1;stroke:#a000a0;stroke-width:1;stroke-miterlimit:4;stroke-opacity:1;stroke-dasharray:none" />
  <text
     x="20.449238"
     y="153.79596"
     id="text4447"
     style="font-size:6px;text-align:center;text-anchor:middle;font-family:Bitstream Vera Sans">
    <tspan
       x="33.449238"
       y="174.40924"
       id="tspan4449"
       style="font-size:10px">mod</tspan>
  </text>
</svg>
