<?xml version="1.0" encoding="UTF-8" standalone="no"?>
<!-- Created with Inkscape (http://www.inkscape.org/) -->
<svg
   xmlns:svg="http://www.w3.org/2000/svg"
   xmlns="http://www.w3.org/2000/svg"
   version="1.0"
   width="45"
   height="45"
   viewBox="0 0 55 55"
   id="svg2"
   xml:space="preserve"><defs
     id="defs12">
	
</defs><path
     d="M 36.852226,15.69838 A 11.523279,10.799595 0 1 1 13.805668,15.69838 A 11.523279,10.799595 0 1 1 36.852226,15.69838 z"
     transform="matrix(2.1478261,0,0,2.2917526,-26.902174,-8.4768043)"
     id="path2387"
     style="opacity:1;fill:#808080;fill-opacity:1;stroke:#808080;stroke-width:1.92812335;stroke-linecap:round;stroke-miterlimit:4;stroke-dasharray:none;stroke-opacity:1" /><path
     d="M 13.767741,21.517646 C 13.899435,22.193518 13.329772,22.096724 12.490413,23.517646 C 10.794222,26.389069 10.794222,28.646223 12.490413,31.517646 C 13.329772,32.938568 14.122107,32.841774 13.990413,33.517646 C 13.858718,34.193518 12.959084,35.74713 11.990413,37.017646 C 5.8646721,45.052209 10.322397,44.581986 10.990413,44.46299 C 12.332265,44.223961 12.807811,43.627769 14.990413,41.017646 L 17.990413,37.017646 L 19.990413,39.017646 C 23.591808,41.069647 25.719736,41.577324 28.990413,40.017646 L 31.490413,38.017646 L 35.490413,43.517646 C 37.137547,45.570847 39.948387,44.852636 40.490413,44.517646 C 40.764949,44.347974 40.805225,42.944288 40.490413,42.017646 C 40.1756,41.091004 39.505699,40.641406 38.740413,39.842619 C 36.142025,37.130486 35.350389,38.404433 36.490413,34.599372 C 37.80724,30.204194 38.882093,29.476417 41.926378,32.231458 C 43.631038,33.774153 48.407372,34.085022 50.27167,32.397855 C 52.814393,30.096722 46.490559,20.584866 44.172599,21.313987 C 40.396315,22.501827 43.839585,22.246778 41.047093,13.017646 C 39.973984,9.4710394 25.21325,2.6451193 23.466121,4.7261484 C 23.629263,5.4952279 34.939131,16.186337 39.617944,21.471087 L 28.879077,17.244367 C 25.596374,15.678955 23.03822,15.299916 19.433733,17.353678 L 16.431709,18.908334 L 14.879077,15.353678 C 12.396341,14.34585 9.5241557,16.306498 9.8770525,19.479184 C 10.079219,21.296746 13.636047,20.841774 13.767741,21.517646 z"
     id="path2582"
     style="fill:#ffffff;fill-opacity:1;stroke:#c0c0c0;stroke-width:1.83333337;stroke-miterlimit:4;stroke-dasharray:none;stroke-opacity:1" /><path
     d="M 33.952541,27.5 L 21.047459,34.959514 C 21.047459,20.040486 21.047459,20.040486 21.047459,20.040486 L 33.952541,27.5 z"
     id="path2496"
     style="fill:#808080;fill-opacity:1;fill-rule:evenodd;stroke:#808080;stroke-width:1px;stroke-linecap:butt;stroke-linejoin:miter;stroke-opacity:1" /><path
     d="M 41.27754,23.661352 C 41.986669,23.661352 42.561532,24.236214 42.561532,24.945344 C 42.561532,25.654474 41.986669,26.229337 41.27754,26.229337 C 40.56841,26.229337 39.993547,25.654474 39.993547,24.945344 C 39.993547,24.236214 40.56841,23.661352 41.27754,23.661352 z"
     id="path3265"
     style="fill:none;fill-opacity:1;stroke:#c0c0c0;stroke-width:1.43201554;stroke-opacity:1" /></svg>