<?xml version="1.0" encoding="UTF-8" standalone="no"?>
<svg
   xmlns="http://www.w3.org/2000/svg"
   xmlns:xlink="http://www.w3.org/1999/xlink"
   width="145"
   height="500"
   version="1.0">
  <rect
     style="opacity:1;fill:#ffffff;fill-opacity:1;stroke:none;stroke-width:4;stroke-opacity:1"
     width="143"
     height="440"
     x="1"
     y="30" />
  <rect
     style="opacity:1;fill:#080808;fill-opacity:1;stroke:none;stroke-width:1;stroke-opacity:1"
     width="145"
     height="29"
     x="0"
     y="0" />
  <path
     style="fill:#080808;fill-opacity:1;stroke:none;stroke-width:1px;stroke-opacity:1"
     d="M 0,470 L 0,486 L 3,493 L 8,497 L 15,499 L 129,499 L 136,497 L 142,492 L 145,484 L 145,470 L 0,470 z" />
  <path
     d="M 39,36 L 42,36 L 42,38 L 47,38 L 47,36 L 108,36 L 108,49 L 47,49 L 47,46 L 42,46 L 42,49 L 39,49 L 39,36 z"
     style="fill:#101010;fill-opacity:1;stroke:#101010;stroke-width:1;stroke-opacity:1" />
  <path
     style="fill:#181818;fill-opacity:1;stroke:#181818;stroke-width:1;stroke-opacity:1"
     d="M 21,67 L 55,67 L 55,73 L 53,73 L 53,71 L 47,71 L 47,86 L 53,86 L 53,84 L 55,84 L 55,91 L 21,91 L 21,86 L 29,86 L 29,71 L 21,71 L 21,67 z" />
  <path
     style="fill:#202020;fill-opacity:1;stroke:#202020;stroke-width:1;stroke-opacity:1"
     d="M 87,67 L 121,67 L 121,73 L 118,73 L 118,71 L 112,71 L 112,86 L 118,86 L 118,84 L 121,84 L 121,91 L 87,91 L 87,86 L 95,86 L 95,71 L 87,71 L 87,67 z" />
  <path
     style="fill:#282828;fill-opacity:1;stroke:#282828;stroke-width:1;stroke-opacity:1"
     d="M 21,103 L 55,103 L 55,109 L 53,109 L 53,107 L 47,107 L 47,123 L 53,123 L 53,121 L 55,121 L 55,127 L 21,127 L 21,123 L 29,123 L 29,107 L 21,107 L 21,103 z" />
  <path
     style="fill:#303030;fill-opacity:1;stroke:#303030;stroke-width:1;stroke-opacity:1"
     d="M 87,103 L 121,103 L 121,109 L 118,109 L 118,107 L 112,107 L 112,123 L 118,123 L 118,121 L 121,121 L 121,127 L 87,127 L 87,123 L 95,123 L 95,107 L 87,107 L 87,103 z" />
  <path
     style="fill:#383838;fill-opacity:1;stroke:#383838;stroke-width:1;stroke-opacity:1"
     d="M 17,139 L 59,139 L 59,145 L 57,145 L 57,143 L 50,143 L 50,159 L 57,159 L 57,157 L 59,157 L 59,163 L 17,163 L 17,159 L 25,159 L 25,143 L 17,143 L 17,139 z" />
  <path
     style="fill:#404040;fill-opacity:1;stroke:#404040;stroke-width:1;stroke-opacity:1"
     d="M 122,139 L 100,139 L 98,141 L 96,142 L 95,145 L 95,147 L 90,147 L 90,145 L 86,145 L 86,158 L 90,158 L 90,156 L 95,156 L 95,160 L 96,162 L 99,163 L 122,163 L 122,157 L 119,157 L 119,159 L 113,159 L 113,144 L 119,144 L 119,146 L 122,146 L 122,139 z" />
  <path
     style="fill:#484848;fill-opacity:1;stroke:#484848;stroke-width:1;stroke-opacity:1"
     d="M 126,183 L 21,183 L 20,184 L 18,185 L 17,187 L 17,192 L 14,192 L 14,191 L 11,191 L 12,200 L 14,200 L 14,198 L 17,198 L 17,202 L 18,203 L 20,203 L 130,204 L 130,200 L 135,200 L 135,191 L 130,191 L 130,186 L 129,185 L 127,183 L 126,183 L 126,183" />
  <path
     style="fill:#606060;fill-opacity:1;stroke:#606060;stroke-width:1;stroke-opacity:1"
     d="M 132,310 L 14,310 L 11,311 L 6,313 L 4,316 L 3,318 L 2,319 L 2,320 L 3,322 L 6,324 L 9,325 L 11,326 L 14,327 L 132,327 L 137,326 L 140,324 L 143,322 L 144,320 L 144,319 L 144,316 L 141,314 L 138,312 L 135,311 L 132,310 z" />
  <path
     style="fill:#585858;fill-opacity:1;stroke:#585858;stroke-width:1;stroke-opacity:1"
     d="M 132,271 L 14,271 L 11,272 L 6,274 L 4,276 L 3,278 L 2,279 L 2,281 L 3,282 L 6,284 L 9,286 L 11,287 L 14,288 L 132,288 L 137,286 L 140,285 L 143,283 L 144,281 L 144,279 L 144,277 L 141,274 L 138,273 L 135,272 L 132,271 z" />
  <path
     style="fill:#505050;fill-opacity:1;stroke:#505050;stroke-width:1;stroke-opacity:1"
     d="M 132,227 L 14,227 L 11,228 L 6,230 L 4,233 L 3,235 L 2,236 L 2,237 L 3,239 L 6,241 L 9,242 L 11,243 L 14,244 L 132,244 L 137,243 L 140,241 L 143,239 L 144,237 L 144,236 L 144,233 L 141,231 L 138,229 L 135,228 L 132,227 z" />
  <path
     style="fill:#686868;fill-opacity:1;stroke:#686868;stroke-width:1;stroke-opacity:1"
     d="M 10,346 L 70,346 L 70,348 L 65,349 L 61,350 L 58,352 L 54,355 L 53,357 L 52,360 L 52,363 L 54,366 L 56,368 L 60,370 L 63,372 L 67,373 L 70,374 L 70,376 L 10,376 L 10,374 L 14,373 L 19,371 L 23,370 L 25,368 L 27,365 L 28,363 L 28,360 L 28,358 L 27,356 L 25,354 L 22,352 L 19,350 L 15,349 L 10,348 L 10,346 z" />
  <path
     style="fill:#707070;fill-opacity:1;stroke:#707070;stroke-width:1;stroke-opacity:1"
     d="M 79,345 L 140,345 L 140,348 L 134,348 L 130,350 L 127,351 L 124,354 L 122,357 L 121,360 L 122,362 L 123,366 L 126,368 L 129,370 L 132,371 L 136,372 L 140,373 L 140,375 L 79,375 L 79,373 L 84,372 L 88,371 L 92,369 L 95,367 L 96,365 L 97,362 L 97,360 L 97,358 L 96,356 L 94,353 L 92,351 L 88,349 L 84,348 L 79,348 L 79,345 z" />
  <path
     style="fill:#787878;fill-opacity:1;stroke:#787878;stroke-width:1;stroke-opacity:1"
     d="M 100,389 L 80,389 L 71,389 L 63,391 L 56,393 L 51,395 L 48,398 L 47,401 L 46,403 L 47,405 L 48,408 L 50,410 L 54,412 L 60,414 L 65,416 L 72,417 L 80,418 L 100,418 L 100,416 L 96,415 L 92,414 C 91,413 92,414 89,412 L 86,410 L 83,407 L 82,403 L 84,399 L 87,396 L 92,393 L 96,392 L 100,391 L 100,389" />
  <path
     style="fill:#808080;fill-opacity:1;stroke:#808080;stroke-width:1;stroke-opacity:1"
     d="M 91,439 L 102,439 L 102,443 L 99,443 L 99,441 L 92,441" />
  <path
     style="fill:#808080;fill-opacity:1;stroke:#808080;stroke-width:1;stroke-opacity:1"
     d="M 91,457 L 102,457 L 102,453 L 99,453 L 99,455 L 92,455" />
  <path
     style="fill:#808080;fill-opacity:1;stroke:#808080;stroke-width:1;stroke-opacity:1"
     d="M 76,435 C 87,435 87,435 87,435 L 91,438 L 93,442 L 93,455 L 91,458 L 87,461 L 76,461 L 76,461 L 76,463 L 62,463 L 62,461 L 51,461 L 47,458 L 45,455 L 45,442 L 47,438 L 51,435 L 62,435 L 62,439 L 76,439 L 76,435 z" />
</svg>
