<?xml version="1.0" encoding="UTF-8" standalone="no"?>
<!-- Created with Inkscape (http://www.inkscape.org/) -->
<svg
   xmlns:svg="http://www.w3.org/2000/svg"
   xmlns="http://www.w3.org/2000/svg"
   version="1.0"
   width="43.5"
   height="56.5"
   id="svg2">
  <defs
     id="defs4" />
  <path
     d="M 0.75,0.75 L 34.61863,0.75 C 34.61863,0.75 38.36423,1.98211 39.66961,2.9951 C 40.85651,3.91614 42.75,6.94804 42.75,6.94804 L 42.75,49.22255 C 42.75,49.22255 40.91462,52.48677 40.10882,53.28529 C 38.68537,54.6959 34.83823,55.75 34.83823,55.75 L 0.75,55.75 L 0.75,0.75 z"
     id="path2384"
     style="fill:#e0e0e0;fill-opacity:1;stroke:#808080;stroke-width:1.5;stroke-dasharray:none;stroke-opacity:1" />
  <g
     transform="translate(46.111336,0.514676)"
     id="g3247"
     style="stroke:#800000;stroke-opacity:1">
    <path
       d="M -36.1417,31.566802 L -36.027328,36.827935 L -24.590081,43.118421 L -24.361336,29.62247"
       id="path2463"
       style="fill:#ff0000;fill-opacity:1;fill-rule:evenodd;stroke:#800000;stroke-width:1px;stroke-linecap:butt;stroke-linejoin:miter;stroke-opacity:1" />
    <path
       d="M -24.132592,29.736843 L -24.075405,43.118421 L -12.352227,35.569838 L -12.352227,30.880566 L -18.299595,34.426114"
       id="path2465"
       style="fill:#ff0000;fill-opacity:1;fill-rule:evenodd;stroke:#800000;stroke-width:1px;stroke-linecap:butt;stroke-linejoin:miter;stroke-opacity:1" />
    <path
       d="M -41.860324,27.563765 L -36.256073,22.417004 L -42.089069,19.44332 L -29.965587,12.352227 L -24.246964,15.669028 L -18.757085,12.580972 L -6.6336032,19.90081 L -12.466599,22.302632 L -6.9767206,27.33502 L -18.299595,34.540486 L -24.246964,29.279352 L -30.537449,34.540486 L -41.860324,27.563765 z"
       id="path2459"
       style="fill:#ff0000;fill-opacity:1;fill-rule:evenodd;stroke:#800000;stroke-width:1px;stroke-linecap:butt;stroke-linejoin:miter;stroke-opacity:1" />
    <path
       d="M -35.455466,22.188259 L -24.704453,15.440283 L -12.924089,22.302632 L -24.246964,29.050607 L -35.455466,22.188259 z"
       id="path2461"
       style="fill:#ff0000;fill-opacity:1;fill-rule:evenodd;stroke:#800000;stroke-width:1px;stroke-linecap:butt;stroke-linejoin:miter;stroke-opacity:1" />
  </g>
</svg>
