<?xml version="1.0" encoding="UTF-8" standalone="no"?>
<!-- Created with Inkscape (http://www.inkscape.org/) -->
<svg
   xmlns:svg="http://www.w3.org/2000/svg"
   xmlns="http://www.w3.org/2000/svg"
   version="1.0"
   width="145"
   height="500"
   id="svg2">
  <defs
     id="defs19" />
  <rect
     width="143"
     height="404"
     x="1"
     y="0"
     id="rect2406"
     style="opacity:1;fill:#ffffff;fill-opacity:1;fill-rule:nonzero;stroke:none;stroke-width:3.97987986;stroke-linecap:square;stroke-linejoin:round;stroke-miterlimit:4;stroke-dasharray:none;stroke-opacity:1" />
  <rect
     width="145"
     height="29"
     x="0"
     y="0"
     id="rect2466"
     style="opacity:1;fill:#080808;fill-opacity:1;fill-rule:nonzero;stroke:none;stroke-width:1;stroke-linecap:square;stroke-linejoin:round;stroke-miterlimit:4;stroke-dasharray:none;stroke-opacity:1" />
  <path
     d="M 0.5,470.5 L 0.5,486.5 L 3.5,493.5 L 8.5,497.5 L 15,500 L 129,500 L 136,497.5 L 142,492.5 L 145,484.5 L 145,470.5 L 0.5,470.5 z"
     id="path3201"
     style="fill:#080808;fill-opacity:1;fill-rule:evenodd;stroke:none;stroke-width:1px;stroke-linecap:butt;stroke-linejoin:miter;stroke-opacity:1" />
  <path
     d="M 47,36.121152 L 95.879548,36.121152 L 95.879548,71 L 47,71 L 47,36.121152 z"
     id="path2685"
     style="fill:#101010;fill-opacity:1;fill-rule:nonzero;stroke:none;stroke-width:1.33340001;stroke-linecap:butt;stroke-linejoin:miter;stroke-miterlimit:4;stroke-dasharray:none;stroke-opacity:1" />
  <g
     transform="matrix(0.67,0,0,0.67,47.71,425.47)"
     id="g2738"
     style="fill:#585858;fill-opacity:1;stroke:none;stroke-opacity:1">
    <path
       d="M 48,1 C 64,1 64,1 64,1 L 69.5,5 L 73,11 L 73,45 L 69.5,51 L 64,55 L 47,55 L 47,55 L 47,59 L 27,59 L 27,55 L 10,55 L 4.5,51 L 1,45 L 1,11 L 4.5,5 L 10,1 L 26,1 L 26,6 L 48,6 L 48,1 z"
       id="path2714"
       style="fill:#585858;fill-opacity:1;stroke:none;stroke-width:2.98507452;stroke-opacity:1" />
  </g>
  <path
     d="M 34.29807,183.28125 L 28.39182,183.28125 L 28.39182,185.15625 L 20.14182,185.15625 L 20.14182,183.28125 L 14.23557,183.28125 C 14.23557,183.28125 12.77901,184.2595 12.26682,184.78125 C 11.86023,185.19544 10.86057,187.03125 10.86057,187.03125 L 10.86057,221.24625 C 10.86057,221.24625 11.10062,222.49448 11.42306,222.74813 C 11.73455,222.99316 13.11051,223.59375 13.11051,223.59375 L 20.61057,223.59375 L 20.61057,225 L 28.11057,225 L 28.11057,223.59375 L 61.48557,223.59375 L 61.48557,184.78125 L 36.36057,184.78125 L 35.40939,184.0353 L 34.29807,183.28125 z"
     id="path4158"
     style="fill:#282828;fill-opacity:1;fill-rule:evenodd;stroke:none;stroke-width:1.25;stroke-linecap:butt;stroke-linejoin:miter;stroke-miterlimit:4;stroke-dasharray:none;stroke-opacity:1" />
  <path
     d="M 27.36057,252.125 L 21.45432,252.125 L 21.45432,254 L 13.20432,254 L 13.20432,252.125 L 7.29807,252.125 C 7.29807,252.125 5.84151,253.10325 5.32932,253.625 C 4.92273,254.03918 3.92307,255.875 3.92307,255.875 L 3.92307,310.25 C 3.92307,310.25 4.16312,311.87135 4.48556,312.125 C 4.79705,312.37002 6.17301,312.875 6.17301,312.875 L 13.67307,312.875 L 13.67307,314 L 21.17307,314 L 21.17307,312.875 L 68.42307,312.875 L 68.42307,253.625 L 29.42307,253.625 L 28.47189,252.87903 L 27.36057,252.125 z"
     id="path4390"
     style="fill:#383838;fill-opacity:1;fill-rule:evenodd;stroke:none;stroke-width:1.25;stroke-linecap:butt;stroke-linejoin:miter;stroke-miterlimit:4;stroke-dasharray:none;stroke-opacity:1" />
  <path
     d="M 36.17307,322.5 L 30.26682,322.5 L 30.26682,324.1875 L 22.01682,324.1875 L 22.01682,322.5 L 16.11057,322.5 C 16.11057,322.5 14.65401,323.47825 14.14182,324 C 13.73522,324.41418 12.73557,326.25 12.73557,326.25 L 12.73557,403.875 C 12.73557,403.875 12.97562,405.68385 13.29806,405.9375 C 13.60954,406.18253 14.98551,406.875 14.98551,406.875 L 22.48557,406.875 L 22.48557,408 L 29.98557,408 L 29.98557,406.875 L 59.61057,406.875 L 59.61057,324 L 38.23557,324 L 37.28439,323.25404 L 36.17307,322.5 z"
     id="path4690"
     style="fill:#484848;fill-opacity:1;fill-rule:evenodd;stroke:none;stroke-width:1.25;stroke-linecap:butt;stroke-linejoin:miter;stroke-miterlimit:4;stroke-dasharray:none;stroke-opacity:1" />
  <path
     d="M 105.76975,183.12499 L 99.8635,183.12499 L 99.8635,185 L 91.613495,185 L 91.613495,183.12499 L 85.707245,183.12499 C 85.707245,183.12499 84.250685,184.10325 83.738495,184.62499 C 83.331905,185.03918 82.332245,186.87499 82.332245,186.87499 L 82.332245,241.25 C 82.332245,241.25 82.57229,242.49635 82.89473,242.75 C 83.20622,242.99504 84.582185,243.5 84.582185,243.5 L 92.082245,243.5 L 92.082245,245 L 99.58225,245 L 99.58225,243.5 L 132.95725,243.5 L 132.95725,184.62499 L 107.83225,184.62499 L 106.88107,183.87903 L 105.76975,183.12499 z"
     id="path5171"
     style="fill:#303030;fill-opacity:1;fill-rule:evenodd;stroke:none;stroke-width:1.25;stroke-linecap:butt;stroke-linejoin:miter;stroke-miterlimit:4;stroke-dasharray:none;stroke-opacity:1" />
  <path
     d="M 98.83225,252.125 L 92.925995,252.125 L 92.925995,254 L 84.675995,254 L 84.675995,252.125 L 78.769745,252.125 C 78.769745,252.125 77.313185,253.10325 76.800995,253.625 C 76.394405,254.03918 75.394745,255.875 75.394745,255.875 L 75.394745,310.25 C 75.394745,310.25 75.63479,311.49635 75.95723,311.75 C 76.26872,311.99503 77.644685,312.5 77.644685,312.5 L 85.144745,312.5 L 85.144745,314 L 92.644745,314 L 92.644745,312.5 L 139.89475,312.5 L 139.89475,253.625 L 100.89475,253.625 L 99.94357,252.87904 L 98.83225,252.125 z"
     id="path5376"
     style="fill:#404040;fill-opacity:1;fill-rule:evenodd;stroke:none;stroke-width:1.25;stroke-linecap:butt;stroke-linejoin:miter;stroke-miterlimit:4;stroke-dasharray:none;stroke-opacity:1" />
  <path
     d="M 105.76975,322.28125 L 99.863499,322.28125 L 99.863499,324.15625 L 91.613499,324.15625 L 91.613499,322.28125 L 85.707249,322.28125 C 85.707249,322.28125 84.250688,323.2595 83.738499,323.78125 C 83.331908,324.19544 82.332249,326.03125 82.332249,326.03125 L 82.332249,360.24625 C 82.332249,360.24625 82.572298,361.49448 82.894739,361.74813 C 83.206228,361.99316 84.582188,362.59375 84.582188,362.59375 L 92.082248,362.59375 L 92.082248,364 L 99.582248,364 L 99.582248,362.59375 L 132.95725,362.59375 L 132.95725,323.78125 L 107.83225,323.78125 L 106.88107,323.0353 L 105.76975,322.28125 z"
     id="path3022"
     style="fill:#505050;fill-opacity:1;fill-rule:evenodd;stroke:none;stroke-width:1.25;stroke-linecap:butt;stroke-linejoin:miter;stroke-miterlimit:4;stroke-dasharray:none;stroke-opacity:1" />
  <path
     d="M 48.060226,127.72844 L 96.939774,127.72844 L 96.939774,162.60729 L 48.060226,162.60729 L 48.060226,127.72844 z"
     id="path2394"
     style="fill:#202020;fill-opacity:1;fill-rule:nonzero;stroke:none;stroke-width:1.33340001;stroke-linecap:butt;stroke-linejoin:miter;stroke-miterlimit:4;stroke-dasharray:none;stroke-opacity:1" />
  <path
     d="M 48.060223,82.133303 L 96.939777,82.133303 L 96.939777,117.01215 L 48.060223,117.01215 L 48.060223,82.133303 z"
     id="path2396"
     style="fill:#181818;fill-opacity:1;fill-rule:nonzero;stroke:none;stroke-width:1.33340001;stroke-linecap:butt;stroke-linejoin:miter;stroke-miterlimit:4;stroke-dasharray:none;stroke-opacity:1" />
</svg>
