<?xml version="1.0" encoding="UTF-8"?>
<svg xmlns="http://www.w3.org/2000/svg" xmlns:xlink="http://www.w3.org/1999/xlink" width="55px" height="55px" viewBox="0 0 55 55" version="1.1">
<defs>
<clipPath id="clip1">
  <path d="M 12.222656 8.285156 L 42.777344 8.285156 L 42.777344 46.816406 L 12.222656 46.816406 Z M 12.222656 8.285156 "/>
</clipPath>
</defs>
<g id="surface1">
<path style=" stroke:none;fill-rule:nonzero;fill:rgb(100%,100%,100%);fill-opacity:1;" d="M 37.285156 12.074219 C 37.070312 12.1875 36.875 12.292969 36.667969 12.402344 C 36.855469 12.335938 37.03125 12.257812 37.21875 12.195312 Z M 37.285156 12.074219 "/>
<g clip-path="url(#clip1)" clip-rule="nonzero">
<path style=" stroke:none;fill-rule:nonzero;fill:rgb(100%,100%,100%);fill-opacity:1;" d="M 14.644531 37.339844 C 15.089844 40.730469 17.96875 42.316406 18.734375 42.507812 C 19.84375 43.351562 21.035156 44.140625 22.644531 44.695312 C 24.160156 46.234375 25.804688 46.835938 27.453125 46.835938 L 27.601562 46.835938 C 29.226562 46.835938 30.878906 46.234375 32.382812 44.691406 C 33.988281 44.140625 35.183594 43.347656 36.285156 42.503906 C 37.050781 42.3125 39.945312 40.726562 40.375 37.335938 C 40.667969 36.496094 41 35.75 41.191406 34.691406 C 44.207031 31.304688 42.269531 27.140625 40.117188 25.84375 L 39.828125 25.363281 C 39.828125 21.878906 38.226562 20.460938 36.332031 19.378906 C 36.90625 19.230469 37.507812 19.113281 37.648438 18.390625 C 38.628906 18.152344 38.820312 17.695312 38.917969 17.214844 C 39.15625 17.046875 40.019531 16.566406 39.921875 15.746094 C 40.402344 15.410156 40.664062 15 40.519531 14.402344 C 41.046875 13.824219 41.191406 13.367188 40.949219 12.9375 C 41.566406 12.164062 41.292969 11.78125 41.03125 11.371094 C 41.496094 10.53125 41.089844 9.640625 39.792969 9.785156 C 39.277344 9.039062 38.160156 9.207031 37.988281 9.207031 C 37.792969 8.96875 37.539062 8.773438 36.75 8.871094 C 36.242188 8.414062 35.667969 8.488281 35.082031 8.726562 C 34.382812 8.195312 33.917969 8.632812 33.390625 8.796875 C 32.542969 8.535156 32.355469 8.898438 31.9375 9.066406 C 31.015625 8.871094 30.734375 9.28125 30.292969 9.734375 L 29.78125 9.726562 C 28.386719 10.535156 27.695312 12.191406 27.453125 13.039062 C 27.210938 12.191406 26.515625 10.539062 25.125 9.726562 L 24.609375 9.738281 C 24.167969 9.292969 23.890625 8.875 22.96875 9.066406 C 22.550781 8.914062 22.359375 8.539062 21.515625 8.8125 C 21.167969 8.707031 20.851562 8.476562 20.472656 8.488281 L 20.5625 8.324219 C 20.371094 8.324219 20.15625 8.394531 19.914062 8.585938 C 19.316406 8.367188 18.742188 8.292969 18.242188 8.75 C 17.449219 8.652344 17.1875 8.871094 16.996094 9.113281 C 16.832031 9.113281 15.707031 8.941406 15.203125 9.6875 C 13.910156 9.542969 13.5 10.457031 13.957031 11.300781 C 13.695312 11.6875 13.40625 12.09375 14.03125 12.863281 C 13.816406 13.296875 13.960938 13.773438 14.460938 14.332031 C 14.316406 14.953125 14.582031 15.363281 15.058594 15.699219 C 14.964844 16.542969 15.824219 17.019531 16.066406 17.191406 C 16.160156 17.671875 16.351562 18.128906 17.332031 18.367188 C 17.5 19.089844 18.074219 19.210938 18.648438 19.355469 C 16.757812 20.433594 15.152344 21.855469 15.152344 25.339844 L 14.878906 25.820312 C 12.726562 27.121094 10.789062 31.28125 13.816406 34.671875 C 14.011719 35.726562 14.34375 36.496094 14.644531 37.339844 Z M 21.984375 41.5625 C 20.988281 42.160156 18.5625 41.910156 16.839844 39.464844 C 15.679688 37.40625 15.832031 35.316406 16.644531 34.703125 C 17.863281 33.96875 19.75 34.957031 21.199219 36.628906 C 22.464844 38.132812 23.039062 40.777344 21.984375 41.5625 Z M 20.023438 32.609375 C 18.191406 31.40625 17.863281 28.714844 19.285156 26.574219 C 20.707031 24.457031 23.347656 23.6875 25.179688 24.863281 L 25.175781 24.890625 C 26.996094 26.089844 27.332031 28.785156 25.917969 30.898438 C 24.492188 33.039062 21.855469 33.808594 20.023438 32.609375 Z M 27.640625 45.757812 C 25.445312 45.851562 23.292969 43.976562 23.320312 43.332031 C 23.285156 42.378906 25.992188 41.632812 27.753906 41.675781 L 27.761719 41.695312 C 29.53125 41.625 31.917969 42.273438 31.925781 43.113281 C 31.953125 43.929688 29.757812 45.804688 27.640625 45.757812 Z M 32.140625 36.382812 L 32.140625 36.429688 C 32.164062 38.640625 30.203125 40.46875 27.761719 40.46875 C 25.320312 40.492188 23.332031 38.691406 23.316406 36.453125 L 23.316406 36.40625 C 23.304688 34.171875 25.277344 32.367188 27.714844 32.34375 C 30.160156 32.316406 32.144531 34.121094 32.15625 36.359375 Z M 29.386719 30.660156 C 27.960938 28.542969 28.292969 25.851562 30.125 24.648438 L 30.125 24.671875 C 31.957031 23.46875 34.597656 24.238281 36.023438 26.378906 C 37.445312 28.519531 37.113281 31.214844 35.285156 32.390625 C 33.453125 33.570312 30.8125 32.773438 29.386719 30.660156 Z M 38.339844 39.582031 C 36.449219 42.183594 33.886719 42.277344 32.933594 41.554688 C 31.9375 40.625 32.699219 37.734375 34.066406 36.144531 L 34.066406 36.164062 C 35.628906 34.433594 37.304688 33.28125 38.472656 34.171875 C 39.25 34.9375 39.714844 37.847656 38.339844 39.582031 Z M 39.820312 34.097656 C 38.210938 34.792969 36.902344 26.164062 38.882812 26.691406 L 38.882812 26.714844 C 42.164062 28.566406 41.59375 32.703125 39.820312 34.097656 Z M 38.300781 25.367188 C 38.1875 26.789062 30.90625 20.488281 32.164062 20.273438 C 35.570312 19.71875 38.414062 21.714844 38.300781 25.367188 Z M 30.039062 10.824219 C 30.089844 11.140625 30.160156 11.332031 30.253906 11.378906 C 30.660156 10.945312 30.996094 10.511719 31.523438 10.078125 C 31.523438 10.320312 31.402344 10.585938 31.710938 10.800781 C 32 10.417969 32.382812 10.078125 32.886719 9.789062 C 32.648438 10.222656 32.835938 10.34375 32.980469 10.511719 C 33.363281 10.199219 33.722656 9.863281 34.441406 9.597656 C 34.253906 9.816406 33.988281 10.054688 34.273438 10.320312 C 34.683594 10.078125 35.066406 9.839844 36.023438 9.644531 C 35.808594 9.886719 35.378906 10.105469 35.640625 10.34375 C 36.121094 10.152344 36.667969 10.03125 37.292969 9.933594 C 36.996094 10.175781 36.757812 10.417969 36.996094 10.585938 C 37.527344 10.417969 38.253906 10.199219 38.96875 10.390625 L 38.515625 10.851562 C 38.464844 10.894531 39.570312 10.894531 40.300781 10.894531 C 40.039062 11.28125 39.765625 11.640625 39.605469 12.265625 C 39.679688 12.339844 40.039062 12.316406 40.382812 12.265625 C 40.03125 13.011719 39.425781 13.207031 39.28125 13.515625 C 39.488281 13.660156 39.789062 13.636719 40.117188 13.515625 C 39.867188 14.046875 39.335938 14.40625 38.917969 14.816406 C 39.019531 14.890625 39.210938 14.9375 39.644531 14.863281 C 39.257812 15.296875 38.796875 15.65625 38.246094 15.996094 C 38.339844 16.113281 38.675781 16.113281 38.988281 16.113281 C 38.484375 16.59375 37.84375 16.859375 37.242188 17.171875 C 37.542969 17.363281 37.757812 17.316406 37.988281 17.316406 C 37.5625 17.675781 36.832031 17.84375 36.164062 18.0625 C 36.285156 18.277344 36.414062 18.324219 36.6875 18.375 C 35.972656 18.757812 34.949219 18.589844 34.664062 18.78125 C 34.734375 18.976562 34.929688 19.117188 35.167969 19.214844 C 34.019531 19.289062 30.878906 19.191406 30.273438 16.789062 C 31.382812 15.566406 33.367188 14.148438 36.667969 12.402344 C 34.019531 13.34375 31.601562 14.570312 29.585938 16.210938 C 27.023438 15.035156 28.796875 12.027344 30.039062 10.824219 Z M 27.632812 19.296875 L 27.667969 19.296875 C 29.464844 19.277344 31.714844 20.636719 31.691406 21.910156 C 31.667969 23.035156 30.113281 23.945312 27.648438 23.929688 C 25.25 23.902344 23.632812 22.785156 23.636719 21.695312 C 23.636719 20.796875 25.597656 19.246094 27.632812 19.296875 Z M 18.238281 18.296875 C 18.527344 18.25 18.644531 18.203125 18.789062 17.984375 C 18.117188 17.769531 17.375 17.601562 16.96875 17.242188 C 17.183594 17.242188 17.398438 17.289062 17.710938 17.074219 C 17.113281 16.753906 16.464844 16.496094 15.964844 16.007812 C 16.296875 16 16.632812 16 16.730469 15.886719 C 16.175781 15.550781 15.722656 15.175781 15.339844 14.757812 C 15.796875 14.816406 15.964844 14.769531 16.082031 14.699219 C 15.675781 14.265625 15.148438 13.902344 14.886719 13.398438 C 15.21875 13.519531 15.507812 13.554688 15.722656 13.398438 C 15.578125 13.085938 14.984375 12.890625 14.625 12.171875 C 14.964844 12.199219 15.324219 12.242188 15.394531 12.171875 C 15.238281 11.523438 14.964844 11.164062 14.699219 10.800781 C 15.4375 10.792969 16.539062 10.804688 16.492188 10.746094 L 16.039062 10.289062 C 16.753906 10.097656 17.492188 10.3125 18.042969 10.507812 C 18.28125 10.320312 18.023438 10.097656 17.734375 9.855469 C 18.332031 9.929688 18.886719 10.074219 19.386719 10.269531 C 19.652344 10.03125 19.222656 9.789062 19.007812 9.546875 C 19.941406 9.742188 20.347656 9.984375 20.730469 10.222656 C 21.015625 9.957031 20.730469 9.714844 20.539062 9.476562 C 21.230469 9.742188 21.589844 10.078125 21.976562 10.4375 C 22.105469 10.246094 22.300781 10.128906 22.066406 9.714844 C 22.566406 10.003906 22.945312 10.34375 23.222656 10.726562 C 23.53125 10.535156 23.410156 10.246094 23.410156 10.003906 C 23.929688 10.4375 24.261719 10.871094 24.667969 11.304688 C 24.746094 11.257812 24.816406 11.039062 24.882812 10.730469 C 26.121094 11.90625 27.882812 14.910156 25.332031 16.113281 C 23.164062 14.332031 20.574219 13.035156 17.703125 12.074219 L 17.636719 12.046875 C 21.324219 13.925781 23.476562 15.441406 24.652344 16.734375 C 24.054688 19.140625 20.894531 19.238281 19.746094 19.164062 C 19.984375 19.066406 20.175781 18.921875 20.25 18.730469 C 19.960938 18.515625 18.953125 18.707031 18.238281 18.296875 Z M 22.730469 20.152344 L 22.730469 20.175781 C 23.988281 20.394531 16.703125 26.691406 16.59375 25.273438 C 16.480469 21.597656 19.320312 19.597656 22.730469 20.152344 Z M 16.027344 26.8125 C 18.003906 26.285156 16.695312 34.914062 15.085938 34.191406 L 15.085938 34.21875 C 13.316406 32.796875 12.746094 28.660156 16.027344 26.8125 Z M 16.027344 26.8125 "/>
</g>
</g>
</svg>
