<?xml version="1.0" encoding="UTF-8"?>
<svg xmlns="http://www.w3.org/2000/svg" xmlns:xlink="http://www.w3.org/1999/xlink" width="55px" height="55px" viewBox="0 0 55 55" version="1.1">
<defs>
<clipPath id="clip1">
  <path d="M 11.136719 8.417969 L 42.574219 8.417969 L 42.574219 46.816406 L 11.136719 46.816406 Z M 11.136719 8.417969 "/>
</clipPath>
</defs>
<g id="surface1">
<g clip-path="url(#clip1)" clip-rule="nonzero">
<path style=" stroke:none;fill-rule:nonzero;fill:rgb(100%,100%,100%);fill-opacity:1;" d="M 20.605469 8.445312 C 20.410156 8.453125 20.203125 8.523438 19.964844 8.710938 C 19.382812 8.488281 18.820312 8.410156 18.316406 8.863281 C 17.539062 8.765625 17.285156 8.972656 17.09375 9.214844 C 16.925781 9.210938 15.816406 9.039062 15.308594 9.796875 C 14.035156 9.644531 13.632812 10.546875 14.089844 11.386719 C 13.828125 11.789062 13.558594 12.191406 14.167969 12.957031 C 13.949219 13.386719 14.085938 13.851562 14.59375 14.414062 C 14.457031 15.015625 14.722656 15.441406 15.195312 15.769531 C 15.105469 16.59375 15.949219 17.074219 16.203125 17.246094 C 16.296875 17.726562 16.5 18.179688 17.464844 18.429688 C 17.621094 19.144531 18.203125 19.265625 18.761719 19.417969 C 16.910156 20.496094 15.320312 21.914062 15.328125 25.390625 L 15.058594 25.878906 C 12.933594 27.171875 11.019531 31.324219 14.011719 34.703125 C 14.207031 35.757812 14.535156 36.519531 14.824219 37.359375 C 15.261719 40.746094 18.109375 42.332031 18.859375 42.519531 C 19.960938 43.355469 21.132812 44.152344 22.71875 44.710938 C 24.214844 46.25 25.835938 46.839844 27.464844 46.839844 C 27.488281 46.839844 30.785156 46.25 32.28125 44.710938 C 33.867188 44.152344 35.039062 43.355469 36.140625 42.519531 C 36.890625 42.332031 39.738281 40.746094 40.175781 37.359375 C 40.464844 36.519531 40.792969 35.757812 40.988281 34.703125 C 43.980469 31.324219 42.066406 27.167969 39.941406 25.875 L 39.667969 25.390625 C 39.679688 21.914062 38.089844 20.496094 36.234375 19.417969 C 36.796875 19.265625 37.375 19.144531 37.535156 18.429688 C 38.5 18.175781 38.699219 17.722656 38.796875 17.246094 C 39.050781 17.074219 39.894531 16.59375 39.804688 15.769531 C 40.277344 15.441406 40.539062 15.015625 40.40625 14.414062 C 40.914062 13.851562 41.046875 13.386719 40.832031 12.957031 C 41.441406 12.1875 41.171875 11.789062 40.910156 11.386719 C 41.367188 10.546875 40.964844 9.644531 39.6875 9.796875 C 39.183594 9.039062 38.074219 9.210938 37.902344 9.214844 C 37.710938 8.972656 37.457031 8.765625 36.679688 8.863281 C 36.175781 8.410156 35.613281 8.488281 35.035156 8.710938 C 34.34375 8.167969 33.886719 8.601562 33.367188 8.765625 C 32.53125 8.496094 32.339844 8.867188 31.929688 9.019531 C 31.019531 8.828125 30.742188 9.246094 30.304688 9.691406 L 29.796875 9.679688 C 28.421875 10.488281 27.742188 12.136719 27.5 12.984375 C 27.257812 12.136719 26.574219 10.488281 25.203125 9.679688 L 24.695312 9.691406 C 24.257812 9.246094 23.980469 8.828125 23.070312 9.019531 C 22.660156 8.867188 22.46875 8.496094 21.632812 8.765625 C 21.289062 8.660156 20.976562 8.433594 20.605469 8.445312 L 11.175781 25.003906 "/>
</g>
<path style=" stroke:none;fill-rule:nonzero;fill:rgb(45.882353%,66.27451%,15.686275%);fill-opacity:1;" d="M 17.871094 12.007812 C 21.515625 13.886719 23.632812 15.40625 24.796875 16.703125 C 24.199219 19.085938 21.097656 19.191406 19.964844 19.125 C 20.199219 19.019531 20.390625 18.890625 20.460938 18.691406 C 20.175781 18.488281 19.167969 18.667969 18.460938 18.273438 C 18.734375 18.214844 18.859375 18.160156 18.984375 17.960938 C 18.320312 17.75 17.605469 17.566406 17.183594 17.214844 C 17.410156 17.21875 17.621094 17.265625 17.917969 17.058594 C 17.324219 16.738281 16.6875 16.484375 16.191406 15.992188 C 16.5 15.984375 16.832031 15.992188 16.929688 15.878906 C 16.382812 15.539062 15.925781 15.164062 15.542969 14.753906 C 15.972656 14.804688 16.15625 14.757812 16.261719 14.683594 C 15.847656 14.261719 15.328125 13.90625 15.078125 13.386719 C 15.398438 13.496094 15.691406 13.539062 15.902344 13.375 C 15.761719 13.058594 15.160156 12.871094 14.816406 12.132812 C 15.152344 12.167969 15.511719 12.207031 15.582031 12.132812 C 15.425781 11.496094 15.15625 11.136719 14.894531 10.765625 C 15.613281 10.753906 16.707031 10.769531 16.660156 10.707031 L 16.210938 10.253906 C 16.917969 10.0625 17.636719 10.28125 18.160156 10.445312 C 18.398438 10.261719 18.15625 10.027344 17.871094 9.785156 C 18.46875 9.867188 19.011719 10.003906 19.5 10.195312 C 19.761719 9.957031 19.332031 9.722656 19.121094 9.484375 C 20.046875 9.660156 20.4375 9.910156 20.828125 10.15625 C 21.113281 9.882812 20.84375 9.652344 20.65625 9.417969 C 21.351562 9.675781 21.710938 10.011719 22.089844 10.339844 C 22.21875 10.167969 22.414062 10.039062 22.175781 9.621094 C 22.671875 9.90625 23.046875 10.242188 23.320312 10.621094 C 23.628906 10.425781 23.503906 10.160156 23.503906 9.914062 C 24.019531 10.332031 24.347656 10.777344 24.746094 11.210938 C 24.828125 11.152344 24.898438 10.957031 24.960938 10.640625 C 26.1875 11.832031 27.921875 14.832031 25.40625 16.023438 C 23.265625 14.257812 20.707031 12.972656 17.871094 12.007812 "/>
<path style=" stroke:none;fill-rule:nonzero;fill:rgb(45.882353%,66.27451%,15.686275%);fill-opacity:1;" d="M 37.210938 12.007812 C 33.566406 13.886719 31.445312 15.40625 30.285156 16.703125 C 30.882812 19.085938 33.984375 19.191406 35.117188 19.125 C 34.882812 19.019531 34.691406 18.890625 34.621094 18.691406 C 34.90625 18.488281 35.914062 18.667969 36.621094 18.273438 C 36.347656 18.214844 36.222656 18.160156 36.09375 17.960938 C 36.761719 17.75 37.476562 17.566406 37.898438 17.214844 C 37.671875 17.21875 37.460938 17.265625 37.164062 17.058594 C 37.757812 16.738281 38.394531 16.484375 38.890625 15.992188 C 38.582031 15.984375 38.246094 15.992188 38.152344 15.878906 C 38.699219 15.539062 39.15625 15.164062 39.539062 14.753906 C 39.109375 14.804688 38.925781 14.757812 38.820312 14.683594 C 39.234375 14.261719 39.757812 13.90625 40.003906 13.386719 C 39.683594 13.496094 39.390625 13.539062 39.179688 13.375 C 39.320312 13.058594 39.921875 12.871094 40.265625 12.132812 C 39.929688 12.167969 39.570312 12.207031 39.5 12.132812 C 39.65625 11.496094 39.925781 11.136719 40.1875 10.765625 C 39.46875 10.753906 38.375 10.769531 38.421875 10.707031 L 38.871094 10.253906 C 38.164062 10.0625 37.445312 10.28125 36.917969 10.445312 C 36.683594 10.261719 36.925781 10.027344 37.210938 9.785156 C 36.613281 9.867188 36.070312 10.003906 35.582031 10.195312 C 35.320312 9.957031 35.75 9.722656 35.960938 9.484375 C 35.035156 9.660156 34.644531 9.910156 34.253906 10.15625 C 33.972656 9.882812 34.234375 9.652344 34.425781 9.417969 C 33.730469 9.675781 33.371094 10.011719 32.992188 10.339844 C 32.863281 10.167969 32.667969 10.039062 32.90625 9.621094 C 32.410156 9.90625 32.035156 10.242188 31.761719 10.621094 C 31.453125 10.425781 31.578125 10.160156 31.578125 9.914062 C 31.0625 10.332031 30.734375 10.777344 30.335938 11.210938 C 30.253906 11.152344 30.183594 10.953125 30.121094 10.640625 C 28.890625 11.832031 27.15625 14.832031 29.675781 16.023438 C 31.816406 14.253906 34.375 12.972656 37.210938 12.007812 "/>
<path style=" stroke:none;fill-rule:nonzero;fill:rgb(73.72549%,6.666667%,25.882353%);fill-opacity:1;" d="M 31.953125 36.269531 C 31.96875 38.496094 30.023438 40.308594 27.613281 40.316406 C 25.199219 40.328125 23.234375 38.539062 23.222656 36.3125 C 23.222656 36.296875 23.222656 36.285156 23.222656 36.269531 C 23.210938 34.046875 25.15625 32.234375 27.566406 32.222656 C 29.976562 32.210938 31.941406 34.003906 31.953125 36.226562 L 31.953125 36.269531 "/>
<path style=" stroke:none;fill-rule:nonzero;fill:rgb(73.72549%,6.666667%,25.882353%);fill-opacity:1;" d="M 25.0625 24.769531 C 26.871094 25.957031 27.199219 28.640625 25.792969 30.769531 C 24.382812 32.898438 21.777344 33.664062 19.96875 32.480469 C 18.160156 31.292969 17.832031 28.605469 19.238281 26.476562 C 20.644531 24.351562 23.253906 23.585938 25.0625 24.769531 "/>
<path style=" stroke:none;fill-rule:nonzero;fill:rgb(73.72549%,6.666667%,25.882353%);fill-opacity:1;" d="M 29.945312 24.554688 C 28.136719 25.742188 27.808594 28.429688 29.214844 30.554688 C 30.625 32.683594 33.230469 33.449219 35.039062 32.265625 C 36.847656 31.078125 37.175781 28.390625 35.765625 26.261719 C 34.359375 24.136719 31.753906 23.371094 29.945312 24.554688 "/>
<path style=" stroke:none;fill-rule:nonzero;fill:rgb(73.72549%,6.666667%,25.882353%);fill-opacity:1;" d="M 16.019531 26.707031 C 17.972656 26.183594 16.679688 34.789062 15.089844 34.082031 C 13.34375 32.675781 12.78125 28.558594 16.019531 26.707031 "/>
<path style=" stroke:none;fill-rule:nonzero;fill:rgb(73.72549%,6.666667%,25.882353%);fill-opacity:1;" d="M 38.59375 26.601562 C 36.640625 26.078125 37.933594 34.679688 39.523438 33.976562 C 41.269531 32.570312 41.832031 28.449219 38.59375 26.601562 "/>
<path style=" stroke:none;fill-rule:nonzero;fill:rgb(73.72549%,6.666667%,25.882353%);fill-opacity:1;" d="M 31.957031 20.191406 C 35.328125 19.625 38.132812 21.625 38.019531 25.28125 C 37.90625 26.683594 30.714844 20.402344 31.957031 20.191406 "/>
<path style=" stroke:none;fill-rule:nonzero;fill:rgb(73.72549%,6.666667%,25.882353%);fill-opacity:1;" d="M 22.644531 20.085938 C 19.273438 19.515625 16.46875 21.519531 16.582031 25.175781 C 16.691406 26.574219 23.886719 20.296875 22.644531 20.085938 "/>
<path style=" stroke:none;fill-rule:nonzero;fill:rgb(73.72549%,6.666667%,25.882353%);fill-opacity:1;" d="M 27.484375 19.234375 C 25.472656 19.179688 23.542969 20.726562 23.539062 21.625 C 23.53125 22.710938 25.128906 23.828125 27.5 23.855469 C 29.917969 23.875 31.464844 22.964844 31.472656 21.839844 C 31.480469 20.566406 29.269531 19.214844 27.484375 19.234375 "/>
<path style=" stroke:none;fill-rule:nonzero;fill:rgb(73.72549%,6.666667%,25.882353%);fill-opacity:1;" d="M 27.609375 41.566406 C 29.363281 41.492188 31.714844 42.132812 31.71875 42.984375 C 31.75 43.8125 29.585938 45.675781 27.492188 45.640625 C 25.324219 45.734375 23.195312 43.867188 23.222656 43.21875 C 23.191406 42.265625 25.863281 41.523438 27.609375 41.566406 "/>
<path style=" stroke:none;fill-rule:nonzero;fill:rgb(73.72549%,6.666667%,25.882353%);fill-opacity:1;" d="M 21.128906 36.523438 C 22.378906 38.03125 22.949219 40.671875 21.90625 41.453125 C 20.917969 42.046875 18.523438 41.800781 16.824219 39.355469 C 15.675781 37.304688 15.824219 35.21875 16.628906 34.605469 C 17.835938 33.871094 19.695312 34.863281 21.128906 36.523438 "/>
<path style=" stroke:none;fill-rule:nonzero;fill:rgb(73.72549%,6.666667%,25.882353%);fill-opacity:1;" d="M 33.835938 36.046875 C 32.484375 37.628906 31.730469 40.515625 32.71875 41.449219 C 33.660156 42.167969 36.191406 42.070312 38.058594 39.476562 C 39.417969 37.734375 38.960938 34.824219 38.1875 34.054688 C 37.035156 33.160156 35.382812 34.300781 33.835938 36.046875 "/>
</g>
</svg>
