<?xml version="1.0" encoding="UTF-8"?>
<svg xmlns="http://www.w3.org/2000/svg" xmlns:xlink="http://www.w3.org/1999/xlink" width="55px" height="55px" viewBox="0 0 55 55" version="1.1">
<defs>
<clipPath id="clip1">
  <path d="M 10.117188 7.070312 L 43.523438 7.070312 L 43.523438 47.914062 L 10.117188 47.914062 Z M 10.117188 7.070312 "/>
</clipPath>
<clipPath id="clip2">
  <path d="M 9.371094 7.070312 L 44.203125 7.070312 L 44.203125 47.914062 L 9.371094 47.914062 Z M 9.371094 7.070312 "/>
</clipPath>
</defs>
<g id="surface1">
<g clip-path="url(#clip1)" clip-rule="nonzero">
<path style=" stroke:none;fill-rule:nonzero;fill:rgb(100%,100%,100%);fill-opacity:1;" d="M 20.160156 7.070312 C 19.953125 7.078125 19.730469 7.152344 19.476562 7.351562 C 18.859375 7.113281 18.261719 7.03125 17.726562 7.515625 C 16.898438 7.410156 16.628906 7.628906 16.425781 7.890625 C 16.246094 7.886719 15.066406 7.703125 14.527344 8.507812 C 13.171875 8.347656 12.742188 9.304688 13.226562 10.199219 C 12.949219 10.628906 12.664062 11.050781 13.3125 11.871094 C 13.082031 12.324219 13.222656 12.820312 13.765625 13.417969 C 13.621094 14.058594 13.902344 14.507812 14.402344 14.863281 C 14.308594 15.738281 15.207031 16.246094 15.476562 16.429688 C 15.578125 16.9375 15.792969 17.421875 16.816406 17.6875 C 16.988281 18.449219 17.601562 18.578125 18.199219 18.738281 C 16.226562 19.886719 14.535156 21.394531 14.546875 25.09375 L 14.257812 25.609375 C 12 26.984375 9.964844 31.402344 13.144531 34.996094 C 13.351562 36.117188 13.703125 36.925781 14.011719 37.820312 C 14.476562 41.421875 17.503906 43.109375 18.304688 43.308594 C 19.472656 44.199219 20.71875 45.046875 22.40625 45.636719 C 23.996094 47.277344 25.71875 47.902344 27.453125 47.902344 C 27.476562 47.902344 30.984375 47.277344 32.574219 45.636719 C 34.261719 45.046875 35.507812 44.199219 36.679688 43.308594 C 37.476562 43.109375 40.507812 41.421875 40.96875 37.820312 C 41.28125 36.925781 41.628906 36.117188 41.835938 34.996094 C 45.019531 31.402344 42.984375 26.984375 40.722656 25.609375 L 40.433594 25.09375 C 40.445312 21.394531 38.753906 19.886719 36.78125 18.738281 C 37.378906 18.578125 37.996094 18.449219 38.164062 17.6875 C 39.1875 17.421875 39.402344 16.9375 39.507812 16.429688 C 39.773438 16.246094 40.671875 15.738281 40.578125 14.859375 C 41.078125 14.507812 41.359375 14.058594 41.21875 13.417969 C 41.757812 12.820312 41.898438 12.324219 41.671875 11.871094 C 42.320312 11.050781 42.03125 10.628906 41.753906 10.199219 C 42.238281 9.304688 41.8125 8.347656 40.453125 8.507812 C 39.914062 7.703125 38.738281 7.886719 38.554688 7.886719 C 38.351562 7.628906 38.082031 7.410156 37.257812 7.515625 C 36.71875 7.03125 36.121094 7.113281 35.503906 7.351562 C 34.769531 6.773438 34.285156 7.238281 33.730469 7.414062 C 32.839844 7.121094 32.636719 7.519531 32.203125 7.683594 C 31.234375 7.476562 30.9375 7.921875 30.472656 8.394531 L 29.933594 8.382812 C 28.472656 9.242188 27.746094 10.996094 27.488281 11.898438 C 27.234375 10.996094 26.507812 9.242188 25.046875 8.382812 L 24.507812 8.394531 C 24.042969 7.921875 23.746094 7.476562 22.777344 7.683594 C 22.34375 7.519531 22.140625 7.121094 21.25 7.414062 C 20.886719 7.296875 20.550781 7.058594 20.160156 7.070312 L 10.128906 24.679688 "/>
</g>
<g clip-path="url(#clip2)" clip-rule="nonzero">
<path style="fill:none;stroke-width:1;stroke-linecap:butt;stroke-linejoin:miter;stroke:rgb(100%,100%,100%);stroke-opacity:1;stroke-miterlimit:4;" d="M 69.305665 0.00379024 C 67.6481 0.0663399 65.865437 0.660561 63.832574 2.255576 C 58.891155 0.347813 54.10611 -0.308958 49.821461 3.569118 C 43.191203 2.724698 41.033241 4.476087 39.406951 6.571499 C 37.96831 6.540225 28.523319 5.070309 24.207396 11.512919 C 13.355039 10.230652 9.91481 17.892979 13.792886 25.054909 C 11.572375 28.495138 9.289314 31.872817 14.480932 38.440526 C 12.635718 42.068403 13.761611 46.040303 18.108809 50.825349 C 16.951641 55.954417 19.203427 59.551019 23.206602 62.397027 C 22.456007 69.402583 29.649212 73.468308 31.807174 74.938223 C 32.620319 79.003948 34.340433 82.882024 42.534432 85.008711 C 43.910523 91.107298 48.820668 92.139366 53.605713 93.421633 C 37.811936 102.616426 24.269946 114.688501 24.36377 144.305741 L 22.049434 148.434016 C 3.972597 159.442747 -12.321576 194.814552 13.136115 223.587372 C 14.79368 232.563241 17.608412 239.037126 20.079122 246.199057 C 23.800824 275.034427 48.038798 288.545143 54.450133 290.140158 C 63.801299 297.270813 73.777962 304.057446 87.288678 308.779942 C 100.017524 321.91536 113.809713 326.919329 127.695726 326.919329 C 127.883375 326.919329 155.96815 321.91536 168.696996 308.779942 C 182.207712 304.057446 192.184375 297.270813 201.566816 290.140158 C 207.946876 288.545143 232.216125 275.034427 235.906552 246.199057 C 238.408537 239.037126 241.191994 232.563241 242.849559 223.587372 C 268.338525 194.814552 252.044352 159.442747 233.936239 148.434016 L 231.621904 144.305741 C 231.715728 114.688501 218.173738 102.616426 202.379961 93.421633 C 207.165006 92.139366 212.106425 91.107298 213.451242 85.008711 C 221.645241 82.882024 223.365355 79.003948 224.209775 74.938223 C 226.336462 73.468308 233.529667 69.402583 232.779072 62.365752 C 236.782247 59.551019 239.034033 55.954417 237.90814 50.825349 C 242.224063 46.040303 243.349956 42.068403 241.536017 38.440526 C 246.727635 31.872817 244.413299 28.495138 242.192788 25.054909 C 246.070864 17.892979 242.66191 10.230652 231.778278 11.512919 C 227.462355 5.070309 218.048638 6.540225 216.578723 6.540225 C 214.952433 4.476087 212.794471 2.724698 206.195487 3.569118 C 201.879564 -0.308958 197.094519 0.347813 192.1531 2.255576 C 186.273436 -2.373095 182.395361 1.348607 177.954338 2.755973 C 170.823683 0.410363 169.197393 3.600393 165.725889 4.913935 C 157.969738 3.25637 155.592853 6.821698 151.871151 10.605949 L 147.555228 10.512125 C 135.85845 17.392582 130.041337 31.434969 127.9772 38.659449 C 125.944337 31.434969 120.127223 17.392582 108.430446 10.512125 L 104.114523 10.605949 C 100.392821 6.821698 98.015936 3.25637 90.259785 4.913935 C 86.788281 3.600393 85.161991 0.410363 78.031336 2.755973 C 75.122779 1.817729 72.433146 -0.0900342 69.305665 0.00379024 L -11.008035 140.990612 " transform="matrix(0.124901,0,0,0.124901,11.503819,7.069839)"/>
</g>
<path style="fill-rule:nonzero;fill:rgb(0%,0%,0%);fill-opacity:1;stroke-width:1;stroke-linecap:butt;stroke-linejoin:miter;stroke:rgb(100%,100%,100%);stroke-opacity:1;stroke-miterlimit:4;" d="M 46.005935 30.340351 C 77.030542 46.321777 95.076105 59.269546 104.958943 70.309552 C 99.923699 90.606901 73.496489 91.51387 63.832574 90.950924 C 65.834162 90.043954 67.460452 88.918061 68.054673 87.229222 C 65.646513 85.509108 57.045941 87.041573 51.041179 83.695169 C 53.355514 83.194772 54.418858 82.72565 55.513476 81.03681 C 49.852736 79.222872 43.722874 77.659131 40.157547 74.688025 C 42.096585 74.7193 43.879248 75.125872 46.412508 73.343208 C 41.345989 70.6223 35.935448 68.464339 31.713349 64.273515 C 34.340433 64.210965 37.18644 64.24224 37.999585 63.272721 C 33.339639 60.395439 29.430288 57.205409 26.177709 53.702631 C 29.868136 54.140478 31.400601 53.76518 32.307571 53.139684 C 28.773518 49.543082 24.332495 46.478151 22.237083 42.068403 C 24.957991 43.006647 27.459976 43.35067 29.24264 41.974579 C 28.054197 39.284946 22.925129 37.68993 19.985297 31.403695 C 22.862579 31.685168 25.896236 32.029191 26.521732 31.403695 C 25.176915 25.993153 22.893854 22.928222 20.673343 19.769467 C 26.803205 19.675643 36.123097 19.800742 35.68525 19.26907 L 31.900998 15.390994 C 37.905761 13.764705 44.035623 15.641193 48.476645 17.048559 C 50.478232 15.453544 48.44537 13.451956 46.005935 11.419094 C 51.103728 12.10714 55.7324 13.264308 59.891949 14.890598 C 62.11246 12.88901 58.453308 10.887422 56.670644 8.85456 C 64.551895 10.355751 67.867024 12.451163 71.213428 14.577849 C 73.590313 12.263514 71.338527 10.293201 69.712238 8.291614 C 75.654451 10.48085 78.719381 13.326857 81.940686 16.14159 C 83.035305 14.671674 84.724144 13.577056 82.691282 10.011728 C 86.882106 12.451163 90.072136 15.328445 92.417746 18.518475 C 95.04483 16.86091 93.981486 14.609124 93.981486 12.513712 C 98.359959 16.07904 101.143417 19.863292 104.55237 23.553719 C 105.240416 23.053322 105.834638 21.364482 106.366309 18.706124 C 116.843369 28.839161 131.605077 54.390676 110.181835 64.523713 C 91.948624 49.480532 70.150085 38.53435 46.005935 30.340351 M 210.699059 30.340351 C 179.643178 46.353051 161.597615 59.269546 151.714777 70.309552 C 156.781295 90.606901 183.208505 91.51387 192.841145 90.950924 C 190.870833 90.043954 189.213268 88.918061 188.650322 87.229222 C 191.058482 85.509108 199.659053 87.041573 205.663816 83.695169 C 203.34948 83.194772 202.286137 82.72565 201.191518 81.03681 C 206.852258 79.222872 212.950845 77.659131 216.547448 74.688025 C 214.60841 74.7193 212.794471 75.125872 210.292487 73.343208 C 215.359005 70.6223 220.769547 68.464339 224.991645 64.273515 C 222.364562 64.210965 219.518554 64.24224 218.705409 63.272721 C 223.334081 60.395439 227.274706 57.205409 230.496011 53.702631 C 226.836859 54.140478 225.273118 53.76518 224.397424 53.139684 C 227.900202 49.543082 232.341224 46.478151 234.467911 42.068403 C 231.747003 43.006647 229.245019 43.35067 227.462355 41.974579 C 228.650797 39.284946 233.748591 37.68993 236.688422 31.403695 C 233.842415 31.685168 230.777484 32.029191 230.183263 31.403695 C 231.528079 25.993153 233.81114 22.928222 236.031651 19.769467 C 229.90179 19.675643 220.581898 19.800742 221.019745 19.26907 L 224.803996 15.390994 C 218.799234 13.764705 212.669372 15.641193 208.197075 17.048559 C 206.195487 15.453544 208.259624 13.451956 210.699059 11.419094 C 205.601266 12.10714 200.972595 13.264308 196.813046 14.890598 C 194.592535 12.88901 198.251687 10.887422 200.034351 8.85456 C 192.1531 10.355751 188.806696 12.451163 185.491566 14.577849 C 183.083406 12.263514 185.366467 10.293201 186.992757 8.291614 C 181.050544 10.48085 177.985613 13.326857 174.764308 16.14159 C 173.66969 14.671674 171.98085 13.577056 174.013713 10.011728 C 169.791614 12.451163 166.632859 15.328445 164.287248 18.518475 C 161.660165 16.86091 162.723508 14.577849 162.723508 12.482438 C 158.313761 16.07904 155.530303 19.863292 152.152624 23.553719 C 151.464578 23.053322 150.839082 21.364482 150.30741 18.706124 C 139.861626 28.839161 125.099917 54.390676 146.523159 64.523713 C 164.75637 49.480532 186.55491 38.53435 210.699059 30.340351 " transform="matrix(0.124901,0,0,0.124901,11.503819,7.069839)"/>
<path style="fill-rule:nonzero;fill:rgb(0%,0%,0%);fill-opacity:1;stroke-width:1;stroke-linecap:butt;stroke-linejoin:miter;stroke:rgb(100%,100%,100%);stroke-opacity:1;stroke-miterlimit:4;" d="M 165.944813 236.941714 C 166.038637 255.862971 149.494266 271.28145 128.946719 271.406549 C 108.430446 271.500374 91.698426 256.238269 91.573326 237.285737 C 91.573326 237.160638 91.573326 237.066813 91.573326 236.941714 C 91.479502 217.989182 108.023874 202.570703 128.571421 202.476879 C 149.087693 202.383054 165.819714 217.645159 165.944813 236.566417 L 165.944813 236.941714 M 107.242004 138.989024 C 122.660483 149.090786 125.412666 171.983944 113.434415 190.092056 C 101.456165 208.231443 79.282328 214.736603 63.863849 204.63484 C 48.476645 194.564353 45.693187 171.671196 57.671438 153.563084 C 69.649688 135.423697 91.8548 128.918537 107.242004 138.989024 M 148.837495 137.175086 C 133.419016 147.276848 130.635558 170.13873 142.613808 188.278117 C 154.592059 206.38623 176.79717 212.922664 192.215649 202.820902 C 207.602854 192.71914 210.386311 169.857257 198.408061 151.71787 C 186.42981 133.609758 164.224699 127.073324 148.837495 137.175086 M 30.243433 155.502122 C 46.88163 151.061099 35.872898 224.306693 22.330908 218.30193 C 7.4441 206.32368 2.659055 171.264623 30.243433 155.502122 M 222.458386 154.595152 C 205.82019 150.122855 216.828921 223.399724 230.370912 217.394961 C 245.257719 205.416711 250.042764 170.357654 222.458386 154.595152 M 165.944813 100.020617 C 194.655084 95.204297 218.517761 112.249066 217.579516 143.367497 C 216.609997 155.283198 155.373929 101.803281 165.944813 100.020617 M 86.631907 99.113648 C 57.952911 94.266053 34.05896 111.342097 35.028479 142.460528 C 35.966723 154.376229 97.234066 100.896312 86.631907 99.113648 M 127.883375 91.857893 C 110.744782 91.420046 94.294234 104.586739 94.26296 112.217791 C 94.231685 121.475134 107.80495 130.982674 127.9772 131.232873 C 148.587296 131.357972 161.753989 123.633095 161.816539 114.063005 C 161.910363 103.210647 143.08293 91.701519 127.883375 91.857893 M 128.915444 282.039983 C 143.864801 281.383212 163.880676 286.856303 163.943226 294.112058 C 164.193424 301.148889 145.772564 317.03649 127.945925 316.723742 C 109.462515 317.536887 91.354403 301.586736 91.604601 296.082371 C 91.323128 287.982196 114.091186 281.664686 128.915444 282.039983 M 73.746687 239.099676 C 84.380121 251.922346 89.227716 274.408931 80.376946 281.039189 C 71.964024 286.105708 51.572851 284.041571 37.092616 263.212551 C 27.303602 245.729934 28.585869 227.965845 35.435051 222.742953 C 45.693187 216.487992 61.549513 224.932189 73.746687 239.099676 M 181.957513 235.033951 C 170.448385 248.513392 164.03705 273.095389 172.449973 281.007915 C 180.456323 287.169051 202.004663 286.293357 217.923539 264.213344 C 229.463942 249.389087 225.585866 224.619441 218.986883 218.051732 C 209.197869 210.451954 195.124206 220.178419 181.957513 235.033951 " transform="matrix(0.124901,0,0,0.124901,11.503819,7.069839)"/>
</g>
</svg>
