<?xml version="1.0" encoding="UTF-8" standalone="no"?>
<!-- Created with Inkscape (http://www.inkscape.org/) -->
<svg
   xmlns:svg="http://www.w3.org/2000/svg"
   xmlns="http://www.w3.org/2000/svg"
   xmlns:xlink="http://www.w3.org/1999/xlink"
   version="1.0"
   width="145"
   height="500"
   id="svg2">
  <defs
     id="defs4">
    <linearGradient
       id="linearGradient3245">
      <stop
         id="stop3247"
         style="stop-color:#ffffff;stop-opacity:1"
         offset="0" />
      <stop
         id="stop3249"
         style="stop-color:#ffff00;stop-opacity:0"
         offset="1" />
    </linearGradient>
    <linearGradient
       x1="47"
       y1="445"
       x2="97"
       y2="445"
       id="linearGradient3291"
       xlink:href="#linearGradient3245"
       gradientUnits="userSpaceOnUse" />
    <linearGradient
       x1="11"
       y1="109"
       x2="63"
       y2="109"
       id="linearGradient3251"
       xlink:href="#linearGradient3245"
       gradientUnits="userSpaceOnUse" />
    <linearGradient
       x1="4"
       y1="188"
       x2="70"
       y2="188"
       id="linearGradient3259"
       xlink:href="#linearGradient3245"
       gradientUnits="userSpaceOnUse" />
    <linearGradient
       x1="13"
       y1="270"
       x2="61"
       y2="270"
       id="linearGradient3267"
       xlink:href="#linearGradient3245"
       gradientUnits="userSpaceOnUse" />
    <linearGradient
       x1="75"
       y1="188"
       x2="141"
       y2="188"
       id="linearGradient3323"
       xlink:href="#linearGradient3245"
       gradientUnits="userSpaceOnUse" />
    <linearGradient
       x1="82"
       y1="248"
       x2="134"
       y2="248"
       id="linearGradient3315"
       xlink:href="#linearGradient3245"
       gradientUnits="userSpaceOnUse" />
    <linearGradient
       x1="12"
       y1="392"
       x2="80"
       y2="392"
       id="linearGradient3275"
       xlink:href="#linearGradient3245" />
    <linearGradient
       x1="47"
       y1="52"
       x2="97"
       y2="52"
       id="linearGradient3283"
       xlink:href="#linearGradient3245"
       gradientUnits="userSpaceOnUse" />
    <linearGradient
       x1="82"
       y1="392"
       x2="132"
       y2="392"
       id="linearGradient3307"
       xlink:href="#linearGradient3245" />
    <linearGradient
       x1="0"
       y1="-31"
       x2="104"
       y2="20"
       id="linearGradient3172"
       xlink:href="#linearGradient3245"
       gradientUnits="userSpaceOnUse" />
    <linearGradient
       x1="0"
       y1="-31"
       x2="104"
       y2="20"
       id="linearGradient2698"
       xlink:href="#linearGradient3245"
       gradientUnits="userSpaceOnUse" />
    <linearGradient
       x1="82"
       y1="119"
       x2="134"
       y2="119"
       id="linearGradient3331"
       xlink:href="#linearGradient3245"
       gradientUnits="userSpaceOnUse" />
    <linearGradient
       x1="47"
       y1="52"
       x2="97"
       y2="52"
       id="linearGradient2803"
       xlink:href="#linearGradient3245"
       gradientUnits="userSpaceOnUse" />
    <linearGradient
       x1="47.393524"
       y1="52.893875"
       x2="97.606476"
       y2="52.893875"
       id="linearGradient2686"
       xlink:href="#linearGradient3245"
       gradientUnits="userSpaceOnUse"
       gradientTransform="translate(-39.41375,0)" />
    <linearGradient
       x1="82.928017"
       y1="119.21875"
       x2="134.55301"
       y2="119.21875"
       id="linearGradient2684"
       xlink:href="#linearGradient3245"
       gradientUnits="userSpaceOnUse"
       gradientTransform="translate(0,94)" />
    <linearGradient
       x1="0.94254935"
       y1="-31.669659"
       x2="104.37702"
       y2="20.434471"
       id="linearGradient2682"
       xlink:href="#linearGradient3245"
       gradientUnits="userSpaceOnUse"
       gradientTransform="matrix(0.7083638,0,0,1.0012565,0.1338084,32.632067)" />
    <linearGradient
       x1="0.94254935"
       y1="-31.669659"
       x2="104.37702"
       y2="20.434471"
       id="linearGradient2680"
       xlink:href="#linearGradient3245"
       gradientUnits="userSpaceOnUse"
       gradientTransform="matrix(0.7083638,0,0,1.0012565,0.1338084,32.632067)" />
    <linearGradient
       x1="82.356911"
       y1="392.34818"
       x2="132.61295"
       y2="392.34818"
       id="linearGradient2678"
       xlink:href="#linearGradient3245"
       gradientUnits="userSpaceOnUse" />
    <linearGradient
       x1="47.393524"
       y1="52.893875"
       x2="97.606476"
       y2="52.893875"
       id="linearGradient2676"
       xlink:href="#linearGradient3245"
       gradientUnits="userSpaceOnUse"
       gradientTransform="translate(-39.41375,0)" />
    <linearGradient
       x1="12.124999"
       y1="392.34818"
       x2="80.875"
       y2="392.34818"
       id="linearGradient2674"
       xlink:href="#linearGradient3245"
       gradientUnits="userSpaceOnUse" />
    <linearGradient
       x1="82.928009"
       y1="248.60938"
       x2="134.55301"
       y2="248.60938"
       id="linearGradient2672"
       xlink:href="#linearGradient3245"
       gradientUnits="userSpaceOnUse"
       gradientTransform="translate(0,94)" />
    <linearGradient
       x1="75.990517"
       y1="188.5"
       x2="141.49051"
       y2="188.5"
       id="linearGradient2670"
       xlink:href="#linearGradient3245"
       gradientUnits="userSpaceOnUse"
       gradientTransform="translate(0,94)" />
    <linearGradient
       x1="13.33134"
       y1="270.5"
       x2="61.206341"
       y2="270.5"
       id="linearGradient2668"
       xlink:href="#linearGradient3245"
       gradientUnits="userSpaceOnUse"
       gradientTransform="translate(0,94)" />
    <linearGradient
       x1="4.5188398"
       y1="188.5"
       x2="70.018837"
       y2="188.5"
       id="linearGradient2666"
       xlink:href="#linearGradient3245"
       gradientUnits="userSpaceOnUse"
       gradientTransform="translate(0,94)" />
    <linearGradient
       x1="11.45634"
       y1="109.14062"
       x2="63.081341"
       y2="109.14062"
       id="linearGradient2664"
       xlink:href="#linearGradient3245"
       gradientUnits="userSpaceOnUse"
       gradientTransform="translate(0,94)" />
    <linearGradient
       x1="47.715"
       y1="445.94196"
       x2="97.284996"
       y2="445.94196"
       id="linearGradient2662"
       xlink:href="#linearGradient3245"
       gradientUnits="userSpaceOnUse" />
    <linearGradient
       id="linearGradient2656">
      <stop
         id="stop2658"
         style="stop-color:#ffffff;stop-opacity:1"
         offset="0" />
      <stop
         id="stop2660"
         style="stop-color:#ffff00;stop-opacity:0"
         offset="1" />
    </linearGradient>
    <linearGradient
       x1="47.393524"
       y1="54.202423"
       x2="97.606476"
       y2="54.202423"
       id="linearGradient3338"
       xlink:href="#linearGradient3245"
       gradientUnits="userSpaceOnUse" />
    <linearGradient
       x1="47.415104"
       y1="99.202805"
       x2="97.584892"
       y2="99.202805"
       id="linearGradient3372"
       xlink:href="#linearGradient3245"
       gradientUnits="userSpaceOnUse" />
    <linearGradient
       x1="47.269257"
       y1="146.11281"
       x2="97.730743"
       y2="146.11281"
       id="linearGradient3388"
       xlink:href="#linearGradient3245"
       gradientUnits="userSpaceOnUse" />
  </defs>
  <path
     d="M 0.5,0.5 L 0.5,486 C 1.5,488.5 2.5,490.5 3.5,493 C 5,494.5 6.5,495.5 8.5,497 C 10.5,497.5 13,498.5 15,499 L 129,499 C 131,498.5 133.5,497.5 135.5,497 C 137.5,495.5 139.5,494.5 141.5,493 C 142.5,490.5 143.5,488.5 144.5,486 L 144.5,0.5 L 0.5,0.5 z"
     id="path22"
     style="fill:#ffd000;fill-opacity:1;fill-rule:evenodd;stroke:#e0a000;stroke-width:1px;stroke-linecap:butt;stroke-linejoin:miter;stroke-opacity:1" />
  <rect
     width="123"
     height="0.14"
     x="10"
     y="173"
     id="rect3987"
     style="opacity:1;fill:#ffd000;fill-opacity:1;fill-rule:nonzero;stroke:#e0a000;stroke-width:1;stroke-linecap:square;stroke-linejoin:round;stroke-miterlimit:4;stroke-dasharray:none;stroke-opacity:1" />
  <rect
     width="123"
     height="0.14"
     x="10"
     y="174"
     id="rect3989"
     style="opacity:1;fill:#ffd000;fill-opacity:1;fill-rule:nonzero;stroke:#fff080;stroke-width:1;stroke-linecap:square;stroke-linejoin:round;stroke-miterlimit:4;stroke-dasharray:none;stroke-opacity:1" />
  <rect
     width="123"
     height="0.14"
     x="10"
     y="175"
     id="rect3991"
     style="opacity:1;fill:#ffd000;fill-opacity:1;fill-rule:nonzero;stroke:#ffffc4;stroke-width:1;stroke-linecap:square;stroke-linejoin:round;stroke-miterlimit:4;stroke-dasharray:none;stroke-opacity:1" />
  <rect
     width="137"
     height="0.14"
     x="3"
     y="-28"
     transform="scale(1,-1)"
     id="rect3993"
     style="opacity:1;fill:#ffd000;fill-opacity:1;fill-rule:nonzero;stroke:#e0a000;stroke-width:1;stroke-linecap:square;stroke-linejoin:round;stroke-miterlimit:4;stroke-dasharray:none;stroke-opacity:1" />
  <rect
     width="137"
     height="0.14"
     x="3"
     y="-27"
     transform="scale(1,-1)"
     id="rect3995"
     style="opacity:1;fill:#ffd000;fill-opacity:1;fill-rule:nonzero;stroke:#fff080;stroke-width:1;stroke-linecap:square;stroke-linejoin:round;stroke-miterlimit:4;stroke-dasharray:none;stroke-opacity:1" />
  <rect
     width="137"
     height="0.14"
     x="3"
     y="-474"
     transform="scale(1,-1)"
     id="rect3999"
     style="opacity:1;fill:#ffd000;fill-opacity:1;fill-rule:nonzero;stroke:#e0a000;stroke-width:1;stroke-linecap:square;stroke-linejoin:round;stroke-miterlimit:4;stroke-dasharray:none;stroke-opacity:1" />
  <rect
     width="137"
     height="0.14"
     x="3"
     y="-473"
     transform="scale(1,-1)"
     id="rect4001"
     style="opacity:1;fill:#ffd000;fill-opacity:1;fill-rule:nonzero;stroke:#fff080;stroke-width:1;stroke-linecap:square;stroke-linejoin:round;stroke-miterlimit:4;stroke-dasharray:none;stroke-opacity:1" />
  <path
     d="M 80,487 C 80,491 77,495 72,495 C 67,495 64,491 64,487 C 64,482 67,479 72,479 C 77,479 80,482 80,487 L 80,487 z"
     id="path4003"
     style="fill:#ff4040;fill-opacity:1;fill-rule:nonzero;stroke:#ff4040;stroke-width:1;stroke-linecap:square;stroke-linejoin:round;stroke-miterlimit:4;stroke-dasharray:none;stroke-opacity:1" />
  <text
     id="text32"
     xml:space="preserve"
     style="font-size:12px;font-style:normal;font-variant:normal;font-weight:bold;font-stretch:normal;text-align:start;line-height:125%;writing-mode:lr-tb;text-anchor:start;fill:#000000;fill-opacity:1;stroke:none;stroke-width:1px;stroke-linecap:butt;stroke-linejoin:miter;stroke-opacity:1;font-family:Bitstream Vera Sans;-inkscape-font-specification:Bitstream Vera Sans Bold"><tspan
       x="67"
       y="491"
       id="tspan4007"
       style="font-size:12px;font-weight:bold;fill:#ffffff;font-family:Bitstream Vera Sans">X</tspan></text>
  <text
     id="text35"
     style="font-size:12px;font-style:normal;font-weight:normal;fill:#000000;fill-opacity:1;stroke:none;stroke-width:1px;stroke-linecap:butt;stroke-linejoin:miter;stroke-opacity:1;font-family:Bitstream Vera Sans">
    <tspan
       x="22"
       y="21"
       id="tspan2796"
       style="font-size:20px">Vorlagen</tspan>
  </text>
  <path
     d="M 79,426 C 90,426 90,426 90,426 L 94,429 L 96,433 L 96,455 L 94,460 L 90,462 L 79,462 L 79,462 L 79,465 L 65,465 L 65,462 L 54,462 L 50,460 L 48,455 L 48,433 L 50,429 L 54,426 L 65,426 L 65,429 L 79,429 L 79,426 z"
     id="path2714"
     style="fill:url(#linearGradient3291);fill-opacity:1;stroke:#c0a000;stroke-width:1;stroke-miterlimit:4;stroke-dasharray:none;stroke-opacity:1" />
  <text
     id="text42"
     style="font-size:12px;text-align:center;text-anchor:middle;font-family:Bitstream Vera Sans">
    <tspan
       x="72"
       y="443"
       id="tspan2722"
       style="font-size:12px">Blöcke</tspan>
  </text>
  <text
     x="20.141562"
     transform="scale(0.8704195,1.1488713)"
     id="text55"
     style="font-size:10.49726009px;text-align:center;text-anchor:middle;font-family:Bitstream Vera Sans">
    <tspan
       x="82.811768"
       y="396.91132"
       id="tspan57"
       style="font-size:10.44503403px">verbergen</tspan>
  </text>
  <rect
     width="123"
     height="0.14"
     x="10"
     y="415"
     id="rect3434"
     style="opacity:1;fill:#ffd000;fill-opacity:1;fill-rule:nonzero;stroke:#e0a000;stroke-width:1;stroke-linecap:square;stroke-linejoin:round;stroke-miterlimit:4;stroke-dasharray:none;stroke-opacity:1" />
  <rect
     width="123"
     height="0.14"
     x="10"
     y="416"
     id="rect3436"
     style="opacity:1;fill:#ffd000;fill-opacity:1;fill-rule:nonzero;stroke:#fff080;stroke-width:1;stroke-linecap:square;stroke-linejoin:round;stroke-miterlimit:4;stroke-dasharray:none;stroke-opacity:1" />
  <rect
     width="123"
     height="0.14"
     x="10"
     y="417"
     id="rect3438"
     style="opacity:1;fill:#ffd000;fill-opacity:1;fill-rule:nonzero;stroke:#ffffc4;stroke-width:1;stroke-linecap:square;stroke-linejoin:round;stroke-miterlimit:4;stroke-dasharray:none;stroke-opacity:1" />
  <path
     d="M 35,182 L 29,182 L 29,184 L 21,184 L 21,182 L 15,182 C 15,182 13,183 13,183 C 12,184 11,186 11,186 L 11,220 C 11,220 12,221 12,221 C 12,221 14,222 14,222 L 21,222 L 21,224 L 29,224 L 29,222 L 62,222 L 62,183 L 37,183 L 36,183 L 35,182 z"
     id="path4158"
     style="fill:url(#linearGradient3251);fill-opacity:1;fill-rule:evenodd;stroke:#c0a000;stroke-width:1;stroke-linecap:butt;stroke-linejoin:miter;stroke-miterlimit:4;stroke-dasharray:none;stroke-opacity:1" />
  <path
     d="M 15,199 L 43,199 L 43,219 L 15,219 L 15,199 z"
     id="path4162"
     style="fill:#ffffff;fill-opacity:1;fill-rule:nonzero;stroke:#c0a000;stroke-width:1;stroke-linecap:butt;stroke-linejoin:miter;stroke-miterlimit:4;stroke-dasharray:none;stroke-opacity:1" />
  <polygon
     points="10,6 31,6 43,18 43,48 10,48 10,6 "
     transform="matrix(0.375,0,0,0.375,42.63809,197.40725)"
     id="polygon2963"
     style="fill:#ffffff;stroke:#010101;stroke-width:2.66666675;stroke-miterlimit:4;stroke-dasharray:none" />
  <polyline
     style="fill:none;stroke:#010101;stroke-width:2.66666675;stroke-miterlimit:4;stroke-dasharray:none"
     points="43,18 31,18 31,6    "
     id="polyline2965"
     transform="matrix(0.375,0,0,0.375,42.63809,197.40725)" />
  <line
     style="fill:none;stroke:#010101;stroke-width:1;stroke-miterlimit:4;stroke-dasharray:none;display:inline"
     display="inline"
     x1="49"
     x2="56"
     y1="207"
     y2="207"
     id="line2967" />
  <line
     style="fill:none;stroke:#010101;stroke-width:1;stroke-miterlimit:4;stroke-dasharray:none;display:inline"
     display="inline"
     x1="49"
     x2="56"
     y1="209.5"
     y2="209.5"
     id="line2969" />
  <line
     style="fill:none;stroke:#010101;stroke-width:1;stroke-miterlimit:4;stroke-dasharray:none;display:inline"
     display="inline"
     x1="49"
     x2="56"
     y1="212"
     y2="212"
     id="line2971" />
  <path
     d="M 28,251 L 22,251 L 22,253 L 14,253 L 14,251 L 8,251 C 8,251 6,252 6,253 C 6,253 5,255 5,255 L 5,309 C 5,309 5,311 5,311 C 5,311 7,312 7,312 L 14,312 L 14,313 L 22,313 L 22,312 L 69,312 L 69,253 L 30,253 L 29,252 L 28,251 z"
     id="path4390"
     style="fill:url(#linearGradient3259);fill-opacity:1;fill-rule:evenodd;stroke:#c0a000;stroke-width:1;stroke-linecap:butt;stroke-linejoin:miter;stroke-miterlimit:4;stroke-dasharray:none;stroke-opacity:1" />
  <path
     d="M 8,268 L 36,268 L 36,288 L 8,288 L 8,268 z"
     id="path4394"
     style="fill:#ffffff;fill-opacity:1;fill-rule:nonzero;stroke:#c0a000;stroke-width:1;stroke-linecap:butt;stroke-linejoin:miter;stroke-miterlimit:4;stroke-dasharray:none;stroke-opacity:1" />
  <path
     d="M 38,268 L 66,268 L 66,288 L 38,288 L 38,268 z"
     id="path2418"
     style="fill:#ffffff;fill-opacity:1;fill-rule:nonzero;stroke:#c0a000;stroke-width:1;stroke-linecap:butt;stroke-linejoin:miter;stroke-miterlimit:4;stroke-dasharray:none;stroke-opacity:1" />
  <polygon
     points="10,6 31,6 43,18 43,48 10,48 10,6 "
     transform="matrix(0.375,0,0,0.375,4.95059,289.5635)"
     id="polygon4402"
     style="fill:#ffffff;stroke:#010101;stroke-width:2.66666675;stroke-miterlimit:4;stroke-dasharray:none" />
  <polyline
     style="fill:none;stroke:#010101;stroke-width:2.66666675;stroke-miterlimit:4;stroke-dasharray:none"
     points="43,18 31,18 31,6    "
     id="polyline4404"
     transform="matrix(0.375,0,0,0.375,4.95059,289.5635)" />
  <line
     style="fill:none;stroke:#010101;stroke-width:1;stroke-miterlimit:4;stroke-dasharray:none;display:inline"
     display="inline"
     x1="11"
     x2="18"
     y1="299"
     y2="299"
     id="line4406" />
  <line
     style="fill:none;stroke:#010101;stroke-width:1;stroke-miterlimit:4;stroke-dasharray:none;display:inline"
     display="inline"
     x1="11"
     x2="18"
     y1="301.5"
     y2="301.5"
     id="line4408" />
  <line
     style="fill:none;stroke:#010101;stroke-width:1;stroke-miterlimit:4;stroke-dasharray:none;display:inline"
     display="inline"
     x1="11"
     x2="18"
     y1="304"
     y2="304"
     id="line4410" />
  <polygon
     points="10,6 31,6 43,18 43,48 10,48 10,6 "
     transform="matrix(0.375,0,0,0.375,34.95059,289.5635)"
     id="polygon2582"
     style="fill:#ffffff;stroke:#010101;stroke-width:2;stroke-miterlimit:4;stroke-dasharray:none" />
  <polyline
     style="fill:none;stroke:#010101;stroke-width:2;stroke-miterlimit:4;stroke-dasharray:none"
     points="43,18 31,18 31,6    "
     id="polyline2584"
     transform="matrix(0.375,0,0,0.375,34.95059,289.5635)" />
  <line
     style="fill:none;stroke:#010101;stroke-width:1;stroke-miterlimit:4;stroke-dasharray:none;display:inline"
     display="inline"
     x1="41"
     x2="48"
     y1="299"
     y2="299"
     id="line2586" />
  <line
     style="fill:none;stroke:#010101;stroke-width:1;stroke-miterlimit:4;stroke-dasharray:none;display:inline"
     display="inline"
     x1="41"
     x2="48"
     y1="301.5"
     y2="301.5"
     id="line2588" />
  <line
     style="fill:none;stroke:#010101;stroke-width:1;stroke-miterlimit:4;stroke-dasharray:none;display:inline"
     display="inline"
     x1="41"
     x2="48"
     y1="304"
     y2="304"
     id="line2590" />
  <path
     d="M 37,321 L 31,321 L 31,323 L 23,323 L 23,321 L 17,321 C 17,321 15,322 15,323 C 14,323 13,325 13,325 L 13,403 C 13,403 14,404 14,405 C 14,405 16,406 16,406 L 23,406 L 23,407 L 31,407 L 31,406 L 60,406 L 60,323 L 39,323 L 38,322 L 37,321 z"
     id="path4690"
     style="fill:url(#linearGradient3267);fill-opacity:1;fill-rule:evenodd;stroke:#c0a000;stroke-width:1;stroke-linecap:butt;stroke-linejoin:miter;stroke-miterlimit:4;stroke-dasharray:none;stroke-opacity:1" />
  <path
     d="M 106,182 L 100,182 L 100,184 L 92,184 L 92,182 L 86,182 C 86,182 85,183 84,183 C 84,184 83,186 83,186 L 83,240 C 83,240 83,241 83,241 C 84,242 85,242 85,242 L 93,242 L 93,244 L 100,244 L 100,242 L 134,242 L 134,183 L 108,183 L 107,183 L 106,182 z"
     id="path5171"
     style="fill:url(#linearGradient3331);fill-opacity:1;fill-rule:evenodd;stroke:#c0a000;stroke-width:1;stroke-linecap:butt;stroke-linejoin:miter;stroke-miterlimit:4;stroke-dasharray:none;stroke-opacity:1" />
  <path
     d="M 87,199 L 114,199 L 114,219 L 87,219 L 87,199 z"
     id="path5175"
     style="fill:#ffffff;fill-opacity:1;fill-rule:nonzero;stroke:#c0a000;stroke-width:1;stroke-linecap:butt;stroke-linejoin:miter;stroke-miterlimit:4;stroke-dasharray:none;stroke-opacity:1" />
  <polygon
     points="10,6 31,6 43,18 43,48 10,48 10,6 "
     transform="matrix(0.375,0,0,0.375,114.10977,197.40724)"
     id="polygon5183"
     style="fill:#ffffff;stroke:#010101;stroke-width:2;stroke-miterlimit:4;stroke-dasharray:none" />
  <polyline
     style="fill:none;stroke:#010101;stroke-width:2;stroke-miterlimit:4;stroke-dasharray:none"
     points="43,18 31,18 31,6    "
     id="polyline5185"
     transform="matrix(0.375,0,0,0.375,114.10977,197.40724)" />
  <line
     style="fill:none;stroke:#010101;stroke-width:1;stroke-miterlimit:4;stroke-dasharray:none;display:inline"
     display="inline"
     x1="120"
     x2="127"
     y1="207"
     y2="207"
     id="line5187" />
  <line
     style="fill:none;stroke:#010101;stroke-width:1;stroke-miterlimit:4;stroke-dasharray:none;display:inline"
     display="inline"
     x1="120"
     x2="127"
     y1="209.5"
     y2="209.5"
     id="line5189" />
  <line
     style="fill:none;stroke:#010101;stroke-width:1;stroke-miterlimit:4;stroke-dasharray:none;display:inline"
     display="inline"
     x1="120"
     x2="127"
     y1="212"
     y2="212"
     id="line5191" />
  <path
     d="M 87,220 L 114,220 L 114,240 L 87,240 L 87,220 z"
     id="path2425"
     style="fill:#ffffff;fill-opacity:1;fill-rule:nonzero;stroke:#c0a000;stroke-width:1;stroke-linecap:butt;stroke-linejoin:miter;stroke-miterlimit:4;stroke-dasharray:none;stroke-opacity:1" />
  <polygon
     points="10,6 31,6 43,18 43,48 10,48 10,6 "
     transform="matrix(0.375,0,0,0.375,113.96295,219.10807)"
     id="polygon2433"
     style="fill:#ffffff;stroke:#010101;stroke-width:2;stroke-miterlimit:4;stroke-dasharray:none" />
  <polyline
     style="fill:none;stroke:#010101;stroke-width:2;stroke-miterlimit:4;stroke-dasharray:none"
     points="43,18 31,18 31,6    "
     id="polyline2435"
     transform="matrix(0.375,0,0,0.375,113.96295,219.10807)" />
  <line
     style="fill:none;stroke:#010101;stroke-width:1;stroke-miterlimit:4;stroke-dasharray:none;display:inline"
     display="inline"
     x1="120"
     x2="127"
     y1="228"
     y2="228"
     id="line2437" />
  <line
     style="fill:none;stroke:#010101;stroke-width:1;stroke-miterlimit:4;stroke-dasharray:none;display:inline"
     display="inline"
     x1="120"
     x2="127"
     y1="231"
     y2="231"
     id="line2439" />
  <line
     style="fill:none;stroke:#010101;stroke-width:1;stroke-miterlimit:4;stroke-dasharray:none;display:inline"
     display="inline"
     x1="120"
     x2="127"
     y1="234"
     y2="234"
     id="line2441" />
  <path
     d="M 99,251 L 94,251 L 94,253 L 85,253 L 85,251 L 79,251 C 79,251 78,252 77,253 C 77,253 76,255 76,255 L 76,309 C 76,309 76,310 77,311 C 77,311 78,311 78,311 L 86,311 L 86,313 L 93,313 L 93,311 L 140,311 L 140,253 L 101,253 L 101,252 L 99,251 z"
     id="path5376"
     style="fill:url(#linearGradient3323);fill-opacity:1;fill-rule:evenodd;stroke:#c0a000;stroke-width:1;stroke-linecap:butt;stroke-linejoin:miter;stroke-miterlimit:4;stroke-dasharray:none;stroke-opacity:1" />
  <path
     d="M 80,268 L 107,268 L 107,288 L 80,288 L 80,268 z"
     id="path5380"
     style="fill:#ffffff;fill-opacity:1;fill-rule:nonzero;stroke:#c0a000;stroke-width:1;stroke-linecap:butt;stroke-linejoin:miter;stroke-miterlimit:4;stroke-dasharray:none;stroke-opacity:1" />
  <path
     d="M 110,268 L 137,268 L 137,288 L 110,288 L 110,268 z"
     id="path5382"
     style="fill:#ffffff;fill-opacity:1;fill-rule:nonzero;stroke:#c0a000;stroke-width:1;stroke-linecap:butt;stroke-linejoin:miter;stroke-miterlimit:4;stroke-dasharray:none;stroke-opacity:1" />
  <path
     d="M 80,290 L 107,290 L 107,309 L 80,309 L 80,290 z"
     id="path2410"
     style="fill:#ffffff;fill-opacity:1;fill-rule:nonzero;stroke:#c0a000;stroke-width:1;stroke-linecap:butt;stroke-linejoin:miter;stroke-miterlimit:4;stroke-dasharray:none;stroke-opacity:1" />
  <path
     d="M 110,290 L 137,290 L 137,309 L 110,309 L 110,290 z"
     id="path2412"
     style="fill:#ffffff;fill-opacity:1;fill-rule:nonzero;stroke:#c0a000;stroke-width:1;stroke-linecap:butt;stroke-linejoin:miter;stroke-miterlimit:4;stroke-dasharray:none;stroke-opacity:1" />
  <path
     d="M 106,321 L 100,321 L 100,323 L 92,323 L 92,321 L 86,321 C 86,321 85,322 84,323 C 84,323 83,325 83,325 L 83,359 C 83,359 83,360 83,361 C 84,361 85,362 85,362 L 93,362 L 93,363 L 100,363 L 100,362 L 134,362 L 134,323 L 108,323 L 107,322 L 106,321 z"
     id="path3036"
     style="fill:url(#linearGradient3315);fill-opacity:1;fill-rule:evenodd;stroke:#c0a000;stroke-width:1;stroke-linecap:butt;stroke-linejoin:miter;stroke-miterlimit:4;stroke-dasharray:none;stroke-opacity:1" />
  <path
     d="M 87,338 L 114,338 L 114,358 L 87,358 L 87,338 z"
     id="path3040"
     style="fill:#ffffff;fill-opacity:1;fill-rule:nonzero;stroke:#c0a000;stroke-width:1;stroke-linecap:butt;stroke-linejoin:miter;stroke-miterlimit:4;stroke-dasharray:none;stroke-opacity:1" />
  <path
     d="M 87,187 L 89,187 L 89,188 L 91,188 L 91,187 L 122,187 L 122,194 L 91,194 L 91,192 L 89,192 L 89,194 L 87,194 L 87,187 z"
     id="path9"
     style="fill:#ffffff;fill-opacity:1;stroke:#c0a000;stroke-width:1;stroke-miterlimit:4;stroke-dasharray:none;stroke-opacity:1" />
  <path
     d="M 17,385 L 19,385 L 19,387 L 21,387 L 21,385 L 52,385 L 52,392 L 21,392 L 21,391 L 19,391 L 19,392 L 17,392 L 17,385 z"
     id="path3323"
     style="fill:#ffffff;fill-opacity:1;stroke:#c0a000;stroke-width:1;stroke-miterlimit:4;stroke-dasharray:none;stroke-opacity:1" />
  <path
     d="M 17,376 L 19,376 L 19,377 L 21,377 L 21,376 L 52,376 L 52,382 L 21,382 L 21,381 L 19,381 L 19,382 L 17,382 L 17,376 z"
     id="path3325"
     style="fill:#ffffff;fill-opacity:1;stroke:#c0a000;stroke-width:1;stroke-miterlimit:4;stroke-dasharray:none;stroke-opacity:1" />
  <path
     d="M 17,366 L 19,366 L 19,367 L 21,367 L 21,366 L 52,366 L 52,372 L 21,372 L 21,371 L 19,371 L 19,372 L 17,372 L 17,366 z"
     id="path3327"
     style="fill:#ffffff;fill-opacity:1;stroke:#c0a000;stroke-width:1;stroke-miterlimit:4;stroke-dasharray:none;stroke-opacity:1" />
  <path
     d="M 17,356 L 19,356 L 19,357 L 21,357 L 21,356 L 52,356 L 52,363 L 21,363 L 21,361 L 19,361 L 19,363 L 17,363 L 17,356 z"
     id="path3329"
     style="fill:#ffffff;fill-opacity:1;stroke:#c0a000;stroke-width:1;stroke-miterlimit:4;stroke-dasharray:none;stroke-opacity:1" />
  <path
     d="M 17,336 L 19,336 L 19,338 L 21,338 L 21,336 L 52,336 L 52,343 L 21,343 L 21,342 L 19,342 L 19,343 L 17,343 L 17,336 z"
     id="path3331"
     style="fill:#ffffff;fill-opacity:1;stroke:#c0a000;stroke-width:1;stroke-miterlimit:4;stroke-dasharray:none;stroke-opacity:1" />
  <path
     d="M 8,257 L 10,257 L 10,258 L 12,258 L 12,257 L 43,257 L 43,264 L 12,264 L 12,262 L 10,262 L 10,264 L 8,264 L 8,257 z"
     id="path3333"
     style="fill:#ffffff;fill-opacity:1;stroke:#c0a000;stroke-width:1;stroke-miterlimit:4;stroke-dasharray:none;stroke-opacity:1" />
  <path
     d="M 15,187 L 17,187 L 17,188 L 19,188 L 19,187 L 50,187 L 50,194 L 19,194 L 19,192 L 17,192 L 17,194 L 15,194 L 15,187 z"
     id="path3335"
     style="fill:#ffffff;fill-opacity:1;stroke:#c0a000;stroke-width:1;stroke-miterlimit:4;stroke-dasharray:none;stroke-opacity:1" />
  <path
     d="M 80,257 L 82,257 L 82,258 L 84,258 L 84,257 L 115,257 L 115,264 L 84,264 L 84,262 L 82,262 L 82,264 L 80,264 L 80,257 z"
     id="path3337"
     style="fill:#ffffff;fill-opacity:1;stroke:#c0a000;stroke-width:1;stroke-miterlimit:4;stroke-dasharray:none;stroke-opacity:1" />
  <path
     d="M 17,327 L 19,327 L 19,328 L 21,328 L 21,327 L 52,327 L 52,333 L 21,333 L 21,332 L 19,332 L 19,333 L 17,333 L 17,327 z"
     id="path3339"
     style="fill:#ffffff;fill-opacity:1;stroke:#c0a000;stroke-width:1;stroke-miterlimit:4;stroke-dasharray:none;stroke-opacity:1" />
  <path
     d="M 17,395 L 19,395 L 19,396 L 21,396 L 21,395 L 52,395 L 52,402 L 21,402 L 21,400 L 19,400 L 19,402 L 17,402 L 17,395 z"
     id="path3341"
     style="fill:#ffffff;fill-opacity:1;stroke:#c0a000;stroke-width:1;stroke-miterlimit:4;stroke-dasharray:none;stroke-opacity:1" />
  <path
     d="M 17,346 L 19,346 L 19,348 L 21,348 L 21,346 L 52,346 L 52,353 L 21,353 L 21,352 L 19,352 L 19,353 L 17,353 L 17,346 z"
     id="path3343"
     style="fill:#ffffff;fill-opacity:1;stroke:#c0a000;stroke-width:1;stroke-miterlimit:4;stroke-dasharray:none;stroke-opacity:1" />
  <path
     d="M 87,327 L 88,327 L 88,328 L 91,328 L 91,327 L 121,327 L 121,334 L 91,334 L 91,332 L 88,332 L 88,334 L 87,334 L 87,327 z"
     id="path3345"
     style="fill:#ffffff;fill-opacity:1;stroke:#c0a000;stroke-width:1;stroke-miterlimit:4;stroke-dasharray:none;stroke-opacity:1" />
  <path
     d="M 48.060226,36.763001 L 96.939774,36.763001 L 96.939774,71.641849 L 48.060226,71.641849 L 48.060226,36.763001 z"
     id="path2685"
     style="fill:url(#linearGradient3338);fill-opacity:1;fill-rule:nonzero;stroke:#c0a000;stroke-width:1.33340001;stroke-linecap:butt;stroke-linejoin:miter;stroke-miterlimit:4;stroke-dasharray:none;stroke-opacity:1" />
  <path
     d="M 82.12025,62.556689 C 82.12025,63.812189 81.35625,64.722189 79.95425,64.722189 L 65.22575,64.722189 L 65.22575,43.222189 L 79.95475,43.222189 C 81.02975,43.222189 82.12075,44.299189 82.12075,45.387189 L 82.12025,62.556689 L 82.12025,62.556689 z"
     id="path3155"
     style="fill:#ffffff;stroke:#000000;stroke-width:2;stroke-linecap:round;stroke-linejoin:round;stroke-miterlimit:4;stroke-dasharray:none;stroke-opacity:1" />
  <line
     style="fill:none;stroke:#000000;stroke-width:2;stroke-linecap:round;stroke-linejoin:round;stroke-miterlimit:4;stroke-dasharray:none;stroke-opacity:1"
     x1="69.85775"
     x2="69.85775"
     y1="43.282688"
     y2="64.662689"
     id="line3157" />
  <path
     d="M 62.87925,47.454189 C 62.87925,47.454189 63.92125,47.801689 64.96425,47.801689 C 66.00725,47.801689 67.05075,47.454189 67.05075,47.454189"
     id="path3159"
     style="fill:none;stroke:#000000;stroke-width:2;stroke-linecap:round;stroke-linejoin:round;stroke-miterlimit:4;stroke-dasharray:none;stroke-opacity:1" />
  <path
     d="M 62.87925,54.232689 C 62.87925,54.232689 63.83525,54.580189 65.05175,54.580189 C 66.26825,54.580189 67.05125,54.232689 67.05125,54.232689"
     id="path3161"
     style="fill:none;stroke:#000000;stroke-width:2;stroke-linecap:round;stroke-linejoin:round;stroke-miterlimit:4;stroke-dasharray:none;stroke-opacity:1" />
  <path
     d="M 62.87925,60.838189 C 62.87925,60.838189 63.74725,61.185689 65.13825,61.185689 C 66.52875,61.185689 67.05075,60.838189 67.05075,60.838189"
     id="path3163"
     style="fill:none;stroke:#000000;stroke-width:2;stroke-linecap:round;stroke-linejoin:round;stroke-miterlimit:4;stroke-dasharray:none;stroke-opacity:1" />
  <path
     d="M 47.939255,128.58707 L 97.060745,128.58707 L 97.060745,163.63855 L 47.939255,163.63855 L 47.939255,128.58707 z"
     id="path2608"
     style="fill:url(#linearGradient3388);fill-opacity:1;fill-rule:nonzero;stroke:#c0a000;stroke-width:1.34000003;stroke-linecap:butt;stroke-linejoin:miter;stroke-miterlimit:4;stroke-dasharray:none;stroke-opacity:1" />
  <path
     d="M 62.115,160.18281 L 62.115,132.04281 L 76.185,132.04281 L 82.885,139.41281 L 82.885,160.18281 L 62.115,160.18281 z"
     id="path3199"
     style="fill:#ffffff;fill-opacity:1;fill-rule:evenodd;stroke:#00000f;stroke-width:2.34500003;stroke-linecap:butt;stroke-linejoin:miter;stroke-miterlimit:4;stroke-dasharray:none;stroke-opacity:0.94117647" />
  <path
     d="M 67.6425,148.79281 C 77.3575,148.79281 77.3575,148.79281 77.3575,148.79281"
     id="path2611"
     style="fill:none;fill-rule:evenodd;stroke:#000000;stroke-width:2.34499979;stroke-linecap:square;stroke-linejoin:miter;stroke-miterlimit:4;stroke-dasharray:none;stroke-opacity:1" />
  <path
     d="M 67.6425,152.81281 C 77.3575,152.81281 77.3575,152.81281 77.3575,152.81281"
     id="path3165"
     style="fill:none;fill-rule:evenodd;stroke:#000000;stroke-width:2.34499979;stroke-linecap:square;stroke-linejoin:miter;stroke-miterlimit:4;stroke-dasharray:none;stroke-opacity:1" />
  <path
     d="M 67.6425,144.77281 C 77.3575,144.77281 77.3575,144.77281 77.3575,144.77281"
     id="path3167"
     style="fill:none;fill-rule:evenodd;stroke:#000000;stroke-width:2.34499979;stroke-linecap:square;stroke-linejoin:miter;stroke-miterlimit:4;stroke-dasharray:none;stroke-opacity:1" />
  <path
     d="M 75.3475,132.54531 L 75.3475,139.41281 L 81.7125,139.41281"
     id="path2615"
     style="fill:none;fill-rule:evenodd;stroke:#000000;stroke-width:2.34500003;stroke-linecap:butt;stroke-linejoin:miter;stroke-miterlimit:4;stroke-dasharray:none;stroke-opacity:1" />
  <path
     d="M 48.004895,81.702594 L 96.995105,81.702594 L 96.995105,116.70301 L 48.004895,116.70301 L 48.004895,81.702594 z"
     id="path2688"
     style="fill:url(#linearGradient3372);fill-opacity:1;fill-rule:nonzero;stroke:#c0a000;stroke-width:1.17957962;stroke-linecap:butt;stroke-linejoin:miter;stroke-miterlimit:4;stroke-dasharray:none;stroke-opacity:1" />
  <g
     transform="matrix(0.67,0,0,0.67,54.118645,80.777134)"
     id="g2758"
     style="display:inline">
    <g
       id="g2760">
      <polygon
         points="10.932,6.088 31.874,6.088 43.818,18.027 43.818,48.914 10.932,48.914 10.932,6.088 "
         id="polygon2762"
         style="fill:#ffffff;stroke:#010101;stroke-width:3.5" />
      <polyline
         style="fill:none;stroke:#010101;stroke-width:3.5"
         points="43.818,18.027 31.874,18.027 31.874,6.088    "
         id="polyline2764" />
    </g>
  </g>
  <path
     d="M 73.096395,107.37412 C 72.754025,106.39793 70.945695,106.65521 70.141695,107.32722 C 68.533695,108.67325 69.857615,110.27254 71.698775,109.52281 C 72.746655,109.09535 73.438095,108.35165 73.096395,107.37412 z"
     id="path2766"
     style="fill:#010101;stroke:#010101;stroke-width:2.34500003;display:inline" />
  <line
     style="fill:none;stroke:#010101;stroke-width:1.50750005;display:inline"
     display="inline"
     x1="73.509117"
     x2="73.509117"
     y1="107.44715"
     y2="98.845024"
     id="line2768" />
  <polygon
     points="35.047,25.036 27.838,28.595 27.838,24.728 35.047,21.166 35.047,25.036 "
     transform="matrix(0.67,0,0,0.67,54.118645,80.777134)"
     id="polygon2770"
     style="fill:#010101;display:inline" />
</svg>
