<?xml version="1.0" encoding="UTF-8" standalone="no"?>]
<!-- Created with Inkscape (http://www.inkscape.org/) -->]
<svg]
   xmlns:svg="http://www.w3.org/2000/svg"]
   xmlns="http://www.w3.org/2000/svg"]
   xmlns:xlink="http://www.w3.org/1999/xlink"]
   version="1.0"]
   width="142"]
   height="60"]
   id="svg2">]
  <defs]
     id="defs4">]
    <linearGradient]
       id="linearGradient3166">]
      <stop]
         id="stop3168"]
         style="stop-color:#ffffff;stop-opacity:1"]
         offset="0" />]
      <stop]
         id="stop3170"]
         style="stop-color:#ffff00;stop-opacity:1"]
         offset="1" />]
    </linearGradient>]
    <linearGradient]
       x1="0"]
       y1="22"]
       x2="128"]
       y2="22"]
       id="linearGradient3172"]
       xlink:href="#linearGradient3166"]
       gradientUnits="userSpaceOnUse" />]
  </defs>]
  <g]
     transform="translate(60,54)"]
    <path]
       d="M 64.871323,-38.92647 L 81.371323,-38.92647 L 81.371323,-32.92647 L 77.371323,-32.92647 L 77.371323,-35.92647 L 66.871323,-35.92647"]
       style="fill:#e0e000;fill-opacity:1;stroke:#a08000;stroke-width:1.5;stroke-opacity:1" />]
    <path]
       d="M 64.871323,-11.42647 L 81.371323,-11.42647 L 81.371323,-17.42647 L 77.371323,-17.42647 L 77.371323,-14.42647 L 66.871323,-14.42647"]
       style="fill:#e0e000;fill-opacity:1;stroke:#908000;stroke-width:1.5;stroke-opacity:1" />]
  </g>]
  <path]
     d="M 47,1 C 63,1 120,1 120,1 C 120,1 124.1318,3.4865526 125.5,5 C 126.89747,6.5458243 129,11 129,11 L 129,46 C 129,46 126.78295,49.693654 125.5,51 C 124.07044,52.455629 120,55 120,55 L 47,55 L 47,55 L 47,59 L 27,59 L 27,55 L 10,55 C 10,55 5.9295605,52.455629 4.5,51 C 3.2170498,49.693654 1,46 1,46 L 1,11 C 1,11 3.1025283,6.5458243 4.5,5 C 5.8682021,3.4865526 10,1 10,1 L 27,1 L 27,6 L 47,6 L 47,1 z"]
     style="fill:url(#linearGradient3172);fill-opacity:1;stroke:#c0a000;stroke-width:2;stroke-opacity:1" />]
  <path]
     d="M 13,28 L 18,28 L 18,32 L 24.999999,32 L 24.999999,28 L 116.50001,28 L 116.50001,48 L 24.999999,48 L 24.999999,44 L 18,44 L 18,48 L 13,48 L 13,28 z"]
     style="fill:#ffffff;fill-opacity:1;stroke:none;stroke-width:2;stroke-opacity:1" />]
  <text]
     style="font-size:18px;text-align:center;text-anchor:middle;font-family:Bitstream Vera Sans">]
    <tspan]
       x="65"]
       y="24"]
       style="font-size:18px">store in</tspan> 
  </text> 
</svg> 
