<?xml version="1.0" encoding="UTF-8" standalone="no"?> 
 <svg 
    xmlns="http://www.w3.org/2000/svg" 
    xmlns:xlink="http://www.w3.org/1999/xlink" 
    width="87" 
    height="60" 
    version="1.0"> 
   <defs> 
     <linearGradient 
        id="linearGradient3166"> 
       <stop 
          style="stop-color:#ffffff;stop-opacity:1;" 
          offset="0" 
          id="stop3168" /> 
       <stop 
          style="stop-color:#ffff00;stop-opacity:1;" 
          offset="1" 
          id="stop3170" /> 
     </linearGradient> 
     <linearGradient 
        xlink:href="#linearGradient3166" 
        id="linearGradient3172" 
        x1="0" 
        y1="22" 
        x2="74" 
        y2="22" 
        gradientUnits="userSpaceOnUse" /> 
   </defs> 
   <g 
      transform="translate(0,8.75)"> 
     <path 
        d="M 70,6 L 86.5,6 L 86.5,12 L 82.5,12 L 82.5,9 L 72,9" 
        style="fill:#f0e000;fill-opacity:1;stroke:#a08000;stroke-width:1.5;stroke-opacity:1" /> 
     <path 
        d="M 70,33.5 L 86.5,33.5 L 86.5,27.5 L 82.5,27.5 L 82.5,30.5 L 72,30.5" 
        style="fill:#f0e000;fill-opacity:1;stroke:#a08000;stroke-width:1.5;stroke-opacity:1" /> 
   </g> 
   <path 
      style="fill:url(#linearGradient3172);fill-opacity:1;stroke:#c0a000;stroke-width:2;stroke-opacity:1" 
      d="M 48,1 C 64,1 64,1 64,1 L 69.5,5 L 73,11 L 73,45 L 69.5,51 L 64,55 L 47,55 L 47,55 L 47,59 L 27,59 L 27,55 L 10,55 L 4.5,51 L 1,45 L 1,11 L 4.5,5 L 10,1 L 26,1 L 26,6 L 48,6 L 48,1 z" /> 
   <text 
        style="font-size:18px;text-anchor:middle;text-align:center;font-family:Bitstream Vera Sans"> 
     <tspan 
        x="37" 
        y="22" 
        style="font-size:16px;">store</tspan> 
   </text> 
   <text 
        style="font-size:18px;text-anchor:middle;text-align:center;font-family:Bitstream Vera Sans"> 
     <tspan 
        x="37" 
        y="35" 
        style="font-size:16px;">in</tspan> 
   </text> 
   <text 
        style="font-size:18px;text-anchor:middle;text-align:center;font-family:Bitstream Vera Sans"> 
     <tspan 
        x="37" 
        y="48" 
        style="font-size:16px;">box 1</tspan> 
   </text> 
 </svg> 
