<?xml version="1.0" encoding="UTF-8" standalone="no"?>
<!-- Created with Inkscape (http://www.inkscape.org/) -->
<svg
   xmlns:svg="http://www.w3.org/2000/svg"
   xmlns="http://www.w3.org/2000/svg"
   xmlns:xlink="http://www.w3.org/1999/xlink"
   version="1.0"
   width="273"
   height="548"
   id="svg2">
  <defs
     id="defs4">
    <linearGradient
       id="linearGradient3166">
      <stop
         id="stop3168"
         style="stop-color:#ffffff;stop-opacity:1"
         offset="0" />
      <stop
         id="stop3170"
         style="stop-color:#feb00a;stop-opacity:1"
         offset="1" />
    </linearGradient>
    <linearGradient
       x1="0"
       y1="22"
       x2="74"
       y2="22"
       id="linearGradient3172"
       xlink:href="#linearGradient3166"
       gradientUnits="userSpaceOnUse"
       gradientTransform="translate(-0.5022005,9.2089928)" />
    <linearGradient
       x1="0"
       y1="22"
       x2="74"
       y2="22"
       id="linearGradient2412"
       xlink:href="#linearGradient3166"
       gradientUnits="userSpaceOnUse"
       gradientTransform="translate(-0.5022005,509.20899)" />
    <linearGradient
       x1="0"
       y1="22"
       x2="74"
       y2="22"
       id="linearGradient2570"
       xlink:href="#linearGradient3166"
       gradientUnits="userSpaceOnUse" />
    <linearGradient
       id="linearGradient2564">
      <stop
         id="stop2566"
         style="stop-color:#ffffff;stop-opacity:1"
         offset="0" />
      <stop
         id="stop2568"
         style="stop-color:#feb00a;stop-opacity:1"
         offset="1" />
    </linearGradient>
    <linearGradient
       x1="0"
       y1="22"
       x2="74"
       y2="22"
       id="linearGradient2582"
       xlink:href="#linearGradient3166"
       gradientUnits="userSpaceOnUse"
       gradientTransform="translate(-98.5022,-131.04573)" />
  </defs>
  <path
     d="M 49,510 C 65,510 63.5,510 63.5,510 C 63.5,510 66.601442,510.91126 67.599776,511.73555 C 68.513039,512.4896 70,515 70,515 L 181,515 L 181,1 L 272,1 L 272,12 L 268.5,12 C 268.5,12 266.50364,9.82113 265.476,9 C 264.26461,8.03205 261,7 261,7 L 245,7 L 245,12 L 226,12 L 226,7 L 207,7 C 207,7 202.23277,10.25013 201,11.5 C 199.51984,13.00068 198,17 198,17 L 198,547 L 11,547 C 11,547 5.7858998,545.47623 4.2145276,544.0942 C 2.5042859,542.59005 1,538 1,538 L 1,518.53676 C 1,518.53676 3.0412395,514.40933 4.2068283,513.26836 C 5.6647982,511.84119 10,510 10,510 L 26,510 L 26,515 L 49,515 L 49,510 z"
     id="path10"
     style="fill:url(#linearGradient2412);fill-opacity:1;stroke:#a97513;stroke-width:2;stroke-opacity:1" />
  <g
     transform="translate(98.911995,648.09672)"
     id="g2586">
    <rect
       width="17.823999"
       height="14.06"
       x="-69.911995"
       y="-120.15672"
       id="rect2483"
       style="fill:#666666" />
    <path
       d="M -65.986,-120.15672 L -65.986,-123.79372 C -65.986,-126.48572 -63.806,-128.66272 -61.118,-128.66272 C -58.43,-128.66272 -56.251,-126.48172 -56.251,-123.79372 L -56.251,-120.15672"
       id="path2485"
       style="fill:none;stroke:#666666;stroke-width:3.5" />
  </g>
</svg>
