<?xml version="1.0" encoding="UTF-8" standalone="no"?>
<!-- Created with Inkscape (http://www.inkscape.org/) -->

<svg
   xmlns:svg="http://www.w3.org/2000/svg"
   xmlns="http://www.w3.org/2000/svg"
   xmlns:xlink="http://www.w3.org/1999/xlink"
   version="1.0"
   width="145"
   height="500"
   id="svg2">
  <defs
     id="defs92">
    <linearGradient
       id="linearGradient3239">
      <stop
         id="stop3241"
         style="stop-color:#ffffff;stop-opacity:1"
         offset="0" />
      <stop
         id="stop3243"
         style="stop-color:#ffff00;stop-opacity:1"
         offset="1" />
    </linearGradient>
    <linearGradient
       x1="47.499626"
       y1="46.558704"
       x2="97.500374"
       y2="46.558704"
       id="linearGradient3245"
       xlink:href="#linearGradient3239"
       gradientUnits="userSpaceOnUse"
       gradientTransform="translate(0,4.441294)" />
    <linearGradient
       x1="3.8948069"
       y1="74.402542"
       x2="70.231407"
       y2="74.402542"
       id="linearGradient3253"
       xlink:href="#linearGradient3239"
       gradientUnits="userSpaceOnUse"
       gradientTransform="translate(0,17.83573)" />
    <linearGradient
       x1="81.979385"
       y1="74.402542"
       x2="130.98178"
       y2="74.402542"
       id="linearGradient3261"
       xlink:href="#linearGradient3239"
       gradientUnits="userSpaceOnUse"
       gradientTransform="translate(0,17.83573)" />
    <linearGradient
       x1="3.8948069"
       y1="115.66337"
       x2="70.231407"
       y2="115.66337"
       id="linearGradient3269"
       xlink:href="#linearGradient3239"
       gradientUnits="userSpaceOnUse"
       gradientTransform="translate(0,17.83573)" />
    <linearGradient
       x1="81.979385"
       y1="115.66337"
       x2="130.98178"
       y2="115.66337"
       id="linearGradient3277"
       xlink:href="#linearGradient3239"
       gradientUnits="userSpaceOnUse"
       gradientTransform="translate(0,17.83573)" />
    <linearGradient
       x1="35.25"
       y1="145.67612"
       x2="109.75"
       y2="145.67612"
       id="linearGradient3285"
       xlink:href="#linearGradient3239"
       gradientUnits="userSpaceOnUse"
       gradientTransform="translate(0,41.9838)" />
    <linearGradient
       x1="40"
       y1="180.0162"
       x2="105"
       y2="180.0162"
       id="linearGradient3293"
       xlink:href="#linearGradient3239"
       gradientUnits="userSpaceOnUse"
       gradientTransform="translate(0,41.9838)" />
    <linearGradient
       x1="7.6595821"
       y1="226.22649"
       x2="56.661983"
       y2="226.22649"
       id="linearGradient3301"
       xlink:href="#linearGradient3239"
       gradientUnits="userSpaceOnUse"
       gradientTransform="translate(0,64.88299)" />
    <linearGradient
       x1="70.022545"
       y1="226.22649"
       x2="140.026"
       y2="226.22649"
       id="linearGradient3309"
       xlink:href="#linearGradient3239"
       gradientUnits="userSpaceOnUse"
       gradientTransform="translate(0,64.88299)" />
    <linearGradient
       x1="7.6595821"
       y1="272.65366"
       x2="56.661983"
       y2="272.65366"
       id="linearGradient3317"
       xlink:href="#linearGradient3239"
       gradientUnits="userSpaceOnUse"
       gradientTransform="translate(0,64.88299)" />
    <linearGradient
       x1="70.022545"
       y1="272.65366"
       x2="140.026"
       y2="272.65366"
       id="linearGradient3325"
       xlink:href="#linearGradient3239"
       gradientUnits="userSpaceOnUse"
       gradientTransform="translate(0,64.88299)" />
    <linearGradient
       x1="37.0625"
       y1="311.59515"
       x2="102.0625"
       y2="311.59515"
       id="linearGradient3333"
       xlink:href="#linearGradient3239"
       gradientUnits="userSpaceOnUse"
       gradientTransform="translate(0,64.88299)" />
    <linearGradient
       x1="36.24942"
       y1="341.4375"
       x2="100.37442"
       y2="341.4375"
       id="linearGradient3341"
       xlink:href="#linearGradient3239"
       gradientUnits="userSpaceOnUse"
       gradientTransform="translate(0,64.88299)" />
    <linearGradient
       x1="37.495003"
       y1="367.91702"
       x2="107.84001"
       y2="367.91702"
       id="linearGradient3349"
       xlink:href="#linearGradient3239"
       gradientUnits="userSpaceOnUse"
       gradientTransform="translate(0,64.88299)" />
    <linearGradient
       x1="9.8133535"
       y1="399.42288"
       x2="67.875931"
       y2="399.42288"
       id="linearGradient3357"
       xlink:href="#linearGradient3239"
       gradientUnits="userSpaceOnUse" />
    <linearGradient
       x1="9.8133535"
       y1="399.42288"
       x2="67.875931"
       y2="399.42288"
       id="linearGradient3359"
       xlink:href="#linearGradient3239"
       gradientUnits="userSpaceOnUse" />
    <linearGradient
       x1="9.8133535"
       y1="399.42288"
       x2="67.875931"
       y2="399.42288"
       id="linearGradient3361"
       xlink:href="#linearGradient3239"
       gradientUnits="userSpaceOnUse" />
    <linearGradient
       x1="9.8133535"
       y1="399.42288"
       x2="67.875931"
       y2="399.42288"
       id="linearGradient3363"
       xlink:href="#linearGradient3239"
       gradientUnits="userSpaceOnUse" />
    <linearGradient
       x1="9.8133535"
       y1="399.42288"
       x2="67.875931"
       y2="399.42288"
       id="linearGradient3365"
       xlink:href="#linearGradient3239"
       gradientUnits="userSpaceOnUse" />
    <linearGradient
       x1="9.8133535"
       y1="399.42288"
       x2="67.875931"
       y2="399.42288"
       id="linearGradient3367"
       xlink:href="#linearGradient3239"
       gradientUnits="userSpaceOnUse" />
    <linearGradient
       x1="9.8133535"
       y1="399.42288"
       x2="67.875931"
       y2="399.42288"
       id="linearGradient3371"
       xlink:href="#linearGradient3239"
       gradientUnits="userSpaceOnUse"
       gradientTransform="translate(-1.571244,4.74717)" />
    <linearGradient
       x1="9.8133535"
       y1="399.42288"
       x2="67.875931"
       y2="399.42288"
       id="linearGradient3374"
       xlink:href="#linearGradient3239"
       gradientUnits="userSpaceOnUse"
       gradientTransform="translate(-1.571244,4.74717)" />
    <linearGradient
       x1="64.812042"
       y1="396.17004"
       x2="134.81549"
       y2="396.17004"
       id="linearGradient3385"
       xlink:href="#linearGradient3239"
       gradientUnits="userSpaceOnUse" />
    <linearGradient
       x1="64.812042"
       y1="396.17004"
       x2="134.81549"
       y2="396.17004"
       id="linearGradient3387"
       xlink:href="#linearGradient3239"
       gradientUnits="userSpaceOnUse" />
    <linearGradient
       x1="64.812042"
       y1="396.17004"
       x2="134.81549"
       y2="396.17004"
       id="linearGradient3389"
       xlink:href="#linearGradient3239"
       gradientUnits="userSpaceOnUse" />
    <linearGradient
       x1="64.812042"
       y1="396.17004"
       x2="134.81549"
       y2="396.17004"
       id="linearGradient3393"
       xlink:href="#linearGradient3239"
       gradientUnits="userSpaceOnUse"
       gradientTransform="translate(5.210508,8)" />
    <linearGradient
       x1="64.812042"
       y1="396.17004"
       x2="134.81549"
       y2="396.17004"
       id="linearGradient3396"
       xlink:href="#linearGradient3239"
       gradientUnits="userSpaceOnUse"
       gradientTransform="translate(5.210508,8)" />
    <linearGradient
       x1="8.2421103"
       y1="444.33197"
       x2="57.244511"
       y2="444.33197"
       id="linearGradient3404"
       xlink:href="#linearGradient3239"
       gradientUnits="userSpaceOnUse" />
    <linearGradient
       x1="81.979385"
       y1="444.33197"
       x2="130.9818"
       y2="444.33197"
       id="linearGradient3412"
       xlink:href="#linearGradient3239"
       gradientUnits="userSpaceOnUse" />
  </defs>
  <path
     d="m 0.4344301,0.5 -0.0623101,485.91023 3.12385933,6.73274 4.8738597,3.96423 6.661549,2.39568 113.824912,0 6.84848,-2.56422 5.94925,-4.89137 2.72385,-8.25558 L 144.41557,0.5 0.4344301,0.5 z"
     id="path23"
     style="fill:#ffd000;fill-opacity:1;stroke:#e0a000;stroke-width:1px;stroke-opacity:1" />
  <rect
     width="123.5"
     height="0.14"
     x="10.691486"
     y="249.35913"
     id="rect25"
     style="fill:#ffd000;fill-opacity:1;stroke:#e0a000;stroke-width:1;stroke-opacity:1" />
  <rect
     width="123.5"
     height="0.14"
     x="10.691486"
     y="250.49942"
     id="rect27"
     style="fill:#ffd000;fill-opacity:1;stroke:#fff080;stroke-width:1;stroke-opacity:1" />
  <rect
     width="123.5"
     height="0.14"
     x="10.691486"
     y="251.49832"
     id="rect29"
     style="fill:#ffd000;fill-opacity:1;stroke:#ffffc4;stroke-width:1;stroke-opacity:1" />
  <rect
     width="137.5"
     height="0.14"
     x="3.7153397"
     y="-28.931932"
     transform="scale(1,-1)"
     id="rect31"
     style="fill:#ffd000;fill-opacity:1;stroke:#e0a000;stroke-width:1;stroke-opacity:1" />
  <rect
     width="137.5"
     height="0.14"
     x="3.7153397"
     y="-27.815523"
     transform="scale(1,-1)"
     id="rect33"
     style="fill:#ffd000;fill-opacity:1;stroke:#fff080;stroke-width:1;stroke-opacity:1" />
  <rect
     width="137.5"
     height="0.14"
     x="3.7153397"
     y="-468.77127"
     transform="scale(1,-1)"
     id="rect35"
     style="fill:#ffd000;fill-opacity:1;stroke:#e0a000;stroke-width:1;stroke-opacity:1" />
  <rect
     width="137.5"
     height="0.14"
     x="3.7153397"
     y="-467.43195"
     transform="scale(1,-1)"
     id="rect37"
     style="fill:#ffd000;fill-opacity:1;stroke:#fff080;stroke-width:1;stroke-opacity:1" />
  <path
     d="m 79.5,438.375 c 0,4.48731 -3.749615,8.125 -8.375,8.125 -4.625385,0 -8.375,-3.63769 -8.375,-8.125 0,-4.48731 3.749615,-8.125 8.375,-8.125 4.625385,0 8.375,3.63769 8.375,8.125 l 0,0 z"
     transform="translate(1.375,47.250977)"
     id="path39"
     style="fill:#ff4040;fill-opacity:1;stroke:#ff4040;stroke-width:1;stroke-opacity:1" />
  <text
     id="text41"
     style="font-size:12px;font-weight:bold;text-align:center;text-anchor:middle;fill:#ffffff;fill-opacity:1;stroke:none;font-family:Bitstream Vera Sans">
    <tspan
       x="72.5"
       y="490"
       id="tspan46"
       style="font-size:12px">X</tspan>
  </text>
  <text
     id="text48"
     style="font-size:12px;text-align:center;text-anchor:middle;font-family:Bitstream Vera Sans">
    <tspan
       x="72.5"
       y="21"
       id="tspan47"
       style="font-size:20px">Omat Blokit</tspan>
  </text>
  <path
     d="m 69.731407,92.23827 0,0 -26.0013,15.3341 0,0 0,2.6668 -13.334,0 0,-2.6668 c 0,0 -26.0013002,-15.3341 -26.0013002,-15.3341 0,0 32.6683002,-18.0009 32.6683002,-18.0009 0,0 32.6683,18.0009 32.6683,18.0009 z"
     id="path49"
     style="fill:url(#linearGradient3253);fill-opacity:1;stroke:#c0a000;stroke-width:1;stroke-opacity:1" />
  <text
     id="text52"
     style="font-size:12px;text-align:center;text-anchor:middle;font-family:Bitstream Vera Sans">
    <tspan
       x="37"
       y="96"
       id="tspan53"
       style="font-size:11px">pino 1</tspan>
  </text>
  <path
     d="m 113.81428,78.23757 c 10.6672,0 10.6672,0 10.6672,0 0,0 2.75467,1.657785 3.66685,2.6668 0.9317,1.030601 2.33345,4.0002 2.33345,4.0002 l 0,12.6673 c 0,0 -1.4781,2.46256 -2.33345,3.3335 -0.95308,0.97047 -3.66685,2.6668 -3.66685,2.6668 l -11.3339,0 0,0 0,2.6668 -13.333997,0 0,-2.6668 -11.3339,0 c 0,0 -2.713762,-1.69633 -3.66685,-2.6668 -0.855343,-0.87094 -2.33345,-3.3335 -2.33345,-3.3335 l 0,-12.6673 c 0,0 1.401756,-2.969599 2.33345,-4.0002 0.91218,-1.009015 3.66685,-2.6668 3.66685,-2.6668 l 10.6672,0 0,3.3335 14.667397,0 0,-3.3335 z"
     id="path55"
     style="fill:url(#linearGradient3261);fill-opacity:1;stroke:#c0a000;stroke-width:1;stroke-opacity:1" />
  <text
     id="text56"
     style="font-size:12px;text-align:center;text-anchor:middle;font-family:Bitstream Vera Sans">
    <tspan
       x="107"
       y="94"
       id="tspan59"
       style="font-size:11px">pino 1</tspan>
  </text>
  <path
     d="m 69.731407,133.4991 0,0 -26.0013,15.3341 0,0 0,2.6668 -13.334,0 0,-2.6668 c 0,0 -26.0013002,-15.3341 -26.0013002,-15.3341 0,0 32.6683002,-18.0009 32.6683002,-18.0009 0,0 32.6683,18.0009 32.6683,18.0009 z"
     id="path61"
     style="fill:url(#linearGradient3269);fill-opacity:1;stroke:#c0a000;stroke-width:1;stroke-opacity:1" />
  <text
     id="text60"
     style="font-size:12px;text-align:center;text-anchor:middle;font-family:Bitstream Vera Sans">
    <tspan
       x="37"
       y="137"
       id="tspan65"
       style="font-size:11px">pino 2</tspan>
  </text>
  <path
     d="m 113.81428,119.4984 c 10.6672,0 10.6672,0 10.6672,0 0,0 2.75467,1.65779 3.66685,2.6668 0.9317,1.0306 2.33345,4.0002 2.33345,4.0002 l 0,12.6673 c 0,0 -1.4781,2.46256 -2.33345,3.3335 -0.95308,0.97047 -3.66685,2.6668 -3.66685,2.6668 l -11.3339,0 0,0 0,2.6668 -13.333997,0 0,-2.6668 -11.3339,0 c 0,0 -2.713762,-1.69633 -3.66685,-2.6668 -0.855343,-0.87094 -2.33345,-3.3335 -2.33345,-3.3335 l 0,-12.6673 c 0,0 1.401756,-2.9696 2.33345,-4.0002 0.91218,-1.00901 3.66685,-2.6668 3.66685,-2.6668 l 10.6672,0 0,3.3335 14.667397,0 0,-3.3335 z"
     id="path67"
     style="fill:url(#linearGradient3277);fill-opacity:1;stroke:#c0a000;stroke-width:1;stroke-opacity:1" />
  <text
     id="text64"
     style="font-size:12px;text-align:center;text-anchor:middle;font-family:Bitstream Vera Sans">
    <tspan
       x="107"
       y="137"
       id="tspan71"
       style="font-size:11px">pino 2</tspan>
  </text>
  <path
     d="m 72.25,169.40992 -36.5,18.25 31.5,16.25 0,2 10,0 0,-2 32,-16.25 -37,-18.25 z"
     id="path6722"
     style="fill:url(#linearGradient3285);fill-opacity:1;stroke:#c0a000;stroke-width:1;stroke-miterlimit:4;stroke-opacity:1;stroke-dasharray:none" />
  <path
     d="m 78,211.5 c 8,0 22,0 22,0 0,0 2.0659,1.24328 2.75,2 0.69873,0.77291 1.75,3 1.75,3 l 0,9.5 c 0,0 -1.10853,1.84683 -1.75,2.5 -0.71478,0.72781 -2.75,2 -2.75,2 l -22.5,0 0,0 0,2 -10,0 0,-2 -22.5,0 c 0,0 -2.03522,-1.27219 -2.75,-2 C 41.608525,227.84683 40.5,226 40.5,226 l 0,-9.5 c 0,0 1.051264,-2.22709 1.75,-3 0.684101,-0.75672 2.75,-2 2.75,-2 l 22,0 0,2.5 11,0 0,-2.5 z"
     id="path10"
     style="fill:url(#linearGradient3293);fill-opacity:1;stroke:#c0a000;stroke-width:1;stroke-miterlimit:4;stroke-opacity:1;stroke-dasharray:none" />
  <path
     d="m 54.161882,280.9423 11.00055,0 0,4.0002 -2.6668,0 0,-2.0001 -7.00035,0"
     id="path87"
     style="fill:#f0e000;fill-opacity:1;stroke:#a08000;stroke-width:1.00004995;stroke-opacity:1" />
  <path
     d="m 54.161882,299.27655 11.00055,0 0,-4.0002 -2.6668,0 0,2.0001 -7.00035,0"
     id="path89"
     style="fill:#f0e000;fill-opacity:1;stroke:#a08000;stroke-width:1.00004995;stroke-opacity:1" />
  <path
     d="m 39.494482,271.77517 c 10.6672,0 10.6672,0 10.6672,0 l 3.66685,2.6668 2.33345,4.0002 0,22.6678 -2.33345,4.0002 -3.66685,2.6668 -11.3339,0 0,0 0,2.6668 -13.334,0 0,-2.6668 -11.3339,0 -3.66685,-2.6668 -2.3334501,-4.0002 0,-22.6678 2.3334501,-4.0002 3.66685,-2.6668 10.6672,0 0,3.3335 14.6674,0 0,-3.3335 z"
     id="path91"
     style="fill:url(#linearGradient3301);fill-opacity:1;stroke:#c0a000;stroke-width:1;stroke-opacity:1" />
  <text
     id="text72"
     style="font-size:12px;text-align:center;text-anchor:middle;font-family:Bitstream Vera Sans">
    <tspan
       x="32"
       y="284"
       id="tspan95"
       style="font-size:10px">tallenna</tspan>
  </text>
  <text
     x="3.7678409"
     transform="scale(0.94293076,1.0605233)"
     id="text75"
     style="font-size:11.31516838px;text-align:center;text-anchor:middle;font-family:Bitstream Vera Sans">
    <tspan
       x="33.941628"
       y="277.22165"
       id="tspan99"
       style="font-size:9.42930794px">laatikkoon</tspan>
  </text>
  <text
     id="text78"
     style="font-size:12px;text-align:center;text-anchor:middle;font-family:Bitstream Vera Sans">
    <tspan
       x="32"
       y="304"
       id="tspan80"
       style="font-size:10px">1</tspan>
  </text>
  <path
     d="m 70.522547,284.44247 3.3335,0 0,2.6668 4.6669,0 0,-2.6668 61.003053,0 0,13.334 -61.003053,0 0,-2.6668 -4.6669,0 0,2.6668 -3.3335,0 0,-13.334 z"
     id="path101"
     style="fill:url(#linearGradient3309);fill-opacity:1;stroke:#c0a000;stroke-width:1;stroke-opacity:1" />
  <text
     x="2"
     id="text83"
     style="font-size:12px;text-align:center;text-anchor:middle;font-family:Bitstream Vera Sans">
    <tspan
       x="108"
       y="294"
       id="tspan105"
       style="font-size:11px">laatikko 1</tspan>
  </text>
  <g
     transform="matrix(0.6667,0,0,0.6667,7.4928819,323.36927)"
     id="g107">
    <path
       d="m 70,6 16.5,0 0,6 -4,0 0,-3 L 72,9"
       id="path109"
       style="fill:#f0e000;fill-opacity:1;stroke:#a08000;stroke-width:1.5;stroke-opacity:1" />
    <path
       d="m 70,33.5 16.5,0 0,-6 -4,0 0,3 -10.5,0"
       id="path111"
       style="fill:#f0e000;fill-opacity:1;stroke:#a08000;stroke-width:1.5;stroke-opacity:1" />
  </g>
  <path
     d="m 39.494482,318.20235 c 10.6672,0 10.6672,0 10.6672,0 l 3.66685,2.6668 2.33345,4.0002 0,22.6678 -2.33345,4.0002 -3.66685,2.6668 -11.3339,0 0,0 0,2.6668 -13.334,0 0,-2.6668 -11.3339,0 -3.66685,-2.6668 -2.3334501,-4.0002 0,-22.6678 2.3334501,-4.0002 3.66685,-2.6668 10.6672,0 0,3.3335 14.6674,0 0,-3.3335 z"
     id="path113"
     style="fill:url(#linearGradient3317);fill-opacity:1;stroke:#c0a000;stroke-width:1;stroke-opacity:1" />
  <text
     id="text90"
     style="font-size:12px;text-align:center;text-anchor:middle;font-family:Bitstream Vera Sans">
    <tspan
       x="32"
       y="330"
       id="tspan117"
       style="font-size:10px">tallenna</tspan>
  </text>
  <text
     x="3.7678409"
     transform="scale(0.94293076,1.0605233)"
     id="text93"
     style="font-size:11.31516838px;text-align:center;text-anchor:middle;font-family:Bitstream Vera Sans">
    <tspan
       x="33.941628"
       y="320.59644"
       id="tspan121"
       style="font-size:9.42930794px">laatikkoon</tspan>
  </text>
  <text
     id="text96"
     style="font-size:12px;text-align:center;text-anchor:middle;font-family:Bitstream Vera Sans">
    <tspan
       x="32"
       y="350"
       id="tspan98"
       style="font-size:10px">2</tspan>
  </text>
  <path
     d="m 70.522547,330.86965 3.3335,0 0,2.6668 4.6669,0 0,-2.6668 61.003053,0 0,13.334 -61.003053,0 0,-2.6668 -4.6669,0 0,2.6668 -3.3335,0 0,-13.334 z"
     id="path123"
     style="fill:url(#linearGradient3325);fill-opacity:1;stroke:#c0a000;stroke-width:1;stroke-opacity:1" />
  <text
     x="2"
     id="text101"
     style="font-size:12px;text-align:center;text-anchor:middle;font-family:Bitstream Vera Sans">
    <tspan
       x="108"
       y="341"
       id="tspan127"
       style="font-size:11px">laatikko 2</tspan>
  </text>
  <path
     d="m 99.4375,368.60313 8.25,0 0,3 -2,0 0,-1.5 -5.25,0"
     id="path2493"
     style="fill:#e0e000;fill-opacity:1;stroke:#a08000;stroke-width:1;stroke-miterlimit:4;stroke-opacity:1;stroke-dasharray:none" />
  <path
     d="m 99.4375,382.35313 8.25,0 0,-3 -2,0 0,1.5 -5.25,0"
     id="path2495"
     style="fill:#e0e000;fill-opacity:1;stroke:#908000;stroke-width:1;stroke-miterlimit:4;stroke-opacity:1;stroke-dasharray:none" />
  <path
     d="m 75.0625,365.97813 c 8,0 22,0 22,0 0,0 2.0659,1.24328 2.75,2 0.69873,0.77291 1.75,3 1.75,3 l 0,9.5 c 0,0 -1.10853,1.84683 -1.75,2.5 -0.71478,0.72781 -2.75,2 -2.75,2 l -22.5,0 0,0 0,2 -10,0 0,-2 -22.5,0 c 0,0 -2.03522,-1.27219 -2.75,-2 -0.641475,-0.65317 -1.75,-2.5 -1.75,-2.5 l 0,-9.5 c 0,0 1.051264,-2.22709 1.75,-3 0.684101,-0.75672 2.75,-2 2.75,-2 l 22,0 0,2.5 11,0 0,-2.5 z"
     id="path3067"
     style="fill:url(#linearGradient3333);fill-opacity:1;stroke:#c0a000;stroke-width:1;stroke-miterlimit:4;stroke-opacity:1;stroke-dasharray:none" />
  <path
     d="m 43.524995,371.68299 2.5,0 0,2 3.5,0 0,-2 45.75001,0 0,10 -45.75001,0 0,-2 -3.5,0 0,2 -2.5,0 0,-10 z"
     id="path3478"
     style="fill:#ffffff;fill-opacity:1;stroke:#c0a000;stroke-width:1;stroke-miterlimit:4;stroke-opacity:1;stroke-dasharray:none" />
  <path
     d="m 46.749995,216.9838 2.5,0 0,2 3.5,0 0,-2 45.750005,0 0,10 -45.750005,0 0,-2 -3.5,0 0,2 -2.5,0 0,-10 z"
     id="path3491"
     style="fill:#ffffff;fill-opacity:1;stroke:#c0a000;stroke-width:1;stroke-miterlimit:4;stroke-opacity:1;stroke-dasharray:none" />
  <path
     d="m 46.124998,182.3588 2.5,0 0,2 3.5,0 0,-2 45.750002,0 0,10 -45.750002,0 0,-2 -3.5,0 0,2 -2.5,0 0,-10 z"
     id="path3499"
     style="fill:#ffffff;fill-opacity:1;stroke:#c0a000;stroke-width:1;stroke-miterlimit:4;stroke-opacity:1;stroke-dasharray:none" />
  <path
     d="m 37.995002,426.1 3.35,0 0,2.68 4.69,0 0,-2.68 61.305008,0 0,13.4 -61.305008,0 0,-2.68 -4.69,0 0,2.68 -3.35,0 0,-13.4 z"
     id="path2709"
     style="fill:url(#linearGradient3349);fill-opacity:1;stroke:#c0a000;stroke-width:1;stroke-miterlimit:4;stroke-opacity:1;stroke-dasharray:none" />
  <text
     id="text111"
     style="font-size:12px;text-align:center;text-anchor:middle;font-family:Bitstream Vera Sans">
    <tspan
       x="72.5"
       y="437"
       id="tspan155"
       style="font-size:11px">nimi</tspan>
  </text>
  <path
     d="m 42.749422,398.75799 0,4.5 -3.375,0 0,-2 -2.625,0 0,10 2.625,0 0,-2 3.375,0 0,4.625 57.125,-0.125 0,-15 -57.125,0 z"
     id="path2718"
     style="fill:url(#linearGradient3341);fill-opacity:1;stroke:#c0a000;stroke-width:1;stroke-miterlimit:4;stroke-opacity:1;stroke-dasharray:none" />
  <path
     d="m 45.874422,401.25799 2.5,0 0,2 3.5,0 0,-2 45.750005,0 0,10 -45.750005,0 0,-2 -3.5,0 0,2 -2.5,0 0,-10 z"
     id="path2720"
     style="fill:#ffffff;fill-opacity:1;stroke:#c0a000;stroke-width:1;stroke-miterlimit:4;stroke-opacity:1;stroke-dasharray:none" />
  <path
     d="m 97,50 c 0.09921,6.79081 -19.5,12.5 -19.5,12.5 l 0,0 0,2 -10,0 0,-2 C 67.5,62.5 47.90079,56.79081 48,50 48.12259,41.60893 64.10804,37.5 72.5,37.5 80.89196,37.5 96.87741,41.60893 97,50 z"
     id="path2715"
     style="fill:url(#linearGradient3245);fill-opacity:1;stroke:#c0a000;stroke-width:1;stroke-miterlimit:4;stroke-opacity:1;stroke-dasharray:none" />
  <text
     id="text117"
     style="font-size:12px;text-align:center;text-anchor:middle;font-family:Bitstream Vera Sans">
    <tspan
       x="72.5"
       y="53.5"
       id="tspan89"
       style="font-size:11px">aloita</tspan>
  </text>
</svg>
