<?xml version="1.0" encoding="UTF-8" standalone="no"?>
<!-- Created with Inkscape (http://www.inkscape.org/) -->
<svg
   xmlns:svg="http://www.w3.org/2000/svg"
   xmlns="http://www.w3.org/2000/svg"
   version="1.0"
   width="145"
   height="500"
   id="svg2">
  <defs
     id="defs19" />
  <rect
     width="143"
     height="404"
     x="1"
     y="0"
     id="rect2406"
     style="opacity:1;fill:#ffffff;fill-opacity:1;fill-rule:nonzero;stroke:none;stroke-width:3.97987986;stroke-linecap:square;stroke-linejoin:round;stroke-miterlimit:4;stroke-dasharray:none;stroke-opacity:1" />
  <rect
     width="145"
     height="29"
     x="0"
     y="0"
     id="rect2466"
     style="opacity:1;fill:#080808;fill-opacity:1;fill-rule:nonzero;stroke:none;stroke-width:1;stroke-linecap:square;stroke-linejoin:round;stroke-miterlimit:4;stroke-dasharray:none;stroke-opacity:1" />
  <path
     d="M 0.5,470.5 L 0.5,486.5 L 3.5,493.5 L 8.5,497.5 L 15,500 L 129,500 L 136,497.5 L 142,492.5 L 145,484.5 L 145,470.5 L 0.5,470.5 z"
     id="path3201"
     style="fill:#080808;fill-opacity:1;fill-rule:evenodd;stroke:none;stroke-width:1px;stroke-linecap:butt;stroke-linejoin:miter;stroke-opacity:1" />
  <path
     d="M 47,36.121152 L 95.879548,36.121152 L 95.879548,71 L 47,71 L 47,36.121152 z"
     id="path2685"
     style="fill:#101010;fill-opacity:1;fill-rule:nonzero;stroke:none;stroke-width:1.33340001;stroke-linecap:butt;stroke-linejoin:miter;stroke-miterlimit:4;stroke-dasharray:none;stroke-opacity:1" />
  <g
     transform="matrix(0.67,0,0,0.67,47.71,425.47)"
     id="g2738"
     style="fill:#585858;fill-opacity:1;stroke:none;stroke-opacity:1">
    <path
       d="M 48,1 C 64,1 64,1 64,1 L 69.5,5 L 73,11 L 73,45 L 69.5,51 L 64,55 L 47,55 L 47,55 L 47,59 L 27,59 L 27,55 L 10,55 L 4.5,51 L 1,45 L 1,11 L 4.5,5 L 10,1 L 26,1 L 26,6 L 48,6 L 48,1 z"
       id="path2714"
       style="fill:#585858;fill-opacity:1;stroke:none;stroke-width:2.98507452;stroke-opacity:1" />
  </g>
  <path
     d="M 88.33365,376.17197 L 131.08226,376.17197 L 131.08226,411 L 88.33365,411 L 88.33365,405.25323 L 82,405.25323 L 82,401.25303 L 88.33365,401.25303 L 88.33365,395.58608 L 82,395.58608 L 82,391.58588 L 88.33365,391.58588 L 88.33365,385.91893 L 82,385.91893 L 82,381.91873 L 88.33365,381.91873 L 88.33365,376.17197 z"
     id="path3254"
     style="fill:#505050;fill-opacity:1;fill-rule:nonzero;stroke:none;stroke-width:1.17376971;stroke-linecap:butt;stroke-linejoin:miter;stroke-miterlimit:4;stroke-dasharray:none;stroke-opacity:1" />
  <path
     d="M 34.29807,89.28125 L 28.39182,89.28125 L 28.39182,91.15625 L 20.14182,91.15625 L 20.14182,89.28125 L 14.23557,89.28125 C 14.23557,89.28125 12.77901,90.2595 12.26682,90.78125 C 11.86023,91.19544 10.86057,93.03125 10.86057,93.03125 L 10.86057,127.24625 C 10.86057,127.24625 11.10062,128.49448 11.42306,128.74813 C 11.73455,128.99316 13.11051,129.59375 13.11051,129.59375 L 20.61057,129.59375 L 20.61057,131 L 28.11057,131 L 28.11057,129.59375 L 61.48557,129.59375 L 61.48557,90.78125 L 36.36057,90.78125 L 35.40939,90.0353 L 34.29807,89.28125 z"
     id="path4158"
     style="fill:#181818;fill-opacity:1;fill-rule:evenodd;stroke:none;stroke-width:1.25;stroke-linecap:butt;stroke-linejoin:miter;stroke-miterlimit:4;stroke-dasharray:none;stroke-opacity:1" />
  <path
     d="M 27.36057,158.125 L 21.45432,158.125 L 21.45432,160 L 13.20432,160 L 13.20432,158.125 L 7.29807,158.125 C 7.29807,158.125 5.84151,159.10325 5.32932,159.625 C 4.92273,160.03918 3.92307,161.875 3.92307,161.875 L 3.92307,216.25 C 3.92307,216.25 4.16312,217.87135 4.48556,218.125 C 4.79705,218.37002 6.17301,218.875 6.17301,218.875 L 13.67307,218.875 L 13.67307,220 L 21.17307,220 L 21.17307,218.875 L 68.42307,218.875 L 68.42307,159.625 L 29.42307,159.625 L 28.47189,158.87903 L 27.36057,158.125 z"
     id="path4390"
     style="fill:#282828;fill-opacity:1;fill-rule:evenodd;stroke:none;stroke-width:1.25;stroke-linecap:butt;stroke-linejoin:miter;stroke-miterlimit:4;stroke-dasharray:none;stroke-opacity:1" />
  <path
     d="M 36.17307,228.5 L 30.26682,228.5 L 30.26682,230.1875 L 22.01682,230.1875 L 22.01682,228.5 L 16.11057,228.5 C 16.11057,228.5 14.65401,229.47825 14.14182,230 C 13.73522,230.41418 12.73557,232.25 12.73557,232.25 L 12.73557,309.875 C 12.73557,309.875 12.97562,311.68385 13.29806,311.9375 C 13.60954,312.18253 14.98551,312.875 14.98551,312.875 L 22.48557,312.875 L 22.48557,314 L 29.98557,314 L 29.98557,312.875 L 59.61057,312.875 L 59.61057,230 L 38.23557,230 L 37.28439,229.25404 L 36.17307,228.5 z"
     id="path4690"
     style="fill:#383838;fill-opacity:1;fill-rule:evenodd;stroke:none;stroke-width:1.25;stroke-linecap:butt;stroke-linejoin:miter;stroke-miterlimit:4;stroke-dasharray:none;stroke-opacity:1" />
  <path
     d="M 105.76975,89.12499 L 99.8635,89.12499 L 99.8635,91 L 91.613495,91 L 91.613495,89.12499 L 85.707245,89.12499 C 85.707245,89.12499 84.250685,90.10325 83.738495,90.62499 C 83.331905,91.03918 82.332245,92.87499 82.332245,92.87499 L 82.332245,147.25 C 82.332245,147.25 82.57229,148.49635 82.89473,148.75 C 83.20622,148.99504 84.582185,149.5 84.582185,149.5 L 92.082245,149.5 L 92.082245,151 L 99.58225,151 L 99.58225,149.5 L 132.95725,149.5 L 132.95725,90.62499 L 107.83225,90.62499 L 106.88107,89.87903 L 105.76975,89.12499 z"
     id="path5171"
     style="fill:#202020;fill-opacity:1;fill-rule:evenodd;stroke:none;stroke-width:1.25;stroke-linecap:butt;stroke-linejoin:miter;stroke-miterlimit:4;stroke-dasharray:none;stroke-opacity:1" />
  <path
     d="M 98.83225,158.125 L 92.925995,158.125 L 92.925995,160 L 84.675995,160 L 84.675995,158.125 L 78.769745,158.125 C 78.769745,158.125 77.313185,159.10325 76.800995,159.625 C 76.394405,160.03918 75.394745,161.875 75.394745,161.875 L 75.394745,216.25 C 75.394745,216.25 75.63479,217.49635 75.95723,217.75 C 76.26872,217.99503 77.644685,218.5 77.644685,218.5 L 85.144745,218.5 L 85.144745,220 L 92.644745,220 L 92.644745,218.5 L 139.89475,218.5 L 139.89475,159.625 L 100.89475,159.625 L 99.94357,158.87904 L 98.83225,158.125 z"
     id="path5376"
     style="fill:#303030;fill-opacity:1;fill-rule:evenodd;stroke:none;stroke-width:1.25;stroke-linecap:butt;stroke-linejoin:miter;stroke-miterlimit:4;stroke-dasharray:none;stroke-opacity:1" />
  <path
     d="M 105.76975,228.28125 L 99.863499,228.28125 L 99.863499,230.15625 L 91.613499,230.15625 L 91.613499,228.28125 L 85.707249,228.28125 C 85.707249,228.28125 84.250688,229.2595 83.738499,229.78125 C 83.331908,230.19544 82.332249,232.03125 82.332249,232.03125 L 82.332249,266.24625 C 82.332249,266.24625 82.572298,267.49448 82.894739,267.74813 C 83.206228,267.99316 84.582188,268.59375 84.582188,268.59375 L 92.082248,268.59375 L 92.082248,270 L 99.582248,270 L 99.582248,268.59375 L 132.95725,268.59375 L 132.95725,229.78125 L 107.83225,229.78125 L 106.88107,229.0353 L 105.76975,228.28125 z"
     id="path3022"
     style="fill:#404040;fill-opacity:1;fill-rule:evenodd;stroke:none;stroke-width:1.25;stroke-linecap:butt;stroke-linejoin:miter;stroke-miterlimit:4;stroke-dasharray:none;stroke-opacity:1" />
  <path
     d="M 43.25,379.375 L 35.374999,379.375 L 35.374999,381.375 L 24.375,381.375 L 24.375,379.375 L 16.5,379.375 C 16.5,379.375 14.557924,379.67933 13.875,380.375 C 13.33287,380.92725 12,382.375 12,382.375 L 12,400.995 C 12,400.995 12.320065,402.65931 12.74998,402.9975 C 13.165297,403.32421 14.999923,404.125 14.999923,404.125 L 25,404.125 L 25,406 L 34.999999,406 L 34.999999,404.125 L 74.998371,404.125 L 75.000001,398.375 L 79.500001,398.375 L 79.500001,395.625 L 75.000001,395.625 L 75.000001,391.125 L 79.500001,391.125 L 79.500001,388.375 L 75.000001,388.375 L 75.000001,382.375 L 45.999999,382.375 L 44.731754,380.375 L 43.25,379.375 z"
     id="path3023"
     style="fill:#484848;fill-opacity:1;fill-rule:evenodd;stroke:none;stroke-width:2;stroke-linecap:butt;stroke-linejoin:miter;stroke-miterlimit:4;stroke-dasharray:none;stroke-opacity:1" />
</svg>
