<?xml version="1.0" encoding="UTF-8" standalone="no"?>
<svg
   xmlns="http://www.w3.org/2000/svg"
   xmlns:xlink="http://www.w3.org/1999/xlink"
   width="320"
   height="39"
   version="1.0">
  <defs>
    <linearGradient
       id="linearGradient3166">
      <stop
         style="stop-color:#ffffff;stop-opacity:1;"
         offset="0"
         id="stop3168" />
      <stop
         style="stop-color:#ff00ff;stop-opacity:1;"
         offset="1"
         id="stop3170" />
    </linearGradient>
    <linearGradient
       inkscape:collect="always"
       xlink:href="#linearGradient3166"
       id="linearGradient3172"
       x1="0"
       y1="19.625"
       x2="320.75"
       y2="19.625"
       gradientUnits="userSpaceOnUse"
       gradientTransform="matrix(1.0030831,0,0,0.9807123,0.75587,0.2535202)" />
  </defs>
  <path
     style="fill:url(#linearGradient3172);fill-opacity:1;stroke:#a000a0;stroke-width:1.48775196;stroke-opacity:1"
     d="M 293.65614,0.74387627 L 27.588342,0.98905436 C 19.719231,2.9515196 11.88717,3.4629225 5.7712854,8.8509585 C 4.444745,10.125915 2.2389899,12.869702 1.5081823,14.542151 C 1.0691225,15.546937 0.86254769,18.11801 0.75587,19.205662 C 0.66251396,20.15749 1.1331383,22.769377 1.5081823,23.652471 C 3.0916471,27.380959 4.6392931,28.615458 5.7712854,29.609625 C 12.212808,35.186583 19.888888,35.157137 27.839114,38.010946 L 293.65614,38.256124 C 293.65614,38.256124 306.20772,34.879034 308.65009,33.469899 C 310.4918,32.40732 315.49193,28.556828 316.92839,27.007975 C 318.02162,25.82921 319.33522,20.191125 319.2524,19.309134 C 319.09554,17.638883 318.40114,13.609113 317.5725,12.140475 C 316.38942,10.04363 314.18783,5.857964 308.82576,4.4965694 C 306.47301,3.8992195 293.65614,0.74387627 293.65614,0.74387627 z" />
  <path
     id="path3250"
     d="M 31.517321,8.1785131 L 36.586941,8.1785131 L 36.586941,12.557108 L 43.684408,12.557108 L 43.684408,8.1785131 L 136.45845,8.1785131 L 136.45845,30.071487 L 43.684408,30.071487 L 43.684408,25.692892 L 36.586941,25.692892 L 36.586941,30.071487 L 31.517321,30.071487 L 31.517321,8.1785131 z"
     style="fill:#ffffff;fill-opacity:1;stroke:#a000a0;stroke-width:2.10702682;stroke-opacity:1" />
  <path
     id="path3264"
     d="M 180.71743,8.178513 L 185.78705,8.178513 L 185.78705,12.557108 L 192.88452,12.557108 L 192.88452,8.178513 L 285.65856,8.178513 L 285.65856,30.071487 L 192.88452,30.071487 L 192.88452,25.692892 L 185.78705,25.692892 L 185.78705,30.071487 L 180.71743,30.071487 L 180.71743,8.178513 z"
     style="fill:#ffffff;fill-opacity:1;stroke:#a000a0;stroke-width:2.10702682;stroke-opacity:1" />
  <text
     style="font-size:12px;text-anchor:middle;text-align:center;font-family:Bitstream Vera Sans">
     <tspan
       x="160"
       y="29"
       style="font-size:32px">&gt;</tspan></text>
</svg>
