<?xml version="1.0" encoding="UTF-8" standalone="no"?>
<!-- Created with Inkscape (http://www.inkscape.org/) -->
<svg
   xmlns:svg="http://www.w3.org/2000/svg"
   xmlns="http://www.w3.org/2000/svg"
   xmlns:xlink="http://www.w3.org/1999/xlink"
   version="1.0"
   width="87"
   height="44"
   id="svg2">
  <defs
     id="defs4">
    <linearGradient
       id="linearGradient3166">
      <stop
         id="stop3168"
         style="stop-color:#ffffff;stop-opacity:1"
         offset="0" />
      <stop
         id="stop3170"
         style="stop-color:#ff0000;stop-opacity:1"
         offset="1" />
    </linearGradient>
    <linearGradient
       x1="0"
       y1="22"
       x2="74"
       y2="22"
       id="linearGradient3172"
       xlink:href="#linearGradient3166"
       gradientUnits="userSpaceOnUse" />
  </defs>
  <path
     d="M 70,6 L 86.5,6 L 86.5,12 L 82.5,12 L 82.5,9 L 72,9"
     id="path10"
     style="fill:#e00000;fill-opacity:1;stroke:#800000;stroke-width:1.5;stroke-opacity:1" />
  <path
     d="M 70,33.5 L 86.5,33.5 L 86.5,27.5 L 82.5,27.5 L 82.5,30.5 L 72,30.5"
     id="path12"
     style="fill:#e00000;fill-opacity:1;stroke:#800000;stroke-width:1.5;stroke-opacity:1" />
  <path
     d="M 48,1 C 64,1 64,1 64,1 C 64,1 68.131798,3.4865526 69.5,5 C 70.897472,6.5458243 73,11 73,11 L 73,30 C 73,30 70.78295,33.693654 69.5,35 C 68.07044,36.455629 64,39 64,39 L 47,39 L 47,39 L 47,43 L 27,43 L 27,39 L 10,39 C 10,39 5.9295605,36.455629 4.5,35 C 3.2170498,33.693654 1,30 1,30 L 1,11 C 1,11 3.1025283,6.5458243 4.5,5 C 5.8682021,3.4865526 10,1 10,1 L 26,1 L 26,6 L 48,6 L 48,1 z"
     id="path14"
     style="fill:url(#linearGradient3172);fill-opacity:1;stroke:#a00000;stroke-width:2;stroke-opacity:1" />
  <path
     d="M 35.034503,11.715074 C 34.052031,11.9549 33.126304,12.350614 32.274322,12.846296 C 32.582232,13.277774 32.77206,13.81494 32.77206,14.384757 C 32.77206,15.844001 31.561272,17.009192 30.102376,17.009192 C 29.521323,17.009192 29.000042,16.830267 28.563915,16.511454 C 28.120925,17.265119 27.761395,18.092384 27.523191,18.954893 C 28.768613,19.166875 29.695137,20.272091 29.695137,21.579327 C 29.695137,22.89848 28.744606,23.964703 27.477942,24.158513 C 27.717652,25.145199 28.109269,26.068059 28.609164,26.918694 C 29.039904,26.612551 29.534456,26.420956 30.102376,26.420956 C 31.561258,26.420956 32.77206,27.630194 32.77206,29.09064 C 32.77206,29.659964 32.580668,30.153112 32.274322,30.583852 C 33.125044,31.083269 34.049888,31.474089 35.034503,31.715074 C 35.228052,30.447599 36.289975,29.452631 37.613689,29.452631 C 38.902565,29.452645 39.963198,30.40012 40.192874,31.624576 C 41.070601,31.383621 41.913779,31.03123 42.681562,30.583852 C 42.375231,30.152851 42.183824,29.61405 42.183824,29.045391 C 42.183824,27.588725 43.351651,26.420956 44.808259,26.420956 C 45.378655,26.420956 45.914995,26.610625 46.34672,26.918694 C 46.845486,26.071664 47.238738,25.143099 47.477942,24.158513 C 46.205645,23.969525 45.215499,22.859269 45.215499,21.534079 C 45.215499,20.241771 46.159513,19.182441 47.387444,18.954893 C 47.145316,18.081771 46.793113,17.275385 46.34672,16.511454 C 45.914995,16.819523 45.378655,17.009192 44.808259,17.009192 C 43.351651,17.009177 42.183824,15.841423 42.183824,14.384757 C 42.183824,13.814346 42.373508,13.278035 42.681562,12.846296 C 41.903933,12.385148 41.088411,12.003508 40.192874,11.760323 C 39.980096,13.004066 38.917739,13.977517 37.613689,13.977517 C 36.293942,13.977503 35.22853,12.980869 35.034503,11.715074 z M 37.477942,18.638151 C 39.169207,18.638136 40.509616,20.022071 40.509616,21.715074 C 40.509602,23.405644 39.169193,24.791997 37.477942,24.791997 C 35.790861,24.791983 34.401019,23.405659 34.401019,21.715074 C 34.401019,20.022897 35.791571,18.638151 37.477942,18.638151 z"
     id="circle2615" />
</svg>
