<?xml version="1.0" encoding="UTF-8" standalone="no"?>
<!-- Created with Inkscape (http://www.inkscape.org/) -->
<svg
   xmlns:svg="http://www.w3.org/2000/svg"
   xmlns="http://www.w3.org/2000/svg"
   xmlns:xlink="http://www.w3.org/1999/xlink"
   version="1.0"
   width="87"
   height="60"
   id="svg2">
  <defs
     id="defs4">
    <linearGradient
       id="linearGradient3166">
      <stop
         id="stop3168"
         style="stop-color:#ffffff;stop-opacity:1"
         offset="0" />
      <stop
         id="stop3170"
         style="stop-color:#ffff00;stop-opacity:1"
         offset="1" />
    </linearGradient>
    <linearGradient
       x1="0"
       y1="22"
       x2="74"
       y2="22"
       id="linearGradient3172"
       xlink:href="#linearGradient3166"
       gradientUnits="userSpaceOnUse" />
    <linearGradient
       x1="0"
       y1="22"
       x2="74"
       y2="22"
       id="linearGradient2414"
       xlink:href="#linearGradient3166"
       gradientUnits="userSpaceOnUse" />
    <linearGradient
       x1="0"
       y1="22"
       x2="74"
       y2="22"
       id="linearGradient2420"
       xlink:href="#linearGradient3166"
       gradientUnits="userSpaceOnUse" />
    <linearGradient
       x1="0"
       y1="22"
       x2="74"
       y2="22"
       id="linearGradient2425"
       xlink:href="#linearGradient3166"
       gradientUnits="userSpaceOnUse" />
    <linearGradient
       x1="0"
       y1="22"
       x2="74"
       y2="22"
       id="linearGradient2429"
       xlink:href="#linearGradient3166"
       gradientUnits="userSpaceOnUse" />
    <linearGradient
       x1="0"
       y1="22"
       x2="74"
       y2="22"
       id="linearGradient2432"
       xlink:href="#linearGradient3166"
       gradientUnits="userSpaceOnUse" />
  </defs>
  <path
     d="M 48,1 C 64,1 64,1 64,1 L 69.5,5 L 73,11 L 73,45 L 69.5,51 L 64,55 L 47,55 L 47,55 L 47,59 L 27,59 L 27,55 L 10,55 L 4.5,51 L 1,45 L 1,11 L 4.5,5 L 10,1 L 26,1 L 26,6 L 48,6 L 48,1 z"
     id="path10"
     style="fill:url(#linearGradient2432);fill-opacity:1;stroke:#c0a000;stroke-width:2;stroke-opacity:1" />
  <text
     y="-6"
     id="text12"
     style="font-size:18px;text-align:center;text-anchor:middle;font-family:Bitstream Vera Sans">
    <tspan
       x="37"
       y="21"
       id="tspan14"
       style="font-size:18px">oculta</tspan>
  </text>
  <text
     y="2"
     id="text16"
     style="font-size:18px;text-align:center;text-anchor:middle;font-family:Bitstream Vera Sans">
    <tspan
       x="37"
       y="48"
       id="tspan18"
       style="font-size:18px">bloques</tspan>
  </text>
  <text
     x="0.05313649"
     y="9.717802"
     id="text2434"
     style="font-size:18px;text-align:center;text-anchor:middle;font-family:Bitstream Vera Sans">
    <tspan
       x="37.053135"
       y="36.717804"
       id="tspan2436"
       style="font-size:18px">los</tspan>
  </text>
</svg>
