<?xml version="1.0" encoding="UTF-8" standalone="no"?>
<!-- Created with Inkscape (http://www.inkscape.org/) -->

<svg
   xmlns:svg="http://www.w3.org/2000/svg"
   xmlns="http://www.w3.org/2000/svg"
   xmlns:xlink="http://www.w3.org/1999/xlink"
   version="1.0"
   width="24.37862"
   height="31.03842"
   id="svg2">
  <defs
     id="defs5">
    <linearGradient
       id="linearGradient3166">
      <stop
         id="stop3168"
         style="stop-color:#ffffff;stop-opacity:1"
         offset="0" />
      <stop
         id="stop3170"
         style="stop-color:#ffff00;stop-opacity:1"
         offset="1" />
    </linearGradient>
    <linearGradient
       x1="0.94254935"
       y1="-31.669659"
       x2="94.577461"
       y2="20.434471"
       id="linearGradient3172"
       xlink:href="#linearGradient3166"
       gradientUnits="userSpaceOnUse"
       gradientTransform="matrix(0.7750554,0,0,0.9997979,0.8784441,32.623865)" />
  </defs>
  <g
     transform="matrix(0.67,0,0,0.67,-6.15194,-2.90646)"
     id="clipping-audio"
     style="display:block">
    <g
       id="g2758"
       style="display:inline">
      <g
         id="g2760">
        <polygon
           points="43.818,48.914 10.932,48.914 10.932,6.088 10.932,6.088 31.874,6.088 43.818,18.027 "
           id="polygon2762"
           style="fill:#ffffff;stroke:#010101;stroke-width:3.5" />
        <polyline
           id="polyline2764"
           points="43.818,18.027 31.874,18.027 31.874,6.088    "
           style="fill:none;stroke:#010101;stroke-width:3.5" />
      </g>
    </g>
    <path
       d="m 28.325,39.697 c -0.511,-1.457 -3.21,-1.073 -4.41,-0.07 -2.4,2.009 -0.424,4.396 2.324,3.277 1.564,-0.638 2.596,-1.748 2.086,-3.207 z"
       id="path2766"
       style="fill:#010101;stroke:#010101;stroke-width:3.5;display:inline" />
    <line
       id="line2768"
       y2="26.966999"
       y1="39.806"
       x2="28.941"
       x1="28.941"
       display="inline"
       style="fill:none;stroke:#010101;stroke-width:2.25;display:inline" />
    <polygon
       points="35.047,25.036 35.047,25.036 27.838,28.595 27.838,24.728 35.047,21.166 "
       id="polygon2770"
       style="fill:#010101;display:inline" />
  </g>
</svg>
