<?xml version="1.0" encoding="UTF-8" standalone="no"?>
<!-- Created with Inkscape (http://www.inkscape.org/) -->

<svg
   xmlns:svg="http://www.w3.org/2000/svg"
   xmlns="http://www.w3.org/2000/svg"
   xmlns:xlink="http://www.w3.org/1999/xlink"
   version="1.0"
   width="60"
   height="45"
   id="svg2">
  <defs
     id="defs5">
    <linearGradient
       id="linearGradient3166">
      <stop
         id="stop3168"
         style="stop-color:#ffffff;stop-opacity:1"
         offset="0" />
      <stop
         id="stop3170"
         style="stop-color:#ffff00;stop-opacity:1"
         offset="1" />
    </linearGradient>
    <linearGradient
       x1="0.94254935"
       y1="-31.669659"
       x2="94.577461"
       y2="20.434471"
       id="linearGradient3172"
       xlink:href="#linearGradient3166"
       gradientUnits="userSpaceOnUse"
       gradientTransform="matrix(0.7750554,0,0,0.9997979,0.8784441,32.623865)" />
  </defs>
  <rect
     width="32.5"
     height="42.499996"
     x="13.75"
     y="1.2500019"
     id="rect2426"
     style="fill:#ffffff;fill-opacity:1;stroke:#000000;stroke-width:3.5;stroke-linecap:round;stroke-miterlimit:4;stroke-opacity:1;stroke-dasharray:none" />
  <g
     transform="translate(-9.372241,-9.2260522)"
     id="g3201">
    <path
       d="m 36.843,39.696 c -0.511,-1.457 -3.21,-1.073 -4.41,-0.07 -2.4,2.009 -0.424,4.396 2.324,3.277 1.564,-0.638 2.596,-1.748 2.086,-3.207 z"
       id="path2766"
       style="fill:#ff0000;fill-opacity:1;stroke:#ff0000;stroke-width:3.5;stroke-opacity:1;display:inline" />
    <line
       id="line2768"
       y2="26.966"
       y1="39.805"
       x2="37.459"
       x1="37.459"
       display="inline"
       style="fill:none;stroke:#ff0000;stroke-width:2.25;stroke-opacity:1;display:inline" />
    <polygon
       points="35.047,21.166 35.047,25.036 35.047,25.036 27.838,28.595 27.838,24.728 "
       transform="translate(8.518,-0.001)"
       id="polygon2770"
       style="fill:#ff0000;fill-opacity:1;display:inline" />
    <path
       d="m 47.25801,34.943896 c -0.511,-1.457 -3.21,-1.073 -4.41,-0.07 -2.4,2.009 -0.424,4.396 2.324,3.277 1.564,-0.638 2.596,-1.748 2.086,-3.207 z"
       id="path2412"
       style="fill:#ff0000;fill-opacity:1;stroke:#ff0000;stroke-width:3.5;stroke-opacity:1;display:inline" />
    <line
       id="line2414"
       y2="21.713896"
       y1="34.552895"
       x2="47.674007"
       x1="47.674007"
       display="inline"
       style="fill:none;stroke:#ff0000;stroke-width:2.25;stroke-opacity:1;display:inline" />
    <polygon
       points="35.047,21.166 35.047,25.036 35.047,25.036 27.838,28.595 27.838,24.728 "
       transform="translate(13.73301,-2.653104)"
       id="polygon2416"
       style="fill:#ff0000;fill-opacity:1;display:inline" />
  </g>
</svg>
