<?xml version="1.0" ?><!DOCTYPE svg  PUBLIC '-//W3C//DTD SVG 1.1//EN'  'http://www.w3.org/Graphics/SVG/1.1/DTD/svg11.dtd' [
	<!ENTITY stroke_color "#010101">
	<!ENTITY fill_color "#ffffff">
]><svg enable-background="new 0 0 55 55" height="55px" version="1.1" viewBox="0 0 55 55" width="55px" x="0px" xml:space="preserve" xmlns="http://www.w3.org/2000/svg" xmlns:xlink="http://www.w3.org/1999/xlink" y="0px"><g display="block" id="camera-external">
	<g display="inline">
		<g>
			<polygon fill="&fill_color;" points="38.532,14.52 34.904,9.862 18.783,9.862 15.155,14.52 6.29,14.52 6.29,38.973 48.209,38.973      48.209,14.52    "/>
		</g>
		<g>
			<polygon fill="none" points="38.532,14.52 34.904,9.862 18.783,9.862 15.155,14.52      6.29,14.52 6.29,38.973 48.209,38.973 48.209,14.52    " stroke="&stroke_color;" stroke-width="3.5"/>
		</g>
	</g>
	<path d="M20.601,26.441c0,3.67,2.979,6.648,6.65,6.648   c3.667,0,6.646-2.979,6.646-6.648c0-3.668-2.979-6.652-6.646-6.652C23.581,19.789,20.601,22.775,20.601,26.441z" display="inline" fill="&fill_color;" stroke="&stroke_color;" stroke-width="3.5"/>
	<rect display="inline" fill="&stroke_color;" height="4.193" width="6.287" x="38.099" y="18.418"/>
</g></svg>