<?xml version="1.0" encoding="UTF-8" standalone="no"?>
<!-- Created with Inkscape (http://www.inkscape.org/) -->

<svg
   xmlns:dc="http://purl.org/dc/elements/1.1/"
   xmlns:cc="http://creativecommons.org/ns#"
   xmlns:rdf="http://www.w3.org/1999/02/22-rdf-syntax-ns#"
   xmlns:svg="http://www.w3.org/2000/svg"
   xmlns="http://www.w3.org/2000/svg"
   version="1.1"
   width="26.163"
   height="14.262004"
   viewBox="0 0 26.163 14.262004"
   id="svg2"
   xml:space="preserve"><metadata
     id="metadata29"><rdf:RDF><cc:Work
         rdf:about=""><dc:format>image/svg+xml</dc:format><dc:type
           rdf:resource="http://purl.org/dc/dcmitype/StillImage" /><dc:title></dc:title></cc:Work></rdf:RDF></metadata><defs
     id="defs27">
	
	
	
	
	
	
	

		
	</defs><g
     transform="matrix(3,0,0,3,-69.2385,-78.514498)"
     id="g2995"><path
       d="m 27.4395,26.1715 c -2.3785,0 -4.36,2.372 -4.36,2.372 0,0 1.9815,2.3835 4.36,2.382 2.3785,-0.002 4.361,-2.385 4.361,-2.385 0,0 -1.982,-2.3705 -4.361,-2.369 z m 0,4.045 c -0.921,0 -1.6675,-0.747 -1.6675,-1.668 0,-0.9195 0.7465,-1.668 1.6675,-1.668 0.9195,0 1.6665,0.7485 1.6665,1.668 5e-4,0.921 -0.7465,1.668 -1.6665,1.668 z"
       id="path13"
       style="fill:#010101;display:inline" /><circle
       cx="27.504999"
       cy="29.597"
       r="1.5140001"
       transform="matrix(0.5,0,0,0.5,13.6875,13.7505)"
       id="circle15"
       style="fill:#010101;display:inline" /></g></svg>