<?xml version="1.0" encoding="UTF-8" standalone="no"?>
<!-- Created with Inkscape (http://www.inkscape.org/) -->

<svg
   xmlns:svg="http://www.w3.org/2000/svg"
   xmlns="http://www.w3.org/2000/svg"
   version="1.0"
   width="55"
   height="55"
   id="svg2">
  <defs
     id="defs5" />
  <path
     d="m 17.245763,13.050847 a 2.9131355,3.0296609 0 1 1 -5.826271,0 2.9131355,3.0296609 0 1 1 5.826271,0 z"
     transform="matrix(1.2080617,0,0,1.1615978,-2.8452066,0.4706725)"
     id="path2824"
     style="fill:#ff0000;fill-opacity:1;fill-rule:evenodd;stroke:#ff0000;stroke-width:2.5;stroke-linecap:round;stroke-miterlimit:4;stroke-opacity:1;stroke-dasharray:none" />
  <path
     d="m 17.245763,13.050847 a 2.9131355,3.0296609 0 1 1 -5.826271,0 2.9131355,3.0296609 0 1 1 5.826271,0 z"
     transform="matrix(1.2080617,0,0,1.1615978,13.785302,8.1401646)"
     id="path2824-4"
     style="fill:#ff00ff;fill-opacity:1;fill-rule:evenodd;stroke:#ff00ff;stroke-width:2.5;stroke-linecap:round;stroke-miterlimit:4;stroke-opacity:1;stroke-dasharray:none" />
  <path
     d="m 17.245763,13.050847 a 2.9131355,3.0296609 0 1 1 -5.826271,0 2.9131355,3.0296609 0 1 1 5.826271,0 z"
     transform="matrix(1.2080617,0,0,1.1615978,3.185302,13.640165)"
     id="path2824-6"
     style="fill:#00ff00;fill-opacity:1;fill-rule:evenodd;stroke:#00ff00;stroke-width:2.5;stroke-linecap:round;stroke-miterlimit:4;stroke-opacity:1;stroke-dasharray:none" />
  <path
     d="m 17.245763,13.050847 a 2.9131355,3.0296609 0 1 1 -5.826271,0 2.9131355,3.0296609 0 1 1 5.826271,0 z"
     transform="matrix(1.2080617,0,0,1.1615978,23.985302,19.740165)"
     id="path2824-69"
     style="fill:#0000ff;fill-opacity:1;fill-rule:evenodd;stroke:#0000ff;stroke-width:2.5;stroke-linecap:round;stroke-miterlimit:4;stroke-opacity:1;stroke-dasharray:none" />
  <path
     d="m 17.245763,13.050847 a 2.9131355,3.0296609 0 1 1 -5.826271,0 2.9131355,3.0296609 0 1 1 5.826271,0 z"
     transform="matrix(1.2080617,0,0,1.1615978,9.085302,26.940165)"
     id="path2824-7"
     style="fill:#ffd000;fill-opacity:1;fill-rule:evenodd;stroke:#ffd000;stroke-width:2.5;stroke-linecap:round;stroke-miterlimit:4;stroke-opacity:1;stroke-dasharray:none" />
  <path
     d="m 17.245763,13.050847 a 2.9131355,3.0296609 0 1 1 -5.826271,0 2.9131355,3.0296609 0 1 1 5.826271,0 z"
     transform="matrix(1.2080617,0,0,1.1615978,20.485302,-2.2598352)"
     id="path2824-5"
     style="fill:#ffff00;fill-opacity:1;fill-rule:evenodd;stroke:#ffff00;stroke-width:2.5;stroke-linecap:round;stroke-miterlimit:4;stroke-opacity:1;stroke-dasharray:none" />
  <path
     d="m 17.245763,13.050847 a 2.9131355,3.0296609 0 1 1 -5.826271,0 2.9131355,3.0296609 0 1 1 5.826271,0 z"
     transform="matrix(1.2080617,0,0,1.1615978,-3.6146981,22.540165)"
     id="path2824-54"
     style="fill:#00ffff;fill-opacity:1;fill-rule:evenodd;stroke:#00ffff;stroke-width:2.5;stroke-linecap:round;stroke-miterlimit:4;stroke-opacity:1;stroke-dasharray:none" />
</svg>
