<?xml version="1.0" encoding="UTF-8" standalone="no"?>
<!-- Created with Inkscape (http://www.inkscape.org/) -->

<svg
   xmlns:svg="http://www.w3.org/2000/svg"
   xmlns="http://www.w3.org/2000/svg"
   version="1.0"
   width="277"
   height="360"
   id="svg2">
  <defs
     id="defs27" />
  <path
     d="m 15.507831,358.97219 c -3.49518,0 -6.9903604,-11.96073 -9.4869104,-22.53925 -2.49655,-10.57853 -4.99311,-25.38846 -4.99311,-40.1984 l 0,-233.851279 c 0,-13.752085 2.49656,-35.966989 4.99311,-44.42981 C 8.5174706,9.4906316 12.012651,1.0278106 15.507831,1.0278106 l 245.485029,0 c 2.49656,0 6.99035,4.231411 10.48554,16.9256404 3.49516,11.636379 4.49379,31.735578 4.49379,44.42981 l 0,233.851279 c 0,14.80994 -1.99725,29.61987 -4.49379,40.1984 -2.49656,10.57852 -6.49104,22.53925 -10.48554,22.53925 l -245.485029,0 z"
     id="path4"
     style="fill:#ffd000;fill-opacity:1;fill-rule:evenodd;stroke:#e0a000;stroke-width:2.05562115px;stroke-linecap:butt;stroke-linejoin:miter;stroke-opacity:1" />
  <g
     transform="translate(158,66.625002)"
     id="g6">
    <path
       d="m 79.5,438.5 c 0,4.5 -3.75,8 -8.5,8 -4.5,0 -8.25,-3.5 -8.25,-8 0,-4.5 3.75,-8.25 8.25,-8.25 4.75,0 8.5,3.75 8.5,8.25 l 0,0 z"
       transform="translate(24,-485)"
       id="path8"
       style="fill:#ff4040;fill-opacity:1;fill-rule:nonzero;stroke:#ff4040;stroke-width:1;stroke-linecap:square;stroke-linejoin:round;stroke-miterlimit:4;stroke-opacity:1;stroke-dasharray:none" />
    <text
       id="text10"
       style="font-size:12px;font-weight:bold;text-align:start;writing-mode:lr-tb;text-anchor:start;fill:#000000;fill-opacity:1;stroke:none;font-family:Bitstream Vera Sans">
      <tspan
         x="91"
         y="-42"
         id="tspan12"
         style="font-size:12px">X</tspan>
    </text>
  </g>
</svg>
