<?xml version="1.0" encoding="UTF-8" standalone="no"?>
<!-- Created with Inkscape (http://www.inkscape.org/) -->

<svg
   xmlns:svg="http://www.w3.org/2000/svg"
   xmlns="http://www.w3.org/2000/svg"
   version="1.0"
   width="55"
   height="55"
   id="svg2">
  <defs
     id="defs5" />
  <path
     d="m 11.152285,41.709935 c 1.43401,0.788706 5.23977,1.402428 7.528553,1.290609 1.626167,-0.07945 3.914929,-0.479849 5.234137,-1.43401 2.238123,-1.618798 3.032695,-5.829627 5.090736,-7.671954 1.225701,-1.097229 3.231844,-2.444635 4.875634,-2.509518 2.003851,-0.07909 4.468168,1.514349 6.166244,2.581219 1.290216,0.810619 3.800127,3.369923 3.800127,3.369923"
     id="path2471"
     style="fill:none;stroke:#808080;stroke-width:3;stroke-linecap:round;stroke-opacity:1;stroke-dasharray:none" />
  <path
     d="m 12.944797,40.275925 1.147208,-4.660533 1.935914,0.358503 1.218909,1.075507 0.286802,2.079315 -4.588833,1.147208 z"
     id="path3245"
     style="fill:#e0e0e0;fill-opacity:1;stroke:#e0e0e0;stroke-width:1px;stroke-opacity:1" />
  <path
     d="M 11.510787,41.494834 C 13.231599,39.630621 13.375,39.774022 13.375,39.774022"
     id="path3243"
     style="fill:none;stroke:#ffffff;stroke-width:2;stroke-linecap:round;stroke-opacity:1;stroke-dasharray:none" />
  <path
     d="M 14.593909,34.898388 32.949238,16.82986 34.383249,18.192169 16.386421,35.758794 14.593909,34.898388 z"
     id="path3247"
     style="fill:#a0a0a0;fill-opacity:1;stroke:#a0a0a0;stroke-width:1px;stroke-opacity:1" />
  <path
     d="M 17.820432,36.762601 35.673858,19.554479 37.107869,20.916788 18.178933,38.985317 17.820432,36.762601 z"
     id="path3249"
     style="fill:#808080;fill-opacity:1;stroke:#808080;stroke-width:1px;stroke-opacity:1" />
  <path
     d="M 15.956219,35.687093 17.60533,37.336204 35.88896,19.554478 34.383249,17.761966 15.956219,35.687093 z"
     id="path3251"
     style="fill:#c4c4c4;fill-opacity:1;stroke:#c0c0c0;stroke-width:1px;stroke-opacity:1" />
  <path
     d="m 35.566307,13.352385 2.437818,-2.366117 1.200984,0.84248 1.416085,1.200984 0.985882,1.272684 0.914181,1.487786 -2.366117,2.509519 -0.896257,-1.505711 -2.186866,-2.366117 -1.50571,-1.075508 z"
     id="path3255"
     style="fill:#ffffff;fill-opacity:1;stroke:#ffffff;stroke-width:1px;stroke-opacity:1" />
  <path
     d="m 32.877538,16.112854 2.294417,-2.079315 1.200984,0.84248 1.416085,1.200984 0.985882,1.272684 0.914181,1.487786 -2.079315,1.864214 -0.967957,-1.147208 -2.330267,-2.222716 -1.43401,-1.218909 z"
     id="path3253"
     style="fill:none;stroke:#808080;stroke-width:1px;stroke-opacity:1" />
</svg>
