<?xml version="1.0" encoding="UTF-8" standalone="no"?>
<!-- Created with Inkscape (http://www.inkscape.org/) -->

<svg
   xmlns:svg="http://www.w3.org/2000/svg"
   xmlns="http://www.w3.org/2000/svg"
   version="1.0"
   width="55"
   height="55"
   id="svg2">
  <defs
     id="defs5" />
  <path
     d="m 40.697064,41.790731 a 12.637022,3.9853366 0 1 1 -25.274043,0 12.637022,3.9853366 0 1 1 25.274043,0 z"
     id="path2822"
     style="fill:#808080;fill-opacity:1;fill-rule:evenodd;stroke:#cccccc;stroke-width:2.64028215;stroke-linecap:round;stroke-miterlimit:4;stroke-opacity:1;stroke-dasharray:none" />
  <path
     d="m 11.567767,12.78441 c 4.094101,27.963483 4.094101,27.808989 4.094101,27.808989 l 0,0"
     id="path2820"
     style="fill:none;stroke:#ffffff;stroke-width:2.5;stroke-linecap:round;stroke-linejoin:miter;stroke-miterlimit:4;stroke-opacity:1;stroke-dasharray:none" />
  <path
     d="M 43.432234,12.938905 C 40.419592,40.361657 40.496839,40.28441 40.496839,40.28441"
     id="path2820-4"
     style="fill:none;stroke:#ffffff;stroke-width:2.5;stroke-linecap:round;stroke-linejoin:miter;stroke-miterlimit:4;stroke-opacity:1;stroke-dasharray:none" />
  <path
     d="m 36.962444,41.288627 a 8.7865326,2.452263 0 1 1 -17.573065,0 8.7865326,2.452263 0 1 1 17.573065,0 z"
     id="path2824"
     style="fill:none;stroke:#808080;stroke-width:2.89057779;stroke-linecap:round;stroke-miterlimit:4;stroke-opacity:1;stroke-dasharray:none" />
  <path
     d="m 14.194172,15.25632 c 4.403089,28.581461 4.248594,28.890449 4.248594,28.890449"
     id="path3620"
     style="fill:none;stroke:#ffffff;stroke-width:2.5;stroke-linecap:round;stroke-linejoin:miter;stroke-miterlimit:4;stroke-opacity:1;stroke-dasharray:none" />
  <path
     d="M 41.925912,14.870084 C 37.60007,44.14677 37.677317,44.224018 37.677317,44.224018"
     id="path3622"
     style="fill:none;stroke:#ffffff;stroke-width:2.5;stroke-linecap:round;stroke-linejoin:miter;stroke-miterlimit:4;stroke-opacity:1;stroke-dasharray:none" />
  <path
     d="m 19.755968,16.569522 c 2.626405,28.581462 2.471911,28.735956 2.471911,28.735956"
     id="path3624"
     style="fill:none;stroke:#ffffff;stroke-width:2.5;stroke-linecap:round;stroke-linejoin:miter;stroke-miterlimit:4;stroke-opacity:1;stroke-dasharray:none" />
  <path
     d="M 35.282654,16.415027 C 32.424509,45.846209 32.65625,45.768962 32.65625,45.768962"
     id="path3626"
     style="fill:none;stroke:#ffffff;stroke-width:2.5;stroke-linecap:round;stroke-linejoin:miter;stroke-miterlimit:4;stroke-opacity:1;stroke-dasharray:none" />
  <path
     d="m 26.785462,17.341994 c 0.07725,28.504215 0.154495,28.58146 0.154495,28.58146"
     id="path3628"
     style="fill:none;stroke:#ffffff;stroke-width:2.5;stroke-linecap:round;stroke-linejoin:miter;stroke-miterlimit:4;stroke-opacity:1;stroke-dasharray:none" />
  <path
     d="m 43.316362,12.629916 a 15.79705,3.5533709 0 0 1 -31.5941,0 15.79705,3.5533709 0 1 1 31.5941,0 z"
     id="path2818"
     style="fill:none;stroke:#808080;stroke-width:2.5;stroke-linecap:square;stroke-miterlimit:4;stroke-opacity:1;stroke-dasharray:none" />
</svg>
