<?xml version="1.0" encoding="UTF-8" standalone="no"?>
<!-- Created with Inkscape (http://www.inkscape.org/) -->

<svg
   xmlns:svg="http://www.w3.org/2000/svg"
   xmlns="http://www.w3.org/2000/svg"
   version="1.0"
   width="767"
   height="38"
   id="svg2">
  <defs
     id="defs32" />
  <path
     d="M 15,37.5 C 11.5,37.5 8,35 5.5,32.5 3,30 0.5,26.5 0.5,23 l 0,-8 c 0,-3.25 2.5,-8.5 5,-10.5 2.5,-2 6,-4 9.5,-4 l 736.5,0 c 2.5,0 7,1 10.5,4 3.5,2.75 4.5,7.5 4.5,10.5 l 0,8 c 0,3.5 -2,7 -4.5,9.5 -2.5,2.5 -6.5,5 -10.5,5 L 15,37.5 z"
     id="path4"
     style="fill:#ffd000;fill-opacity:1;fill-rule:evenodd;stroke:#e0a000;stroke-width:1px;stroke-linecap:butt;stroke-linejoin:miter;stroke-opacity:1" />
  <g
     transform="translate(656,65.625)"
     id="g6">
    <path
       d="m 79.5,438.5 c 0,4.5 -3.75,8 -8.5,8 -4.5,0 -8.25,-3.5 -8.25,-8 0,-4.5 3.75,-8.25 8.25,-8.25 4.75,0 8.5,3.75 8.5,8.25 l 0,0 z"
       transform="translate(24,-485)"
       id="path8"
       style="fill:#ff4040;fill-opacity:1;fill-rule:nonzero;stroke:#ff4040;stroke-width:1;stroke-linecap:square;stroke-linejoin:round;stroke-miterlimit:4;stroke-opacity:1;stroke-dasharray:none" />
    <text
       id="text10"
       style="font-size:12px;font-weight:bold;text-align:start;writing-mode:lr-tb;text-anchor:start;fill:#000000;fill-opacity:1;stroke:none;font-family:Bitstream Vera Sans">
      <tspan
         x="91"
         y="-42"
         id="tspan12"
         style="font-size:12px">X</tspan>
    </text>
  </g>
  <text
     x="-108"
     id="text13"
     style="font-size:12px;font-style:normal;font-weight:normal;fill:#ff0000;fill-opacity:1;stroke:none;font-family:Bitstream Vera Sans">
    <tspan
       x="62"
       y="28"
       id="tspan15"
       style="font-size:24px">/0</tspan>
  </text>
  <g
     transform="translate(6,0)"
     id="g17">
    <path
       d="M 44,15 10.5,15 27.5,-14 44,15 z"
       transform="translate(-4,20)"
       id="path19"
       style="fill:#404040;fill-opacity:1;fill-rule:nonzero;stroke:none" />
    <path
       d="M 44,15 10.5,15 27.5,-14 44,15 z"
       transform="translate(1,17)"
       id="path21"
       style="fill:#e0e0e0;fill-opacity:1;fill-rule:nonzero;stroke:none" />
    <path
       d="M 44,15 10.5,15 27.5,-14 44,15 z"
       transform="translate(-1,18)"
       id="path23"
       style="fill:#ffe000;fill-opacity:1;fill-rule:nonzero;stroke:none" />
  </g>
  <text
     x="6"
     id="text25"
     style="font-size:12px;font-style:normal;font-weight:normal;fill:#000000;fill-opacity:1;stroke:none;font-family:Bitstream Vera Sans">
    <tspan
       x="27"
       y="29"
       id="tspan27"
       style="font-size:24px">!</tspan>
  </text>
</svg>
