<?xml version="1.0" encoding="UTF-8" standalone="no"?>
<!-- Created with Inkscape (http://www.inkscape.org/) -->
<svg
   xmlns:svg="http://www.w3.org/2000/svg"
   xmlns="http://www.w3.org/2000/svg"
   xmlns:xlink="http://www.w3.org/1999/xlink"
   version="1.0"
   width="87.28125"
   height="104">
  <defs>
    <linearGradient
       id="linearGradient3166">
      <stop
         id="stop3168"
         style="stop-color:#ffffff;stop-opacity:1"
         offset="0" />
      <stop
         id="stop3170"
         style="stop-color:#ffff00;stop-opacity:1"
         offset="1" />
    </linearGradient>
    <linearGradient
       x1="0"
       y1="22"
       x2="74"
       y2="22"
       id="linearGradient2515"
       xlink:href="#linearGradient3166"
       gradientUnits="userSpaceOnUse" />
  </defs>
  <path
     d="M 10,1 C 8,2.5 6.5,3.5 4.5,5 C 3.5,7 2,9 1,11 L 1,89 C 2,91 3.5,93 4.5,95 C 6.5,96.5 8 97.5 10,99 L 27,99 L 27,103 L 47,103 L 47,99 L 64,99 C 65.5,97.5 67.5,96.5 69.5,95 C 70.5,93 72,91 73,89 L 73,85.5 L 79.5,85.5 L 86,85.5 L 86,81 L 77,81.75 L 77,74.5 L 73,74.5 L 73,67 L 77,67 L 77,59.5 L 86,59.5 L 86,56 L 73,56 L 73,42.25 L 86.5,42.25 L 86.5,36.25 L 82.5,36.25 L 82.5,39.25 L 73,39.25 L 73,17.75 L 82.5,17.75 L 82.5,20.75 L 86.5,20.75 L 86.5,14.75 L 73,14.75 L 73,11 C 72,9 70.5,7 69.5,5 C 67.5,3.5 65.5,2.5 64,1 C 64,1 64,1 48,1 L 48,6 L 26,6 L 26,1 L 10,1 z"
     style="fill:url(#linearGradient2515);fill-opacity:1;stroke:#c0a000;stroke-width:2;stroke-opacity:1" />
  <text
     style="font-size:18px;text-align:center;text-anchor:middle;font-family:Bitstream Vera Sans">
    <tspan
       x="37"
       y="30"
       style="font-size:18px"></tspan>
  </text>
  <text
     style="font-size:18px;text-align:center;text-anchor:middle;font-family:Bitstream Vera Sans">
    <tspan
       x="37"
       y="53"
       style="font-size:18px">в</tspan>
  </text>
  <text
     style="font-size:18px;text-align:center;text-anchor:middle;font-family:Bitstream Vera Sans">
    <tspan
       x="37"
       y="76"
       style="font-size:18px">склад</tspan>
  </text>
</svg>
