<?xml version="1.0" encoding="UTF-8" standalone="no"?>
<svg
   xmlns:dc="http://purl.org/dc/elements/1.1/"
   xmlns:cc="http://creativecommons.org/ns#"
   xmlns:rdf="http://www.w3.org/1999/02/22-rdf-syntax-ns#"
   xmlns:svg="http://www.w3.org/2000/svg"
   xmlns="http://www.w3.org/2000/svg"
   xmlns:xlink="http://www.w3.org/1999/xlink"
   xmlns:sodipodi="http://sodipodi.sourceforge.net/DTD/sodipodi-0.dtd"
   xmlns:inkscape="http://www.inkscape.org/namespaces/inkscape"
   width="87"
   height="60"
   version="1.0"
   id="svg6076"
   sodipodi:version="0.32"
   inkscape:version="0.46"
   sodipodi:docname="storeinbox2.svg"
   inkscape:output_extension="org.inkscape.output.svg.inkscape">
  <metadata
     id="metadata6113">
    <rdf:RDF>
      <cc:Work
         rdf:about="">
        <dc:format>image/svg+xml</dc:format>
        <dc:type
           rdf:resource="http://purl.org/dc/dcmitype/StillImage" />
      </cc:Work>
    </rdf:RDF>
  </metadata>
  <sodipodi:namedview
     inkscape:window-height="767"
     inkscape:window-width="1278"
     inkscape:pageshadow="2"
     inkscape:pageopacity="0.0"
     guidetolerance="10.0"
     gridtolerance="10.0"
     objecttolerance="10.0"
     borderopacity="1.0"
     bordercolor="#666666"
     pagecolor="#ffffff"
     id="base"
     showgrid="false"
     inkscape:zoom="6.2413793"
     inkscape:cx="43.5"
     inkscape:cy="29.5"
     inkscape:window-x="0"
     inkscape:window-y="0"
     inkscape:current-layer="svg6076" />
  <defs
     id="defs6078">
    <inkscape:perspective
       sodipodi:type="inkscape:persp3d"
       inkscape:vp_x="0 : 29.5 : 1"
       inkscape:vp_y="0 : 1000 : 0"
       inkscape:vp_z="87 : 29.5 : 1"
       inkscape:persp3d-origin="43.5 : 19.666667 : 1"
       id="perspective6115" />
    <linearGradient
       id="linearGradient3166">
      <stop
         style="stop-color:#ffffff;stop-opacity:1;"
         offset="0"
         id="stop3168" />
      <stop
         style="stop-color:#ffff00;stop-opacity:1;"
         offset="1"
         id="stop3170" />
    </linearGradient>
    <linearGradient
       xlink:href="#linearGradient3166"
       id="linearGradient3172"
       x1="0"
       y1="22"
       x2="74"
       y2="22"
       gradientUnits="userSpaceOnUse" />
  </defs>
  <g
     transform="translate(0,8.75)"
     id="g6084">
    <path
       d="M 70,6 L 86.5,6 L 86.5,12 L 82.5,12 L 82.5,9 L 72,9"
       style="fill:#f0e000;fill-opacity:1;stroke:#a08000;stroke-width:1.5;stroke-opacity:1"
       id="path6086" />
    <path
       d="M 70,33.5 L 86.5,33.5 L 86.5,27.5 L 82.5,27.5 L 82.5,30.5 L 72,30.5"
       style="fill:#f0e000;fill-opacity:1;stroke:#a08000;stroke-width:1.5;stroke-opacity:1"
       id="path6088" />
  </g>
  <path
     style="fill:url(#linearGradient3172);fill-opacity:1;stroke:#c0a000;stroke-width:2;stroke-opacity:1"
     d="M 48,1 C 64,1 64,1 64,1 L 69.5,5 L 73,11 L 73,45 L 69.5,51 L 64,55 L 47,55 L 47,55 L 47,59 L 27,59 L 27,55 L 10,55 L 4.5,51 L 1,45 L 1,11 L 4.5,5 L 10,1 L 26,1 L 26,6 L 48,6 L 48,1 z"
     id="path6090" />
  <path
     style="fill:none;stroke:#ffffff;stroke-width:1;stroke-opacity:1"
     d="M 49,2.5 L 63,2.5"
     id="path6092" />
  <path
     style="fill:none;stroke:#ffffff;stroke-width:1;stroke-opacity:1"
     d="M 11,2.5 L 25,2.5"
     id="path6094" />
  <path
     style="fill:none;stroke:#606000;stroke-width:1;stroke-opacity:1"
     d="M 10.5,55.5 L 26.5,55.5"
     id="path6096" />
  <path
     style="fill:none;stroke:#606000;stroke-width:1;stroke-opacity:1"
     d="M 47.5,55.5 L 63.5,55.5"
     id="path6098" />
  <path
     style="fill:none;stroke:#606000;stroke-width:1;stroke-opacity:1"
     d="M 26.5,59.5 L 47.5,59.5"
     id="path6100" />
  <path
     style="fill:none;stroke:#ffffff;stroke-width:1;stroke-opacity:1"
     d="M 25,7.5 L 49,7.5"
     id="path6102" />
  <text
     style="font-size:18px;text-align:center;text-anchor:middle;font-family:Bitstream Vera Sans"
     id="text6104">
    <tspan
       x="37"
       y="27"
       style="font-size:18px"
       id="tspan6106">в</tspan>
  </text>
  <text
     style="font-size:18px;text-align:center;text-anchor:middle;font-family:Bitstream Vera Sans"
     id="text6108">
    <tspan
       x="37"
       y="46"
       style="font-size:18px"
       id="tspan6110">склад2</tspan>
  </text>
</svg>
