<?xml version="1.0" encoding="UTF-8" standalone="no"?>
<!-- Created with Inkscape (http://www.inkscape.org/) -->
<svg
   xmlns:svg="http://www.w3.org/2000/svg"
   xmlns="http://www.w3.org/2000/svg"
   xmlns:xlink="http://www.w3.org/1999/xlink"
   version="1.0"
   width="74"
   height="74"
   id="svg2">
  <defs
     id="defs3">
    <linearGradient
       id="linearGradient3166">
      <stop
         id="stop3168"
         style="stop-color:#ffffff;stop-opacity:1"
         offset="0" />
      <stop
         id="stop3170"
         style="stop-color:#feb00a;stop-opacity:1"
         offset="1" />
    </linearGradient>
    <linearGradient
       x1="0"
       y1="22"
       x2="74"
       y2="22"
       id="linearGradient3172"
       xlink:href="#linearGradient3166"
       gradientUnits="userSpaceOnUse" />
  </defs>
  <path
     d="M 48,1 C 64,1 64,1 64,1 C 64,1 68.131798,3.4865526 69.5,5 C 70.897472,6.5458243 73,11 73,11 L 73,60 C 73,60 70.78295,63.693654 69.5,65 C 68.07044,66.455629 64,69 64,69 L 47,69 L 47,69 L 47,73 L 27,73 L 27,69 L 10,69 C 10,69 5.9295605,66.455629 4.5,65 C 3.2170498,63.693654 1,60 1,60 L 1,11 C 1,11 3.1025283,6.5458243 4.5,5 C 5.8682021,3.4865526 10,1 10,1 L 26,1 L 26,6 L 48,6 L 48,1 z"
     id="path9"
     style="fill:url(#linearGradient3172);fill-opacity:1;stroke:#a97513;stroke-width:2;stroke-opacity:1" />
</svg>
