<?xml version="1.0" encoding="UTF-8" standalone="no"?>
<!-- Created with Inkscape (http://www.inkscape.org/) -->
<svg
   xmlns:svg="http://www.w3.org/2000/svg"
   xmlns="http://www.w3.org/2000/svg"
   xmlns:xlink="http://www.w3.org/1999/xlink"
   version="1.0"
   width="87"
   height="60"
   id="svg2">
  <defs
     id="defs4">
    <linearGradient
       id="linearGradient3166">
      <stop
         id="stop3168"
         style="stop-color:#ffffff;stop-opacity:1"
         offset="0" />
      <stop
         id="stop3170"
         style="stop-color:#ffff00;stop-opacity:1"
         offset="1" />
    </linearGradient>
    <linearGradient
       x1="0"
       y1="22"
       x2="74"
       y2="22"
       id="linearGradient3172"
       xlink:href="#linearGradient3166"
       gradientUnits="userSpaceOnUse" />
  </defs>
  <g
     transform="translate(0,8.75)"
     id="g10">
    <path
       d="M 70,6 L 86.5,6 L 86.5,12 L 82.5,12 L 82.5,9 L 72,9"
       id="path12"
       style="fill:#f0e000;fill-opacity:1;stroke:#a08000;stroke-width:1.5;stroke-opacity:1" />
    <path
       d="M 70,33.5 L 86.5,33.5 L 86.5,27.5 L 82.5,27.5 L 82.5,30.5 L 72,30.5"
       id="path14"
       style="fill:#f0e000;fill-opacity:1;stroke:#a08000;stroke-width:1.5;stroke-opacity:1" />
  </g>
  <path
     d="M 48,1 C 64,1 64,1 64,1 L 69.5,5 L 73,11 L 73,45 L 69.5,51 L 64,55 L 47,55 L 47,55 L 47,59 L 27,59 L 27,55 L 10,55 L 4.5,51 L 1,45 L 1,11 L 4.5,5 L 10,1 L 26,1 L 26,6 L 48,6 L 48,1 z"
     id="path16"
     style="fill:url(#linearGradient3172);fill-opacity:1;stroke:#c0a000;stroke-width:2;stroke-opacity:1" />
  <text
     id="text18"
     style="font-size:18px;text-align:center;text-anchor:middle;font-family:Bitstream Vera Sans">
    <tspan
       x="37"
       y="20"
       id="tspan20"
       style="font-size:14px">speichere</tspan>
  </text>
  <text
     id="text22"
     style="font-size:18px;text-align:center;text-anchor:middle;font-family:Bitstream Vera Sans">
    <tspan
       x="39"
       y="34"
       id="tspan24"
       style="font-size:14px">in</tspan>
  </text>
  <text
     x="1.9078063"
     transform="scale(0.9735221,1.0271981)"
     id="text26"
     style="font-size:17.52339745px;text-align:center;text-anchor:middle;font-family:Bitstream Vera Sans">
    <tspan
       x="37.928123"
       y="46.729061"
       id="tspan28"
       style="font-size:13.62930965px">Rahmen 1</tspan>
  </text>
</svg>
