<?xml version="1.0" encoding="UTF-8" standalone="no"?>
<!-- Created with Inkscape (http://www.inkscape.org/) -->
<svg
   xmlns:svg="http://www.w3.org/2000/svg"
   xmlns="http://www.w3.org/2000/svg"
   xmlns:xlink="http://www.w3.org/1999/xlink"
   version="1.0"
   width="145"
   height="500"
   id="svg2">
  <defs
     id="defs4">
    <linearGradient
       id="linearGradient3876">
      <stop
         id="stop3878"
         style="stop-color:#ffffff;stop-opacity:1"
         offset="0" />
      <stop
         id="stop3880"
         style="stop-color:#00ffff;stop-opacity:1"
         offset="1" />
    </linearGradient>
    <linearGradient
       x1="18"
       y1="48"
       x2="67"
       y2="48"
       id="linearGradient4830"
       xlink:href="#linearGradient3876"
       gradientUnits="userSpaceOnUse" />
    <linearGradient
       x1="77"
       y1="48"
       x2="126"
       y2="48"
       id="linearGradient4838"
       xlink:href="#linearGradient3876"
       gradientUnits="userSpaceOnUse" />
    <linearGradient
       x1="43"
       y1="95"
       x2="92"
       y2="95"
       id="linearGradient4846"
       xlink:href="#linearGradient3876"
       gradientUnits="userSpaceOnUse" />
    <linearGradient
       x1="43"
       y1="147"
       x2="92"
       y2="147"
       id="linearGradient4854"
       xlink:href="#linearGradient3876"
       gradientUnits="userSpaceOnUse" />
    <linearGradient
       x1="43"
       y1="199"
       x2="92"
       y2="199"
       id="linearGradient4862"
       xlink:href="#linearGradient3876"
       gradientUnits="userSpaceOnUse" />
    <linearGradient
       x1="43"
       y1="258"
       x2="92"
       y2="258"
       id="linearGradient4870"
       xlink:href="#linearGradient3876"
       gradientUnits="userSpaceOnUse" />
    <linearGradient
       x1="37"
       y1="312"
       x2="107"
       y2="312"
       id="linearGradient4878"
       xlink:href="#linearGradient3876"
       gradientUnits="userSpaceOnUse"
       gradientTransform="translate(0,65)" />
    <linearGradient
       x1="37"
       y1="337"
       x2="107"
       y2="337"
       id="linearGradient4886"
       xlink:href="#linearGradient3876"
       gradientUnits="userSpaceOnUse"
       gradientTransform="translate(0,61)" />
    <linearGradient
       x1="37"
       y1="362"
       x2="107"
       y2="362"
       id="linearGradient4894"
       xlink:href="#linearGradient3876"
       gradientUnits="userSpaceOnUse"
       gradientTransform="translate(0,57)" />
    <linearGradient
       x1="37"
       y1="337"
       x2="107"
       y2="337"
       id="linearGradient2501"
       xlink:href="#linearGradient3876"
       gradientUnits="userSpaceOnUse"
       gradientTransform="translate(0,95)" />
    <linearGradient
       x1="43"
       y1="95"
       x2="92"
       y2="95"
       id="linearGradient2560"
       xlink:href="#linearGradient3876"
       gradientUnits="userSpaceOnUse" />
    <linearGradient
       x1="43"
       y1="147"
       x2="92"
       y2="147"
       id="linearGradient2562"
       xlink:href="#linearGradient3876"
       gradientUnits="userSpaceOnUse" />
    <linearGradient
       x1="43"
       y1="199"
       x2="92"
       y2="199"
       id="linearGradient2580"
       xlink:href="#linearGradient3876"
       gradientUnits="userSpaceOnUse" />
    <linearGradient
       x1="43"
       y1="199"
       x2="92"
       y2="199"
       id="linearGradient2582"
       xlink:href="#linearGradient3876"
       gradientUnits="userSpaceOnUse" />
    <linearGradient
       x1="37"
       y1="337"
       x2="107"
       y2="337"
       id="linearGradient2584"
       xlink:href="#linearGradient3876"
       gradientUnits="userSpaceOnUse"
       gradientTransform="translate(0,95)" />
    <linearGradient
       x1="37"
       y1="337"
       x2="107"
       y2="337"
       id="linearGradient2598"
       xlink:href="#linearGradient3876"
       gradientUnits="userSpaceOnUse" />
    <linearGradient
       x1="37"
       y1="362"
       x2="107"
       y2="362"
       id="linearGradient2600"
       xlink:href="#linearGradient3876"
       gradientUnits="userSpaceOnUse" />
    <linearGradient
       x1="37"
       y1="362"
       x2="107"
       y2="362"
       id="linearGradient2627"
       xlink:href="#linearGradient3876"
       gradientUnits="userSpaceOnUse" />
    <linearGradient
       x1="37"
       y1="337"
       x2="107"
       y2="337"
       id="linearGradient2629"
       xlink:href="#linearGradient3876"
       gradientUnits="userSpaceOnUse" />
    <linearGradient
       x1="37"
       y1="362"
       x2="107"
       y2="362"
       id="linearGradient2631"
       xlink:href="#linearGradient3876"
       gradientUnits="userSpaceOnUse" />
    <linearGradient
       x1="37"
       y1="337"
       x2="107"
       y2="337"
       id="linearGradient2633"
       xlink:href="#linearGradient3876"
       gradientUnits="userSpaceOnUse" />
    <linearGradient
       x1="43"
       y1="199"
       x2="92"
       y2="199"
       id="linearGradient2521"
       xlink:href="#linearGradient3876"
       gradientUnits="userSpaceOnUse" />
    <linearGradient
       x1="43"
       y1="199"
       x2="92"
       y2="199"
       id="linearGradient2523"
       xlink:href="#linearGradient3876"
       gradientUnits="userSpaceOnUse" />
    <linearGradient
       x1="43"
       y1="199"
       x2="92"
       y2="199"
       id="linearGradient2530"
       xlink:href="#linearGradient3876"
       gradientUnits="userSpaceOnUse" />
    <linearGradient
       x1="43"
       y1="199"
       x2="92"
       y2="199"
       id="linearGradient2539"
       xlink:href="#linearGradient3876"
       gradientUnits="userSpaceOnUse" />
    <linearGradient
       x1="37"
       y1="362"
       x2="107"
       y2="362"
       id="linearGradient2601"
       xlink:href="#linearGradient3876"
       gradientUnits="userSpaceOnUse"
       gradientTransform="translate(0,-2)" />
  </defs>
  <path
     d="M 0.5,0.5 L 0.5,486 L 3.6,492 L 8.5,496 L 15.2,499 L 129,499 L 135.8,496 L 141.8,492 L 144.5,486 L 144.5,0.5 L 0.5,0.5 z"
     id="path32"
     style="fill:#ffd000;fill-opacity:1;stroke:#e0a000;stroke-width:1;stroke-opacity:1" />
  <rect
     width="123.6"
     height="0.14"
     x="10.7"
     y="363"
     id="rect34"
     style="opacity:1;fill:#ffd000;fill-opacity:1;stroke:#e0a000;stroke-width:1;stroke-opacity:1" />
  <rect
     width="123.6"
     height="0.14"
     x="10.7"
     y="364"
     id="rect36"
     style="opacity:1;fill:#ffd000;fill-opacity:1;stroke:#fff080;stroke-width:1;stroke-opacity:1" />
  <rect
     width="123.6"
     height="0.14"
     x="10.7"
     y="365"
     id="rect38"
     style="opacity:1;fill:#ffd000;fill-opacity:1;stroke:#ffffc4;stroke-width:1;stroke-opacity:1" />
  <rect
     width="137.5"
     height="0.14"
     x="3.7"
     y="-29"
     transform="scale(1,-1)"
     id="rect40"
     style="opacity:1;fill:#ffd000;fill-opacity:1;stroke:#e0a000;stroke-width:1;stroke-opacity:1" />
  <rect
     width="137.5"
     height="0.14"
     x="3.7"
     y="-27.799999"
     transform="scale(1,-1)"
     id="rect42"
     style="opacity:1;fill:#ffd000;fill-opacity:1;stroke:#fff080;stroke-width:1;stroke-opacity:1" />
  <rect
     width="137.5"
     height="0.14"
     x="3.7"
     y="-474.79999"
     transform="scale(1,-1)"
     id="rect44"
     style="opacity:1;fill:#ffd000;fill-opacity:1;stroke:#e0a000;stroke-width:1;stroke-opacity:1" />
  <rect
     width="137.5"
     height="0.14"
     x="3.7"
     y="-473.5"
     transform="scale(1,-1)"
     id="rect46"
     style="opacity:1;fill:#ffd000;fill-opacity:1;stroke:#fff080;stroke-width:1;stroke-opacity:1" />
  <path
     d="M 80.9,486.4 C 80.9,490.9 77.1,494.5 72.5,494.5 C 67.9,494.5 64.1,490.09 64.1,486.4 C 64.1,481.9 67.9,478.3 72.5,478.3 C 77.1,478.3 80.9,481.9 80.9,486.4 L 80.9,486.4 z"
     id="path48"
     style="fill:#ff4040;fill-opacity:1;stroke:#ff4040;stroke-width:1;stroke-opacity:1" />
  <text
     id="text50"
     style="font-size:12px;font-weight:bold;fill:#ffffff;font-family:Bitstream Vera Sans">
    <tspan
       x="68"
       y="491"
       id="tspan52"
       style="font-size:12px;font-weight:bold;fill:#ffffff">X</tspan>
  </text>
  <text
     id="text54"
     style="font-size:12px;text-align:center;text-anchor:middle;font-family:Bitstream Vera Sans">
    <tspan
       x="72.5"
       y="21"
       id="tspan56"
       style="font-size:20px">Pluma</tspan>
  </text>
  <g
     id="g58">
    <path
       d="M 50,34 C 60,34 60,34 60,34 L 64,37 L 66,41 L 66,53 L 64,57 L 60,59 L 49,59 L 49,59 L 49,62 L 36,62 L 36,59 L 24,59 L 21,57 L 18,53 L 18,41 L 21,37 L 24,34 L 35,34 L 35,37 L 50,37 L 50,34 z"
       id="path60"
       style="fill:url(#linearGradient4830);fill-opacity:1;stroke:#00a0a0;stroke-width:1;stroke-opacity:1" />
    <text
       id="text62"
       style="font-size:12px;text-align:center;text-anchor:middle;font-family:Bitstream Vera Sans">
      <tspan
         x="43"
         y="46"
         id="tspan64"
         style="font-size:11px">subir</tspan>
    </text>
    <text
       id="text66"
       style="font-size:12px;text-align:center;text-anchor:middle;font-family:Bitstream Vera Sans">
      <tspan
         x="43"
         y="56"
         id="tspan68"
         style="font-size:11px">pluma</tspan>
    </text>
  </g>
  <g
     id="g70">
    <path
       d="M 109,34 C 120,34 120,34 120,34 L 123,37 L 126,41 L 126,53 L 123,57 L 120,59 L 108,59 L 108,59 L 108,62 L 95,62 L 95,59 L 84,59 L 80,57 L 78,53 L 78,41 L 80,37 L 84,34 L 94,34 L 94,37 L 109,37 L 109,34 z"
       id="path72"
       style="fill:url(#linearGradient4838);fill-opacity:1;stroke:#00a0a0;stroke-width:1.33340001;stroke-opacity:1" />
    <text
       id="text74"
       style="font-size:12px;text-align:center;text-anchor:middle;font-family:Bitstream Vera Sans">
      <tspan
         x="101"
         y="46"
         id="tspan76"
         style="font-size:11px">bajar</tspan>
    </text>
    <text
       id="text78"
       style="font-size:12px;text-align:center;text-anchor:middle;font-family:Bitstream Vera Sans">
      <tspan
         x="101"
         y="56"
         id="tspan80"
         style="font-size:11px">pluma</tspan>
    </text>
  </g>
  <g
     transform="translate(0,-6)"
     id="g82">
    <path
       d="M 90,85 L 101,85 L 101,89 L 98,89 L 98,87 L 91,87"
       id="path84"
       style="fill:#00e0e0;fill-opacity:1;stroke:#008080;stroke-width:1.00004995;stroke-opacity:1" />
    <path
       d="M 90,103 L 101,103 L 101,99 L 98,99 L 98,101 L 91,101"
       id="path86"
       style="fill:#00e0e0;fill-opacity:1;stroke:#008080;stroke-width:1.00004995;stroke-opacity:1" />
    <path
       d="M 75,76 C 86,76 86,76 86,76 L 89,78 L 92,82 L 92,105 L 89,109 L 86,112 L 74,112 L 74,112 L 74,114 L 61,114 L 61,112 L 50,112 L 46,109 L 44,105 L 44,82 L 46,78 L 50,76 L 60,76 L 60,79 L 75,79 L 75,76 z"
       id="path88"
       style="fill:url(#linearGradient2560);fill-opacity:1;stroke:#00a0a0;stroke-width:1.33340001;stroke-opacity:1" />
    <text
       id="text65"
       style="font-size:12px;text-align:center;text-anchor:middle;font-family:Bitstream Vera Sans">
      <tspan
         x="68"
         y="93"
         id="tspan91"
         style="font-size:11px">fijar</tspan>
    </text>
    <text
       id="text69"
       style="font-size:12px;text-align:center;text-anchor:middle;font-family:Bitstream Vera Sans">
      <tspan
         x="68"
         y="106"
         id="tspan94"
         style="font-size:11px">tama単o</tspan>
    </text>
  </g>
  <g
     transform="translate(0,-12)"
     id="g96">
    <path
       d="M 90,137 L 101,137 L 101,141 L 98,141 L 98,139 L 91,139"
       id="path98"
       style="fill:#00e0e0;fill-opacity:1;stroke:#008080;stroke-width:1;stroke-opacity:1" />
    <path
       d="M 90,155 L 101,155 L 101,151 L 98,151 L 98,153 L 91,153"
       id="path100"
       style="fill:#00e0e0;fill-opacity:1;stroke:#008080;stroke-width:1;stroke-opacity:1" />
    <path
       d="M 75,128 C 86,128 86,128 86,128 L 89,130 L 92,134 L 92,157 L 89,161 L 86,164 L 74,164 L 74,164 L 74,166 L 61,166 L 61,164 L 50,164 L 46,161 L 44,157 L 44,134 L 46,130 L 50,128 L 60,128 L 60,131 L 75,131 L 75,128 z"
       id="path102"
       style="fill:url(#linearGradient2562);fill-opacity:1;stroke:#00a0a0;stroke-width:1;stroke-opacity:1" />
    <text
       id="text79"
       style="font-size:12px;text-align:center;text-anchor:middle;font-family:Bitstream Vera Sans">
      <tspan
         x="68"
         y="145"
         id="tspan105"
         style="font-size:11px">fijar</tspan>
    </text>
    <text
       id="text83"
       style="font-size:12px;text-align:center;text-anchor:middle;font-family:Bitstream Vera Sans">
      <tspan
         x="68"
         y="158"
         id="tspan108"
         style="font-size:11px">color</tspan>
    </text>
  </g>
  <g
     id="g110">
    <path
       d="M 90,171 L 101,171 L 101,175 L 98,175 L 98,173 L 91,173"
       id="path112"
       style="fill:#00e0e0;fill-opacity:1;stroke:#008080;stroke-width:1;stroke-opacity:1" />
    <path
       d="M 90,189 L 101,189 L 101,185 L 98,185 L 98,187 L 91,187"
       id="path114"
       style="fill:#00e0e0;fill-opacity:1;stroke:#008080;stroke-width:1;stroke-opacity:1" />
    <path
       d="M 75,162 C 86,162 86,162 86,162 L 89,164 L 92,168 L 92,191 L 89,195 L 86,198 L 74,198 L 74,198 L 74,200 L 61,200 L 61,198 L 50,198 L 46,195 L 44,191 L 44,168 L 46,164 L 50,162 L 60,162 L 60,165 L 75,165 L 75,162 z"
       id="path116"
       style="fill:url(#linearGradient2539);fill-opacity:1;stroke:#00a0a0;stroke-width:1;stroke-opacity:1" />
    <text
       id="text93"
       style="font-size:12px;text-align:center;text-anchor:middle;font-family:Bitstream Vera Sans">
      <tspan
         x="68"
         y="177"
         id="tspan95"
         style="font-size:11px">fijar</tspan>
    </text>
    <text
       id="text97"
       style="font-size:12px;text-align:center;text-anchor:middle;font-family:Bitstream Vera Sans">
      <tspan
         x="68"
         y="190"
         id="tspan99"
         style="font-size:11px">tono</tspan>
    </text>
  </g>
  <g
     transform="translate(0,-24)"
     id="g122">
    <path
       d="M 89,260 L 100,260 L 100,264 L 98,264 L 98,262 L 91,262"
       id="path124"
       style="fill:#00e0e0;fill-opacity:1;stroke:#008080;stroke-width:1;stroke-opacity:1" />
    <path
       d="M 89,278 L 100,278 L 100,274 L 98,274 L 98,276 L 91,276"
       id="path126"
       style="fill:#00e0e0;fill-opacity:1;stroke:#008080;stroke-width:1;stroke-opacity:1" />
    <path
       d="M 90,235 L 101,235 L 101,239 L 98,239 L 98,237 L 91,237"
       id="path128"
       style="fill:#00e0e0;fill-opacity:1;stroke:#008080;stroke-width:1;stroke-opacity:1" />
    <path
       d="M 90,253 L 101,253 L 101,249 L 98,249 L 98,251 L 91,251"
       id="path130"
       style="fill:#00e0e0;fill-opacity:1;stroke:#008080;stroke-width:1;stroke-opacity:1" />
    <path
       d="M 75,232 C 86,232 86,232 86,232 L 89,234 L 92,238 L 92,276 L 89,279 L 86,282 L 74,282 L 74,282 L 74,284 L 61,284 L 61,282 L 50,282 L 46,279 L 44,276 L 44,238 L 46,234 L 50,232 L 60,232 L 60,235 L 75,235 L 75,232 z"
       id="path132"
       style="fill:url(#linearGradient4870);fill-opacity:1;stroke:#00a0a0;stroke-width:1;stroke-opacity:1" />
    <text
       id="text111"
       style="font-size:12px;text-align:center;text-anchor:middle;font-family:Bitstream Vera Sans">
      <tspan
         x="68"
         y="255"
         id="tspan113"
         style="font-size:11px">pintar</tspan>
    </text>
    <text
       id="text115"
       style="font-size:12px;text-align:center;text-anchor:middle;font-family:Bitstream Vera Sans">
      <tspan
         x="68"
         y="268"
         id="tspan117"
         style="font-size:11px">fondo</tspan>
    </text>
    <text
       id="text119"
       style="font-size:12px;text-align:end;text-anchor:end;font-family:Bitstream Vera Sans">
      <tspan
         x="91"
         y="243"
         id="tspan121"
         style="font-size:8px">color</tspan>
    </text>
    <text
       id="text123"
       style="font-size:12px;text-align:end;text-anchor:end;font-family:Bitstream Vera Sans">
      <tspan
         x="91"
         y="277"
         id="tspan125"
         style="font-size:8px">tono</tspan>
    </text>
  </g>
  <g
     transform="translate(0,-2)"
     id="g142">
    <path
       d="M 37,372 L 41,372 L 41,374 L 45,374 L 45,372 L 107,372 L 107,385 L 45,385 L 45,382 L 41,382 L 41,385 L 37,385 L 37,372 z"
       id="path144"
       style="fill:url(#linearGradient4878);fill-opacity:1;stroke:#00a0a0;stroke-width:1;stroke-opacity:1" />
    <text
       x="4"
       y="65"
       id="text146"
       style="font-size:12px;text-align:center;text-anchor:middle;font-family:Bitstream Vera Sans">
      <tspan
         x="76"
         y="381"
         id="tspan148"
         style="font-size:10.5px">tama単o</tspan>
    </text>
  </g>
  <g
     transform="translate(0,-2)"
     id="g150">
    <path
       d="M 37,393 L 41,393 L 41,395 L 45,395 L 45,393 L 107,393 L 107,406 L 45,406 L 45,403 L 41,403 L 41,406 L 37,406 L 37,393 z"
       id="path152"
       style="fill:url(#linearGradient2633);fill-opacity:1;stroke:#00a0a0;stroke-width:1;stroke-opacity:1" />
    <text
       x="4"
       y="61"
       id="text154"
       style="font-size:12px;text-align:center;text-anchor:middle;font-family:Bitstream Vera Sans">
      <tspan
         x="76"
         y="402"
         id="tspan156"
         style="font-size:10.5px">color</tspan>
    </text>
  </g>
  <g
     transform="translate(0,-1)"
     id="g158">
    <path
       d="M 37,413 L 41,413 L 41,416 L 45,416 L 45,413 L 107,413 L 107,427 L 45,427 L 45,424 L 41,424 L 41,427 L 37,427 L 37,413 z"
       id="path160"
       style="fill:url(#linearGradient2631);fill-opacity:1;stroke:#00a0a0;stroke-width:1;stroke-opacity:1" />
    <text
       x="4"
       y="57"
       id="text162"
       style="font-size:10px;text-align:center;text-anchor:middle;font-family:Bitstream Vera Sans">
      <tspan
         x="76"
         y="423"
         id="tspan164"
         style="font-size:10.5px">tono</tspan>
    </text>
  </g>
  <g
     transform="translate(0,-30)"
     id="g166">
    <path
       d="M 90,309 L 101,309 L 101,313 L 99,313 L 99,311 L 91,311"
       id="path168"
       style="fill:#00e0e0;fill-opacity:1;stroke:#008080;stroke-width:1;stroke-miterlimit:4;stroke-dasharray:none;stroke-opacity:1" />
    <path
       d="M 90,327 L 101,327 L 101,323 L 99,323 L 99,325 L 91,325"
       id="path170"
       style="fill:#00e0e0;fill-opacity:1;stroke:#008080;stroke-width:1;stroke-miterlimit:4;stroke-dasharray:none;stroke-opacity:1" />
    <path
       d="M 75,300 C 86,300 86,300 86,300 L 90,302 L 92,306 L 92,329 L 90,333 L 86,336 L 75,336 L 75,336 L 75,339 L 61,339 L 61,336 L 50,336 L 46,333 L 44,329 L 44,306 L 46,302 L 50,300 L 61,300 L 61,303 L 75,303 L 75,300 z"
       id="path172"
       style="fill:url(#linearGradient2584);fill-opacity:1;stroke:#00a0a0;stroke-width:1;stroke-miterlimit:4;stroke-dasharray:none;stroke-opacity:1" />
    <text
       id="text174"
       style="font-size:10px;text-align:center;text-anchor:middle;font-family:Bitstream Vera Sans">
      <tspan
         x="68"
         y="314"
         id="tspan176"
         style="font-size:10px">fijar</tspan>
    </text>
    <text
       id="text178"
       style="font-size:10.5px;text-align:center;text-anchor:middle;font-family:Bitstream Vera Sans">
      <tspan
         x="68"
         y="323"
         id="tspan180"
         style="font-size:10px">tama単o</tspan>
    </text>
    <text
       id="text182"
       style="font-size:10.5px;text-align:center;text-anchor:middle;font-family:Bitstream Vera Sans">
      <tspan
         x="68"
         y="332"
         id="tspan184"
         style="font-size:10px">del texto</tspan>
    </text>
  </g>
  <g
     transform="translate(0,18)"
     id="g186">
    <path
       d="M 90,309 L 101,309 L 101,313 L 99,313 L 99,311 L 91,311"
       id="path188"
       style="fill:#00e0e0;fill-opacity:1;stroke:#008080;stroke-width:1;stroke-miterlimit:4;stroke-dasharray:none;stroke-opacity:1" />
    <path
       d="M 90,327 L 101,327 L 101,323 L 99,323 L 99,325 L 91,325"
       id="path190"
       style="fill:#00e0e0;fill-opacity:1;stroke:#008080;stroke-width:1;stroke-miterlimit:4;stroke-dasharray:none;stroke-opacity:1" />
    <path
       d="M 75,300 C 86,300 86,300 86,300 L 90,302 L 92,306 L 92,329 L 90,333 L 86,336 L 75,336 L 75,336 L 75,339 L 61,339 L 61,336 L 50,336 L 46,333 L 44,329 L 44,306 L 46,302 L 50,300 L 61,300 L 61,303 L 75,303 L 75,300 z"
       id="path192"
       style="fill:url(#linearGradient2501);fill-opacity:1;stroke:#00a0a0;stroke-width:1;stroke-miterlimit:4;stroke-dasharray:none;stroke-opacity:1" />
    <text
       id="text194"
       style="font-size:10.5px;text-align:center;text-anchor:middle;font-family:Bitstream Vera Sans">
      <tspan
         x="68"
         y="314"
         id="tspan196"
         style="font-size:10px">fijar</tspan>
    </text>
    <text
       id="text198"
       style="font-size:10.5px;text-align:center;text-anchor:middle;font-family:Bitstream Vera Sans">
      <tspan
         x="68"
         y="323"
         id="tspan200"
         style="font-size:10px">el color</tspan>
    </text>
    <text
       id="text202"
       style="font-size:10.5px;text-align:center;text-anchor:middle;font-family:Bitstream Vera Sans">
      <tspan
         x="68"
         y="332"
         id="tspan204"
         style="font-size:10px">del texto</tspan>
    </text>
  </g>
  <g
     transform="translate(0,-2)"
     id="g206">
    <path
       d="M 37,435 L 41,435 L 41,438 L 45,438 L 45,435 L 107,435 L 107,449 L 45,449 L 45,446 L 41,446 L 41,449 L 37,449 L 37,435 z"
       id="path208"
       style="fill:url(#linearGradient2629);fill-opacity:1;stroke:#00a0a0;stroke-width:1;stroke-opacity:1" />
    <text
       id="text210"
       style="font-size:12px;text-align:center;text-anchor:middle;font-family:Bitstream Vera Sans">
      <tspan
         x="76"
         y="445"
         id="tspan212"
         style="font-size:10px">color texto</tspan>
    </text>
  </g>
  <path
     d="M 37,454 L 41,454 L 41,457 L 45,457 L 45,454 L 107,454 L 107,468 L 45,468 L 45,465 L 41,465 L 41,468 L 37,468 L 37,454 z"
     id="path216"
     style="fill:url(#linearGradient2601);fill-opacity:1;stroke:#00a0a0;stroke-width:1;stroke-opacity:1" />
  <text
     x="8.3861523"
     y="-1.8933681"
     transform="scale(0.9466841,1.0563186)"
     id="text218"
     style="font-size:9.94018269px;text-align:center;text-anchor:middle;font-family:Bitstream Vera Sans">
    <tspan
       x="80.334145"
       y="439.26141"
       id="tspan220"
       style="font-size:9.46684074px">tama単o texto</tspan>
  </text>
</svg>
