<?xml version="1.0" encoding="UTF-8" standalone="no"?>
<svg
   xmlns="http://www.w3.org/2000/svg"
   width="145"
   height="404"
   version="1.0">
  <rect
     style="opacity:1;fill:#ffffff;fill-opacity:1;stroke:none;stroke-width:4;stroke-opacity:1"
     width="143"
     height="404"
     x="1"
     y="0" />
  <rect
     style="opacity:1;fill:#080808;fill-opacity:1;stroke:none;stroke-width:1;stroke-opacity:1"
     width="145"
     height="29"
     x="0"
     y="0" />
  <path
     style="fill:#080808;fill-opacity:1;stroke:none;stroke-width:1px;stroke-opacity:1"
     d="M 0.5,374.5 L 0.5,390.5 L 3.5,397.5 L 8.5,401.5 L 15,404 L 129,404 L 136,401.5 L 142,396.5 L 145,388.5 L 145,374.5 L 0.5,374.5 z" />
  <path
     style="fill:#101010;fill-opacity:1;stroke:#101010;stroke-width:1;stroke-opacity:1"
     d="M 50,33 C 61,33 61,33 61,33 L 64,36 L 67,40 L 67,53 L 64,56 L 61,59 L 49,59 L 49,59 L 49,61 L 36,61 L 36,59 L 25,59 L 21,56 L 19,53 L 19,40 L 21,36 L 25,33 L 35,33 L 35,37 L 50,37 L 50,33 z" />
  <path
     style="fill:#181818;fill-opacity:1;stroke:#181818;stroke-width:1;stroke-opacity:1"
     d="M 109,33 C 120,33 120,33 120,33 L 123,36 L 126,40 L 126,53 L 123,56 L 120,59 L 108,59 L 108,59 L 108,61 L 95,61 L 95,59 L 84,59 L 80,56 L 78,53 L 78,40 L 80,36 L 84,33 L 94,33 L 94,37 L 109,37 L 109,33 z" />
  <path
     style="fill:#202020;fill-opacity:1;stroke:#202020;stroke-width:1;stroke-opacity:1"
     d="M 90,84 L 101,84 L 101,88 L 98,88 L 98,86 L 91,86" />
  <path
     style="fill:#202020;fill-opacity:1;stroke:#202020;stroke-width:1;stroke-opacity:1"
     d="M 90,102 L 101,102 L 101,98 L 98,98 L 98,100 L 91,100" />
  <path
     style="fill:#202020;fill-opacity:1;stroke:#202020;stroke-width:1;stroke-opacity:1"
     d="M 75,75 C 86,75 86,75 86,75 L 89,77 L 92,81 L 92,104 L 89,108 L 86,111 L 74,111 L 74,111 L 74,113 L 61,113 L 61,111 L 50,111 L 46,108 L 44,104 L 44,81 L 46,77 L 50,75 L 60,75 L 60,78 L 75,78 L 75,75 z" />
  <path
     style="fill:#282828;fill-opacity:1;stroke:#282828;stroke-width:1;stroke-opacity:1"
     d="M 90,136 L 101,136 L 101,140 L 98,140 L 98,138 L 91,138" />
  <path
     style="fill:#282828;fill-opacity:1;stroke:#282828;stroke-width:1;stroke-opacity:1"
     d="M 90,154 L 101,154 L 101,150 L 98,150 L 98,152 L 91,152" />
  <path
     style="fill:#282828;fill-opacity:1;stroke:#282828;stroke-width:1;stroke-opacity:1"
     d="M 75,127 C 86,127 86,127 86,127 L 89,129 L 92,133 L 92,156 L 89,160 L 86,163 L 74,163 L 74,163 L 74,165 L 61,165 L 61,163 L 50,163 L 46,160 L 44,156 L 44,133 L 46,129 L 50,127 L 60,127 L 60,130 L 75,130 L 75,127 z" />
  <path
     style="fill:#303030;fill-opacity:1;stroke:#303030;stroke-width:1;stroke-opacity:1"
     d="M 90,188 L 101,188 L 101,192 L 98,192 L 98,190 L 91,190" />
  <path
     style="fill:#303030;fill-opacity:1;stroke:#303030;stroke-width:1;stroke-opacity:1"
     d="M 90,206 L 101,206 L 101,202 L 98,202 L 98,204 L 91,204" />
  <path
     style="fill:#303030;fill-opacity:1;stroke:#303030;stroke-width:1;stroke-opacity:1"
     d="M 75,179 C 86,179 86,179 86,179 L 89,182 L 92,186 L 92,208 L 89,212 L 86,215 L 74,215 L 74,215 L 74,218 L 61,218 L 61,215 L 50,215 L 46,212 L 44,208 L 44,186 L 46,182 L 50,179 L 60,179 L 60,182 L 75,182 L 75,179 z" />
  <path
     style="fill:#383838;fill-opacity:1;stroke:#383838;stroke-width:1;stroke-opacity:1"
     d="M 90,259 L 101,259 L 101,263 L 98,263 L 98,261 L 91,261" />
  <path
     style="fill:#383838;fill-opacity:1;stroke:#383838;stroke-width:1;stroke-opacity:1"
     d="M 90,277 L 101,277 L 101,273 L 98,273 L 98,275 L 91,275" />
  <path
     style="fill:#383838;fill-opacity:1;stroke:#383838;stroke-width:1;stroke-opacity:1"
     d="M 90,234 L 101,234 L 101,238 L 98,238 L 98,236 L 91,236" />
  <path
     style="fill:#383838;fill-opacity:1;stroke:#383838;stroke-width:1;stroke-opacity:1"
     d="M 90,253 L 101,253 L 101,249 L 98,249 L 98,251 L 91,251" />
  <path
     style="fill:#383838;fill-opacity:1;stroke:#383838;stroke-width:1;stroke-opacity:1"
     d="M 75,231 C 86,231 86,231 86,231 L 89,234 L 92,238 L 92,275 L 89,278 L 86,281 L 74,281 L 74,281 L 74,284 L 61,284 L 61,281 L 50,281 L 46,278 L 44,275 L 44,238 L 46,234 L 50,231 L 60,231 L 60,234 L 75,234 L 75,231 z" />
  <path
     style="fill:#505050;fill-opacity:1;stroke:#505050;stroke-width:1;stroke-opacity:1"
     d="M 38,355 L 41,355 L 41,357 L 46,357 L 46,355 L 107,355 L 107,368 L 46,368 L 46,365 L 41,365 L 41,368 L 38,368 L 38,355 z" />
  <path
     style="fill:#404040;fill-opacity:1;stroke:#404040;stroke-width:1;stroke-opacity:1"
     d="M 38,305 L 41,305 L 41,307 L 46,307 L 46,305 L 107,305 L 107,318 L 46,318 L 46,315 L 41,315 L 41,318 L 38,318 L 38,305 z" />
  <path
     style="fill:#484848;fill-opacity:1;stroke:#484848;stroke-width:1;stroke-opacity:1"
     d="M 38,330 L 41,330 L 41,332 L 46,332 L 46,330 L 107,330 L 107,343 L 46,343 L 46,340 L 41,340 L 41,343 L 38,343 L 38,330 z" />
</svg>
