<?xml version="1.0" encoding="UTF-8" standalone="no"?>
<!-- Created with Inkscape (http://www.inkscape.org/) -->
<svg
   xmlns:svg="http://www.w3.org/2000/svg"
   xmlns="http://www.w3.org/2000/svg"
   version="1.0"
   width="145"
   height="500"
   id="svg3575">
  <defs
     id="defs3622" />
  <rect
     width="143"
     height="404"
     x="1"
     y="0"
     id="rect3577"
     style="opacity:1;fill:#ffffff;fill-opacity:1;stroke:none;stroke-width:4;stroke-opacity:1" />
  <rect
     width="145"
     height="29"
     x="0"
     y="0"
     id="rect3579"
     style="opacity:1;fill:#080808;fill-opacity:1;stroke:none;stroke-width:1;stroke-opacity:1" />
  <path
     d="M 0.5,470.5 L 0.5,486.5 L 3.5,493.5 L 8.5,497.5 L 15,500 L 129,500 L 136,497.5 L 142,492.5 L 145,484.5 L 145,470.5 L 0.5,470.5 z"
     id="path3581"
     style="fill:#080808;fill-opacity:1;stroke:none;stroke-width:1px;stroke-opacity:1" />
  <path
     d="M 50,33 C 61,33 61,33 61,33 L 64,36 L 67,40 L 67,53 L 64,56 L 61,59 L 49,59 L 49,59 L 49,61 L 36,61 L 36,59 L 25,59 L 21,56 L 19,53 L 19,40 L 21,36 L 25,33 L 35,33 L 35,37 L 50,37 L 50,33 z"
     id="path3583"
     style="fill:#101010;fill-opacity:1;stroke:none;stroke-width:1;stroke-opacity:1" />
  <path
     d="M 109,33 C 120,33 120,33 120,33 L 123,36 L 126,40 L 126,53 L 123,56 L 120,59 L 108,59 L 108,59 L 108,61 L 95,61 L 95,59 L 84,59 L 80,56 L 78,53 L 78,40 L 80,36 L 84,33 L 94,33 L 94,37 L 109,37 L 109,33 z"
     id="path3585"
     style="fill:#181818;fill-opacity:1;stroke:none;stroke-width:1;stroke-opacity:1" />
  <path
     d="M 90,78 L 101,78 L 101,82 L 98,82 L 98,80 L 91,80"
     id="path3587"
     style="fill:#202020;fill-opacity:1;stroke:none;stroke-width:1;stroke-opacity:1" />
  <path
     d="M 90,96 L 101,96 L 101,92 L 98,92 L 98,94 L 91,94"
     id="path3589"
     style="fill:#202020;fill-opacity:1;stroke:none;stroke-width:1;stroke-opacity:1" />
  <path
     d="M 75,69 C 86,69 86,69 86,69 L 89,71 L 92,75 L 92,98 L 89,102 L 86,105 L 74,105 L 74,105 L 74,107 L 61,107 L 61,105 L 50,105 L 46,102 L 44,98 L 44,75 L 46,71 L 50,69 L 60,69 L 60,72 L 75,72 L 75,69 z"
     id="path3591"
     style="fill:#202020;fill-opacity:1;stroke:none;stroke-width:1;stroke-opacity:1" />
  <path
     d="M 90,124 L 101,124 L 101,128 L 98,128 L 98,126 L 91,126"
     id="path3593"
     style="fill:#282828;fill-opacity:1;stroke:none;stroke-width:1;stroke-opacity:1" />
  <path
     d="M 90,142 L 101,142 L 101,138 L 98,138 L 98,140 L 91,140"
     id="path3595"
     style="fill:#282828;fill-opacity:1;stroke:none;stroke-width:1;stroke-opacity:1" />
  <path
     d="M 75,115 C 86,115 86,115 86,115 L 89,117 L 92,121 L 92,144 L 89,148 L 86,151 L 74,151 L 74,151 L 74,153 L 61,153 L 61,151 L 50,151 L 46,148 L 44,144 L 44,121 L 46,117 L 50,115 L 60,115 L 60,118 L 75,118 L 75,115 z"
     id="path3597"
     style="fill:#282828;fill-opacity:1;stroke:none;stroke-width:1;stroke-opacity:1" />
  <path
     d="M 90,170 L 101,170 L 101,174 L 98,174 L 98,172 L 91,172"
     id="path3599"
     style="fill:#303030;fill-opacity:1;stroke:none;stroke-width:1;stroke-opacity:1" />
  <path
     d="M 90,188 L 101,188 L 101,184 L 98,184 L 98,186 L 91,186"
     id="path3601"
     style="fill:#303030;fill-opacity:1;stroke:none;stroke-width:1;stroke-opacity:1" />
  <path
     d="M 75,161 C 86,161 86,161 86,161 L 89,164 L 92,168 L 92,190 L 89,194 L 86,197 L 74,197 L 74,197 L 74,200 L 61,200 L 61,197 L 50,197 L 46,194 L 44,190 L 44,168 L 46,164 L 50,161 L 60,161 L 60,164 L 75,164 L 75,161 z"
     id="path3603"
     style="fill:#303030;fill-opacity:1;stroke:none;stroke-width:1;stroke-opacity:1" />
  <path
     d="M 90,235 L 101,235 L 101,239 L 98,239 L 98,237 L 91,237"
     id="path3605"
     style="fill:#383838;fill-opacity:1;stroke:none;stroke-width:1;stroke-opacity:1" />
  <path
     d="M 90,253 L 101,253 L 101,249 L 98,249 L 98,251 L 91,251"
     id="path3607"
     style="fill:#383838;fill-opacity:1;stroke:none;stroke-width:1;stroke-opacity:1" />
  <path
     d="M 90,210 L 101,210 L 101,214 L 98,214 L 98,212 L 91,212"
     id="path3609"
     style="fill:#383838;fill-opacity:1;stroke:none;stroke-width:1;stroke-opacity:1" />
  <path
     d="M 90,229 L 101,229 L 101,225 L 98,225 L 98,227 L 91,227"
     id="path3611"
     style="fill:#383838;fill-opacity:1;stroke:none;stroke-width:1;stroke-opacity:1" />
  <path
     d="M 75,207 C 86,207 86,207 86,207 L 89,210 L 92,214 L 92,251 L 89,254 L 86,257 L 74,257 L 74,257 L 74,260 L 61,260 L 61,257 L 50,257 L 46,254 L 44,251 L 44,214 L 46,210 L 50,207 L 60,207 L 60,210 L 75,210 L 75,207 z"
     id="path3613"
     style="fill:#383838;fill-opacity:1;stroke:none;stroke-width:1;stroke-opacity:1" />
  <path
     d="M 38,456 L 41,456 L 41,458 L 46,458 L 46,456 L 107,456 L 107,469 L 46,469 L 46,466 L 41,466 L 41,469 L 38,469 L 38,456 z"
     id="path3615"
     style="fill:#707070;fill-opacity:1;stroke:none;stroke-width:1;stroke-opacity:1" />
  <path
     d="M 38,413.5 L 41,413.5 L 41,415.5 L 46,415.5 L 46,413.5 L 107,413.5 L 107,426.5 L 46,426.5 L 46,423.5 L 41,423.5 L 41,426.5 L 38,426.5 L 38,413.5 z"
     id="path3617"
     style="fill:#606060;fill-opacity:1;stroke:none;stroke-width:1;stroke-opacity:1" />
  <path
     d="M 38,434.75 L 41,434.75 L 41,436.75 L 46,436.75 L 46,434.75 L 107,434.75 L 107,447.75 L 46,447.75 L 46,444.75 L 41,444.75 L 41,447.75 L 38,447.75 L 38,434.75 z"
     id="path3619"
     style="fill:#686868;fill-opacity:1;stroke:none;stroke-width:1;stroke-opacity:1" />
  <path
     d="M 91.00202,277.90689 L 102.00202,277.90689 L 102.00202,281.90689 L 99.00202,281.90689 L 99.00202,279.90689 L 92.00202,279.90689"
     id="path3630"
     style="fill:#404040;fill-opacity:1;stroke:none;stroke-width:1;stroke-opacity:1" />
  <path
     d="M 91.00202,295.90689 L 102.00202,295.90689 L 102.00202,291.90689 L 99.00202,291.90689 L 99.00202,293.90689 L 92.00202,293.90689"
     id="path3632"
     style="fill:#404040;fill-opacity:1;stroke:none;stroke-width:1;stroke-opacity:1" />
  <path
     d="M 75.825908,270.277 C 86.825908,270.277 86.825908,270.277 86.825908,270.277 L 89.825913,273.277 L 92.825913,277.277 L 92.825913,299.277 L 89.825913,303.277 L 86.825908,306.277 L 74.825908,306.277 L 74.825908,306.277 L 74.825908,309.277 L 61.825908,309.277 L 61.825908,306.277 L 50.825908,306.277 L 46.825908,303.277 L 44.825908,299.277 L 44.825908,277.277 L 46.825908,273.277 L 50.825908,270.277 L 60.825908,270.277 L 60.825908,273.277 L 75.825908,273.277 L 75.825908,270.277 z"
     id="path2405"
     style="fill:#404040;fill-opacity:1;stroke:none;stroke-width:1;stroke-opacity:1" />
  <path
     d="M 91.474695,325.397 L 102.47469,325.397 L 102.47469,329.397 L 99.474695,329.397 L 99.474695,327.397 L 92.474695,327.397"
     id="path2409"
     style="fill:#484848;fill-opacity:1;stroke:none;stroke-width:1;stroke-opacity:1" />
  <path
     d="M 91.474695,343.397 L 102.47469,343.397 L 102.47469,339.397 L 99.474695,339.397 L 99.474695,341.397 L 92.474695,341.397"
     id="path2411"
     style="fill:#484848;fill-opacity:1;stroke:none;stroke-width:1;stroke-opacity:1" />
  <path
     d="M 76.298585,318.767 C 87.298585,318.767 87.298585,318.767 87.298585,318.767 L 90.298585,321.767 L 93.298585,325.767 L 93.298585,347.767 L 90.298585,351.767 L 87.298585,354.767 L 75.298585,354.767 L 75.298585,354.767 L 75.298585,357.767 L 62.298585,357.767 L 62.298585,354.767 L 51.298585,354.767 L 47.298585,351.767 L 45.298585,347.767 L 45.298585,325.767 L 47.298585,321.767 L 51.298585,318.767 L 61.298585,318.767 L 61.298585,321.767 L 76.298585,321.767 L 76.298585,318.767 z"
     id="path2413"
     style="fill:#484848;fill-opacity:1;stroke:none;stroke-width:1;stroke-opacity:1" />
  <path
     d="M 38.374492,371 L 41.374492,371 L 41.374492,373 L 46.374492,373 L 46.374492,371 L 107.37449,371 L 107.37449,384 L 46.374492,384 L 46.374492,381 L 41.374492,381 L 41.374492,384 L 38.374492,384 L 38.374492,371 z"
     id="path2415"
     style="fill:#505050;fill-opacity:1;stroke:none;stroke-width:1;stroke-opacity:1" />
  <path
     d="M 38.374492,392.25 L 41.374492,392.25 L 41.374492,394.25 L 46.374492,394.25 L 46.374492,392.25 L 107.37449,392.25 L 107.37449,405.25 L 46.374492,405.25 L 46.374492,402.25 L 41.374492,402.25 L 41.374492,405.25 L 38.374492,405.25 L 38.374492,392.25 z"
     id="path2417"
     style="fill:#585858;fill-opacity:1;stroke:none;stroke-width:1;stroke-opacity:1" />
</svg>
