<?xml version="1.0" encoding="UTF-8" standalone="no"?> 
 <svg 
    xmlns="http://www.w3.org/2000/svg" 
    xmlns:xlink="http://www.w3.org/1999/xlink" 
    width="87" 
    height="81" 
    version="1.0"> 
   <defs> 
     <linearGradient 
        id="linearGradient3166"> 
       <stop 
          style="stop-color:#ffffff;stop-opacity:1;" 
          offset="0" 
          id="stop3168" /> 
       <stop 
          style="stop-color:#00ff00;stop-opacity:1;" 
          offset="1" 
          id="stop3170" /> 
     </linearGradient> 
     <linearGradient 
        xlink:href="#linearGradient3166" 
        id="linearGradient3172" 
        x1="0" 
        y1="22" 
        x2="74" 
        y2="22" 
        gradientUnits="userSpaceOnUse" /> 
   </defs> 
   <path 
      style="fill:#00e000;fill-opacity:1;stroke:#008000;stroke-width:1.5;stroke-opacity:1" 
      d="M 69.75,42.75 L 86.25,42.75 L 86.25,49 L 82.25,49 L 82.25,45.75 L 71.75,45.75" /> 
   <path 
      style="fill:#00e000;fill-opacity:1;stroke:#008000;stroke-width:1.5;stroke-opacity:1" 
      d="M 69.75,70.25 L 86.25,70.25 L 86.25,64.25 L 82.25,64.25 L 82.25,67.25 L 71.75,67.25" /> 
   <path 
      style="fill:#00e000;fill-opacity:1;stroke:#008000;stroke-width:1.5;stroke-opacity:1" 
      d="M 70,6 L 86.5,6 L 86.5,12 L 82.5,12 L 82.5,9 L 72,9" /> 
   <path 
      style="fill:#00e000;fill-opacity:1;stroke:#008000;stroke-width:1.5;stroke-opacity:1" 
      d="M 70,33.5 L 86.5,33.5 L 86.5,27.5 L 82.5,27.5 L 82.5,30.5 L 72,30.5" /> 
   <path 
      style="fill:url(#linearGradient3172);fill-opacity:1;stroke:#00a000;stroke-width:2;stroke-opacity:1" 
      d="M 48,1 C 64,1 64,1 64,1 C 64,1 68.1,3.5 69.5,5 C 70.9,6.5 73,11 73,11 L 73,67 C 73,67 70.8,70.7 69.5,72 C 68.1,73.5 64,76 64,76 L 47,76 L 47,76 L 47,80 L 27,80 L 27,76 L 10,76 C 10,76 6.0,73.5 4.5,72 C 3.2,70.7 1,67 1,67 L 1,11 C 1,11 3.1,6.5 4.5,5 C 5.9,3.5 10,1 10,1 L 26,1 L 26,6 L 48,6 L 48,1 z" /> 
   <text 
      style="font-size:12px;text-anchor:middle;text-align:center;font-family:Bitstream Vera Sans"> 
       <tspan 
        x="37" 
        y="43" 
        style="font-size:16px;">kaari</tspan></text> 
   <text 
      style="font-size:12px;text-anchor:end;text-align:end;font-family:Bitstream Vera Sans"> 
       <tspan 
        x="68" 
        y="22" 
        style="font-size:14px">kulma</tspan></text> 
   <text 
      style="font-size:12px;text-anchor:end;text-align:end;font-family:Bitstream Vera Sans"> 
       <tspan 
        x="68" 
        y="64" 
        style="font-size:14px">kehä</tspan></text> 
 </svg> 
 