<?xml version="1.0" encoding="UTF-8" standalone="no"?>
<!-- Created with Inkscape (http://www.inkscape.org/) -->

<svg
   xmlns:svg="http://www.w3.org/2000/svg"
   xmlns="http://www.w3.org/2000/svg"
   xmlns:xlink="http://www.w3.org/1999/xlink"
   version="1.0"
   width="74"
   height="44"
   id="svg2">
  <defs
     id="defs4">
    <linearGradient
       id="linearGradient3166">
      <stop
         id="stop3168"
         style="stop-color:#ffffff;stop-opacity:1"
         offset="0" />
      <stop
         id="stop3170"
         style="stop-color:#00ff00;stop-opacity:1"
         offset="1" />
    </linearGradient>
    <linearGradient
       x1="0"
       y1="22"
       x2="74"
       y2="22"
       id="linearGradient3172"
       xlink:href="#linearGradient3166"
       gradientUnits="userSpaceOnUse" />
  </defs>
  <path
     d="m 48,1 c 16,0 16,0 16,0 0,0 4.1,2.5 5.5,4 1.4,1.5 3.5,6 3.5,6 l 0,19 c 0,0 -2.2,3.7 -3.5,5 -1.4,1.5 -5.5,4 -5.5,4 l -17,0 0,0 0,4 -20,0 0,-4 -17,0 C 10,39 5.9,36.5 4.5,35 3.2,33.7 1,30 1,30 L 1,11 C 1,11 3.1,6.5 4.5,5 5.9,3.5 10,1 10,1 l 16,0 0,5 22,0 0,-5 z"
     id="path10"
     style="fill:url(#linearGradient3172);fill-opacity:1;stroke:#00a000;stroke-width:2;stroke-opacity:1" />
  <text
     x="5.099112"
     transform="scale(0.9400739,1.0637462)"
     id="text12"
     style="font-size:11.2808857px;text-align:center;text-anchor:middle;font-family:Bitstream Vera Sans">
    <tspan
       x="39.881844"
       y="24.441921"
       id="tspan14"
       style="font-size:16.9213295px">tyhjennä</tspan>
  </text>
</svg>
