<?xml version="1.0" encoding="UTF-8" standalone="no"?>
<!-- Created with Inkscape (http://www.inkscape.org/) -->

<svg
   xmlns:svg="http://www.w3.org/2000/svg"
   xmlns="http://www.w3.org/2000/svg"
   xmlns:xlink="http://www.w3.org/1999/xlink"
   version="1.0"
   width="145"
   height="500"
   id="svg2">
  <defs
     id="defs103">
    <linearGradient
       id="linearGradient3250">
      <stop
         id="stop3252"
         style="stop-color:#ffffff;stop-opacity:1"
         offset="0" />
      <stop
         id="stop3254"
         style="stop-color:#00ff00;stop-opacity:1"
         offset="1" />
    </linearGradient>
    <linearGradient
       x1="0"
       y1="22"
       x2="74"
       y2="22"
       id="linearGradient3256"
       xlink:href="#linearGradient3250"
       gradientUnits="userSpaceOnUse" />
    <linearGradient
       x1="0"
       y1="22"
       x2="74"
       y2="22"
       id="linearGradient3258"
       xlink:href="#linearGradient3250"
       gradientUnits="userSpaceOnUse" />
    <linearGradient
       x1="0"
       y1="22"
       x2="74"
       y2="22"
       id="linearGradient3260"
       xlink:href="#linearGradient3250"
       gradientUnits="userSpaceOnUse" />
    <linearGradient
       x1="0"
       y1="22"
       x2="74"
       y2="22"
       id="linearGradient3264"
       xlink:href="#linearGradient3250"
       gradientUnits="userSpaceOnUse" />
    <linearGradient
       x1="0"
       y1="22"
       x2="74"
       y2="22"
       id="linearGradient3267"
       xlink:href="#linearGradient3250"
       gradientUnits="userSpaceOnUse" />
    <linearGradient
       x1="7"
       y1="90"
       x2="56"
       y2="90"
       id="linearGradient3333"
       xlink:href="#linearGradient3250"
       gradientUnits="userSpaceOnUse" />
    <linearGradient
       x1="7"
       y1="130"
       x2="56"
       y2="130"
       id="linearGradient3341"
       xlink:href="#linearGradient3250"
       gradientUnits="userSpaceOnUse" />
    <linearGradient
       x1="79"
       y1="90"
       x2="128"
       y2="90"
       id="linearGradient3349"
       xlink:href="#linearGradient3250"
       gradientUnits="userSpaceOnUse" />
    <linearGradient
       x1="79"
       y1="130"
       x2="128"
       y2="130"
       id="linearGradient3357"
       xlink:href="#linearGradient3250"
       gradientUnits="userSpaceOnUse" />
    <linearGradient
       x1="43"
       y1="181"
       x2="92"
       y2="181"
       id="linearGradient3365"
       xlink:href="#linearGradient3250"
       gradientUnits="userSpaceOnUse" />
    <linearGradient
       x1="7"
       y1="251"
       x2="56"
       y2="251"
       id="linearGradient3373"
       xlink:href="#linearGradient3250"
       gradientUnits="userSpaceOnUse" />
    <linearGradient
       x1="79"
       y1="238"
       x2="128"
       y2="238"
       id="linearGradient3381"
       xlink:href="#linearGradient3250"
       gradientUnits="userSpaceOnUse" />
    <linearGradient
       x1="6"
       y1="303"
       x2="72"
       y2="303"
       id="linearGradient3389"
       xlink:href="#linearGradient3250"
       gradientUnits="userSpaceOnUse" />
    <linearGradient
       x1="89"
       y1="314"
       x2="137"
       y2="314"
       id="linearGradient3397"
       xlink:href="#linearGradient3250"
       gradientUnits="userSpaceOnUse" />
    <linearGradient
       x1="37"
       y1="359"
       x2="107"
       y2="359"
       id="linearGradient3405"
       xlink:href="#linearGradient3250"
       gradientUnits="userSpaceOnUse"
       gradientTransform="translate(0,26)" />
    <linearGradient
       x1="37"
       y1="382"
       x2="107"
       y2="382"
       id="linearGradient3413"
       xlink:href="#linearGradient3250"
       gradientUnits="userSpaceOnUse"
       gradientTransform="translate(0,26)" />
    <linearGradient
       x1="37"
       y1="406"
       x2="107"
       y2="406"
       id="linearGradient3421"
       xlink:href="#linearGradient3250"
       gradientUnits="userSpaceOnUse"
       gradientTransform="translate(0,26)" />
    <linearGradient
       x1="79"
       y1="238"
       x2="128"
       y2="238"
       id="linearGradient2505"
       xlink:href="#linearGradient3250"
       gradientUnits="userSpaceOnUse" />
    <linearGradient
       x1="79"
       y1="238"
       x2="128"
       y2="238"
       id="linearGradient2519"
       xlink:href="#linearGradient3250"
       gradientUnits="userSpaceOnUse" />
    <linearGradient
       x1="37"
       y1="406"
       x2="107"
       y2="406"
       id="linearGradient2527"
       xlink:href="#linearGradient3250"
       gradientUnits="userSpaceOnUse" />
    <linearGradient
       x1="0"
       y1="0"
       x2="100"
       y2="66"
       id="linearGradient3172"
       xlink:href="#linearGradient3166"
       gradientUnits="userSpaceOnUse" />
    <linearGradient
       id="linearGradient3166">
      <stop
         id="stop3168"
         style="stop-color:#ffffff;stop-opacity:1"
         offset="0" />
      <stop
         id="stop3170"
         style="stop-color:#00ff00;stop-opacity:1"
         offset="1" />
    </linearGradient>
    <linearGradient
       x1="0"
       y1="0"
       x2="100"
       y2="20"
       id="linearGradient2707"
       xlink:href="#linearGradient3166"
       gradientUnits="userSpaceOnUse"
       gradientTransform="matrix(0.7,0,0,1,0.1,32)" />
    <linearGradient
       id="linearGradient2701">
      <stop
         id="stop2703"
         style="stop-color:#ffffff;stop-opacity:1"
         offset="0" />
      <stop
         id="stop2705"
         style="stop-color:#ffff00;stop-opacity:1"
         offset="1" />
    </linearGradient>
    <linearGradient
       x1="79"
       y1="238"
       x2="128"
       y2="238"
       id="linearGradient2732"
       xlink:href="#linearGradient3250"
       gradientUnits="userSpaceOnUse" />
    <linearGradient
       x1="0"
       y1="0"
       x2="100"
       y2="66"
       id="linearGradient2736"
       xlink:href="#linearGradient3166"
       gradientUnits="userSpaceOnUse"
       gradientTransform="matrix(0.67,0,0,0.67,60,321)" />
    <linearGradient
       x1="0"
       y1="0"
       x2="100"
       y2="66"
       id="linearGradient3552"
       xlink:href="#linearGradient3166"
       gradientUnits="userSpaceOnUse"
       gradientTransform="matrix(0.67,0,0,0.67,60,321)" />
    <linearGradient
       x1="79"
       y1="238"
       x2="128"
       y2="238"
       id="linearGradient3554"
       xlink:href="#linearGradient3250"
       gradientUnits="userSpaceOnUse" />
    <linearGradient
       x1="37"
       y1="359"
       x2="107"
       y2="359"
       id="linearGradient2696"
       xlink:href="#linearGradient2701"
       gradientUnits="userSpaceOnUse"
       gradientTransform="translate(26.1,-84.4)" />
    <linearGradient
       x1="0"
       y1="0"
       x2="100"
       y2="66"
       id="linearGradient2711"
       xlink:href="#linearGradient2701"
       gradientUnits="userSpaceOnUse"
       gradientTransform="matrix(0.67,0,0,0.67,63.4,348)" />
    <linearGradient
       x1="79"
       y1="238"
       x2="128"
       y2="238"
       id="linearGradient3486"
       xlink:href="#linearGradient3250"
       gradientUnits="userSpaceOnUse"
       gradientTransform="translate(-65.6,64.2)" />
    <linearGradient
       x1="79"
       y1="238"
       x2="128"
       y2="238"
       id="linearGradient3495"
       xlink:href="#linearGradient3250"
       gradientUnits="userSpaceOnUse"
       gradientTransform="translate(-66.6,99)" />
    <linearGradient
       x1="79"
       y1="238"
       x2="128"
       y2="238"
       id="linearGradient3502"
       xlink:href="#linearGradient3250"
       gradientUnits="userSpaceOnUse"
       gradientTransform="translate(-65.5,133)" />
    <linearGradient
       x1="79"
       y1="238"
       x2="128"
       y2="238"
       id="linearGradient3533"
       xlink:href="#linearGradient3250"
       gradientUnits="userSpaceOnUse"
       gradientTransform="translate(-66.6,99)" />
    <linearGradient
       x1="79"
       y1="238"
       x2="128"
       y2="238"
       id="linearGradient3535"
       xlink:href="#linearGradient3250"
       gradientUnits="userSpaceOnUse"
       gradientTransform="translate(-65.6,64.2)" />
    <linearGradient
       x1="79"
       y1="238"
       x2="128"
       y2="238"
       id="linearGradient2977"
       xlink:href="#linearGradient3250"
       gradientUnits="userSpaceOnUse"
       gradientTransform="translate(-65.5,98.599998)" />
  </defs>
  <path
     d="M 0.58809792,0.55108212 0.52581012,484.98977 l 3.12273978,7.44844 4.8721131,4.38564 6.659162,2.65034 113.784125,0 6.84602,-2.8368 5.94712,-5.41133 2.72287,-9.13316 0.0377,-481.56708988 -143.92954208,0.025272 z"
     id="path30"
     style="fill:#ffd000;fill-opacity:1;stroke:#e0a000;stroke-width:1;stroke-opacity:1" />
  <rect
     width="137"
     height="0"
     x="3.7"
     y="213"
     id="rect32"
     style="fill:#ffd000;fill-opacity:1;stroke:#e0a000;stroke-width:1;stroke-opacity:1" />
  <rect
     width="137"
     height="0.14"
     x="3.7"
     y="214.3"
     id="rect34"
     style="fill:#ffd000;fill-opacity:1;stroke:#fff080;stroke-width:1;stroke-opacity:1" />
  <rect
     width="137"
     height="0.14"
     x="3.7"
     y="215"
     id="rect36"
     style="fill:#ffd000;fill-opacity:1;stroke:#ffffc4;stroke-width:1;stroke-opacity:1" />
  <g
     id="g2681">
    <rect
       width="138.11"
       height="0.11000219"
       x="3.4449987"
       y="65.445"
       id="rect38"
       style="fill:#ffd000;fill-opacity:1;stroke:#e0a000;stroke-width:0.88999784;stroke-opacity:1" />
    <rect
       width="137.5"
       height="0.14"
       x="3.5"
       y="66.360001"
       id="rect40"
       style="fill:#ffd000;fill-opacity:1;stroke:#fff080;stroke-width:1;stroke-opacity:1" />
    <rect
       width="138.11032"
       height="0.11032366"
       x="3.444838"
       y="67.444839"
       id="rect42"
       style="fill:#ffd000;fill-opacity:1;stroke:#ffffc4;stroke-width:0.88967633;stroke-opacity:1" />
  </g>
  <rect
     width="137.5"
     height="0.14"
     x="3.7"
     y="-26.9"
     transform="scale(1,-1)"
     id="rect44"
     style="fill:#ffd000;fill-opacity:1;stroke:#e0a000;stroke-width:1;stroke-opacity:1" />
  <rect
     width="137.5"
     height="0.14"
     x="3.7"
     y="-25.799999"
     transform="scale(1,-1)"
     id="rect46"
     style="fill:#ffd000;fill-opacity:1;stroke:#fff080;stroke-width:1;stroke-opacity:1" />
  <rect
     width="137.5"
     height="0.14"
     x="3.7"
     y="-472.70001"
     transform="scale(1,-1)"
     id="rect48"
     style="fill:#ffd000;fill-opacity:1;stroke:#e0a000;stroke-width:1;stroke-opacity:1" />
  <rect
     width="137.5"
     height="0.14"
     x="3.7"
     y="-471.39999"
     transform="scale(1,-1)"
     id="rect50"
     style="fill:#ffd000;fill-opacity:1;stroke:#fff080;stroke-width:1;stroke-opacity:1" />
  <path
     d="m 134,491 c 0,1 -1,2 -2,2 -1,0 -1,-1 -1,-2 0,0 0,-1 1,-1 1,0 2,1 2,1 z"
     id="path58"
     style="fill:#fff080;fill-opacity:1;stroke:none" />
  <path
     d="m 80,485 c 0,5 -3,8 -8,8 -5,0 -8,-3 -8,-8 0,-4 3,-8 8,-8 5,0 8,4 8,8 l 0,0 z"
     id="path60"
     style="fill:#ff4040;fill-opacity:1;stroke:#ff4040;stroke-width:1;stroke-opacity:1" />
  <text
     id="text54"
     style="font-size:12px;font-weight:bold;font-family:Bitstream Vera Sans">
    <tspan
       x="68"
       y="489"
       id="tspan56"
       style="font-size:12px;font-weight:bold;fill:#ffffff;font-family:Bitstream Vera Sans">X</tspan>
  </text>
  <path
     d="m 79,32 c 11,0 11,0 11,0 l 4,3 2,4 0,13 -2,3 -4,3 -11,0 0,0 0,2 -14,0 0,-2 -11,0 -4,-3 -2,-3 0,-13 2,-4 4,-3 11,0 0,4 14,0 0,-4 z"
     id="path59"
     style="fill:url(#linearGradient3267);fill-opacity:1;stroke:#00a000;stroke-width:1;stroke-opacity:1" />
  <text
     x="7.5977607"
     transform="scale(0.94964317,1.0530271)"
     id="text61"
     style="font-size:7.59714556px;text-align:center;text-anchor:middle;fill:#000000;fill-opacity:1;font-family:Bitstream Vera Sans">
    <tspan
       x="75.972069"
       y="46.532516"
       id="tspan63"
       style="font-size:11.39571762px">tyhjennä</tspan>
  </text>
  <path
     d="m 54,77 11,0 0,4 -3,0 0,-2 -7,0"
     id="path65"
     style="fill:#00e000;fill-opacity:1;stroke:#008000;stroke-width:1;stroke-opacity:1" />
  <path
     d="m 54,95 11,0 0,-4 -3,0 0,2 -7,0"
     id="path67"
     style="fill:#00e000;fill-opacity:1;stroke:#008000;stroke-width:1;stroke-opacity:1" />
  <path
     d="m 39,73 c 11,0 11,0 11,0 l 3,3 3,4 0,13 -3,3 -3,3 -12,0 0,0 0,2 -13,0 0,-2 -11,0 -4,-3 -2,-3 0,-13 2,-4 4,-3 10,0 0,4 15,0 0,-4 z"
     id="path69"
     style="fill:url(#linearGradient3333);fill-opacity:1;stroke:#00a000;stroke-width:1;stroke-opacity:1" />
  <text
     id="text71"
     style="font-size:8.00004005px;text-align:center;text-anchor:middle;font-family:Bitstream Vera Sans">
    <tspan
       x="32"
       y="90"
       id="tspan73"
       style="font-size:12px">eteen päin</tspan>
  </text>
  <path
     d="m 126,77 11,0 0,4 -3,0 0,-2 -7,0"
     id="path75"
     style="fill:#00e000;fill-opacity:1;stroke:#008000;stroke-width:1;stroke-opacity:1" />
  <path
     d="m 126,95 11,0 0,-4 -3,0 0,2 -7,0"
     id="path77"
     style="fill:#00e000;fill-opacity:1;stroke:#008000;stroke-width:1;stroke-opacity:1" />
  <path
     d="m 111,73 c 11,0 11,0 11,0 l 3,3 3,4 0,13 -3,3 -3,3 -12,0 0,0 0,2 -13,0 0,-2 -11,0 -4,-3 -2,-3 0,-13 2,-4 4,-3 10,0 0,4 15,0 0,-4 z"
     id="path79"
     style="fill:url(#linearGradient3349);fill-opacity:1;stroke:#00a000;stroke-width:1;stroke-opacity:1" />
  <text
     id="text81"
     style="font-size:8px;text-align:center;text-anchor:middle;font-family:Bitstream Vera Sans">
    <tspan
       x="104"
       y="90"
       id="tspan83"
       style="font-size:12px">takaisin</tspan>
  </text>
  <path
     d="m 54,117 11,0 0,4 -3,0 0,-2 -7,0"
     id="path85"
     style="fill:#00e000;fill-opacity:1;stroke:#008000;stroke-width:1;stroke-opacity:1" />
  <path
     d="m 54,136 11,0 0,-4 -3,0 0,2 -7,0"
     id="path87"
     style="fill:#00e000;fill-opacity:1;stroke:#008000;stroke-width:1;stroke-opacity:1" />
  <path
     d="m 39,114 c 11,0 11,0 11,0 l 3,3 3,4 0,12 -3,4 -3,2 -12,0 0,0 0,3 -13,0 0,-3 -11,0 -4,-2 -2,-4 0,-12 2,-4 4,-3 10,0 0,3 15,0 0,-3 z"
     id="path89"
     style="fill:url(#linearGradient3341);fill-opacity:1;stroke:#00a000;stroke-width:1;stroke-opacity:1" />
  <text
     id="text91"
     style="font-size:8px;text-align:center;text-anchor:middle;font-family:Bitstream Vera Sans">
    <tspan
       x="32"
       y="131"
       id="tspan93"
       style="font-size:12px">vasen</tspan>
  </text>
  <path
     d="m 126,117 11,0 0,4 -3,0 0,-2 -7,0"
     id="path112"
     style="fill:#00e000;fill-opacity:1;stroke:#008000;stroke-width:1;stroke-opacity:1" />
  <path
     d="m 126,136 11,0 0,-4 -3,0 0,2 -7,0"
     id="path96"
     style="fill:#00e000;fill-opacity:1;stroke:#008000;stroke-width:1;stroke-opacity:1" />
  <path
     d="m 111,114 c 11,0 11,0 11,0 l 3,3 3,4 0,12 -3,4 -3,2 -12,0 0,0 0,3 -13,0 0,-3 -11,0 -4,-2 -2,-4 0,-12 2,-4 4,-3 10,0 0,3 15,0 0,-3 z"
     id="path98"
     style="fill:url(#linearGradient3357);fill-opacity:1;stroke:#00a000;stroke-width:1;stroke-opacity:1" />
  <text
     id="text100"
     style="font-size:8px;text-align:center;text-anchor:middle;font-family:Bitstream Vera Sans">
    <tspan
       x="104"
       y="131"
       id="tspan102"
       style="font-size:12px">oikea</tspan>
  </text>
  <path
     d="m 89,181 11,0 0,4 -2,0 0,-2 -7,0"
     id="path104"
     style="fill:#00e000;fill-opacity:1;stroke:#008000;stroke-width:1;stroke-opacity:1" />
  <path
     d="m 89,199 11,0 0,-4 -2,0 0,2 -7,0"
     id="path106"
     style="fill:#00e000;fill-opacity:1;stroke:#008000;stroke-width:1;stroke-opacity:1" />
  <path
     d="m 90,156 11,0 0,4 -3,0 0,-2 -7,0"
     id="path108"
     style="fill:#00e000;fill-opacity:1;stroke:#008000;stroke-width:1;stroke-opacity:1" />
  <path
     d="m 90,174 11,0 0,-4 -3,0 0,2 -7,0"
     id="path130"
     style="fill:#00e000;fill-opacity:1;stroke:#008000;stroke-width:1;stroke-opacity:1" />
  <path
     d="m 75,153 c 11,0 11,0 11,0 l 3,2 3,4 0,38 -3,3 -3,3 -12,0 0,0 0,2 -13,0 0,-2 -11,0 -4,-3 -2,-3 0,-38 2,-4 4,-2 10,0 0,3 15,0 0,-3 z"
     id="path111"
     style="fill:url(#linearGradient3365);fill-opacity:1;stroke:#00a000;stroke-width:1.33334005;stroke-opacity:1" />
  <text
     id="text113"
     style="font-size:8px;text-align:center;text-anchor:middle;font-family:Bitstream Vera Sans">
    <tspan
       x="68"
       y="181"
       id="tspan136"
       style="font-size:12px">kaari</tspan>
  </text>
  <text
     id="text116"
     style="font-size:8px;text-align:end;text-anchor:end;font-family:Bitstream Vera Sans">
    <tspan
       x="90"
       y="167"
       id="tspan118"
       style="font-size:9px">kulma</tspan>
    <tspan
       x="90"
       y="196"
       id="tspan120"
       style="font-size:9px">kehä</tspan>
  </text>
  <path
     d="m 53,250 11,0 0,4 -2,0 0,-2 -7,0"
     id="path122"
     style="fill:#00e000;fill-opacity:1;stroke:#008000;stroke-width:1;stroke-opacity:1" />
  <path
     d="m 53,268 11,0 0,-4 -2,0 0,2 -7,0"
     id="path124"
     style="fill:#00e000;fill-opacity:1;stroke:#008000;stroke-width:1;stroke-opacity:1" />
  <path
     d="m 54,225 11,0 0,4 -3,0 0,-2 -7,0"
     id="path126"
     style="fill:#00e000;fill-opacity:1;stroke:#008000;stroke-width:1;stroke-opacity:1" />
  <path
     d="m 54,244 11,0 0,-4 -3,0 0,2 -7,0"
     id="path128"
     style="fill:#00e000;fill-opacity:1;stroke:#008000;stroke-width:1;stroke-opacity:1" />
  <path
     d="m 39,222 c 11,0 11,0 11,0 l 3,3 3,4 0,37 -3,3 -3,3 -12,0 0,0 0,3 -13,0 0,-3 -11,0 -4,-3 -2,-3 0,-37 2,-4 4,-3 10,0 0,3 15,0 0,-3 z"
     id="path131"
     style="fill:url(#linearGradient3373);fill-opacity:1;stroke:#00a000;stroke-width:1;stroke-opacity:1" />
  <text
     x="-2"
     id="text133"
     style="font-size:12px;text-align:center;text-anchor:middle;font-family:Bitstream Vera Sans">
    <tspan
       x="30"
       y="250"
       id="tspan158"
       style="font-size:12px">aseta</tspan>
  </text>
  <text
     id="text136"
     style="font-size:9px;text-align:end;text-anchor:end;font-family:Bitstream Vera Sans">
    <tspan
       x="54"
       y="236"
       id="tspan138"
       style="font-size:9px">x</tspan>
    <tspan
       x="54"
       y="265"
       id="tspan140"
       style="font-size:9px">y</tspan>
  </text>
  <g
     transform="translate(0,-2)"
     id="g142">
    <path
       d="m 126,227 11.08348,0 -0.0835,4 -3,0 0,-2 -7,0"
       id="path144"
       style="fill:#00e000;fill-opacity:1;stroke:#008000;stroke-width:1;stroke-opacity:1" />
    <path
       d="m 126,246 11,0 0,-4 -3,0 0,2 -7,0"
       id="path146"
       style="fill:#00e000;fill-opacity:1;stroke:#008000;stroke-width:1;stroke-opacity:1" />
    <path
       d="m 111,224 c 11,0 11,0 11,0 l 3,3 3,4 0,12 -3,4 -3,3 -12,0 0,0 0,2 -13,0 0,-2 -11,0 -4,-3 -2,-4 0,-12 2,-4 4,-3 10,0 0,3 15,0 0,-3 z"
       id="path148"
       style="fill:url(#linearGradient3381);fill-opacity:1;stroke:#00a000;stroke-width:1;stroke-opacity:1" />
    <text
       y="-4"
       id="text150"
       style="font-size:8px;text-align:center;text-anchor:middle;font-family:Bitstream Vera Sans">
      <tspan
         x="104"
         y="237"
         id="tspan152"
         style="font-size:12px">aseta</tspan>
    </text>
    <text
       y="6"
       id="text2968"
       style="font-size:8px;text-align:center;text-anchor:middle;font-family:Bitstream Vera Sans">
      <tspan
         x="104"
         y="247"
         id="tspan2970"
         style="font-size:12px">suunta</tspan>
    </text>
  </g>
  <path
     d="m 38,405 3,0 0,3 5,0 0,-3 61,0 0,14 -61,0 0,-3 -5,0 0,3 -3,0 0,-14 z"
     id="path154"
     style="fill:url(#linearGradient3405);fill-opacity:1;stroke:#00a000;stroke-width:1;stroke-opacity:1" />
  <text
     y="26"
     id="text156"
     style="font-size:8px;text-align:center;text-anchor:middle;font-family:Bitstream Vera Sans">
    <tspan
       x="72"
       y="416"
       id="tspan159"
       style="font-size:10.5px">xcor</tspan>
  </text>
  <path
     d="m 38,429 3,0 0,3 5,0 0,-3 61,0 0,14 -61,0 0,-3 -5,0 0,3 -3,0 0,-14 z"
     id="path161"
     style="fill:url(#linearGradient3413);fill-opacity:1;stroke:#00a000;stroke-width:1;stroke-opacity:1" />
  <text
     y="26"
     id="text163"
     style="font-size:8px;text-align:center;text-anchor:middle;font-family:Bitstream Vera Sans">
    <tspan
       x="72"
       y="439"
       id="tspan165"
       style="font-size:10.5px">ycor</tspan>
  </text>
  <path
     d="m 38,453 3,0 0,3 5,0 0,-3 61,0 0,14 -61,0 0,-3 -5,0 0,3 -3,0 0,-14 z"
     id="path167"
     style="fill:url(#linearGradient3421);fill-opacity:1;stroke:#00a000;stroke-width:1;stroke-opacity:1" />
  <text
     y="26"
     id="text169"
     style="font-size:8px;text-align:center;text-anchor:middle;font-family:Bitstream Vera Sans">
    <tspan
       x="72"
       y="463"
       id="tspan171"
       style="font-size:10.5px">suunta</tspan>
  </text>
  <text
     id="text173"
     style="font-size:12px;text-align:center;text-anchor:middle;font-family:Bitstream Vera Sans">
    <tspan
       x="72"
       y="19"
       id="tspan175"
       style="font-size:20px">Turtle</tspan>
  </text>
  <rect
     width="137.5"
     height="0.14"
     x="3.7"
     y="280.60001"
     id="rect177"
     style="fill:#ffd000;fill-opacity:1;stroke:#e0a000;stroke-width:1;stroke-opacity:1" />
  <rect
     width="137.5"
     height="0.14"
     x="3.7"
     y="281.70001"
     id="rect179"
     style="fill:#ffd000;fill-opacity:1;stroke:#fff080;stroke-width:1;stroke-opacity:1" />
  <rect
     width="137.5"
     height="0.14"
     x="3.7"
     y="282.60001"
     id="rect181"
     style="fill:#ffd000;fill-opacity:1;stroke:#ffffc4;stroke-width:1;stroke-opacity:1" />
  <rect
     width="137.5"
     height="0.14"
     x="3.7"
     y="398.5"
     id="rect183"
     style="fill:#ffd000;fill-opacity:1;stroke:#e0a000;stroke-width:1;stroke-opacity:1" />
  <rect
     width="137.5"
     height="0.14"
     x="3.7"
     y="399.60001"
     id="rect185"
     style="fill:#ffd000;fill-opacity:1;stroke:#fff080;stroke-width:1;stroke-opacity:1" />
  <rect
     width="137.5"
     height="0.14"
     x="3.7"
     y="400.60001"
     id="rect187"
     style="fill:#ffd000;fill-opacity:1;stroke:#ffffc4;stroke-width:1;stroke-opacity:1" />
  <g
     transform="translate(0.1,0)"
     id="g3515">
    <path
       d="m 60.4,293.2 11,0 0,4 -3,0 0,-2 -7,0"
       id="path191"
       style="fill:#00e000;fill-opacity:1;stroke:#008000;stroke-width:1;stroke-opacity:1" />
    <path
       d="m 60.4,310.2 11,0 0,-4 -3,0 0,2 -7,0"
       id="path193"
       style="fill:#00e000;fill-opacity:1;stroke:#008000;stroke-width:1;stroke-opacity:1" />
    <path
       d="m 45.4,288.2 c 11,0 11,0 11,0 l 3,3 3,4 0,12 -3,4 -3,3 -12,0 0,0 0,2 -13,0 0,-2 -11,0 -4,-3 -2,-4 0,-12 2,-4 4,-3 10,0 0,3 15,0 0,-3 z"
       id="path195"
       style="fill:url(#linearGradient3535);fill-opacity:1;stroke:#00a000;stroke-width:1;stroke-opacity:1" />
    <text
       x="-65.599998"
       y="64.199997"
       id="text197"
       style="font-size:8px;text-align:center;text-anchor:middle;font-family:Bitstream Vera Sans">
      <tspan
         x="38.400002"
         y="305.20001"
         id="tspan199"
         style="font-size:12px">näytä</tspan>
    </text>
  </g>
  <path
     d="m 60.5,327.6 11,0 0,4 -3,0 0,-2 -7,0"
     id="path203"
     style="fill:#00e000;fill-opacity:1;stroke:#008000;stroke-width:1;stroke-opacity:1" />
  <path
     d="m 60.5,344.6 11,0 0,-4 -3,0 0,2 -7,0"
     id="path205"
     style="fill:#00e000;fill-opacity:1;stroke:#008000;stroke-width:1;stroke-opacity:1" />
  <path
     d="m 45.5,322.6 c 11,0 11,0 11,0 l 3,3 3,4 0,12 -3,4 -3,3 -12,0 0,0 0,2 -13,0 0,-2 -11,0 -4,-3 -2,-4 0,-12 2,-4 4,-3 10,0 0,3 15,0 0,-3 z"
     id="path207"
     style="fill:url(#linearGradient2977);fill-opacity:1;stroke:#00a000;stroke-width:1;stroke-opacity:1" />
  <text
     x="-65.5"
     y="100.6"
     id="text209"
     style="font-size:8px;text-align:center;text-anchor:middle;font-family:Bitstream Vera Sans">
    <tspan
       x="38.5"
       y="336.60001"
       id="tspan211"
       style="font-size:12px">aseta</tspan>
  </text>
  <text
     x="-65.5"
     y="100.6"
     id="text213"
     style="font-size:8px;text-align:center;text-anchor:middle;font-family:Bitstream Vera Sans">
    <tspan
       x="38.5"
       y="346.60001"
       id="tspan215"
       style="font-size:12px">skaala</tspan>
  </text>
  <path
     d="m 64.07,364.3575 3.35,0 0,2.5125 4.69,0 0,-17.42 57.62,0 0,42.88 -57.62,0 0,-18.425 -4.69,0 0,2.68 -3.35,0 0,-12.2275 z"
     id="path224"
     style="fill:url(#linearGradient2711);fill-opacity:1;fill-rule:nonzero;stroke:#a0a000;stroke-width:1.34000003;stroke-linecap:butt;stroke-linejoin:miter;stroke-miterlimit:4;stroke-opacity:1" />
  <g
     transform="matrix(0.75,0,0,0.75,80.7745,350.9375)"
     id="activity-journal"
     style="stroke:#000000;stroke-opacity:1;display:block">
    <path
       d="M 45.866,44.669 C 45.866,47.18 44.338,49 41.534,49 l -29.457,0 0,-43 29.458,0 c 2.15,0 4.332,2.154 4.332,4.33 l -10e-4,34.339 0,0 z"
       id="path2458"
       style="fill:#ffffff;stroke:#000000;stroke-width:3.5;stroke-linecap:round;stroke-linejoin:round;stroke-opacity:1" />
    <line
       id="line2460"
       y2="48.881001"
       y1="6.1209998"
       x2="21.341"
       x1="21.341"
       style="fill:none;stroke:#000000;stroke-width:3.5;stroke-linecap:round;stroke-linejoin:round;stroke-opacity:1" />
    <path
       d="m 7.384,14.464 c 0,0 2.084,0.695 4.17,0.695 2.086,0 4.173,-0.695 4.173,-0.695"
       id="path2462"
       style="fill:none;stroke:#000000;stroke-width:3.5;stroke-linecap:round;stroke-linejoin:round;stroke-opacity:1" />
    <path
       d="m 7.384,28.021 c 0,0 1.912,0.695 4.345,0.695 2.433,0 3.999,-0.695 3.999,-0.695"
       id="path2464"
       style="fill:none;stroke:#000000;stroke-width:3.5;stroke-linecap:round;stroke-linejoin:round;stroke-opacity:1" />
    <path
       d="m 7.384,41.232 c 0,0 1.736,0.695 4.518,0.695 2.781,0 3.825,-0.695 3.825,-0.695"
       id="path2466"
       style="fill:none;stroke:#000000;stroke-width:3.5;stroke-linecap:round;stroke-linejoin:round;stroke-opacity:1" />
  </g>
  <g
     id="g3522">
    <path
       d="m 60.5,362 11,0 0,4 -3,0 0,-2 -7,0"
       id="path2722"
       style="fill:#00e000;fill-opacity:1;stroke:#008000;stroke-width:1;stroke-opacity:1" />
    <path
       d="m 60.5,379 11,0 0,-4 -3,0 0,2 -7,0"
       id="path2724"
       style="fill:#00e000;fill-opacity:1;stroke:#008000;stroke-width:1;stroke-opacity:1" />
    <path
       d="m 45.5,357 c 11,0 11,0 11,0 l 3,3 3,4 0,12 -3,4 -3,3 -12,0 0,0 0,2 -13,0 0,-2 -11,0 -4,-3 -2,-4 0,-12 2,-4 4,-3 10,0 0,3 15,0 0,-3 z"
       id="path2726"
       style="fill:url(#linearGradient3502);fill-opacity:1;stroke:#00a000;stroke-width:1;stroke-opacity:1" />
    <text
       x="-65.5"
       y="133"
       id="text2728"
       style="font-size:8px;text-align:center;text-anchor:middle;font-family:Bitstream Vera Sans">
      <tspan
         x="38.5"
         y="374"
         id="tspan2730"
         style="font-size:12px">näytä</tspan>
    </text>
  </g>
  <path
     d="m 64.1,294.6 3,0 0,3 5,0 0,-3 61,0 0,14 -61,0 0,-3 -5,0 0,3 -3,0 0,-14 z"
     id="path2694"
     style="fill:url(#linearGradient2696);fill-opacity:1;stroke:#a0a000;stroke-width:1;stroke-opacity:1" />
  <text
     x="28.000002"
     y="-131.10329"
     id="text3529"
     style="font-size:8px;text-align:center;text-anchor:middle;font-family:Bitstream Vera Sans">
    <tspan
       x="100.00002"
       y="305.89673"
       id="tspan3531"
       style="font-size:10.5px">nimi</tspan>
  </text>
</svg>
