<?xml version="1.0" encoding="UTF-8" standalone="no"?>
<!-- Created with Inkscape (http://www.inkscape.org/) -->
<svg
   xmlns:dc="http://purl.org/dc/elements/1.1/"
   xmlns:cc="http://creativecommons.org/ns#"
   xmlns:rdf="http://www.w3.org/1999/02/22-rdf-syntax-ns#"
   xmlns:svg="http://www.w3.org/2000/svg"
   xmlns="http://www.w3.org/2000/svg"
   xmlns:sodipodi="http://sodipodi.sourceforge.net/DTD/sodipodi-0.dtd"
   xmlns:inkscape="http://www.inkscape.org/namespaces/inkscape"
   id="svg2"
   sodipodi:version="0.32"
   inkscape:version="0.46"
   width="44"
   height="56"
   version="1.0"
   sodipodi:docname="penoff.svg"
   inkscape:output_extension="org.inkscape.output.svg.inkscape">
  <metadata
     id="metadata7">
    <rdf:RDF>
      <cc:Work
         rdf:about="">
        <dc:format>image/svg+xml</dc:format>
        <dc:type
           rdf:resource="http://purl.org/dc/dcmitype/StillImage" />
      </cc:Work>
    </rdf:RDF>
  </metadata>
  <defs
     id="defs5">
    <inkscape:perspective
       sodipodi:type="inkscape:persp3d"
       inkscape:vp_x="0 : 526.18109 : 1"
       inkscape:vp_y="0 : 1000 : 0"
       inkscape:vp_z="744.09448 : 526.18109 : 1"
       inkscape:persp3d-origin="372.04724 : 350.78739 : 1"
       id="perspective9" />
    <inkscape:perspective
       id="perspective2465"
       inkscape:persp3d-origin="372.04724 : 350.78739 : 1"
       inkscape:vp_z="744.09448 : 526.18109 : 1"
       inkscape:vp_y="0 : 1000 : 0"
       inkscape:vp_x="0 : 526.18109 : 1"
       sodipodi:type="inkscape:persp3d" />
  </defs>
  <sodipodi:namedview
     inkscape:window-height="1000"
     inkscape:window-width="1679"
     inkscape:pageshadow="2"
     inkscape:pageopacity="0.0"
     guidetolerance="10.0"
     gridtolerance="10.0"
     objecttolerance="10.0"
     borderopacity="1.0"
     bordercolor="#666666"
     pagecolor="#ffffff"
     id="base"
     showgrid="false"
     inkscape:zoom="13.946903"
     inkscape:cx="21.5"
     inkscape:cy="30.86802"
     inkscape:window-x="0"
     inkscape:window-y="0"
     inkscape:current-layer="svg2" />
  <path
     style="fill:#e0e0e0;stroke:#a0a0a0;stroke-width:1.50000000000000000;stroke-opacity:1;fill-opacity:1;stroke-dasharray:none"
     d="M 0.5,0.5 L 34.368627,0.5 C 34.368627,0.5 38.114227,1.7321101 39.419608,2.745098 C 40.606507,3.6661424 42.5,6.6980392 42.5,6.6980392 L 42.5,48.972549 C 42.5,48.972549 40.664623,52.23677 39.858824,53.035295 C 38.435367,54.4459 34.588235,55.5 34.588235,55.5 L 0.5,55.5 L 0.5,0.5 z"
     id="path2384"
     sodipodi:nodetypes="ccsccsccc" />
  <path
     style="fill:none;stroke:#808080;stroke-width:3;stroke-linecap:round;stroke-opacity:1;stroke-dasharray:none"
     d="M 5.4492386,40.369289 C 6.8832487,41.157995 10.689009,41.771717 12.977792,41.659898 C 14.603959,41.580451 16.892721,41.180049 18.211929,40.225888 C 20.450052,38.60709 21.244624,34.396261 23.302665,32.553934 C 24.528366,31.456705 26.534509,30.109299 28.178299,30.044416 C 30.18215,29.965321 32.646467,31.558765 34.344543,32.625635 C 35.634759,33.436254 38.14467,35.995558 38.14467,35.995558"
     id="path2471"
     sodipodi:nodetypes="cssssss" />
  <path
     style="fill:#ffffff;stroke:#ffffff;stroke-width:1px;stroke-opacity:1;fill-opacity:1"
     d="M 7.2417513,38.935279 L 8.3889594,34.274746 L 10.324873,34.633249 L 11.543782,35.708756 L 11.830584,37.788071 L 7.2417513,38.935279 z"
     id="path3245"
     sodipodi:nodetypes="cccccc" />
  <path
     style="fill:none;stroke:#606060;stroke-width:2;stroke-linecap:round;stroke-opacity:1;stroke-dasharray:none"
     d="M 5.8077411,40.154188 C 7.5285533,38.289975 7.6719543,38.433376 7.6719543,38.433376"
     id="path3243"
     sodipodi:nodetypes="cc" />
  <path
     style="fill:#a0a0a0;fill-opacity:1;stroke:#a0a0a0;stroke-width:1px;stroke-opacity:1"
     d="M 8.8908629,33.557742 L 27.246192,15.489214 L 28.680203,16.851523 L 10.683375,34.418148 L 8.8908629,33.557742 z"
     id="path3247"
     sodipodi:nodetypes="ccccc" />
  <path
     style="fill:#808080;fill-opacity:1;stroke:#808080;stroke-width:1px;stroke-opacity:1"
     d="M 12.117386,35.421955 L 29.970812,18.213833 L 31.404823,19.576142 L 12.475887,37.644671 L 12.117386,35.421955 z"
     id="path3249"
     sodipodi:nodetypes="ccccc" />
  <path
     style="fill:#c4c4c4;stroke:#c4c4c4;stroke-width:1px;stroke-opacity:1;fill-opacity:1"
     d="M 10.253173,34.346447 L 11.902284,35.995558 L 30.185914,18.213832 L 28.680203,16.42132 L 10.253173,34.346447 z"
     id="path3251" />
  <path
     style="fill:#a0a0a0;fill-opacity:1;stroke:#a0a0a0;stroke-width:1px;stroke-opacity:1"
     d="M 29.863261,12.011739 L 32.301079,9.6456219 L 33.502063,10.488102 L 34.918148,11.689086 L 35.90403,12.96177 L 36.818211,14.449556 L 34.452094,16.959075 L 33.555837,15.453364 L 31.368971,13.087247 L 29.863261,12.011739 z"
     id="path3255"
     sodipodi:nodetypes="cccccccccc" />
  <path
     style="fill:#c4c4c4;stroke:#c4c4c4;stroke-width:1px;stroke-opacity:1;fill-opacity:1"
     d="M 27.174492,14.772208 L 29.468909,12.692893 L 30.669893,13.535373 L 32.085978,14.736357 L 33.07186,16.009041 L 33.986041,17.496827 L 31.906726,19.361041 L 30.938769,18.213833 L 28.608502,15.991117 L 27.174492,14.772208 z"
     id="path3253"
     sodipodi:nodetypes="cccccccccc" />
</svg>
