<?xml version="1.0" encoding="UTF-8" standalone="no"?>
<!-- Created with Inkscape (http://www.inkscape.org/) -->
<svg
   xmlns:svg="http://www.w3.org/2000/svg"
   xmlns="http://www.w3.org/2000/svg"
   version="1.0"
   width="145"
   height="500"
   id="svg2">
  <defs
     id="defs44" />
  <rect
     width="143"
     height="440"
     x="1"
     y="30"
     id="rect4"
     style="opacity:1;fill:#ffffff;fill-opacity:1;stroke:none;stroke-width:4;stroke-opacity:1" />
  <rect
     width="145"
     height="29"
     x="0"
     y="0"
     id="rect6"
     style="opacity:1;fill:#080808;fill-opacity:1;stroke:none;stroke-width:1;stroke-opacity:1" />
  <path
     d="M 0,470 L 0,486 L 3,493 L 8,497 L 15,499 L 129,499 L 136,497 L 142,492 L 145,484 L 145,470 L 0,470 z"
     id="path8"
     style="fill:#080808;fill-opacity:1;stroke:none;stroke-width:1px;stroke-opacity:1" />
  <path
     d="M 69.731407,92.73827 L 69.731407,92.73827 L 43.730107,108.07237 L 43.730107,108.07237 L 43.730107,110.73917 L 30.396107,110.73917 L 30.396107,108.07237 C 30.396107,108.07237 4.3948068,92.73827 4.3948068,92.73827 C 4.3948068,92.73827 37.063107,74.73737 37.063107,74.73737 C 37.063107,74.73737 69.731407,92.73827 69.731407,92.73827 z"
     id="path49"
     style="fill:#181818;fill-opacity:1;stroke:none;stroke-width:1;stroke-opacity:1" />
  <path
     d="M 113.81428,78.73757 C 124.48148,78.73757 124.48148,78.73757 124.48148,78.73757 C 124.48148,78.73757 127.23615,80.395355 128.14833,81.40437 C 129.08003,82.434971 130.48178,85.40457 130.48178,85.40457 L 130.48178,98.07187 C 130.48178,98.07187 129.00368,100.53443 128.14833,101.40537 C 127.19525,102.37584 124.48148,104.07217 124.48148,104.07217 L 113.14758,104.07217 L 113.14758,104.07217 L 113.14758,106.73897 L 99.813583,106.73897 L 99.813583,104.07217 L 88.479683,104.07217 C 88.479683,104.07217 85.765921,102.37584 84.812833,101.40537 C 83.95749,100.53443 82.479383,98.07187 82.479383,98.07187 L 82.479383,85.40457 C 82.479383,85.40457 83.881139,82.434971 84.812833,81.40437 C 85.725013,80.395355 88.479683,78.73757 88.479683,78.73757 L 99.146883,78.73757 L 99.146883,82.07107 L 113.81428,82.07107 L 113.81428,78.73757 z"
     id="path55"
     style="fill:#202020;fill-opacity:1;stroke:none;stroke-width:1;stroke-opacity:1" />
  <path
     d="M 69.731407,133.9991 L 69.731407,133.9991 L 43.730107,149.3332 L 43.730107,149.3332 L 43.730107,152 L 30.396107,152 L 30.396107,149.3332 C 30.396107,149.3332 4.3948068,133.9991 4.3948068,133.9991 C 4.3948068,133.9991 37.063107,115.9982 37.063107,115.9982 C 37.063107,115.9982 69.731407,133.9991 69.731407,133.9991 z"
     id="path61"
     style="fill:#282828;fill-opacity:1;stroke:none;stroke-width:1;stroke-opacity:1" />
  <path
     d="M 113.81428,119.9984 C 124.48148,119.9984 124.48148,119.9984 124.48148,119.9984 C 124.48148,119.9984 127.23615,121.65619 128.14833,122.6652 C 129.08003,123.6958 130.48178,126.6654 130.48178,126.6654 L 130.48178,139.3327 C 130.48178,139.3327 129.00368,141.79526 128.14833,142.6662 C 127.19525,143.63667 124.48148,145.333 124.48148,145.333 L 113.14758,145.333 L 113.14758,145.333 L 113.14758,147.9998 L 99.813583,147.9998 L 99.813583,145.333 L 88.479683,145.333 C 88.479683,145.333 85.765921,143.63667 84.812833,142.6662 C 83.95749,141.79526 82.479383,139.3327 82.479383,139.3327 L 82.479383,126.6654 C 82.479383,126.6654 83.881139,123.6958 84.812833,122.6652 C 85.725013,121.65619 88.479683,119.9984 88.479683,119.9984 L 99.146883,119.9984 L 99.146883,123.3319 L 113.81428,123.3319 L 113.81428,119.9984 z"
     id="path67"
     style="fill:#303030;fill-opacity:1;stroke:none;stroke-width:1;stroke-opacity:1" />
  <g
     transform="matrix(0.5,0,0,0.5,35,169.40992)"
     id="g2737"
     style="fill:#383838;fill-opacity:1">
    <path
       d="M 74.5,1 L 1.5,37.5 L 64.5,70 L 64.5,74 L 84.5,74 L 84.5,70 L 148.5,37.5 L 74.5,1 z"
       id="path6722"
       style="fill:#383838;fill-opacity:1;stroke:none;stroke-width:4;stroke-opacity:1" />
  </g>
  <g
     transform="matrix(0.5,0,0,0.5,40,211.5)"
     id="g2873"
     style="fill:#404040;fill-opacity:1;stroke:none">
    <path
       d="M 76,1 C 92,1 120,1 120,1 C 120,1 124.1318,3.4865526 125.5,5 C 126.89747,6.5458243 129,11 129,11 L 129,30 C 129,30 126.78295,33.693654 125.5,35 C 124.07044,36.455629 120,39 120,39 L 75,39 L 75,39 L 75,43 L 55,43 L 55,39 L 10,39 C 10,39 5.9295605,36.455629 4.5,35 C 3.2170498,33.693654 1,30 1,30 L 1,11 C 1,11 3.1025283,6.5458243 4.5,5 C 5.8682021,3.4865526 10,1 10,1 L 54,1 L 54,6 L 76,6 L 76,1 z"
       id="path10"
       style="fill:#404040;fill-opacity:1;stroke:none;stroke-width:4;stroke-opacity:1" />
  </g>
  <g
     transform="matrix(0.6667,0,0,0.6667,7.4928819,277.7771)"
     id="g85">
    <path
       d="M 70,6 L 86.5,6 L 86.5,12 L 82.5,12 L 82.5,9 L 72,9"
       id="path87"
       style="fill:#404040;fill-opacity:1;stroke:none;stroke-width:1.5;stroke-opacity:1" />
    <path
       d="M 70,33.5 L 86.5,33.5 L 86.5,27.5 L 82.5,27.5 L 82.5,30.5 L 72,30.5"
       id="path89"
       style="fill:#404040;fill-opacity:1;stroke:none;stroke-width:1.5;stroke-opacity:1" />
  </g>
  <path
     d="M 39.494482,272.61017 C 50.161682,272.61017 50.161682,272.61017 50.161682,272.61017 L 53.828532,275.27697 L 56.161982,279.27717 L 56.161982,301.94497 L 53.828532,305.94517 L 50.161682,308.61197 L 38.827782,308.61197 L 38.827782,308.61197 L 38.827782,311.27877 L 25.493782,311.27877 L 25.493782,308.61197 L 14.159882,308.61197 L 10.493032,305.94517 L 8.1595819,301.94497 L 8.1595819,279.27717 L 10.493032,275.27697 L 14.159882,272.61017 L 24.827082,272.61017 L 24.827082,275.94367 L 39.494482,275.94367 L 39.494482,272.61017 z"
     id="path91"
     style="fill:#484848;fill-opacity:1;stroke:none;stroke-width:1;stroke-opacity:1" />
  <path
     d="M 70.522547,285.27747 L 73.856047,285.27747 L 73.856047,287.94427 L 78.522947,287.94427 L 78.522947,285.27747 L 139.526,285.27747 L 139.526,298.61147 L 78.522947,298.61147 L 78.522947,295.94467 L 73.856047,295.94467 L 73.856047,298.61147 L 70.522547,298.61147 L 70.522547,285.27747 z"
     id="path101"
     style="fill:#505050;fill-opacity:1;stroke:none;stroke-width:1;stroke-opacity:1" />
  <g
     transform="matrix(0.6667,0,0,0.6667,7.4928819,324.20427)"
     id="g107">
    <path
       d="M 70,6 L 86.5,6 L 86.5,12 L 82.5,12 L 82.5,9 L 72,9"
       id="path109"
       style="fill:#505050;fill-opacity:1;stroke:none;stroke-width:1.5;stroke-opacity:1" />
    <path
       d="M 70,33.5 L 86.5,33.5 L 86.5,27.5 L 82.5,27.5 L 82.5,30.5 L 72,30.5"
       id="path111"
       style="fill:#505050;fill-opacity:1;stroke:none;stroke-width:1.5;stroke-opacity:1" />
  </g>
  <path
     d="M 39.494482,319.03735 C 50.161682,319.03735 50.161682,319.03735 50.161682,319.03735 L 53.828532,321.70415 L 56.161982,325.70435 L 56.161982,348.37215 L 53.828532,352.37235 L 50.161682,355.03915 L 38.827782,355.03915 L 38.827782,355.03915 L 38.827782,357.70595 L 25.493782,357.70595 L 25.493782,355.03915 L 14.159882,355.03915 L 10.493032,352.37235 L 8.1595819,348.37215 L 8.1595819,325.70435 L 10.493032,321.70415 L 14.159882,319.03735 L 24.827082,319.03735 L 24.827082,322.37085 L 39.494482,322.37085 L 39.494482,319.03735 z"
     id="path113"
     style="fill:#585858;fill-opacity:1;stroke:none;stroke-width:1;stroke-opacity:1" />
  <path
     d="M 70.522547,331.70465 L 73.856047,331.70465 L 73.856047,334.37145 L 78.522947,334.37145 L 78.522947,331.70465 L 139.526,331.70465 L 139.526,345.03865 L 78.522947,345.03865 L 78.522947,342.37185 L 73.856047,342.37185 L 73.856047,345.03865 L 70.522547,345.03865 L 70.522547,331.70465 z"
     id="path123"
     style="fill:#606060;fill-opacity:1;stroke:none;stroke-width:1;stroke-opacity:1" />
  <g
     transform="matrix(0.5,0,0,0.5,37.0625,368.31313)"
     id="g3062"
     style="fill:#686868;fill-opacity:1;stroke:none">
    <g
       transform="translate(59.878677,45.17647)"
       id="g2533"
       style="fill:#686868;fill-opacity:1;stroke:none">
      <path
         d="M 64.871323,-38.92647 L 81.371323,-38.92647 L 81.371323,-32.92647 L 77.371323,-32.92647 L 77.371323,-35.92647 L 66.871323,-35.92647"
         id="path2493"
         style="fill:#686868;fill-opacity:1;stroke:none;stroke-width:3;stroke-opacity:1" />
      <path
         d="M 64.871323,-11.42647 L 81.371323,-11.42647 L 81.371323,-17.42647 L 77.371323,-17.42647 L 77.371323,-14.42647 L 66.871323,-14.42647"
         id="path2495"
         style="fill:#686868;fill-opacity:1;stroke:none;stroke-width:3;stroke-opacity:1" />
    </g>
    <path
       d="M 76,1 C 92,1 120,1 120,1 C 120,1 124.1318,3.4865526 125.5,5 C 126.89747,6.5458243 129,11 129,11 L 129,30 C 129,30 126.78295,33.693654 125.5,35 C 124.07044,36.455629 120,39 120,39 L 75,39 L 75,39 L 75,43 L 55,43 L 55,39 L 10,39 C 10,39 5.9295605,36.455629 4.5,35 C 3.2170498,33.693654 1,30 1,30 L 1,11 C 1,11 3.1025283,6.5458243 4.5,5 C 5.8682021,3.4865526 10,1 10,1 L 54,1 L 54,6 L 76,6 L 76,1 z"
       id="path3067"
       style="fill:#686868;fill-opacity:1;stroke:none;stroke-width:4;stroke-opacity:1" />
  </g>
  <g
     transform="matrix(0.5,0,0,0.5,40,399.6775)"
     id="g3156"
     style="fill:#707070;fill-opacity:1;stroke:none">
    <path
       d="M 13,1 L 13,10 L 6,10 L 6,6 L 1,6 L 1,25 L 6,25 L 6,21 L 13,21 L 13,31 L 129,31 L 129,1 L 13,1 z"
       id="path11"
       style="fill:#707070;fill-opacity:1;stroke:none;stroke-width:4;stroke-opacity:1" />
  </g>
  <g
     transform="translate(-1.88425e-2,73.71799)"
     id="g149"
     style="fill:#787878;fill-opacity:1;stroke:none">
    <path
       d="M 40.693845,353.55201 L 40.693845,358.24201 L 38.013845,358.24201 L 38.013845,361.59201 L 40.693845,361.59201 L 40.693845,366.28201 L 104.34384,366.28201 L 107.02384,359.91701 L 104.34384,353.55201 L 40.693845,353.55201 z"
       id="path151"
       style="fill:#787878;fill-opacity:1;fill-rule:nonzero;stroke:none;stroke-width:1;stroke-linejoin:round;stroke-miterlimit:4;stroke-dasharray:none;stroke-opacity:1" />
  </g>
  <path
     d="M 97,50.5 C 97.09921,57.29082 77.5,63 77.5,63 L 77.5,63 L 77.5,65 L 67.5,65 L 67.5,63 C 67.5,63 47.90079,57.29082 48,50.5 C 48.12259,42.10894 64.10804,38 72.5,38 C 80.89196,38 96.87741,42.10894 97,50.5 z"
     id="path2528"
     style="fill:#101010;fill-opacity:1;stroke:none;stroke-width:2;stroke-opacity:1" />
</svg>
