<?xml version="1.0" encoding="UTF-8" standalone="no"?>
<!-- Created with Inkscape (http://www.inkscape.org/) -->
<svg
   xmlns:svg="http://www.w3.org/2000/svg"
   xmlns="http://www.w3.org/2000/svg"
   version="1.0"
   width="43.5"
   height="56.5"
   id="svg2">
  <defs
     id="defs5" />
  <path
     d="M 0.75,0.75 L 34.618627,0.75 C 34.618627,0.75 38.364227,1.9821101 39.669608,2.995098 C 40.856507,3.9161424 42.75,6.9480392 42.75,6.9480392 L 42.75,49.222549 C 42.75,49.222549 40.914623,52.48677 40.108824,53.285295 C 38.685367,54.6959 34.838235,55.75 34.838235,55.75 L 0.75,55.75 L 0.75,0.75 z"
     id="path2384"
     style="fill:#e0e0e0;fill-opacity:1;stroke:#808080;stroke-width:1.5;stroke-dasharray:none;stroke-opacity:1" />
  <path
     d="M 12.555881,44.10283 C 13.931472,43.290249 15.380009,42.234524 16.055881,42.10283 C 16.731753,41.971136 16.634959,42.763471 18.055881,43.60283 C 20.927304,45.299021 23.184458,45.299021 26.055881,43.60283 C 27.476803,42.763471 27.380009,41.971136 28.055881,42.10283 C 28.731753,42.234525 30.180291,43.290249 31.555881,44.10283 C 33.153242,45.046415 37.561517,45.10283 38.555881,45.10283 C 39.918856,45.10283 38.166004,43.285432 35.555881,41.10283 L 31.555881,38.10283 L 33.555881,36.10283 C 35.607882,32.501435 36.115559,30.373507 34.555881,27.10283 L 32.555881,24.60283 L 38.055881,20.60283 C 40.109082,18.955696 39.390871,16.144856 39.055881,15.60283 C 38.886209,15.328294 37.482523,15.288018 36.555881,15.60283 C 35.629239,15.917643 35.179641,16.587544 34.380854,17.35283 C 31.668721,19.951218 32.942668,20.742854 29.137607,19.60283 C 24.742429,18.286003 24.014652,17.21115 26.769693,14.166865 C 28.312388,12.462205 28.066577,11.025952 26.37941,9.1616535 C 24.078277,6.6189306 20.386426,6.5012836 18.085293,9.0440065 C 16.398126,10.908305 15.799374,12.579852 17.342069,14.284512 C 20.09711,17.328797 19.134039,18.286003 14.738861,19.60283 C 10.947019,20.738893 11.967106,19.878099 9.331293,17.35283 C 8.562274,16.616064 8.382564,15.906053 7.555881,15.60283 C 6.729198,15.299606 5.255542,15.403169 5.055881,15.60283 C 4.656561,16.00215 3.974852,18.855701 6.055881,20.60283 L 11.555881,24.60283 L 9.555881,27.10283 C 7.990469,30.385533 8.502119,32.498343 10.555881,36.10283 L 12.555881,38.10283 L 8.555881,41.10283 C 5.945758,43.285432 4.192906,45.10283 5.555881,45.10283 C 6.550245,45.10283 10.95852,45.046415 12.555881,44.10283 z"
     id="path2582"
     style="fill:#008000;fill-opacity:1;stroke:#008000;stroke-opacity:1" />
  <path
     d="M 28.6,8.333333 C 28.6,9.1433508 28.047818,9.7999999 27.366667,9.7999999 C 26.685515,9.7999999 26.133333,9.1433508 26.133333,8.333333 C 26.133333,7.5233152 26.685515,6.8666661 27.366667,6.8666661 C 28.047818,6.8666661 28.6,7.5233152 28.6,8.333333 z"
     transform="matrix(1.0410748,0,0,0.8754493,-3.4348662,2.8074193)"
     id="path3269"
     style="fill:#00a000;fill-opacity:1;stroke:#000000;stroke-width:1.5;stroke-opacity:1" />
  <path
     d="M 28.6,8.333333 C 28.6,9.1433508 28.047818,9.7999999 27.366667,9.7999999 C 26.685515,9.7999999 26.133333,9.1433508 26.133333,8.333333 C 26.133333,7.5233152 26.685515,6.8666661 27.366667,6.8666661 C 28.047818,6.8666661 28.6,7.5233152 28.6,8.333333 z"
     transform="matrix(1.0410748,0,0,0.8754493,-9.4348661,2.8074193)"
     id="path3265"
     style="fill:#00a000;fill-opacity:1;stroke:#000000;stroke-width:1.5;stroke-opacity:1" />
</svg>
