<?xml version="1.0" encoding="UTF-8" standalone="no"?>
<!-- Created with Inkscape (http://www.inkscape.org/) -->

<svg
   xmlns:svg="http://www.w3.org/2000/svg"
   xmlns="http://www.w3.org/2000/svg"
   version="1.0"
   width="55"
   height="55"
   id="svg2">
  <defs
     id="defs5" />
  <rect
     width="55"
     height="55"
     rx="0"
     x="0"
     y="0"
     id="rect2839"
     style="fill:#ffd200;fill-opacity:1;fill-rule:evenodd;stroke:none" />
  <path
     d="m 18.017646,45.454031 c 1.375591,-0.812581 2.824128,-1.868306 3.5,-2 0.675872,-0.131694 0.579078,0.660641 2,1.5 2.871423,1.696191 5.128577,1.696191 8,0 1.420922,-0.839359 1.324128,-1.631694 2,-1.5 0.675872,0.131695 2.12441,1.187419 3.5,2 1.597361,0.943585 6.005636,1 7,1 1.362975,0 -0.389877,-1.817398 -3,-4 l -4,-3 2,-2 c 2.052001,-3.601395 2.559678,-5.729323 1,-9 l -2,-2.5 5.5,-4 c 2.053201,-1.647134 1.33499,-4.457974 1,-5 -0.169672,-0.274536 -1.573358,-0.314812 -2.5,0 -0.926642,0.314813 -1.37624,0.984714 -2.175027,1.75 -2.712133,2.598388 -1.438186,3.390024 -5.243247,2.25 -4.395178,-1.316827 -5.122955,-2.39168 -2.367914,-5.435965 1.542695,-1.70466 1.296884,-3.140913 -0.390283,-5.005211 -2.301133,-2.5427232 -5.992984,-2.6603702 -8.294117,-0.117647 -1.687167,1.864298 -2.285919,3.535845 -0.743224,5.240505 2.755041,3.044285 1.79197,4.001491 -2.603208,5.318318 -3.791842,1.136063 -2.771755,0.275269 -5.407568,-2.25 -0.769019,-0.736766 -0.948729,-1.446777 -1.775412,-1.75 -0.826683,-0.303224 -2.300339,-0.199661 -2.5,0 -0.39932,0.39932 -1.0810289,3.252871 1,5 l 5.5,4 -2,2.5 c -1.565412,3.282703 -1.053762,5.395513 1,9 l 2,2 -4,3 c -2.610123,2.182602 -4.3629749,4 -3,4 0.994364,0 5.402639,-0.05641 7,-1 z"
     id="path2582"
     style="fill:#00D000;fill-opacity:1;stroke:#00D000;stroke-opacity:1" />
  <path
     d="m 31.283993,14 c 0,0.709129 -0.574863,1.283992 -1.283992,1.283992 -0.70913,0 -1.283993,-0.574863 -1.283993,-1.283992 0,-0.709129 0.574863,-1.283992 1.283993,-1.283992 0.709129,0 1.283992,0.574863 1.283992,1.283992 z"
     id="path3269"
     style="fill:#00FF00;fill-opacity:1;stroke:#000000;stroke-width:1.43201554;stroke-opacity:1" />
  <path
     d="m 26.283993,14 c 0,0.709129 -0.574863,1.283992 -1.283992,1.283992 -0.70913,0 -1.283993,-0.574863 -1.283993,-1.283992 0,-0.709129 0.574863,-1.283992 1.283993,-1.283992 0.709129,0 1.283992,0.574863 1.283992,1.283992 z"
     id="path3265"
     style="fill:#00FF00;fill-opacity:1;stroke:#000000;stroke-width:1.43201554;stroke-opacity:1" />
</svg>
