<?xml version="1.0" encoding="UTF-8" standalone="no"?>
<!-- Created with Inkscape (http://www.inkscape.org/) -->
<svg
   xmlns:svg="http://www.w3.org/2000/svg"
   xmlns="http://www.w3.org/2000/svg"
   xmlns:xlink="http://www.w3.org/1999/xlink"
   version="1.0"
   width="767"
   height="38"
   id="svg2">
  <defs
     id="defs41">
    <linearGradient
       x1="0"
       y1="0"
       x2="104"
       y2="21"
       id="linearGradient3172"
       xlink:href="#linearGradient3166"
       gradientUnits="userSpaceOnUse"
       gradientTransform="matrix(0.67,0,0,0.67,125.79816,9.965)" />
    <linearGradient
       id="linearGradient3166">
      <stop
         id="stop3168"
         style="stop-color:#ffffff;stop-opacity:1"
         offset="0" />
      <stop
         id="stop3170"
         style="stop-color:#0000ff;stop-opacity:1"
         offset="1" />
    </linearGradient>
  </defs>
  <path
     d="M 0.5,37.5 L 0.5,13 L 3.5,6.5 L 8.5,2.5 L 15,0 L 751.5,0 L 758,2.5 L 764,7 L 767,15 L 767,38 L 0.5,37.5 z"
     id="path4"
     style="fill:#ffd000;fill-opacity:1;fill-rule:evenodd;stroke:#e0a000;stroke-width:0.99423993px;stroke-linecap:butt;stroke-linejoin:miter;stroke-opacity:1" />
  <g
     transform="translate(656,63)"
     id="g6">
    <path
       d="M 79.5,438.375 C 79.5,442.86231 75.750385,446.5 71.125,446.5 C 66.499615,446.5 62.75,442.86231 62.75,438.375 C 62.75,433.88769 66.499615,430.25 71.125,430.25 C 75.750385,430.25 79.5,433.88769 79.5,438.375 L 79.5,438.375 z"
       transform="translate(24,-485)"
       id="path8"
       style="fill:#ff4040;fill-opacity:1;fill-rule:nonzero;stroke:#ff4040;stroke-width:1;stroke-linecap:square;stroke-linejoin:round;stroke-miterlimit:4;stroke-dasharray:none;stroke-opacity:1" />
    <text
       id="text10"
       style="font-size:12px;font-weight:bold;fill:#000000;fill-opacity:1;font-family:Bitstream Vera Sans">
      <tspan
         x="91"
         y="-42"
         id="tspan12"
         style="font-size:12px">X</tspan>
    </text>
  </g>
  <g
     transform="translate(0,-0.25)"
     id="g14">
    <path
       d="M 122.5,8.5 L 133.5,8.5 L 133.5,12.5 L 131,12.5 L 131,10.5 L 124,10.5"
       id="path16"
       style="fill:#a0a0a0;fill-opacity:1;stroke:#808080;stroke-width:1;stroke-linecap:butt;stroke-linejoin:miter;stroke-miterlimit:4;stroke-dasharray:none;stroke-opacity:1" />
    <path
       d="M 122.5,27 L 133.5,27 L 133.5,23 L 131,23 L 131,25 L 124,25"
       id="path18"
       style="fill:#a0a0a0;fill-opacity:1;stroke:#808080;stroke-width:1;stroke-linecap:butt;stroke-linejoin:miter;stroke-miterlimit:4;stroke-dasharray:none;stroke-opacity:1" />
    <path
       d="M 108,5.25 C 118.5,5.25 118.5,5.25 118.5,5.25 C 118.5,5.25 121.5,7 122.25,8 C 123,9 124.5,12 124.5,12 L 124.5,24.5 C 124.5,24.5 123,27 122.25,28 C 121.25,29 118.5,30.5 118.5,30.5 L 107.25,30.5 L 107.25,30 L 107.25,33.25 L 94,33.25 L 94,30.5 L 82.5,30.5 C 82.5,30.5 80,29 79,28 C 78,27 76.5,24.5 76.5,24.5 L 76.5,12 C 76.5,12 78,9 79,8 C 80,7 82.5,5.25 82.5,5.25 L 93.25,5.25 L 93.25,8.5 L 108,8.5 L 108,5.25 z"
       id="path20"
       style="fill:#e0e0e0;fill-opacity:1;fill-rule:nonzero;stroke:#808080;stroke-width:1.33340001;stroke-linecap:butt;stroke-linejoin:miter;stroke-miterlimit:4;stroke-dasharray:none;stroke-opacity:1" />
  </g>
  <path
     d="M 126.46816,10.3 L 129.81816,10.3 L 129.81816,12.98 L 134.50816,12.98 L 134.50816,10.3 L 195.81316,10.3 L 195.81316,23.7 L 134.50816,23.7 L 134.50816,21.02 L 129.81816,21.02 L 129.81816,23.7 L 126.46816,23.7 L 126.46816,10.3 z"
     id="path2498"
     style="fill:url(#linearGradient3172);fill-opacity:1;stroke:#0000a0;stroke-width:1.29999995;stroke-miterlimit:4;stroke-dasharray:none;stroke-opacity:1" />
  <path
     d="M 205.82231,17.000001 C 205.82231,25.061518 185.73387,31.596667 160.95355,31.596667 C 136.17323,31.596667 116.08479,25.061518 116.08479,17.000001 C 116.08479,8.938484 136.17323,2.4033334 160.95355,2.4033334 C 185.73387,2.4033334 205.82231,8.938484 205.82231,17.000001 L 205.82231,17.000001 z"
     id="path22"
     style="opacity:1;fill:none;fill-opacity:1;fill-rule:nonzero;stroke:#ff0000;stroke-width:2;stroke-linecap:square;stroke-linejoin:miter;stroke-miterlimit:4;stroke-dasharray:none;stroke-opacity:1" />
  <text
     x="38"
     y="-0.09375"
     id="text24"
     style="font-size:12px;font-style:normal;font-weight:normal;fill:#ff0000;fill-opacity:1;stroke:none;stroke-width:1px;stroke-linecap:butt;stroke-linejoin:miter;stroke-opacity:1;font-family:Bitstream Vera Sans">
    <tspan
       x="208"
       y="27.90625"
       id="tspan26"
       style="font-size:24px">???</tspan>
  </text>
  <g
     id="g28">
    <path
       d="M 44,15 L 10.5,15 L 27.5,-14 L 44,15 z"
       transform="translate(-4,20)"
       id="path30"
       style="opacity:1;fill:#404040;fill-opacity:1;fill-rule:nonzero;stroke:none;stroke-width:3;stroke-linecap:square;stroke-linejoin:miter;stroke-miterlimit:4;stroke-dasharray:none;stroke-opacity:1" />
    <path
       d="M 44,15 L 10.5,15 L 27.5,-14 L 44,15 z"
       transform="translate(1,17)"
       id="path32"
       style="opacity:1;fill:#e0e0e0;fill-opacity:1;fill-rule:nonzero;stroke:none;stroke-width:3;stroke-linecap:square;stroke-linejoin:miter;stroke-miterlimit:4;stroke-dasharray:none;stroke-opacity:1" />
    <path
       d="M 44,15 L 10.5,15 L 27.5,-14 L 44,15 z"
       transform="translate(-1,18)"
       id="path34"
       style="opacity:1;fill:#ffe000;fill-opacity:1;fill-rule:nonzero;stroke:none;stroke-width:3;stroke-linecap:square;stroke-linejoin:miter;stroke-miterlimit:4;stroke-dasharray:none;stroke-opacity:1" />
  </g>
  <text
     id="text36"
     style="font-size:12px;font-style:normal;font-weight:normal;fill:#000000;fill-opacity:1;stroke:none;stroke-width:1px;stroke-linecap:butt;stroke-linejoin:miter;stroke-opacity:1;font-family:Bitstream Vera Sans">
    <tspan
       x="21"
       y="29"
       id="tspan38"
       style="font-size:24px">!</tspan>
  </text>
</svg>
