<?xml version="1.0" encoding="UTF-8" standalone="no"?>
<!-- Created with Inkscape (http://www.inkscape.org/) -->
<svg
   xmlns:svg="http://www.w3.org/2000/svg"
   xmlns="http://www.w3.org/2000/svg"
   xmlns:xlink="http://www.w3.org/1999/xlink"
   version="1.0"
   width="142"
   height="44"
   id="svg2">
  <defs
     id="defs4">
    <linearGradient
       id="linearGradient3166">
      <stop
         id="stop3168"
         style="stop-color:#ffffff;stop-opacity:1"
         offset="0" />
      <stop
         id="stop3170"
         style="stop-color:#ffff00;stop-opacity:1"
         offset="1" />
    </linearGradient>
    <linearGradient
       x1="0"
       y1="22"
       x2="128.68382"
       y2="22"
       id="linearGradient3172"
       xlink:href="#linearGradient3166"
       gradientUnits="userSpaceOnUse" />
    <linearGradient
       x1="0"
       y1="0"
       x2="64"
       y2="0"
       id="linearGradient2501"
       xlink:href="#linearGradient3166"
       gradientUnits="userSpaceOnUse"
       gradientTransform="translate(0,4.96875)" />
    <linearGradient
       x1="210"
       y1="10.5"
       x2="0"
       y2="10.5"
       id="linearGradient2496"
       xlink:href="#linearGradient3886"
       gradientUnits="userSpaceOnUse" />
    <linearGradient
       id="linearGradient3886">
      <stop
         id="stop3888"
         style="stop-color:#0000ff;stop-opacity:1"
         offset="0" />
      <stop
         id="stop3890"
         style="stop-color:#ffffff;stop-opacity:1"
         offset="1" />
    </linearGradient>
    <linearGradient
       x1="210"
       y1="10.5"
       x2="0"
       y2="10.5"
       id="linearGradient4211"
       xlink:href="#linearGradient3886"
       gradientUnits="userSpaceOnUse" />
    <linearGradient
       x1="0"
       y1="0"
       x2="64"
       y2="0"
       id="linearGradient4238"
       xlink:href="#linearGradient3166"
       gradientUnits="userSpaceOnUse"
       gradientTransform="translate(0,4.96875)" />
    <linearGradient
       id="linearGradient2473">
      <stop
         id="stop2475"
         style="stop-color:#ffffff;stop-opacity:1"
         offset="0" />
      <stop
         id="stop2477"
         style="stop-color:#ffff00;stop-opacity:1"
         offset="1" />
    </linearGradient>
    <linearGradient
       x1="0"
       y1="22"
       x2="74"
       y2="22"
       id="linearGradient2601"
       xlink:href="#linearGradient3166"
       gradientUnits="userSpaceOnUse" />
    <linearGradient
       id="linearGradient2595">
      <stop
         id="stop2597"
         style="stop-color:#ffffff;stop-opacity:1"
         offset="0" />
      <stop
         id="stop2599"
         style="stop-color:#ffff00;stop-opacity:1"
         offset="1" />
    </linearGradient>
    <linearGradient
       x1="0"
       y1="22"
       x2="128.68382"
       y2="22"
       id="linearGradient2608"
       xlink:href="#linearGradient3166"
       gradientUnits="userSpaceOnUse" />
    <linearGradient
       x1="0"
       y1="22"
       x2="74"
       y2="22"
       id="linearGradient2515"
       xlink:href="#linearGradient3166"
       gradientUnits="userSpaceOnUse" />
    <linearGradient
       id="linearGradient2509">
      <stop
         id="stop2511"
         style="stop-color:#ffffff;stop-opacity:1"
         offset="0" />
      <stop
         id="stop2513"
         style="stop-color:#ffff00;stop-opacity:1"
         offset="1" />
    </linearGradient>
  </defs>
  <g
     transform="translate(59.878677,45.67647)"
     id="g2533">
    <path
       d="M 64.871323,-38.92647 L 81.371323,-38.92647 L 81.371323,-32.92647 L 77.371323,-32.92647 L 77.371323,-35.92647 L 66.871323,-35.92647"
       id="path2493"
       style="fill:#e0e000;fill-opacity:1;stroke:#a08000;stroke-width:1.5;stroke-opacity:1" />
    <path
       d="M 64.871323,-11.42647 L 81.371323,-11.42647 L 81.371323,-17.42647 L 77.371323,-17.42647 L 77.371323,-14.42647 L 66.871323,-14.42647"
       id="path2495"
       style="fill:#e0e000;fill-opacity:1;stroke:#908000;stroke-width:1.5;stroke-opacity:1" />
  </g>
  <path
     d="M 76,1 C 92,1 120,1 120,1 C 120,1 124.1318,3.4865526 125.5,5 C 126.89747,6.5458243 129,11 129,11 L 129,30 C 129,30 126.78295,33.693654 125.5,35 C 124.07044,36.455629 120,39 120,39 L 75,39 L 75,39 L 75,43 L 55,43 L 55,39 L 10,39 C 10,39 5.9295605,36.455629 4.5,35 C 3.2170498,33.693654 1,30 1,30 L 1,11 C 1,11 3.1025283,6.5458243 4.5,5 C 5.8682021,3.4865526 10,1 10,1 L 54,1 L 54,6 L 76,6 L 76,1 z"
     id="path10"
     style="fill:url(#linearGradient3172);fill-opacity:1;stroke:#c0a000;stroke-width:2;stroke-opacity:1" />
  <g
     transform="translate(12.5,11.5)"
     id="layer1"
     style="fill:#ffffff;fill-opacity:1;stroke:#c0a000;stroke-opacity:1">
    <path
       d="M 4,0 L 4,7 L 0,7 L 0,14 L 4,14 L 4,21 L 101,21 L 105,10.5 L 101,0 L 4,0 z"
       id="path2478"
       style="fill:#ffffff;fill-opacity:1;fill-rule:nonzero;stroke:#c0a000;stroke-width:2;stroke-linejoin:round;stroke-miterlimit:4;stroke-dasharray:none;stroke-opacity:1" />
  </g>
</svg>
