<?xml version="1.0" encoding="UTF-8" standalone="no"?>
<!-- Created with Inkscape (http://www.inkscape.org/) -->

<svg
   xmlns:dc="http://purl.org/dc/elements/1.1/"
   xmlns:cc="http://creativecommons.org/ns#"
   xmlns:rdf="http://www.w3.org/1999/02/22-rdf-syntax-ns#"
   xmlns:svg="http://www.w3.org/2000/svg"
   xmlns="http://www.w3.org/2000/svg"
   xmlns:xlink="http://www.w3.org/1999/xlink"
   xmlns:sodipodi="http://sodipodi.sourceforge.net/DTD/sodipodi-0.dtd"
   xmlns:inkscape="http://www.inkscape.org/namespaces/inkscape"
   version="1.0"
   width="145"
   height="500"
   id="svg2"
   inkscape:version="0.47pre4 r22446"
   sodipodi:docname="pengroup.svg">
  <metadata
     id="metadata137">
    <rdf:RDF>
      <cc:Work
         rdf:about="">
        <dc:format>image/svg+xml</dc:format>
        <dc:type
           rdf:resource="http://purl.org/dc/dcmitype/StillImage" />
      </cc:Work>
    </rdf:RDF>
  </metadata>
  <sodipodi:namedview
     pagecolor="#ffffff"
     bordercolor="#666666"
     borderopacity="1"
     objecttolerance="10"
     gridtolerance="10"
     guidetolerance="10"
     inkscape:pageopacity="0"
     inkscape:pageshadow="2"
     inkscape:window-width="640"
     inkscape:window-height="483"
     id="namedview135"
     showgrid="false"
     inkscape:zoom="3.898917"
     inkscape:cx="72.45"
     inkscape:cy="225.99443"
     inkscape:window-x="0"
     inkscape:window-y="27"
     inkscape:window-maximized="0"
     inkscape:current-layer="svg2" />
  <defs
     id="defs4">
    <inkscape:perspective
       sodipodi:type="inkscape:persp3d"
       inkscape:vp_x="0 : 250 : 1"
       inkscape:vp_y="0 : 1000 : 0"
       inkscape:vp_z="145 : 250 : 1"
       inkscape:persp3d-origin="72.5 : 166.66667 : 1"
       id="perspective139" />
    <linearGradient
       id="linearGradient3876">
      <stop
         id="stop3878"
         style="stop-color:#ffffff;stop-opacity:1"
         offset="0" />
      <stop
         id="stop3880"
         style="stop-color:#00ffff;stop-opacity:1"
         offset="1" />
    </linearGradient>
    <linearGradient
       x1="18"
       y1="48"
       x2="67"
       y2="48"
       id="linearGradient4830"
       xlink:href="#linearGradient3876"
       gradientUnits="userSpaceOnUse" />
    <linearGradient
       x1="77"
       y1="48"
       x2="126"
       y2="48"
       id="linearGradient4838"
       xlink:href="#linearGradient3876"
       gradientUnits="userSpaceOnUse" />
    <linearGradient
       x1="43"
       y1="95"
       x2="92"
       y2="95"
       id="linearGradient4846"
       xlink:href="#linearGradient3876"
       gradientUnits="userSpaceOnUse" />
    <linearGradient
       x1="43"
       y1="147"
       x2="92"
       y2="147"
       id="linearGradient4854"
       xlink:href="#linearGradient3876"
       gradientUnits="userSpaceOnUse" />
    <linearGradient
       x1="43"
       y1="199"
       x2="92"
       y2="199"
       id="linearGradient4862"
       xlink:href="#linearGradient3876"
       gradientUnits="userSpaceOnUse" />
    <linearGradient
       x1="43"
       y1="258"
       x2="92"
       y2="258"
       id="linearGradient4870"
       xlink:href="#linearGradient3876"
       gradientUnits="userSpaceOnUse" />
    <linearGradient
       x1="37"
       y1="312"
       x2="107"
       y2="312"
       id="linearGradient4878"
       xlink:href="#linearGradient3876"
       gradientUnits="userSpaceOnUse"
       gradientTransform="translate(0,65)" />
    <linearGradient
       x1="37"
       y1="337"
       x2="107"
       y2="337"
       id="linearGradient4886"
       xlink:href="#linearGradient3876"
       gradientUnits="userSpaceOnUse"
       gradientTransform="translate(0,61)" />
    <linearGradient
       x1="37"
       y1="362"
       x2="107"
       y2="362"
       id="linearGradient4894"
       xlink:href="#linearGradient3876"
       gradientUnits="userSpaceOnUse"
       gradientTransform="translate(0,57)" />
    <linearGradient
       x1="37"
       y1="337"
       x2="107"
       y2="337"
       id="linearGradient2501"
       xlink:href="#linearGradient3876"
       gradientUnits="userSpaceOnUse"
       gradientTransform="translate(0,95)" />
    <linearGradient
       x1="43"
       y1="95"
       x2="92"
       y2="95"
       id="linearGradient2560"
       xlink:href="#linearGradient3876"
       gradientUnits="userSpaceOnUse" />
    <linearGradient
       x1="43"
       y1="147"
       x2="92"
       y2="147"
       id="linearGradient2562"
       xlink:href="#linearGradient3876"
       gradientUnits="userSpaceOnUse" />
    <linearGradient
       x1="43"
       y1="199"
       x2="92"
       y2="199"
       id="linearGradient2580"
       xlink:href="#linearGradient3876"
       gradientUnits="userSpaceOnUse" />
    <linearGradient
       x1="43"
       y1="199"
       x2="92"
       y2="199"
       id="linearGradient2582"
       xlink:href="#linearGradient3876"
       gradientUnits="userSpaceOnUse" />
    <linearGradient
       x1="37"
       y1="337"
       x2="107"
       y2="337"
       id="linearGradient2584"
       xlink:href="#linearGradient3876"
       gradientUnits="userSpaceOnUse"
       gradientTransform="translate(0,95)" />
    <linearGradient
       x1="37"
       y1="337"
       x2="107"
       y2="337"
       id="linearGradient2598"
       xlink:href="#linearGradient3876"
       gradientUnits="userSpaceOnUse" />
    <linearGradient
       x1="37"
       y1="362"
       x2="107"
       y2="362"
       id="linearGradient2600"
       xlink:href="#linearGradient3876"
       gradientUnits="userSpaceOnUse" />
    <linearGradient
       x1="37"
       y1="362"
       x2="107"
       y2="362"
       id="linearGradient2627"
       xlink:href="#linearGradient3876"
       gradientUnits="userSpaceOnUse" />
    <linearGradient
       x1="37"
       y1="337"
       x2="107"
       y2="337"
       id="linearGradient2629"
       xlink:href="#linearGradient3876"
       gradientUnits="userSpaceOnUse" />
    <linearGradient
       x1="37"
       y1="362"
       x2="107"
       y2="362"
       id="linearGradient2631"
       xlink:href="#linearGradient3876"
       gradientUnits="userSpaceOnUse" />
    <linearGradient
       x1="37"
       y1="337"
       x2="107"
       y2="337"
       id="linearGradient2633"
       xlink:href="#linearGradient3876"
       gradientUnits="userSpaceOnUse" />
    <linearGradient
       x1="43"
       y1="199"
       x2="92"
       y2="199"
       id="linearGradient2521"
       xlink:href="#linearGradient3876"
       gradientUnits="userSpaceOnUse" />
    <linearGradient
       x1="43"
       y1="199"
       x2="92"
       y2="199"
       id="linearGradient2523"
       xlink:href="#linearGradient3876"
       gradientUnits="userSpaceOnUse" />
    <linearGradient
       x1="43"
       y1="199"
       x2="92"
       y2="199"
       id="linearGradient2530"
       xlink:href="#linearGradient3876"
       gradientUnits="userSpaceOnUse" />
    <linearGradient
       x1="43"
       y1="199"
       x2="92"
       y2="199"
       id="linearGradient2539"
       xlink:href="#linearGradient3876"
       gradientUnits="userSpaceOnUse" />
    <linearGradient
       x1="37"
       y1="337"
       x2="107"
       y2="337"
       id="linearGradient2633-4"
       xlink:href="#linearGradient3876-7"
       gradientUnits="userSpaceOnUse" />
    <linearGradient
       id="linearGradient3876-7">
      <stop
         id="stop3878-6"
         style="stop-color:#ffffff;stop-opacity:1"
         offset="0" />
      <stop
         id="stop3880-5"
         style="stop-color:#00ffff;stop-opacity:1"
         offset="1" />
    </linearGradient>
    <linearGradient
       x1="77"
       y1="48"
       x2="126"
       y2="48"
       id="linearGradient4087"
       xlink:href="#linearGradient3876"
       gradientUnits="userSpaceOnUse"
       gradientTransform="translate(2.054342,4)" />
    <linearGradient
       x1="43"
       y1="95"
       x2="92"
       y2="95"
       id="linearGradient4096"
       xlink:href="#linearGradient3876"
       gradientUnits="userSpaceOnUse"
       gradientTransform="translate(-33.8333,-2)" />
    <linearGradient
       x1="18"
       y1="48"
       x2="67"
       y2="48"
       id="linearGradient4105"
       xlink:href="#linearGradient3876"
       gradientUnits="userSpaceOnUse"
       gradientTransform="translate(-8,4)" />
  </defs>
  <path
     d="m 0.5,0.5 0,485.5 3.1,6 4.9,4 6.7,3 113.8,0 6.8,-3 6,-4 2.7,-6 0,-485.5 -144,0 z"
     id="path32"
     style="fill:#ffd000;fill-opacity:1;stroke:#e0a000;stroke-width:1;stroke-opacity:1" />
  <rect
     width="137.5"
     height="0.14"
     x="3.7"
     y="-29"
     transform="scale(1,-1)"
     id="rect40"
     style="fill:#ffd000;fill-opacity:1;stroke:#e0a000;stroke-width:1;stroke-opacity:1" />
  <rect
     width="137.5"
     height="0.14"
     x="3.7"
     y="-27.799999"
     transform="scale(1,-1)"
     id="rect42"
     style="fill:#ffd000;fill-opacity:1;stroke:#fff080;stroke-width:1;stroke-opacity:1" />
  <rect
     width="137.5"
     height="0.14"
     x="3.7"
     y="-474.79999"
     transform="scale(1,-1)"
     id="rect44"
     style="fill:#ffd000;fill-opacity:1;stroke:#e0a000;stroke-width:1;stroke-opacity:1" />
  <rect
     width="137.5"
     height="0.14"
     x="3.7"
     y="-473.5"
     transform="scale(1,-1)"
     id="rect46"
     style="fill:#ffd000;fill-opacity:1;stroke:#fff080;stroke-width:1;stroke-opacity:1" />
  <path
     d="m 80.9,486.4 c 0,4.5 -3.8,8.1 -8.4,8.1 -4.6,0 -8.4,-4.41 -8.4,-8.1 0,-4.5 3.8,-8.1 8.4,-8.1 4.6,0 8.4,3.6 8.4,8.1 l 0,0 z"
     id="path48"
     style="fill:#ff4040;fill-opacity:1;stroke:#ff4040;stroke-width:1;stroke-opacity:1" />
  <text
     id="text50"
     style="font-size:12px;font-weight:bold;fill:#ffffff;font-family:Bitstream Vera Sans">
    <tspan
       x="68"
       y="491"
       id="tspan52"
       style="font-size:12px;font-weight:bold;fill:#ffffff">X</tspan>
  </text>
  <text
     id="text54"
     style="font-size:12px;text-align:center;text-anchor:middle;font-family:Bitstream Vera Sans">
    <tspan
       x="72.5"
       y="21"
       id="tspan56"
       style="font-size:20px">Penn</tspan>
  </text>
  <path
     d="m 42,38 c 10,0 10,0 10,0 0,0 2.932088,1.720414 4,3 0.95517,1.144497 2,4 2,4 l 0,12 c 0,0 -0.945907,2.945907 -2,4 -1.054093,1.054093 -4,2 -4,2 l -11,0 0,0 0,3 -13,0 0,-3 -12,0 c 0,0 -2.126911,-1.17407 -3,-2 -1.210756,-1.145359 -3,-4 -3,-4 l 0,-12 c 0,0 1.419631,-2.919267 2.470149,-4.132463 C 13.462488,39.721531 16,38 16,38 l 11,0 0,3 15,0 0,-3 z"
     id="path60"
     style="fill:url(#linearGradient4105);fill-opacity:1;stroke:#00a0a0;stroke-width:1;stroke-opacity:1" />
  <text
     x="-8"
     y="4"
     id="text49"
     style="font-size:12px;text-align:center;text-anchor:middle;font-family:Bitstream Vera Sans">
    <tspan
       x="35"
       y="49"
       id="tspan63"
       style="font-size:10px">løft</tspan>
  </text>
  <text
     x="-8"
     y="4"
     id="text65"
     style="font-size:12px;text-align:center;text-anchor:middle;font-family:Bitstream Vera Sans">
    <tspan
       x="35"
       y="59"
       id="tspan67"
       style="font-size:10px">penn</tspan>
  </text>
  <path
     d="m 111.05434,38 c 11,0 11,0 11,0 0,0 2.45058,1.535538 3.39739,2.602612 C 126.58219,41.876671 128.05434,45 128.05434,45 l 0,12 c 0,0 -1.78924,2.854641 -3,4 -0.87309,0.82593 -3,2 -3,2 l -12,0 0,0 0,3 -12.999998,0 0,-3 -11,0 c 0,0 -2.945907,-0.945907 -4,-2 -1.054093,-1.054093 -2,-4 -2,-4 l 0,-12 2,-4 4,-3 10,0 0,3 14.999998,0 0,-3 z"
     id="path71"
     style="fill:url(#linearGradient4087);fill-opacity:1;stroke:#00a0a0;stroke-width:1;stroke-miterlimit:4;stroke-opacity:1;stroke-dasharray:none" />
  <text
     x="2.054342"
     y="4"
     id="text55"
     style="font-size:12px;text-align:center;text-anchor:middle;font-family:Bitstream Vera Sans">
    <tspan
       x="103.05434"
       y="49"
       id="tspan74"
       style="font-size:10px">trykk</tspan>
  </text>
  <text
     x="2.054342"
     y="4"
     id="text76"
     style="font-size:12px;text-align:center;text-anchor:middle;font-family:Bitstream Vera Sans">
    <tspan
       x="103.05434"
       y="59"
       id="tspan78"
       style="font-size:10px">ned</tspan>
  </text>
  <path
     d="m 56.1667,83 11,0 0,4 -3,0 0,-2 -7,0"
     id="path82"
     style="fill:#00e0e0;fill-opacity:1;stroke:#008080;stroke-width:1.00004995;stroke-opacity:1" />
  <path
     d="m 56.1667,101 11,0 0,-4 -3,0 0,2 -7,0"
     id="path84"
     style="fill:#00e0e0;fill-opacity:1;stroke:#008080;stroke-width:1.00004995;stroke-opacity:1" />
  <path
     d="m 41.1667,74 c 11,0 11,0 11,0 0,0 2.126911,1.17407 3,2 1.210756,1.145359 3,4 3,4 l 0,23 c 0,0 -1.643072,3.27076 -2.735075,4.52985 C 54.50503,108.59822 52.1667,110 52.1667,110 l -12,0 0,0 0,2 -13,0 0,-2 -11,0 c 0,0 -2.932088,-1.72041 -4,-3 -0.95517,-1.1445 -2,-4 -2,-4 l 0,-23 c 0,0 0.945907,-2.945907 2,-4 1.054093,-1.054093 4,-2 4,-2 l 10,0 0,3 15,0 0,-3 z"
     id="path86"
     style="fill:url(#linearGradient4096);fill-opacity:1;stroke:#00a0a0;stroke-width:1;stroke-miterlimit:4;stroke-opacity:1;stroke-dasharray:none" />
  <text
     x="-33.833302"
     y="2"
     id="text88"
     style="font-size:12px;text-align:center;text-anchor:middle;font-family:Bitstream Vera Sans">
    <tspan
       x="34.166698"
       y="91"
       id="tspan90"
       style="font-size:10px">sett</tspan>
  </text>
  <text
     x="-33.833302"
     y="2"
     id="text69"
     style="font-size:12px;text-align:center;text-anchor:middle;font-family:Bitstream Vera Sans">
    <tspan
       x="34.166698"
       y="100"
       id="tspan93"
       style="font-size:10px">størrelse</tspan>
  </text>
  <text
     x="-33.833302"
     y="-2"
     id="text95"
     style="font-size:12px;text-align:center;text-anchor:middle;font-family:Bitstream Vera Sans">
    <tspan
       x="34.166698"
       y="106"
       id="tspan97"
       style="font-size:10px" />
  </text>
  <g
     transform="translate(-34,-8)"
     id="g99">
    <path
       d="m 90,137 11,0 0,4 -3,0 0,-2 -7,0"
       id="path101"
       style="fill:#00e0e0;fill-opacity:1;stroke:#008080;stroke-width:1;stroke-opacity:1" />
    <path
       d="m 90,155 11,0 0,-4 -3,0 0,2 -7,0"
       id="path103"
       style="fill:#00e0e0;fill-opacity:1;stroke:#008080;stroke-width:1;stroke-opacity:1" />
    <path
       d="m 75,128 c 11,0 11,0 11,0 0,0 2.126911,1.17407 3,2 1.210756,1.14536 3,4 3,4 l 0,23 c 0,0 -1.378146,3.1383 -2.470149,4.39739 C 88.603256,162.46576 86,164 86,164 l -12,0 0,0 0,2 -13,0 0,-2 -11,0 c 0,0 -2.932088,-1.72041 -4,-3 -0.95517,-1.1445 -2,-4 -2,-4 l 0,-23 c 0,0 0.945907,-2.94591 2,-4 1.054093,-1.05409 4,-2 4,-2 l 10,0 0,3 15,0 0,-3 z"
       id="path105"
       style="fill:url(#linearGradient2562);fill-opacity:1;stroke:#00a0a0;stroke-width:1;stroke-opacity:1" />
    <text
       id="text79"
       style="font-size:12px;text-align:center;text-anchor:middle;font-family:Bitstream Vera Sans">
      <tspan
         x="68"
         y="145"
         id="tspan108"
         style="font-size:11px">sett</tspan>
    </text>
    <text
       id="text83"
       style="font-size:12px;text-align:center;text-anchor:middle;font-family:Bitstream Vera Sans">
      <tspan
         x="68"
         y="158"
         id="tspan111"
         style="font-size:11px">farge</tspan>
    </text>
  </g>
  <g
     transform="translate(35.887642,-42)"
     id="g113">
    <path
       d="m 90,171 11,0 0,4 -3,0 0,-2 -7,0"
       id="path115"
       style="fill:#00e0e0;fill-opacity:1;stroke:#008080;stroke-width:1;stroke-opacity:1" />
    <path
       d="m 90,189 11,0 0,-4 -3,0 0,2 -7,0"
       id="path117"
       style="fill:#00e0e0;fill-opacity:1;stroke:#008080;stroke-width:1;stroke-opacity:1" />
    <path
       d="m 75,162 c 11,0 11,0 11,0 0,0 2.656762,1.439 3.529851,2.26493 C 90.740607,165.41029 92,168 92,168 l 0,23 c 0,0 -1.245683,3.40322 -2.337686,4.66231 C 88.735719,196.73068 86,198 86,198 l -12,0 0,0 0,2 -13,0 0,-2 -11,0 c 0,0 -2.932088,-1.72041 -4,-3 -0.95517,-1.1445 -2,-4 -2,-4 l 0,-23 c 0,0 0.945907,-2.94591 2,-4 1.054093,-1.05409 4,-2 4,-2 l 10,0 0,3 15,0 0,-3 z"
       id="path119"
       style="fill:url(#linearGradient2539);fill-opacity:1;stroke:#00a0a0;stroke-width:1;stroke-opacity:1" />
    <text
       id="text93"
       style="font-size:12px;text-align:center;text-anchor:middle;font-family:Bitstream Vera Sans">
      <tspan
         x="68"
         y="177"
         id="tspan95"
         style="font-size:11px">sett</tspan>
    </text>
    <text
       id="text97"
       style="font-size:12px;text-align:center;text-anchor:middle;font-family:Bitstream Vera Sans">
      <tspan
         x="68"
         y="190"
         id="tspan99"
         style="font-size:11px">tone</tspan>
    </text>
  </g>
  <g
     transform="translate(0,-66)"
     id="g125">
    <path
       d="m 89,260 11,0 0,4 -2,0 0,-2 -7,0"
       id="path127"
       style="fill:#00e0e0;fill-opacity:1;stroke:#008080;stroke-width:1;stroke-opacity:1" />
    <path
       d="m 89,278 11,0 0,-4 -2,0 0,2 -7,0"
       id="path129"
       style="fill:#00e0e0;fill-opacity:1;stroke:#008080;stroke-width:1;stroke-opacity:1" />
    <path
       d="m 90,235 11,0 0,4 -3,0 0,-2 -7,0"
       id="path131"
       style="fill:#00e0e0;fill-opacity:1;stroke:#008080;stroke-width:1;stroke-opacity:1" />
    <path
       d="m 90,253 11,0 0,-4 -3,0 0,2 -7,0"
       id="path133"
       style="fill:#00e0e0;fill-opacity:1;stroke:#008080;stroke-width:1;stroke-opacity:1" />
    <path
       d="m 75,232 c 11,0 11,0 11,0 l 3,2 3,4 0,38 -3,3 -3,3 -12,0 0,0 0,2 -13,0 0,-2 -11,0 -4,-3 -2,-3 0,-38 2,-4 4,-2 10,0 0,3 15,0 0,-3 z"
       id="path135"
       style="fill:url(#linearGradient4870);fill-opacity:1;stroke:#00a0a0;stroke-width:1;stroke-opacity:1" />
    <text
       id="text111"
       style="font-size:12px;text-align:center;text-anchor:middle;font-family:Bitstream Vera Sans">
      <tspan
         x="68"
         y="255"
         id="tspan113"
         style="font-size:11px">fyll</tspan>
    </text>
    <text
       id="text115"
       style="font-size:12px;text-align:center;text-anchor:middle;font-family:Bitstream Vera Sans">
      <tspan
         x="68"
         y="268"
         id="tspan117"
         style="font-size:11px">skjerm</tspan>
    </text>
    <text
       id="text119"
       style="font-size:12px;text-align:end;text-anchor:end;font-family:Bitstream Vera Sans">
      <tspan
         x="91"
         y="243"
         id="tspan121"
         style="font-size:8px">farge</tspan>
    </text>
    <text
       id="text123"
       style="font-size:12px;text-align:end;text-anchor:end;font-family:Bitstream Vera Sans">
      <tspan
         x="91"
         y="277"
         id="tspan125"
         style="font-size:8px">tone</tspan>
    </text>
  </g>
  <g
     transform="translate(0,-136)"
     id="g145">
    <path
       d="m 37,372 4,0 0,2 4,0 0,-2 62,0 0,13 -62,0 0,-3 -4,0 0,3 -4,0 0,-13 z"
       id="path147"
       style="fill:url(#linearGradient4878);fill-opacity:1;stroke:#00a0a0;stroke-width:1;stroke-opacity:1" />
    <text
       x="4"
       y="65"
       id="text149"
       style="font-size:12px;text-align:center;text-anchor:middle;font-family:Bitstream Vera Sans">
      <tspan
         x="76"
         y="381"
         id="tspan151"
         style="font-size:10.5px">størrelse</tspan>
    </text>
  </g>
  <g
     transform="translate(0,-136)"
     id="g153">
    <path
       d="m 37,393 4,0 0,2 4,0 0,-2 62,0 0,13 -62,0 0,-3 -4,0 0,3 -4,0 0,-13 z"
       id="path155"
       style="fill:url(#linearGradient2633);fill-opacity:1;stroke:#00a0a0;stroke-width:1;stroke-opacity:1" />
    <text
       x="14.823573"
       y="56.777584"
       id="text157"
       style="font-size:11.12259483px;text-align:center;text-anchor:middle;font-family:Bitstream Vera Sans"
       transform="scale(0.92688291,1.0788849)">
      <tspan
         x="81.559151"
         y="372.84464"
         id="tspan159"
         style="font-size:9.73227024px">tekststørrelse</tspan>
    </text>
  </g>
  <g
     transform="translate(0,-135)"
     id="g161">
    <path
       d="m 37,413 4,0 0,3 4,0 0,-3 62,0 0,14 -62,0 0,-3 -4,0 0,3 -4,0 0,-14 z"
       id="path163"
       style="fill:url(#linearGradient2631);fill-opacity:1;stroke:#00a0a0;stroke-width:1;stroke-opacity:1" />
    <text
       x="4"
       y="57"
       id="text165"
       style="font-size:10px;text-align:center;text-anchor:middle;font-family:Bitstream Vera Sans">
      <tspan
         x="76"
         y="423"
         id="tspan167"
         style="font-size:10.5px">farge</tspan>
    </text>
  </g>
  <g
     transform="translate(35.887642,-226.1667)"
     id="g169">
    <path
       d="m 90,309 11,0 0,4 -2,0 0,-2 -8,0"
       id="path171"
       style="fill:#00e0e0;fill-opacity:1;stroke:#008080;stroke-width:1;stroke-miterlimit:4;stroke-opacity:1;stroke-dasharray:none" />
    <path
       d="m 90,327 11,0 0,-4 -2,0 0,2 -8,0"
       id="path173"
       style="fill:#00e0e0;fill-opacity:1;stroke:#008080;stroke-width:1;stroke-miterlimit:4;stroke-opacity:1;stroke-dasharray:none" />
    <path
       d="m 75,300 c 11,0 11,0 11,0 0,0 2.945907,0.94591 4,2 1.054093,1.05409 2,4 2,4 l 0,23 c 0,0 -1.04483,2.8555 -2,4 -1.067912,1.27959 -4,3 -4,3 l -11,0 0,0 0,3 -14,0 0,-3 -11,0 c 0,0 -2.932088,-1.72041 -4,-3 -0.95517,-1.1445 -2,-4 -2,-4 l 0,-23 c 0,0 0.945907,-2.94591 2,-4 1.054093,-1.05409 4,-2 4,-2 l 11,0 0,3 14,0 0,-3 z"
       id="path175"
       style="fill:url(#linearGradient2584);fill-opacity:1;stroke:#00a0a0;stroke-width:1;stroke-miterlimit:4;stroke-opacity:1;stroke-dasharray:none" />
    <text
       id="text177"
       style="font-size:10px;text-align:center;text-anchor:middle;font-family:Bitstream Vera Sans">
      <tspan
         x="68"
         y="314"
         id="tspan179"
         style="font-size:10.5px">sett</tspan>
    </text>
    <text
       id="text181"
       style="font-size:10.5px;text-align:center;text-anchor:middle;font-family:Bitstream Vera Sans">
      <tspan
         x="68"
         y="323"
         id="tspan183"
         style="font-size:10.5px">tekst-</tspan>
    </text>
    <text
       id="text185"
       style="font-size:10.5px;text-align:center;text-anchor:middle;font-family:Bitstream Vera Sans">
      <tspan
         x="68"
         y="332"
         id="tspan187"
         style="font-size:10.5px">størrelse</tspan>
    </text>
  </g>
  <g
     transform="translate(0,-156)"
     id="g217">
    <path
       d="m 37,456 4,0 0,3 4,0 0,-3 62,0 0,14 -62,0 0,-3 -4,0 0,3 -4,0 0,-14 z"
       id="path219"
       style="fill:url(#linearGradient2627);fill-opacity:1;stroke:#00a0a0;stroke-width:1;stroke-opacity:1" />
    <text
       id="text221"
       style="font-size:10.5px;text-align:center;text-anchor:middle;font-family:Bitstream Vera Sans">
      <tspan
         x="76"
         y="466"
         id="tspan223"
         style="font-size:10.5px">tone</tspan>
    </text>
  </g>
  <path
     d="m 37.5,371.92597 4,0 0,2 4,0 0,-2 62,0 0,13 -62,0 0,-3 -4,0 0,3 -4,0 0,-13 z"
     id="path155-9"
     style="fill:#ffff00;fill-opacity:1;stroke:#ffff00;stroke-width:1;stroke-opacity:1" />
  <path
     d="m 37.499995,391.09974 4,0 0,2 4,0 0,-2 62.000015,0 0,13 -62.000015,0 0,-3 -4,0 0,3 -4,0 0,-13 z"
     id="path155-9-4"
     style="fill:#00ff00;fill-opacity:1;stroke:#00ff00;stroke-width:1;stroke-opacity:1" />
  <path
     d="m 37.499995,411.12887 4,0 0,2 4,0 0,-2 62.000015,0 0,13 -62.000015,0 0,-3 -4,0 0,3 -4,0 0,-13 z"
     id="path155-9-5"
     style="fill:#00ffff;fill-opacity:1;stroke:#00ffff;stroke-width:1;stroke-opacity:1" />
  <path
     d="m 37.499995,430.30264 4,0 0,2 4,0 0,-2 62.000015,0 0,13 -62.000015,0 0,-3 -4,0 0,3 -4,0 0,-13 z"
     id="path155-9-4-2"
     style="fill:#0000ff;fill-opacity:1;stroke:#0000ff;stroke-width:1;stroke-opacity:1" />
  <path
     d="m 37.499995,450.84918 4,0 0,2 4,0 0,-2 62.000015,0 0,13 -62.000015,0 0,-3 -4,0 0,3 -4,0 0,-13 z"
     id="path155-9-47"
     style="fill:#ff00ff;fill-opacity:1;stroke:#ff00ff;stroke-width:1;stroke-opacity:1" />
  <path
     d="m 37.5,331.07232 4,0 0,2 4,0 0,-2 62,0 0,13 -62,0 0,-3 -4,0 0,3 -4,0 0,-13 z"
     id="path155-9-4-0"
     style="fill:#ff0000;fill-opacity:1;stroke:#ff0000;stroke-width:1;stroke-opacity:1" />
  <path
     d="m 37.5,351.10145 4,0 0,2 4,0 0,-2 62,0 0,13 -62,0 0,-3 -4,0 0,3 -4,0 0,-13 z"
     id="path155-9-5-7"
     style="fill:#ff8000;fill-opacity:1;stroke:#ff8000;stroke-width:1;stroke-opacity:1" />
  <rect
     width="137.5"
     height="0.14"
     x="3.75"
     y="-323.66998"
     transform="scale(1,-1)"
     id="rect40-8"
     style="fill:#ffd000;fill-opacity:1;stroke:#e0a000;stroke-width:1;stroke-opacity:1" />
  <rect
     width="137.5"
     height="0.14"
     x="3.75"
     y="-322.47"
     transform="scale(1,-1)"
     id="rect42-6"
     style="fill:#ffd000;fill-opacity:1;stroke:#fff080;stroke-width:1;stroke-opacity:1" />
  <rect
     width="137.5"
     height="0.14"
     x="3.75"
     y="-226.66998"
     transform="scale(1,-1)"
     id="rect40-8-9"
     style="fill:#ffd000;fill-opacity:1;stroke:#e0a000;stroke-width:1;stroke-opacity:1" />
  <rect
     width="137.5"
     height="0.14"
     x="3.75"
     y="-225.47"
     transform="scale(1,-1)"
     id="rect42-6-2"
     style="fill:#ffd000;fill-opacity:1;stroke:#fff080;stroke-width:1;stroke-opacity:1" />
</svg>
