<?xml version="1.0" encoding="UTF-8" standalone="no"?>
<svg
   xmlns="http://www.w3.org/2000/svg"
   width="145"
   height="404"
   version="1.0">
  <rect
     style="opacity:1;fill:#ffffff;fill-opacity:1;stroke:none;stroke-width:4;stroke-opacity:1"
     width="143"
     height="404"
     x="1"
     y="0" />
  <rect
     style="opacity:1;fill:#080808;fill-opacity:1;stroke:none;stroke-width:1;stroke-opacity:1"
     width="145"
     height="29"
     x="0"
     y="0" />
  <path
     style="fill:#101010;fill-opacity:1;stroke:#101010;stroke-width:1;stroke-opacity:1"
     d="M 38.02,44.811717 L 41.3535,44.811717 L 41.3535,47.478517 L 46.0204,47.478517 L 46.0204,44.811717 L 107.02345,44.811717 L 107.02345,58.145717 L 46.0204,58.145717 L 46.0204,55.478917 L 41.3535,55.478917 L 41.3535,58.145717 L 38.02,58.145717 L 38.02,44.811717 z"
     id="path2488" />
  <path
     style="fill:#181818;fill-opacity:1;stroke:#181818;stroke-width:1;stroke-opacity:1"
     d="M 38.019998,71.146685 L 41.353498,71.146685 L 41.353498,73.813485 L 46.020398,73.813485 L 46.020398,71.146685 L 107.02345,71.146685 L 107.02345,84.480685 L 46.020398,84.480685 L 46.020398,81.813885 L 41.353498,81.813885 L 41.353498,84.480685 L 38.019998,84.480685 L 38.019998,71.146685 z"
     id="path100" />
  <path
     style="fill:#202020;fill-opacity:1;stroke:#202020;stroke-width:1;stroke-opacity:1"
     d="M 38.02,97.481654 L 41.3535,97.481654 L 41.3535,100.14845 L 46.0204,100.14845 L 46.0204,97.481654 L 107.02345,97.481654 L 107.02345,110.81565 L 46.0204,110.81565 L 46.0204,108.14885 L 41.3535,108.14885 L 41.3535,110.81565 L 38.02,110.81565 L 38.02,97.481654 z"
     id="path2494" />
  <path
     style="fill:#282828;fill-opacity:1;stroke:#282828;stroke-width:1;stroke-opacity:1"
     d="M 38.019998,123.81662 L 41.353498,123.81662 L 41.353498,126.48342 L 46.020398,126.48342 L 46.020398,123.81662 L 107.02345,123.81662 L 107.02345,137.15062 L 46.020398,137.15062 L 46.020398,134.48382 L 41.353498,134.48382 L 41.353498,137.15062 L 38.019998,137.15062 L 38.019998,123.81662 z"
     id="path106" />
  <path
     style="fill:#080808;fill-opacity:1;stroke:none;stroke-width:1px;stroke-opacity:1"
     d="M 0.5,374.5 L 0.5,390.5 L 3.5,397.5 L 8.5,401.5 L 15,404 L 129,404 L 136,401.5 L 142,396.5 L 145,388.5 L 145,374.5 L 0.5,374.5 z" />
</svg>
