<?xml version="1.0" encoding="UTF-8" standalone="no"?>
<!-- Created with Inkscape (http://www.inkscape.org/) -->
<svg
   xmlns:svg="http://www.w3.org/2000/svg"
   xmlns="http://www.w3.org/2000/svg"
   xmlns:xlink="http://www.w3.org/1999/xlink"
   version="1.0"
   width="145"
   height="404"
   id="svg2646">
  <defs
     id="defs2659">
    <linearGradient
       id="linearGradient3166">
      <stop
         id="stop3168"
         style="stop-color:#ffffff;stop-opacity:1"
         offset="0" />
      <stop
         id="stop3170"
         style="stop-color:#ff0000;stop-opacity:1"
         offset="1" />
    </linearGradient>
    <linearGradient
       x1="0"
       y1="22"
       x2="74"
       y2="22"
       id="linearGradient3172"
       xlink:href="#linearGradient3166"
       gradientUnits="userSpaceOnUse" />
    <linearGradient
       x1="69.85585"
       y1="174.22649"
       x2="140.1927"
       y2="174.22649"
       id="linearGradient2508"
       xlink:href="#linearGradient3712"
       gradientUnits="userSpaceOnUse"
       gradientTransform="translate(-32.502549,-96.412795)" />
    <linearGradient
       x1="69.85585"
       y1="226.65366"
       x2="140.1927"
       y2="226.65366"
       id="linearGradient2501"
       xlink:href="#linearGradient3712"
       gradientUnits="userSpaceOnUse"
       gradientTransform="translate(-32.502549,-96.17004)" />
    <linearGradient
       x1="69.85585"
       y1="174.22649"
       x2="140.1927"
       y2="174.22649"
       id="linearGradient2494"
       xlink:href="#linearGradient3712"
       gradientUnits="userSpaceOnUse"
       gradientTransform="translate(-32.50255,-122.74776)" />
    <linearGradient
       x1="69.85585"
       y1="226.65366"
       x2="140.1927"
       y2="226.65366"
       id="linearGradient2487"
       xlink:href="#linearGradient3712"
       gradientUnits="userSpaceOnUse"
       gradientTransform="translate(-32.50255,-122.50501)" />
    <linearGradient
       id="linearGradient3712">
      <stop
         id="stop3714"
         style="stop-color:#ffffff;stop-opacity:1"
         offset="0" />
      <stop
         id="stop3716"
         style="stop-color:#ff0000;stop-opacity:1"
         offset="1" />
    </linearGradient>
  </defs>
  <rect
     width="143"
     height="404"
     x="1"
     y="0"
     id="rect2648"
     style="opacity:1;fill:#ffffff;fill-opacity:1;stroke:none;stroke-width:4;stroke-opacity:1" />
  <rect
     width="145"
     height="29"
     x="0"
     y="0"
     id="rect2650"
     style="opacity:1;fill:#080808;fill-opacity:1;stroke:none;stroke-width:1;stroke-opacity:1" />
  <path
     d="M 0.5,374.5 L 0.5,390.5 L 3.5,397.5 L 8.5,401.5 L 15,404 L 129,404 L 136,401.5 L 142,396.5 L 145,388.5 L 145,374.5 L 0.5,374.5 z"
     id="path2656"
     style="fill:#080808;fill-opacity:1;stroke:none;stroke-width:1px;stroke-opacity:1" />
  <path
     d="M 79.87,39.071 C 90.59,39.071 90.59,39.071 90.59,39.071 L 94.275,41.751 L 96.62,45.771 L 96.62,68.551 L 94.275,72.571 L 90.59,75.251 L 79.2,75.251 L 79.2,75.251 L 79.2,77.931 L 65.8,77.931 L 65.8,75.251 L 54.41,75.251 L 50.725,72.571 L 48.38,68.551 L 48.38,45.771 L 50.725,41.751 L 54.41,39.071 L 65.13,39.071 L 65.13,42.421 L 79.87,42.421 L 79.87,39.071 z"
     id="path10"
     style="fill:#101010;fill-opacity:1;stroke:none;stroke-width:1.99999988;stroke-opacity:1" />
  <path
     d="M 37.998275,87.666 L 41.331775,87.666 L 41.331775,90.3328 L 45.998675,90.3328 L 45.998675,87.666 L 107.00172,87.666 L 107.00172,101 L 45.998675,101 L 45.998675,98.3332 L 41.331775,98.3332 L 41.331775,101 L 37.998275,101 L 37.998275,87.666 z"
     id="path3338"
     style="fill:#181818;fill-opacity:1;stroke:none;stroke-width:1;stroke-opacity:1" />
  <path
     d="M 37.998273,176.14967 L 41.331773,176.14967 L 41.331773,178.81647 L 45.998673,178.81647 L 45.998673,176.14967 L 107.00173,176.14967 L 107.00173,189.48367 L 45.998673,189.48367 L 45.998673,186.81687 L 41.331773,186.81687 L 41.331773,189.48367 L 37.998273,189.48367 L 37.998273,176.14967 z"
     id="path2400"
     style="fill:#282828;fill-opacity:1;stroke:none;stroke-width:1;stroke-opacity:1" />
  <path
     d="M 37.998272,197.666 L 41.331772,197.666 L 41.331772,200.3328 L 45.998672,200.3328 L 45.998672,197.666 L 107.00173,197.666 L 107.00173,211 L 45.998672,211 L 45.998672,208.3332 L 41.331772,208.3332 L 41.331772,211 L 37.998272,211 L 37.998272,197.666 z"
     id="path2402"
     style="fill:#303030;fill-opacity:1;stroke:none;stroke-width:1;stroke-opacity:1" />
  <path
     d="M 65.024798,147.46733 C 73.024798,147.46733 101.5248,147.46733 101.5248,147.46733 C 101.5248,147.46733 103.5907,148.71061 104.2748,149.46733 C 104.97354,150.24024 106.0248,152.46733 106.0248,152.46733 L 106.0248,161.96733 C 106.0248,161.96733 104.91627,163.81416 104.2748,164.46733 C 103.56002,165.19514 101.5248,166.46733 101.5248,166.46733 L 65.024798,166.46733 L 65.024798,166.46733 L 65.024798,168.46733 L 55.024798,168.46733 L 55.024798,166.46733 L 46.524797,166.46733 C 46.524797,166.46733 44.489577,165.58526 43.774797,164.85745 C 43.133327,164.20428 42.024797,162.96733 42.024797,162.96733 L 41.894287,160.96733 L 38.524797,160.96733 L 38.524797,162.96733 L 36.274797,162.96733 L 36.274797,152.96733 L 38.524797,152.96733 L 38.524797,154.96733 L 42.024797,154.96733 L 42.024797,152.46733 C 42.024797,152.46733 43.076067,150.24024 43.774797,149.46733 C 44.458897,148.71061 46.524797,147.46733 46.524797,147.46733 L 55.024798,147.46733 L 55.024798,149.96733 L 65.024798,149.96733 L 65.024798,147.46733 z"
     id="path2653"
     style="fill:#202020;fill-opacity:1;stroke:none;stroke-width:1;stroke-miterlimit:4;stroke-dasharray:none;stroke-opacity:1" />
</svg>
