<?xml version="1.0" encoding="UTF-8" standalone="no"?>
 <!-- Created with Inkscape (http://www.inkscape.org/) -->
 <svg
    xmlns:svg="http://www.w3.org/2000/svg"
    xmlns="http://www.w3.org/2000/svg"
    xmlns:xlink="http://www.w3.org/1999/xlink"
    version="1.0"
    width="145"
    height="500"
    id="svg2">
   <defs
      id="defs103">
     <linearGradient
        id="linearGradient3250">
       <stop
          id="stop3252"
          style="stop-color:#ffffff;stop-opacity:1"
          offset="0" />
       <stop
          id="stop3254"
          style="stop-color:#00ff00;stop-opacity:1"
          offset="1" />
     </linearGradient>
     <linearGradient
        x1="0"
        y1="22"
        x2="74"
        y2="22"
        id="linearGradient3256"
        xlink:href="#linearGradient3250"
        gradientUnits="userSpaceOnUse" />
     <linearGradient
        x1="0"
        y1="22"
        x2="74"
        y2="22"
        id="linearGradient3258"
        xlink:href="#linearGradient3250"
        gradientUnits="userSpaceOnUse" />
     <linearGradient
        x1="0"
        y1="22"
        x2="74"
        y2="22"
        id="linearGradient3260"
        xlink:href="#linearGradient3250"
        gradientUnits="userSpaceOnUse" />
     <linearGradient
        x1="0"
        y1="22"
        x2="74"
        y2="22"
        id="linearGradient3264"
        xlink:href="#linearGradient3250"
        gradientUnits="userSpaceOnUse" />
     <linearGradient
        x1="0"
        y1="22"
        x2="74"
        y2="22"
        id="linearGradient3267"
        xlink:href="#linearGradient3250"
        gradientUnits="userSpaceOnUse" />
     <linearGradient
        x1="7"
        y1="90"
        x2="56"
        y2="90"
        id="linearGradient3333"
        xlink:href="#linearGradient3250"
        gradientUnits="userSpaceOnUse" />
     <linearGradient
        x1="7"
        y1="130"
        x2="56"
        y2="130"
        id="linearGradient3341"
        xlink:href="#linearGradient3250"
        gradientUnits="userSpaceOnUse" />
     <linearGradient
        x1="79"
        y1="90"
        x2="128"
        y2="90"
        id="linearGradient3349"
        xlink:href="#linearGradient3250"
        gradientUnits="userSpaceOnUse" />
     <linearGradient
        x1="79"
        y1="130"
        x2="128"
        y2="130"
        id="linearGradient3357"
        xlink:href="#linearGradient3250"
        gradientUnits="userSpaceOnUse" />
     <linearGradient
        x1="43"
        y1="181"
        x2="92"
        y2="181"
        id="linearGradient3365"
        xlink:href="#linearGradient3250"
        gradientUnits="userSpaceOnUse" />
     <linearGradient
        x1="7"
        y1="251"
        x2="56"
        y2="251"
        id="linearGradient3373"
        xlink:href="#linearGradient3250"
        gradientUnits="userSpaceOnUse" />
     <linearGradient
        x1="79"
        y1="238"
        x2="128"
        y2="238"
        id="linearGradient3381"
        xlink:href="#linearGradient3250"
        gradientUnits="userSpaceOnUse" />
     <linearGradient
        x1="6"
        y1="303"
        x2="72"
        y2="303"
        id="linearGradient3389"
        xlink:href="#linearGradient3250"
        gradientUnits="userSpaceOnUse" />
     <linearGradient
        x1="89"
        y1="314"
        x2="137"
        y2="314"
        id="linearGradient3397"
        xlink:href="#linearGradient3250"
        gradientUnits="userSpaceOnUse" />
     <linearGradient
        x1="37"
        y1="359"
        x2="107"
        y2="359"
        id="linearGradient3405"
        xlink:href="#linearGradient3250"
        gradientUnits="userSpaceOnUse" />
     <linearGradient
        x1="37"
        y1="382"
        x2="107"
        y2="382"
        id="linearGradient3413"
        xlink:href="#linearGradient3250"
        gradientUnits="userSpaceOnUse" />
     <linearGradient
        x1="37"
        y1="406"
        x2="107"
        y2="406"
        id="linearGradient3421"
        xlink:href="#linearGradient3250"
        gradientUnits="userSpaceOnUse" />
     <linearGradient
        x1="79"
        y1="238"
        x2="128"
        y2="238"
        id="linearGradient2505"
        xlink:href="#linearGradient3250"
        gradientUnits="userSpaceOnUse" />
     <linearGradient
        x1="79"
        y1="238"
        x2="128"
        y2="238"
        id="linearGradient2519"
        xlink:href="#linearGradient3250"
        gradientUnits="userSpaceOnUse" />
     <linearGradient
        x1="37"
        y1="406"
        x2="107"
        y2="406"
        id="linearGradient2527"
        xlink:href="#linearGradient3250"
        gradientUnits="userSpaceOnUse" />
     <linearGradient
        x1="0"
        y1="0"
        x2="100"
        y2="66"
        id="linearGradient3172"
        xlink:href="#linearGradient3166"
        gradientUnits="userSpaceOnUse" />
     <linearGradient
        id="linearGradient3166">
       <stop
          id="stop3168"
          style="stop-color:#ffffff;stop-opacity:1"
          offset="0" />
       <stop
          id="stop3170"
          style="stop-color:#00ff00;stop-opacity:1"
          offset="1" />
     </linearGradient>
   </defs>
   <path
      d="M 0.58809792,0.55108212 L 0.52581012,484.98977 L 3.6485499,492.43821 L 8.520663,496.82385 L 15.179825,499.47419 L 128.96395,499.47419 L 135.80997,496.63739 L 141.75709,491.22606 L 144.47996,482.0929 L 144.51764,0.52581012 L 0.58809792,0.55108212 z"
      id="path30"
      style="fill:#ffd000;fill-opacity:1;stroke:#e0a000;stroke-width:1;stroke-opacity:1" />
   <rect
      width="137"
      height="0"
      x="3.7"
      y="213"
      style="opacity:1;fill:#ffd000;fill-opacity:1;stroke:#e0a000;stroke-width:1;stroke-opacity:1" />
   <rect
      width="137"
      height="0.14"
      x="3.7"
      y="214.3"
      style="opacity:1;fill:#ffd000;fill-opacity:1;stroke:#fff080;stroke-width:1;stroke-opacity:1" />
   <rect
      width="137"
      height="0.14"
      x="3.7"
      y="215"
      style="opacity:1;fill:#ffd000;fill-opacity:1;stroke:#ffffc4;stroke-width:1;stroke-opacity:1" />
   <rect
      width="137"
      height="0.14"
      x="3.7"
      y="65"
      style="opacity:1;fill:#ffd000;fill-opacity:1;stroke:#e0a000;stroke-width:1;stroke-opacity:1" />
   <rect
      width="137.5"
      height="0.14"
      x="3.7"
      y="66.5"
      style="opacity:1;fill:#ffd000;fill-opacity:1;stroke:#fff080;stroke-width:1;stroke-opacity:1" />
   <rect
      width="137.5"
      height="0.14"
      x="3.7"
      y="67.5"
      style="opacity:1;fill:#ffd000;fill-opacity:1;stroke:#ffffc4;stroke-width:1;stroke-opacity:1" />
   <rect
      width="137.5"
      height="0.14"
      x="3.7"
      y="-26.9"
      transform="scale(1,-1)"
      style="opacity:1;fill:#ffd000;fill-opacity:1;stroke:#e0a000;stroke-width:1;stroke-opacity:1" />
   <rect
      width="137.5"
      height="0.14"
      x="3.7"
      y="-25.8"
      transform="scale(1,-1)"
      style="opacity:1;fill:#ffd000;fill-opacity:1;stroke:#fff080;stroke-width:1;stroke-opacity:1" />
   <rect
      width="137.5"
      height="0.14"
      x="3.7"
      y="-472.7"
      transform="scale(1,-1)"
      style="opacity:1;fill:#ffd000;fill-opacity:1;stroke:#e0a000;stroke-width:1;stroke-opacity:1" />
   <rect
      width="137.5"
      height="0.14"
      x="3.7"
      y="-471.4"
      transform="scale(1,-1)"
      style="opacity:1;fill:#ffd000;fill-opacity:1;stroke:#fff080;stroke-width:1;stroke-opacity:1" />
   <path
      d="M 134,491 C 134,492 133,493 132,493 C 131,493 131,492 131,491 C 131,491 131,490 132,490 C 133,490 134,491 134,491 z"
      id="path58"
      style="fill:#fff080;fill-opacity:1;stroke:none;stroke-width:1;stroke-opacity:1" />
   <path
      d="M 80,485 C 80,490 77,493 72,493 C 67,493 64,490 64,485 C 64,481 67,477 72,477 C 77,477 80,481 80,485 L 80,485 z"
      id="path60"
      style="fill:#ff4040;fill-opacity:1;stroke:#ff4040;stroke-width:1;stroke-opacity:1" />
   <text
      style="font-size:12px;font-weight:bold;font-family:Bitstream Vera Sans">
     <tspan
        x="68"
        y="489"
        style="font-size:12px;font-weight:bold;fill:#ffffff;font-family:Bitstream Vera Sans">X</tspan>
   </text>
   <path
      d="M 79,32 C 90,32 90,32 90,32 L 94,35 L 96,39 L 96,52 L 94,55 L 90,58 L 79,58 L 79,58 L 79,60 L 65,60 L 65,58 L 54,58 L 50,55 L 48,52 L 48,39 L 50,35 L 54,32 L 65,32 L 65,36 L 79,36 L 79,32 z"
      style="fill:url(#linearGradient3267);fill-opacity:1;stroke:#00a000;stroke-width:1;stroke-opacity:1" />
   <text
      style="font-size:8;text-align:center;text-anchor:middle;fill:#000000;fill-opacity:1;font-family:Bitstream Vera Sans">
     <tspan
        x="72"
        y="49"
        style="font-size:12">tøm</tspan>
   </text>
   <path
      d="M 54,77 L 65,77 L 65,81 L 62,81 L 62,79 L 55,79"
      style="fill:#00e000;fill-opacity:1;stroke:#008000;stroke-width:1;stroke-opacity:1" />
   <path
      d="M 54,95 L 65,95 L 65,91 L 62,91 L 62,93 L 55,93"
      style="fill:#00e000;fill-opacity:1;stroke:#008000;stroke-width:1;stroke-opacity:1" />
   <path
      d="M 39,73 C 50,73 50,73 50,73 L 53,76 L 56,80 L 56,93 L 53,96 L 50,99 L 38,99 L 38,99 L 38,101 L 25,101 L 25,99 L 14,99 L 10,96 L 8,93 L 8,80 L 10,76 L 14,73 L 24,73 L 24,77 L 39,77 L 39,73 z"
      style="fill:url(#linearGradient3333);fill-opacity:1;stroke:#00a000;stroke-width:1;stroke-opacity:1" />
   <text
      style="font-size:8.00004005px;text-align:center;text-anchor:middle;font-family:Bitstream Vera Sans">
     <tspan
        x="32"
        y="90"
        style="font-size:12">fremover</tspan>
   </text>
   <path
      d="M 126,77 L 137,77 L 137,81 L 134,81 L 134,79 L 127,79"
      style="fill:#00e000;fill-opacity:1;stroke:#008000;stroke-width:1;stroke-opacity:1" />
   <path
      d="M 126,95 L 137,95 L 137,91 L 134,91 L 134,93 L 127,93"
      style="fill:#00e000;fill-opacity:1;stroke:#008000;stroke-width:1;stroke-opacity:1" />
   <path
      d="M 111,73 C 122,73 122,73 122,73 L 125,76 L 128,80 L 128,93 L 125,96 L 122,99 L 110,99 L 110,99 L 110,101 L 97,101 L 97,99 L 86,99 L 82,96 L 80,93 L 80,80 L 82,76 L 86,73 L 96,73 L 96,77 L 111,77 L 111,73 z"
      style="fill:url(#linearGradient3349);fill-opacity:1;stroke:#00a000;stroke-width:1;stroke-opacity:1" />
   <text
      style="font-size:8;text-align:center;text-anchor:middle;font-family:Bitstream Vera Sans">
     <tspan
        x="104"
        y="90"
        style="font-size:12">bakover</tspan>
   </text>
   <path
      d="M 54,117 L 65,117 L 65,121 L 62,121 L 62,119 L 55,119"
      style="fill:#00e000;fill-opacity:1;stroke:#008000;stroke-width:1;stroke-opacity:1" />
   <path
      d="M 54,136 L 65,136 L 65,132 L 62,132 L 62,134 L 55,134"
      style="fill:#00e000;fill-opacity:1;stroke:#008000;stroke-width:1;stroke-opacity:1" />
   <path
      d="M 39,114 C 50,114 50,114 50,114 L 53,117 L 56,121 L 56,133 L 53,137 L 50,139 L 38,139 L 38,139 L 38,142 L 25,142 L 25,139 L 14,139 L 10,137 L 8,133 L 8,121 L 10,117 L 14,114 L 24,114 L 24,117 L 39,117 L 39,114 z"
      style="fill:url(#linearGradient3341);fill-opacity:1;stroke:#00a000;stroke-width:1;stroke-opacity:1" />
   <text
      style="font-size:8;text-align:center;text-anchor:middle;font-family:Bitstream Vera Sans">
     <tspan
        x="32"
        y="131"
        style="font-size:12">venstre</tspan>
   </text>
   <path
      d="M 126,117 L 137,117 L 137,121 L 134,121 L 134,119 L 127,119"
      id="path112"
      style="fill:#00e000;fill-opacity:1;stroke:#008000;stroke-width:1;stroke-opacity:1" />
   <path
      d="M 126,136 L 137,136 L 137,132 L 134,132 L 134,134 L 127,134"
      style="fill:#00e000;fill-opacity:1;stroke:#008000;stroke-width:1;stroke-opacity:1" />
   <path
      d="M 111,114 C 122,114 122,114 122,114 L 125,117 L 128,121 L 128,133 L 125,137 L 122,139 L 110,139 L 110,139 L 110,142 L 97,142 L 97,139 L 86,139 L 82,137 L 80,133 L 80,121 L 82,117 L 86,114 L 96,114 L 96,117 L 111,117 L 111,114 z"
      style="fill:url(#linearGradient3357);fill-opacity:1;stroke:#00a000;stroke-width:1;stroke-opacity:1" />
   <text
      style="font-size:8;text-align:center;text-anchor:middle;font-family:Bitstream Vera Sans">
     <tspan
        x="104"
        y="131"
        style="font-size:12">høyre</tspan>
   </text>
   <path
      d="M 89,181 L 100,181 L 100,185 L 98,185 L 98,183 L 91,183"
      style="fill:#00e000;fill-opacity:1;stroke:#008000;stroke-width:1;stroke-opacity:1" />
   <path
      d="M 89,199 L 100,199 L 100,195 L 98,195 L 98,197 L 91,197"
      style="fill:#00e000;fill-opacity:1;stroke:#008000;stroke-width:1;stroke-opacity:1" />
   <path
      d="M 90,156 L 101,156 L 101,160 L 98,160 L 98,158 L 91,158"
      style="fill:#00e000;fill-opacity:1;stroke:#008000;stroke-width:1;stroke-opacity:1" />
   <path
      d="M 90,174 L 101,174 L 101,170 L 98,170 L 98,172 L 91,172"
      id="path130"
      style="fill:#00e000;fill-opacity:1;stroke:#008000;stroke-width:1;stroke-opacity:1" />
   <path
      d="M 75,153 C 86,153 86,153 86,153 L 89,155 L 92,159 L 92,197 L 89,200 L 86,203 L 74,203 L 74,203 L 74,205 L 61,205 L 61,203 L 50,203 L 46,200 L 44,197 L 44,159 L 46,155 L 50,153 L 60,153 L 60,156 L 75,156 L 75,153 z"
      style="fill:url(#linearGradient3365);fill-opacity:1;stroke:#00a000;stroke-width:1.33334005;stroke-opacity:1" />
   <text
      style="font-size:8;text-align:center;text-anchor:middle;font-family:Bitstream Vera Sans">
     <tspan
        x="68"
        y="181"
        id="tspan136"
        style="font-size:12">kurve</tspan>
   </text>
   <text
      style="font-size:8;text-align:end;text-anchor:end;font-family:Bitstream Vera Sans">
     <tspan
        x="90"
        y="167"
        style="font-size:9">vinkel</tspan>
     <tspan
        x="90"
        y="196"
        style="font-size:9">radius</tspan>
   </text>
   <path
      d="M 53,250 L 64,250 L 64,254 L 62,254 L 62,252 L 55,252"
      style="fill:#00e000;fill-opacity:1;stroke:#008000;stroke-width:1;stroke-opacity:1" />
   <path
      d="M 53,268 L 64,268 L 64,264 L 62,264 L 62,266 L 55,266"
      style="fill:#00e000;fill-opacity:1;stroke:#008000;stroke-width:1;stroke-opacity:1" />
   <path
      d="M 54,225 L 65,225 L 65,229 L 62,229 L 62,227 L 55,227"
      style="fill:#00e000;fill-opacity:1;stroke:#008000;stroke-width:1;stroke-opacity:1" />
   <path
      d="M 54,244 L 65,244 L 65,240 L 62,240 L 62,242 L 55,242"
      style="fill:#00e000;fill-opacity:1;stroke:#008000;stroke-width:1;stroke-opacity:1" />
   <path
      d="M 39,222 C 50,222 50,222 50,222 L 53,225 L 56,229 L 56,266 L 53,269 L 50,272 L 38,272 L 38,272 L 38,275 L 25,275 L 25,272 L 14,272 L 10,269 L 8,266 L 8,229 L 10,225 L 14,222 L 24,222 L 24,225 L 39,225 L 39,222 z"
      style="fill:url(#linearGradient3373);fill-opacity:1;stroke:#00a000;stroke-width:1;stroke-opacity:1" />
   <text
      style="font-size:12;text-align:center;text-anchor:middle;font-family:Bitstream Vera Sans">
     <tspan
        x="32"
        y="250"
        id="tspan158"
        style="font-size:12">setyx</tspan>
   </text>
   <text
      style="font-size:9;text-align:end;text-anchor:end;font-family:Bitstream Vera Sans">
     <tspan
        x="54"
        y="236"
        style="font-size:9">x</tspan>
     <tspan
        x="54"
        y="265"
        style="font-size:9">y</tspan>
   </text>
   <g
      transform="translate(0,-2)">
     <path
        d="M 126,227 L 137.08348,227 L 137,231 L 134,231 L 134,229 L 127,229"
        style="fill:#00e000;fill-opacity:1;stroke:#008000;stroke-width:1;stroke-opacity:1" />
     <path
        d="M 126,246 L 137,246 L 137,242 L 134,242 L 134,244 L 127,244"
        style="fill:#00e000;fill-opacity:1;stroke:#008000;stroke-width:1;stroke-opacity:1" />
     <path
        d="M 111,224 C 122,224 122,224 122,224 L 125,227 L 128,231 L 128,243 L 125,247 L 122,250 L 110,250 L 110,250 L 110,252 L 97,252 L 97,250 L 86,250 L 82,247 L 80,243 L 80,231 L 82,227 L 86,224 L 96,224 L 96,227 L 111,227 L 111,224 z"
        style="fill:url(#linearGradient3381);fill-opacity:1;stroke:#00a000;stroke-width:1;stroke-opacity:1" />
  <text 
      style="font-size:8px;text-align:center;text-anchor:middle;font-family:Bitstream Vera Sans"> 
     <tspan 
        x="104" 
        y="236" 
        style="font-size:10.5px">endre</tspan> 
   </text> 
   <text 
      style="font-size:8px;text-align:center;text-anchor:middle;font-family:Bitstream Vera Sans"> 
     <tspan 
        x="104" 
        y="247" 
        style="font-size:10.5px">retning</tspan>
     </text>
   </g>
   <path
      d="M 38,379 L 41,379 L 41,382 L 46,382 L 46,379 L 107,379 L 107,393 L 46,393 L 46,390 L 41,390 L 41,393 L 38,393 L 38,379 z"
      style="fill:url(#linearGradient3405);fill-opacity:1;stroke:#00a000;stroke-width:1;stroke-opacity:1" />
   <text
      style="font-size:8;text-align:center;text-anchor:middle;font-family:Bitstream Vera Sans">
     <tspan
        x="72"
        y="390"
        style="font-size:10.5">x-koordinat</tspan>
   </text>
   <path
      d="M 38,403 L 41,403 L 41,406 L 46,406 L 46,403 L 107,403 L 107,417 L 46,417 L 46,414 L 41,414 L 41,417 L 38,417 L 38,403 z"
      style="fill:url(#linearGradient3413);fill-opacity:1;stroke:#00a000;stroke-width:1;stroke-opacity:1" />
   <text
      style="font-size:8;text-align:center;text-anchor:middle;font-family:Bitstream Vera Sans">
     <tspan
        x="72"
        y="413"
        style="font-size:10.5">y-koordinat</tspan>
   </text>
   <path
      d="M 38,427 L 41,427 L 41,430 L 46,430 L 46,427 L 107,427 L 107,441 L 46,441 L 46,438 L 41,438 L 41,441 L 38,441 L 38,427 z"
      style="fill:url(#linearGradient3421);fill-opacity:1;stroke:#00a000;stroke-width:1;stroke-opacity:1" />
   <text
      style="font-size:8;text-align:center;text-anchor:middle;font-family:Bitstream Vera Sans">
     <tspan
        x="72"
        y="437"
        style="font-size:10.5px">retning</tspan>
   </text>
   <text
      style="font-size:12px;text-align:center;text-anchor:middle;font-family:Bitstream Vera Sans">
     <tspan
        x="72"
        y="19"
        style="font-size:20px">Skilpadde</tspan>
   </text>
   <rect
      width="137.5"
      height="0.14"
      x="3.7"
      y="280.6"
      style="opacity:1;fill:#ffd000;fill-opacity:1;stroke:#e0a000;stroke-width:1;stroke-opacity:1" />
   <rect
      width="137.5"
      height="0.14"
      x="3.7"
      y="281.7"
      style="opacity:1;fill:#ffd000;fill-opacity:1;stroke:#fff080;stroke-width:1;stroke-opacity:1" />
   <rect
      width="137.5"
      height="0.14"
      x="3.7"
      y="282.6"
      style="opacity:1;fill:#ffd000;fill-opacity:1;stroke:#ffffc4;stroke-width:1;stroke-opacity:1" />
   <rect
      width="137.5"
      height="0.14"
      x="3.7"
      y="372.5"
      style="opacity:1;fill:#ffd000;fill-opacity:1;stroke:#e0a000;stroke-width:1;stroke-opacity:1" />
   <rect
      width="137.5"
      height="0.14"
      x="3.7"
      y="373.6"
      style="opacity:1;fill:#ffd000;fill-opacity:1;stroke:#fff080;stroke-width:1;stroke-opacity:1" />
   <rect
      width="137.5"
      height="0.14"
      x="3.7"
      y="374.6"
      style="opacity:1;fill:#ffd000;fill-opacity:1;stroke:#ffffc4;stroke-width:1;stroke-opacity:1" />
   <g
      transform="translate(-72,65)">
     <path
        d="M 126,227 L 137,227 L 137,231 L 134,231 L 134,229 L 127,229"
        style="fill:#00e000;fill-opacity:1;stroke:#008000;stroke-width:1;stroke-opacity:1" />
     <path
        d="M 126,246 L 137,246 L 137,242 L 134,242 L 134,244 L 127,244"
        style="fill:#00e000;fill-opacity:1;stroke:#008000;stroke-width:1;stroke-opacity:1" />
     <path
        d="M 111,224 C 122,224 122,224 122,224 L 125,227 L 128,231 L 128,243 L 125,247 L 122,250 L 110,250 L 110,250 L 110,252 L 97,252 L 97,250 L 86,250 L 82,247 L 80,243 L 80,231 L 82,227 L 86,224 L 96,224 L 96,227 L 111,227 L 111,224 z"
        style="fill:url(#linearGradient2505);fill-opacity:1;stroke:#00a000;stroke-width:1;stroke-opacity:1" />
     <text
        style="font-size:8;text-align:center;text-anchor:middle;font-family:Bitstream Vera Sans">
       <tspan
          x="104"
          y="241"
          style="font-size:12">vis</tspan>
     </text>
   </g>
   <g
      transform="translate(0,65)">
     <path
        d="M 126,227 L 137,227 L 137,231 L 134,231 L 134,229 L 127,229"
        style="fill:#00e000;fill-opacity:1;stroke:#008000;stroke-width:1;stroke-opacity:1" />
     <path
        d="M 126,246 L 137,246 L 137,242 L 134,242 L 134,244 L 127,244"
        style="fill:#00e000;fill-opacity:1;stroke:#008000;stroke-width:1;stroke-opacity:1" />
     <path
        d="M 111,224 C 122,224 122,224 122,224 L 125,227 L 128,231 L 128,243 L 125,247 L 122,250 L 110,250 L 110,250 L 110,252 L 97,252 L 97,250 L 86,250 L 82,247 L 80,243 L 80,231 L 82,227 L 86,224 L 96,224 L 96,227 L 111,227 L 111,224 z"
        style="fill:url(#linearGradient2519);fill-opacity:1;stroke:#00a000;stroke-width:1;stroke-opacity:1" />
    <text
        style="font-size:8;text-align:center;text-anchor:middle;font-family:Bitstream Vera Sans">
       <tspan
          x="104"
          y="236"
          style="font-size:12">endre</tspan>
     </text>
     <text
        style="font-size:8;text-align:center;text-anchor:middle;font-family:Bitstream Vera Sans">
       <tspan
          x="104"
          y="246"
          style="font-size:12">størrelse</tspan>
     </text>
   </g>
   <path
      d="M 38,451 L 41,451 L 41,454 L 46,454 L 46,451 L 107,451 L 107,465 L 46,465 L 46,462 L 41,462 L 41,465 L 38,465 L 38,451 z"
      id="path2521"
      style="fill:url(#linearGradient2527);fill-opacity:1;stroke:#00a000;stroke-width:1;stroke-opacity:1" />
   <text
      style="font-size:8;text-align:center;text-anchor:middle;font-family:Bitstream Vera Sans">
     <tspan
        x="71"
        y="461"
        style="font-size:10.5">størrelse</tspan>
   </text>
   <g
      transform="matrix(0.67,0,0,0.67,39,323.6)">
     <path
        d="M 1,23.25 L 6,23.25 L 6,27 L 13,27 L 13,1 L 99,1 L 99,65 L 13,65 L 13,37.5 L 6,37.5 L 6,41.5 L 1,41.5 L 1,23.25 z"
        style="fill:url(#linearGradient3172);fill-opacity:1;fill-rule:nonzero;stroke:#00a000;stroke-width:2;stroke-linecap:butt;stroke-linejoin:miter;stroke-miterlimit:4;stroke-opacity:1" />
     <rect
        width="75"
        height="54"
        x="19"
        y="6"
        style="opacity:1;fill:#ffffff;fill-opacity:1;stroke:none" />
   </g>
 </svg>
