<?xml version="1.0" encoding="UTF-8" standalone="no"?>
<!-- Created with Inkscape (http://www.inkscape.org/) -->
<svg
   xmlns:svg="http://www.w3.org/2000/svg"
   xmlns="http://www.w3.org/2000/svg"
   xmlns:xlink="http://www.w3.org/1999/xlink"
   version="1.0"
   width="145"
   height="500"
   id="svg2">
  <defs
     id="defs45">
    <linearGradient
       x1="-0.25"
       y1="18.5"
       x2="52.25"
       y2="18.5"
       id="linearGradient4496"
       xlink:href="#linearGradient2480"
       gradientUnits="userSpaceOnUse"
       gradientTransform="matrix(0.25,0,0,-0.25,33.139165,170.11248)" />
    <linearGradient
       x1="-0.25"
       y1="18.5"
       x2="52.25"
       y2="18.5"
       id="linearGradient4491"
       xlink:href="#linearGradient2480"
       gradientUnits="userSpaceOnUse"
       gradientTransform="matrix(0.25,0,0,-0.25,33.139163,211.61339)" />
    <linearGradient
       x1="-0.25"
       y1="18.5"
       x2="52.25"
       y2="18.5"
       id="linearGradient4486"
       xlink:href="#linearGradient3417"
       gradientUnits="userSpaceOnUse"
       gradientTransform="matrix(0.25,0,0,-0.25,95.74772,211.61338)" />
    <linearGradient
       x1="-0.25"
       y1="18.5"
       x2="52.25"
       y2="18.5"
       id="linearGradient4481"
       xlink:href="#linearGradient3417"
       gradientUnits="userSpaceOnUse"
       gradientTransform="matrix(0.25,0,0,-0.25,95.74772,170.11247)" />
    <linearGradient
       x1="-0.25"
       y1="18.5"
       x2="52.25"
       y2="18.5"
       id="linearGradient4476"
       xlink:href="#linearGradient3417"
       gradientUnits="userSpaceOnUse"
       gradientTransform="matrix(0.25,0,0,-0.25,25.58374,253.1143)" />
    <linearGradient
       x1="-0.25"
       y1="18.5"
       x2="52.25"
       y2="18.5"
       id="linearGradient4451"
       xlink:href="#linearGradient3417"
       gradientUnits="userSpaceOnUse"
       gradientTransform="matrix(0.25,0,0,-0.25,-107.9952,288.54552)" />
    <linearGradient
       x1="-0.25"
       y1="18.5"
       x2="52.25"
       y2="18.5"
       id="linearGradient4441"
       xlink:href="#linearGradient3417"
       gradientUnits="userSpaceOnUse"
       gradientTransform="matrix(0.25,0,0,-0.25,-107.9952,288.54552)" />
    <linearGradient
       x1="-0.25"
       y1="18.5"
       x2="52.25"
       y2="18.5"
       id="linearGradient4431"
       xlink:href="#linearGradient3417"
       gradientUnits="userSpaceOnUse"
       gradientTransform="matrix(0.25,0,0,-0.25,-107.9952,288.54552)" />
    <linearGradient
       id="linearGradient4389">
      <stop
         id="stop4391"
         style="stop-color:#ffffff;stop-opacity:1"
         offset="0" />
      <stop
         id="stop4393"
         style="stop-color:#ff00ff;stop-opacity:1"
         offset="1" />
    </linearGradient>
    <linearGradient
       x1="-0.25"
       y1="18.5"
       x2="52.25"
       y2="18.5"
       id="linearGradient4395"
       xlink:href="#linearGradient3166"
       gradientUnits="userSpaceOnUse" />
    <linearGradient
       x1="0"
       y1="0"
       x2="104"
       y2="21"
       id="linearGradient4397"
       xlink:href="#linearGradient3166"
       gradientUnits="userSpaceOnUse"
       gradientTransform="translate(-0.2720588,8.0000002)" />
    <linearGradient
       id="linearGradient4399">
      <stop
         id="stop4401"
         style="stop-color:#ffffff;stop-opacity:1"
         offset="0" />
      <stop
         id="stop4403"
         style="stop-color:#ff00ff;stop-opacity:1"
         offset="1" />
    </linearGradient>
    <linearGradient
       x1="-0.25"
       y1="18.5"
       x2="52.25"
       y2="18.5"
       id="linearGradient4405"
       xlink:href="#linearGradient3166"
       gradientUnits="userSpaceOnUse"
       gradientTransform="translate(1.78e-7,29.691177)" />
    <linearGradient
       x1="-0.25"
       y1="18.5"
       x2="52.25"
       y2="18.5"
       id="linearGradient4407"
       xlink:href="#linearGradient3166"
       gradientUnits="userSpaceOnUse"
       gradientTransform="translate(8.8e-8,33.25)" />
    <linearGradient
       x1="-0.25"
       y1="18.5"
       x2="52.25"
       y2="18.5"
       id="linearGradient4409"
       xlink:href="#linearGradient3166"
       gradientUnits="userSpaceOnUse"
       gradientTransform="translate(0.25,0.25)" />
    <linearGradient
       x1="84.393837"
       y1="150.49895"
       x2="121.72736"
       y2="150.49895"
       id="linearGradient4285"
       xlink:href="#linearGradient5166"
       gradientUnits="userSpaceOnUse"
       gradientTransform="translate(-4.882461,18)" />
    <linearGradient
       x1="-0.25"
       y1="18.5"
       x2="52.25"
       y2="18.5"
       id="linearGradient4273"
       xlink:href="#linearGradient2480"
       gradientUnits="userSpaceOnUse"
       gradientTransform="matrix(0.5,0,0,-0.5,311.64069,549.59336)" />
    <linearGradient
       x1="-0.25"
       y1="18.5"
       x2="52.25"
       y2="18.5"
       id="linearGradient4269"
       xlink:href="#linearGradient2480"
       gradientUnits="userSpaceOnUse"
       gradientTransform="matrix(0.5,0,0,-0.5,181.07388,553.64194)" />
    <linearGradient
       x1="-0.25"
       y1="18.5"
       x2="52.25"
       y2="18.5"
       id="linearGradient4242"
       xlink:href="#linearGradient2480"
       gradientUnits="userSpaceOnUse"
       gradientTransform="matrix(0.5,0,0,-0.5,383.87753,545.54478)" />
    <linearGradient
       x1="-0.25"
       y1="18.5"
       x2="52.25"
       y2="18.5"
       id="linearGradient4237"
       xlink:href="#linearGradient2480"
       gradientUnits="userSpaceOnUse"
       gradientTransform="matrix(0.5,0,0,-0.5,445.61842,548.58121)" />
    <linearGradient
       x1="-0.25"
       y1="18.5"
       x2="52.25"
       y2="18.5"
       id="linearGradient4232"
       xlink:href="#linearGradient2480"
       gradientUnits="userSpaceOnUse"
       gradientTransform="matrix(0.5,0,0,-0.5,311.64069,549.59336)" />
    <linearGradient
       x1="-0.25"
       y1="18.5"
       x2="52.25"
       y2="18.5"
       id="linearGradient4227"
       xlink:href="#linearGradient2480"
       gradientUnits="userSpaceOnUse"
       gradientTransform="matrix(0.5,0,0,-0.5,240.79048,553.64194)" />
    <linearGradient
       x1="-0.25"
       y1="18.5"
       x2="52.25"
       y2="18.5"
       id="linearGradient4222"
       xlink:href="#linearGradient2480"
       gradientUnits="userSpaceOnUse"
       gradientTransform="matrix(0.5,0,0,-0.5,181.07388,553.64194)" />
    <linearGradient
       x1="-0.25"
       y1="18.5"
       x2="52.25"
       y2="18.5"
       id="linearGradient3447"
       xlink:href="#linearGradient3166"
       gradientUnits="userSpaceOnUse"
       gradientTransform="matrix(0.5,0,0,-0.5,24.5,215.41016)" />
    <linearGradient
       id="linearGradient3417">
      <stop
         id="stop3419"
         style="stop-color:#ffffff;stop-opacity:1"
         offset="0" />
      <stop
         id="stop3421"
         style="stop-color:#ff00ff;stop-opacity:1"
         offset="1" />
    </linearGradient>
    <linearGradient
       x1="-0.25"
       y1="18.5"
       x2="52.25"
       y2="18.5"
       id="linearGradient3423"
       xlink:href="#linearGradient3166"
       gradientUnits="userSpaceOnUse" />
    <linearGradient
       x1="0"
       y1="0"
       x2="104"
       y2="21"
       id="linearGradient3425"
       xlink:href="#linearGradient3166"
       gradientUnits="userSpaceOnUse"
       gradientTransform="translate(-0.2720588,8.0000002)" />
    <linearGradient
       id="linearGradient3427">
      <stop
         id="stop3429"
         style="stop-color:#ffffff;stop-opacity:1"
         offset="0" />
      <stop
         id="stop3431"
         style="stop-color:#ff00ff;stop-opacity:1"
         offset="1" />
    </linearGradient>
    <linearGradient
       x1="-0.25"
       y1="18.5"
       x2="52.25"
       y2="18.5"
       id="linearGradient3433"
       xlink:href="#linearGradient3166"
       gradientUnits="userSpaceOnUse"
       gradientTransform="translate(1.78e-7,29.691177)" />
    <linearGradient
       x1="-0.25"
       y1="18.5"
       x2="52.25"
       y2="18.5"
       id="linearGradient3435"
       xlink:href="#linearGradient3166"
       gradientUnits="userSpaceOnUse"
       gradientTransform="translate(8.8e-8,33.25)" />
    <linearGradient
       x1="-0.25"
       y1="18.5"
       x2="52.25"
       y2="18.5"
       id="linearGradient3437"
       xlink:href="#linearGradient3166"
       gradientUnits="userSpaceOnUse"
       gradientTransform="translate(0.25,0.25)" />
    <linearGradient
       x1="-0.25"
       y1="18.5"
       x2="52.25"
       y2="18.5"
       id="linearGradient3293"
       xlink:href="#linearGradient3166"
       gradientUnits="userSpaceOnUse"
       gradientTransform="matrix(0.5,0,0,-0.5,24.5,215.41016)" />
    <linearGradient
       id="linearGradient3263">
      <stop
         id="stop3265"
         style="stop-color:#ffffff;stop-opacity:1"
         offset="0" />
      <stop
         id="stop3267"
         style="stop-color:#ff00ff;stop-opacity:1"
         offset="1" />
    </linearGradient>
    <linearGradient
       x1="-0.25"
       y1="18.5"
       x2="52.25"
       y2="18.5"
       id="linearGradient3269"
       xlink:href="#linearGradient3166"
       gradientUnits="userSpaceOnUse" />
    <linearGradient
       x1="0"
       y1="0"
       x2="104"
       y2="21"
       id="linearGradient3271"
       xlink:href="#linearGradient3166"
       gradientUnits="userSpaceOnUse"
       gradientTransform="translate(-0.2720588,8.0000002)" />
    <linearGradient
       id="linearGradient3273">
      <stop
         id="stop3275"
         style="stop-color:#ffffff;stop-opacity:1"
         offset="0" />
      <stop
         id="stop3277"
         style="stop-color:#ff00ff;stop-opacity:1"
         offset="1" />
    </linearGradient>
    <linearGradient
       x1="-0.25"
       y1="18.5"
       x2="52.25"
       y2="18.5"
       id="linearGradient3279"
       xlink:href="#linearGradient3166"
       gradientUnits="userSpaceOnUse"
       gradientTransform="translate(1.78e-7,29.691177)" />
    <linearGradient
       x1="-0.25"
       y1="18.5"
       x2="52.25"
       y2="18.5"
       id="linearGradient3281"
       xlink:href="#linearGradient3166"
       gradientUnits="userSpaceOnUse"
       gradientTransform="translate(8.8e-8,33.25)" />
    <linearGradient
       x1="-0.25"
       y1="18.5"
       x2="52.25"
       y2="18.5"
       id="linearGradient3283"
       xlink:href="#linearGradient3166"
       gradientUnits="userSpaceOnUse"
       gradientTransform="translate(0.25,0.25)" />
    <linearGradient
       x1="-0.25"
       y1="18.5"
       x2="52.25"
       y2="18.5"
       id="linearGradient3138"
       xlink:href="#linearGradient3166"
       gradientUnits="userSpaceOnUse"
       gradientTransform="matrix(0.5,0,0,-0.5,24.5,215.41016)" />
    <linearGradient
       id="linearGradient3108">
      <stop
         id="stop3110"
         style="stop-color:#ffffff;stop-opacity:1"
         offset="0" />
      <stop
         id="stop3112"
         style="stop-color:#ff00ff;stop-opacity:1"
         offset="1" />
    </linearGradient>
    <linearGradient
       x1="-0.25"
       y1="18.5"
       x2="52.25"
       y2="18.5"
       id="linearGradient3114"
       xlink:href="#linearGradient3166"
       gradientUnits="userSpaceOnUse" />
    <linearGradient
       x1="0"
       y1="0"
       x2="104"
       y2="21"
       id="linearGradient3116"
       xlink:href="#linearGradient3166"
       gradientUnits="userSpaceOnUse"
       gradientTransform="translate(-0.2720588,8.0000002)" />
    <linearGradient
       id="linearGradient3118">
      <stop
         id="stop3120"
         style="stop-color:#ffffff;stop-opacity:1"
         offset="0" />
      <stop
         id="stop3122"
         style="stop-color:#ff00ff;stop-opacity:1"
         offset="1" />
    </linearGradient>
    <linearGradient
       x1="-0.25"
       y1="18.5"
       x2="52.25"
       y2="18.5"
       id="linearGradient3124"
       xlink:href="#linearGradient3166"
       gradientUnits="userSpaceOnUse"
       gradientTransform="translate(1.78e-7,29.691177)" />
    <linearGradient
       x1="-0.25"
       y1="18.5"
       x2="52.25"
       y2="18.5"
       id="linearGradient3126"
       xlink:href="#linearGradient3166"
       gradientUnits="userSpaceOnUse"
       gradientTransform="translate(8.8e-8,33.25)" />
    <linearGradient
       x1="-0.25"
       y1="18.5"
       x2="52.25"
       y2="18.5"
       id="linearGradient3128"
       xlink:href="#linearGradient3166"
       gradientUnits="userSpaceOnUse"
       gradientTransform="translate(0.25,0.25)" />
    <linearGradient
       x1="-0.25"
       y1="18.5"
       x2="52.25"
       y2="18.5"
       id="linearGradient3024"
       xlink:href="#linearGradient3166"
       gradientUnits="userSpaceOnUse"
       gradientTransform="matrix(0.5,0,0,-0.5,24.5,215.41016)" />
    <linearGradient
       id="linearGradient2994">
      <stop
         id="stop2996"
         style="stop-color:#ffffff;stop-opacity:1"
         offset="0" />
      <stop
         id="stop2998"
         style="stop-color:#ff00ff;stop-opacity:1"
         offset="1" />
    </linearGradient>
    <linearGradient
       x1="-0.25"
       y1="18.5"
       x2="52.25"
       y2="18.5"
       id="linearGradient3000"
       xlink:href="#linearGradient3166"
       gradientUnits="userSpaceOnUse" />
    <linearGradient
       x1="0"
       y1="0"
       x2="104"
       y2="21"
       id="linearGradient3002"
       xlink:href="#linearGradient3166"
       gradientUnits="userSpaceOnUse"
       gradientTransform="translate(-0.2720588,8.0000002)" />
    <linearGradient
       id="linearGradient3004">
      <stop
         id="stop3006"
         style="stop-color:#ffffff;stop-opacity:1"
         offset="0" />
      <stop
         id="stop3008"
         style="stop-color:#ff00ff;stop-opacity:1"
         offset="1" />
    </linearGradient>
    <linearGradient
       x1="-0.25"
       y1="18.5"
       x2="52.25"
       y2="18.5"
       id="linearGradient3010"
       xlink:href="#linearGradient3166"
       gradientUnits="userSpaceOnUse"
       gradientTransform="translate(1.78e-7,29.691177)" />
    <linearGradient
       x1="-0.25"
       y1="18.5"
       x2="52.25"
       y2="18.5"
       id="linearGradient3012"
       xlink:href="#linearGradient3166"
       gradientUnits="userSpaceOnUse"
       gradientTransform="translate(8.8e-8,33.25)" />
    <linearGradient
       x1="-0.25"
       y1="18.5"
       x2="52.25"
       y2="18.5"
       id="linearGradient3014"
       xlink:href="#linearGradient3166"
       gradientUnits="userSpaceOnUse"
       gradientTransform="translate(0.25,0.25)" />
    <linearGradient
       x1="-0.25"
       y1="18.5"
       x2="52.25"
       y2="18.5"
       id="linearGradient2910"
       xlink:href="#linearGradient3166"
       gradientUnits="userSpaceOnUse"
       gradientTransform="matrix(0.5,0,0,-0.5,24.5,215.41016)" />
    <linearGradient
       id="linearGradient2882">
      <stop
         id="stop2884"
         style="stop-color:#ffffff;stop-opacity:1"
         offset="0" />
      <stop
         id="stop2886"
         style="stop-color:#ff00ff;stop-opacity:1"
         offset="1" />
    </linearGradient>
    <linearGradient
       x1="-0.25"
       y1="18.5"
       x2="52.25"
       y2="18.5"
       id="linearGradient2888"
       xlink:href="#linearGradient3166"
       gradientUnits="userSpaceOnUse" />
    <linearGradient
       x1="0"
       y1="0"
       x2="104"
       y2="21"
       id="linearGradient2890"
       xlink:href="#linearGradient3166"
       gradientUnits="userSpaceOnUse"
       gradientTransform="translate(-0.2720588,8.0000002)" />
    <linearGradient
       id="linearGradient2892">
      <stop
         id="stop2894"
         style="stop-color:#ffffff;stop-opacity:1"
         offset="0" />
      <stop
         id="stop2896"
         style="stop-color:#ff00ff;stop-opacity:1"
         offset="1" />
    </linearGradient>
    <linearGradient
       x1="-0.25"
       y1="18.5"
       x2="52.25"
       y2="18.5"
       id="linearGradient2898"
       xlink:href="#linearGradient3166"
       gradientUnits="userSpaceOnUse"
       gradientTransform="translate(1.78e-7,29.691177)" />
    <linearGradient
       x1="-0.25"
       y1="18.5"
       x2="52.25"
       y2="18.5"
       id="linearGradient2900"
       xlink:href="#linearGradient3166"
       gradientUnits="userSpaceOnUse"
       gradientTransform="translate(8.8e-8,33.25)" />
    <linearGradient
       x1="-0.25"
       y1="18.5"
       x2="52.25"
       y2="18.5"
       id="linearGradient2902"
       xlink:href="#linearGradient3166"
       gradientUnits="userSpaceOnUse"
       gradientTransform="translate(0.25,0.25)" />
    <linearGradient
       x1="-0.25"
       y1="18.5"
       x2="52.25"
       y2="18.5"
       id="linearGradient2798"
       xlink:href="#linearGradient3166"
       gradientUnits="userSpaceOnUse"
       gradientTransform="matrix(0.5,0,0,-0.5,50.790988,326.09766)" />
    <linearGradient
       id="linearGradient2774">
      <stop
         id="stop2776"
         style="stop-color:#ffffff;stop-opacity:1"
         offset="0" />
      <stop
         id="stop2778"
         style="stop-color:#ffc000;stop-opacity:1"
         offset="1" />
    </linearGradient>
    <linearGradient
       x1="-0.25"
       y1="18.5"
       x2="52.25"
       y2="18.5"
       id="linearGradient2780"
       xlink:href="#linearGradient3166"
       gradientUnits="userSpaceOnUse" />
    <linearGradient
       x1="0"
       y1="0"
       x2="104"
       y2="21"
       id="linearGradient2782"
       xlink:href="#linearGradient3166"
       gradientUnits="userSpaceOnUse"
       gradientTransform="translate(-0.2720588,8.0000002)" />
    <linearGradient
       id="linearGradient2784">
      <stop
         id="stop2786"
         style="stop-color:#ffffff;stop-opacity:1"
         offset="0" />
      <stop
         id="stop2788"
         style="stop-color:#ff00ff;stop-opacity:1"
         offset="1" />
    </linearGradient>
    <linearGradient
       x1="-0.25"
       y1="18.5"
       x2="52.25"
       y2="18.5"
       id="linearGradient2790"
       xlink:href="#linearGradient3166"
       gradientUnits="userSpaceOnUse"
       gradientTransform="translate(1.78e-7,29.691177)" />
    <linearGradient
       x1="-0.25"
       y1="18.5"
       x2="52.25"
       y2="18.5"
       id="linearGradient2792"
       xlink:href="#linearGradient3166"
       gradientUnits="userSpaceOnUse"
       gradientTransform="translate(8.8e-8,33.25)" />
    <linearGradient
       x1="-0.25"
       y1="18.5"
       x2="52.25"
       y2="18.5"
       id="linearGradient2794"
       xlink:href="#linearGradient3166"
       gradientUnits="userSpaceOnUse"
       gradientTransform="translate(0.25,0.25)" />
    <linearGradient
       id="linearGradient3166">
      <stop
         id="stop3168"
         style="stop-color:#ffffff;stop-opacity:1"
         offset="0" />
      <stop
         id="stop3170"
         style="stop-color:#ffc000;stop-opacity:1"
         offset="1" />
    </linearGradient>
    <linearGradient
       x1="-0.25"
       y1="18.5"
       x2="52.25"
       y2="18.5"
       id="linearGradient3173"
       xlink:href="#linearGradient3166"
       gradientUnits="userSpaceOnUse" />
    <linearGradient
       x1="0"
       y1="0"
       x2="104"
       y2="21"
       id="linearGradient3172"
       xlink:href="#linearGradient3166"
       gradientUnits="userSpaceOnUse"
       gradientTransform="translate(-0.2720588,8.0000002)" />
    <linearGradient
       id="linearGradient2480">
      <stop
         id="stop2482"
         style="stop-color:#ffffff;stop-opacity:1"
         offset="0" />
      <stop
         id="stop2484"
         style="stop-color:#ff00ff;stop-opacity:1"
         offset="1" />
    </linearGradient>
    <linearGradient
       x1="-0.25"
       y1="18.5"
       x2="52.25"
       y2="18.5"
       id="linearGradient2490"
       xlink:href="#linearGradient3166"
       gradientUnits="userSpaceOnUse"
       gradientTransform="translate(1.78e-7,29.691177)" />
    <linearGradient
       x1="-0.25"
       y1="18.5"
       x2="52.25"
       y2="18.5"
       id="linearGradient2493"
       xlink:href="#linearGradient3166"
       gradientUnits="userSpaceOnUse"
       gradientTransform="translate(8.8e-8,33.25)" />
    <linearGradient
       x1="-0.25"
       y1="18.5"
       x2="52.25"
       y2="18.5"
       id="linearGradient2495"
       xlink:href="#linearGradient3166"
       gradientUnits="userSpaceOnUse"
       gradientTransform="matrix(0.5,0,0,-0.5,21.014163,215.41015)" />
    <linearGradient
       x1="43.416519"
       y1="448.5"
       x2="92.750099"
       y2="448.5"
       id="linearGradient2584"
       xlink:href="#linearGradient5166"
       gradientUnits="userSpaceOnUse"
       gradientTransform="translate(36.437247,-46.558704)" />
    <linearGradient
       x1="44.999863"
       y1="402.5"
       x2="100.00014"
       y2="402.5"
       id="linearGradient2582"
       xlink:href="#linearGradient5166"
       gradientUnits="userSpaceOnUse"
       gradientTransform="translate(-32,0)" />
    <linearGradient
       x1="43.416519"
       y1="448.5"
       x2="92.750099"
       y2="448.5"
       id="linearGradient3790"
       xlink:href="#linearGradient5166"
       gradientUnits="userSpaceOnUse"
       gradientTransform="translate(36.437247,-46.558704)" />
    <linearGradient
       x1="44.999863"
       y1="402.5"
       x2="100.00014"
       y2="402.5"
       id="linearGradient3782"
       xlink:href="#linearGradient5166"
       gradientUnits="userSpaceOnUse"
       gradientTransform="translate(-32,0)" />
    <linearGradient
       x1="77.666512"
       y1="359.5"
       x2="139.33348"
       y2="359.5"
       id="linearGradient3774"
       xlink:href="#linearGradient5166"
       gradientUnits="userSpaceOnUse"
       gradientTransform="translate(0,12)" />
    <linearGradient
       x1="8.1665125"
       y1="360"
       x2="69.833488"
       y2="360"
       id="linearGradient3765"
       xlink:href="#linearGradient5166"
       gradientUnits="userSpaceOnUse"
       gradientTransform="translate(0,12)" />
    <linearGradient
       x1="1.2215077"
       y1="318"
       x2="143.7785"
       y2="318"
       id="linearGradient3757"
       xlink:href="#linearGradient5166"
       gradientUnits="userSpaceOnUse"
       gradientTransform="translate(0,14)" />
    <linearGradient
       x1="1.2215077"
       y1="278.5"
       x2="143.7785"
       y2="278.5"
       id="linearGradient3749"
       xlink:href="#linearGradient5166"
       gradientUnits="userSpaceOnUse"
       gradientTransform="translate(0,26)" />
    <linearGradient
       x1="1.2215077"
       y1="235"
       x2="143.7785"
       y2="235"
       id="linearGradient3741"
       xlink:href="#linearGradient5166"
       gradientUnits="userSpaceOnUse"
       gradientTransform="translate(0,42)" />
    <linearGradient
       x1="10.277154"
       y1="192.5"
       x2="134.72285"
       y2="192.5"
       id="linearGradient3733"
       xlink:href="#linearGradient5166"
       gradientUnits="userSpaceOnUse"
       gradientTransform="translate(0,48)" />
    <linearGradient
       x1="84.393837"
       y1="150.49895"
       x2="121.72736"
       y2="150.49895"
       id="linearGradient3725"
       xlink:href="#linearGradient5166"
       gradientUnits="userSpaceOnUse"
       gradientTransform="translate(-4.882461,18)" />
    <linearGradient
       x1="15.999892"
       y1="150.49895"
       x2="59.000107"
       y2="150.49895"
       id="linearGradient3717"
       xlink:href="#linearGradient5166"
       gradientUnits="userSpaceOnUse" />
    <linearGradient
       x1="85.560509"
       y1="114.35662"
       x2="120.56069"
       y2="114.35662"
       id="linearGradient3709"
       xlink:href="#linearGradient5166"
       gradientUnits="userSpaceOnUse" />
    <linearGradient
       x1="19.999912"
       y1="114.35662"
       x2="55.000088"
       y2="114.35662"
       id="linearGradient3701"
       xlink:href="#linearGradient5166"
       gradientUnits="userSpaceOnUse" />
    <linearGradient
       x1="85.560509"
       y1="78.214287"
       x2="120.56069"
       y2="78.214287"
       id="linearGradient3693"
       xlink:href="#linearGradient5166"
       gradientUnits="userSpaceOnUse" />
    <linearGradient
       x1="19.999912"
       y1="78.214287"
       x2="55.000088"
       y2="78.214287"
       id="linearGradient3685"
       xlink:href="#linearGradient5166"
       gradientUnits="userSpaceOnUse" />
    <linearGradient
       x1="37.33316"
       y1="41.5"
       x2="107.66684"
       y2="41.5"
       id="linearGradient3677"
       xlink:href="#linearGradient5166"
       gradientUnits="userSpaceOnUse" />
    <linearGradient
       x1="0"
       y1="22"
       x2="74"
       y2="22"
       id="linearGradient5187"
       xlink:href="#linearGradient3049"
       gradientUnits="userSpaceOnUse"
       gradientTransform="matrix(0.66667,0,0,0.66667,147.83371,171.83398)" />
    <linearGradient
       id="linearGradient5166">
      <stop
         id="stop5168"
         style="stop-color:#ffffff;stop-opacity:1"
         offset="0" />
      <stop
         id="stop5170"
         style="stop-color:#ff00ff;stop-opacity:1"
         offset="1" />
    </linearGradient>
    <linearGradient
       x1="-0.25"
       y1="18.5"
       x2="52.25"
       y2="18.5"
       id="linearGradient3165"
       xlink:href="#linearGradient3417"
       gradientUnits="userSpaceOnUse"
       gradientTransform="matrix(0.25,0,0,-0.25,-274.41338,253.11142)" />
    <linearGradient
       x1="-0.25"
       y1="18.5"
       x2="52.25"
       y2="18.5"
       id="linearGradient3170"
       xlink:href="#linearGradient3417"
       gradientUnits="userSpaceOnUse"
       gradientTransform="matrix(0.25,0,0,-0.25,-204.2494,211.6105)" />
    <linearGradient
       x1="-0.25"
       y1="18.5"
       x2="52.25"
       y2="18.5"
       id="linearGradient3175"
       xlink:href="#linearGradient3417"
       gradientUnits="userSpaceOnUse"
       gradientTransform="matrix(0.25,0,0,-0.25,-204.2494,170.10959)" />
    <linearGradient
       x1="-0.25"
       y1="18.5"
       x2="52.25"
       y2="18.5"
       id="linearGradient3180"
       xlink:href="#linearGradient2480"
       gradientUnits="userSpaceOnUse"
       gradientTransform="matrix(0.25,0,0,-0.25,-266.85796,211.61051)" />
    <linearGradient
       x1="-0.25"
       y1="18.5"
       x2="52.25"
       y2="18.5"
       id="linearGradient3185"
       xlink:href="#linearGradient2480"
       gradientUnits="userSpaceOnUse"
       gradientTransform="matrix(0.25,0,0,-0.25,-266.85795,170.1096)" />
    <linearGradient
       x1="-0.25"
       y1="18.5"
       x2="52.25"
       y2="18.5"
       id="linearGradient3188"
       xlink:href="#linearGradient3166"
       gradientUnits="userSpaceOnUse"
       gradientTransform="matrix(0.5,0,0,-0.5,-249.20613,326.09478)" />
    <linearGradient
       x1="-0.25"
       y1="18.5"
       x2="52.25"
       y2="18.5"
       id="linearGradient3191"
       xlink:href="#linearGradient3166"
       gradientUnits="userSpaceOnUse"
       gradientTransform="matrix(0.5,0,0,-0.5,-278.98296,215.40727)" />
    <linearGradient
       x1="77.666512"
       y1="359.5"
       x2="139.33348"
       y2="359.5"
       id="linearGradient3212"
       xlink:href="#linearGradient5166"
       gradientUnits="userSpaceOnUse"
       gradientTransform="translate(-299.99712,11.99712)" />
    <linearGradient
       x1="8.1665125"
       y1="360"
       x2="69.833488"
       y2="360"
       id="linearGradient3217"
       xlink:href="#linearGradient5166"
       gradientUnits="userSpaceOnUse"
       gradientTransform="translate(-299.99712,11.99712)" />
    <linearGradient
       x1="1.2215077"
       y1="235"
       x2="143.7785"
       y2="235"
       id="linearGradient3224"
       xlink:href="#linearGradient5166"
       gradientUnits="userSpaceOnUse"
       gradientTransform="translate(-299.99712,41.99712)" />
    <linearGradient
       x1="1.2215077"
       y1="278.5"
       x2="143.7785"
       y2="278.5"
       id="linearGradient3231"
       xlink:href="#linearGradient5166"
       gradientUnits="userSpaceOnUse"
       gradientTransform="translate(-299.99712,25.99712)" />
    <linearGradient
       x1="1.2215077"
       y1="318"
       x2="143.7785"
       y2="318"
       id="linearGradient3238"
       xlink:href="#linearGradient5166"
       gradientUnits="userSpaceOnUse"
       gradientTransform="translate(-299.99712,13.99712)" />
    <linearGradient
       x1="10.277154"
       y1="192.5"
       x2="134.72285"
       y2="192.5"
       id="linearGradient3245"
       xlink:href="#linearGradient5166"
       gradientUnits="userSpaceOnUse"
       gradientTransform="translate(-299.99712,47.99712)" />
    <linearGradient
       x1="37.33316"
       y1="41.5"
       x2="107.66684"
       y2="41.5"
       id="linearGradient3253"
       xlink:href="#linearGradient5166"
       gradientUnits="userSpaceOnUse"
       gradientTransform="translate(-299.99712,-2.88e-3)" />
  </defs>
  <rect
     width="143"
     height="440"
     x="1"
     y="30"
     id="rect4"
     style="opacity:1;fill:#ffffff;fill-opacity:1;stroke:none;stroke-width:4;stroke-opacity:1" />
  <rect
     width="145"
     height="29"
     x="0"
     y="0"
     id="rect6"
     style="opacity:1;fill:#080808;fill-opacity:1;stroke:none;stroke-width:1;stroke-opacity:1" />
  <path
     d="M 0,470 L 0,486 L 3,493 L 8,497 L 15,499 L 129,499 L 136,497 L 142,492 L 145,484 L 145,470 L 0,470 z"
     id="path8"
     style="fill:#080808;fill-opacity:1;stroke:none;stroke-width:1px;stroke-opacity:1" />
  <path
     d="M 39,36 L 42,36 L 42,38 L 47,38 L 47,36 L 108,36 L 108,49 L 47,49 L 47,46 L 42,46 L 42,49 L 39,49 L 39,36 z"
     id="path10"
     style="fill:#101010;fill-opacity:1;stroke:#101010;stroke-width:1;stroke-opacity:1" />
  <path
     d="M 122,151.5 L 100,151.5 L 98,153.5 L 96,154.5 L 95,157.5 L 95,159.5 L 90,159.5 L 90,157.5 L 86,157.5 L 86,170.5 L 90,170.5 L 90,168.5 L 95,168.5 L 95,172.5 L 96,174.5 L 99,175.5 L 122,175.5 L 122,169.5 L 119,169.5 L 119,171.5 L 113,171.5 L 113,156.5 L 119,156.5 L 119,158.5 L 122,158.5 L 122,151.5 z"
     id="path22"
     style="fill:#404040;fill-opacity:1;stroke:none;stroke-width:1;stroke-opacity:1" />
  <path
     d="M 126,230 L 21,230 L 20,231 L 18,232 L 17,234 L 17,239 L 14,239 L 14,238 L 11,238 L 12,247 L 14,247 L 14,245 L 17,245 L 17,249 L 18,250 L 20,250 L 130,251 L 130,247 L 135,247 L 135,238 L 130,238 L 130,233 L 129,232 L 127,230 L 126,230 L 126,230"
     id="path24"
     style="fill:#585858;fill-opacity:1;stroke:#484848;stroke-width:1;stroke-opacity:1" />
  <path
     d="M 132,323.5 L 14,323.5 L 11,324.5 L 6,326.5 L 4,329.5 L 3,331.5 L 2,332.5 L 2,333.5 L 3,335.5 L 6,337.5 L 9,338.5 L 11,339.5 L 14,340.5 L 132,340.5 L 137,339.5 L 140,337.5 L 143,335.5 L 144,333.5 L 144,332.5 L 144,329.5 L 141,327.5 L 138,325.5 L 135,324.5 L 132,323.5 z"
     id="path26"
     style="fill:#707070;fill-opacity:1;stroke:#606060;stroke-width:1;stroke-opacity:1" />
  <path
     d="M 132,296.5 L 14,296.5 L 11,297.5 L 6,299.5 L 4,301.5 L 3,303.5 L 2,304.5 L 2,306.5 L 3,307.5 L 6,309.5 L 9,311.5 L 11,312.5 L 14,313.5 L 132,313.5 L 137,311.5 L 140,310.5 L 143,308.5 L 144,306.5 L 144,304.5 L 144,302.5 L 141,299.5 L 138,298.5 L 135,297.5 L 132,296.5 z"
     id="path28"
     style="fill:#686868;fill-opacity:1;stroke:#585858;stroke-width:1;stroke-opacity:1" />
  <path
     d="M 132,268.5 L 14,268.5 L 11,269.5 L 6,271.5 L 4,274.5 L 3,276.5 L 2,277.5 L 2,278.5 L 3,280.5 L 6,282.5 L 9,283.5 L 11,284.5 L 14,285.5 L 132,285.5 L 137,284.5 L 140,282.5 L 143,280.5 L 144,278.5 L 144,277.5 L 144,274.5 L 141,272.5 L 138,270.5 L 135,269.5 L 132,268.5 z"
     id="path30"
     style="fill:#606060;fill-opacity:1;stroke:#505050;stroke-width:1;stroke-opacity:1" />
  <path
     d="M 10,357.5 L 70,357.5 L 70,359.5 L 65,360.5 L 61,361.5 L 58,363.5 L 54,366.5 L 53,368.5 L 52,371.5 L 52,374.5 L 54,377.5 L 56,379.5 L 60,381.5 L 63,383.5 L 67,384.5 L 70,385.5 L 70,387.5 L 10,387.5 L 10,385.5 L 14,384.5 L 19,382.5 L 23,381.5 L 25,379.5 L 27,376.5 L 28,374.5 L 28,371.5 L 28,369.5 L 27,367.5 L 25,365.5 L 22,363.5 L 19,361.5 L 15,360.5 L 10,359.5 L 10,357.5 z"
     id="path32"
     style="fill:#787878;fill-opacity:1;stroke:#686868;stroke-width:1;stroke-opacity:1" />
  <path
     d="M 79,356.5 L 140,356.5 L 140,359.5 L 134,359.5 L 130,361.5 L 127,362.5 L 124,365.5 L 122,368.5 L 121,371.5 L 122,373.5 L 123,377.5 L 126,379.5 L 129,381.5 L 132,382.5 L 136,383.5 L 140,384.5 L 140,386.5 L 79,386.5 L 79,384.5 L 84,383.5 L 88,382.5 L 92,380.5 L 95,378.5 L 96,376.5 L 97,373.5 L 97,371.5 L 97,369.5 L 96,367.5 L 94,364.5 L 92,362.5 L 88,360.5 L 84,359.5 L 79,359.5 L 79,356.5 z"
     id="path34"
     style="fill:#808080;fill-opacity:1;stroke:#707070;stroke-width:1;stroke-opacity:1" />
  <path
     d="M 100,396.5 L 80,396.5 L 71,396.5 L 63,398.5 L 56,400.5 L 51,402.5 L 48,405.5 L 47,408.5 L 46,410.5 L 47,412.5 L 48,415.5 L 50,417.5 L 54,419.5 L 60,421.5 L 65,423.5 L 72,424.5 L 80,425.5 L 100,425.5 L 100,423.5 L 96,422.5 L 92,421.5 C 91,420.5 92,421.5 89,419.5 L 86,417.5 L 83,414.5 L 82,410.5 L 84,406.5 L 87,403.5 L 92,400.5 L 96,399.5 L 100,398.5 L 100,396.5"
     id="path36"
     style="fill:#888888;fill-opacity:1;stroke:#787878;stroke-width:1;stroke-opacity:1" />
  <path
     d="M 91,439 L 102,439 L 102,443 L 99,443 L 99,441 L 92,441"
     id="path38"
     style="fill:#808080;fill-opacity:1;stroke:#808080;stroke-width:1;stroke-opacity:1" />
  <path
     d="M 91,457 L 102,457 L 102,453 L 99,453 L 99,455 L 92,455"
     id="path40"
     style="fill:#808080;fill-opacity:1;stroke:#808080;stroke-width:1;stroke-opacity:1" />
  <path
     d="M 76,438.5 C 87,438.5 87,438.5 87,438.5 L 91,441.5 L 93,445.5 L 93,458.5 L 91,461.5 L 87,464.5 L 76,464.5 L 76,464.5 L 76,466.5 L 62,466.5 L 62,464.5 L 51,464.5 L 47,461.5 L 45,458.5 L 45,445.5 L 47,441.5 L 51,438.5 L 62,438.5 L 62,442.5 L 76,442.5 L 76,438.5 z"
     id="path42"
     style="fill:#909090;fill-opacity:1;stroke:#808080;stroke-width:1;stroke-opacity:1" />
  <path
     d="M 37.643216,215.5 L 48.518216,215.5 L 48.518216,211 L 46.518216,211 L 46.518216,212.5 L 42.018216,212.5 L 42.018216,201 L 46.518216,201 L 46.518216,202.5 L 48.518216,202.5 L 48.518216,198.125 L 42.018216,198.125 L 41.77105,189.68559 L 25.768216,189.625 L 25.768216,187.625 L 23.018216,187.625 L 23.018216,197.875 L 25.768216,197.875 L 25.768216,195.875 L 28.018216,195.875 L 28.010174,215.44608 L 37.643216,215.5 z"
     id="path3280"
     style="fill:#484848;fill-opacity:1;stroke:none;stroke-width:1;stroke-miterlimit:4;stroke-dasharray:none;stroke-opacity:1" />
  <path
     d="M 107.8072,187.625 L 118.6822,187.625 L 118.6822,192.125 L 116.6822,192.125 L 116.6822,190.625 L 112.1822,190.625 L 112.1822,202.125 L 116.6822,202.125 L 116.6822,200.625 L 118.6822,200.625 L 118.6822,205 L 118.84657,213.23958 L 98.182196,213.5 L 95.932196,213.5 L 95.932196,215.5 L 93.182196,215.5 L 93.182196,205.25 L 95.932196,205.25 L 95.932196,207.25 L 98.182196,207.25 L 98.295328,187.61834 L 107.8072,187.625 z"
     id="path3282"
     style="fill:#505050;fill-opacity:1;stroke:none;stroke-width:1;stroke-miterlimit:4;stroke-dasharray:none;stroke-opacity:1" />
  <path
     d="M 27.006062,62.998163 L 47.506062,62.998163 L 47.506062,67.498163 L 45.506062,67.498163 L 45.506062,65.998163 L 41.006062,65.998163 L 41.006062,77.498163 L 45.506062,77.498163 L 45.506062,75.998163 L 47.506062,75.998163 L 47.506062,83.998163 L 45.506062,83.998163 L 45.506062,82.498163 L 41.006062,82.498163 L 41.006062,94.102668 L 45.506062,94.102668 L 45.506062,92.498163 L 47.506062,92.498163 L 47.506062,97.498168 L 27.006062,97.498168 L 27.006062,83.248163 L 24.756062,83.248163 L 24.756062,85.248163 L 22.006062,85.248163 L 22.006062,74.998163 L 24.756062,74.998163 L 24.756062,76.998163 L 27.006062,76.998163 L 27.006062,62.998163 z"
     id="path3288"
     style="fill:#181818;fill-opacity:1;stroke:none;stroke-width:1;stroke-miterlimit:4;stroke-dasharray:none;stroke-opacity:1" />
  <path
     d="M 27.006062,104.49908 L 47.506062,104.49908 L 47.506062,108.99908 L 45.506062,108.99908 L 45.506062,107.49908 L 41.006062,107.49908 L 41.006062,118.99908 L 45.506062,118.99908 L 45.506062,117.49908 L 47.506062,117.49908 L 47.506062,125.49908 L 45.506062,125.49908 L 45.506062,123.99908 L 41.006062,123.99908 L 41.006062,135.60358 L 45.506062,135.60358 L 45.506062,133.99908 L 47.506062,133.99908 L 47.506062,138.99908 L 27.006062,138.99908 L 27.006062,124.74908 L 24.756062,124.74908 L 24.756062,126.74908 L 22.006062,126.74908 L 22.006062,116.49908 L 24.756062,116.49908 L 24.756062,118.49908 L 27.006062,118.49908 L 27.006062,104.49908 z"
     id="path3290"
     style="fill:#282828;fill-opacity:1;stroke:none;stroke-width:1;stroke-miterlimit:4;stroke-dasharray:none;stroke-opacity:1" />
  <path
     d="M 92.357542,62.998163 L 112.98254,62.998163 L 112.98254,67.498163 L 110.85754,67.498163 L 110.85754,65.998163 L 106.35754,65.998163 L 106.35754,77.498163 L 110.85754,77.498163 L 110.85754,75.998163 L 112.98254,75.998163 L 112.98254,79.998163 L 122.48254,79.998163 L 122.48254,83.998163 L 120.48254,83.998163 L 120.48254,82.498163 L 115.98254,82.498163 L 115.98254,94.102668 L 120.48254,94.102668 L 120.48254,92.498163 L 122.48254,92.498163 L 122.48254,97.498168 L 92.357542,97.498168 L 92.357542,83.248163 L 90.107542,83.248163 L 90.107542,85.248163 L 87.357542,85.248163 L 87.357542,74.998163 L 90.107542,74.998163 L 90.107542,76.998163 L 92.357542,76.998163 L 92.357542,62.998163 z"
     id="path3292"
     style="fill:#202020;fill-opacity:1;stroke:none;stroke-width:1;stroke-miterlimit:4;stroke-dasharray:none;stroke-opacity:1" />
  <path
     d="M 22.193562,146 L 42.818562,146 L 42.818562,150.5 L 40.693562,150.5 L 40.693562,149 L 36.193562,149 L 36.193562,160.5 L 40.693562,160.5 L 40.693562,159 L 42.818562,159 L 42.818562,163 L 52.318562,163 L 52.318562,167 L 50.318562,167 L 50.318562,165.5 L 45.818562,165.5 L 45.818562,177.1045 L 50.318562,177.1045 L 50.318562,175.5 L 52.318562,175.5 L 52.318562,180.5 L 22.193562,180.5 L 22.193562,166.25 L 19.943562,166.25 L 19.943562,168.25 L 17.193562,168.25 L 17.193562,158 L 19.943562,158 L 19.943562,160 L 22.193562,160 L 22.193562,146 z"
     id="path3298"
     style="fill:#383838;fill-opacity:1;stroke:none;stroke-width:1;stroke-miterlimit:4;stroke-dasharray:none;stroke-opacity:1" />
  <path
     d="M 91.688511,105 L 112.31351,105 L 112.31351,109.5 L 110.18851,109.5 L 110.18851,108 L 105.68851,108 L 105.68851,119.5 L 110.18851,119.5 L 110.18851,118 L 112.31351,118 L 112.31351,122 L 121.81351,122 L 121.81351,126 L 119.81351,126 L 119.81351,124.5 L 115.31351,124.5 L 115.31351,136.1045 L 119.81351,136.1045 L 119.81351,134.5 L 121.81351,134.5 L 121.81351,139.5 L 91.688511,139.5 L 91.688511,125.25001 L 89.438511,125.25001 L 89.438511,127.25001 L 86.688511,127.25001 L 86.688511,117 L 89.438511,117 L 89.438511,119 L 91.688511,119 L 91.688511,105 z"
     id="path3308"
     style="fill:#303030;fill-opacity:1;stroke:none;stroke-width:1;stroke-miterlimit:4;stroke-dasharray:none;stroke-opacity:1" />
</svg>
