<?xml version="1.0" encoding="UTF-8" standalone="no"?>
<svg
   xmlns:dc="http://purl.org/dc/elements/1.1/"
   xmlns:cc="http://creativecommons.org/ns#"
   xmlns:rdf="http://www.w3.org/1999/02/22-rdf-syntax-ns#"
   xmlns:svg="http://www.w3.org/2000/svg"
   xmlns="http://www.w3.org/2000/svg"
   xmlns:xlink="http://www.w3.org/1999/xlink"
   xmlns:sodipodi="http://sodipodi.sourceforge.net/DTD/sodipodi-0.dtd"
   xmlns:inkscape="http://www.inkscape.org/namespaces/inkscape"
   width="156"
   height="44"
   version="1.0"
   id="svg2995"
   sodipodi:version="0.32"
   inkscape:version="0.46"
   sodipodi:docname="forever.svg"
   inkscape:output_extension="org.inkscape.output.svg.inkscape">
  <metadata
     id="metadata3018">
    <rdf:RDF>
      <cc:Work
         rdf:about="">
        <dc:format>image/svg+xml</dc:format>
        <dc:type
           rdf:resource="http://purl.org/dc/dcmitype/StillImage" />
      </cc:Work>
    </rdf:RDF>
  </metadata>
  <sodipodi:namedview
     inkscape:window-height="767"
     inkscape:window-width="1278"
     inkscape:pageshadow="2"
     inkscape:pageopacity="0.0"
     guidetolerance="10.0"
     gridtolerance="10.0"
     objecttolerance="10.0"
     borderopacity="1.0"
     bordercolor="#666666"
     pagecolor="#ffffff"
     id="base"
     showgrid="false"
     inkscape:zoom="3.4807692"
     inkscape:cx="78"
     inkscape:cy="22"
     inkscape:window-x="0"
     inkscape:window-y="0"
     inkscape:current-layer="svg2995" />
  <defs
     id="defs2997">
    <inkscape:perspective
       sodipodi:type="inkscape:persp3d"
       inkscape:vp_x="0 : 22 : 1"
       inkscape:vp_y="0 : 1000 : 0"
       inkscape:vp_z="156 : 22 : 1"
       inkscape:persp3d-origin="78 : 14.666667 : 1"
       id="perspective3020" />
    <linearGradient
       id="linearGradient3166">
      <stop
         style="stop-color:#ffffff;stop-opacity:1;"
         offset="0"
         id="stop3168" />
      <stop
         style="stop-color:#feb00a;stop-opacity:1;"
         offset="1"
         id="stop3170" />
    </linearGradient>
    <linearGradient
       xlink:href="#linearGradient3166"
       id="linearGradient3172"
       x1="0"
       y1="22"
       x2="74"
       y2="22"
       gradientUnits="userSpaceOnUse" />
  </defs>
  <path
     style="fill:url(#linearGradient3172);fill-opacity:1;stroke:#a97513;stroke-width:2;stroke-opacity:1"
     d="M 48,1 C 64,1 64.093909,1 64.093909,1 C 64.093909,1 66.999128,2.0158072 67.997462,2.8401016 C 68.910724,3.5941544 70.326142,6.0279188 70.326142,6.0279188 L 155,6.5 L 155.07138,18.133011 L 151.56154,18.128966 C 151.56154,18.128966 149.6815,15.956403 148.70907,15.213754 C 147.6487,14.40395 144.8236,13.04981 144.8236,13.04981 L 128.06091,13.315355 L 128.01396,18.088515 L 108.80964,18.166244 L 108.66878,12.891181 L 88.713197,13.250635 C 88.713197,13.250635 85.374202,16.120059 84,17.5 C 82.52486,18.981301 80.5,22.703046 80.5,22.703046 L 80.5,43.116751 L 10.526354,43.203199 C 10.526354,43.203199 5.8299058,41.169544 4.2078237,39.626397 C 2.9212506,38.402433 0.90609137,34.629442 0.90609137,34.629442 L 1,11 C 1,11 3.1025283,6.5458243 4.5,5 C 5.8682021,3.4865526 10,1 10,1 L 26,1 L 26,6 L 48,6 L 48,1 z"
     id="path3003" />
  <path
     style="fill:none;stroke:#ffffff;stroke-width:1;stroke-opacity:1"
     d="M 49,2.5 L 63,2.5"
     id="path3005" />
  <path
     style="fill:none;stroke:#ffffff;stroke-width:1;stroke-opacity:1"
     d="M 11,2.5 L 25,2.5"
     id="path3007" />
  <path
     style="fill:none;stroke:#ffffff;stroke-width:1;stroke-opacity:1"
     d="M 25,7.5 L 49,7.5"
     id="path3009" />
  <path
     style="fill:none;stroke:#ffffff;stroke-width:0.91154099;stroke-opacity:1"
     d="M 70.797356,7.5135155 L 153.56704,7.6019745"
     id="path3011" />
  <text
     style="font-size:12px;text-align:center;text-anchor:middle;font-family:Bitstream Vera Sans"
     id="text3013">
    <tspan
       x="37"
       y="28"
       style="font-size:18px"
       id="tspan3015">всегда</tspan>
  </text>
</svg>
