<?xml version="1.0" encoding="UTF-8" standalone="no"?>
<svg
   xmlns:dc="http://purl.org/dc/elements/1.1/"
   xmlns:cc="http://creativecommons.org/ns#"
   xmlns:rdf="http://www.w3.org/1999/02/22-rdf-syntax-ns#"
   xmlns:svg="http://www.w3.org/2000/svg"
   xmlns="http://www.w3.org/2000/svg"
   xmlns:xlink="http://www.w3.org/1999/xlink"
   xmlns:sodipodi="http://sodipodi.sourceforge.net/DTD/sodipodi-0.dtd"
   xmlns:inkscape="http://www.inkscape.org/namespaces/inkscape"
   width="87"
   height="81"
   version="1.0"
   id="svg2"
   inkscape:version="0.47pre4 r22446"
   sodipodi:docname="fillscreen.svg">
  <metadata
     id="metadata36">
    <rdf:RDF>
      <cc:Work
         rdf:about="">
        <dc:format>image/svg+xml</dc:format>
        <dc:type
           rdf:resource="http://purl.org/dc/dcmitype/StillImage" />
      </cc:Work>
    </rdf:RDF>
  </metadata>
  <sodipodi:namedview
     pagecolor="#ffffff"
     bordercolor="#666666"
     borderopacity="1"
     objecttolerance="10"
     gridtolerance="10"
     guidetolerance="10"
     inkscape:pageopacity="0"
     inkscape:pageshadow="2"
     inkscape:window-width="640"
     inkscape:window-height="483"
     id="namedview34"
     showgrid="false"
     inkscape:zoom="2.9135802"
     inkscape:cx="43.5"
     inkscape:cy="40.5"
     inkscape:window-x="0"
     inkscape:window-y="27"
     inkscape:window-maximized="0"
     inkscape:current-layer="svg2" />
  <defs
     id="defs4">
    <inkscape:perspective
       sodipodi:type="inkscape:persp3d"
       inkscape:vp_x="0 : 40.5 : 1"
       inkscape:vp_y="0 : 1000 : 0"
       inkscape:vp_z="87 : 40.5 : 1"
       inkscape:persp3d-origin="43.5 : 27 : 1"
       id="perspective38" />
    <linearGradient
       id="linearGradient3166">
      <stop
         style="stop-color:#ffffff;stop-opacity:1;"
         offset="0"
         id="stop3168" />
      <stop
         style="stop-color:#00ffff;stop-opacity:1;"
         offset="1"
         id="stop3170" />
    </linearGradient>
    <linearGradient
       xlink:href="#linearGradient3166"
       id="linearGradient3172"
       x1="0"
       y1="22"
       x2="74"
       y2="22"
       gradientUnits="userSpaceOnUse" />
  </defs>
  <path
     style="fill:#00e0e0;fill-opacity:1;stroke:#008080;stroke-width:1.5;stroke-opacity:1"
     d="M 69.75,42.75 L 86.25,42.75 L 86.25,49 L 82.25,49 L 82.25,45.75 L 71.75,45.75"
     id="path10" />
  <path
     style="fill:#00e0e0;fill-opacity:1;stroke:#008080;stroke-width:1.5;stroke-opacity:1"
     d="M 69.75,70.25 L 86.25,70.25 L 86.25,64.249999 L 82.25,64.249999 L 82.25,67.249999 L 71.75,67.249999"
     id="path12" />
  <path
     style="fill:#00e0e0;fill-opacity:1;stroke:#008080;stroke-width:1.5;stroke-opacity:1"
     d="M 70,6 L 86.5,6 L 86.5,12 L 82.5,12 L 82.5,9 L 72,9"
     id="path14" />
  <path
     style="fill:#00e0e0;fill-opacity:1;stroke:#008080;stroke-width:1.5;stroke-opacity:1"
     d="M 70,33.5 L 86.5,33.5 L 86.5,27.5 L 82.5,27.5 L 82.5,30.5 L 72,30.5"
     id="path16" />
  <path
     style="fill:url(#linearGradient3172);fill-opacity:1;stroke:#00a0a0;stroke-width:2;stroke-opacity:1"
     d="M 48,1 C 64,1 64,1 64,1 L 69.5,5 L 73,11 L 73,67 L 69.5,72 L 64,76 L 47,76 L 47,76 L 47,80 L 27,80 L 27,76 L 10,76 L 4.5,72 L 1,67 L 1,11 L 4.5,5 L 10,1 L 26,1 L 26,6 L 48,6 L 48,1 z"
     id="path18" />
  <text
     style="font-size:18px;text-anchor:middle;text-align:center;font-family:Bitstream Vera Sans"
     id="text20">
    <tspan
       x="37"
       y="38"
       style="font-size:16px;"
       id="tspan22">fill</tspan>
    <tspan
       x="37"
       y="54"
       style="font-size:16px;"
       id="tspan24">screen</tspan>
  </text>
  <text
     style="font-size:12px;text-anchor:end;text-align:end;font-family:Bitstream Vera Sans"
     id="text26">
    <tspan
       x="68"
       y="22"
       style="font-size:14px"
       id="tspan28">loko</tspan>
  </text>
  <text
     style="font-size:9.28586102px;text-align:end;text-anchor:end;font-family:Bitstream Vera Sans"
     id="text30"
     x="34.592896"
     transform="scale(0.77382172,1.2922873)">
    <tspan
       x="87.212776"
       y="51.072235"
       style="font-size:10.83350372px"
       id="tspan32">fahamatrohana</tspan>
  </text>
</svg>
