<?xml version="1.0" encoding="UTF-8" standalone="no"?>
<!-- Created with Inkscape (http://www.inkscape.org/) -->
<svg
   xmlns:svg="http://www.w3.org/2000/svg"
   xmlns="http://www.w3.org/2000/svg"
   version="1.0"
   width="145"
   height="404"
   id="svg2">
  <defs
     id="defs15" />
  <rect
     width="143"
     height="404"
     x="1"
     y="0"
     id="rect4"
     style="opacity:1;fill:#ffffff;fill-opacity:1;stroke:none;stroke-width:4;stroke-opacity:1" />
  <rect
     width="145"
     height="29"
     x="0"
     y="0"
     id="rect6"
     style="opacity:1;fill:#080808;fill-opacity:1;stroke:none;stroke-width:1;stroke-opacity:1" />
  <path
     d="M 38.02,44.811717 L 41.3535,44.811717 L 41.3535,47.478517 L 46.0204,47.478517 L 46.0204,44.811717 L 107.02345,44.811717 L 107.02345,58.145717 L 46.0204,58.145717 L 46.0204,55.478917 L 41.3535,55.478917 L 41.3535,58.145717 L 38.02,58.145717 L 38.02,44.811717 z"
     id="path2488"
     style="fill:#101010;fill-opacity:1;stroke:#101010;stroke-width:1;stroke-opacity:1" />
  <path
     d="M 38.019998,71.146685 L 41.353498,71.146685 L 41.353498,73.813485 L 46.020398,73.813485 L 46.020398,71.146685 L 107.02345,71.146685 L 107.02345,84.480685 L 46.020398,84.480685 L 46.020398,81.813885 L 41.353498,81.813885 L 41.353498,84.480685 L 38.019998,84.480685 L 38.019998,71.146685 z"
     id="path100"
     style="fill:#181818;fill-opacity:1;stroke:#181818;stroke-width:1;stroke-opacity:1" />
  <path
     d="M 0.5,374.5 L 0.5,390.5 L 3.5,397.5 L 8.5,401.5 L 15,404 L 129,404 L 136,401.5 L 142,396.5 L 145,388.5 L 145,374.5 L 0.5,374.5 z"
     id="path12"
     style="fill:#080808;fill-opacity:1;stroke:none;stroke-width:1px;stroke-opacity:1" />
</svg>
