<?xml version="1.0" encoding="UTF-8" standalone="no"?>
<!-- Created with Inkscape (http://www.inkscape.org/) -->
<svg
   xmlns:svg="http://www.w3.org/2000/svg"
   xmlns="http://www.w3.org/2000/svg"
   xmlns:xlink="http://www.w3.org/1999/xlink"
   version="1.0"
   width="43.5"
   height="56.5"
   id="svg2">
  <defs
     id="defs5">
    <linearGradient
       x1="0"
       y1="22"
       x2="74"
       y2="22"
       id="linearGradient3172"
       xlink:href="#linearGradient3166"
       gradientUnits="userSpaceOnUse" />
    <linearGradient
       id="linearGradient3166">
      <stop
         id="stop3168"
         style="stop-color:#ffffff;stop-opacity:1"
         offset="0" />
      <stop
         id="stop3170"
         style="stop-color:#ffff00;stop-opacity:1"
         offset="1" />
    </linearGradient>
    <linearGradient
       x1="0"
       y1="22"
       x2="74"
       y2="22"
       id="linearGradient2557"
       xlink:href="#linearGradient3166"
       gradientUnits="userSpaceOnUse"
       gradientTransform="matrix(0.3333,0,0,0.3333,9.2560985,9.9123239)" />
    <linearGradient
       x1="0"
       y1="22"
       x2="74"
       y2="22"
       id="linearGradient2561"
       xlink:href="#linearGradient3166"
       gradientUnits="userSpaceOnUse"
       gradientTransform="matrix(0.3333,0,0,0.3333,8.962951,22.783517)" />
    <linearGradient
       x1="0"
       y1="22"
       x2="74"
       y2="22"
       id="linearGradient2567"
       xlink:href="#linearGradient3166"
       gradientUnits="userSpaceOnUse"
       gradientTransform="matrix(0.3333,0,0,0.3333,9.2560985,9.9123239)" />
    <linearGradient
       x1="0"
       y1="22"
       x2="74"
       y2="22"
       id="linearGradient2569"
       xlink:href="#linearGradient3166"
       gradientUnits="userSpaceOnUse"
       gradientTransform="matrix(0.3333,0,0,0.3333,8.962951,22.783517)" />
    <linearGradient
       x1="0"
       y1="22"
       x2="74"
       y2="22"
       id="linearGradient2428"
       xlink:href="#linearGradient3166"
       gradientUnits="userSpaceOnUse"
       gradientTransform="matrix(0.3333,0,0,0.3333,9.4179,27.352996)" />
    <linearGradient
       x1="0"
       y1="22"
       x2="74"
       y2="22"
       id="linearGradient2431"
       xlink:href="#linearGradient3166"
       gradientUnits="userSpaceOnUse"
       gradientTransform="matrix(0.3333,0,0,0.3333,9.4179005,14.481803)" />
  </defs>
  <path
     d="M 0.75,0.75 L 34.618627,0.75 C 34.618627,0.75 38.364227,1.9821101 39.669608,2.995098 C 40.856507,3.9161424 42.75,6.9480392 42.75,6.9480392 L 42.75,49.222549 C 42.75,49.222549 40.914623,52.48677 40.108824,53.285295 C 38.685367,54.6959 34.838235,55.75 34.838235,55.75 L 0.75,55.75 L 0.75,0.75 z"
     id="path2384"
     style="fill:#ffe000;fill-opacity:1;stroke:#a06400;stroke-width:1.5;stroke-dasharray:none;stroke-opacity:1" />
  <path
     d="M 25.4163,14.815103 C 30.7491,14.815103 30.7491,14.815103 30.7491,14.815103 C 30.7491,14.815103 32.126228,15.643871 32.58225,16.148303 C 33.048027,16.663526 33.7488,18.148103 33.7488,18.148103 L 33.7488,24.480804 C 33.7488,24.480804 33.009857,25.711898 32.58225,26.147304 C 32.105778,26.632465 30.7491,27.480504 30.7491,27.480504 L 25.083,27.480504 L 25.083,27.480504 L 25.083,28.813703 L 18.417,28.813703 L 18.417,27.480504 L 12.7509,27.480504 C 12.7509,27.480504 11.394223,26.632465 10.91775,26.147304 C 10.490143,25.711898 9.7512,24.480804 9.7512,24.480804 L 9.7512,18.148103 C 9.7512,18.148103 10.451973,16.663526 10.91775,16.148303 C 11.373772,15.643871 12.7509,14.815103 12.7509,14.815103 L 18.0837,14.815103 L 18.0837,16.481603 L 25.4163,16.481603 L 25.4163,14.815103 z"
     id="path9"
     style="fill:url(#linearGradient2431);fill-opacity:1;stroke:#c0a000;stroke-width:0.66659999;stroke-opacity:1" />
  <path
     d="M 25.4163,27.686297 C 30.7491,27.686297 30.7491,27.686297 30.7491,27.686297 C 30.7491,27.686297 32.126228,28.515064 32.58225,29.019496 C 33.048027,29.534719 33.7488,31.019296 33.7488,31.019296 L 33.7488,37.351997 C 33.7488,37.351997 33.009857,38.583092 32.58225,39.018496 C 32.105778,39.503658 30.7491,40.351697 30.7491,40.351697 L 25.083,40.351697 L 25.083,40.351697 L 25.083,41.684897 L 18.417,41.684897 L 18.417,40.351697 L 12.7509,40.351697 C 12.7509,40.351697 11.394223,39.503658 10.91775,39.018496 C 10.490143,38.583092 9.7512,37.351997 9.7512,37.351997 L 9.7512,31.019296 C 9.7512,31.019296 10.451973,29.534719 10.91775,29.019496 C 11.373772,28.515064 12.7509,27.686297 12.7509,27.686297 L 18.0837,27.686297 L 18.0837,29.352796 L 25.4163,29.352796 L 25.4163,27.686297 z"
     id="path2559"
     style="fill:url(#linearGradient2428);fill-opacity:1;stroke:#c0a000;stroke-width:0.66659999;stroke-opacity:1" />
</svg>
