<?xml version="1.0" encoding="UTF-8" standalone="no"?>
<!-- Created with Inkscape (http://www.inkscape.org/) -->
<svg
   xmlns:svg="http://www.w3.org/2000/svg"
   xmlns="http://www.w3.org/2000/svg"
   xmlns:xlink="http://www.w3.org/1999/xlink"
   version="1.0"
   width="75"
   height="54"
   id="svg2">
  <defs
     id="defs5">
    <linearGradient
       id="linearGradient3166">
      <stop
         id="stop3168"
         style="stop-color:#ffffff;stop-opacity:1"
         offset="0" />
      <stop
         id="stop3170"
         style="stop-color:#00ff00;stop-opacity:1"
         offset="1" />
    </linearGradient>
    <linearGradient
       x1="0.94254935"
       y1="-31.669659"
       x2="104.37702"
       y2="20.434471"
       id="linearGradient3172"
       xlink:href="#linearGradient3166"
       gradientUnits="userSpaceOnUse"
       gradientTransform="matrix(0.7083638,0,0,1.0012565,0.1338084,32.632067)" />
  </defs>
  <path
     d="M 0.84217214,0.84217214 L 74.157828,0.84217214 L 74.157828,53.157828 L 0.84217214,53.157828 L 0.84217214,0.84217214 z"
     id="path9"
     style="fill:url(#linearGradient3172);fill-opacity:1;fill-rule:nonzero;stroke:none;stroke-width:2;stroke-linecap:butt;stroke-linejoin:miter;stroke-miterlimit:4;stroke-dasharray:none;stroke-opacity:1" />
  <g
     transform="translate(10.8745,-0.5)"
     id="activity-journal"
     style="stroke:#000000;stroke-opacity:1;display:block">
	<path
   d="M 45.866,44.669 C 45.866,47.18 44.338,49 41.534,49 L 12.077,49 L 12.077,6 L 41.535,6 C 43.685,6 45.867,8.154 45.867,10.33 L 45.866,44.669 L 45.866,44.669 z"
   id="path2458"
   style="fill:#ffffff;stroke:#000000;stroke-width:3.5;stroke-linecap:round;stroke-linejoin:round;stroke-opacity:1" />

	
		<line
   id="line2460"
   y2="48.881001"
   y1="6.1209998"
   x2="21.341"
   x1="21.341"
   style="fill:none;stroke:#000000;stroke-width:3.5;stroke-linecap:round;stroke-linejoin:round;stroke-opacity:1" />

	<path
   d="M 7.384,14.464 C 7.384,14.464 9.468,15.159 11.554,15.159 C 13.64,15.159 15.727,14.464 15.727,14.464"
   id="path2462"
   style="fill:none;stroke:#000000;stroke-width:3.5;stroke-linecap:round;stroke-linejoin:round;stroke-opacity:1" />

	<path
   d="M 7.384,28.021 C 7.384,28.021 9.296,28.716 11.729,28.716 C 14.162,28.716 15.728,28.021 15.728,28.021"
   id="path2464"
   style="fill:none;stroke:#000000;stroke-width:3.5;stroke-linecap:round;stroke-linejoin:round;stroke-opacity:1" />

	<path
   d="M 7.384,41.232 C 7.384,41.232 9.12,41.927 11.902,41.927 C 14.683,41.927 15.727,41.232 15.727,41.232"
   id="path2466"
   style="fill:none;stroke:#000000;stroke-width:3.5;stroke-linecap:round;stroke-linejoin:round;stroke-opacity:1" />

</g>
</svg>
