<?xml version="1.0" encoding="UTF-8" standalone="no"?>
<!-- Created with Inkscape (http://www.inkscape.org/) -->

<svg
   xmlns:dc="http://purl.org/dc/elements/1.1/"
   xmlns:cc="http://creativecommons.org/ns#"
   xmlns:rdf="http://www.w3.org/1999/02/22-rdf-syntax-ns#"
   xmlns:svg="http://www.w3.org/2000/svg"
   xmlns="http://www.w3.org/2000/svg"
   version="1.1"
   width="55"
   height="55"
   viewBox="0 0 55 55"
   id="svg2"
   xml:space="preserve"><metadata
     id="metadata15"><rdf:RDF><cc:Work
         rdf:about=""><dc:format>image/svg+xml</dc:format><dc:type
           rdf:resource="http://purl.org/dc/dcmitype/StillImage" /><dc:title></dc:title></cc:Work></rdf:RDF></metadata><defs
     id="defs13" />
<g
     transform="matrix(0.67,0,0,0.67,9.075,9.0749996)"
     id="toolbar_x5F_view"
     style="fill:#ffffff;fill-opacity:1;display:block">
	<g
   id="g5"
   style="fill:#ffffff;fill-opacity:1">
		<path
   d="m 21.937,27.499 c 0,3.07 2.492,5.562 5.562,5.562 3.067,0 5.559,-2.492 5.559,-5.562 0,-3.067 -2.491,-5.564 -5.559,-5.564 -3.07,0 -5.562,2.497 -5.562,5.564 z"
   id="path7"
   style="fill:#ffffff;fill-opacity:1" />
		<path
   d="m 27.499,13.037 c -14.476,0 -26.531,14.432 -26.531,14.432 0,0 12.056,14.504 26.531,14.494 14.474,-0.01 26.533,-14.513 26.533,-14.513 0,0 -12.059,-14.425 -26.533,-14.413 z M 27.5,36.562 c -5.003,0 -9.063,-4.061 -9.063,-9.063 0,-4.998 4.061,-9.066 9.063,-9.066 4.997,0 9.058,4.068 9.058,9.066 0,5.003 -4.061,9.063 -9.058,9.063 z"
   id="path9"
   style="fill:#ffffff;fill-opacity:1" />
	</g>
</g></svg>