<?xml version="1.0" encoding="UTF-8" standalone="no"?>
<!-- Created with Inkscape (http://www.inkscape.org/) -->
<svg
   xmlns:svg="http://www.w3.org/2000/svg"
   xmlns="http://www.w3.org/2000/svg"
   xmlns:xlink="http://www.w3.org/1999/xlink"
   version="1.0"
   width="87"
   height="44"
   id="svg2">
  <defs
     id="defs4">
    <linearGradient
       id="linearGradient3166">
      <stop
         id="stop3168"
         style="stop-color:#ffffff;stop-opacity:1"
         offset="0" />
      <stop
         id="stop3170"
         style="stop-color:#ff0000;stop-opacity:1"
         offset="1" />
    </linearGradient>
    <linearGradient
       x1="0"
       y1="22"
       x2="74"
       y2="22"
       id="linearGradient3172"
       xlink:href="#linearGradient3166"
       gradientUnits="userSpaceOnUse" />
  </defs>
  <path
     d="M 70,6 L 86.5,6 L 86.5,12 L 82.5,12 L 82.5,9 L 72,9"
     id="path10"
     style="fill:#e00000;fill-opacity:1;stroke:#800000;stroke-width:1.5;stroke-opacity:1" />
  <path
     d="M 70,33.5 L 86.5,33.5 L 86.5,27.5 L 82.5,27.5 L 82.5,30.5 L 72,30.5"
     id="path12"
     style="fill:#e00000;fill-opacity:1;stroke:#800000;stroke-width:1.5;stroke-opacity:1" />
  <path
     d="M 48,1 C 64,1 64,1 64,1 C 64,1 68.131798,3.4865526 69.5,5 C 70.897472,6.5458243 73,11 73,11 L 73,30 C 73,30 70.78295,33.693654 69.5,35 C 68.07044,36.455629 64,39 64,39 L 47,39 L 47,39 L 47,43 L 27,43 L 27,39 L 10,39 C 10,39 5.9295605,36.455629 4.5,35 C 3.2170498,33.693654 1,30 1,30 L 1,11 C 1,11 3.1025283,6.5458243 4.5,5 C 5.8682021,3.4865526 10,1 10,1 L 26,1 L 26,6 L 48,6 L 48,1 z"
     id="path14"
     style="fill:url(#linearGradient3172);fill-opacity:1;stroke:#a00000;stroke-width:2;stroke-opacity:1" />
  <path
     d="M 35.034503,11.610295 C 34.052031,11.850121 33.126304,12.245835 32.274322,12.741517 C 32.582232,13.172995 32.77206,13.710161 32.77206,14.279978 C 32.77206,15.739222 31.561272,16.904413 30.102376,16.904413 C 29.521323,16.904413 29.000042,16.725488 28.563915,16.406675 C 28.120925,17.16034 27.761395,17.987605 27.523191,18.850114 C 28.768613,19.062096 29.695137,20.167312 29.695137,21.474548 C 29.695137,22.793701 28.744606,23.859924 27.477942,24.053734 C 27.717652,25.04042 28.109269,25.96328 28.609164,26.813915 C 29.039904,26.507772 29.534456,26.316177 30.102376,26.316177 C 31.561258,26.316177 32.77206,27.525415 32.77206,28.985861 C 32.77206,29.555185 32.580668,30.048333 32.274322,30.479073 C 33.125044,30.97849 34.049888,31.36931 35.034503,31.610295 C 35.228052,30.34282 36.289975,29.347852 37.613689,29.347852 C 38.902565,29.347866 39.963198,30.295341 40.192874,31.519797 C 41.070601,31.278842 41.913779,30.926451 42.681562,30.479073 C 42.375231,30.048072 42.183824,29.509271 42.183824,28.940612 C 42.183824,27.483946 43.351651,26.316177 44.808259,26.316177 C 45.378655,26.316177 45.914995,26.505846 46.34672,26.813915 C 46.845486,25.966885 47.238738,25.03832 47.477942,24.053734 C 46.205645,23.864746 45.215499,22.75449 45.215499,21.4293 C 45.215499,20.136992 46.159513,19.077662 47.387444,18.850114 C 47.145316,17.976992 46.793113,17.170606 46.34672,16.406675 C 45.914995,16.714744 45.378655,16.904413 44.808259,16.904413 C 43.351651,16.904398 42.183824,15.736644 42.183824,14.279978 C 42.183824,13.709567 42.373508,13.173256 42.681562,12.741517 C 41.903933,12.280369 41.088411,11.898729 40.192874,11.655544 C 39.980096,12.899287 38.917739,13.872738 37.613689,13.872738 C 36.293942,13.872724 35.22853,12.87609 35.034503,11.610295 z M 37.477942,18.533372 C 39.169207,18.533357 40.509616,19.917292 40.509616,21.610295 C 40.509602,23.300865 39.169193,24.687218 37.477942,24.687218 C 35.790861,24.687204 34.401019,23.30088 34.401019,21.610295 C 34.401019,19.918118 35.791571,18.533372 37.477942,18.533372 z"
     id="circle2615" />
  <path
     d="M 12.068295,13.315488 C 11.252387,13.913034 10.54856,14.632887 9.9511206,15.416877 C 10.400712,15.697678 10.781655,16.121311 10.999714,16.647753 C 11.558143,17.995919 10.88542,19.535764 9.5375756,20.094059 C 9.0007526,20.316418 8.4506801,20.350599 7.9257468,20.222952 C 7.8048926,21.088773 7.7893108,21.990652 7.8993069,22.878664 C 9.1310488,22.597907 10.409993,23.264428 10.910251,24.472157 C 11.415069,25.690895 10.944918,27.039709 9.8488414,27.703498 C 10.447893,28.523344 11.162863,29.22609 11.95023,29.820672 C 12.231026,29.372996 12.614612,29.006729 13.139302,28.789395 C 14.487133,28.231105 16.068523,28.884941 16.627412,30.234218 C 16.845283,30.760204 16.857179,31.289056 16.738989,31.804242 C 17.716073,31.940086 18.720077,31.947234 19.721964,31.793079 C 19.415738,30.548017 20.016069,29.222406 21.239022,28.715842 C 22.429793,28.222624 23.772273,28.69209 24.453045,29.735447 C 25.17175,29.176942 25.815891,28.528705 26.354025,27.821563 C 25.906076,27.540598 25.523048,27.116059 25.305432,26.590687 C 24.74799,25.244903 25.380036,23.719117 26.725766,23.161697 C 27.252743,22.943416 27.82084,22.913399 28.337595,23.032804 C 28.47425,22.05938 28.482221,21.051007 28.326432,20.049829 C 27.07866,20.362114 25.739008,19.715283 25.23188,18.490968 C 24.737335,17.297031 25.204102,15.957079 26.251484,15.276943 C 25.693657,14.562942 25.059673,13.952721 24.354916,13.417768 C 24.073947,13.8676 23.651017,14.24808 23.12404,14.466361 C 21.778304,15.023767 20.252492,14.391811 19.69505,13.046027 C 19.476763,12.519036 19.446771,11.95096 19.566157,11.434198 C 18.671247,11.305739 17.771756,11.265236 16.851325,11.38327 C 17.130703,12.613765 16.521737,13.919663 15.316952,14.418701 C 14.097659,14.923734 12.731952,14.410679 12.068295,13.315488 z M 16.975086,18.776514 C 18.537605,18.129281 20.30559,18.894918 20.953475,20.459049 C 21.600415,22.020937 20.892573,23.814712 19.33006,24.461926 C 17.771395,25.107531 15.956826,24.358604 15.309867,22.796707 C 14.662299,21.23334 15.417082,19.42186 16.975086,18.776514 z"
     id="path2388" />
  <path
     d="M 50.708729,13.315488 C 49.892821,13.913034 49.188994,14.632887 48.591555,15.416877 C 49.041146,15.697678 49.422089,16.121311 49.640148,16.647753 C 50.198577,17.995919 49.525854,19.535764 48.17801,20.094059 C 47.641187,20.316418 47.091114,20.350599 46.566181,20.222952 C 46.445327,21.088773 46.429745,21.990652 46.539741,22.878664 C 47.771483,22.597907 49.050427,23.264428 49.550685,24.472157 C 50.055503,25.690895 49.585352,27.039709 48.489276,27.703498 C 49.088327,28.523344 49.803297,29.22609 50.590664,29.820672 C 50.87146,29.372996 51.255046,29.006729 51.779736,28.789395 C 53.127567,28.231105 54.708957,28.884941 55.267846,30.234218 C 55.485717,30.760204 55.497613,31.289056 55.379423,31.804242 C 56.356507,31.940086 57.360511,31.947234 58.362398,31.793079 C 58.056172,30.548017 58.656503,29.222406 59.879456,28.715842 C 61.070227,28.222624 62.412707,28.69209 63.093479,29.735447 C 63.812184,29.176942 64.456325,28.528705 64.994459,27.821563 C 64.54651,27.540598 64.163482,27.116059 63.945866,26.590687 C 63.388424,25.244903 64.02047,23.719117 65.3662,23.161697 C 65.893177,22.943416 66.461274,22.913399 66.978029,23.032804 C 67.114684,22.05938 67.122655,21.051007 66.966866,20.049829 C 65.719094,20.362114 64.379442,19.715283 63.872314,18.490968 C 63.377769,17.297031 63.844536,15.957079 64.891918,15.276943 C 64.334091,14.562942 63.700107,13.952721 62.99535,13.417768 C 62.714381,13.8676 62.291451,14.24808 61.764474,14.466361 C 60.418738,15.023767 58.892926,14.391811 58.335484,13.046027 C 58.117197,12.519036 58.087205,11.95096 58.206591,11.434198 C 57.311681,11.305739 56.41219,11.265236 55.491759,11.38327 C 55.771137,12.613765 55.162171,13.919663 53.957386,14.418701 C 52.738093,14.923734 51.372386,14.410679 50.708729,13.315488 z M 55.61552,18.776514 C 57.178039,18.129281 58.946024,18.894918 59.593909,20.459049 C 60.240849,22.020937 59.533007,23.814712 57.970494,24.461926 C 56.411829,25.107531 54.59726,24.358604 53.950301,22.796707 C 53.302733,21.23334 54.057516,19.42186 55.61552,18.776514 z"
     id="path2390" />
</svg>
