<?xml version="1.0" encoding="UTF-8" standalone="no"?>
<svg
   xmlns:dc="http://purl.org/dc/elements/1.1/"
   xmlns:cc="http://creativecommons.org/ns#"
   xmlns:rdf="http://www.w3.org/1999/02/22-rdf-syntax-ns#"
   xmlns:svg="http://www.w3.org/2000/svg"
   xmlns="http://www.w3.org/2000/svg"
   xmlns:xlink="http://www.w3.org/1999/xlink"
   xmlns:sodipodi="http://sodipodi.sourceforge.net/DTD/sodipodi-0.dtd"
   xmlns:inkscape="http://www.inkscape.org/namespaces/inkscape"
   width="87"
   height="81"
   version="1.0"
   id="svg10040"
   sodipodi:version="0.32"
   inkscape:version="0.46"
   sodipodi:docname="fillscreen.svg"
   inkscape:output_extension="org.inkscape.output.svg.inkscape">
  <metadata
     id="metadata10085">
    <rdf:RDF>
      <cc:Work
         rdf:about="">
        <dc:format>image/svg+xml</dc:format>
        <dc:type
           rdf:resource="http://purl.org/dc/dcmitype/StillImage" />
      </cc:Work>
    </rdf:RDF>
  </metadata>
  <sodipodi:namedview
     inkscape:window-height="735"
     inkscape:window-width="1278"
     inkscape:pageshadow="2"
     inkscape:pageopacity="0.0"
     guidetolerance="10.0"
     gridtolerance="10.0"
     objecttolerance="10.0"
     borderopacity="1.0"
     bordercolor="#666666"
     pagecolor="#ffffff"
     id="base"
     showgrid="false"
     inkscape:zoom="5.7037037"
     inkscape:cx="43.5"
     inkscape:cy="40.5"
     inkscape:window-x="0"
     inkscape:window-y="32"
     inkscape:current-layer="svg10040" />
  <defs
     id="defs10042">
    <inkscape:perspective
       sodipodi:type="inkscape:persp3d"
       inkscape:vp_x="0 : 40.5 : 1"
       inkscape:vp_y="0 : 1000 : 0"
       inkscape:vp_z="87 : 40.5 : 1"
       inkscape:persp3d-origin="43.5 : 27 : 1"
       id="perspective10087" />
    <linearGradient
       id="linearGradient3166">
      <stop
         style="stop-color:#ffffff;stop-opacity:1;"
         offset="0"
         id="stop3168" />
      <stop
         style="stop-color:#00ffff;stop-opacity:1;"
         offset="1"
         id="stop3170" />
    </linearGradient>
    <linearGradient
       xlink:href="#linearGradient3166"
       id="linearGradient3172"
       x1="0"
       y1="22"
       x2="74"
       y2="22"
       gradientUnits="userSpaceOnUse" />
  </defs>
  <path
     style="fill:#00e0e0;fill-opacity:1;stroke:#008080;stroke-width:1.5;stroke-opacity:1"
     d="M 69.75,42.75 L 86.25,42.75 L 86.25,49 L 82.25,49 L 82.25,45.75 L 71.75,45.75"
     id="path10048" />
  <path
     style="fill:#00e0e0;fill-opacity:1;stroke:#008080;stroke-width:1.5;stroke-opacity:1"
     d="M 69.75,70.25 L 86.25,70.25 L 86.25,64.249999 L 82.25,64.249999 L 82.25,67.249999 L 71.75,67.249999"
     id="path10050" />
  <path
     style="fill:#00e0e0;fill-opacity:1;stroke:#008080;stroke-width:1.5;stroke-opacity:1"
     d="M 70,6 L 86.5,6 L 86.5,12 L 82.5,12 L 82.5,9 L 72,9"
     id="path10052" />
  <path
     style="fill:#00e0e0;fill-opacity:1;stroke:#008080;stroke-width:1.5;stroke-opacity:1"
     d="M 70,33.5 L 86.5,33.5 L 86.5,27.5 L 82.5,27.5 L 82.5,30.5 L 72,30.5"
     id="path10054" />
  <path
     style="fill:url(#linearGradient3172);fill-opacity:1;stroke:#00a0a0;stroke-width:2;stroke-opacity:1"
     d="M 48,1 C 64,1 64,1 64,1 L 69.5,5 L 73,11 L 73,67 L 69.5,72 L 64,76 L 47,76 L 47,76 L 47,80 L 27,80 L 27,76 L 10,76 L 4.5,72 L 1,67 L 1,11 L 4.5,5 L 10,1 L 26,1 L 26,6 L 48,6 L 48,1 z"
     id="path10056" />
  <path
     style="fill:none;stroke:#ffffff;stroke-width:1;stroke-opacity:1"
     d="M 49,2.5 L 63,2.5"
     id="path10058" />
  <path
     style="fill:none;stroke:#ffffff;stroke-width:1;stroke-opacity:1"
     d="M 11,2.5 L 25,2.5"
     id="path10060" />
  <path
     style="fill:none;stroke:#006060;stroke-width:1;stroke-opacity:1"
     d="M 10.5,76.5 L 26.5,76.5"
     id="path10062" />
  <path
     style="fill:none;stroke:#006060;stroke-width:1;stroke-opacity:1"
     d="M 47.5,76.5 L 63.5,76.5"
     id="path10064" />
  <path
     style="fill:none;stroke:#ffffff;stroke-width:1;stroke-opacity:1"
     d="M 25,7.5 L 49,7.5"
     id="path10066" />
  <path
     style="fill:none;stroke:#006060;stroke-width:1;stroke-opacity:1"
     d="M 26.5,80 L 47,80"
     id="path10068" />
  <text
     style="font-size:18px;text-align:center;text-anchor:middle;font-family:Bitstream Vera Sans"
     id="text10070"
     y="-0.87662339">
    <tspan
       x="37"
       y="37.123375"
       style="font-size:18px"
       id="tspan10072">залить</tspan>
  </text>
  <text
     style="font-size:18px;text-align:center;text-anchor:middle;font-family:Bitstream Vera Sans"
     id="text10091"
     x="0.35064936"
     y="13.149351">
    <tspan
       x="37.350651"
       y="51.149345"
       style="font-size:18px"
       id="tspan10093">экран</tspan>
  </text>
  <text
     style="font-size:12px;text-align:end;text-anchor:end;font-family:Bitstream Vera Sans"
     id="text10076">
    <tspan
       x="68"
       y="22"
       style="font-size:14px"
       id="tspan10078">цвет</tspan>
  </text>
  <text
     style="font-size:12px;text-align:end;text-anchor:end;font-family:Bitstream Vera Sans"
     id="text10080">
    <tspan
       x="68"
       y="66"
       style="font-size:14px"
       id="tspan10082">оттенок</tspan>
  </text>
</svg>
