<?xml version="1.0" ?><!DOCTYPE svg  PUBLIC '-//W3C//DTD SVG 1.1//EN'  'http://www.w3.org/Graphics/SVG/1.1/DTD/svg11.dtd' [
	<!ENTITY stroke_color "#000">
	<!ENTITY fill_color "#eee">
]><svg height="55px" viewBox="0 0 55 55" width="55px" xmlns="http://www.w3.org/2000/svg" xmlns:xlink="http://www.w3.org/1999/xlink" stroke-linecap="round" stroke-linejoin="round" stroke-width="3.5" stroke="&stroke_color;" fill="&fill_color;">
  <path
     d="m 19.187121,35.652695 c -0.365383,0 -0.726141,-0.02313 -1.081613,-0.06607 l 0.917092,1.552052 0.903877,-1.528266 c -0.245131,0.01982 -0.4896,0.04229 -0.739356,0.04229 z"
     id="path6"
     style="fill:&fill_color;;fill-opacity:1;stroke:&stroke_color;;stroke-width:2;stroke-miterlimit:4;stroke-opacity:1;stroke-dasharray:none" />
  <g
     transform="matrix(0.66072892,0,0,0.66072892,1.0190581,3.7533632)"
     id="g8"
     style="fill:&fill_color;;fill-opacity:1;stroke:&stroke_color;;stroke-width:3.0269599;stroke-miterlimit:4;stroke-opacity:1;stroke-dasharray:none">
    <path
       d="m 40.16,11.726 c -2.164,0 -3.958,1.555 -4.343,3.607 1.859,1.345 3.457,3.115 4.675,5.208 2.285,-0.172 4.094,-2.061 4.094,-4.39 0,-2.444 -1.982,-4.425 -4.426,-4.425 z"
       id="path10"
       style="fill:&fill_color;;fill-opacity:1;stroke:&stroke_color;;stroke-width:3.0269599;stroke-miterlimit:4;stroke-opacity:1;stroke-dasharray:none" />
    <path
       d="m 40.713,39.887 c -1.224,2.232 -2.86,4.131 -4.797,5.556 0.521,1.864 2.213,3.239 4.244,3.239 2.443,0 4.426,-1.98 4.426,-4.424 0,-2.255 -1.693,-4.096 -3.873,-4.371 z"
       id="path12"
       style="fill:&fill_color;;fill-opacity:1;stroke:&stroke_color;;stroke-width:3.0269599;stroke-miterlimit:4;stroke-opacity:1;stroke-dasharray:none" />
    <path
       d="m 14.273,39.871 c -2.253,0.206 -4.024,2.079 -4.024,4.387 0,2.443 1.98,4.424 4.424,4.424 2.064,0 3.784,-1.42 4.272,-3.332 -1.883,-1.416 -3.475,-3.289 -4.672,-5.479 z"
       id="path14"
       style="fill:&fill_color;;fill-opacity:1;stroke:&stroke_color;;stroke-width:3.0269599;stroke-miterlimit:4;stroke-opacity:1;stroke-dasharray:none" />
    <path
       d="m 19.026,15.437 c -0.343,-2.103 -2.154,-3.711 -4.353,-3.711 -2.444,0 -4.424,1.981 -4.424,4.424 0,2.382 1.886,4.31 4.245,4.406 1.186,-2.043 2.732,-3.784 4.532,-5.119 z"
       id="path16"
       style="fill:&fill_color;;fill-opacity:1;stroke:&stroke_color;;stroke-width:3.0269599;stroke-miterlimit:4;stroke-opacity:1;stroke-dasharray:none" />
  </g>
  <path
     d="m 19.187121,12.054101 c 1.260671,0 2.463198,0.271559 3.57983,0.745302 0.4896,-0.710944 0.778338,-1.570553 0.778338,-2.499538 0,-2.4361072 -1.974919,-4.4116867 -4.411687,-4.4116867 -2.436107,0 -4.411026,1.9755795 -4.411026,4.4116867 0,0.943521 0.298649,1.816344 0.803446,2.533235 1.139097,-0.494886 2.370035,-0.778999 3.661099,-0.778999 z"
     id="path18"
     style="fill:&fill_color;;fill-opacity:1;stroke:&stroke_color;;stroke-width:2;stroke-miterlimit:4;stroke-opacity:1;stroke-dasharray:none" />
  <g
     transform="matrix(0.66072892,0,0,0.66072892,1.0190581,3.7533632)"
     id="g20"
     style="fill:&fill_color;;fill-opacity:1;stroke:&stroke_color;;stroke-width:3.0269599;stroke-miterlimit:4;stroke-opacity:1;stroke-dasharray:none">
    <path
       d="m 43.102,30.421 c 0,4.7344 -1.6452,9.2798 -4.5706,12.6275 -2.9254,3.3478 -6.8973,5.2305 -11.0344,5.2305 -4.1371,0 -8.109,-1.8827 -11.0344,-5.2305 -2.9254,-3.3477 -4.5706,-7.8931 -4.5706,-12.6275 0,-9.7966 7.0444,-17.858 15.605,-17.858 8.5606,0 15.605,8.0614 15.605,17.858 z"
       id="path22"
       style="fill:&fill_color;;fill-opacity:1;stroke:&stroke_color;;stroke-width:3.0269599;stroke-miterlimit:4;stroke-opacity:1;stroke-dasharray:none" />
  </g>
  <g
     transform="matrix(0.66072892,0,0,0.66072892,1.0190581,3.7533632)"
     id="g24"
     style="fill:&stroke_color;;fill-opacity:1;stroke:none">
    <path
       d="m 25.875,33.75 -1.542,-4.625 3.164,-2.587 3.615,2.626 -1.487,4.669 z"
       id="path26"
       style="fill:&stroke_color;;fill-opacity:1;stroke:none" />
    <path
       d="m 27.501,41.551 c -3.968,-0.16 -5.543,-2.009 -5.543,-2.009 l 3.57,-4.163 4.465,0.168 3.132,4.12 c 0,0 -2.89,1.994 -5.624,1.884 z"
       id="path28"
       style="fill:&stroke_color;;fill-opacity:1;stroke:none" />
    <path
       d="m 18.453,33.843 c -0.849,-2.968 0.172,-6.884 0.172,-6.884 l 4,2.167 1.493,4.629 -3.582,4.233 c 0,-10e-4 -1.465,-1.99 -2.083,-4.145 z"
       id="path30"
       style="fill:&stroke_color;;fill-opacity:1;stroke:none" />
    <path
       d="m 19.458,25.125 c 0,0 0.5,-1.958 3.039,-3.822 2.237,-1.643 4.465,-1.72 4.465,-1.72 l -0.037,4.981 -3.521,2.75 -3.946,-2.189 z"
       id="path32"
       style="fill:&stroke_color;;fill-opacity:1;stroke:none" />
    <path
       d="M 32.084,27.834 28.625,24.959 29,19.75 c 0,0 1.834,-0.042 3.959,1.667 2.228,1.791 3.362,4.983 3.362,4.983 l -4.237,1.434 z"
       id="path34"
       style="fill:&stroke_color;;fill-opacity:1;stroke:none" />
    <path
       d="m 31.292,34.042 1.313,-4.464 4.187,-1.536 c 0,0 0.677,2.663 -0.042,5.667 -0.54,2.256 -2.084,4.361 -2.084,4.361 l -3.374,-4.028 z"
       id="path36"
       style="fill:&stroke_color;;fill-opacity:1;stroke:none" />
  </g>
  <g
     transform="matrix(0.73880544,0,0,0.73880544,10.853805,21.247348)"
     id="g3099"
     style="fill:&fill_color;;fill-opacity:1;stroke:&stroke_color;;stroke-width:2.70707273;stroke-miterlimit:4;stroke-opacity:1;stroke-dasharray:none">
    <g
       transform="matrix(0.15517161,0,0,0.15517161,0.5476181,0.67353225)"
       id="g3793"
       style="fill:&fill_color;;fill-opacity:1;stroke:&stroke_color;;stroke-width:17.44566917;stroke-miterlimit:4;stroke-opacity:1;stroke-dasharray:none">
      <path
         d="m 12.492955,169.42623 c 25.131531,-12.0997 90.578215,-9.41548 121.769345,-10.65574 35.7774,-1.42262 74.27633,-1.53204 103.45863,-22.27907 17.47887,-12.42653 49.56887,-47.453631 57.49199,-77.033651 3.98997,-14.896083 -1.62928,-24.252959 -5.37685,-39.211867 -5.14351,-20.53101132 20.52399,-19.25153267 30.09941,-16.540888 8.60686,2.4364619 -3.58452,20.898015 -2.70683,25.445215 2.97854,15.431491 2.48825,29.169798 6.70578,35.849771 3.88508,6.153427 15.28106,6.64746 17.70444,15.622279 9.55187,35.374641 -10.40811,80.200091 -30.90164,110.574731 -21.02806,31.16688 -78.24059,55.29145 -123.55758,63.16279 C 168.60762,257.58566 60.238798,247.85106 39.426229,234.42623 31.67892,229.42895 18.578606,212.81151 10.196434,203.16326 1.9604627,193.6833 1.1781426,174.8738 12.492955,169.42623 z"
         id="path2987"
         style="fill:&fill_color;;fill-opacity:1;stroke:&stroke_color;;stroke-width:17.44566917;stroke-miterlimit:4;stroke-opacity:1;stroke-dasharray:none" />
      <path
         d="m 289.21856,18.560959 c 1.40774,3.272105 11.33615,0.540011 14.74048,-0.508292 5.88758,-1.812975 16.98934,-3.62167 15.75708,-9.6575619 -0.92505,-4.5311003 -13.89293,-5.472511 -18.29853,-4.0663417 -5.59369,1.7853818 -14.51954,8.8384826 -12.19903,14.2321956 z"
         id="path3759"
         style="fill:&fill_color;;fill-opacity:1;stroke:&stroke_color;;stroke-width:17.44566917;stroke-miterlimit:4;stroke-opacity:1;stroke-dasharray:none" />
      <path
         d="m 14.232196,183.2478 c -0.550401,4.44234 -2.357001,13.09359 -6.6078052,11.69073 -7.8629093,-2.59494 -5.2085859,-24.05314 3.0497562,-24.65219 4.468577,-0.32415 4.108942,8.51514 3.558049,12.96146 z"
         id="path3757"
         style="fill:&fill_color;;fill-opacity:1;stroke:&stroke_color;;stroke-width:17.44566917;stroke-miterlimit:4;stroke-opacity:1;stroke-dasharray:none" />
      <path
         d="m 12.492955,169.42623 c 25.131531,-12.0997 90.578215,-9.41548 121.769345,-10.65574 35.7774,-1.42262 74.27633,-1.53204 103.45863,-22.27907 17.47887,-12.42653 49.56887,-47.453629 57.49199,-77.033649 3.98997,-14.89608 -1.62928,-24.25296 -5.37685,-39.21187 -5.14351,-20.53100972 20.52399,-19.25152972 30.09941,-16.5408897 8.60686,2.43647 -3.58452,20.8980197 -2.70683,25.4452197 2.97854,15.43149 2.48825,29.1698 6.70578,35.84977 3.88508,6.15343 15.28106,6.64746 17.70444,15.62228 9.55187,35.374639 -10.40811,80.200089 -30.90164,110.574729 -21.02806,31.16688 -78.24059,55.29145 -123.55758,63.16279 C 168.60762,257.58566 60.238798,247.85106 39.426229,234.42623 31.67892,229.42895 18.578606,212.81151 10.196434,203.16326 1.9604625,193.6833 1.1781425,174.8738 12.492955,169.42623 z"
         id="path2987-2"
         style="fill:&fill_color;;fill-opacity:1;stroke:&stroke_color;;stroke-width:17.44566917;stroke-miterlimit:4;stroke-opacity:1;stroke-dasharray:none" />
    </g>
  </g>
</svg>
