<?xml version="1.0" encoding="utf-8"?>
<!-- Generator: Adobe Illustrator 12.0.0, SVG Export Plug-In . SVG Version: 6.00 Build 51448)  -->
<!DOCTYPE svg PUBLIC "-//W3C//DTD SVG 1.1//EN" "http://www.w3.org/Graphics/SVG/1.1/DTD/svg11.dtd" [
	<!ENTITY ns_svg "http://www.w3.org/2000/svg">
	<!ENTITY ns_xlink "http://www.w3.org/1999/xlink">
	<!ENTITY stroke_color "#000000">
	<!ENTITY fill_color "#FFFFFF">	
]>
<svg  version="1.1" id="Layer_2" xmlns="&ns_svg;" xmlns:xlink="&ns_xlink;" width="47.585" height="49.326"
	 viewBox="0 0 47.585 49.326" overflow="visible" enable-background="new 0 0 47.585 49.326" xml:space="preserve">
<path fill="&fill_color;" stroke="&stroke_color;" stroke-width="3" d="M23.979,46.828c0.059,0,0.514,0.025,0.573,0.025
	c1.807-0.056,0.16-0.952,1.697-1.369c0.63-0.172,1.534,0.273,2.629-0.328c1.012-0.557,1.248-1.217,1.74-1.64
	c1.599-1.372,3.851,1.236,6.09,2.789c3.119,2.164,6.976,2.102,7.775-0.164c0.656-1.861-0.404-3.754-2.565-4.732
	c-2.901-1.313-5.649-0.688-6.142-3.098c-0.275-1.344,1.524-3.023,2.178-4.149c0.95-1.64,1.235-2.564,1.217-4.448
	c-0.03-2.845-2.534-4.193-1.698-7.117c0.658-2.296,3.829-2.752,5.831-3.765c3.447-1.746,3.321-5.09,1.914-6.708
	c-1.551-1.784-4.449-2.597-6.885,0.47c-0.882,1.111-1.532,2.501-2.521,3.271c-1.055,0.819-3.176,1.803-4.498,1.84
	c-2.063,0.057-4.414-0.174-3.477-2.863c0.799-2.29,4.771-2.112,4.907-7.088c0.108-3.951-3.187-5.627-5.403-6.089
	C26.26,1.44,25.205,1.484,23.74,1.44h0.106c-1.465,0.044-2.521,0-3.602,0.225c-2.215,0.461-5.511,2.138-5.403,6.089
	c0.136,4.976,4.109,4.798,4.907,7.088c0.938,2.688-1.414,2.92-3.476,2.863c-1.323-0.038-3.443-1.021-4.498-1.84
	c-0.989-0.771-1.64-2.161-2.522-3.271c-2.436-3.067-5.333-2.254-6.885-0.47c-1.407,1.618-1.534,4.962,1.914,6.708
	c2.003,1.013,5.173,1.469,5.83,3.765c0.837,2.924-1.667,4.272-1.697,7.117c-0.018,1.884,0.267,2.809,1.217,4.448
	c0.654,1.126,2.452,2.806,2.178,4.149c-0.493,2.409-3.241,1.784-6.142,3.098c-2.162,0.979-3.221,2.871-2.564,4.732
	c0.799,2.266,4.655,2.328,7.775,0.164c2.238-1.553,4.49-4.161,6.088-2.789c0.493,0.423,0.73,1.083,1.742,1.64
	c1.095,0.602,1.999,0.156,2.628,0.328c1.536,0.417-0.11,1.313,1.697,1.369c0.059,0,0.515-0.025,0.574-0.025H23.979z"/>
<circle fill="&stroke_color;" cx="20.667" cy="5.899" r="1.927"/>
<circle fill="&stroke_color;" cx="27.322" cy="5.899" r="1.926"/>
</svg>
