<?xml version="1.0" ?><!DOCTYPE svg  PUBLIC '-//W3C//DTD SVG 1.1//EN'  'http://www.w3.org/Graphics/SVG/1.1/DTD/svg11.dtd' [
	<!ENTITY stroke_color "#000">
	<!ENTITY fill_color "#eee">
]><svg height="55px" viewBox="0 0 55 55" width="55px" xmlns="http://www.w3.org/2000/svg" xmlns:xlink="http://www.w3.org/1999/xlink" stroke-linecap="round" stroke-linejoin="round" stroke-width="3.5" stroke="&stroke_color;" fill="&fill_color;">
  <path
     d="m 20.055766,7.9904897 c -0.589963,-0.7391232 0.563011,-1.8737112 1.204168,-2.568892 0.877589,-0.9515346 2.139095,-1.5312742 3.371671,-1.9266695 1.255021,-0.4025956 2.624426,-0.5536453 3.933616,-0.4013893 0.731317,0.08505 1.406925,0.4409904 2.087225,0.7225011 0.906806,0.3752389 2.765015,0.3099304 2.64917,1.2844459 -0.533454,4.4875568 -10.426653,6.4219821 -13.24585,2.8900038 z"
     id="path3133"
     style="stroke-width:1.5;stroke-miterlimit:4;stroke-dasharray:none" />
  <path
     d="m 26.698771,24.522038 c 0,0 -13.81744,7.249153 -20.9317784,6.427424 C 5.330154,30.899006 0.08688984,28.922354 0.19890025,25.492497 0.36850969,20.298892 7.0418028,14.597682 7.3880895,14.347495 10.042523,12.429706 22.529387,5.5716973 27.206352,5.59207 30.225044,4.8302761 40.198343,3.575078 47.690113,4.6882948 c 0.259393,0.038544 8.060326,0.8627077 6.944629,6.0773672 -0.936708,4.37808 -16.929681,9.391353 -16.679723,9.813746 -8.063562,2.332133 -4.416265,1.509305 -11.248115,3.932822"
     id="path2997"
     style="stroke-width:1.5;stroke-miterlimit:4;stroke-dasharray:none" />
  <path
     d="m 35.632105,20.995084 -0.09226,0.530486"
     id="path3834"
     style="fill:none;stroke-width:1.5;stroke-miterlimit:4;stroke-dasharray:none" />
  <path
     d="m 37.569537,20.67218 0.230646,0.29984"
     id="path3836"
     style="fill:none;stroke-width:1.5;stroke-miterlimit:4;stroke-dasharray:none" />
  <path
     d="m 42.292739,9.0341027 c 0,0 4.003678,-0.0018 5.860286,0.642223 0.715519,0.248186 2.117156,0.6568863 2.809726,0.9633343 1.459416,0.645762 2.408336,1.92667 2.408336,1.92667 l -1.043612,1.525279"
     id="path3903"
     style="fill:none;stroke-width:1.5;stroke-miterlimit:4;stroke-dasharray:none" />
  <path
     d="m 0.62851677,25.651624 c 0,0 1.00845953,0.534874 1.36472603,0.240834 1.2797223,-1.056199 -0.099819,-3.036553 0.080278,-4.977229 0.5747848,-0.118528 0.2446184,1.264896 0.7225017,1.605558 0.2406743,0.171566 0.645252,0.2558 0.883057,0.08028 1.1443303,-0.844619 0.4178947,-2.437045 0.8830569,-4.17445 0.5035012,-0.16916 0.6738392,1.013935 1.2041673,1.043612 0.518761,0.02903 0.9892142,-0.455513 1.284445,-0.883056 0.7670686,-1.110846 0.5887218,-2.710368 0.9633345,-3.933617 0.8191621,-0.109982 0.4009264,1.972768 1.2041708,2.167503 0.3750639,0.09093 0.7176138,-0.344629 0.963334,-0.642223 0.923965,-1.119024 0.927469,-2.750991 1.685833,-4.013894 1.033054,-0.280169 1.498519,1.926669 2.568893,1.926669 0.401388,0 0.685647,-0.432669 0.963334,-0.722501 1.211832,-1.264824 2.181956,-2.972292 2.970281,-4.3350063 0.71252,8.27e-4 0.626479,1.3490243 1.204168,1.7661143 0.631783,0.456147 0.796369,0.998007 1.525281,0.722501 1.902522,-0.719092 2.181243,-3.5355603 4.013894,-5.2180626 1.090748,0.2214773 -0.307294,2.5962643 0.561946,3.2913933 0.397623,0.317978 1.054521,0.113626 1.525281,-0.08028 1.857508,-0.765099 2.891654,-3.4445665 4.495559,-4.0138945 0.884952,0.3815647 -0.596992,2.2044143 0.08028,2.8900045 0.470522,0.476301 1.363317,0.264656 2.006946,0.08028 2.147658,-0.615232 3.029071,-2.9454862 5.539175,-3.7730601 0.832864,0.6242879 -1.376958,2.015131 -0.963335,2.9702817 0.19979,0.4613604 0.863416,0.6804284 1.364725,0.6422234 1.864874,-0.142124 3.152106,-2.2356018 4.656117,-3.1308379 0.74201,0.5484674 -1.244446,1.8390315 -0.802778,2.6491699 0.279745,0.513131 1.105636,0.551877 1.685835,0.481668 1.713424,-0.207339 2.521248,-1.8990942 4.495562,-2.5688926 0.743291,0.9107765 -2.553643,1.495434 -2.328059,2.6491706 0.05741,0.293618 0.503653,0.406978 0.802779,0.401389 1.281153,-0.02394 3.06304,-1.823282 3.933616,-2.2477808 0.499219,0.5391571 -1.947529,1.5357428 -1.766113,2.2477808 0.09755,0.382865 0.656037,0.485222 1.043612,0.561945 0.76531,0.151498 2.018533,-0.462079 2.970283,-0.401389 0.260484,0.34502 -1.292177,0.966514 -1.123891,1.3647243 0.191508,0.453159 1.364724,0.561945 1.364724,0.561945"
     id="path3905"
     style="fill:none;stroke:#ffffff;stroke-width:1.5;stroke-linecap:butt;stroke-linejoin:miter;stroke-miterlimit:4;stroke-opacity:1;stroke-dasharray:none" />
  <path
     d="m 33.635141,16.371407 a 5.1347766,2.2611859 0 1 1 -10.269553,0 5.1347766,2.2611859 0 1 1 10.269553,0 z"
     transform="matrix(1.1879523,-0.33293508,0.40003553,0.98868962,-11.623203,11.464044)"
     id="path3782"
     style="stroke-width:1.31170714;stroke-miterlimit:4;stroke-dasharray:none" />
  <path
     d="m 35.934846,53.211171 c -1.20847,-2.961977 -2.27939,-5.899588 -4.77238,-7.904251 -1.98601,-1.596987 -4.61018,-2.666028 -7.15857,-2.684463 -5.228224,-0.03782 -10.343506,2.50326 -14.7645409,5.294357 -35.9089531,22.029704 33.6166859,15.122759 26.6954909,5.294357 z"
     id="path2987"
     style="stroke-width:1.5;stroke-miterlimit:4;stroke-dasharray:none" />
  <path
     d="m 46.695947,13.916986 c -2.013172,0.18467 -1.631216,-0.386895 -3.028631,0.542689 -0.855785,0.569286 -2.848678,1.978507 -3.634352,3.459642 -0.45464,0.85706 -0.0305,2.016726 -0.483739,2.874554 -0.05551,0.104998 -0.241581,0.127917 -0.2566,0.245905 -0.194809,1.531053 1.215179,2.985349 2.422911,3.934494 1.337232,1.050925 3.167067,1.801254 4.845802,1.560231 1.472247,-0.211378 2.898662,-1.248346 3.701657,-2.509936 0.675127,-1.06069 0.733641,-2.477396 0.605729,-3.730985 -0.159844,-1.566484 -0.753805,-3.143057 -1.682572,-4.409346 -0.626949,-0.854789 -1.469051,-2.060918 -2.490205,-1.967248 z"
     id="path3916"
     style="fill:#ffffff;fill-opacity:1;stroke-width:1.35920095;stroke-miterlimit:4;stroke-dasharray:none" />
  <path
     d="m 35.189156,51.346961 c 0,0 2.96301,-3.351723 3.20645,-5.443494 0.30082,-2.584861 -3.15247,-4.99412 -2.31163,-7.45684 0.46123,-1.350876 2.61441,-1.344989 3.50472,-2.460758 0.737,-0.92364 0.63,-2.813133 1.34223,-3.28101 0.7264,-0.477185 4.74911,0.845628 4.54867,-0.149136 0.64357,-1.971919 0.30181,-4.637269 -0.67111,-6.636588 -0.7846,-1.612321 -2.32444,-2.832316 -3.87756,-3.728421 -1.16518,-0.672278 -2.66136,-0.543642 -3.87756,-1.118526 -2.18164,-1.031242 -3.64478,-3.439883 -5.96547,-4.101262 -2.03411,-0.579707 -4.5444,-0.822237 -6.33831,0.298274 -2.76434,1.726655 -3.40017,5.585541 -4.697813,8.575366 -0.791753,1.824237 -1.935697,3.679838 -1.86421,5.667199 0.05409,1.503799 0.738418,3.031068 1.715074,4.175831 1.115018,1.306941 2.795739,2.068664 4.399539,2.684462 0.75548,0.290077 1.66768,0.07506 2.38619,0.447411 1.07685,0.558061 2.20797,1.390988 2.60989,2.535325 0.26563,0.756294 -0.52092,1.616144 -0.29827,2.386189 0.94674,3.274435 6.48745,7.904251 6.48745,7.904251"
     id="path3782-7"
     style="stroke-width:1.5;stroke-miterlimit:4;stroke-dasharray:none" />
  <path
     d="m 31.982716,44.412099 c -4.18876,-5.518062 -4.27554,-5.012349 -4.27554,-5.012349"
     id="path3786"
     style="fill:none;stroke-width:1.5;stroke-miterlimit:4;stroke-dasharray:none" />
  <path
     d="m 33.548066,42.134224 c -3.4076,-1.35601 -1.66045,-0.636877 -6.02968,-2.87059"
     id="path3788"
     style="fill:none;stroke-width:1.5;stroke-miterlimit:4;stroke-dasharray:none" />
  <path
     d="m 23.929326,31.73547 c 0,0 2.19636,-2.387067 1.93878,-2.087915 -0.14423,0.167516 -0.80063,0.665721 -0.59654,1.043957 0.43053,0.797912 1.284,1.586631 2.38618,2.311621 0.8181,0.538126 1.70852,1.113084 2.68447,1.193095 1.86868,0.153199 3.58684,-1.155517 5.44349,-1.4168 0.98485,-0.138596 1.98819,-0.07871 2.98274,-0.07457 0.74609,0.0031 1.49106,0.06214 2.23705,0.07457 1.24263,0.0207 3.72842,0 3.72842,0"
     id="path3784"
     style="fill:none;stroke-width:1.5;stroke-miterlimit:4;stroke-dasharray:none" />
  <path
     d="m 36.978796,19.729957 c 0.32406,-0.332581 0.88004,-0.417513 1.34224,-0.372842 0.71919,0.06951 1.48666,0.405777 1.93877,0.969389 0.19239,0.239827 0.43306,0.669653 0.22371,0.894821 -0.39511,0.424973 -1.13489,-0.288083 -1.71507,-0.298273 -0.72754,-0.01278 -1.45275,0.317822 -2.16249,0.298273 -0.51223,-0.01411 0.0152,-1.124357 0.37285,-1.491368 z"
     id="path3914"
     style="stroke-width:1.5;stroke-miterlimit:4;stroke-dasharray:none" />
  <path
     d="m 23.407356,20.401073 c 0.33487,-1.543182 0.97726,-3.22374 2.23705,-4.175831 1.29913,-0.981821 3.16383,-1.297537 4.77238,-1.043958 1.3644,0.215091 2.62138,1.092788 3.57928,2.087916 0.58608,0.608861 1.06731,1.401356 1.19309,2.237052 0.23362,1.552198 0.0217,3.348956 -0.89482,4.623241 -1.26738,1.762012 -3.52583,2.852179 -5.6672,3.206441 -0.92344,0.152772 -1.91185,-0.124016 -2.75903,-0.521979 -0.84687,-0.397822 -1.73711,-0.95626 -2.16248,-1.789641 -0.70206,-1.375474 -0.62577,-3.114083 -0.29827,-4.623241 z"
     id="path3860"
     style="fill:#ffffff;fill-opacity:1;stroke-width:1.5;stroke-miterlimit:4;stroke-dasharray:none" />
  <path
     d="m 28.999986,22.777894 a 0.820255,1.2770366 0 0 1 -1.64051,0 0.820255,1.2770366 0 1 1 1.64051,0 z"
     id="path3880"
     style="fill:none;stroke-width:1.5;stroke-miterlimit:4;stroke-dasharray:none" />
  <path
     d="m 43.988226,22.070649 a 0.67111565,1.0148837 0 0 1 -1.34223,0 0.67111565,1.0148837 0 1 1 1.34223,0 z"
     id="path3882"
     style="fill:none;stroke-width:1.5;stroke-miterlimit:4;stroke-dasharray:none" />
  <path
     d="m 24.848316,13.549388 c -0.22649,-0.0401 -0.45836,0.0067 -0.68348,0.03779 -0.11312,0.02749 -0.22893,0.05618 -0.33753,0.09906 -0.28482,0.112461 -1.19828,0.674474 0.65939,-0.388467 -0.21698,0.123679 -0.41456,0.277846 -0.59644,0.448306 -0.19839,0.196261 -0.37382,0.413645 -0.54679,0.632121 -0.15913,0.202373 -0.30988,0.411123 -0.46925,0.613285 -0.13784,0.155527 -0.25446,0.327351 -0.37609,0.495344 -0.0755,0.09756 -0.15742,0.185917 -0.20948,0.298542 -0.0819,0.137737 -0.0966,0.299217 -0.12429,0.45394 -0.0292,0.218617 -0.0538,0.437384 -0.0878,0.655374 -0.0274,0.221452 -0.0622,0.441902 -0.0906,0.663234 -0.0243,0.183258 -0.0626,0.362965 -0.116228,0.539652 0,0 -0.991131,0.469105 -0.991131,0.469105 l 0,0 c 0.05197,-0.174842 0.113749,-0.345144 0.135446,-0.528032 0.02468,-0.222417 0.06794,-0.442271 0.08484,-0.665587 0.03729,-0.218495 0.07027,-0.436297 0.0921,-0.656991 0.02235,-0.160336 0.02674,-0.330145 0.09292,-0.479274 0.03258,-0.05304 0.04518,-0.111338 0.07863,-0.163848 0.04712,-0.07397 0.0281,-0.02868 0.08537,-0.09546 0.01635,-0.01906 0.02952,-0.04064 0.04428,-0.06096 0.139896,-0.158042 0.240859,-0.346623 0.386706,-0.500271 0.164977,-0.199855 0.314997,-0.410917 0.476007,-0.613907 0.16842,-0.221815 0.34693,-0.436517 0.5345,-0.642384 0.17341,-0.180213 0.3718,-0.337717 0.58284,-0.471736 0.51854,-0.298262 0.96801,-0.659468 1.558,-0.747131 0.24004,-0.02955 0.48349,-0.0637 0.72452,-0.02331 0,0 -0.90643,0.631604 -0.90643,0.631604 z"
     id="path3884"
     style="stroke-width:1.5;stroke-miterlimit:4;stroke-dasharray:none" />
  <path
     d="m 43.944166,13.100565 c -0.19005,-0.04408 -0.38688,-0.04903 -0.58102,-0.0574 -0.26445,-0.01 -0.52723,0.03346 -0.79057,0.05263 -0.23069,0.01221 -0.4594,0.0139 -0.68869,0.04352 -0.23151,0.01779 -0.45531,0.07498 -0.67645,0.143044 -0.21652,0.05723 -0.42809,0.128639 -0.64034,0.199497 -0.41478,0.155566 -1.2234,0.655945 0.43763,-0.294562 -0.12323,0.06543 -0.20731,0.170315 -0.29734,0.272572 -0.0443,0.04932 -0.0857,0.101007 -0.1295,0.150758 0,0 -1.01092,0.431132 -1.01092,0.431132 l 0,0 c 0.0412,-0.05502 0.0911,-0.09931 0.12817,-0.157432 0.0964,-0.100867 0.16702,-0.22663 0.29065,-0.297938 0.47724,-0.279399 0.91824,-0.595805 1.44012,-0.771774 0.21031,-0.07013 0.42299,-0.132161 0.63659,-0.191452 0.22649,-0.06285 0.4551,-0.11496 0.69041,-0.130402 0.2299,-0.02267 0.46077,-0.02411 0.69115,-0.0404 0.26293,-0.02129 0.52638,-0.052 0.79057,-0.03768 0.20799,0.0057 0.41695,0.01315 0.62113,0.05712 0,0 -0.91159,0.628779 -0.91159,0.628779 z"
     id="path3888"
     style="fill:none;stroke-width:1.5;stroke-miterlimit:4;stroke-dasharray:none" />
  <path
     d="m 16.994469,44.412099 c 1.342231,-0.440577 5.919277,-0.860955 8.500797,0.293719 2.97801,1.332018 5.07599,4.259738 6.71116,7.049238"
     id="path4001"
     style="fill:none;stroke-width:1.5;stroke-miterlimit:4;stroke-dasharray:none" />
  <path
     d="m 10.134176,55.149949 3.877557,4.175831"
     id="path4194"
     style="fill:none;stroke-width:1.5;stroke-miterlimit:4;stroke-dasharray:none" />
  <path
     d="m 19.828068,47.096562 3.579288,3.579283"
     id="path4198"
     style="fill:none;stroke-width:1.5;stroke-miterlimit:4;stroke-dasharray:none" />
  <path
     d="m 3.8704301,57.237865 -2.8336,-3.430147 -2.087915,2.684463"
     id="path4172"
     style="fill:none;stroke-width:1.5;stroke-miterlimit:4;stroke-dasharray:none" />
  <path
     d="M 3.7212931,57.237865 9.0902181,55.149949 12.072954,49.631887 9.9850391,47.245698"
     id="path4174"
     style="fill:none;stroke-width:1.5;stroke-miterlimit:4;stroke-dasharray:none" />
  <path
     d="m 24.302176,53.360308 -2.08792,4.921514"
     id="path4180"
     style="fill:none;stroke-width:1.5;stroke-miterlimit:4;stroke-dasharray:none" />
  <path
     d="m 12.222091,49.482751 6.860293,-2.237053 3.131872,-3.281009"
     id="path4196"
     style="fill:none;stroke-width:1.5;stroke-miterlimit:4;stroke-dasharray:none" />
  <path
     d="m 25.196996,52.912897 5.51806,-0.596547 0.74568,-1.640505"
     id="path4200"
     style="fill:none;stroke-width:1.5;stroke-miterlimit:4;stroke-dasharray:none" />
</svg>
