<?xml version="1.0" ?><!DOCTYPE svg  PUBLIC '-//W3C//DTD SVG 1.1//EN'  'http://www.w3.org/Graphics/SVG/1.1/DTD/svg11.dtd' [
	<!ENTITY stroke_color "#000">
	<!ENTITY fill_color "#eee">
]><svg height="55px" viewBox="0 0 55 55" width="55px" xmlns="http://www.w3.org/2000/svg" xmlns:xlink="http://www.w3.org/1999/xlink" stroke-linecap="round" stroke-linejoin="round" stroke-width="3.5" stroke="&stroke_color;" fill="&fill_color;">
  <g
     transform="matrix(0.32702086,0,0,0.32702086,-28.281255,4.0632089)"
     id="g3861">
    <path
       d="m 229.4265,82.10708 a 34.448574,31.598513 0 1 1 -68.8971,0 34.448574,31.598513 0 1 1 68.8971,0 z"
       id="path3825"
       style="fill:#000000;fill-opacity:1;stroke:none" />
    <path
       d="m 146.8466,108.06462 c 0,0 16.2359,10.15496 24.2773,15.19797 3.6656,2.29879 3.4995,-9.01041 6.1186,-11.44782 1.9482,-0.15766 15.138,8.36289 23.0931,7.10554 8.2572,-1.3051 15.3714,-6.28257 20.4032,-13.78888 -0.5953,-2.28828 -5.5925,-0.008 -7.6013,-0.91343 -2.8453,4.78261 -5.6956,6.90448 -10.0387,7.00464 -13.9586,0.32192 -33.532,-19.36329 -35.3303,-23.68516 4.3069,0.8831 11.4973,1.51301 14.2111,-2.56589 1.5823,-2.3782 -0.543,-5.35067 -2.1712,-7.69767 -3.0708,-4.42645 -11.4011,-4.77895 -13.2242,-8.48717 -2.0107,-4.08982 4.488,-8.63853 8.2898,-11.15177 4.5762,-3.02521 11.481,-8.36867 16.1849,-4.04621 2.4052,2.2102 -7.5659,0.16838 -8.882,3.15802 -1.7425,3.95823 5.8602,4.97597 6.3161,9.27668 0.4237,3.99739 -3.7475,7.27492 -4.3423,11.25045 -0.4099,2.73981 1.6536,5.73092 0.5921,8.2898 -1.2332,2.97281 -7.8906,3.15173 -7.3029,6.31604 10.1484,6.52995 20.5559,10.53313 31.7776,11.44783 9.0031,0.73386 19.1464,0.10081 26.6458,-4.93441 5.4546,-3.6623 10.6274,-10.00969 10.6583,-16.57961 0.03,-6.29744 -5.6333,-11.51446 -10.0662,-15.98748 -6.7701,-6.83137 -18.11,-8.21253 -24.2773,-15.59272 -2.6481,-3.16893 -1.2426,-9.24702 -4.737,-11.44783 -7.9984,-1.60894 -19.6673,-0.96019 -29.0143,1.57901 -11.3585,3.08564 -23.6697,8.68727 -31.3828,16.18486 -4.051,9.65189 9.514,19.53633 9.2766,30.00119 -0.1808,7.96857 -9.6714,21.31664 -9.6714,21.31664"
       id="path3821"
       style="fill:&stroke_color;;fill-opacity:1;stroke:&fill_color;;stroke-width:1px;stroke-linecap:butt;stroke-linejoin:miter;stroke-opacity:1" />
    <path
       d="m 178.3733,63.02406 -1.8587,2.72615 c 0,0 -2.6364,-0.66145 -2.7262,-1.73482 -0.2829,-3.38076 4.202,-7.30607 7.5589,-6.81537 1.5666,4.57181 5.2044,8.55019 5.2044,8.55019 l -7.4349,-4.08922 -1.7348,0.74349"
       id="path3823"
       style="fill:#ffffff;fill-opacity:1;stroke:none" />
    <path
       d="m 221.1936,90.19267 -0.819,4.70927"
       id="path3834"
       style="fill:none;stroke:#000000;stroke-width:2;stroke-linecap:round;stroke-linejoin:miter;stroke-miterlimit:4;stroke-opacity:1;stroke-dasharray:none" />
    <path
       d="m 238.3927,87.32616 2.0475,2.66176"
       id="path3836"
       style="fill:none;stroke:#000000;stroke-width:2;stroke-linecap:round;stroke-linejoin:miter;stroke-miterlimit:4;stroke-opacity:1;stroke-dasharray:none" />
    <path
       d="m 141.89,121.50238 c 0,0 -29.3042,3.77758 -44,-21.33334 -3.9435,-6.73831 -2.7258,-15.11656 -2,-22.66666 2.1847,-22.72591 12.5505,-46.54858 22,-61.33334 20.3839,-1.77411 47.6318,-0.0892 70.6667,2.66667 4.623,0.5531 28.2288,7.16728 32.6667,14.66667 2.2322,3.77212 -0.7807,20.81554 -2.6651,20.39909 -10.8427,-2.39622 -7.4629,-16.14428 -10.3501,-15.81288 -10.3315,1.20112 -23.4198,0.59834 -31.741,3.3315 -8.8873,3.54201 -27.3925,11.3578 -30.4555,17.88252 -2.6561,5.65803 11.5495,23.95055 10.2746,28.17891 -2.3379,7.75325 -13.9551,33.45122 -14.3241,33.9338"
       id="path2997"
       style="fill:&fill_color;;fill-opacity:1;stroke:&stroke_color;;stroke-width:2;stroke-linecap:butt;stroke-linejoin:miter;stroke-miterlimit:4;stroke-opacity:1;stroke-dasharray:none" />
    <path
       d="m 175.0714,119.31507 2.7633,-6.51342 c 0,0 15.3169,6.68998 23.2904,5.92129 5.2145,-0.5027 14.2111,-6.7108 14.2111,-6.7108 l 5.9212,13.81634 c 0,0 -16.5168,2.99189 -24.672,1.77639 -7.6013,-1.13294 -21.514,-8.2898 -21.514,-8.2898 z"
       id="path3806"
       style="fill:&fill_color;;fill-opacity:1;stroke:&stroke_color;;stroke-width:2;stroke-linecap:butt;stroke-linejoin:miter;stroke-miterlimit:4;stroke-opacity:1;stroke-dasharray:none" />
    <path
       d="m 112.7004,115.17017 c 0,0 5.8137,1.1256 8.0925,-0.19738 4.9111,-2.8512 2.925,-12.1206 7.6976,-15.19797 5.0919,-3.28324 12.7474,1.93531 18.1587,-0.78951 2.7991,-1.40946 5.9212,-7.30292 5.9212,-7.30292"
       id="path3767"
       style="fill:none;stroke:#000000;stroke-width:3;stroke-linecap:round;stroke-linejoin:miter;stroke-miterlimit:4;stroke-opacity:1;stroke-dasharray:none" />
    <path
       d="m 99.7723,102.48516 c 0,0 11.7349,0.53347 15.198,-2.17114 4.4756,-3.49537 5.0962,-12.1206 9.8688,-15.19797 5.0919,-3.28324 11.5631,1.93531 16.9744,-0.78951 2.7991,-1.40946 7.6976,-10.06619 7.6976,-10.06619"
       id="path3767-4"
       style="fill:none;stroke:#000000;stroke-width:3;stroke-linecap:round;stroke-linejoin:miter;stroke-miterlimit:4;stroke-opacity:1;stroke-dasharray:none" />
    <g
       transform="translate(-1185.4433,-637.16429)"
       id="g3797"
       style="fill:#000000;fill-opacity:1;stroke:#000000;stroke-opacity:1">
      <path
         d="m 1280.3799,717.7936 12.04,-11.05307 -6.1187,0.39476 1.9738,-12.43471 8.0924,-3.3554 -2.3685,13.42159 c 0,0 27.6772,-26.02525 44.2123,-34.9356 9.3957,-5.06314 29.6064,-9.86881 30.3959,-10.06619 0.7895,-0.19738 16.777,0.59213 16.777,0.59213 -7.5003,-3.3554 -16.5796,-5.32916 -26.0537,-5.32916 l -2.3685,5.13178 -20.1324,0.19738 4.1449,-5.72391 -6.7108,-0.59213 -15.1979,8.88193 15.0006,-1.38163 -4.1449,11.84257 -15.7901,0.98688 4.9344,-11.25044 -16.777,13.61896 8.2898,-0.19738 -0.7895,10.8557 -12.04,2.76327 3.7502,-12.03996 -15.3954,11.84258 -2.7632,9.86882"
         id="path3787"
         style="fill:#000000;fill-opacity:1;stroke:#000000;stroke-width:1px;stroke-linecap:butt;stroke-linejoin:miter;stroke-opacity:1" />
      <path
         d="m 1287.8802,703.38514 1.7764,0.39475 1.7764,-5.92129 -2.1711,-0.39475 z"
         id="path3789"
         style="fill:#000000;fill-opacity:1;stroke:#000000;stroke-width:1px;stroke-linecap:butt;stroke-linejoin:miter;stroke-opacity:1" />
      <path
         d="m 1303.2756,685.62127 0.9869,-5.13178 2.3685,3.75015 z"
         id="path3791"
         style="fill:#000000;fill-opacity:1;stroke:#000000;stroke-width:1px;stroke-linecap:butt;stroke-linejoin:miter;stroke-opacity:1" />
      <path
         d="m 1320.8421,671.2128 1.1842,-5.13178 7.5003,-0.19738 -2.7633,5.13179 -5.1317,-0.19738"
         id="path3793"
         style="fill:#000000;fill-opacity:1;stroke:#000000;stroke-width:1px;stroke-linecap:butt;stroke-linejoin:miter;stroke-opacity:1" />
      <path
         d="m 1345.1193,658.18597 0,-4.1449 10.461,0.7895 -1.1843,3.15802 z"
         id="path3795"
         style="fill:#000000;fill-opacity:1;stroke:#000000;stroke-width:1px;stroke-linecap:butt;stroke-linejoin:miter;stroke-opacity:1" />
    </g>
    <path
       d="m 97.5025,100.16957 18.7508,-21.11926 17.9612,-13.42159 c 0,0 8.0484,-5.69596 12.2373,-8.28981 8.5409,-5.28872 16.7256,-11.61232 26.2511,-14.80322 8.9376,-2.99395 18.73,-2.20005 28.0274,-3.75015 1.6545,-0.27585 4.9344,-0.98688 4.9344,-0.98688 l -0.9869,-8.48718 9.0793,3.94753 -0.5921,1.97376 -5.3291,-2.17114 1.1842,5.72391 0.9869,-2.17113 5.9213,2.17113 0.9869,-5.52653 -12.6321,-5.72391 -5.9213,7.30292 -21.9088,2.76327 -3.9475,-7.30293 13.2242,-3.55277 0.5921,3.94753 -7.6976,1.18425 -0.1974,2.36852 11.2504,-2.17114 -1.7764,-7.30292 -17.7638,3.55277 -7.6977,15.19798 -15.3953,9.0793 -6.5135,-4.53965 14.0138,-9.67144 0,2.56589 -9.4741,5.72392 c 0,0 0.3947,1.77638 1.3816,1.57901 0.9869,-0.19738 10.2636,-5.52654 10.2636,-5.52654 l -1.1843,-6.71079 -17.9612,11.6452 -8.4872,17.56649 -8.4872,7.30292 -2.9606,-3.94753 6.7108,-7.30292 0.5921,1.57901 -5.3291,4.93441 7.6976,-5.13179 -2.9606,-4.9344 -10.461,9.67143 -2.9606,13.81634 -7.8951,8.68456 -4.3422,-1.77639 5.3291,-6.51341 0.7895,1.38163 -2.7632,4.53966 3.3554,-9.27669 -7.8951,6.90817 -2.1712,9.67143 z"
       id="path3804"
       style="fill:#000000;fill-opacity:1;stroke:#000000;stroke-width:1px;stroke-linecap:butt;stroke-linejoin:miter;stroke-opacity:1" />
  </g>
</svg>
