<?xml version="1.0" encoding="UTF-8" standalone="no"?> 
 <svg 
    xmlns="http://www.w3.org/2000/svg" 
    xmlns:xlink="http://www.w3.org/1999/xlink" 
    width="87" 
    height="44"> 
   <defs> 
     <linearGradient 
        id="linearGradient3166"> 
       <stop 
          style="stop-color:#ffffff;stop-opacity:1;" 
          offset="0" 
          id="stop3168" /> 
       <stop 
          style="stop-color:#00ff00;stop-opacity:1;" 
          offset="1" 
          id="stop3170" /> 
     </linearGradient> 
     <linearGradient 
        xlink:href="#linearGradient3166" 
        id="linearGradient3172" 
        x1="0" 
        y1="22" 
        x2="74" 
        y2="22" 
        gradientUnits="userSpaceOnUse" /> 
   </defs> 
   <path 
      style="fill:#00e000;fill-opacity:1;stroke:#008000;stroke-width:1.5;stroke-opacity:1" 
      d="M 70,6 L 86.5,6 L 86.5,12 L 82.5,12 L 82.5,9 L 72,9" /> 
   <path 
      style="fill:#00e000;fill-opacity:1;stroke:#008000;stroke-width:1.5;stroke-opacity:1" 
      d="M 70,33.5 L 86.5,33.5 L 86.5,27.5 L 82.5,27.5 L 82.5,30.5 L 72,30.5" /> 
   <path 
      style="fill:url(#linearGradient3172);fill-opacity:1;stroke:#00a000;stroke-width:2;stroke-opacity:1" 
      d="M 48,1 C 64,1 64,1 64,1 C 64,1 68.1,3.5 69.5,5 C 70.9,6.5 73,11 73,11 L 73,30 C 73,30 70.8,33.7 69.5,35 C 68.1,36.5 64,39 64,39 L 47,39 L 47,39 L 47,43 L 27,43 L 27,39 L 10,39 C 10,39 5.9,36.5 4.5,35 C 3.2,33.7 1,30 1,30 L 1,11 C 1,11 3.1,6.5 4.5,5 C 5.9,3.5 10,1 10,1 L 26,1 L 26,6 L 48,6 L 48,1 z" /> 
   <text 
      style="font-size:12px;text-anchor:middle;text-align:center;font-family:Bitstream Vera Sans"> 
       <tspan 
        x="37" 
        y="26" 
        style="font-size:16px;">பின்னால்</tspan> 
   </text> 
 </svg> 
 